<svg width="500" height="555" viewBox="0 0 500 555" fill="none" xmlns="http://www.w3.org/2000/svg">
<path d="M449.9 442.32H416.78V442.598H449.9V442.32Z" fill="#EBEBEB"/>
<path d="M331.22 445.344H322.53V445.621H331.22V445.344Z" fill="#EBEBEB"/>
<path d="M415.78 432.023H396.59V432.301H415.78V432.023Z" fill="#EBEBEB"/>
<path d="M95.65 433.883H52.46V434.16H95.65V433.883Z" fill="#EBEBEB"/>
<path d="M110.89 433.883H104.56V434.16H110.89V433.883Z" fill="#EBEBEB"/>
<path d="M225.15 438.57H131.47V438.848H225.15V438.57Z" fill="#EBEBEB"/>
<path d="M237 374.955H43.91C42.3973 374.952 40.9475 374.283 39.8788 373.095C38.8102 371.906 38.21 370.296 38.21 368.617V67.3295C38.2231 65.6601 38.8292 64.0638 39.8964 62.8875C40.9637 61.7112 42.4059 61.0497 43.91 61.0469H237C238.514 61.0469 239.967 61.7146 241.038 62.9033C242.108 64.0919 242.71 65.704 242.71 67.385V368.617C242.71 370.298 242.108 371.91 241.038 373.099C239.967 374.287 238.514 374.955 237 374.955ZM43.91 61.2689C42.4636 61.2718 41.0774 61.9116 40.0556 63.0479C39.0338 64.1842 38.46 65.724 38.46 67.3295V368.617C38.46 370.222 39.0338 371.762 40.0556 372.898C41.0774 374.035 42.4636 374.674 43.91 374.677H237C238.447 374.674 239.834 374.035 240.858 372.899C241.881 371.763 242.457 370.223 242.46 368.617V67.3295C242.457 65.723 241.881 64.1832 240.858 63.0472C239.834 61.9113 238.447 61.2718 237 61.2689H43.91Z" fill="#EBEBEB"/>
<path d="M453.31 375.245H260.21C258.696 375.242 257.246 374.573 256.175 373.385C255.105 372.197 254.503 370.587 254.5 368.907V67.6193C254.503 65.9393 255.105 64.3289 256.175 63.1409C257.246 61.9529 258.696 61.2842 260.21 61.2812H453.31C454.821 61.2871 456.268 61.9575 457.335 63.1455C458.401 64.3335 459 65.9422 459 67.6193V368.907C459 370.584 458.401 372.193 457.335 373.381C456.268 374.569 454.821 375.239 453.31 375.245ZM260.21 61.5588C258.763 61.5617 257.375 62.2012 256.352 63.3371C255.329 64.4731 254.753 66.0129 254.75 67.6193V368.907C254.753 370.513 255.329 372.053 256.352 373.189C257.375 374.325 258.763 374.964 260.21 374.967H453.31C454.757 374.964 456.145 374.325 457.168 373.189C458.191 372.053 458.767 370.513 458.77 368.907V67.6193C458.767 66.0129 458.191 64.4731 457.168 63.3371C456.145 62.2012 454.757 61.5617 453.31 61.5588H260.21Z" fill="#EBEBEB"/>
<path d="M500 424.461H0V424.738H500V424.461Z" fill="#EBEBEB"/>
<path d="M75.66 164.279H166.35C177.97 164.279 180.77 146.23 169.8 141.99L169.37 141.834C181.51 130.601 154.88 106.936 125.95 139.703C128.21 128.781 102.49 132.732 94.63 147.64C91.83 137.85 67.31 154.855 75.66 164.279Z" fill="#A8CDE2"/>
<path d="M318.23 119.268H372.61C372.61 119.268 385.36 113.94 383.71 99.8207C382.06 85.7015 362.81 97.4675 362.81 97.4675C362.81 97.4675 368.64 77.765 350 83.3594C331.36 88.9538 329.54 108.479 329.54 108.479C329.54 108.479 305.05 103.728 318.23 119.268Z" fill="#A8CDE2"/>
<path d="M368.19 158.985H404.09C404.09 158.985 412.51 155.466 411.42 146.142C410.33 136.818 397.62 144.588 397.62 144.588C397.62 144.588 401.47 131.59 389.16 135.275C385.69 136.259 382.558 138.358 380.157 141.307C377.756 144.257 376.192 147.927 375.66 151.859C375.66 151.859 359.49 148.739 368.19 158.985Z" fill="#A8CDE2"/>
<path d="M361.29 360.977L361.19 349.189V348.534L361.1 338.022V337.356L361.01 327.366V326.711L360.93 317.198V316.577L360.85 307.497V306.92L360.77 298.24V297.696L360.7 289.404V288.871L360.64 282.011C360.327 282.23 359.991 282.406 359.64 282.533V288.327H353.02L358.36 282.899C357.809 283.022 357.251 283.096 356.69 283.121L352.29 287.561L352.37 282.322C352.007 282.161 351.669 281.936 351.37 281.656L351.25 288.849V289.382L351.13 297.674V298.24L350.98 306.887V307.464L350.84 316.521V317.143L350.69 326.656V327.311L350.53 337.301V337.978L350.36 348.478V349.189L350.18 360.966L349.16 411.804L361.92 411.97L361.29 360.977ZM359.96 358.757L352.27 349.533H359.91L359.96 358.757ZM359.84 348.434H352.23L359.78 339.62L359.84 348.434ZM359.92 335.48L352.6 327.155H359.88L359.92 335.48ZM359.83 326.012H352.59L359.79 318.009L359.83 326.012ZM359.78 314.99L352.78 307.43H359.72L359.78 314.99ZM359.78 306.254H352.86L359.72 298.95L359.78 306.254ZM359.66 289.437V296.353L352.99 289.471L359.66 289.437ZM352.14 291.014L358.81 297.918H352.05L352.14 291.014ZM352.04 299.117H358.8L351.89 306.354L352.04 299.117ZM351.9 309.229L358.9 316.799H351.84L351.9 309.229ZM351.8 317.953H358.89L351.7 325.923L351.8 317.953ZM351.66 328.976L358.99 337.334H351.56L351.66 328.976ZM351.59 338.455H359L351.44 347.224L351.59 338.455ZM351.54 350.066L359.23 359.323H351.42L351.54 350.066Z" fill="#67A5C8"/>
<path d="M360.53 280.76H360.02L359.65 280.383L356.65 283.491C357.207 283.46 357.762 283.386 358.31 283.269L359.56 282.003V282.858C359.91 282.727 360.246 282.552 360.56 282.336L360.53 280.76ZM351.27 280.827V282.07C351.575 282.34 351.912 282.564 352.27 282.736V280.827H351.27Z" fill="#EBEBEB"/>
<path d="M362 279.837C362.036 280.145 362.006 280.458 361.914 280.75C361.822 281.043 361.67 281.308 361.47 281.525L361.11 281.902C360.921 282.07 360.72 282.222 360.51 282.357C360.196 282.572 359.86 282.747 359.51 282.879C359.106 283.06 358.688 283.198 358.26 283.289C357.712 283.407 357.157 283.481 356.6 283.511H355.85C354.624 283.514 353.41 283.242 352.28 282.712C351.922 282.54 351.585 282.316 351.28 282.046L351.19 281.969L350.86 281.613C350.667 281.405 350.522 281.148 350.438 280.863C350.355 280.579 350.335 280.276 350.38 279.982L351.14 275.253H349.14L356.14 271.312L363.43 274.998H361.38L362 279.837Z" fill="#67A5C8"/>
<path d="M394.12 285.766L394.39 411.828H402.63H450.53H458.77L459.13 285.766H394.12Z" fill="#67A5C8"/>
<path d="M406.69 269.727L406.72 297.832H411.82H441.47H446.57L446.62 269.727H406.69Z" fill="#67A5C8"/>
<path d="M406.64 297.836H398.22L398.21 289.422H406.63L406.64 297.836Z" fill="#FAFAFA"/>
<path d="M422.79 289.406H414.37V297.831H422.79V289.406Z" fill="#FAFAFA"/>
<path d="M438.95 289.406H430.53V297.831H438.95V289.406Z" fill="#FAFAFA"/>
<path d="M455.1 297.836H446.68L446.7 289.422H455.12L455.1 297.836Z" fill="#F0F0F0"/>
<path d="M406.53 313.183H398.31L398.29 304.969H406.52L406.53 313.183Z" fill="#F0F0F0"/>
<path d="M422.66 304.969H414.43V313.183H422.66V304.969Z" fill="#F0F0F0"/>
<path d="M438.8 304.969H430.57V313.183H438.8V304.969Z" fill="#FAFAFA"/>
<path d="M454.92 313.183H446.69L446.71 304.969H454.94L454.92 313.183Z" fill="#FAFAFA"/>
<path d="M406.46 328.147H398.43L398.41 320.133H406.45L406.46 328.147Z" fill="#F0F0F0"/>
<path d="M422.58 320.133H414.54V328.147H422.58V320.133Z" fill="#FAFAFA"/>
<path d="M438.69 320.133H430.65V328.147H438.69V320.133Z" fill="#FAFAFA"/>
<path d="M422.74 277.188H414.16V285.779H422.74V277.188Z" fill="#FAFAFA"/>
<path d="M438.92 277.188H430.33V285.779H438.92V277.188Z" fill="#F0F0F0"/>
<path d="M454.79 328.147H446.76L446.77 320.133H454.81L454.79 328.147Z" fill="#F0F0F0"/>
<path d="M406.44 342.763H398.59L398.57 334.938H406.43L406.44 342.763Z" fill="#FAFAFA"/>
<path d="M422.53 334.938H414.68V342.763H422.53V334.938Z" fill="#F0F0F0"/>
<path d="M438.63 342.763H430.78L430.79 334.938H438.64L438.63 342.763Z" fill="#F0F0F0"/>
<path d="M454.72 342.763H446.87L446.89 334.938H454.74L454.72 342.763Z" fill="#FAFAFA"/>
<path d="M406.79 359.19H398.04L398.02 350.477H406.78L406.79 359.19Z" fill="#F0F0F0"/>
<path d="M422.85 359.19H414.11L414.1 350.477H422.86L422.85 359.19Z" fill="#FAFAFA"/>
<path d="M438.92 359.19H430.17V350.477H438.93L438.92 359.19Z" fill="#FAFAFA"/>
<path d="M454.98 359.19H446.23L446.25 350.477H455L454.98 359.19Z" fill="#F0F0F0"/>
<path d="M406.84 373.065H398.29L398.27 364.562H406.83L406.84 373.065Z" fill="#F0F0F0"/>
<path d="M422.89 364.562H414.34V373.065H422.89V364.562Z" fill="#FAFAFA"/>
<path d="M438.96 364.562H430.41V373.065H438.96V364.562Z" fill="#F0F0F0"/>
<path d="M455.01 373.065H446.46L446.48 364.562H455.04L455.01 373.065Z" fill="#FAFAFA"/>
<path d="M406.66 388.687H398.32L398.31 380.406H406.65L406.66 388.687Z" fill="#FAFAFA"/>
<path d="M422.69 380.406H414.35V388.687H422.69V380.406Z" fill="#FAFAFA"/>
<path d="M438.72 380.406H430.38V388.687H438.72V380.406Z" fill="#F0F0F0"/>
<path d="M454.74 388.687H446.41L446.42 380.406H454.76L454.74 388.687Z" fill="#F0F0F0"/>
<path d="M406.66 402.882H398.52L398.51 394.812H406.65L406.66 402.882Z" fill="#F0F0F0"/>
<path d="M454.71 402.882H446.58L446.59 394.812H454.73L454.71 402.882Z" fill="#FAFAFA"/>
<path d="M438.76 394.812H414.46L414.51 396.844H415.18L415.19 411.829H417.62L417.61 396.844H435.65L435.63 411.829H438.06L438.08 396.844H438.81L438.76 394.812Z" fill="#F5F5F5"/>
<path d="M426.73 411.829H417.73V396.844H426.74L426.73 411.829Z" fill="#A8CDE2"/>
<path d="M435.52 411.829H426.51L426.52 396.844H435.54L435.52 411.829Z" fill="#A8CDE2"/>
<path d="M394.21 325.867L394.39 411.826H384.06H324H313.66L312.92 325.867H394.21Z" fill="#67A5C8"/>
<path d="M378.76 344.972H388.84L388.81 334.938H378.73L378.76 344.972Z" fill="#E6E6E6"/>
<path d="M358.65 344.972H368.73L368.69 334.938H358.6L358.65 344.972Z" fill="#E6E6E6"/>
<path d="M338.54 344.972H348.62L348.56 334.938H338.48L338.54 344.972Z" fill="#E6E6E6"/>
<path d="M318.43 344.972H328.51L328.43 334.938H318.35L318.43 344.972Z" fill="#E6E6E6"/>
<path d="M378.38 364.566H389.24L389.21 353.766H378.34L378.38 364.566Z" fill="#E6E6E6"/>
<path d="M358.31 364.566H369.17L369.12 353.766H358.25L358.31 364.566Z" fill="#E6E6E6"/>
<path d="M338.23 364.566H349.09L349.03 353.766H338.16L338.23 364.566Z" fill="#E6E6E6"/>
<path d="M318.16 364.566H329.02L328.94 353.766H318.07L318.16 364.566Z" fill="#E6E6E6"/>
<path d="M378.66 382.483H389.2L389.18 372.016H378.63L378.66 382.483Z" fill="#E6E6E6"/>
<path d="M358.61 382.483H369.15L369.11 372.016H358.56L358.61 382.483Z" fill="#E6E6E6"/>
<path d="M338.56 382.483H349.1L349.04 372.016H338.49L338.56 382.483Z" fill="#E6E6E6"/>
<path d="M318.5 382.483H329.04L328.97 372.016H318.42L318.5 382.483Z" fill="#E6E6E6"/>
<path d="M378.89 400.872H389.11L389.09 390.727H378.85L378.89 400.872Z" fill="#E6E6E6"/>
<path d="M318.81 400.872H329.04L328.96 390.727H318.73L318.81 400.872Z" fill="#E6E6E6"/>
<path d="M338.08 390.727H369.71L369.72 393.79H367.7L367.78 411.828H364.85L364.77 393.79H343.07L343.18 411.828H340.26L340.14 393.79H338.11L338.08 390.727Z" fill="#F5F5F5"/>
<path d="M354.09 411.827H364.92L364.84 393.789H353.99L354.09 411.827Z" fill="#A8CDE2"/>
<path d="M343.11 411.827H353.94L353.85 393.789H343L343.11 411.827Z" fill="#A8CDE2"/>
<path d="M152.1 252.291V248.251C152.084 248.135 152.032 248.03 151.952 247.954C151.872 247.878 151.77 247.836 151.665 247.836C151.56 247.836 151.458 247.878 151.378 247.954C151.298 248.03 151.246 248.135 151.23 248.251V252.691C151.235 252.817 151.281 252.936 151.361 253.027C151.44 253.117 151.547 253.171 151.66 253.179C152.007 253.179 152.345 253.294 152.633 253.507C152.921 253.721 153.146 254.025 153.278 254.381C153.41 254.737 153.444 255.128 153.376 255.505C153.307 255.882 153.14 256.228 152.894 256.499C152.648 256.771 152.335 256.955 151.995 257.028C151.655 257.102 151.303 257.062 150.983 256.913C150.664 256.765 150.391 256.514 150.2 256.193C150.009 255.872 149.908 255.495 149.91 255.111C149.91 254.5 148.99 254.5 149.04 255.111C149.26 257.519 151.79 259.107 153.51 257.175C153.84 256.797 154.071 256.327 154.179 255.814C154.287 255.301 154.268 254.766 154.123 254.264C153.978 253.763 153.714 253.315 153.357 252.967C153.001 252.62 152.567 252.386 152.1 252.291Z" fill="#EBEBEB"/>
<path d="M88 223.243V231.99L79.69 222.766L79.28 223.221H78.7V306.471H89.16V223.221L88 223.243ZM79.86 286.757L87.18 294.882H79.86V286.757ZM79.86 266.1L87.18 274.225H79.86V266.1ZM79.86 245.454L87.18 253.579H79.86V245.454ZM79.86 224.797L87.18 232.933H79.86V224.797ZM87.18 234.21L79.86 242.346V234.21H87.18ZM88 235.12V243.256H80.68L88 235.12ZM87.18 254.867L79.86 262.992V254.867H87.18ZM88 255.777V263.902H80.68L88 255.777ZM87.18 275.513L79.86 283.649V275.513H87.18ZM88 276.39V284.526H80.68L88 276.39ZM87.18 296.137L79.86 304.262V296.137H87.18ZM80.68 305.25L88 297.08V305.25H80.68ZM88 293.972L80.68 285.847H88V293.972ZM88 273.315L80.68 265.19H88V273.315ZM88 252.669L80.68 244.544H88V252.669Z" fill="#F0F0F0"/>
<path d="M79.86 195.82V212.004H81V205.821L87 212.481L87.41 212.026H88V195.82H79.86ZM86 197.108L81 202.658V197.108H86ZM86.82 210.428L81.82 204.878H86.82V210.428ZM81.82 203.601L86.82 198.051V203.601H81.82Z" fill="#A8CDE2"/>
<path d="M60.7601 223.242H46.8101V238.727H60.7601V223.242Z" fill="#A8CDE2"/>
<path d="M151.85 245.584H151.07V215.814L86.1 191.894H81.81L47.02 215.859L46.61 215.137L81.58 191.039H86.23L86.29 191.061L151.85 215.193V245.584Z" fill="#A8CDE2"/>
<path d="M143.9 223.917H144.7L152.86 214.859H46.23V223.884H143.9V223.917ZM145.06 216.147H150.06L145.06 221.697V216.147ZM47.39 222.596V217.046L52.39 222.596H47.39ZM53.21 221.686L48.21 216.136H53.21V221.686ZM54.37 216.136H59.37L54.37 221.686V216.136ZM60.19 222.585H55.19L60.19 217.035V222.585ZM61.35 222.585V217.035L66.35 222.585H61.35ZM67.16 221.675L62.16 216.125H67.16V221.675ZM68.32 216.125H73.32L68.32 221.675V216.125ZM74.14 222.574H69.14L74.14 217.024V222.574ZM75.3 222.574V217.024L80.3 222.574H75.3ZM81.12 221.664L76.12 216.114H81.12V221.664ZM82.28 216.114H87.28L82.28 221.664V216.114ZM88.09 222.563H83.09L88.09 217.013V222.563ZM89.25 222.563V217.013L94.25 222.563H89.25ZM95.07 221.653L90.07 216.103H95.07V221.653ZM96.23 216.103H101.23L96.23 221.653V216.103ZM102.04 222.552H97.04L102.04 217.002V222.552ZM103.2 222.552V217.002L108.2 222.552H103.2ZM109.02 221.641L104.02 216.091H109.02V221.641ZM110.18 216.091H115.18L110.18 221.641V216.091ZM116 222.541H111L116 216.991V222.541ZM117.16 222.541V216.991L122.16 222.541H117.16ZM122.97 221.63L117.97 216.08H122.97V221.63ZM124.13 216.08H129.13L124.13 221.63V216.08ZM129.95 222.529H124.95L129.95 216.979V222.529ZM131.11 216.08H136.11L131.11 221.63V216.08ZM136.93 222.529H131.93L136.93 216.979V222.529ZM138.09 222.529V216.979L143.09 222.529H138.09ZM138.91 216.08H143.91V221.63L138.91 216.08Z" fill="#A8CDE2"/>
<path d="M94.32 226.758H72.86L73.65 216.768C73.7503 215.462 74.2891 214.245 75.1596 213.359C76.0302 212.473 77.1688 211.982 78.35 211.984H88.57C89.7279 211.987 90.8448 212.46 91.7092 213.315C92.5736 214.17 93.1254 215.348 93.26 216.624L94.32 226.758Z" fill="#A8CDE2"/>
<path d="M80.4399 216.117H76.3199V220.69H80.4399V216.117Z" fill="#FAFAFA"/>
<path d="M85.65 216.117H81.53V220.69H85.65V216.117Z" fill="#FAFAFA"/>
<path d="M90.86 216.117H86.74V220.69H90.86V216.117Z" fill="#FAFAFA"/>
<path d="M86.74 193.346C86.74 193.963 86.5752 194.566 86.2664 195.079C85.9577 195.591 85.5188 195.991 85.0053 196.227C84.4919 196.463 83.9269 196.525 83.3818 196.405C82.8367 196.284 82.336 195.987 81.943 195.551C81.55 195.115 81.2824 194.559 81.174 193.954C81.0656 193.349 81.1212 192.722 81.3339 192.152C81.5466 191.582 81.9067 191.095 82.3688 190.752C82.8309 190.409 83.3742 190.227 83.93 190.227C84.6753 190.227 85.39 190.555 85.917 191.14C86.4439 191.725 86.74 192.518 86.74 193.346Z" fill="#E6E6E6"/>
<path d="M151.66 250.914C151.345 250.914 151.033 250.845 150.742 250.711C150.45 250.577 150.186 250.381 149.963 250.134C149.74 249.886 149.563 249.593 149.443 249.269C149.322 248.946 149.26 248.6 149.26 248.25V245.586H154.06V248.25C154.06 248.6 153.998 248.946 153.877 249.269C153.757 249.593 153.58 249.886 153.357 250.134C153.134 250.381 152.87 250.577 152.578 250.711C152.287 250.845 151.975 250.914 151.66 250.914Z" fill="#E6E6E6"/>
<path d="M38.04 285.766L39.9 411.828H48.15H96.05H104.29L103.06 285.766H38.04Z" fill="#67A5C8"/>
<path d="M42.1 289.422L42.33 304.762L42.39 308.969L42.45 313.187H50.88L50.82 308.969L50.77 304.762L50.55 289.422H42.1Z" fill="#E6E6E6"/>
<path d="M58.26 289.422L58.47 304.762L58.52 308.969L58.58 313.187H67.01L66.96 308.969L66.91 304.762L66.72 289.422H58.26Z" fill="#E6E6E6"/>
<path d="M74.42 289.422L74.61 304.762L74.66 308.969L74.71 313.187H83.14L83.1 308.969L83.05 304.762L82.88 289.422H74.42Z" fill="#E6E6E6"/>
<path d="M90.59 289.422L90.75 304.762L90.82 311.267L90.84 313.187H99.28L99.26 311.267L99.19 304.762L99.04 289.422H90.59Z" fill="#E6E6E6"/>
<path d="M42.61 320.133L42.84 335.462L42.9 339.669L42.96 343.876H51.4L51.35 339.669L51.29 335.462L51.08 320.133H42.61Z" fill="#E6E6E6"/>
<path d="M58.73 320.133L58.93 335.462L59.01 341.389L59.04 343.876H67.49L67.46 341.389L67.39 335.462L67.19 320.133H58.73Z" fill="#E6E6E6"/>
<path d="M74.84 320.133L75.03 335.462L75.08 339.669L75.13 343.876H83.58L83.53 339.669L83.48 335.462L83.31 320.133H74.84Z" fill="#E6E6E6"/>
<path d="M90.96 320.133L91.13 335.462L91.17 339.669L91.22 343.876H99.66L99.62 339.669L99.58 335.462L99.43 320.133H90.96Z" fill="#E6E6E6"/>
<path d="M43.09 350.477L43.31 365.739L43.38 369.935L43.44 374.12H51.87L51.81 369.935L51.75 365.739L51.55 350.477H43.09Z" fill="#E6E6E6"/>
<path d="M59.17 350.477L59.37 365.739L59.42 369.935L59.48 374.12H67.91L67.86 369.935L67.81 365.739L67.62 350.477H59.17Z" fill="#E6E6E6"/>
<path d="M75.24 350.477L75.42 365.739L75.47 369.935L75.52 374.12H83.96L83.91 369.935L83.86 365.739L83.69 350.477H75.24Z" fill="#E6E6E6"/>
<path d="M91.3199 350.477L91.4799 365.739L91.5399 371.533L91.5699 374.12H99.9999L99.9799 371.533L99.9199 365.739L99.7699 350.477H91.3199Z" fill="#E6E6E6"/>
<path d="M96 380.406H91.83H84.02H75.67H67.86H59.52H43.36L43.48 388.687H59.63H67.96H75.77H84.11H91.92H96.09H100.26L100.18 380.406H96Z" fill="#E6E6E6"/>
<path d="M84.0099 394.812H59.7099L59.6899 396.844H60.4199L60.6199 411.829H63.0499L62.8499 396.844H80.8899L81.0599 411.829H83.4799L83.3199 396.844H83.9899L84.0099 394.812Z" fill="#FAFAFA"/>
<path d="M72.16 411.829H63.16L62.96 396.844H71.98L72.16 411.829Z" fill="#E6E6E6"/>
<path d="M80.94 411.829H71.94L71.76 396.844H80.77L80.94 411.829Z" fill="#E6E6E6"/>
<path d="M164.38 293.039L165.11 411.831H157.34H112.21H104.44L103.11 293.039H164.38Z" fill="#A8CDE2"/>
<path d="M142.74 382.484H146.05H160.9L160.92 386.292L160.94 390.099L161.04 403.885H153.35L153.25 389.71H145.75H142.79H138.47L138.41 382.484H142.74Z" fill="#F0F0F0"/>
<path d="M113.44 382.484H116.4H130.5L130.57 389.71H115.98L116.13 403.885H108.44L108.3 390.099L108.24 384.593L108.21 382.484H113.44Z" fill="#F0F0F0"/>
<path d="M124.18 395.82H145.09L145.11 397.852H145.34L145.44 411.826H143.18L143.07 397.852H126.25L126.38 411.826H124.12L123.98 397.852H124.2L124.18 395.82Z" fill="#F5F5F5"/>
<path d="M134.69 411.826H143.09L142.98 397.852H134.57L134.69 411.826Z" fill="#EBEBEB"/>
<path d="M126.47 411.826H134.87L134.75 397.852H126.34L126.47 411.826Z" fill="#E0E0E0"/>
<path d="M137.31 297.836H160.62L160.76 320.136H137.5L137.31 297.836Z" fill="#F0F0F0"/>
<path d="M107.09 297.836H130.4L130.59 320.136H107.33L107.09 297.836Z" fill="#F0F0F0"/>
<path d="M137.96 325.867H160.27L160.42 347.179H138.13L137.96 325.867Z" fill="#F0F0F0"/>
<path d="M107.79 325.867H130.1L130.3 347.179H108.01L107.79 325.867Z" fill="#F0F0F0"/>
<path d="M138.19 354.852H160.63L160.77 376.219H138.36L138.19 354.852Z" fill="#F0F0F0"/>
<path d="M108.11 354.852H130.55L130.74 376.219H108.33L108.11 354.852Z" fill="#F0F0F0"/>
<path d="M250 473.982C357.082 473.982 443.89 468.356 443.89 461.417C443.89 454.477 357.082 448.852 250 448.852C142.917 448.852 56.11 454.477 56.11 461.417C56.11 468.356 142.917 473.982 250 473.982Z" fill="#D3E8F4"/>
<path d="M160.83 93.9297L164.56 99.2799H335.42L339.18 93.9297H160.83Z" fill="#106FA4"/>
<g opacity="0.4">
<path d="M160.83 93.9297L164.56 99.2799H335.42L339.18 93.9297H160.83Z" fill="black"/>
</g>
<path d="M335.46 87.0391H164.21V424.013H335.46V87.0391Z" fill="#106FA4"/>
<g opacity="0.4">
<path d="M335.46 87.0391H164.21V424.013H335.46V87.0391Z" fill="white"/>
</g>
<g opacity="0.8">
<path d="M171.15 95.3241C171.216 95.8137 171.186 96.3133 171.063 96.789C170.94 97.2648 170.726 97.7055 170.436 98.0814C170.145 98.4572 169.786 98.7594 169.381 98.9674C168.976 99.1754 168.536 99.2843 168.09 99.2868C167.131 99.245 166.217 98.8217 165.516 98.0942C164.815 97.3667 164.373 96.3835 164.27 95.3241C164.201 94.8314 164.228 94.328 164.351 93.8482C164.473 93.3684 164.687 92.9235 164.979 92.5441C165.27 92.1647 165.632 91.8596 166.04 91.6498C166.447 91.4399 166.891 91.3302 167.34 91.3281C168.302 91.3736 169.217 91.8028 169.917 92.5369C170.617 93.2709 171.055 94.2606 171.15 95.3241Z" fill="#F0F0F0"/>
<path d="M177.46 95.3241C177.521 95.8165 177.487 96.3177 177.36 96.7942C177.232 97.2707 177.014 97.7114 176.721 98.0867C176.427 98.462 176.064 98.7632 175.657 98.9702C175.25 99.1772 174.808 99.2852 174.36 99.2868C173.408 99.2346 172.504 98.8067 171.811 98.0802C171.118 97.3536 170.681 96.3763 170.58 95.3241C170.514 94.8301 170.545 94.3262 170.669 93.8465C170.794 93.3667 171.01 92.9223 171.303 92.5434C171.596 92.1645 171.959 91.8599 172.368 91.6502C172.776 91.4405 173.22 91.3307 173.67 91.3281C174.629 91.3788 175.539 91.8103 176.234 92.5439C176.93 93.2774 177.365 94.2642 177.46 95.3241Z" fill="#F0F0F0"/>
<path d="M183.76 95.3241C183.818 95.8177 183.781 96.3194 183.651 96.7959C183.521 97.2723 183.301 97.7126 183.006 98.0875C182.711 98.4623 182.347 98.7631 181.939 98.9699C181.531 99.1767 181.088 99.2847 180.64 99.2868C179.686 99.2477 178.778 98.8236 178.085 98.094C177.393 97.3645 176.965 96.3796 176.88 95.3241C176.819 94.8283 176.854 94.3237 176.982 93.8439C177.111 93.3642 177.33 92.9204 177.625 92.5422C177.92 92.164 178.285 91.8601 178.695 91.6507C179.104 91.4414 179.549 91.3314 180 91.3281C180.959 91.3681 181.871 91.7969 182.564 92.5334C183.257 93.2698 183.682 94.2627 183.76 95.3241Z" fill="#F0F0F0"/>
<path d="M190.06 95.3241C190.112 95.8192 190.069 96.3209 189.935 96.7966C189.801 97.2723 189.578 97.7113 189.281 98.085C188.984 98.4588 188.619 98.759 188.211 98.966C187.802 99.1731 187.359 99.2824 186.91 99.2868C185.959 99.2469 185.055 98.8216 184.367 98.0914C183.68 97.3612 183.258 96.3767 183.18 95.3241C183.125 94.8258 183.166 94.3203 183.299 93.8406C183.432 93.3609 183.655 92.9179 183.954 92.5406C184.252 92.1633 184.619 91.8603 185.03 91.6513C185.441 91.4424 185.888 91.3322 186.34 91.3281C187.295 91.3691 188.202 91.7995 188.888 92.5368C189.575 93.2741 189.992 94.2666 190.06 95.3241Z" fill="#F0F0F0"/>
<path d="M196.37 95.3241C196.417 95.821 196.371 96.3234 196.233 96.7991C196.095 97.2748 195.869 97.7133 195.57 98.0864C195.27 98.4596 194.904 98.7591 194.494 98.9658C194.084 99.1725 193.64 99.2819 193.19 99.2868C192.242 99.2485 191.34 98.8229 190.657 98.0915C189.974 97.3602 189.558 96.3747 189.49 95.3241C189.438 94.8246 189.481 94.3186 189.617 93.8389C189.753 93.3592 189.978 92.9165 190.278 92.5397C190.578 92.1628 190.946 91.8602 191.358 91.6515C191.77 91.4428 192.217 91.3326 192.67 91.3281C193.624 91.3647 194.531 91.7943 195.215 92.533C195.899 93.2718 196.311 94.2668 196.37 95.3241Z" fill="#F0F0F0"/>
<path d="M202.67 95.3241C202.713 95.8228 202.662 96.3259 202.521 96.8017C202.379 97.2774 202.151 97.7154 201.849 98.0879C201.547 98.4604 201.179 98.7593 200.768 98.9657C200.357 99.1721 199.911 99.2814 199.46 99.2868C198.514 99.2503 197.614 98.8243 196.936 98.0917C196.258 97.3592 195.849 96.3726 195.79 95.3241C195.743 94.8228 195.79 94.3161 195.929 93.8364C196.069 93.3566 196.297 92.9145 196.599 92.5383C196.901 92.1621 197.271 91.8601 197.684 91.6517C198.098 91.4433 198.546 91.3331 199 91.3281C199.951 91.3628 200.857 91.7927 201.536 92.5327C202.216 93.2727 202.62 94.2688 202.67 95.3241Z" fill="#F0F0F0"/>
<path d="M209 95.3241C209.039 95.8245 208.984 96.3284 208.839 96.8042C208.694 97.28 208.462 97.7175 208.158 98.0894C207.854 98.4614 207.484 98.7596 207.072 98.9657C206.659 99.1717 206.212 99.281 205.76 99.2868C204.817 99.2521 203.919 98.8258 203.245 98.092C202.571 97.3583 202.17 96.3706 202.12 95.3241C202.076 94.8217 202.126 94.3144 202.268 93.8347C202.409 93.3549 202.639 92.9131 202.943 92.5373C203.247 92.1615 203.618 91.86 204.032 91.6518C204.446 91.4436 204.895 91.3334 205.35 91.3281C206.3 91.3632 207.202 91.7939 207.879 92.5343C208.555 93.2748 208.955 94.2708 209 95.3241Z" fill="#F0F0F0"/>
<path d="M215.28 95.3241C215.314 95.8272 215.255 96.3327 215.106 96.8093C214.957 97.2859 214.722 97.7236 214.414 98.0951C214.107 98.4666 213.734 98.764 213.319 98.969C212.903 99.174 212.455 99.2822 212 99.2868C211.059 99.2541 210.163 98.8275 209.494 98.0925C208.824 97.3574 208.43 96.3685 208.39 95.3241C208.352 94.8203 208.407 94.313 208.553 93.8339C208.698 93.3548 208.931 92.9141 209.237 92.5393C209.543 92.1645 209.915 91.8635 210.33 91.6551C210.745 91.4468 211.195 91.3355 211.65 91.3281C212.599 91.3584 213.502 91.7881 214.176 92.5302C214.85 93.2722 215.245 94.271 215.28 95.3241Z" fill="#F0F0F0"/>
<path d="M221.58 95.3241C221.61 95.827 221.547 96.3314 221.396 96.8067C221.245 97.2819 221.008 97.7181 220.701 98.0887C220.393 98.4594 220.021 98.7567 219.606 98.9626C219.192 99.1686 218.744 99.2789 218.29 99.2868C217.35 99.2564 216.456 98.8298 215.789 98.0938C215.122 97.3577 214.733 96.3674 214.7 95.3241C214.666 94.8176 214.726 94.3087 214.875 93.8288C215.025 93.3489 215.262 92.9081 215.571 92.5337C215.88 92.1592 216.255 91.8591 216.673 91.6518C217.091 91.4444 217.542 91.3343 218 91.3281C218.944 91.3591 219.842 91.7907 220.508 92.5341C221.174 93.2775 221.557 94.276 221.58 95.3241Z" fill="#F0F0F0"/>
<path d="M227.89 95.3241C227.914 95.8293 227.847 96.3347 227.691 96.8101C227.535 97.2855 227.295 97.7212 226.984 98.0911C226.673 98.461 226.298 98.7576 225.882 98.963C225.465 99.1685 225.016 99.2786 224.56 99.2868C223.621 99.2614 222.728 98.8354 222.065 98.0974C221.402 97.3593 221.02 96.3661 221 95.3241C220.97 94.8168 221.034 94.3081 221.186 93.8288C221.339 93.3495 221.578 92.9097 221.888 92.536C222.199 92.1623 222.574 91.8625 222.992 91.6549C223.41 91.4472 223.862 91.3361 224.32 91.3281C225.265 91.3538 226.164 91.7841 226.829 92.5289C227.495 93.2737 227.875 94.2753 227.89 95.3241Z" fill="#F0F0F0"/>
<path d="M234.19 95.3241C234.21 95.83 234.139 96.3352 233.98 96.8101C233.822 97.2849 233.579 97.7198 233.267 98.089C232.955 98.4583 232.58 98.7545 232.163 98.9602C231.746 99.1659 231.296 99.277 230.84 99.2868C229.905 99.2584 229.016 98.8304 228.358 98.0921C227.701 97.3538 227.325 96.3622 227.31 95.3241C227.284 94.8152 227.352 94.3057 227.508 93.8263C227.664 93.3469 227.905 92.9074 228.218 92.5342C228.531 92.161 228.909 91.8619 229.328 91.6546C229.748 91.4473 230.201 91.3363 230.66 91.3281C231.601 91.3541 232.496 91.7858 233.155 92.5318C233.814 93.2778 234.185 94.2794 234.19 95.3241Z" fill="#F0F0F0"/>
<path d="M240.49 95.3241C240.506 95.8316 240.431 96.3376 240.269 96.8126C240.107 97.2876 239.862 97.7222 239.547 98.0909C239.233 98.4597 238.855 98.7553 238.437 98.9606C238.019 99.166 237.568 99.2768 237.11 99.2868C236.178 99.2581 235.292 98.829 234.639 98.0899C233.986 97.3507 233.618 96.3592 233.61 95.3241C233.59 94.8139 233.662 94.3043 233.822 93.8254C233.982 93.3466 234.227 92.908 234.542 92.5357C234.857 92.1633 235.235 91.8647 235.656 91.6573C236.076 91.4499 236.53 91.338 236.99 91.3281C237.929 91.3514 238.822 91.7834 239.477 92.5309C240.132 93.2784 240.496 94.2816 240.49 95.3241Z" fill="#F0F0F0"/>
<path d="M246.8 95.3241C246.812 95.8333 246.733 96.34 246.568 96.8152C246.403 97.2904 246.155 97.7246 245.838 98.0929C245.521 98.4612 245.141 98.7563 244.721 98.9612C244.301 99.1661 243.849 99.2768 243.39 99.2868C242.459 99.2635 241.573 98.8351 240.924 98.0938C240.275 97.3526 239.915 96.3578 239.92 95.3241C239.904 94.8122 239.98 94.3019 240.143 93.8229C240.307 93.3438 240.554 92.9056 240.871 92.5338C241.189 92.1619 241.57 91.8638 241.992 91.6568C242.414 91.4499 242.869 91.3381 243.33 91.3281C244.266 91.3543 245.154 91.7883 245.803 92.5361C246.453 93.2839 246.811 94.2855 246.8 95.3241Z" fill="#F0F0F0"/>
<path d="M253.1 95.3241C253.069 96.0708 252.841 96.7908 252.444 97.395C252.048 97.9991 251.5 98.4608 250.869 98.7227C250.239 98.9847 249.553 99.0354 248.896 98.8687C248.24 98.7019 247.642 98.3249 247.177 97.7845C246.711 97.2441 246.399 96.564 246.279 95.8285C246.159 95.0931 246.236 94.3346 246.5 93.6472C246.764 92.9598 247.205 92.3736 247.767 91.9613C248.328 91.5491 248.987 91.3289 249.66 91.3281C250.123 91.3382 250.579 91.4497 251.003 91.6563C251.426 91.8629 251.809 92.1604 252.129 92.5318C252.449 92.9032 252.699 93.3411 252.866 93.8203C253.032 94.2995 253.112 94.8106 253.1 95.3241Z" fill="#F0F0F0"/>
<path d="M259.4 95.3241C259.408 96.3568 259.05 97.3515 258.402 98.0931C257.755 98.8347 256.87 99.2635 255.94 99.2868C255.481 99.2768 255.029 99.1661 254.609 98.9612C254.189 98.7563 253.809 98.4612 253.492 98.0929C253.176 97.7246 252.927 97.2904 252.762 96.8152C252.597 96.34 252.518 95.8333 252.53 95.3241C252.514 94.2857 252.869 93.2825 253.517 92.5337C254.166 91.7849 255.055 91.3514 255.99 91.3281C256.451 91.3381 256.906 91.4499 257.329 91.6568C257.751 91.8638 258.131 92.1619 258.449 92.5338C258.766 92.9056 259.014 93.3438 259.177 93.8229C259.34 94.3019 259.416 94.8122 259.4 95.3241Z" fill="#F0F0F0"/>
<path d="M265.71 95.3241C265.708 96.3609 265.34 97.3556 264.686 98.096C264.033 98.8363 263.144 99.2637 262.21 99.2868C261.753 99.2768 261.302 99.166 260.883 98.9606C260.465 98.7553 260.087 98.4597 259.773 98.0909C259.458 97.7222 259.213 97.2876 259.051 96.8126C258.889 96.3376 258.814 95.8316 258.83 95.3241C258.824 94.2835 259.187 93.2819 259.84 92.5347C260.492 91.7875 261.383 91.3543 262.32 91.3281C262.78 91.338 263.235 91.4499 263.656 91.6572C264.077 91.8644 264.456 92.1629 264.772 92.5351C265.088 92.9072 265.333 93.3457 265.494 93.8246C265.655 94.3035 265.729 94.8133 265.71 95.3241Z" fill="#F0F0F0"/>
<path d="M272 95.3241C271.988 96.3612 271.614 97.3528 270.958 98.0913C270.302 98.8299 269.414 99.2583 268.48 99.2868C268.024 99.2769 267.573 99.1659 267.156 98.9603C266.739 98.7548 266.362 98.4587 266.049 98.0896C265.736 97.7206 265.493 97.2858 265.334 96.8109C265.174 96.336 265.101 95.8306 265.12 95.3241C265.125 94.2794 265.496 93.2778 266.155 92.5318C266.814 91.7858 267.709 91.3541 268.65 91.3281C269.109 91.3378 269.561 91.4499 269.98 91.6577C270.399 91.8655 270.776 92.1647 271.089 92.5375C271.401 92.9104 271.643 93.3493 271.799 93.828C271.956 94.3067 272.024 94.8155 272 95.3241Z" fill="#F0F0F0"/>
<path d="M278.32 95.3241C278.297 96.3653 277.915 97.3569 277.253 98.0944C276.59 98.8318 275.698 99.2587 274.76 99.2868C274.305 99.2787 273.856 99.1685 273.44 98.9629C273.024 98.7573 272.65 98.4606 272.34 98.0905C272.03 97.7204 271.79 97.2846 271.635 96.8092C271.481 96.3338 271.414 95.8287 271.44 95.3241C271.453 94.2782 271.829 93.2782 272.491 92.5334C273.152 91.7886 274.048 91.3567 274.99 91.3281C275.448 91.3361 275.901 91.4473 276.319 91.6548C276.738 91.8623 277.114 92.1619 277.425 92.5354C277.736 92.9089 277.976 93.3486 278.13 93.828C278.284 94.3073 278.349 94.8163 278.32 95.3241Z" fill="#F0F0F0"/>
<path d="M284.62 95.3241C284.587 96.373 284.194 97.368 283.52 98.1049C282.847 98.8419 281.945 99.2648 281 99.2868C280.546 99.2788 280.097 99.1686 279.682 98.9627C279.268 98.7569 278.895 98.4598 278.586 98.0893C278.278 97.7189 278.04 97.2828 277.888 96.8075C277.735 96.3322 277.672 95.8276 277.7 95.3241C277.723 94.276 278.107 93.2775 278.773 92.5341C279.439 91.7907 280.336 91.3591 281.28 91.3281C281.741 91.3282 282.197 91.4339 282.619 91.6386C283.042 91.8432 283.422 92.1425 283.735 92.5175C284.049 92.8926 284.289 93.3355 284.441 93.8184C284.594 94.3013 284.654 94.8139 284.62 95.3241Z" fill="#F0F0F0"/>
<path d="M290.92 95.3241C290.883 96.3675 290.49 97.3564 289.822 98.0916C289.154 98.8269 288.26 99.254 287.32 99.2868C286.863 99.2866 286.41 99.1818 285.991 98.979C285.571 98.7761 285.194 98.4795 284.883 98.1077C284.571 97.7359 284.332 97.2969 284.18 96.818C284.028 96.339 283.967 95.8305 284 95.3241C284.033 94.2739 284.424 93.2767 285.094 92.5347C285.764 91.7926 286.664 91.3613 287.61 91.3281C288.07 91.3278 288.525 91.4336 288.946 91.6386C289.367 91.8436 289.745 92.1434 290.056 92.5191C290.367 92.8947 290.604 93.338 290.753 93.8209C290.902 94.3037 290.959 94.8156 290.92 95.3241Z" fill="#F0F0F0"/>
<path d="M297.23 95.3241C297.181 96.3706 296.779 97.3583 296.105 98.092C295.431 98.8258 294.534 99.2521 293.59 99.2868C293.138 99.281 292.691 99.1717 292.279 98.9657C291.866 98.7596 291.496 98.4614 291.192 98.0894C290.888 97.7175 290.656 97.28 290.511 96.8042C290.366 96.3284 290.312 95.8245 290.35 95.3241C290.39 94.2709 290.788 93.2735 291.463 92.5323C292.138 91.791 293.041 91.3608 293.99 91.3281C294.445 91.3352 294.893 91.4465 295.307 91.6551C295.722 91.8638 296.092 92.1651 296.397 92.5403C296.701 92.9156 296.932 93.3565 297.075 93.8356C297.219 94.3146 297.271 94.8214 297.23 95.3241Z" fill="#F0F0F0"/>
<path d="M303.53 95.3241C303.473 96.3717 303.067 97.3581 302.39 98.0909C301.713 98.8236 300.815 99.25 299.87 99.2868C299.418 99.2813 298.973 99.1719 298.561 98.9657C298.149 98.7594 297.781 98.4607 297.478 98.0884C297.176 97.7161 296.946 97.2783 296.803 96.8025C296.661 96.3268 296.609 95.8234 296.65 95.3241C296.7 94.2688 297.104 93.2727 297.784 92.5327C298.464 91.7927 299.369 91.3628 300.32 91.3281C300.774 91.3331 301.222 91.4433 301.636 91.6517C302.049 91.8601 302.419 92.1621 302.721 92.5383C303.023 92.9145 303.251 93.3566 303.391 93.8364C303.53 94.3161 303.577 94.8228 303.53 95.3241Z" fill="#F0F0F0"/>
<path d="M309.83 95.3241C309.766 96.3746 309.354 97.3614 308.672 98.0934C307.99 98.8255 307.088 99.2507 306.14 99.2868C305.694 99.2741 305.255 99.1592 304.85 98.9493C304.446 98.7393 304.085 98.4389 303.79 98.0668C303.495 97.6947 303.273 97.259 303.137 96.7871C303.001 96.3151 302.954 95.817 303 95.3241C303.059 94.2668 303.471 93.2718 304.155 92.533C304.839 91.7943 305.746 91.3647 306.7 91.3281C307.149 91.3403 307.59 91.4561 307.996 91.6681C308.403 91.8802 308.764 92.184 309.059 92.56C309.353 92.9359 309.574 93.3759 309.707 93.8519C309.84 94.3278 309.882 94.8292 309.83 95.3241Z" fill="#F0F0F0"/>
<path d="M316.14 95.3241C316.065 96.3757 315.644 97.3601 314.959 98.0905C314.273 98.821 313.37 99.2466 312.42 99.2868C311.97 99.2839 311.526 99.1758 311.116 98.9694C310.707 98.763 310.341 98.4631 310.042 98.0892C309.744 97.7152 309.52 97.2757 309.386 96.7992C309.251 96.3228 309.208 95.8202 309.26 95.3241C309.326 94.2657 309.743 93.2719 310.43 92.5341C311.116 91.7963 312.025 91.3667 312.98 91.3281C313.432 91.3322 313.879 91.4424 314.29 91.6513C314.701 91.8603 315.068 92.1633 315.366 92.5406C315.665 92.9179 315.888 93.3609 316.021 93.8406C316.154 94.3203 316.195 94.8258 316.14 95.3241Z" fill="#F0F0F0"/>
<path d="M322.44 95.3241C322.356 96.3777 321.928 97.3611 321.238 98.0905C320.548 98.8198 319.642 99.2451 318.69 99.2868C318.242 99.2828 317.799 99.1735 317.392 98.9662C316.984 98.759 316.62 98.4584 316.325 98.0842C316.029 97.71 315.808 97.2706 315.677 96.7949C315.545 96.3193 315.505 95.818 315.56 95.3241C315.637 94.2646 316.062 93.2731 316.752 92.5369C317.443 91.8007 318.353 91.3707 319.31 91.3281C319.761 91.3316 320.207 91.4416 320.617 91.6509C321.026 91.8602 321.392 92.1639 321.688 92.5418C321.984 92.9198 322.204 93.3634 322.334 93.8431C322.463 94.3228 322.5 94.8277 322.44 95.3241Z" fill="#F0F0F0"/>
<path d="M328.75 95.3241C328.65 96.3709 328.217 97.344 327.531 98.0698C326.844 98.7956 325.947 99.2269 325 99.2868C324.552 99.2852 324.11 99.1772 323.703 98.9702C323.296 98.7632 322.933 98.462 322.64 98.0867C322.346 97.7114 322.128 97.2707 322.001 96.7942C321.873 96.3177 321.839 95.8165 321.9 95.3241C321.995 94.266 322.428 93.2807 323.122 92.5474C323.816 91.8141 324.723 91.3814 325.68 91.3281C326.128 91.3356 326.569 91.449 326.974 91.6606C327.379 91.8723 327.739 92.1773 328.029 92.5554C328.32 92.9336 328.534 93.3761 328.659 93.8535C328.783 94.3309 328.814 94.8323 328.75 95.3241Z" fill="#F0F0F0"/>
<path d="M335.05 95.3241C334.948 96.3817 334.507 97.3634 333.808 98.0906C333.109 98.8179 332.197 99.2424 331.24 99.2868C330.794 99.2841 330.353 99.1751 329.948 98.9672C329.543 98.7593 329.183 98.4573 328.892 98.0817C328.601 97.7061 328.386 97.2656 328.261 96.7899C328.137 96.3142 328.106 95.8143 328.17 95.3241C328.265 94.2606 328.703 93.2709 329.403 92.5369C330.103 91.8028 331.018 91.3736 331.98 91.3281C332.429 91.3302 332.873 91.4399 333.28 91.6498C333.688 91.8596 334.05 92.1647 334.341 92.5441C334.633 92.9235 334.847 93.3684 334.969 93.8482C335.092 94.328 335.119 94.8314 335.05 95.3241Z" fill="#F0F0F0"/>
</g>
<path d="M160.82 88.5156H339.19L339.18 93.9324H160.83L160.82 88.5156Z" fill="#106FA4"/>
<path d="M160.81 83.0938L164.53 88.5105H335.44L339.2 83.0938H160.81Z" fill="#106FA4"/>
<g opacity="0.4">
<path d="M160.81 83.0938L164.53 88.5105H335.44L339.2 83.0938H160.81Z" fill="black"/>
</g>
<path d="M160.79 77.6562H339.21L339.2 83.0953H160.81L160.79 77.6562Z" fill="#106FA4"/>
<g opacity="0.8">
<path d="M164.52 83.0938H335.45L335.44 88.5105H164.53L164.52 83.0938Z" fill="white"/>
</g>
<g opacity="0.7">
<path d="M335.5 195.148H164.26V197.535H335.5V195.148Z" fill="white"/>
</g>
<g opacity="0.8">
<path d="M335.49 313.602H164.61V315.977H335.49V313.602Z" fill="white"/>
</g>
<path d="M220.92 109.656H199.75V135.042H220.92V109.656Z" fill="#106FA4"/>
<path d="M261.58 109.656H240.41V135.042H261.58V109.656Z" fill="#106FA4"/>
<path d="M302.24 109.656H281.07V135.042H302.24V109.656Z" fill="#106FA4"/>
<path d="M220.92 147.664H199.75V173.05H220.92V147.664Z" fill="#106FA4"/>
<path d="M261.58 147.664H240.41V173.05H261.58V147.664Z" fill="#106FA4"/>
<path d="M302.24 147.664H281.07V173.05H302.24V147.664Z" fill="#106FA4"/>
<path d="M220.92 331.883H199.75V357.269H220.92V331.883Z" fill="#106FA4"/>
<path d="M261.58 331.883H240.41V357.269H261.58V331.883Z" fill="#106FA4"/>
<path d="M302.24 331.883H281.07V357.269H302.24V331.883Z" fill="#106FA4"/>
<path d="M198.24 385.328H177.07V410.714H198.24V385.328Z" fill="#106FA4"/>
<path d="M322.62 385.328H301.45V410.714H322.62V385.328Z" fill="#106FA4"/>
<path d="M220.92 217.539H199.75V242.925H220.92V217.539Z" fill="#106FA4"/>
<path d="M261.58 217.539H240.41V242.925H261.58V217.539Z" fill="#106FA4"/>
<path d="M302.24 217.539H281.07V242.925H302.24V217.539Z" fill="#106FA4"/>
<path d="M220.92 255.547H199.75V280.933H220.92V255.547Z" fill="#106FA4"/>
<path d="M261.58 255.547H240.41V280.933H261.58V255.547Z" fill="#106FA4"/>
<path d="M302.24 255.547H281.07V280.933H302.24V255.547Z" fill="#106FA4"/>
<g opacity="0.8">
<path d="M225.35 388.305H247.26L247.17 413.557H225.2L225.35 388.305Z" fill="white"/>
</g>
<g opacity="0.8">
<path d="M251.49 388.305H274.3L273.22 413.557H251.25L251.49 388.305Z" fill="white"/>
</g>
<path d="M277.79 418.638H219.98L219.75 413.555H278.01L277.79 418.638Z" fill="#106FA4"/>
<g opacity="0.1">
<path d="M277.79 418.638H219.98L219.75 413.555H278.01L277.79 418.638Z" fill="white"/>
</g>
<path d="M280.12 424.006H217.94L217.69 419H280.35L280.12 424.006Z" fill="#106FA4"/>
<g opacity="0.4">
<path d="M282.18 379.357H215.72L215.43 373.641H282.44L282.18 379.357Z" fill="white"/>
</g>
<path d="M215.72 379.352L225.35 388.298H274.3L282.18 379.352H215.72Z" fill="#263238"/>
<path d="M220.22 383.538L223.62 413.508H226.32L225.23 383.538C224.457 383.097 223.6 382.867 222.73 382.867C221.861 382.867 221.004 383.097 220.23 383.538H220.22Z" fill="#106FA4"/>
<path d="M278.62 383.539L275.29 413.509H272.59L273.59 383.539C274.333 382.999 275.202 382.711 276.09 382.711C276.978 382.711 277.847 382.999 278.59 383.539H278.62Z" fill="#106FA4"/>
<path d="M164.52 83.0938H335.45L335.44 88.5105H164.53L164.52 83.0938Z" fill="#106FA4"/>
<path d="M362.18 256.554C356.81 264.59 354.73 268.286 352.65 270.562C350.38 273.048 327.2 271.15 324.4 269.852C322.26 268.853 323.74 265.767 324.75 265.922C328.57 266.51 342.91 263.702 347.16 261.66C347.9 261.293 355.16 251.492 355.16 251.492L362.18 256.554Z" fill="#FFB573"/>
<path d="M353.36 251.241C357.9 241.994 366.85 235.212 369.56 234.824C373.46 234.258 374.77 235.123 373.63 238.598C371.69 244.514 368.12 250.73 363.09 258.256L353.36 251.241Z" fill="#106FA4"/>
<g opacity="0.1">
<path d="M353.36 251.241C357.9 241.994 366.85 235.212 369.56 234.824C373.46 234.258 374.77 235.123 373.63 238.598C371.69 244.514 368.12 250.73 363.09 258.256L353.36 251.241Z" fill="black"/>
</g>
<path d="M369.56 234.82C371.752 233.936 373.99 233.194 376.26 232.6C380.408 231.493 384.622 230.721 388.87 230.291C391.341 229.996 393.825 229.844 396.31 229.836C396.562 229.833 396.814 229.863 397.06 229.925C397.996 230.184 398.805 230.835 399.317 231.741C399.83 232.647 400.007 233.739 399.81 234.787C395.64 259.262 395.44 270.118 396.04 282.728L370.66 283.727C370.337 283.728 370.025 283.602 369.779 283.37C369.533 283.137 369.37 282.815 369.32 282.461C368.19 276.112 364.68 262.004 364.68 262.004C361.51 258.618 360.98 254.445 360.68 252.014C360.5 250.693 363.16 249.261 366.05 242.268C366 242.268 368.26 235.32 369.56 234.82Z" fill="#106FA4"/>
<path d="M385.6 283.113L376.35 283.491C374.97 271.281 375.23 260.503 375.71 248.359C378.461 260.127 381.762 271.727 385.6 283.113Z" fill="#263238"/>
<path d="M388.28 377.026C388.05 376.46 387.82 375.916 387.6 375.272C377.62 348.799 370 295.263 370 295.263L387.79 285.273C387.79 285.273 392.85 332.315 399.79 362.918C400.85 367.58 401.94 371.798 403.07 375.494L390.92 381.688L388.28 377.026Z" fill="#FFB573"/>
<g opacity="0.8">
<path d="M388.28 377.026C388.05 376.46 387.82 375.916 387.6 375.272C377.62 348.799 370 295.263 370 295.263L387.79 285.273C387.79 285.273 392.85 332.315 399.79 362.918C400.85 367.58 401.94 371.798 403.07 375.494L390.92 381.688L388.28 377.026Z" fill="#263238"/>
</g>
<path d="M371.31 288.359C371.31 288.359 363.17 351.629 365.09 377.503C367.09 404.776 374.39 451.474 374.39 451.474L380.39 451.019C382.427 426.661 381.927 402.123 378.9 377.892C392.65 338.609 394.19 289.358 394.19 289.358L371.31 288.359Z" fill="#FFB573"/>
<path opacity="0.8" d="M371.31 288.359C371.31 288.359 363.17 351.629 365.09 377.503C367.09 404.776 374.39 451.474 374.39 451.474L380.39 451.019C382.427 426.661 381.927 402.123 378.9 377.892C392.65 338.609 394.19 289.358 394.19 289.358L371.31 288.359Z" fill="#263238"/>
<path d="M381.17 453.101C381.588 453.986 381.817 454.966 381.84 455.964C382 459.616 382.23 469.351 382.23 469.351L381.51 469.407C381.51 469.407 381.07 464.633 380.57 462.247C380.07 459.86 379.74 461.914 378.64 464.522C377.54 467.131 374.45 469.806 369.75 470.295C364.24 470.861 361.99 470.75 363.5 469.029C365.01 467.309 368.62 466.021 368.62 466.021C368.62 466.021 373.42 456.908 373.14 450.758C372.84 444.198 379.67 450.359 380.99 449.438C381.46 449.549 380.9 452.568 381.17 453.101Z" fill="#263238"/>
<path d="M400.19 365.192C396.7 366.025 393.6 368.878 384.43 369.899H383.88C383.49 369.899 383.09 369.977 382.67 369.999C380.21 370.143 366.12 369.41 363.51 367.712C365.78 341.683 370.25 286.371 370.25 286.371L381 284.951L394.87 284.484C394.87 284.484 410.17 302.022 406.65 317.94C401.4 341.749 404 345.446 400.19 365.192Z" fill="#263238"/>
<path d="M395.91 270.22C395.543 269.81 395.262 269.315 395.089 268.769C394.916 268.224 394.855 267.643 394.91 267.068C394.91 267.068 394.91 265.314 394.86 262.628C394.78 254.858 394.72 239.318 395.45 237.253C397.05 232.813 399.79 230.382 401.22 232.98C402.9 236.021 403.02 259.098 403.02 259.098C402.59 274.371 397.55 272.351 395.91 270.22Z" fill="#FFB573"/>
<path d="M392.58 229.383L391.74 231.059C388.5 237.541 381 245.988 378.07 246.81C377.386 245.051 376.333 243.498 375 242.281C374.22 242.709 373.527 243.308 372.964 244.043C372.4 244.778 371.976 245.632 371.72 246.555C369.21 242.026 369.43 236.298 370.06 233.468C371.54 232.968 373.12 232.458 374.62 232.047C378.771 230.98 382.985 230.238 387.23 229.827C389.003 229.554 390.79 229.406 392.58 229.383Z" fill="#106FA4"/>
<path opacity="0.8" d="M392.58 229.383L391.74 231.059C388.5 237.541 381 245.988 378.07 246.81C377.518 245.237 377.054 243.628 376.68 241.992C375.11 242.858 373.95 245.322 373.43 247.187C370.91 242.658 369.43 236.298 370.06 233.468C371.54 232.968 373.12 232.458 374.62 232.047C378.771 230.98 382.985 230.238 387.23 229.827C389.003 229.554 390.79 229.406 392.58 229.383Z" fill="white"/>
<path d="M373.28 261.138L369.8 255.898L366.69 262.736C366.69 262.736 369.87 264.712 372.51 264.046L373.28 261.138Z" fill="#FFB573"/>
<path d="M364.29 254.289L362.81 259.817L366.69 262.703L369.8 255.899L364.29 254.289Z" fill="#FFB573"/>
<path d="M396 285.951L383.15 286.339H382.07L379.29 286.428H378.23L370.68 286.65C370.45 286.65 370.24 286.517 370.23 286.351L369.93 283.664C369.93 283.487 370.12 283.32 370.38 283.309L377.84 282.976H378.73L382.42 282.821H383.29L395.67 282.277C395.755 282.266 395.841 282.28 395.92 282.317C395.999 282.354 396.067 282.413 396.12 282.488L396.42 285.54C396.54 285.718 396.32 285.94 396 285.951Z" fill="#106FA4"/>
<path opacity="0.2" d="M396 285.951L383.15 286.339H382.07L379.29 286.428H378.23L370.68 286.65C370.45 286.65 370.24 286.517 370.23 286.351L369.93 283.664C369.93 283.487 370.12 283.32 370.38 283.309L377.84 282.976H378.73L382.42 282.821H383.29L395.67 282.277C395.755 282.266 395.841 282.28 395.92 282.317C395.999 282.354 396.067 282.413 396.12 282.488L396.42 285.54C396.54 285.718 396.32 285.94 396 285.951Z" fill="white"/>
<path d="M374.26 286.947H375.08C375.112 286.955 375.146 286.955 375.179 286.947C375.211 286.939 375.242 286.924 375.268 286.902C375.295 286.88 375.317 286.851 375.333 286.819C375.349 286.786 375.358 286.75 375.36 286.714L374.9 282.906C374.9 282.795 374.74 282.695 374.57 282.695H373.75C373.58 282.695 373.46 282.806 373.47 282.917L373.93 286.736C373.957 286.805 374.004 286.864 374.064 286.902C374.123 286.94 374.192 286.955 374.26 286.947Z" fill="#263238"/>
<path d="M388.58 286.711H389.36C389.39 286.719 389.42 286.72 389.45 286.714C389.481 286.709 389.509 286.696 389.535 286.677C389.56 286.658 389.582 286.634 389.598 286.605C389.614 286.577 389.625 286.545 389.63 286.511L389.16 282.682C389.16 282.582 389 282.482 388.85 282.493H388.07C387.91 282.493 387.8 282.582 387.81 282.704L388.27 286.5C388.28 286.633 388.42 286.711 388.58 286.711Z" fill="#263238"/>
<path d="M392.84 303.15L390.84 302.362L399.74 272.803C401.16 268.108 400.62 263.623 395.37 261.57C390.46 259.649 386.6 262.391 385.17 267.12L376.17 296.59L374.17 295.802L383.17 266.354C384.83 260.904 388.03 257.207 395.75 260.238C403.47 263.268 403.32 268.152 401.67 273.624L392.84 303.15Z" fill="#106FA4"/>
<path d="M397.87 321.392L358.87 305.852L367.71 277.192C367.906 276.528 368.22 275.914 368.632 275.386C369.044 274.858 369.547 274.426 370.111 274.116C370.675 273.806 371.289 273.624 371.917 273.581C372.546 273.537 373.175 273.633 373.77 273.862L402.19 285.073C403.743 285.711 405.013 286.993 405.731 288.65C406.449 290.306 406.56 292.208 406.04 293.953L397.87 321.392Z" fill="#106FA4"/>
<path opacity="0.4" d="M393.55 319.683L363.16 307.561C362.012 307.082 361.079 306.121 360.561 304.887C360.043 303.652 359.982 302.241 360.39 300.957L367.72 277.192C367.916 276.528 368.23 275.914 368.642 275.386C369.054 274.858 369.557 274.426 370.121 274.116C370.685 273.806 371.299 273.624 371.927 273.581C372.556 273.537 373.185 273.633 373.78 273.862L402.2 285.073C403.753 285.711 405.023 286.993 405.741 288.65C406.459 290.306 406.57 292.208 406.05 293.953L399.34 316.453C399.159 317.093 398.864 317.686 398.473 318.198C398.082 318.709 397.602 319.128 397.061 319.429C396.521 319.731 395.932 319.908 395.329 319.952C394.726 319.995 394.121 319.904 393.55 319.683Z" fill="white"/>
<g opacity="0.3">
<path d="M392.84 303.15L391.27 304.671L390.86 302.362L399.76 272.803C401.18 268.108 400.64 263.623 395.39 261.57C390.48 259.649 386.62 262.391 385.19 267.12L376.19 296.59L374.57 298.089L374.22 295.802L383.22 266.354C384.88 260.904 388.08 257.207 395.8 260.238C403.52 263.268 403.37 268.152 401.72 273.624L392.84 303.15Z" fill="white"/>
</g>
<path d="M380.24 285.356L376.99 284.068L377.4 282.703L380.65 283.991L380.24 285.356Z" fill="#106FA4"/>
<path d="M377.54 294.215L374.28 292.928L374.7 291.562L377.95 292.85L377.54 294.215Z" fill="#106FA4"/>
<path d="M396.95 291.976L393.69 290.689L394.1 289.312L397.36 290.6L396.95 291.976Z" fill="#106FA4"/>
<path d="M394.28 300.863L391.01 299.564L391.42 298.188L394.69 299.486L394.28 300.863Z" fill="#106FA4"/>
<path d="M390.5 290.296L383.52 287.532L384.4 284.602L391.38 287.365L390.5 290.296Z" fill="white"/>
<path d="M398.92 271.584C395.79 273.582 383.13 271.329 372.42 264.18C371.92 263.836 371.42 263.881 371.23 263.747C370.56 263.204 372.23 261.949 373.23 261.372C373.78 261.061 397.41 264.38 399.04 264.624C400.89 269.975 399.22 269.908 398.92 271.584Z" fill="#FFB573"/>
<path d="M388.83 379.169C390.55 384.619 396.32 387.016 400.36 383.609C400.524 383.47 400.68 383.322 400.83 383.165C418.33 365.183 440.59 338.976 440.59 338.976L436.84 333.703C423.729 342.138 411.344 351.891 399.84 362.841C395.84 366.648 391.69 370.81 387.65 375.25L388.83 379.169Z" fill="#FFB573"/>
<path opacity="0.8" d="M388.83 379.169C390.55 384.619 396.32 387.016 400.36 383.609C400.524 383.47 400.68 383.322 400.83 383.165C418.33 365.183 440.59 338.976 440.59 338.976L436.84 333.703C423.729 342.138 411.344 351.891 399.84 362.841C395.84 366.648 391.69 370.81 387.65 375.25L388.83 379.169Z" fill="#263238"/>
<path d="M434.57 334.368C434.817 333.476 435.256 332.664 435.85 332.004C437.95 329.573 443.63 323.312 443.63 323.312L444.14 323.879C444.14 323.879 441.58 327.209 440.48 329.118C439.38 331.027 440.83 330.006 443.12 329.284C445.41 328.563 449.07 329.44 452.49 333.014C456.49 337.221 457.95 339.163 455.92 338.975C453.89 338.786 450.7 336.632 450.7 336.632C450.7 336.632 442.03 338.397 438.51 342.516C434.73 346.956 433.91 337.332 432.51 336.81C432.21 336.333 434.42 334.923 434.57 334.368Z" fill="#263238"/>
<path d="M374.51 228.575C376.39 231.062 377.85 234.125 375.35 237.733C374.802 238.503 374.512 239.46 374.53 240.441C374.59 242.006 375.53 243.471 379.85 240.119C386.15 235.28 385.29 230.429 385.29 230.429C381.77 229.519 379.21 221.549 378.13 217.031L374.51 228.575Z" fill="#FFB573"/>
<path opacity="0.2" d="M378.19 223.988C378.81 225.919 377.14 229.205 375.8 230.559C375.43 229.854 375.001 229.189 374.52 228.572L376.66 221.734C377.301 222.364 377.822 223.13 378.19 223.988Z" fill="black"/>
<path d="M359.48 207.382C357.8 214.63 360.3 222.578 364.91 228.039C369.57 222.367 378.38 223.599 383.28 218.182C386.56 214.586 387.16 208.547 385.13 203.952C382.95 199.001 376.51 194.228 371.43 195.005C365.74 195.882 360.89 201.277 359.48 207.382Z" fill="#263238"/>
<path d="M378.89 204.916C378.213 203.811 377.345 202.865 376.338 202.132C375.331 201.399 374.203 200.894 373.02 200.646C371.836 200.397 370.621 200.41 369.442 200.684C368.263 200.958 367.144 201.487 366.15 202.241C360.24 206.681 361.34 217.781 363.98 224.052C366.88 231.068 375.35 231.356 379.3 224.474C381.95 219.89 381.39 216.76 380.41 209.312C380.216 207.736 379.696 206.231 378.89 204.916Z" fill="#FFB573"/>
<path d="M367.32 220.461C367.007 220.624 366.666 220.709 366.32 220.709C365.974 220.709 365.633 220.624 365.32 220.461C365.901 219.106 366.308 217.668 366.53 216.188L367.32 220.461Z" fill="#ED893E"/>
<path d="M372.45 219.782C372.46 219.761 372.465 219.737 372.466 219.713C372.466 219.689 372.462 219.665 372.453 219.643C372.445 219.621 372.432 219.601 372.416 219.585C372.4 219.569 372.381 219.556 372.36 219.549C372.32 219.534 372.276 219.536 372.238 219.554C372.199 219.573 372.168 219.607 372.15 219.649C371.86 220.338 371.425 220.939 370.882 221.403C370.339 221.867 369.704 222.179 369.03 222.313C368.989 222.328 368.955 222.359 368.933 222.4C368.911 222.44 368.903 222.488 368.91 222.535C368.914 222.557 368.921 222.578 368.932 222.597C368.943 222.616 368.958 222.632 368.974 222.644C368.991 222.657 369.01 222.665 369.03 222.67C369.05 222.674 369.07 222.673 369.09 222.668C369.348 222.613 369.603 222.535 369.85 222.435C370.421 222.209 370.946 221.857 371.392 221.402C371.839 220.946 372.199 220.395 372.45 219.782Z" fill="#263238"/>
<path d="M367.7 198.859C367.17 199.804 366.829 200.864 366.7 201.967C374.51 203.965 380.27 213.067 382.49 221.692C384.6 218.606 388.74 214.832 390.35 211.125C392.14 206.962 389.75 202.245 386.15 199.914C382.963 198.168 379.652 196.716 376.25 195.574C374.698 194.99 373.016 194.997 371.468 195.591C369.92 196.186 368.595 197.336 367.7 198.859Z" fill="#263238"/>
<path d="M383.35 213.798C383.293 213.482 383.18 213.181 383.017 212.913C382.855 212.645 382.647 212.415 382.404 212.237C382.162 212.058 381.89 211.935 381.604 211.873C381.319 211.812 381.025 211.813 380.74 211.878C379.09 212.278 378.49 214.842 378.59 216.484C378.73 218.294 380 219.548 381.4 218.416C382.468 217.557 383.187 216.264 383.4 214.819C383.444 214.479 383.427 214.132 383.35 213.798Z" fill="#FFB573"/>
<path d="M370.48 213.119C370.66 213.841 370.48 214.54 370.02 214.673C369.56 214.807 369.11 214.318 368.94 213.563C368.77 212.809 368.94 212.143 369.39 212.02C369.84 211.898 370.3 212.331 370.48 213.119Z" fill="#263238"/>
<path d="M364.52 215.439C364.7 216.161 364.52 216.86 364.06 216.982C363.6 217.104 363.15 216.627 362.97 215.872C362.79 215.117 362.97 214.451 363.43 214.318C363.89 214.185 364.35 214.695 364.52 215.439Z" fill="#263238"/>
<path d="M363.63 214.328H361.94C361.94 214.328 363.07 215.416 363.63 214.328Z" fill="#263238"/>
<path d="M371.74 209.789C371.79 209.756 371.831 209.71 371.86 209.655C371.907 209.574 371.924 209.475 371.907 209.38C371.89 209.285 371.841 209.201 371.77 209.145C371.26 208.755 370.672 208.509 370.057 208.428C369.442 208.347 368.818 208.433 368.24 208.679C368.162 208.722 368.101 208.796 368.07 208.886C368.038 208.977 368.038 209.077 368.07 209.167C368.107 209.253 368.172 209.32 368.252 209.355C368.331 209.39 368.42 209.39 368.5 209.356C368.981 209.159 369.497 209.093 370.005 209.165C370.514 209.236 370.999 209.443 371.42 209.766C371.468 209.798 371.522 209.817 371.578 209.821C371.633 209.824 371.689 209.813 371.74 209.789Z" fill="#263238"/>
<path d="M361.69 213.757C361.729 213.71 361.762 213.658 361.79 213.601C361.967 213.068 362.254 212.589 362.63 212.203C363.005 211.818 363.458 211.536 363.95 211.381C364.036 211.365 364.113 211.312 364.164 211.233C364.214 211.153 364.234 211.055 364.22 210.96C364.211 210.912 364.193 210.867 364.167 210.827C364.142 210.787 364.11 210.753 364.073 210.728C364.035 210.702 363.994 210.684 363.95 210.677C363.907 210.669 363.863 210.671 363.82 210.682C363.22 210.859 362.667 211.192 362.206 211.653C361.746 212.115 361.39 212.691 361.17 213.335C361.151 213.379 361.141 213.426 361.139 213.474C361.137 213.523 361.144 213.571 361.158 213.616C361.173 213.662 361.196 213.703 361.226 213.739C361.255 213.774 361.291 213.803 361.33 213.823C361.389 213.851 361.454 213.86 361.517 213.85C361.58 213.84 361.64 213.812 361.69 213.768V213.757Z" fill="#263238"/>
<path d="M369.59 212.008H367.9C367.9 212.008 369 213.04 369.59 212.008Z" fill="#263238"/>
<path d="M360.77 217.852C361.54 222.414 364.87 228.708 368.42 231.172C366.03 233.181 361.75 230.906 359.23 229.118C357.993 228.174 356.951 226.948 356.174 225.522C355.396 224.096 354.901 222.503 354.72 220.849C354.371 217.531 354.776 214.169 355.9 211.07C357.734 206.052 360.775 201.69 364.69 198.46C365.45 197.772 366.75 197.228 367.25 198.161C367.6 198.804 367.2 199.615 366.82 200.225C363.13 206.153 360.23 210.326 360.77 217.852Z" fill="#263238"/>
<path d="M379.33 226.182H379.27C379.207 226.163 379.152 226.118 379.119 226.056C379.085 225.994 379.075 225.919 379.09 225.849C381.76 213.872 370.19 204.759 366.58 202.206C366.525 202.167 366.486 202.106 366.471 202.035C366.456 201.964 366.466 201.89 366.5 201.828C366.516 201.797 366.538 201.769 366.565 201.748C366.591 201.726 366.621 201.711 366.653 201.702C366.685 201.694 366.718 201.693 366.75 201.699C366.782 201.706 366.813 201.719 366.84 201.739C370.53 204.304 382.33 213.639 379.58 225.982C379.564 226.041 379.531 226.093 379.486 226.13C379.441 226.166 379.386 226.184 379.33 226.182Z" fill="#263238"/>
<path d="M381.36 217.508L381.14 221.737L382.16 222.669L382.66 221.371L381.36 217.508Z" fill="#106FA4"/>
<path d="M398.21 230.217C397.412 229.991 396.575 230.001 395.782 230.247C394.989 230.492 394.268 230.964 393.69 231.615C392.416 233.172 391.612 235.132 391.39 237.221C391.02 240.418 391.75 243.659 392.53 246.778C393.485 249.854 394.018 253.072 394.11 256.324C397.17 254.47 401.62 250.774 405.9 250.285C405.31 242.726 404.52 237.687 403.2 235.189C402.517 233.703 401.599 232.364 400.49 231.238C399.799 230.732 399.024 230.384 398.21 230.217Z" fill="#106FA4"/>
<g opacity="0.1">
<path d="M398.21 230.217C397.412 229.991 396.575 230.001 395.782 230.247C394.989 230.492 394.268 230.964 393.69 231.615C392.416 233.172 391.612 235.132 391.39 237.221C391.02 240.418 391.75 243.659 392.53 246.778C393.485 249.854 394.018 253.072 394.11 256.324C397.17 254.47 401.62 250.774 405.9 250.285C405.31 242.726 404.52 237.687 403.2 235.189C402.517 233.703 401.599 232.364 400.49 231.238C399.799 230.732 399.024 230.384 398.21 230.217Z" fill="white"/>
</g>
<path d="M325.33 265.844C325.33 265.844 317.78 267.231 317.68 267.609C317.58 267.986 317.62 272.704 317.62 272.704L324.4 269.851L325.33 265.844Z" fill="#FFB573"/>
<path d="M317.62 272.702L311.24 266.031L314.09 265.109L318.82 267.962L317.62 272.702Z" fill="#FFB573"/>
<path d="M125.01 441.98L132.14 441.547L132.77 460.295L125.64 460.717L125.01 441.98Z" fill="#F7978D"/>
<path d="M134.52 458.596C136.74 460.117 139.95 461.449 145.8 462.103C147.1 462.248 147.52 465.544 144.51 465.911C141.5 466.277 136.25 466.799 134.07 467.021C130.52 467.443 129.2 467.798 126.4 468.186C126.063 468.224 125.727 468.111 125.465 467.874C125.202 467.637 125.035 467.294 125 466.921L124.7 459.795C124.695 459.719 124.703 459.644 124.724 459.572C124.745 459.5 124.779 459.434 124.824 459.377C124.869 459.32 124.923 459.274 124.984 459.241C125.046 459.208 125.112 459.188 125.18 459.184L133.24 458.207C133.694 458.177 134.144 458.313 134.52 458.596Z" fill="#263238"/>
<path opacity="0.2" d="M125.33 451.652L132.47 451.22L132.14 441.562L125.01 441.995L125.33 451.652Z" fill="black"/>
<path d="M138 459.262C138.098 459.118 138.16 458.947 138.179 458.768C138.199 458.589 138.175 458.407 138.11 458.241C138.077 458.126 138.018 458.022 137.94 457.939C137.861 457.855 137.765 457.795 137.66 457.764C136.75 457.486 134.87 459.273 134.66 459.484C134.646 459.513 134.639 459.546 134.639 459.578C134.639 459.611 134.646 459.644 134.66 459.673C134.673 459.708 134.693 459.74 134.72 459.765C134.746 459.79 134.777 459.808 134.81 459.817C135.451 459.895 136.099 459.895 136.74 459.817C137.205 459.801 137.651 459.604 138 459.262ZM135.2 459.484C135.96 458.851 137.1 457.986 137.59 458.141C137.639 458.158 137.684 458.188 137.721 458.229C137.757 458.269 137.785 458.319 137.8 458.374C137.857 458.476 137.887 458.593 137.887 458.713C137.887 458.832 137.857 458.949 137.8 459.051C137.5 459.484 136.56 459.639 135.24 459.506L135.2 459.484Z" fill="#106FA4"/>
<path d="M134.88 459.776C135.55 459.21 136.45 457.411 136.21 456.568C136.163 456.418 136.073 456.289 135.953 456.201C135.834 456.113 135.693 456.07 135.55 456.079C135.419 456.072 135.288 456.099 135.168 456.159C135.048 456.219 134.942 456.309 134.86 456.423C134.21 457.289 134.64 459.565 134.62 459.654C134.622 459.684 134.632 459.714 134.648 459.739C134.664 459.764 134.685 459.784 134.71 459.798H134.8L134.88 459.776ZM135.51 456.446C135.76 456.446 135.87 456.579 135.85 456.679C135.835 457.647 135.475 458.568 134.85 459.243C134.681 458.376 134.758 457.473 135.07 456.657C135.112 456.597 135.165 456.548 135.225 456.514C135.286 456.48 135.352 456.46 135.42 456.457L135.51 456.446Z" fill="#106FA4"/>
<path d="M68.66 433.672L75.73 435.326L70.58 453.086L63.52 451.421L68.66 433.672Z" fill="#F7978D"/>
<path d="M72.4999 453.094C74.1499 455.314 77.5699 458.001 82.9499 460.642C84.1499 461.242 83.6199 464.505 80.6599 463.817C77.6999 463.129 71.8299 461.475 69.6599 460.975C66.1699 460.154 64.8199 460.021 62.0499 459.433C61.8834 459.397 61.725 459.325 61.5841 459.22C61.4431 459.115 61.3225 458.98 61.2293 458.823C61.1361 458.666 61.0722 458.489 61.0414 458.304C61.0106 458.119 61.0135 457.929 61.0499 457.745L62.7599 450.863C62.7953 450.719 62.8796 450.596 62.9953 450.519C63.1109 450.442 63.2488 450.419 63.3799 450.453L71.3199 452.317C71.7814 452.42 72.1976 452.694 72.4999 453.094Z" fill="#263238"/>
<path opacity="0.2" d="M66.01 442.826L73.07 444.48L75.73 435.334L68.66 433.68L66.01 442.826Z" fill="black"/>
<path d="M113.55 267.516C113.55 267.516 121.07 339.743 121.64 366.75C122.17 391.625 121.8 446.67 121.8 446.67L134.8 445.993C134.8 445.993 140.21 394.855 141.8 369.78C143.22 346.836 138.8 273.421 138.8 273.421L113.55 267.516Z" fill="#106FA4"/>
<path opacity="0.2" d="M116.64 296.003C117.8 310.944 119.38 330.169 120.82 346.253C123.82 336.951 125.62 313.53 122.06 299.178C119.91 290.442 118 292.363 116.64 296.003Z" fill="black"/>
<path d="M119.67 443.78L136.44 442.359L135.67 448.475L121.56 449.774L119.67 443.78Z" fill="#263238"/>
<path d="M98.83 270.297C98.83 270.297 86.69 336.775 82.5 363.381C78.63 387.89 63.5 439.86 63.5 439.86L76.4 442.891C76.4 442.891 97.84 390.31 103.78 366.034C109.21 343.834 122.78 275.913 122.78 275.913L98.83 270.297Z" fill="#106FA4"/>
<path d="M63.1499 434.992L80.5299 438.189L78.7199 443.45L62.9399 439.743L63.1499 434.992Z" fill="#263238"/>
<path d="M74.9999 454.207C75.1374 454.102 75.2464 453.958 75.3152 453.79C75.384 453.622 75.4098 453.436 75.3899 453.252C75.3964 453.132 75.3738 453.012 75.3246 452.905C75.2754 452.797 75.2013 452.707 75.1099 452.642C74.3299 452.064 72.0299 453.108 71.7699 453.23C71.7429 453.25 71.72 453.276 71.7028 453.307C71.6855 453.337 71.6743 453.372 71.6699 453.407C71.6719 453.443 71.6822 453.476 71.6998 453.506C71.7173 453.535 71.7415 453.558 71.7699 453.574C72.3555 453.885 72.9689 454.127 73.5999 454.295C74.061 454.454 74.5582 454.423 74.9999 454.207ZM72.3299 453.396C73.2499 453.008 74.5499 452.619 74.9299 452.952C74.9734 452.985 75.0082 453.03 75.0311 453.083C75.0539 453.136 75.0638 453.194 75.0599 453.252C75.0754 453.372 75.0613 453.494 75.019 453.605C74.9767 453.717 74.9079 453.813 74.8199 453.885C74.4199 454.162 73.4799 453.985 72.2699 453.419L72.3299 453.396Z" fill="#106FA4"/>
<path d="M71.8899 453.585C72.6699 453.274 74.0499 451.897 74.0499 450.998C74.0499 450.838 74.0017 450.682 73.913 450.555C73.8243 450.429 73.7 450.339 73.5599 450.299C73.4367 450.249 73.3045 450.231 73.1741 450.249C73.0437 450.266 72.9189 450.318 72.8099 450.399C71.9499 450.998 71.6899 453.285 71.6699 453.385C71.6665 453.414 71.6703 453.444 71.6808 453.472C71.6914 453.499 71.7083 453.523 71.7299 453.54H71.8099L71.8899 453.585ZM73.4499 450.665C73.6899 450.765 73.7399 450.898 73.7199 451.009C73.7199 451.598 72.7799 452.674 72.0599 453.107C72.1239 452.201 72.4542 451.343 72.9999 450.665C73.0572 450.625 73.1215 450.598 73.1886 450.587C73.2558 450.575 73.3243 450.579 73.3899 450.599L73.4499 450.665Z" fill="#106FA4"/>
<path d="M75.14 285.129C76.82 283.265 77.07 281.222 78.14 279.058C78.85 277.581 77.21 278.159 78.85 278.347C79.4584 278.496 80.0491 278.723 80.61 279.024C82.03 279.635 83.4 280.39 84.84 280.956C86.07 281.444 88.28 281.222 89.33 281.899C91.03 283.009 89.4 287.893 89.04 289.469C88.62 291.379 91.25 292.378 91.67 290.446C92.29 287.693 93.87 282.787 91.96 280.201C90.77 278.591 88.96 278.913 87.3 278.558C84.19 277.892 81.01 274.74 77.75 275.117C77.2633 275.138 76.7931 275.318 76.3995 275.637C76.0059 275.955 75.7066 276.396 75.54 276.904C75.02 278.17 75.32 279.579 74.64 280.911C74.2825 281.604 73.8456 282.242 73.34 282.809C72.08 284.208 73.9 286.528 75.17 285.129H75.14Z" fill="#106FA4"/>
<g opacity="0.3">
<path d="M75.14 285.129C76.82 283.265 77.07 281.222 78.14 279.058C78.85 277.581 77.21 278.159 78.85 278.347C79.4584 278.496 80.0491 278.723 80.61 279.024C82.03 279.635 83.4 280.39 84.84 280.956C86.07 281.444 88.28 281.222 89.33 281.899C91.03 283.009 89.4 287.893 89.04 289.469C88.62 291.379 91.25 292.378 91.67 290.446C92.29 287.693 93.87 282.787 91.96 280.201C90.77 278.591 88.96 278.913 87.3 278.558C84.19 277.892 81.01 274.74 77.75 275.117C77.2633 275.138 76.7931 275.318 76.3995 275.637C76.0059 275.955 75.7066 276.396 75.54 276.904C75.02 278.17 75.32 279.579 74.64 280.911C74.2825 281.604 73.8456 282.242 73.34 282.809C72.08 284.208 73.9 286.528 75.17 285.129H75.14Z" fill="black"/>
</g>
<path d="M56.2349 277.281L106.231 295.882C107.046 296.185 107.719 296.835 108.102 297.689C108.485 298.543 108.547 299.53 108.274 300.435L99.3052 330.135C98.8341 331.695 97.8238 332.984 96.4966 333.717C95.1695 334.451 93.6342 334.569 92.2285 334.046L46.717 317.114C45.3113 316.591 44.1503 315.469 43.4895 313.996C42.8287 312.523 42.7221 310.819 43.1933 309.259L52.1616 279.558C52.433 278.659 53.0132 277.916 53.776 277.489C54.5389 277.063 55.4225 276.988 56.2349 277.281Z" fill="#106FA4"/>
<path opacity="0.3" d="M56.2349 277.281L106.231 295.882C107.046 296.185 107.719 296.835 108.102 297.689C108.485 298.543 108.547 299.53 108.274 300.435L99.3052 330.135C98.8341 331.695 97.8238 332.984 96.4966 333.717C95.1695 334.451 93.6342 334.569 92.2285 334.046L46.717 317.114C45.3113 316.591 44.1503 315.469 43.4895 313.996C42.8287 312.523 42.7221 310.819 43.1933 309.259L52.1616 279.558C52.433 278.659 53.0132 277.916 53.776 277.489C54.5389 277.063 55.4225 276.988 56.2349 277.281Z" fill="white"/>
<path d="M78.3954 300.216L70.5265 325.172L71.4703 325.539L79.3393 300.583L78.3954 300.216Z" fill="#106FA4"/>
<g opacity="0.3">
<path d="M78.3954 300.208L70.5265 325.164L71.4703 325.531L79.3393 300.575L78.3954 300.208Z" fill="black"/>
</g>
<path opacity="0.2" d="M105.37 299.503L54.91 280.733C54.1568 280.455 53.3349 280.519 52.6246 280.912C51.9142 281.306 51.3732 281.995 51.12 282.831L50.77 283.941C50.0598 286.297 50.2211 288.87 51.2185 291.095C52.216 293.32 53.968 295.014 56.09 295.806L96.23 310.803C97.2812 311.192 98.3914 311.349 99.497 311.262C100.603 311.176 101.682 310.849 102.674 310.3C103.666 309.75 104.55 308.989 105.277 308.061C106.004 307.132 106.559 306.053 106.91 304.886L107.26 303.776C107.393 303.358 107.45 302.915 107.427 302.472C107.403 302.029 107.301 301.596 107.125 301.198C106.949 300.8 106.703 300.445 106.401 300.154C106.1 299.863 105.749 299.641 105.37 299.503Z" fill="black"/>
<path d="M106.48 295.975L56 277.205C55.6264 277.065 55.2317 277.009 54.8385 277.039C54.4453 277.069 54.0613 277.185 53.7084 277.38C53.3555 277.575 53.0406 277.845 52.7818 278.175C52.523 278.505 52.3253 278.888 52.2 279.303L51.85 280.413C51.1397 282.769 51.301 285.342 52.2985 287.567C53.2959 289.792 55.048 291.486 57.17 292.279L97.34 307.252C99.4605 308.033 101.773 307.849 103.772 306.74C105.77 305.631 107.29 303.688 108 301.336L108.35 300.226C108.481 299.811 108.536 299.371 108.512 298.932C108.489 298.493 108.387 298.063 108.213 297.668C108.039 297.272 107.797 296.919 107.499 296.629C107.202 296.338 106.855 296.116 106.48 295.975Z" fill="#106FA4"/>
<path d="M106.48 295.975L56 277.205C55.6264 277.065 55.2317 277.009 54.8385 277.039C54.4453 277.069 54.0613 277.185 53.7084 277.38C53.3555 277.575 53.0406 277.845 52.7818 278.175C52.523 278.505 52.3253 278.888 52.2 279.303L51.85 280.413C51.1397 282.769 51.301 285.342 52.2985 287.567C53.2959 289.792 55.048 291.486 57.17 292.279L97.34 307.252C99.4605 308.033 101.773 307.849 103.772 306.74C105.77 305.631 107.29 303.688 108 301.336L108.35 300.226C108.481 299.811 108.536 299.371 108.512 298.932C108.489 298.493 108.387 298.063 108.213 297.668C108.039 297.272 107.797 296.919 107.499 296.629C107.202 296.338 106.855 296.116 106.48 295.975Z" fill="#106FA4"/>
<path opacity="0.5" d="M106.48 295.975L56 277.205C55.6264 277.065 55.2317 277.009 54.8385 277.039C54.4453 277.069 54.0613 277.185 53.7084 277.38C53.3555 277.575 53.0406 277.845 52.7818 278.175C52.523 278.505 52.3253 278.888 52.2 279.303L51.85 280.413C51.1397 282.769 51.301 285.342 52.2985 287.567C53.2959 289.792 55.048 291.486 57.17 292.279L97.34 307.252C99.4605 308.033 101.773 307.849 103.772 306.74C105.77 305.631 107.29 303.688 108 301.336L108.35 300.226C108.481 299.811 108.536 299.371 108.512 298.932C108.489 298.493 108.387 298.063 108.213 297.668C108.039 297.272 107.797 296.919 107.499 296.629C107.202 296.338 106.855 296.116 106.48 295.975Z" fill="white"/>
<path d="M66.1777 289.738L64.5088 289.117C63.4876 288.738 62.3825 289.349 62.0404 290.482L59.4993 298.902C59.1572 300.036 59.7078 301.262 60.7289 301.642L62.3978 302.263C63.419 302.642 64.5241 302.031 64.8662 300.898L67.4073 292.478C67.7494 291.344 67.1988 290.117 66.1777 289.738Z" fill="#106FA4"/>
<path d="M93.3593 299.839L91.6903 299.218C90.6691 298.839 89.564 299.45 89.2221 300.584L86.6824 309.004C86.3405 310.138 86.8912 311.365 87.9124 311.744L89.5814 312.364C90.6026 312.744 91.7077 312.133 92.0496 310.999L94.5893 302.578C94.9312 301.445 94.3805 300.218 93.3593 299.839Z" fill="#106FA4"/>
<path d="M66.1777 289.738L64.5088 289.117C63.4876 288.738 62.3825 289.349 62.0404 290.482L59.4993 298.902C59.1572 300.036 59.7078 301.262 60.7289 301.642L62.3978 302.263C63.419 302.642 64.5241 302.031 64.8662 300.898L67.4073 292.478C67.7494 291.344 67.1988 290.117 66.1777 289.738Z" fill="white"/>
<path d="M93.3593 299.839L91.6903 299.218C90.6691 298.839 89.564 299.45 89.2221 300.584L86.6824 309.004C86.3405 310.138 86.8912 311.365 87.9124 311.744L89.5814 312.364C90.6026 312.744 91.7077 312.133 92.0496 310.999L94.5893 302.578C94.9312 301.445 94.3805 300.218 93.3593 299.839Z" fill="white"/>
<path d="M147.86 213.457C148.31 214.445 148.86 215.622 149.4 216.698C149.94 217.775 150.5 218.918 151.07 220.028C152.22 222.193 153.39 224.324 154.63 226.344C155.829 228.305 157.124 230.191 158.51 231.994C159.633 233.511 160.958 234.829 162.44 235.901L162.64 236.035H162.73H162.98C163.536 236.024 164.085 235.884 164.59 235.624C166.305 234.714 167.891 233.532 169.3 232.116C170.975 230.538 172.552 228.836 174.02 227.021C174.78 226.089 175.54 225.168 176.27 224.202C177 223.236 177.75 222.215 178.4 221.327L178.52 221.149C179.107 220.234 179.993 219.608 180.989 219.406C181.986 219.204 183.014 219.441 183.855 220.067C184.696 220.693 185.284 221.658 185.494 222.758C185.704 223.857 185.52 225.005 184.98 225.956C182.504 230.98 179.481 235.647 175.98 239.853C174 242.207 171.715 244.22 169.2 245.825C167.588 246.824 165.82 247.475 163.99 247.745C162.881 247.897 161.758 247.86 160.66 247.634C160.085 247.523 159.519 247.356 158.97 247.135C158.696 247.047 158.431 246.928 158.18 246.779L157.58 246.48C154.886 244.924 152.443 242.884 150.35 240.441C148.482 238.364 146.754 236.138 145.18 233.781C143.64 231.484 142.18 229.153 140.88 226.755C140.18 225.567 139.56 224.402 138.94 223.147C138.32 221.893 137.73 220.75 137.1 219.362C136.742 218.579 136.527 217.725 136.466 216.849C136.406 215.973 136.501 215.093 136.747 214.258C136.993 213.423 137.385 212.65 137.9 211.983C138.416 211.316 139.044 210.769 139.75 210.371C140.456 209.974 141.225 209.735 142.014 209.668C142.803 209.601 143.597 209.707 144.349 209.98C145.101 210.253 145.797 210.688 146.398 211.26C146.999 211.832 147.492 212.529 147.85 213.313L147.86 213.457Z" fill="#263238"/>
<path d="M181.73 224.688L187.4 226.974L187.01 219.626C187.01 219.626 181.11 217.306 180.33 220.736V222.346C180.316 222.849 180.443 223.345 180.694 223.764C180.945 224.184 181.307 224.507 181.73 224.688Z" fill="#F7978D"/>
<path d="M193.23 225.236L194.43 218.953L187.01 219.619L187.4 226.978L193.23 225.236Z" fill="#F7978D"/>
<path opacity="0.3" d="M149.54 239.207C148.88 238.352 148.24 237.508 147.62 236.654C145.687 233.901 143.943 230.992 142.4 227.951C140.878 224.995 139.51 221.945 138.3 218.816C138.13 218.372 137.97 217.928 137.81 217.484C140.81 215.475 147.29 216.463 149.38 225.798C150.218 230.213 150.272 234.768 149.54 239.207Z" fill="black"/>
<path d="M136.55 279.158L98.8301 270.278C99.2701 266.47 102.35 254.471 104.75 238.831C106.252 228.042 107.117 217.156 107.34 206.242C107.34 206.242 107.34 206.175 107.34 206.142C107.373 205.469 107.526 204.811 107.789 204.204C108.051 203.597 108.42 203.054 108.872 202.605C109.325 202.157 109.852 201.812 110.425 201.59C110.998 201.368 111.604 201.274 112.21 201.313H112.29C114.64 201.469 117.57 201.768 120.4 202.268C125.809 203.192 131.168 204.452 136.45 206.042C138.191 206.661 139.894 207.402 141.55 208.262C142.712 208.816 143.717 209.709 144.459 210.847C145.2 211.984 145.65 213.324 145.76 214.722C146.43 223.957 146.11 241.862 136.55 279.158Z" fill="white"/>
<path d="M131.79 212.122L130.71 214.52C130.648 214.71 130.535 214.876 130.387 214.995C130.239 215.113 130.063 215.18 129.88 215.186L128 215.008C127.73 215.008 127.51 214.742 127.41 214.353L126.65 211.478L129.45 209.547L131.79 212.122Z" fill="#106FA4"/>
<path d="M120 201.567C117 201.034 113.93 200.735 111.45 200.557H111.37H111.23C109.946 200.515 108.699 201.039 107.762 202.015C106.825 202.99 106.274 204.338 106.23 205.763C105.993 217.286 105.085 228.78 103.51 240.173C99.84 269.355 96.21 275.16 96.21 275.16L113 278.612C118.09 252.105 122 215.897 121.6 201.811L120 201.567Z" fill="#263238"/>
<path opacity="0.3" d="M104.07 236.066C105.29 226.642 105.82 216.919 106.07 209.815C106.15 209.721 106.237 209.636 106.33 209.56C108.44 207.562 113.71 212.346 112.27 221.303C110.94 229.773 107.21 234.923 104.07 236.066Z" fill="black"/>
<path d="M139.39 285.27L129.23 282.251C135.61 232.578 137.1 219.38 135.66 205.461C138.177 206.196 140.657 207.077 143.09 208.103C144.362 208.787 145.453 209.826 146.255 211.118C147.058 212.409 147.545 213.91 147.67 215.473C148.53 223.221 143.21 243.09 139.39 285.27Z" fill="#263238"/>
<path d="M127.68 264.749C127.935 264.612 128.211 264.531 128.494 264.512C128.777 264.493 129.06 264.537 129.328 264.64C129.596 264.743 129.842 264.904 130.054 265.113C130.265 265.322 130.437 265.576 130.56 265.859C130.755 266.283 130.831 266.76 130.781 267.232C130.731 267.704 130.555 268.148 130.277 268.509C129.998 268.87 129.63 269.131 129.217 269.258C128.805 269.386 128.368 269.375 127.962 269.227C127.555 269.079 127.197 268.8 126.934 268.425C126.67 268.051 126.513 267.598 126.482 267.124C126.451 266.651 126.547 266.177 126.758 265.764C126.97 265.351 127.287 265.017 127.67 264.805L127.68 264.749Z" fill="#263238"/>
<path d="M126.41 268.177C126.26 267.851 126.168 267.496 126.142 267.131C126.115 266.766 126.153 266.399 126.255 266.05C126.356 265.702 126.518 265.379 126.732 265.1C126.945 264.821 127.206 264.592 127.5 264.425C127.794 264.256 128.115 264.154 128.445 264.126C128.775 264.097 129.106 264.142 129.42 264.259C129.814 264.398 130.17 264.643 130.458 264.973C130.746 265.302 130.956 265.705 131.07 266.146C131.184 266.587 131.198 267.053 131.11 267.501C131.023 267.95 130.837 268.367 130.569 268.717C130.302 269.067 129.96 269.337 129.576 269.505C129.191 269.673 128.775 269.733 128.364 269.68C127.954 269.626 127.562 269.461 127.222 269.199C126.883 268.937 126.608 268.586 126.42 268.177H126.41Z" fill="white"/>
<path d="M129.71 209.601C121.66 208.214 119.78 202.253 119.78 202.253C124.01 199.201 124.66 188.422 124.57 182.406L128.1 187.368L132.92 194.128C132.59 194.958 132.3 195.806 132.05 196.67C131.05 200.111 131.28 203.518 135.71 205.838C135.71 205.838 136.57 210.756 129.71 209.601Z" fill="#F7978D"/>
<path d="M118.28 201.203L120.92 200.781C123.027 204.355 125.855 207.334 129.18 209.484C127.421 210.267 125.913 211.616 124.85 213.358C117 208.185 118.28 201.203 118.28 201.203Z" fill="white"/>
<path d="M135.77 205.352L133.59 204.242C133.59 204.242 131.66 209.304 129.17 209.492C132.94 212.223 133.17 214.632 133.17 214.632C139.49 213.921 135.77 205.352 135.77 205.352Z" fill="white"/>
<path opacity="0.2" d="M132.31 195.86L127.69 189.422C127.484 190.233 127.356 191.067 127.31 191.908C127.16 194.461 129.55 197.691 131.63 198.713L132.31 195.86Z" fill="black"/>
<path d="M137.38 184.104C137.38 184.104 137.63 188.1 141.38 186.569C141.54 182.317 142.8 182.639 144.1 180.142C144.944 178.764 145.436 177.158 145.524 175.495C145.612 173.832 145.293 172.173 144.6 170.696L142.21 169.352C132.89 166.145 137.38 184.104 137.38 184.104Z" fill="#263238"/>
<path opacity="0.6" d="M137.38 184.104C137.38 184.104 137.63 188.1 141.38 186.569C141.54 182.317 142.8 182.639 144.1 180.142C144.944 178.764 145.436 177.158 145.524 175.495C145.612 173.832 145.293 172.173 144.6 170.696L142.21 169.352C132.89 166.145 137.38 184.104 137.38 184.104Z" fill="white"/>
<path d="M127.64 167.942C129.308 165.867 131.651 164.613 134.153 164.454C136.654 164.296 139.11 165.247 140.98 167.099C146.79 172.571 144.75 184.226 141.48 190.542C140.656 192.193 139.442 193.563 137.968 194.504C136.495 195.445 134.817 195.922 133.117 195.884C131.418 195.845 129.759 195.292 128.322 194.284C126.884 193.276 125.722 191.852 124.96 190.164C122.55 184.992 123.83 180.541 125.44 172.771C125.782 170.976 126.54 169.311 127.64 167.942Z" fill="#F7978D"/>
<path d="M124.3 179.82C124.3 179.82 125.24 183.273 128.64 181.43C128.05 177.7 129.33 177.8 130.17 175.436C130.749 174.072 130.948 172.547 130.744 171.057C130.539 169.566 129.939 168.177 129.02 167.067L126.45 166.234C114.23 164.958 124.3 179.82 124.3 179.82Z" fill="#263238"/>
<path opacity="0.6" d="M124.3 179.82C124.3 179.82 125.24 183.273 128.64 181.43C128.05 177.7 129.33 177.8 130.17 175.436C130.749 174.072 130.948 172.547 130.744 171.057C130.539 169.566 129.939 168.177 129.02 167.067L126.45 166.234C114.23 164.958 124.3 179.82 124.3 179.82Z" fill="white"/>
<path d="M136.43 158.522C135.8 158.266 135.12 158.2 134.46 158.331C133.799 158.462 133.182 158.784 132.67 159.265C132 159.909 131.35 160.897 130.48 160.708C130.054 160.538 129.665 160.269 129.34 159.92C127.94 158.81 125.9 159.288 124.54 160.464C123.264 161.754 122.208 163.288 121.42 164.993C120.633 166.71 119.431 168.151 117.95 169.155C119.337 169.891 120.849 170.293 122.386 170.335C123.924 170.377 125.451 170.058 126.87 169.4C126.072 170.493 124.978 171.272 123.75 171.62C126.573 172.516 129.594 172.244 132.25 170.854C133.74 170.066 135.12 168.922 136.75 168.634C138.38 168.345 140.38 169.3 140.53 171.12C140.62 170.897 140.749 170.696 140.912 170.531C141.074 170.366 141.265 170.239 141.473 170.159C141.681 170.079 141.902 170.047 142.121 170.065C142.341 170.083 142.555 170.152 142.75 170.265C143.521 170.791 144.128 171.566 144.49 172.485C144.849 173.399 145.418 174.191 146.14 174.783C146.509 175.061 146.962 175.165 147.401 175.074C147.839 174.983 148.227 174.702 148.48 174.295C147.884 174.241 147.326 173.954 146.904 173.484C146.482 173.013 146.226 172.392 146.18 171.731C147.058 172.275 148.081 172.46 149.07 172.252C147.77 172.164 145.22 167.002 144.83 165.592C144.509 164.176 143.783 162.914 142.76 161.996C141.54 161.064 140.31 162.684 139.16 161.996C138.01 161.308 137.73 159.066 136.43 158.522Z" fill="#263238"/>
<path d="M134.81 186.561C133.876 185.696 133.29 184.454 133.18 183.109L135.18 183.997C136.03 184.364 138.47 185.507 137.93 186.994C137.39 188.482 135.46 187.15 134.81 186.561Z" fill="#263238"/>
<path d="M140.55 188.999C141.154 188.984 141.749 188.837 142.301 188.567C142.854 188.296 143.353 187.908 143.77 187.423L141.68 186.712C140.81 186.412 138.26 185.602 137.84 187.167C137.42 188.732 139.7 189.01 140.55 188.999Z" fill="#263238"/>
<path d="M137.78 186.481C138.186 186.766 138.644 186.95 139.12 187.019C139.597 187.088 140.081 187.041 140.54 186.881C139.874 184.862 139.457 182.752 139.3 180.609L137.78 186.481Z" fill="#FF5652"/>
<path d="M124.7 174.475C126.4 175.108 127.07 178.271 126.99 180.247C126.9 182.467 125.59 183.832 124.12 182.467C122.988 181.298 122.256 179.728 122.05 178.027C121.79 175.807 123 173.831 124.7 174.475Z" fill="#F7978D"/>
<path d="M136 177.982C136.36 178.126 136.5 178.792 136.35 179.358C136.2 179.924 135.77 180.313 135.41 180.179C135.05 180.046 134.93 179.458 135.05 178.825C135.17 178.192 135.63 177.848 136 177.982Z" fill="#263238"/>
<path d="M142.31 179.912C142.68 180.045 142.83 180.645 142.67 181.266C142.51 181.888 142.08 182.299 141.72 182.154C141.36 182.01 141.2 181.411 141.36 180.789C141.52 180.168 142 179.823 142.31 179.912Z" fill="#263238"/>
<path d="M137.15 189.91C137.194 189.914 137.239 189.901 137.275 189.873C137.312 189.844 137.338 189.803 137.35 189.755C137.356 189.705 137.345 189.655 137.319 189.613C137.293 189.572 137.254 189.543 137.21 189.533C136.482 189.422 135.787 189.128 135.179 188.671C134.57 188.215 134.064 187.61 133.7 186.902C133.679 186.858 133.643 186.824 133.601 186.808C133.558 186.792 133.511 186.793 133.47 186.813C133.43 186.837 133.4 186.876 133.385 186.924C133.37 186.971 133.372 187.023 133.39 187.069C133.716 187.726 134.159 188.303 134.692 188.764C135.225 189.226 135.837 189.563 136.49 189.755C136.7 189.81 136.93 189.81 137.15 189.91Z" fill="#263238"/>
<path d="M142.09 177.233C142.102 177.295 142.127 177.353 142.164 177.401C142.201 177.449 142.247 177.487 142.3 177.511C142.719 177.652 143.103 177.898 143.424 178.228C143.744 178.559 143.993 178.967 144.15 179.42C144.159 179.468 144.177 179.512 144.203 179.552C144.228 179.591 144.261 179.624 144.298 179.649C144.336 179.674 144.377 179.691 144.421 179.697C144.464 179.703 144.508 179.7 144.55 179.687C144.635 179.656 144.705 179.591 144.748 179.504C144.791 179.417 144.802 179.316 144.78 179.22C144.596 178.646 144.295 178.128 143.899 177.706C143.503 177.284 143.024 176.97 142.5 176.79C142.414 176.761 142.321 176.771 142.241 176.816C142.161 176.862 142.1 176.939 142.07 177.034C142.057 177.101 142.064 177.171 142.09 177.233Z" fill="#263238"/>
<path d="M134.8 175.263C134.845 175.301 134.898 175.326 134.953 175.338C135.008 175.349 135.066 175.347 135.12 175.33C135.53 175.159 135.97 175.093 136.406 175.138C136.843 175.182 137.264 175.335 137.64 175.585C137.709 175.643 137.796 175.669 137.882 175.657C137.968 175.644 138.047 175.595 138.1 175.519C138.152 175.439 138.174 175.339 138.161 175.242C138.148 175.144 138.101 175.056 138.03 174.997C137.569 174.668 137.044 174.464 136.498 174.403C135.953 174.341 135.402 174.423 134.89 174.642C134.847 174.657 134.808 174.681 134.774 174.713C134.74 174.746 134.712 174.786 134.693 174.83C134.673 174.875 134.662 174.924 134.66 174.973C134.657 175.023 134.664 175.072 134.68 175.119C134.71 175.176 134.751 175.225 134.8 175.263Z" fill="#263238"/>
<path d="M80.75 271.843L79.45 271.688C76.39 273.319 79.71 279.602 79.71 279.602L88.71 278.381L86.1 275.051C84.7446 273.271 82.8338 272.126 80.75 271.843Z" fill="#F7978D"/>
<path d="M89 282.685L88.7 278.367L79.7 279.588L80.2 284.705C80.1953 284.779 80.1953 284.853 80.2 284.927C80.2432 285.122 80.3208 285.306 80.4283 285.468C80.5359 285.629 80.6712 285.766 80.8265 285.869C80.9818 285.972 81.1539 286.04 81.333 286.069C81.5121 286.098 81.6946 286.087 81.87 286.037L88 284.25C88.3033 284.157 88.5683 283.95 88.7504 283.665C88.9325 283.38 89.0207 283.034 89 282.685Z" fill="#F7978D"/>
<path d="M133.18 253.736C133.18 253.736 130.05 262.094 128.67 260.94C127.29 259.785 124.11 253.392 124.1 253.258C124.09 253.125 128 215.008 128 215.008L129.87 215.185C129.11 219.459 133.18 253.736 133.18 253.736Z" fill="#106FA4"/>
<path d="M81.6399 233.101C77.8999 239.006 76.9999 266.867 77.9999 274.027C78.7909 273.043 79.8762 272.411 81.0549 272.248C82.2335 272.085 83.4255 272.401 84.4099 273.139C84.4999 268.233 88.0799 250.706 89.6199 243.391C90.0617 241.334 91.1503 239.519 92.6899 238.274C99.2899 232.968 111.24 222.467 112.56 218.294C114.69 211.634 112.86 197.981 107.56 202.177C102.54 206.184 84.6099 228.339 81.6399 233.101Z" fill="#263238"/>
<path d="M380.85 92.6276C380.135 92.4419 379.436 92.1894 378.76 91.8728C377.5 91.3289 375.89 90.4076 374.2 89.5085C372.8 88.7368 371.292 88.2339 369.74 88.0211C368.55 87.8768 367.74 88.0211 367.63 87.677C367.52 87.3329 368.22 86.6891 369.63 86.3894C371.493 86.109 373.388 86.4693 375.06 87.4217C376.627 88.3289 378.054 89.5052 379.29 90.9071C380.27 91.9394 380.85 92.6276 380.85 92.6276Z" fill="#106FA4"/>
<path d="M388.19 86.0679L386.68 86.7228C385.78 87.1335 384.68 87.7107 383.38 88.3212C380.85 89.5644 378.69 90.852 378.38 90.2859C378.22 90.0306 378.55 89.3979 379.28 88.6209C380.249 87.6024 381.373 86.7831 382.6 86.2011C383.858 85.5961 385.241 85.3813 386.6 85.5795C387.012 85.6399 387.418 85.7478 387.81 85.9014L388.19 86.0679Z" fill="#106FA4"/>
<path d="M367.23 97.5199L366.82 97.2424C366.56 97.0537 366.17 96.8095 365.7 96.532C364.514 95.822 363.276 95.2242 362 94.7449C359.06 93.5683 356.43 93.8347 356.35 93.3352C356.35 93.1132 356.95 92.7358 358.09 92.5582C359.581 92.3654 361.093 92.5514 362.51 93.1021C363.928 93.6561 365.195 94.6038 366.19 95.8549C366.492 96.224 366.76 96.6256 366.99 97.0537L367.23 97.5199Z" fill="#106FA4"/>
<path d="M370.12 90.7699L369.06 91.447L366.71 92.9011C364.94 94.0111 363.57 95.2432 363.23 94.9102C363.08 94.7437 363.23 94.222 363.68 93.5449C364.291 92.6348 365.068 91.8782 365.96 91.3249C366.858 90.7954 367.863 90.528 368.88 90.5479C369.3 90.5638 369.717 90.6383 370.12 90.7699Z" fill="#106FA4"/>
<path d="M364.79 86.9356C364.79 86.9356 363.79 86.5471 362.27 85.8256C360.75 85.1041 358.7 84.1051 356.45 83.2837C354.555 82.5744 352.557 82.2657 350.56 82.3735C349.02 82.4734 348.04 82.8064 347.9 82.4956C347.76 82.1848 348.57 81.3856 350.29 80.7751C352.538 80.1296 354.908 80.2378 357.1 81.0859C359.21 81.913 361.153 83.1914 362.82 84.8488C363.512 85.5025 364.169 86.1992 364.79 86.9356Z" fill="#106FA4"/>
<path d="M371.55 77.3974L370.99 77.5749C370.62 77.6748 370.11 77.8525 369.5 78.0634C367.967 78.6261 366.465 79.2857 365 80.0392C361.58 81.7375 359.38 84.2572 358.91 83.8576C358.69 83.6689 358.97 82.7476 359.84 81.5488C361.009 80.0048 362.475 78.772 364.13 77.9413C365.784 77.1124 367.601 76.7612 369.41 76.9201C369.951 76.9625 370.487 77.0628 371.01 77.2197L371.55 77.3974Z" fill="#106FA4"/>
<path d="M139.93 120.662C139.217 120.47 138.518 120.218 137.84 119.907C136.58 119.364 134.96 118.442 133.28 117.532C131.875 116.765 130.364 116.262 128.81 116.045C127.62 115.9 126.81 116.045 126.7 115.701C126.59 115.356 127.29 114.713 128.7 114.424C130.563 114.137 132.46 114.498 134.13 115.456C135.7 116.353 137.128 117.527 138.36 118.931C139.35 119.963 139.93 120.662 139.93 120.662Z" fill="#106FA4"/>
<path d="M147.27 114.106L145.75 114.761C144.85 115.16 143.75 115.737 142.45 116.359C139.92 117.591 137.77 118.879 137.45 118.324C137.28 118.057 137.62 117.436 138.34 116.648C139.311 115.632 140.435 114.813 141.66 114.228C142.92 113.631 144.301 113.416 145.66 113.606C146.069 113.67 146.47 113.778 146.86 113.928C147 113.979 147.136 114.038 147.27 114.106Z" fill="#106FA4"/>
<path d="M126.31 125.551L125.89 125.273C125.63 125.085 125.25 124.84 124.78 124.563C123.592 123.857 122.355 123.259 121.08 122.776C118.14 121.666 115.5 121.866 115.42 121.366C115.42 121.144 116.03 120.767 117.16 120.589C118.656 120.396 120.171 120.585 121.59 121.144C123.008 121.693 124.275 122.637 125.27 123.886C125.569 124.255 125.834 124.656 126.06 125.085L126.31 125.551Z" fill="#106FA4"/>
<path d="M129.19 118.771L128.14 119.448L125.79 120.991C124.01 122.101 122.65 123.333 122.31 122.989C122.15 122.833 122.31 122.312 122.76 121.623C123.374 120.734 124.151 120 125.04 119.47C125.933 118.936 126.935 118.664 127.95 118.682C128.365 118.654 128.782 118.684 129.19 118.771Z" fill="#106FA4"/>
<path d="M175.4 76V62H181.8C183.08 62 184.18 62.2067 185.1 62.62C186.033 63.0333 186.753 63.6333 187.26 64.42C187.767 65.1933 188.02 66.1133 188.02 67.18C188.02 68.2333 187.767 69.1467 187.26 69.92C186.753 70.6933 186.033 71.2933 185.1 71.72C184.18 72.1333 183.08 72.34 181.8 72.34H177.6L179.36 70.62V76H175.4ZM179.36 71.04L177.6 69.22H181.56C182.387 69.22 183 69.04 183.4 68.68C183.813 68.32 184.02 67.82 184.02 67.18C184.02 66.5267 183.813 66.02 183.4 65.66C183 65.3 182.387 65.12 181.56 65.12H177.6L179.36 63.3V71.04ZM193.591 67.42H200.091V70.38H193.591V67.42ZM193.871 72.94H201.191V76H189.951V62H200.931V65.06H193.871V72.94ZM203.388 76V62H209.788C211.068 62 212.168 62.2067 213.088 62.62C214.022 63.0333 214.742 63.6333 215.248 64.42C215.755 65.1933 216.008 66.1133 216.008 67.18C216.008 68.2333 215.755 69.1467 215.248 69.92C214.742 70.68 214.022 71.2667 213.088 71.68C212.168 72.08 211.068 72.28 209.788 72.28H205.588L207.348 70.62V76H203.388ZM212.048 76L208.568 70.9H212.788L216.288 76H212.048ZM207.348 71.04L205.588 69.22H209.548C210.375 69.22 210.988 69.04 211.388 68.68C211.802 68.32 212.008 67.82 212.008 67.18C212.008 66.5267 211.802 66.02 211.388 65.66C210.988 65.3 210.375 65.12 209.548 65.12H205.588L207.348 63.3V71.04ZM224.653 76.28C222.586 76.28 220.973 75.7133 219.813 74.58C218.653 73.4467 218.073 71.84 218.073 69.76V62H222.033V69.64C222.033 70.84 222.266 71.7 222.733 72.22C223.213 72.74 223.866 73 224.693 73C225.52 73 226.166 72.74 226.633 72.22C227.1 71.7 227.333 70.84 227.333 69.64V62H231.233V69.76C231.233 71.84 230.653 73.4467 229.493 74.58C228.333 75.7133 226.72 76.28 224.653 76.28ZM238.836 76.28C237.689 76.28 236.582 76.14 235.516 75.86C234.462 75.5667 233.602 75.1933 232.936 74.74L234.236 71.82C234.862 72.22 235.582 72.5533 236.396 72.82C237.222 73.0733 238.042 73.2 238.856 73.2C239.402 73.2 239.842 73.1533 240.176 73.06C240.509 72.9533 240.749 72.82 240.896 72.66C241.056 72.4867 241.136 72.2867 241.136 72.06C241.136 71.74 240.989 71.4867 240.696 71.3C240.402 71.1133 240.022 70.96 239.556 70.84C239.089 70.72 238.569 70.6 237.996 70.48C237.436 70.36 236.869 70.2067 236.296 70.02C235.736 69.8333 235.222 69.5933 234.756 69.3C234.289 68.9933 233.909 68.6 233.616 68.12C233.322 67.6267 233.176 67.0067 233.176 66.26C233.176 65.42 233.402 64.66 233.856 63.98C234.322 63.3 235.016 62.7533 235.936 62.34C236.856 61.9267 238.002 61.72 239.376 61.72C240.296 61.72 241.196 61.8267 242.076 62.04C242.969 62.24 243.762 62.54 244.456 62.94L243.236 65.88C242.569 65.52 241.909 65.2533 241.256 65.08C240.602 64.8933 239.969 64.8 239.356 64.8C238.809 64.8 238.369 64.86 238.036 64.98C237.702 65.0867 237.462 65.2333 237.316 65.42C237.169 65.6067 237.096 65.82 237.096 66.06C237.096 66.3667 237.236 66.6133 237.516 66.8C237.809 66.9733 238.189 67.12 238.656 67.24C239.136 67.3467 239.656 67.46 240.216 67.58C240.789 67.7 241.356 67.8533 241.916 68.04C242.489 68.2133 243.009 68.4533 243.476 68.76C243.942 69.0533 244.316 69.4467 244.596 69.94C244.889 70.42 245.036 71.0267 245.036 71.76C245.036 72.5733 244.802 73.3267 244.336 74.02C243.882 74.7 243.196 75.2467 242.276 75.66C241.369 76.0733 240.222 76.28 238.836 76.28ZM245.185 76L251.365 62H255.265L261.465 76H257.345L252.505 63.94H254.065L249.225 76H245.185ZM248.565 73.28L249.585 70.36H256.425L257.445 73.28H248.565ZM271.948 62H275.908V76H271.948V62ZM266.548 76H262.588V62H266.548V76ZM272.228 70.54H266.268V67.26H272.228V70.54ZM277.021 76L283.201 62H287.101L293.301 76H289.181L284.341 63.94H285.901L281.061 76H277.021ZM280.401 73.28L281.421 70.36H288.261L289.281 73.28H280.401ZM293.31 76L299.49 62H303.39L309.59 76H305.47L300.63 63.94H302.19L297.35 76H293.31ZM296.69 73.28L297.71 70.36H304.55L305.57 73.28H296.69ZM310.713 76V62H313.973L321.693 71.32H320.153V62H324.033V76H320.773L313.053 66.68H314.592V76H310.713Z" fill="#263238"/>
</svg>
