<svg width="355" height="355" viewBox="0 0 355 355" fill="none" xmlns="http://www.w3.org/2000/svg">
<path d="M60.6625 93.009L70.0558 77.7298C87.1029 60.42 113.21 52.539 136.995 57.58C160.78 62.621 181.476 80.3639 190.053 103.112C195.101 116.489 196.507 131.889 206.085 142.51C218.538 156.327 239.696 156.76 258.291 156.199C276.886 155.638 298.051 156.114 310.455 169.987C318.222 178.678 320.686 191.032 320.061 202.647C318.407 233.454 296.666 260.995 269.019 274.691C241.372 288.387 208.818 289.601 178.565 283.587C136.178 275.145 95.8643 251.978 71.6391 216.187C47.4139 180.396 41.2795 131.654 60.6625 93.009Z" fill="#EBEBEB"/>
<path d="M24.6866 321.071C24.6866 321.17 93.1093 321.256 177.493 321.256C261.876 321.256 330.313 321.17 330.313 321.071C330.313 320.972 261.905 320.922 177.5 320.922C93.0951 320.922 24.6866 320.972 24.6866 321.071Z" fill="#263238"/>
<path d="M57.0839 307.693C57.5667 305.783 56.3029 303.873 54.89 302.495C53.4771 301.118 51.7944 299.89 51.056 298.058C49.8561 295.104 51.4252 291.256 49.3946 288.792C48.2018 287.372 46.0647 286.868 45.0068 285.313C44.5097 284.472 44.1749 283.545 44.0199 282.58C42.8681 277.657 40.4161 273.133 36.9199 269.48C36.7127 273.874 37.6938 278.242 39.7599 282.126C40.5835 283.68 41.5988 285.186 41.8899 286.925C42.3443 289.765 40.7894 292.655 41.4994 295.445C42.3088 298.612 45.8801 300.706 46.0647 303.965C46.2209 306.72 43.8353 309.155 44.027 311.903C44.1768 313.074 44.6054 314.191 45.2766 315.162C47.4066 318.712 50.5661 321.119 55.3089 321.012L61.1238 321.183L57.0839 307.693Z" fill="#053D38"/>
<path d="M62.3024 321.262C62.8333 321.342 63.374 321.327 63.8999 321.22C64.5415 321.121 65.1718 320.96 65.7814 320.737C66.6235 320.437 67.4103 320 68.1102 319.445C68.5291 319.102 68.8561 318.66 69.0616 318.159C69.2338 317.596 69.3223 317.009 69.3243 316.42C69.3327 315.793 69.3754 315.168 69.4521 314.546C69.5637 313.88 69.8049 313.243 70.1621 312.671C70.8721 311.464 71.9726 310.314 72.3276 308.681C72.6826 307.048 72.427 305.337 72.143 303.59C71.859 301.844 71.5892 299.948 72.2495 298.13C72.9098 296.313 74.1239 294.658 74.7487 292.607C75.3735 290.555 75.0682 288.311 75.1889 286.117C75.2162 285.005 75.4573 283.908 75.8989 282.887C76.3604 281.857 77.0065 280.884 77.5106 279.798C78.533 277.604 78.6963 275.119 78.9661 272.698C79.0939 271.477 79.2288 270.234 79.3637 268.985C79.4402 267.726 79.6496 266.479 79.9885 265.264C80.37 264.037 80.8276 262.835 81.3588 261.665C81.6316 261.057 81.8525 260.428 82.0191 259.783C82.1163 259.12 82.1756 258.451 82.1966 257.781C82.2509 256.439 82.1915 255.095 82.0191 253.762C81.8558 252.421 81.6073 251.093 81.4511 249.751C81.4511 249.673 81.4511 249.588 81.4511 249.517V249.254L81.2097 249.368C79.9827 250.005 78.9187 250.916 78.0999 252.03C77.3012 253.118 76.6605 254.313 76.1971 255.58C75.2386 258.079 74.9049 260.699 74.4292 263.198C74.0786 265.668 73.2848 268.054 72.0862 270.242C71.4543 271.278 70.6662 272.23 70.0201 273.238C69.3066 274.227 68.8216 275.361 68.6001 276.561C68.2664 279.017 69.6367 281.168 69.3669 283.348C69.2375 284.419 68.8817 285.45 68.3232 286.373C67.7978 287.303 67.1872 288.169 66.5979 289.035C66.0018 289.882 65.486 290.783 65.0572 291.726C64.6496 292.649 64.4092 293.637 64.3472 294.644C64.2123 296.604 64.5034 298.457 64.3472 300.218C64.191 301.888 63.7086 303.511 62.9272 304.996C62.2172 306.416 61.4575 307.73 60.7972 308.986C60.4706 309.611 60.1724 310.229 59.9239 310.839C59.6942 311.436 59.5277 312.054 59.4269 312.685C59.2677 313.785 59.2677 314.902 59.4269 316.001C59.591 317.536 60.1757 318.995 61.1167 320.218C61.261 320.399 61.4201 320.568 61.5924 320.723C61.7068 320.846 61.8355 320.956 61.9758 321.049C62.1888 321.205 62.3095 321.276 62.3095 321.276C61.8893 320.952 61.5081 320.581 61.1735 320.169C60.271 318.943 59.7188 317.495 59.576 315.98C59.44 314.894 59.4592 313.794 59.6328 312.714C59.7312 312.098 59.9003 311.495 60.1369 310.917C60.3958 310.292 60.6873 309.681 61.0102 309.086C61.6634 307.836 62.4302 306.544 63.1402 305.103C63.9387 303.59 64.4332 301.935 64.5957 300.232C64.7377 298.443 64.4608 296.575 64.5957 294.666C64.6636 293.684 64.9039 292.723 65.3057 291.826C65.7333 290.899 66.2467 290.015 66.8393 289.184C67.4215 288.325 68.0392 287.459 68.5788 286.508C69.1631 285.549 69.5359 284.477 69.6722 283.362C69.9349 281.041 68.5788 278.875 68.9196 276.589C69.1364 275.445 69.6044 274.363 70.2899 273.422C70.9502 272.428 71.7099 271.477 72.3702 270.412C73.5948 268.19 74.4078 265.766 74.77 263.255C75.2528 260.742 75.5865 258.15 76.5237 255.701C76.9731 254.463 77.5971 253.297 78.3768 252.236C79.1617 251.17 80.1823 250.3 81.3588 249.694L81.089 249.545C81.089 249.616 81.089 249.701 81.089 249.779C81.2452 251.135 81.4937 252.47 81.657 253.791C81.8291 255.104 81.8885 256.429 81.8345 257.753C81.811 258.401 81.7541 259.048 81.6641 259.691C81.4999 260.313 81.2862 260.921 81.0251 261.509C80.4925 262.694 80.0303 263.911 79.6406 265.151C79.2999 266.385 79.0881 267.65 79.0087 268.928C78.8809 270.185 78.746 271.42 78.6182 272.648C78.3555 275.091 78.1851 277.533 77.1982 279.649C76.7154 280.707 76.0693 281.687 75.5936 282.752C75.1233 283.806 74.8651 284.942 74.8339 286.096C74.7203 288.339 75.0185 290.533 74.4292 292.521C73.8399 294.509 72.5761 296.157 71.9442 298.038C71.3123 299.92 71.5679 301.893 71.8519 303.633C72.1359 305.372 72.4341 307.076 72.072 308.603C71.7099 310.129 70.652 311.301 69.942 312.543C69.5816 313.14 69.3405 313.8 69.232 314.489C69.1571 315.12 69.1192 315.756 69.1184 316.392C69.1197 316.964 69.036 317.533 68.8699 318.081C68.6789 318.559 68.3714 318.981 67.9753 319.31C67.2971 319.865 66.5318 320.304 65.7104 320.609C65.1079 320.839 64.4851 321.013 63.8502 321.127C63.4606 321.194 63.0668 321.235 62.6716 321.248C62.4373 321.255 62.3024 321.262 62.3024 321.262Z" fill="#263238"/>
<path d="M80.2725 252.711C80.2434 252.766 80.2242 252.826 80.2157 252.888C80.1802 253.023 80.1376 253.194 80.0879 253.407C79.9743 253.868 79.8465 254.557 79.6335 255.423C79.4205 256.289 78.888 257.262 78.4407 258.462C77.9191 259.816 77.4665 261.195 77.0846 262.594C76.6515 264.149 76.2681 265.867 75.8634 267.713C75.5217 269.682 74.9076 271.594 74.0387 273.393C73.5701 274.338 73.0376 275.296 72.6187 276.347C72.2048 277.42 71.9304 278.541 71.8022 279.684C71.5211 282.049 71.1158 284.397 70.5881 286.72C69.4521 291.491 68.3658 296.028 67.3789 300.167C66.392 304.307 65.4548 307.977 64.688 311.13C63.9212 314.282 63.3319 316.753 62.9059 318.528L62.4373 320.544C62.3947 320.757 62.3521 320.935 62.3237 321.077C62.3143 321.136 62.3143 321.196 62.3237 321.254L62.3805 321.084C62.4231 320.942 62.4728 320.772 62.5296 320.566C62.6645 320.076 62.842 319.408 63.0692 318.563L64.9649 311.194C65.753 308.07 66.6902 304.363 67.7339 300.245L70.9502 286.841C71.4808 284.509 71.8861 282.151 72.1643 279.776C72.2857 278.661 72.5481 277.566 72.9453 276.517C73.3571 275.495 73.8754 274.543 74.3653 273.585C75.2434 271.757 75.8577 269.813 76.19 267.813C76.5805 265.967 76.9426 264.263 77.3615 262.701C77.7804 261.139 78.2206 259.768 78.6608 258.576C79.101 257.383 79.5838 256.389 79.7897 255.494C79.9956 254.6 80.095 253.925 80.1873 253.456L80.2725 252.931C80.2793 252.858 80.2793 252.784 80.2725 252.711Z" fill="#263238"/>
<path d="M63.3249 321.277C67.1092 318.998 68.16 312.146 66.5483 308.035C64.9366 303.924 62.1534 300.169 61.699 295.781C61.3511 292.401 62.409 288.929 61.6351 285.635C60.5488 281.183 56.1752 277.754 56.2036 273.174C56.2036 270.604 57.6662 268.204 57.5313 265.613C57.368 262.468 54.9398 259.983 53.4275 257.214C51.1129 252.954 50.9354 247.984 50.1189 243.205C49.3024 238.427 47.4706 233.365 43.239 231.043C42.6355 235.09 41.5847 237.866 41.9539 243.34C42.0817 245.307 44.3892 249.02 44.7229 253.365C44.9288 255.943 45.0708 258.52 45.2412 261.097C45.4116 263.675 45.582 266.16 46.4979 268.495C47.2079 270.292 48.3155 271.918 48.8338 273.778C49.8207 277.264 48.5782 281.055 49.3734 284.591C50.0479 287.58 52.1353 290.15 52.5755 293.189C53.2003 297.449 50.4455 301.915 51.8655 305.969C52.5755 307.993 54.2582 309.604 54.741 311.692C55.1173 313.304 54.741 315.022 55.0676 316.662C55.6143 319.282 60.6269 321.291 63.2965 321.114" fill="#455A64"/>
<path d="M44.3039 235.055C44.2945 235.13 44.2945 235.206 44.3039 235.282L44.3891 235.942C44.4814 236.531 44.5808 237.362 44.7867 238.491C44.9926 239.62 45.589 240.855 46.0576 242.368C46.5262 243.88 47.0374 245.612 47.4776 247.558C47.9178 249.503 48.2941 251.654 48.6846 253.948C49.0074 256.445 49.6764 258.885 50.6726 261.197C51.2122 262.411 51.8157 263.618 52.2701 264.91C52.7159 266.236 52.995 267.612 53.1008 269.007C53.3244 271.972 53.7107 274.923 54.2581 277.846C55.458 283.825 56.594 289.526 57.6306 294.709C58.6672 299.892 59.7109 304.528 60.5345 308.447C61.3581 312.367 62.0468 315.491 62.5225 317.677C62.7639 318.749 62.9485 319.594 63.0834 320.191C63.1473 320.461 63.197 320.681 63.2396 320.844C63.2518 320.92 63.2732 320.994 63.3035 321.064C63.3145 320.989 63.3145 320.912 63.3035 320.837C63.3035 320.666 63.2325 320.453 63.1828 320.177C63.0692 319.573 62.9059 318.757 62.6929 317.649C62.2456 315.434 61.6066 312.274 60.8256 308.369C60.0446 304.464 59.0577 299.793 57.9856 294.617C56.9135 289.441 55.8556 283.739 54.6415 277.754C54.0975 274.842 53.7088 271.903 53.4771 268.95C53.3697 267.528 53.0834 266.126 52.6251 264.775C52.1565 263.455 51.5388 262.241 50.9992 261.041C50.0056 258.77 49.3295 256.374 48.9899 253.919C48.5852 251.605 48.1947 249.446 47.7332 247.494C47.3269 245.74 46.8316 244.008 46.2493 242.304C45.7594 240.784 45.163 239.542 44.9287 238.463C44.6944 237.383 44.5808 236.51 44.4672 235.935L44.3394 235.275C44.3381 235.2 44.3261 235.126 44.3039 235.055Z" fill="#263238"/>
<path d="M79.4561 304.306C76.0623 310.902 80.8122 319.607 86.7265 321.048C92.6408 322.489 100.926 316.944 100.884 309.525C100.884 299.514 96.773 294.693 93.3508 293.862C88.9488 292.79 82.8499 297.696 79.4561 304.306Z" fill="#053D38"/>
<path opacity="0.5" d="M79.4561 304.306C76.0623 310.902 80.8122 319.607 86.7265 321.048C92.6408 322.489 100.926 316.944 100.884 309.525C100.884 299.514 96.773 294.693 93.3508 293.862C88.9488 292.79 82.8499 297.696 79.4561 304.306Z" fill="black"/>
<path d="M63.6516 304.186C61.6494 312.529 69.3671 321.021 76.4316 321.021C83.4961 321.021 91.2209 312.501 89.2116 304.186C86.4568 292.933 80.5283 288.645 76.4316 288.645C71.1705 288.645 65.6538 295.83 63.6516 304.186Z" fill="#053D38"/>
<path d="M63.467 304.819C63.7618 305.012 64.0759 305.174 64.4041 305.302C65.2795 305.707 66.1781 306.06 67.095 306.36C68.4489 306.812 69.8318 307.173 71.2343 307.439C74.6845 308.096 78.2177 308.197 81.6997 307.737C83.1162 307.552 84.5182 307.27 85.8958 306.892C86.8275 306.65 87.7428 306.349 88.6364 305.991C88.9741 305.884 89.2982 305.739 89.6021 305.558C89.6021 305.487 88.182 306.033 85.8248 306.601C84.4479 306.917 83.0541 307.154 81.65 307.311C79.9295 307.505 78.198 307.583 76.4671 307.546C74.7369 307.482 73.0127 307.307 71.3053 307.02C69.9146 306.775 68.5395 306.448 67.1873 306.04C64.8727 305.366 63.5025 304.741 63.467 304.819Z" fill="#FAFAFA"/>
<path d="M65.5542 299.43C65.7314 299.698 65.9494 299.938 66.2003 300.14C66.8483 300.724 67.5633 301.229 68.3303 301.645C70.8814 302.992 73.7398 303.65 76.6231 303.555C79.4797 303.444 82.3068 302.935 85.0224 302.042C86.0661 301.723 86.8968 301.432 87.4719 301.219C87.7768 301.128 88.0699 301.002 88.3452 300.843C88.0279 300.877 87.7156 300.948 87.4151 301.056L84.9372 301.766C82.2302 302.562 79.4355 303.022 76.616 303.136C73.7998 303.225 71.0043 302.626 68.4723 301.389C67.4463 300.819 66.4701 300.164 65.5542 299.43Z" fill="#263238"/>
<path d="M67.3436 295.206C67.5364 295.367 67.7487 295.503 67.9755 295.611C68.5698 295.94 69.1867 296.227 69.8215 296.47C74.0533 298.118 78.7226 298.263 83.0488 296.882C83.6974 296.678 84.3309 296.429 84.9445 296.136C85.1788 296.045 85.3988 295.921 85.5977 295.767C85.5622 295.696 84.5966 296.136 82.9636 296.591C78.6753 297.779 74.1272 297.638 69.9209 296.186C68.3163 295.632 67.3791 295.135 67.3436 295.206Z" fill="#FAFAFA"/>
<path d="M70.7515 291.81C71.2919 292.083 71.8716 292.27 72.4697 292.364C73.8921 292.674 75.3453 292.819 76.8008 292.797C78.2568 292.781 79.7059 292.593 81.1175 292.236C81.7113 292.129 82.2841 291.927 82.8145 291.64C82.8145 291.505 80.1519 292.35 76.7936 292.35C73.4353 292.35 70.787 291.668 70.7515 291.81Z" fill="#263238"/>
<path d="M65.0148 311.693C65.2817 311.85 65.5682 311.972 65.8667 312.055C66.6572 312.349 67.4631 312.6 68.2808 312.807C73.6948 314.221 79.3707 314.304 84.8237 313.049C85.6477 312.856 86.4607 312.619 87.259 312.339C87.5606 312.261 87.8515 312.146 88.1252 311.998C88.1252 311.927 86.8402 312.31 84.7599 312.708C79.3345 313.783 73.7432 313.701 68.3517 312.466C66.2856 312.005 65.0361 311.586 65.0148 311.693Z" fill="#263238"/>
<path d="M68.6995 317.542C68.8791 317.666 69.0783 317.76 69.2888 317.819C69.8431 318.028 70.4098 318.204 70.9857 318.344C74.7951 319.299 78.7923 319.204 82.5516 318.067C83.12 317.901 83.6772 317.7 84.2201 317.464C84.6035 317.293 84.8094 317.187 84.7952 317.158C84.781 317.13 83.9077 317.414 82.4735 317.776C78.7359 318.736 74.8283 318.828 71.0496 318.046C69.5799 317.755 68.7279 317.478 68.6995 317.542Z" fill="#FAFAFA"/>
<path d="M108.112 308.453C105.556 313.423 109.141 319.997 113.6 321.091C118.059 322.184 124.25 317.988 124.25 312.4C124.25 304.846 121.154 301.211 118.57 300.586C115.276 299.769 110.675 303.469 108.112 308.453Z" fill="#053D38"/>
<path d="M107.253 313.523C107.346 313.632 107.453 313.727 107.572 313.807C107.906 314.044 108.269 314.237 108.651 314.382C109.866 314.864 111.219 314.864 112.434 314.382C113.65 313.901 114.635 312.974 115.19 311.791C115.744 310.693 115.885 309.434 115.588 308.241C115.508 307.89 115.333 307.567 115.083 307.308C114.833 307.049 114.516 306.863 114.168 306.771C113.978 306.729 113.781 306.729 113.591 306.771C113.401 306.812 113.222 306.895 113.067 307.012C112.763 307.251 112.55 307.587 112.464 307.964C112.402 308.337 112.418 308.72 112.512 309.087C112.607 309.453 112.776 309.796 113.011 310.094C113.441 310.695 114.011 311.182 114.672 311.514C115.32 311.864 116.045 312.047 116.781 312.047C117.517 312.047 118.242 311.864 118.889 311.514C119.493 311.193 120.017 310.74 120.422 310.19C120.828 309.639 121.105 309.005 121.232 308.333C121.365 307.683 121.243 307.007 120.892 306.444C120.712 306.179 120.464 305.967 120.175 305.829C119.885 305.692 119.564 305.635 119.244 305.663C118.942 305.706 118.661 305.845 118.443 306.06C118.226 306.275 118.083 306.554 118.037 306.856C117.984 307.118 117.985 307.388 118.04 307.649C118.095 307.91 118.203 308.157 118.357 308.376C118.874 309.088 119.63 309.592 120.487 309.796C121.127 309.948 121.793 309.948 122.432 309.796C122.836 309.713 123.223 309.561 123.575 309.348C123.701 309.281 123.814 309.192 123.909 309.086C123.437 309.341 122.93 309.525 122.404 309.632C121.786 309.736 121.154 309.702 120.551 309.533C119.758 309.323 119.067 308.834 118.605 308.156C118.479 307.969 118.392 307.759 118.349 307.538C118.307 307.318 118.309 307.09 118.357 306.87C118.405 306.65 118.519 306.45 118.684 306.297C118.849 306.143 119.057 306.044 119.28 306.011C119.533 305.993 119.786 306.042 120.013 306.155C120.24 306.267 120.433 306.438 120.572 306.65C120.858 307.136 120.951 307.711 120.835 308.262C120.708 308.862 120.452 309.427 120.084 309.917C119.716 310.408 119.245 310.812 118.705 311.102C118.117 311.417 117.461 311.581 116.795 311.581C116.129 311.581 115.473 311.417 114.885 311.102C114.282 310.796 113.765 310.344 113.38 309.789C113.182 309.544 113.037 309.262 112.953 308.959C112.868 308.656 112.847 308.339 112.89 308.028C112.91 307.89 112.957 307.757 113.029 307.637C113.1 307.518 113.195 307.414 113.308 307.331C113.42 307.248 113.548 307.189 113.683 307.156C113.819 307.124 113.959 307.118 114.097 307.14C114.369 307.221 114.614 307.372 114.808 307.58C115.001 307.787 115.136 308.042 115.197 308.319C115.476 309.423 115.356 310.59 114.857 311.613C114.435 312.529 113.751 313.297 112.89 313.821C112.256 314.177 111.554 314.396 110.83 314.464C110.107 314.533 109.376 314.449 108.687 314.219C108.188 314.033 107.707 313.8 107.253 313.523Z" fill="#FAFAFA"/>
<path d="M112.066 320.666C112.515 319.705 113.158 318.846 113.955 318.146C114.831 317.417 115.903 316.962 117.036 316.84C117.345 316.79 117.661 316.808 117.961 316.894C118.262 316.98 118.54 317.131 118.776 317.337C118.892 317.436 118.984 317.561 119.045 317.701C119.106 317.842 119.133 317.994 119.126 318.147C119.118 318.3 119.076 318.449 119.002 318.583C118.927 318.717 118.823 318.832 118.698 318.92C118.559 318.992 118.406 319.034 118.249 319.044C118.093 319.054 117.936 319.031 117.789 318.977C117.502 318.853 117.273 318.624 117.15 318.338C117.029 318.05 116.985 317.735 117.022 317.425C117.059 317.115 117.177 316.82 117.363 316.57C117.688 316.123 118.116 315.762 118.61 315.514C119.104 315.267 119.651 315.142 120.203 315.15C120.97 315.157 121.715 315.406 122.333 315.86C122.766 316.193 122.951 316.442 122.979 316.421C123.007 316.399 122.858 316.115 122.439 315.711C121.826 315.164 121.045 314.841 120.224 314.795C119.608 314.761 118.992 314.88 118.433 315.143C117.874 315.406 117.389 315.803 117.022 316.3C116.8 316.603 116.659 316.958 116.613 317.331C116.567 317.704 116.617 318.082 116.759 318.43C116.839 318.624 116.957 318.801 117.106 318.95C117.255 319.098 117.431 319.216 117.626 319.296C117.831 319.375 118.05 319.409 118.27 319.395C118.489 319.382 118.703 319.321 118.897 319.218C119.098 319.111 119.265 318.95 119.381 318.753C119.496 318.556 119.554 318.331 119.55 318.103C119.539 317.682 119.372 317.279 119.081 316.974C118.797 316.715 118.457 316.525 118.088 316.419C117.718 316.313 117.329 316.294 116.951 316.364C115.748 316.514 114.619 317.027 113.714 317.834C113.112 318.367 112.629 319.02 112.294 319.751C112.152 320.036 112.075 320.348 112.066 320.666Z" fill="#FAFAFA"/>
<path d="M114.168 301.652C114.133 301.687 114.388 302.028 114.949 302.362C115.696 302.829 116.561 303.072 117.442 303.062C118.323 303.052 119.183 302.789 119.919 302.305C120.473 301.922 120.714 301.595 120.679 301.545C120.643 301.496 120.324 301.751 119.763 302.042C119.041 302.424 118.239 302.629 117.423 302.638C116.607 302.648 115.8 302.463 115.07 302.099C114.53 301.851 114.218 301.602 114.168 301.652Z" fill="#FAFAFA"/>
<g opacity="0.2">
<path d="M115.858 320.992C116.552 320.786 117.2 320.448 117.768 319.998C118.047 319.767 118.256 319.462 118.37 319.118C118.484 318.774 118.499 318.405 118.414 318.053C118.281 317.755 118.086 317.49 117.841 317.275C117.595 317.06 117.306 316.902 116.994 316.81C116.374 316.626 115.765 316.407 115.169 316.157C114.626 315.821 114.155 315.382 113.782 314.864C113.41 314.347 113.143 313.761 112.996 313.14C112.627 311.918 112.507 310.633 112.144 309.412C112.083 309.067 111.941 308.741 111.728 308.462C111.516 308.183 111.24 307.958 110.923 307.807C110.014 307.531 109.148 308.375 108.694 309.227C108.015 310.525 107.697 311.981 107.773 313.444C107.85 314.906 108.317 316.321 109.127 317.542C110.781 319.948 112.94 321.383 115.836 321.006" fill="black"/>
</g>
<path d="M253.939 308.853L245.461 305.935L250.822 290.023L263.268 294.163L262.998 295.171C261.763 299.644 256.395 317.827 254.521 320.461C252.426 323.415 253.939 308.853 253.939 308.853Z" fill="#053D38"/>
<g opacity="0.4">
<path d="M261.202 299.898C259.937 299.212 258.97 298.081 258.49 296.724C258.008 295.39 258.044 293.923 258.589 292.613L263.034 294.111L261.202 299.898Z" fill="black"/>
</g>
<path opacity="0.4" d="M253.435 316.049C253.435 316.049 253.2 321.253 254.18 320.919C255.16 320.586 261.28 302.459 263.268 294.174L262.906 294.074L255.955 315.332C255.955 315.332 253.782 315.14 253.435 316.049Z" fill="black"/>
<path d="M262.977 293.828C262.966 293.925 262.944 294.02 262.913 294.112L262.7 294.907L261.848 297.847C261.138 300.318 260.059 303.718 258.802 307.453C257.546 311.188 256.346 314.553 255.437 316.953C255.011 318.082 254.642 319.033 254.343 319.793L254.038 320.56L253.917 320.829C253.934 320.732 253.96 320.637 253.996 320.545C254.081 320.311 254.173 320.056 254.272 319.764C254.549 318.983 254.897 318.025 255.302 316.889C256.175 314.461 257.361 311.102 258.611 307.375C259.86 303.647 260.946 300.275 261.713 297.79C262.068 296.64 262.374 295.66 262.622 294.872L262.878 294.084C262.901 293.995 262.934 293.909 262.977 293.828Z" fill="#263238"/>
<path d="M256.204 315.41C255.682 315.381 255.158 315.407 254.642 315.488C254.146 315.64 253.67 315.848 253.222 316.106C253.591 315.697 254.076 315.411 254.613 315.284C255.149 315.157 255.711 315.196 256.225 315.396L256.204 315.41Z" fill="#263238"/>
<path d="M255.401 309.914C255.401 309.971 255.068 310.099 254.62 310.213C254.357 310.307 254.075 310.341 253.797 310.312C253.797 310.255 254.13 310.12 254.571 310.014C255.011 309.907 255.387 309.858 255.401 309.914Z" fill="#263238"/>
<path d="M255.153 308.398C255.153 308.448 254.926 308.646 254.592 308.838C254.258 309.03 253.953 309.143 253.925 309.094C253.896 309.044 254.152 308.852 254.493 308.661C254.833 308.469 255.124 308.348 255.153 308.398Z" fill="#263238"/>
<path d="M253.924 307.075C253.937 307.373 253.878 307.67 253.754 307.941C253.693 308.233 253.567 308.507 253.385 308.743C253.373 308.447 253.431 308.153 253.555 307.884C253.704 307.43 253.868 307.06 253.924 307.075Z" fill="#263238"/>
<path d="M252.959 306.445C253.051 306.78 253.036 307.135 252.916 307.461C252.86 307.803 252.705 308.122 252.469 308.377C252.52 308.047 252.603 307.724 252.718 307.411C252.768 307.082 252.849 306.759 252.959 306.445Z" fill="#263238"/>
<path d="M253.832 309.988C253.769 310.338 253.646 310.674 253.47 310.982C253.303 311.338 253.101 311.675 252.867 311.991C252.733 312.189 252.576 312.37 252.398 312.53C252.289 312.627 252.146 312.678 252 312.672C251.919 312.663 251.841 312.631 251.777 312.579C251.713 312.528 251.665 312.459 251.638 312.381C251.58 311.926 251.681 311.466 251.925 311.077C252.168 310.689 252.538 310.397 252.973 310.251C253.227 310.166 253.494 310.132 253.761 310.152C253.953 310.152 254.052 310.201 254.052 310.216C253.702 310.216 253.354 310.274 253.023 310.386C252.671 310.533 252.369 310.78 252.157 311.096C252.023 311.271 251.925 311.471 251.869 311.685C251.813 311.898 251.8 312.12 251.83 312.338C251.894 312.544 252.107 312.544 252.277 312.402C252.439 312.25 252.586 312.084 252.717 311.905C252.95 311.602 253.159 311.282 253.342 310.947C253.669 310.372 253.797 309.981 253.832 309.988Z" fill="#263238"/>
<path d="M253.79 310.271C253.546 310.32 253.293 310.277 253.08 310.151C252.821 310.03 252.597 309.847 252.426 309.618C252.301 309.483 252.214 309.318 252.173 309.138C252.131 308.959 252.138 308.772 252.192 308.596C252.219 308.547 252.256 308.505 252.3 308.471C252.344 308.437 252.394 308.412 252.447 308.397C252.501 308.383 252.556 308.379 252.611 308.386C252.666 308.394 252.719 308.412 252.767 308.439C252.923 308.517 253.059 308.628 253.165 308.766C253.349 308.982 253.504 309.22 253.626 309.476C253.75 309.694 253.823 309.936 253.839 310.186C253.839 310.186 253.726 309.923 253.499 309.533C253.365 309.304 253.208 309.09 253.03 308.894C252.86 308.681 252.505 308.454 252.37 308.695C252.235 308.936 252.426 309.291 252.576 309.519C252.726 309.728 252.92 309.902 253.144 310.03C253.351 310.13 253.567 310.211 253.79 310.271Z" fill="#263238"/>
<path d="M258.511 292.684C258.547 292.684 258.319 293.124 258.163 293.876C257.949 294.848 258.016 295.861 258.355 296.796C258.694 297.731 259.293 298.551 260.08 299.159C260.684 299.634 261.131 299.812 261.117 299.869C261.005 299.849 260.897 299.811 260.797 299.755C260.514 299.631 260.245 299.476 259.995 299.294C259.154 298.695 258.515 297.855 258.163 296.885C257.81 295.915 257.761 294.861 258.021 293.862C258.098 293.564 258.203 293.274 258.334 292.996C258.374 292.882 258.434 292.777 258.511 292.684Z" fill="#263238"/>
<path d="M251.34 292.109C252.464 292.361 253.571 292.681 254.656 293.068C255.765 293.386 256.853 293.773 257.915 294.225C256.791 293.969 255.684 293.647 254.599 293.26C253.492 292.938 252.404 292.554 251.34 292.109Z" fill="#263238"/>
<path d="M258.973 301.383C258.891 302.203 258.705 303.01 258.419 303.783C258.197 304.577 257.873 305.338 257.453 306.048C257.396 306.048 257.815 305.004 258.227 303.719C258.639 302.434 258.916 301.369 258.973 301.383Z" fill="#263238"/>
<path d="M260.016 298.258C260.073 298.258 260.208 298.421 260.414 298.606C260.62 298.79 260.804 298.918 260.783 298.975C260.762 299.032 260.506 298.975 260.272 298.755C260.037 298.535 259.966 298.279 260.016 298.258Z" fill="#263238"/>
<path d="M258.951 296.59C259.001 296.59 259.129 296.725 259.242 296.945C259.356 297.165 259.406 297.364 259.356 297.392C259.306 297.421 259.171 297.257 259.058 297.037C258.944 296.817 258.902 296.618 258.951 296.59Z" fill="#263238"/>
<path d="M258.845 294.687C258.894 294.687 258.845 294.929 258.845 295.184C258.845 295.44 258.916 295.66 258.845 295.688C258.774 295.717 258.617 295.511 258.617 295.191C258.617 294.872 258.802 294.652 258.845 294.687Z" fill="#263238"/>
<path d="M258.937 293.379C258.994 293.379 259.044 293.5 259.051 293.649C259.058 293.798 259.015 293.919 258.958 293.919C258.902 293.919 258.852 293.805 258.845 293.656C258.838 293.507 258.88 293.386 258.937 293.379Z" fill="#263238"/>
<path d="M155.596 315.526L153.971 307.638L168.739 304.492L171.238 316.015L170.336 316.271C166.31 317.365 149.789 321.539 146.906 321.298C143.654 321.021 155.596 315.526 155.596 315.526Z" fill="#053D38"/>
<g opacity="0.4">
<path d="M165.856 317.037C165.811 315.745 166.243 314.481 167.07 313.487C167.882 312.505 169.032 311.862 170.294 311.684L171.174 315.809L165.856 317.037Z" fill="black"/>
</g>
<path opacity="0.4" d="M149.81 318.427C149.81 318.427 145.685 320.628 146.381 321.267C147.077 321.906 163.939 318.278 171.231 316.041L171.138 315.715L151.514 320.081C151.514 320.081 150.676 318.278 149.81 318.427Z" fill="black"/>
<path d="M171.373 315.633L171.124 315.718L170.414 315.917L167.752 316.627C165.508 317.188 162.391 317.926 158.927 318.672C155.462 319.417 152.324 320.014 150.037 320.418L147.332 320.88L146.622 320.993C146.535 321.003 146.447 321.003 146.36 320.993L146.615 320.929L147.325 320.787L150.023 320.269C152.295 319.829 155.44 319.211 158.898 318.466C162.356 317.72 165.473 317.01 167.73 316.478L170.4 315.846L171.11 315.683C171.195 315.654 171.283 315.637 171.373 315.633Z" fill="#263238"/>
<path d="M151.571 320.283C151.36 319.861 151.101 319.465 150.797 319.104C150.449 318.787 150.069 318.508 149.661 318.273C150.157 318.348 150.608 318.6 150.932 318.983C151.297 319.323 151.525 319.786 151.571 320.283Z" fill="#263238"/>
<path d="M155.455 317.143C155.419 317.179 155.156 316.966 154.872 316.674C154.588 316.383 154.375 316.114 154.411 316.078C154.446 316.043 154.709 316.256 155 316.547C155.291 316.838 155.49 317.108 155.455 317.143Z" fill="#263238"/>
<path d="M156.52 316.255C156.52 316.297 156.228 316.191 155.923 316.013C155.618 315.836 155.391 315.665 155.419 315.623C155.447 315.58 155.71 315.687 156.015 315.857C156.321 316.027 156.541 316.212 156.52 316.255Z" fill="#263238"/>
<path d="M156.974 314.702C156.974 314.751 156.647 314.865 156.264 314.964C156.008 315.05 155.737 315.079 155.469 315.05C155.696 314.906 155.954 314.816 156.221 314.787C156.463 314.703 156.72 314.674 156.974 314.702Z" fill="#263238"/>
<path d="M157.024 313.664C156.804 313.883 156.525 314.034 156.221 314.097C155.929 314.208 155.611 314.233 155.305 314.168C155.584 314.059 155.871 313.976 156.165 313.92C156.442 313.805 156.729 313.72 157.024 313.664Z" fill="#263238"/>
<path d="M154.681 315.951C154.378 316.073 154.056 316.14 153.729 316.15C153.377 316.182 153.023 316.182 152.671 316.15C152.46 316.134 152.25 316.096 152.047 316.036C151.983 316.017 151.924 315.985 151.873 315.942C151.821 315.899 151.779 315.847 151.748 315.788C151.718 315.722 151.708 315.648 151.719 315.576C151.73 315.504 151.763 315.437 151.812 315.383C152.135 315.127 152.538 314.991 152.95 315C153.362 315.01 153.759 315.162 154.07 315.433C154.256 315.59 154.408 315.783 154.517 316.001C154.562 316.076 154.589 316.162 154.595 316.249C154.431 315.982 154.225 315.742 153.985 315.539C153.721 315.333 153.403 315.21 153.069 315.184C152.871 315.161 152.671 315.177 152.479 315.232C152.288 315.287 152.11 315.379 151.954 315.504C151.826 315.646 151.954 315.809 152.11 315.873C152.3 315.933 152.495 315.971 152.693 315.987C153.034 316.029 153.378 316.046 153.722 316.036C154.311 316.008 154.674 315.951 154.681 315.951Z" fill="#263238"/>
<path d="M154.446 316.058C154.285 315.887 154.196 315.661 154.198 315.426C154.174 315.17 154.21 314.913 154.304 314.673C154.356 314.513 154.449 314.369 154.573 314.256C154.698 314.143 154.85 314.064 155.014 314.027C155.115 314.027 155.211 314.067 155.283 314.137C155.355 314.207 155.396 314.303 155.398 314.404C155.412 314.559 155.387 314.715 155.327 314.858C155.253 315.096 155.142 315.321 155 315.525C154.89 315.727 154.735 315.899 154.546 316.03C154.651 315.834 154.767 315.644 154.894 315.462C155.009 315.254 155.102 315.035 155.17 314.808C155.256 314.581 155.27 314.198 155.021 314.205C154.773 314.212 154.588 314.524 154.482 314.744C154.386 314.956 154.34 315.187 154.347 315.419C154.358 315.635 154.391 315.849 154.446 316.058Z" fill="#263238"/>
<path d="M170.208 311.69C170.208 311.725 169.775 311.739 169.129 311.96C168.279 312.241 167.526 312.758 166.957 313.45C166.389 314.143 166.03 314.983 165.92 315.872C165.828 316.582 165.92 316.979 165.863 316.979C165.806 316.979 165.821 316.88 165.799 316.688C165.77 316.412 165.77 316.134 165.799 315.857C165.88 314.934 166.236 314.056 166.822 313.337C167.415 312.625 168.205 312.104 169.094 311.839C169.359 311.757 169.633 311.707 169.91 311.69C170.009 311.676 170.11 311.676 170.208 311.69Z" fill="#263238"/>
<path d="M167.368 305.84C167.944 307.828 168.401 309.847 168.739 311.889C168.421 310.904 168.162 309.902 167.965 308.886C167.707 307.883 167.508 306.866 167.368 305.84Z" fill="#263238"/>
<path d="M163.691 315.993C163.016 316.316 162.299 316.543 161.561 316.667C160.844 316.856 160.107 316.953 159.367 316.958C159.367 316.901 160.339 316.752 161.497 316.49C162.654 316.227 163.676 315.95 163.691 315.993Z" fill="#263238"/>
<path d="M166.587 315.374C166.63 315.374 166.552 315.594 166.502 315.836C166.452 316.077 166.438 316.283 166.381 316.29C166.325 316.297 166.261 316.077 166.318 315.793C166.374 315.509 166.545 315.346 166.587 315.374Z" fill="#263238"/>
<path d="M167.39 313.822C167.432 313.822 167.39 314.021 167.248 314.213C167.106 314.404 166.999 314.525 166.957 314.497C166.914 314.468 166.957 314.298 167.092 314.113C167.226 313.929 167.347 313.758 167.39 313.822Z" fill="#263238"/>
<path d="M168.817 312.835C168.817 312.885 168.618 312.928 168.419 313.048C168.22 313.169 168.086 313.318 168.043 313.297C168 313.276 168.043 313.041 168.327 312.892C168.611 312.743 168.817 312.786 168.817 312.835Z" fill="#263238"/>
<path d="M169.86 312.301C169.86 312.344 169.825 312.436 169.711 312.514C169.598 312.592 169.484 312.607 169.456 312.571C169.427 312.536 169.498 312.429 169.612 312.358C169.725 312.287 169.832 312.259 169.86 312.301Z" fill="#263238"/>
<path d="M196.67 203.262C196.67 203.262 171.6 274.851 177.5 280.268C183.4 285.685 250.204 310.337 250.204 310.337L257.446 290.038L204.906 268.738L227.2 218.761C228.892 214.972 229.672 210.839 229.479 206.693C229.285 202.548 228.123 198.506 226.085 194.891L219.944 196.311L196.67 203.262Z" fill="#263238"/>
<path d="M179.062 207.323C179.062 207.323 130.782 230.256 131.307 238.222C131.833 246.188 152.267 312.538 152.267 312.538L172.225 307.759L159.147 248.737L226.121 212.854L206.908 200.223L179.062 207.323Z" fill="#263238"/>
<path d="M199.865 271.873C199.794 271.738 200.817 271.099 201.995 270.212C203.174 269.324 204.068 268.536 204.175 268.642C204.281 268.749 203.529 269.722 202.308 270.638C201.086 271.553 199.922 272.001 199.865 271.873Z" fill="#455A64"/>
<path d="M198.09 268.949C198.09 268.807 199.368 268.594 200.973 268.48C202.577 268.367 203.891 268.395 203.898 268.537C203.905 268.679 202.62 268.892 201.015 269.006C199.411 269.119 198.09 269.091 198.09 268.949Z" fill="#455A64"/>
<path d="M193.582 219.879C193.54 219.925 193.507 219.978 193.482 220.035L193.219 220.497L192.247 222.307C191.423 223.883 190.301 226.205 189.038 229.123C187.774 232.041 186.425 235.591 185.09 239.589C183.755 243.586 182.47 248.023 181.249 252.759C180.028 257.495 179.019 261.989 178.146 266.093C177.715 268.152 177.308 270.102 176.925 271.943C176.747 272.852 176.534 273.74 176.442 274.613C176.35 275.45 176.35 276.296 176.442 277.133C176.522 277.898 176.699 278.649 176.968 279.37C177.231 280.016 177.674 280.573 178.246 280.974C179.115 281.627 180.044 282.196 181.022 282.671C181.824 283.069 182.442 283.381 182.889 283.523L183.386 283.715C183.442 283.743 183.502 283.762 183.563 283.772L183.4 283.687L182.917 283.452C182.498 283.254 181.874 282.962 181.093 282.544C180.134 282.052 179.224 281.472 178.373 280.811C177.841 280.425 177.43 279.896 177.188 279.285C176.934 278.584 176.77 277.854 176.698 277.112C176.609 276.293 176.609 275.467 176.698 274.648C176.79 273.796 177.01 272.923 177.195 272C177.592 270.175 178.011 268.223 178.451 266.164C179.346 262.06 180.368 257.552 181.575 252.851C182.782 248.151 184.068 243.714 185.388 239.723C186.709 235.733 188.044 232.197 189.251 229.251C190.458 226.304 191.565 223.99 192.346 222.399L193.255 220.561L193.482 220.078C193.521 220.015 193.555 219.948 193.582 219.879Z" fill="#455A64"/>
<path d="M155.49 88.3178C155.163 86.2517 153.303 84.6684 151.273 84.143C149.21 83.7286 147.076 83.8509 145.074 84.498C143.563 84.7843 142.17 85.5105 141.07 86.5854C140.11 87.8294 139.608 89.3667 139.65 90.9377C139.607 92.4926 139.813 94.0475 139.65 95.5953C139.465 97.4647 138.804 99.2555 137.73 100.797C136.656 102.338 135.205 103.578 133.516 104.399C130.015 106.061 125.755 105.77 122.447 107.786C120.878 108.746 119.642 110.163 118.905 111.848C118.168 113.533 117.965 115.403 118.326 117.206C118.686 119.01 119.59 120.659 120.918 121.931C122.245 123.204 123.931 124.038 125.748 124.322C125.087 125.828 124.954 127.514 125.372 129.105C125.79 130.696 126.734 132.099 128.05 133.086C129.366 134.074 130.977 134.587 132.622 134.542C134.266 134.498 135.847 133.899 137.108 132.842C137.701 134.04 138.609 135.054 139.735 135.775C140.861 136.496 142.162 136.896 143.498 136.932C144.831 136.949 146.154 136.704 147.392 136.209C148.63 135.714 149.758 134.98 150.712 134.049C152.611 132.169 154.03 129.861 154.851 127.318C157.031 121.091 156.619 114.304 156.271 107.715C155.923 101.126 158.33 96.7242 155.49 88.3178Z" fill="#263238"/>
<path d="M133.48 107.487C129.646 107.664 127.523 103.078 127.622 100.891C127.722 98.7043 129.241 97.0216 131.023 95.7649C133.363 94.2748 135.922 93.1607 138.606 92.4634C143.676 91.4339 142.554 87.3017 149.774 87.5928C153.097 87.7277 157.925 89.5027 159.835 92.222C161.745 94.9413 162.81 98.1576 163.847 101.324" fill="#263238"/>
<path d="M154.922 91.8828L156.2 94.3394L177.209 130.237C179.644 134.405 178.004 139.822 173.524 142.399C168.994 145.005 163.279 143.734 160.744 139.559C158.082 135.179 155.206 130.62 155.206 130.62C155.206 130.62 148.994 133.091 143.378 126.431C140.58 123.116 137.144 116.996 134.488 111.898C133.919 110.8 133.579 109.598 133.489 108.364C133.398 107.131 133.56 105.892 133.964 104.723C134.368 103.554 135.005 102.479 135.837 101.565C136.67 100.65 137.679 99.9139 138.805 99.4017L154.922 91.8828Z" fill="#FFBE9D"/>
<path d="M138.77 114.957C138.915 115.205 139.152 115.386 139.429 115.462C139.706 115.537 140.002 115.502 140.254 115.362C140.503 115.234 140.691 115.013 140.778 114.747C140.864 114.481 140.842 114.191 140.715 113.942C140.57 113.694 140.333 113.513 140.056 113.437C139.778 113.362 139.482 113.397 139.231 113.537C139.107 113.6 138.997 113.686 138.906 113.791C138.816 113.897 138.747 114.019 138.704 114.151C138.661 114.283 138.645 114.422 138.656 114.561C138.668 114.699 138.706 114.834 138.77 114.957Z" fill="#263238"/>
<path d="M137.676 114.238C137.868 114.295 138.265 113.33 139.281 112.719C140.296 112.108 141.354 112.172 141.411 112.009C141.467 111.846 141.176 111.768 140.701 111.725C140.077 111.685 139.456 111.841 138.926 112.172C138.395 112.488 137.979 112.966 137.74 113.535C137.555 113.933 137.584 114.224 137.676 114.238Z" fill="#263238"/>
<path d="M148.497 109.078C148.642 109.326 148.879 109.507 149.156 109.583C149.433 109.658 149.729 109.623 149.981 109.483C150.105 109.421 150.215 109.334 150.305 109.229C150.396 109.123 150.464 109.001 150.507 108.869C150.55 108.737 150.567 108.598 150.555 108.46C150.544 108.321 150.506 108.186 150.442 108.063C150.297 107.815 150.06 107.634 149.783 107.558C149.505 107.483 149.209 107.519 148.958 107.658C148.834 107.721 148.724 107.807 148.633 107.912C148.543 108.018 148.474 108.14 148.431 108.272C148.388 108.404 148.372 108.543 148.383 108.682C148.395 108.82 148.433 108.955 148.497 109.078Z" fill="#263238"/>
<path d="M147.787 108.403C147.978 108.453 148.376 107.494 149.398 106.884C150.421 106.273 151.464 106.33 151.528 106.174C151.592 106.017 151.301 105.932 150.818 105.897C150.195 105.857 149.576 106.011 149.043 106.337C148.513 106.653 148.097 107.131 147.858 107.7C147.68 108.091 147.68 108.382 147.787 108.403Z" fill="#263238"/>
<path d="M148.646 118.174C148.007 118.33 147.391 118.568 146.814 118.884C146.537 119.012 146.26 119.111 146.104 118.962C145.923 118.706 145.822 118.402 145.813 118.089C145.678 117.308 145.536 116.498 145.387 115.646C144.755 112.189 144.13 109.405 143.967 109.434C143.804 109.462 144.222 112.274 144.854 115.739L145.323 118.174C145.347 118.587 145.519 118.977 145.806 119.274C145.897 119.346 146.004 119.395 146.117 119.416C146.231 119.437 146.348 119.43 146.459 119.395C146.624 119.347 146.784 119.28 146.935 119.196C147.546 118.93 148.121 118.586 148.646 118.174Z" fill="#263238"/>
<path d="M155.206 130.642C158.707 128.603 161.573 125.631 163.485 122.059C163.485 122.059 164.145 128.562 156.385 132.325L155.206 130.642Z" fill="#EB996E"/>
<path d="M145.124 104.578C145.387 104.791 146.324 104.046 147.602 103.471C148.88 102.895 150.044 102.64 150.052 102.292C150.052 102.136 149.732 101.972 149.178 101.944C148.46 101.919 147.746 102.068 147.098 102.377C146.446 102.674 145.872 103.119 145.422 103.676C145.089 104.117 144.996 104.472 145.124 104.578Z" fill="#263238"/>
<path d="M136.277 111.074C136.59 111.195 137.151 110.535 137.981 110.017C138.812 109.498 139.636 109.236 139.65 108.895C139.65 108.731 139.401 108.568 138.94 108.54C138.362 108.527 137.794 108.687 137.308 109C136.823 109.312 136.441 109.763 136.214 110.293C136.079 110.712 136.128 111.011 136.277 111.074Z" fill="#263238"/>
<path d="M132.451 107.345C132.451 107.345 137.485 107.189 141.347 101.842C143.889 98.335 147.446 95.4027 148.695 95.637C149.945 95.8713 151.969 99.3006 155.909 98.5551C155.909 98.5551 159.203 105.428 161.767 103.781C164.33 102.133 160.347 94.6572 160.347 94.6572L151.72 88.75L141.035 95.2181L134.765 99.7053L130.278 103.88L132.451 107.345Z" fill="#263238"/>
<path d="M160.105 101.901C160.183 101.788 163.655 97.9182 166.211 102.327C168.767 106.736 163.797 108.391 163.719 108.27C163.641 108.149 160.105 101.901 160.105 101.901Z" fill="#FFBE9D"/>
<path d="M164.102 105.792C164.102 105.792 164.209 105.792 164.372 105.792C164.485 105.78 164.595 105.745 164.695 105.69C164.795 105.636 164.883 105.562 164.954 105.473C165.136 105.127 165.221 104.74 165.203 104.351C165.184 103.961 165.061 103.584 164.848 103.257C164.642 102.87 164.35 102.535 163.996 102.278C163.875 102.165 163.728 102.083 163.569 102.039C163.41 101.994 163.242 101.988 163.08 102.022C162.979 102.052 162.891 102.116 162.83 102.202C162.77 102.288 162.74 102.392 162.746 102.498C162.746 102.654 162.839 102.725 162.817 102.746C162.796 102.768 162.682 102.746 162.611 102.526C162.569 102.404 162.569 102.272 162.611 102.15C162.645 102.069 162.694 101.995 162.756 101.933C162.818 101.871 162.892 101.821 162.973 101.788C163.176 101.72 163.392 101.705 163.602 101.743C163.811 101.782 164.008 101.873 164.173 102.008C164.579 102.284 164.913 102.654 165.146 103.087C165.636 103.996 165.657 105.089 165.146 105.643C165.048 105.745 164.928 105.824 164.795 105.875C164.663 105.925 164.521 105.945 164.379 105.934C164.173 105.92 164.088 105.835 164.102 105.792Z" fill="#EB996E"/>
<path d="M164.72 109.923C164.72 109.923 164.77 110.03 164.94 110.15C165.186 110.316 165.474 110.407 165.771 110.413C165.993 110.424 166.215 110.388 166.423 110.309C166.631 110.23 166.82 110.108 166.978 109.951C167.172 109.758 167.32 109.524 167.414 109.266C167.507 109.008 167.542 108.733 167.517 108.46C167.475 108.148 167.36 107.85 167.182 107.59C167.003 107.33 166.767 107.116 166.491 106.963C166.215 106.811 165.908 106.725 165.593 106.713C165.278 106.7 164.964 106.761 164.677 106.891C164.576 106.927 164.483 106.985 164.408 107.062C164.764 106.936 165.138 106.869 165.515 106.863C165.917 106.877 166.304 107.016 166.623 107.261C167.012 107.561 167.267 108.002 167.333 108.489C167.353 108.728 167.322 108.969 167.243 109.195C167.163 109.421 167.037 109.628 166.871 109.802C166.734 109.944 166.57 110.057 166.388 110.134C166.206 110.211 166.011 110.25 165.813 110.25C165.424 110.254 165.043 110.14 164.72 109.923Z" fill="#455A64"/>
<path d="M146.154 88.2031C146.154 88.2031 146.083 88.2457 145.955 88.3522L145.72 88.551L145.436 88.8492C144.856 89.5136 144.358 90.2454 143.953 91.0289C143.376 92.1901 142.661 93.2773 141.823 94.2665C141.303 94.8148 140.668 95.2394 139.962 95.509C139.252 95.793 138.422 95.9634 137.605 96.219C136.785 96.4161 136.019 96.7919 135.362 97.3195C134.772 97.8489 134.338 98.5288 134.105 99.2862C133.886 99.974 133.83 100.703 133.942 101.416C134.042 102.027 134.259 102.613 134.581 103.142C135.048 103.899 135.691 104.532 136.455 104.988C136.664 105.104 136.88 105.209 137.101 105.3C137.178 105.335 137.259 105.361 137.342 105.378C137.342 105.378 137.023 105.236 136.505 104.909C135.771 104.441 135.157 103.806 134.715 103.056C134.414 102.543 134.211 101.977 134.119 101.388C134.031 100.713 134.094 100.026 134.304 99.3785C134.525 98.6601 134.94 98.0165 135.504 97.5183C136.128 97.0143 136.855 96.6531 137.634 96.4604C138.443 96.2261 139.259 96.0557 140.012 95.7504C140.77 95.4747 141.452 95.022 142 94.4298C142.834 93.4207 143.536 92.3087 144.087 91.1212C144.482 90.3416 144.958 89.6061 145.507 88.9273L145.777 88.6149L145.99 88.409C146.097 88.2741 146.161 88.2102 146.154 88.2031Z" fill="#455A64"/>
<path d="M130.456 96.875C130.295 96.9431 130.149 97.0393 130.023 97.159C129.662 97.4689 129.362 97.8418 129.135 98.2595C128.803 98.8824 128.611 99.5708 128.574 100.276C128.536 101.141 128.696 102.003 129.043 102.796C129.692 104.214 130.679 105.45 131.918 106.396C132.38 106.765 132.77 107.042 133.047 107.227C133.182 107.332 133.33 107.421 133.487 107.489C133.487 107.489 132.919 107.035 132.032 106.268C130.851 105.31 129.904 104.096 129.263 102.718C128.932 101.958 128.772 101.134 128.794 100.304C128.819 99.6263 128.986 98.9611 129.284 98.3518C129.58 97.7915 129.977 97.2908 130.456 96.875Z" fill="#455A64"/>
<path d="M149.76 87.054C149.76 87.054 149.76 87.0966 149.704 87.1889C149.68 87.3275 149.68 87.4691 149.704 87.6078C149.79 88.1294 150.075 88.5975 150.499 88.9142C151.132 89.3358 151.823 89.6634 152.551 89.8869C153.39 90.2221 154.139 90.7499 154.737 91.4276C155.34 92.1036 155.778 92.9106 156.015 93.7848C156.201 94.5003 156.256 95.2435 156.179 95.9787C156.082 96.658 155.903 97.3231 155.646 97.9596C155.763 97.8115 155.856 97.6462 155.923 97.4697C156.131 97.0015 156.275 96.507 156.349 96C156.445 95.2377 156.394 94.4642 156.2 93.7209C155.965 92.8096 155.517 91.9673 154.892 91.2635C154.268 90.5598 153.484 90.0149 152.607 89.6739C151.894 89.4666 151.211 89.1658 150.577 88.7793C150.29 88.5969 150.061 88.338 149.914 88.0318C149.767 87.7256 149.709 87.3844 149.746 87.0469L149.76 87.054Z" fill="#455A64"/>
<path d="M152.771 118.272C153.101 118.423 153.385 118.658 153.595 118.953C153.806 119.249 153.935 119.594 153.971 119.955C153.94 120.22 153.838 120.472 153.676 120.683C153.513 120.894 153.296 121.057 153.048 121.155C152.678 121.315 152.267 121.352 151.875 121.258C151.483 121.165 151.132 120.947 150.875 120.637C150.634 120.315 150.52 119.916 150.554 119.515C150.588 119.115 150.768 118.741 151.06 118.464C151.215 118.335 151.394 118.24 151.587 118.184C151.781 118.127 151.984 118.111 152.183 118.137C152.383 118.162 152.575 118.228 152.748 118.331C152.922 118.433 153.072 118.571 153.19 118.734" fill="#EB996E"/>
<path d="M142.249 89.0074C142.249 89.0571 142.88 88.5885 143.96 88.0702C145.363 87.3991 146.892 87.0291 148.447 86.9839C150.004 86.9634 151.548 87.2731 152.977 87.8927C154.077 88.3684 154.688 88.8086 154.723 88.7589C154.759 88.7092 154.603 88.6098 154.326 88.4039C153.938 88.1174 153.524 87.8678 153.09 87.6584C151.645 86.9454 150.051 86.5876 148.44 86.6147C146.832 86.6549 145.255 87.0733 143.839 87.8359C143.413 88.0654 143.009 88.3339 142.632 88.6382C142.362 88.8512 142.234 88.9861 142.249 89.0074Z" fill="#053D38"/>
<path d="M152.068 117.066C151.89 117.158 152.558 118.266 152.068 119.615C151.578 120.964 150.35 121.56 150.435 121.745C150.52 121.929 150.826 121.802 151.33 121.518C151.986 121.138 152.489 120.54 152.75 119.828C152.989 119.144 152.959 118.395 152.664 117.733C152.423 117.215 152.139 117.016 152.068 117.066Z" fill="#263238"/>
<path d="M176.577 127.174C176.577 127.174 173.077 121.076 172.409 122.041C171.742 123.007 155.284 133.692 156.392 135.609C157.499 137.526 160.744 139.536 160.744 139.536L176.577 127.174Z" fill="#053D38"/>
<path d="M111.811 194.35C108.616 195.139 102.375 196.594 100.387 196.814C96.2902 197.269 96.2476 196.914 96.2831 196.431C96.3754 195.139 103.461 195.359 101.963 194.436C100.465 193.513 93.2443 195.146 93.4005 193.818C93.5993 192.064 101.019 192.398 101.644 192.398C102.268 192.398 102.29 191.475 101.722 191.525C100.905 191.581 92.3 192.036 92.4917 190.311C92.5911 189.352 94.3093 189.664 94.3093 189.664C94.3093 189.664 102.382 189.835 102.439 189.018C102.496 188.202 97.7599 187.932 96.1553 187.96C94.5507 187.989 93.9259 187.25 94.5081 186.54C94.8986 186.065 99.8118 185.873 101.402 185.88C102.993 185.887 107.338 186.001 105.265 184.219C103.191 182.437 102.275 180.292 102.425 179.533C102.48 179.362 102.587 179.213 102.73 179.106C102.874 178.999 103.047 178.939 103.226 178.934C103.405 178.929 103.581 178.98 103.73 179.08C103.879 179.179 103.994 179.323 104.058 179.49C104.527 180.274 105.1 180.991 105.762 181.62C106.28 182.155 106.888 182.594 107.558 182.919C108.339 183.303 110.235 184.141 110.817 184.375" fill="#FFBE9D"/>
<path d="M152.359 145.855L141.879 179.63L109.794 182.861L110.405 194.931C110.405 194.931 148.205 200.057 153.829 194.427C159.452 188.796 167.56 164.905 167.56 164.905L152.359 145.855Z" fill="#053D38"/>
<path d="M201.257 132.226L226.107 194.89L178.537 208.345L179.247 188.323L153.36 152.461C152.547 151.338 152.122 149.982 152.147 148.596C152.173 147.21 152.649 145.871 153.502 144.779C158.302 138.623 168.93 126.915 183.471 121.959C187.98 120.411 198.921 122.186 201.257 132.226Z" fill="#053D38"/>
<path d="M178.21 190.168C175.278 195.706 179.19 203.111 184.181 204.368C189.173 205.624 196.187 201.045 196.251 194.783C196.351 186.32 192.936 182.202 190.046 181.463C186.382 180.54 181.178 184.601 178.21 190.168Z" fill="#263238"/>
<path d="M177.997 190.577C177.997 190.577 178.182 190.783 178.565 191.103C179.107 191.552 179.676 191.967 180.269 192.345C184.203 194.885 188.8 196.207 193.482 196.144C194.195 196.143 194.906 196.093 195.612 195.995C195.873 195.983 196.131 195.935 196.379 195.853C196.379 195.789 195.278 195.91 193.539 195.853C188.924 195.775 184.411 194.477 180.461 192.09C178.92 191.209 178.04 190.521 177.997 190.577Z" fill="#FAFAFA"/>
<path d="M180.447 187.148C180.522 187.37 180.632 187.579 180.773 187.766C181.121 188.298 181.531 188.787 181.994 189.222C183.552 190.647 185.457 191.638 187.518 192.097C189.562 192.539 191.658 192.692 193.745 192.552C194.54 192.509 195.165 192.452 195.626 192.402C195.868 192.401 196.108 192.36 196.336 192.282C195.48 192.235 194.622 192.235 193.766 192.282C191.707 192.344 189.647 192.158 187.632 191.728C185.628 191.281 183.764 190.353 182.2 189.023C181.573 188.439 180.987 187.813 180.447 187.148Z" fill="#053D38"/>
<path d="M182.47 184.479C182.47 184.479 182.584 184.642 182.832 184.891C183.191 185.237 183.575 185.555 183.982 185.842C185.32 186.799 186.811 187.519 188.391 187.972C189.977 188.428 191.629 188.612 193.276 188.519C193.772 188.488 194.266 188.424 194.753 188.327C195.094 188.249 195.285 188.199 195.278 188.171C195.271 188.143 194.504 188.235 193.262 188.256C190.019 188.308 186.835 187.383 184.124 185.601C183.109 184.948 182.527 184.436 182.47 184.479Z" fill="#FAFAFA"/>
<path d="M185.516 182.699C185.84 183 186.215 183.241 186.624 183.409C187.568 183.9 188.57 184.272 189.606 184.517C190.64 184.768 191.701 184.897 192.765 184.9C193.208 184.936 193.653 184.89 194.079 184.765C192.606 184.648 191.141 184.446 189.691 184.162C188.272 183.755 186.878 183.266 185.516 182.699Z" fill="#053D38"/>
<path d="M177.841 195.7C177.998 195.864 178.177 196.005 178.373 196.118C178.878 196.473 179.402 196.8 179.942 197.098C183.513 199.1 187.522 200.192 191.615 200.279C192.23 200.298 192.847 200.284 193.461 200.236C193.687 200.241 193.913 200.207 194.128 200.137C194.128 200.08 193.17 200.137 191.622 200.023C187.593 199.779 183.658 198.706 180.063 196.871C178.686 196.168 177.876 195.643 177.841 195.7Z" fill="#053D38"/>
<path d="M179.382 200.535C179.817 200.939 180.31 201.276 180.844 201.536C183.366 202.914 186.217 203.574 189.087 203.446C189.679 203.453 190.269 203.366 190.834 203.191C186.84 203.43 182.862 202.508 179.382 200.535Z" fill="#FAFAFA"/>
<path d="M170.67 189.471C169.548 194.157 173.886 198.928 177.841 198.928C181.796 198.928 186.155 194.157 185.012 189.471C183.464 183.145 180.134 180.738 177.841 180.738C174.894 180.738 171.82 184.771 170.67 189.471Z" fill="#053D38"/>
<path opacity="0.3" d="M170.67 189.471C169.548 194.157 173.886 198.928 177.841 198.928C181.796 198.928 186.155 194.157 185.012 189.471C183.464 183.145 180.134 180.738 177.841 180.738C174.894 180.738 171.82 184.771 170.67 189.471Z" fill="white"/>
<path d="M173.176 196.402C171.941 200.719 175.782 205.32 179.467 205.476C183.152 205.632 187.376 201.372 186.503 196.956C185.31 191.02 182.314 188.649 180.184 188.557C177.443 188.457 174.404 192.085 173.176 196.402Z" fill="#053D38"/>
<path d="M173.29 200.528C173.378 200.598 173.476 200.655 173.581 200.698C173.882 200.833 174.199 200.929 174.525 200.982C175.557 201.17 176.621 200.958 177.502 200.39C178.383 199.822 179.014 198.939 179.268 197.922C179.532 196.965 179.447 195.946 179.027 195.046C178.909 194.784 178.723 194.559 178.488 194.394C178.253 194.229 177.978 194.13 177.692 194.109C177.534 194.103 177.377 194.133 177.232 194.195C177.087 194.258 176.958 194.352 176.854 194.471C176.647 194.707 176.531 195.009 176.527 195.323C176.537 195.624 176.61 195.92 176.741 196.191C176.872 196.463 177.058 196.704 177.287 196.899C177.72 197.318 178.249 197.623 178.828 197.787C179.393 197.962 179.994 197.992 180.574 197.875C181.154 197.759 181.696 197.499 182.151 197.12C182.575 196.769 182.916 196.329 183.15 195.83C183.383 195.332 183.502 194.787 183.5 194.237C183.497 193.709 183.294 193.201 182.932 192.817C182.75 192.633 182.522 192.502 182.272 192.439C182.022 192.375 181.759 192.38 181.512 192.455C181.281 192.541 181.083 192.697 180.945 192.9C180.806 193.104 180.734 193.345 180.738 193.591C180.739 193.807 180.784 194.021 180.869 194.22C180.954 194.419 181.079 194.598 181.235 194.748C181.756 195.237 182.437 195.522 183.152 195.55C183.678 195.574 184.203 195.477 184.685 195.266C184.99 195.138 185.269 194.955 185.509 194.727C185.672 194.571 185.736 194.478 185.729 194.471C185.396 194.744 185.026 194.966 184.628 195.132C184.163 195.31 183.663 195.383 183.166 195.345C182.512 195.3 181.895 195.023 181.426 194.564C181.297 194.439 181.195 194.289 181.126 194.122C181.058 193.956 181.025 193.778 181.029 193.598C181.025 193.414 181.079 193.234 181.182 193.081C181.285 192.929 181.432 192.812 181.604 192.746C181.799 192.696 182.003 192.697 182.197 192.749C182.391 192.801 182.568 192.903 182.711 193.044C183.01 193.38 183.173 193.816 183.166 194.265C183.164 194.762 183.052 195.251 182.838 195.699C182.625 196.147 182.315 196.543 181.93 196.857C181.518 197.194 181.029 197.424 180.506 197.527C179.984 197.63 179.444 197.602 178.934 197.446C178.415 197.299 177.939 197.026 177.55 196.651C177.359 196.49 177.202 196.292 177.09 196.068C176.978 195.845 176.912 195.601 176.897 195.352C176.891 195.242 176.907 195.132 176.944 195.029C176.981 194.925 177.038 194.83 177.112 194.749C177.186 194.668 177.275 194.602 177.375 194.556C177.474 194.509 177.582 194.483 177.692 194.478C177.916 194.496 178.131 194.575 178.314 194.707C178.497 194.838 178.64 195.017 178.728 195.224C179.121 196.047 179.209 196.983 178.977 197.865C178.788 198.641 178.373 199.343 177.784 199.881C177.343 200.259 176.828 200.541 176.271 200.709C175.715 200.876 175.13 200.926 174.554 200.854C174.123 200.783 173.7 200.674 173.29 200.528Z" fill="#FAFAFA"/>
<path d="M178.21 205.384C178.423 204.561 178.797 203.789 179.311 203.112C179.884 202.407 180.652 201.887 181.519 201.614C181.749 201.527 181.996 201.492 182.241 201.512C182.487 201.532 182.725 201.605 182.939 201.727C183.35 202.004 183.535 202.65 183.123 202.963C183.025 203.043 182.911 203.101 182.788 203.132C182.666 203.164 182.538 203.169 182.413 203.147C182.17 203.098 181.956 202.955 181.817 202.75C181.676 202.543 181.591 202.303 181.573 202.054C181.554 201.805 181.601 201.555 181.71 201.33C181.895 200.925 182.174 200.572 182.526 200.3C182.877 200.028 183.289 199.845 183.727 199.768C184.33 199.66 184.951 199.747 185.502 200.016C185.899 200.201 186.084 200.371 186.105 200.343C185.968 200.149 185.785 199.993 185.573 199.888C185.006 199.547 184.338 199.414 183.684 199.512C183.193 199.579 182.726 199.768 182.326 200.062C181.927 200.356 181.608 200.745 181.398 201.195C181.263 201.472 181.204 201.781 181.226 202.089C181.249 202.397 181.352 202.693 181.526 202.948C181.718 203.232 182.013 203.429 182.349 203.495C182.525 203.525 182.706 203.517 182.878 203.472C183.051 203.426 183.212 203.345 183.35 203.232C183.491 203.114 183.597 202.96 183.657 202.786C183.717 202.612 183.729 202.425 183.691 202.246C183.615 201.912 183.418 201.618 183.137 201.422C182.877 201.264 182.585 201.169 182.282 201.143C181.979 201.117 181.674 201.161 181.391 201.273C180.466 201.577 179.656 202.157 179.069 202.934C178.675 203.45 178.395 204.042 178.246 204.674C178.188 204.906 178.176 205.147 178.21 205.384Z" fill="#FAFAFA"/>
<path d="M176.868 190.103C176.868 190.139 177.095 190.373 177.578 190.572C178.242 190.83 178.968 190.89 179.665 190.742C180.363 190.594 181.002 190.247 181.504 189.741C181.888 189.358 182.016 189.031 181.98 189.031C181.945 189.031 181.725 189.244 181.334 189.557C180.828 189.968 180.23 190.252 179.592 190.387C178.954 190.521 178.293 190.502 177.663 190.331C177.188 190.203 176.897 190.054 176.868 190.103Z" fill="#FAFAFA"/>
<g opacity="0.2">
<path d="M181.22 205.051C181.737 204.783 182.195 204.416 182.569 203.971C182.752 203.745 182.869 203.473 182.905 203.184C182.941 202.896 182.896 202.603 182.775 202.338C182.626 202.126 182.432 201.949 182.208 201.818C181.984 201.687 181.734 201.605 181.476 201.579C180.961 201.535 180.448 201.459 179.942 201.351C179.463 201.174 179.024 200.903 178.649 200.554C178.275 200.206 177.974 199.787 177.763 199.321C177.28 198.419 176.982 197.425 176.506 196.523C176.405 196.262 176.243 196.029 176.033 195.844C175.823 195.658 175.571 195.526 175.299 195.458C174.539 195.38 173.993 196.168 173.765 196.878C173.435 198.005 173.412 199.199 173.701 200.337C173.989 201.475 174.578 202.514 175.406 203.347C177.081 204.98 179.005 205.768 181.22 205.022" fill="black"/>
</g>
<path d="M163.485 183.131C168.156 176.954 173.538 170.955 175.611 163.486C177.244 157.607 176.655 151.416 176.463 145.281C176.272 139.147 176.598 132.764 179.751 127.531C182.903 122.299 188.576 120.325 195.484 123.065C197.783 124.203 199.577 126.154 200.518 128.539C205.687 143.236 207.256 154.667 208.2 170.224C208.697 178.41 208.506 186.731 206.411 194.669C204.317 202.607 200.22 210.161 193.887 215.408C187.554 220.655 178.863 223.253 170.89 221.315C162.917 219.377 156.108 212.461 155.27 204.275C154.532 196.586 158.806 189.308 163.485 183.131ZM170.911 188.811C171.621 191.694 174 193.859 176.591 195.336C180.021 197.31 184.096 198.403 187.951 197.637C192.687 196.692 196.578 193.071 198.843 188.797C201.108 184.523 201.938 179.652 202.393 174.839C203.607 161.895 202.272 148.668 200.809 135.746L185.104 160.674C181.135 167.597 175.768 173.703 172.374 180.923C171.217 183.422 170.279 186.184 170.911 188.861V188.811Z" fill="#455A64"/>
<path d="M182.626 210.741C182.792 210.776 182.964 210.776 183.13 210.741C183.594 210.717 184.054 210.64 184.501 210.514C185.994 210.111 187.324 209.251 188.307 208.057C189.289 206.862 189.874 205.39 189.982 203.847C190.017 203.385 190 202.921 189.932 202.463C189.882 202.143 189.833 201.966 189.804 201.973C189.776 201.98 189.861 202.683 189.719 203.819C189.551 205.289 188.962 206.68 188.022 207.824C187.083 208.968 185.833 209.816 184.422 210.266C183.343 210.649 182.619 210.67 182.626 210.741Z" fill="#263238"/>
<path d="M166.644 207.123C166.715 207.123 166.743 206.477 167.098 205.511C167.538 204.252 168.337 203.148 169.397 202.338C170.457 201.528 171.732 201.046 173.062 200.953C174.085 200.875 174.724 201.01 174.731 200.953C174.198 200.735 173.622 200.647 173.048 200.697C171.647 200.735 170.291 201.209 169.172 202.053C168.062 202.908 167.249 204.09 166.85 205.433C166.652 205.973 166.582 206.551 166.644 207.123Z" fill="#263238"/>
<path d="M160.268 197.524C160.325 197.56 160.638 196.857 161.426 195.948C162.447 194.747 163.802 193.876 165.319 193.445C166.835 193.014 168.445 193.043 169.946 193.527C171.096 193.875 171.728 194.308 171.763 194.237C171.799 194.166 171.635 194.088 171.344 193.903C170.929 193.641 170.486 193.427 170.024 193.264C168.485 192.698 166.807 192.636 165.231 193.087C163.655 193.537 162.262 194.477 161.255 195.77C160.951 196.153 160.689 196.567 160.474 197.006C160.297 197.332 160.247 197.517 160.268 197.524Z" fill="#263238"/>
<path d="M172.53 152.225C172.608 152.289 173.183 151.742 173.815 151.004C174.447 150.266 174.901 149.584 174.823 149.541C174.745 149.499 174.17 150.024 173.538 150.763C172.906 151.501 172.445 152.161 172.53 152.225Z" fill="white"/>
<path d="M171.067 148.393C170.98 147.741 170.832 147.1 170.627 146.476C170.542 145.825 170.399 145.184 170.201 144.559C169.987 145.9 170.297 147.273 171.067 148.393Z" fill="white"/>
<path d="M166.516 150.352C166.587 150.281 166.204 149.748 165.657 149.159C165.111 148.57 164.599 148.144 164.521 148.215C164.443 148.286 164.834 148.818 165.38 149.408C165.927 149.997 166.438 150.416 166.516 150.352Z" fill="white"/>
<path d="M171.898 137.031C172.143 137.689 172.443 138.326 172.793 138.934C173.03 139.594 173.323 140.233 173.666 140.844C173.555 139.402 172.927 138.048 171.898 137.031Z" fill="white"/>
<path d="M174.894 133.707C175.289 133.096 175.575 132.421 175.739 131.712C176.024 131.035 176.189 130.315 176.229 129.582C175.837 130.194 175.554 130.869 175.391 131.577C175.111 132.255 174.943 132.975 174.894 133.707Z" fill="white"/>
<path d="M165.955 137.697C167.121 136.888 168.133 135.879 168.945 134.715C167.783 135.528 166.772 136.537 165.955 137.697Z" fill="white"/>
<path d="M158.976 142.326C159.817 142.511 160.681 142.568 161.539 142.497C162.396 142.551 163.257 142.484 164.095 142.298C162.398 142.052 160.674 142.052 158.976 142.298V142.326Z" fill="white"/>
<path d="M159.949 148.108C160.013 148.023 159.324 147.398 158.415 146.766C157.897 146.313 157.301 145.959 156.654 145.723C157.087 146.255 157.609 146.709 158.195 147.065C158.712 147.515 159.306 147.869 159.949 148.108Z" fill="white"/>
<path d="M161.681 132.573C161.603 132.644 161.923 133.141 162.391 133.688C162.86 134.235 163.307 134.632 163.385 134.568C163.463 134.504 163.144 134 162.675 133.454C162.207 132.907 161.759 132.509 161.681 132.573Z" fill="white"/>
<path d="M168.27 129.462C168.355 129.519 168.817 129.001 169.299 128.305C169.782 127.609 170.109 126.999 170.009 126.942C169.91 126.885 169.463 127.396 168.98 128.092C168.497 128.788 168.163 129.406 168.27 129.462Z" fill="white"/>
<path d="M159.189 180.185C159.225 179.547 159.136 178.907 158.927 178.303C158.834 177.668 158.622 177.056 158.302 176.5C158.27 177.14 158.359 177.781 158.564 178.389C158.656 179.022 158.869 179.631 159.189 180.185Z" fill="white"/>
<path d="M150.875 173.668C151.417 173.73 151.965 173.669 152.48 173.49C153.346 173.291 154.028 173.057 153.999 172.958C152.916 172.945 151.846 173.188 150.875 173.668Z" fill="white"/>
<path d="M148.127 174.065C148.069 172.881 147.764 171.723 147.233 170.664C147.201 171.258 147.29 171.852 147.496 172.411C147.588 173 147.803 173.564 148.127 174.065Z" fill="white"/>
<path d="M152.252 182.57C152.813 182.323 153.318 181.966 153.736 181.519C154.496 180.866 155.05 180.27 154.986 180.191C154.424 180.439 153.917 180.796 153.495 181.242C152.742 181.895 152.181 182.471 152.252 182.57Z" fill="white"/>
<path d="M147.488 182.053C147.638 181.398 147.619 180.717 147.432 180.072C147.36 179.403 147.115 178.764 146.722 178.219C146.916 179.507 147.167 180.786 147.474 182.053H147.488Z" fill="white"/>
<path d="M150.435 190.421C151.167 190.16 151.852 189.784 152.466 189.307C153.146 188.934 153.762 188.455 154.29 187.887C153.558 188.148 152.873 188.524 152.26 189.001C151.581 189.376 150.965 189.856 150.435 190.421Z" fill="white"/>
<path d="M141.063 187.312C141.447 187.887 141.928 188.391 142.483 188.804C142.97 189.305 143.542 189.716 144.173 190.018C143.295 188.94 142.235 188.024 141.042 187.312H141.063Z" fill="white"/>
<path d="M137.08 183.218C137.915 183.429 138.776 183.515 139.636 183.474C140.491 183.559 141.354 183.52 142.199 183.36C140.508 183.067 138.784 183.019 137.08 183.218Z" fill="white"/>
<path d="M138.777 194.5C139.561 194.521 140.346 194.495 141.127 194.422C141.91 194.462 142.694 194.462 143.477 194.422C142.738 194.092 141.926 193.957 141.12 194.032C140.312 193.988 139.506 194.149 138.777 194.5Z" fill="white"/>
<path d="M136.824 190.432C136.737 189.846 136.529 189.285 136.214 188.785C136.002 188.231 135.681 187.726 135.269 187.301C135.355 187.887 135.563 188.448 135.88 188.948C136.094 189.5 136.414 190.005 136.824 190.432Z" fill="white"/>
<path d="M128.411 192.999C128.956 192.45 129.455 191.856 129.902 191.224C130.446 190.674 130.944 190.08 131.393 189.449C130.048 190.287 129.004 191.53 128.411 192.999Z" fill="white"/>
<path d="M125.429 184.075C126.264 184.066 127.098 183.987 127.921 183.841C128.753 183.814 129.582 183.716 130.399 183.55C129.573 183.352 128.715 183.326 127.878 183.472C127.029 183.502 126.195 183.707 125.429 184.075Z" fill="white"/>
<path d="M119.77 184.723C120.393 185.514 121.108 186.23 121.9 186.853C122.625 187.56 123.434 188.178 124.307 188.692C123.673 187.897 122.946 187.182 122.141 186.562C121.428 185.855 120.632 185.238 119.77 184.723Z" fill="white"/>
<path d="M119.28 192.573C119.839 192.249 120.365 191.871 120.849 191.444C121.403 191.111 121.926 190.728 122.411 190.301C121.751 190.407 121.135 190.7 120.636 191.146C119.77 191.785 119.237 192.509 119.28 192.573Z" fill="white"/>
<path d="M114.459 185.898C114.65 186.55 114.958 187.161 115.368 187.702C115.675 188.308 116.089 188.854 116.589 189.314C116.092 188.055 115.371 186.898 114.459 185.898Z" fill="white"/>
<path d="M112.627 190.992C112.564 191.07 112.727 191.325 113.004 191.56C113.281 191.794 113.558 191.922 113.621 191.844C113.685 191.765 113.522 191.51 113.245 191.276C112.968 191.041 112.691 190.935 112.627 190.992Z" fill="white"/>
<path d="M216.699 189.161C217.245 188.638 217.635 187.975 217.828 187.244C218.13 186.552 218.24 185.792 218.148 185.043C217.887 185.724 217.664 186.418 217.48 187.123C217.181 187.787 216.921 188.467 216.699 189.161Z" fill="white"/>
<path d="M219.83 193.426C220.435 193.016 220.963 192.505 221.392 191.914C221.916 191.406 222.351 190.813 222.677 190.16C222.073 190.57 221.545 191.082 221.115 191.672C220.592 192.181 220.157 192.774 219.83 193.426Z" fill="white"/>
<path d="M210.082 191.152C209.831 192.322 209.831 193.532 210.082 194.702C210.257 194.128 210.315 193.524 210.252 192.927C210.317 192.33 210.259 191.726 210.082 191.152Z" fill="white"/>
<path d="M211.722 178.359C211.644 178.43 212.432 179.446 213.277 180.809C214.122 182.172 214.619 183.365 214.697 183.329C214.509 182.358 214.125 181.435 213.568 180.617C213.12 179.742 212.491 178.972 211.722 178.359Z" fill="white"/>
<path d="M212.815 171.195C213.014 171.898 213.329 172.562 213.746 173.162C214.053 173.825 214.476 174.429 214.995 174.944C214.796 174.242 214.482 173.577 214.065 172.977C213.754 172.316 213.332 171.713 212.815 171.195Z" fill="white"/>
<path d="M198.417 181.498C198.739 180.839 198.95 180.132 199.042 179.404C199.247 178.701 199.333 177.969 199.297 177.238C198.768 178.599 198.47 180.039 198.417 181.498Z" fill="white"/>
<path d="M197.203 174.329C197.803 174.276 198.387 174.105 198.921 173.825C199.502 173.652 200.041 173.362 200.504 172.973C199.904 173.026 199.32 173.197 198.786 173.477C198.205 173.649 197.666 173.939 197.203 174.329Z" fill="white"/>
<path d="M191.7 179.992C192.253 180.15 192.823 180.245 193.397 180.276C193.957 180.419 194.531 180.5 195.108 180.517C194.631 180.152 194.054 179.939 193.454 179.906C192.874 179.757 192.263 179.787 191.7 179.992Z" fill="white"/>
<path d="M209.166 186.184C209.102 186.262 209.677 186.752 210.586 186.894C210.848 186.973 211.123 186.999 211.395 186.97C211.667 186.941 211.931 186.857 212.169 186.723C211.669 186.63 211.164 186.566 210.657 186.531C210.167 186.39 209.669 186.274 209.166 186.184Z" fill="white"/>
<path d="M213.824 197.829C213.923 197.829 214.165 197.339 214.363 196.672C214.562 196.004 214.647 195.444 214.555 195.415C214.463 195.387 214.214 195.898 214.008 196.565C213.802 197.233 213.71 197.794 213.824 197.829Z" fill="white"/>
<path d="M209.024 161.883C208.967 162.47 209.032 163.062 209.216 163.622C209.278 164.209 209.465 164.775 209.763 165.284C209.774 164.112 209.532 162.952 209.053 161.883H209.024Z" fill="white"/>
<g opacity="0.2">
<path d="M164.053 174.464C162.638 174.972 161.137 175.192 159.636 175.11C156.635 175.091 153.67 174.455 150.925 173.243C148.262 171.972 145.543 169.246 145.912 166.32C145.912 166.32 158.302 171.184 164.173 174.329" fill="black"/>
</g>
<g opacity="0.2">
<path d="M200.93 142.434C201.214 149.015 203.678 166.368 200.54 172.154C199.262 174.512 197.482 176.561 195.326 178.156C193.169 179.75 190.689 180.852 188.06 181.383C185.431 181.914 182.718 181.861 180.112 181.228C177.506 180.595 175.07 179.398 172.977 177.721C175.503 178.512 178.092 179.085 180.716 179.432C183.361 179.78 186.05 179.443 188.526 178.452C190.13 177.698 191.612 176.707 192.921 175.512C194.974 173.806 196.73 171.771 198.119 169.492C200.348 165.679 201.108 161.192 201.349 156.783C201.59 152.374 201.072 146.914 200.951 142.434" fill="black"/>
</g>
<path d="M116.374 141.314L119.087 139.047L130.12 152.247L127.407 154.514L116.374 141.314Z" fill="#263238"/>
<path d="M106.997 139.491C103.58 134.991 103.69 129.155 107.243 126.456C110.796 123.757 116.448 125.216 119.866 129.716C123.283 134.216 123.174 140.051 119.62 142.751C116.067 145.45 110.415 143.99 106.997 139.491Z" fill="#263238"/>
<path d="M105.934 140.457C102.516 135.958 102.568 130.166 106.05 127.521C109.531 124.877 115.124 126.381 118.542 130.88C121.96 135.38 121.908 141.171 118.427 143.816C114.945 146.46 109.352 144.957 105.934 140.457Z" fill="#455A64"/>
<path d="M106.988 139.644C103.869 135.538 103.915 130.254 107.09 127.842C110.266 125.43 115.369 126.803 118.488 130.909C121.607 135.015 121.561 140.299 118.385 142.711C115.209 145.124 110.107 143.75 106.988 139.644Z" fill="#E0E0E0"/>
<path d="M133.892 158.394L130.434 158.884C127.253 159.054 125.464 159.275 124.492 158.579C123.15 157.634 124.591 156.293 124.591 156.293C124.591 156.293 122.198 155.867 122.205 154.447C122.205 153.481 123.263 153.211 123.263 153.211C123.263 153.211 121.133 152.735 120.615 151.962C119.905 150.911 121.226 150.087 121.226 150.087C118.236 148.823 118.229 147.119 118.833 146.857C119.436 146.594 121.723 147.247 121.723 147.247C123.597 147.489 128.73 148.234 126.501 145.827C124.271 143.42 123.469 140.694 123.76 139.813C123.848 139.618 123.995 139.455 124.18 139.347C124.365 139.239 124.579 139.192 124.793 139.211C125.006 139.231 125.208 139.316 125.37 139.456C125.533 139.596 125.647 139.783 125.699 139.991C126.146 141.014 126.734 141.97 127.445 142.831C127.989 143.543 128.649 144.157 129.398 144.649C130.271 145.217 131.038 145.664 131.698 146.026L136.377 148.653L133.892 158.394Z" fill="#FFBE9D"/>
<path d="M189.925 123.27C191.321 123.27 192.703 123.546 193.992 124.082C195.281 124.618 196.451 125.403 197.436 126.393C198.42 127.382 199.199 128.557 199.728 129.849C200.257 131.14 200.526 132.524 200.518 133.92V160.19C200.518 166.828 196.592 175.412 190.67 178.408C188.381 179.566 185.867 180.211 183.304 180.299C180.74 180.387 178.188 179.917 175.824 178.92L131.804 160.353L136.505 144.577L179.815 157.513C179.815 157.513 179.509 144.357 179.367 133.97C179.347 132.566 179.607 131.173 180.131 129.871C180.654 128.569 181.431 127.384 182.417 126.385C183.403 125.386 184.577 124.593 185.872 124.052C187.167 123.511 188.557 123.233 189.96 123.234L189.925 123.27Z" fill="#053D38"/>
<path d="M136.483 144.612L136.654 144.683L137.165 144.868L139.16 145.549L146.416 147.899C152.551 149.852 161.057 152.486 170.507 155.177C173.73 156.093 176.854 156.952 179.737 157.733L179.971 157.797V157.562C179.836 150.065 179.722 143.575 179.637 138.932C179.58 136.639 179.538 134.807 179.502 133.515C179.502 132.904 179.467 132.428 179.453 132.095C179.463 131.929 179.463 131.763 179.453 131.598C179.434 131.765 179.434 131.934 179.453 132.102C179.453 132.457 179.453 132.94 179.453 133.522C179.453 134.814 179.453 136.646 179.453 138.932C179.502 143.582 179.573 150.072 179.659 157.562L179.879 157.392C176.982 156.604 173.858 155.738 170.649 154.815C161.199 152.131 152.686 149.539 146.509 147.651L139.16 145.393L137.172 144.797L136.654 144.647C136.599 144.629 136.541 144.617 136.483 144.612Z" fill="#263238"/>
<path d="M132.394 160.298C132.473 160.348 132.556 160.391 132.642 160.426L133.402 160.774L136.32 162.095L147.169 166.852L163.25 173.895C166.289 175.194 169.434 176.65 172.786 177.977C174.493 178.656 176.247 179.213 178.033 179.646C179.878 180.102 181.777 180.303 183.677 180.242C185.587 180.176 187.467 179.745 189.215 178.971C190.91 178.222 192.469 177.197 193.83 175.94C196.357 173.536 198.3 170.585 199.51 167.313C200.097 165.799 200.505 164.222 200.724 162.613C200.824 161.832 200.923 161.065 200.966 160.305C201.008 159.546 201.079 158.8 201.108 158.062C201.235 155.122 201.25 152.382 201.221 149.883C201.164 144.913 200.973 140.844 200.831 138.047C200.745 136.67 200.682 135.59 200.639 134.838C200.639 134.483 200.589 134.206 200.575 134C200.561 133.794 200.54 133.716 200.54 133.723C200.532 133.818 200.532 133.913 200.54 134.007C200.54 134.213 200.54 134.49 200.54 134.845C200.54 135.597 200.611 136.677 200.667 138.054C200.767 140.852 200.916 144.891 200.937 149.883C200.937 152.382 200.937 155.115 200.781 158.048C200.625 160.98 200.419 164.132 199.169 167.192C197.954 170.43 196.011 173.346 193.489 175.712C192.158 176.943 190.636 177.948 188.981 178.687C187.275 179.439 185.441 179.858 183.578 179.923C181.711 179.981 179.845 179.783 178.033 179.333C176.263 178.91 174.526 178.36 172.835 177.686C169.498 176.373 166.339 174.924 163.307 173.632L147.19 166.667L136.313 161.995L133.352 160.746L132.578 160.426C132.521 160.378 132.459 160.335 132.394 160.298Z" fill="#263238"/>
<path d="M194.27 143.257C194.355 143.314 194.874 142.653 195.428 141.794C195.813 141.299 196.099 140.735 196.272 140.133C195.798 140.543 195.405 141.039 195.115 141.595C194.723 142.086 194.436 142.651 194.27 143.257Z" fill="white"/>
<path d="M185.452 140.668C185.706 141.935 186.202 143.14 186.915 144.218C186.661 142.951 186.164 141.746 185.452 140.668Z" fill="white"/>
<path d="M190.088 134.831C190.173 134.895 190.685 134.341 191.246 133.596C191.806 132.85 192.183 132.176 192.098 132.176C192.012 132.176 191.501 132.666 190.947 133.404C190.566 133.816 190.274 134.301 190.088 134.831Z" fill="white"/>
<path d="M184.43 130.301C184.97 130.487 185.546 130.545 186.113 130.472C186.679 130.398 187.221 130.193 187.696 129.875C187.148 129.9 186.604 129.976 186.07 130.102C185.518 130.115 184.969 130.181 184.43 130.301Z" fill="white"/>
<path d="M191.395 152.649C191.606 151.766 191.695 150.858 191.658 149.951C191.738 149.048 191.7 148.139 191.544 147.246C191.333 148.129 191.244 149.037 191.281 149.944C191.2 150.847 191.239 151.756 191.395 152.649Z" fill="white"/>
<path d="M195.868 154.009C196.343 153.469 196.722 152.852 196.989 152.184C197.366 151.574 197.635 150.904 197.785 150.203C197.307 150.738 196.927 151.354 196.663 152.021C196.284 152.632 196.015 153.305 195.868 154.009Z" fill="white"/>
<path d="M183.294 149.918C183.612 150.739 184.045 151.511 184.579 152.211C185.014 152.976 185.551 153.679 186.176 154.299C185.429 152.709 184.458 151.234 183.294 149.918Z" fill="white"/>
<path d="M187.831 160.406C188.839 160.327 189.833 160.124 190.791 159.802C191.774 159.602 192.728 159.28 193.631 158.844C191.632 159.126 189.675 159.651 187.802 160.406H187.831Z" fill="white"/>
<path d="M190.692 165.695C191.131 166.358 191.667 166.952 192.282 167.456C192.818 168.044 193.44 168.547 194.128 168.947C193.69 168.283 193.154 167.689 192.538 167.186C192 166.6 191.378 166.097 190.692 165.695Z" fill="white"/>
<path d="M186.212 174.661C186.362 173.911 186.394 173.142 186.304 172.382C186.333 171.617 186.24 170.853 186.027 170.117C185.868 170.866 185.837 171.637 185.935 172.396C185.906 173.161 185.999 173.926 186.212 174.661Z" fill="white"/>
<path d="M179.708 165.808C180.478 165.449 181.195 164.985 181.838 164.43C182.555 163.97 183.201 163.408 183.755 162.762C182.982 163.115 182.264 163.579 181.625 164.139C180.907 164.597 180.261 165.16 179.708 165.808Z" fill="white"/>
<path d="M172.899 170.273C174.054 171.353 175.268 172.367 176.534 173.312C176.124 172.621 175.572 172.023 174.916 171.559C174.338 170.997 173.652 170.56 172.899 170.273Z" fill="white"/>
<path d="M175.91 164.565C176.138 163.878 176.249 163.158 176.236 162.435C176.34 161.727 176.326 161.007 176.194 160.305C175.962 160.99 175.851 161.711 175.867 162.435C175.762 163.142 175.776 163.862 175.91 164.565Z" fill="white"/>
<path d="M167.943 162.158C168.595 161.698 169.22 161.202 169.818 160.674C170.493 160.238 171.142 159.764 171.763 159.254C170.196 159.723 168.844 160.728 167.943 162.094V162.158Z" fill="white"/>
<path d="M160.971 167.404C161.8 167.747 162.672 167.974 163.563 168.078C164.434 168.305 165.332 168.412 166.232 168.398C165.402 168.045 164.528 167.806 163.634 167.688C162.764 167.47 161.868 167.374 160.971 167.404Z" fill="white"/>
<path d="M157.982 159.16C158.642 159.717 159.337 160.232 160.062 160.701C160.714 161.268 161.397 161.799 162.107 162.291C161.087 160.848 159.647 159.754 157.982 159.16Z" fill="white"/>
<path d="M159.118 155.319C161.158 155.867 163.292 155.964 165.373 155.603C164.337 155.478 163.293 155.421 162.249 155.433C161.209 155.326 160.163 155.288 159.118 155.319Z" fill="white"/>
<path d="M149.597 160.461C150.027 161.15 150.559 161.769 151.173 162.3C151.702 162.916 152.322 163.448 153.012 163.876C152.579 163.189 152.048 162.57 151.436 162.037C150.906 161.422 150.286 160.891 149.597 160.461Z" fill="white"/>
<path d="M150.165 156.462C151.022 156.043 151.824 155.518 152.551 154.9C153.346 154.374 154.074 153.752 154.716 153.047C153.052 153.975 151.521 155.124 150.165 156.462Z" fill="white"/>
<path d="M141.957 148.617C142.246 149.478 142.647 150.297 143.15 151.052C143.553 151.868 144.064 152.625 144.67 153.303C144.381 152.441 143.977 151.622 143.47 150.868C143.071 150.052 142.562 149.295 141.957 148.617Z" fill="white"/>
<path d="M136.377 159.04C137.448 158.998 138.516 158.884 139.572 158.699C140.644 158.638 141.711 158.507 142.767 158.308C141.697 158.132 140.606 158.132 139.536 158.308C138.451 158.382 137.384 158.629 136.377 159.04Z" fill="white"/>
<path d="M137.556 156.749C137.94 155.461 138.087 154.114 137.989 152.773C137.731 153.398 137.594 154.065 137.584 154.74C137.456 155.403 137.446 156.083 137.556 156.749Z" fill="white"/>
<path d="M194.661 126.324C195.086 127.198 195.618 128.016 196.244 128.76C196.769 129.579 197.399 130.327 198.118 130.982C197.694 130.105 197.163 129.284 196.535 128.539C196.009 127.723 195.379 126.978 194.661 126.324Z" fill="white"/>
</svg>
