<svg width="281" height="282" viewBox="0 0 281 282" fill="none" xmlns="http://www.w3.org/2000/svg">
<g clip-path="url(#clip0_579_18147)">
<path d="M280.875 215.141H0.125V215.281H280.875V215.141Z" fill="#EBEBEB"/>
<path d="M252.744 224.176H234.147V224.316H252.744V224.176Z" fill="#EBEBEB"/>
<path d="M186.105 225.703H181.226V225.844H186.105V225.703Z" fill="#EBEBEB"/>
<path d="M233.585 218.965H222.81V219.105H233.585V218.965Z" fill="#EBEBEB"/>
<path d="M53.8322 219.906H29.5811V220.047H53.8322V219.906Z" fill="#EBEBEB"/>
<path d="M62.3897 219.906H58.8354V220.047H62.3897V219.906Z" fill="#EBEBEB"/>
<path d="M126.547 222.277H73.9453V222.418H126.547V222.277Z" fill="#EBEBEB"/>
<path d="M133.201 190.097H24.7806C23.9313 190.095 23.1172 189.757 22.5172 189.156C21.9171 188.555 21.5801 187.74 21.5801 186.891V34.4828C21.5875 33.6383 21.9278 32.8308 22.527 32.2358C23.1263 31.6407 23.9361 31.3061 24.7806 31.3047H133.201C134.051 31.3047 134.867 31.6425 135.468 32.2438C136.069 32.845 136.407 33.6605 136.407 34.5109V186.891C136.407 187.741 136.069 188.557 135.468 189.158C134.867 189.759 134.051 190.097 133.201 190.097ZM24.7806 31.417C23.9685 31.4185 23.1902 31.7421 22.6164 32.3169C22.0427 32.8917 21.7205 33.6707 21.7205 34.4828V186.891C21.7205 187.703 22.0427 188.482 22.6164 189.057C23.1902 189.631 23.9685 189.955 24.7806 189.957H133.201C134.013 189.955 134.792 189.632 135.367 189.057C135.941 188.482 136.265 187.703 136.266 186.891V34.4828C136.265 33.6701 135.941 32.8912 135.367 32.3166C134.792 31.742 134.013 31.4185 133.201 31.417H24.7806Z" fill="#EBEBEB"/>
<path d="M254.659 190.097H146.233C145.383 190.095 144.569 189.757 143.968 189.156C143.367 188.555 143.028 187.741 143.027 186.891V34.4828C143.036 33.6378 143.377 32.8303 143.977 32.2354C144.578 31.6405 145.388 31.3061 146.233 31.3047H254.659C255.502 31.3076 256.311 31.6429 256.909 32.2377C257.507 32.8326 257.846 33.6393 257.854 34.4828V186.891C257.854 187.739 257.517 188.553 256.919 189.154C256.32 189.755 255.507 190.094 254.659 190.097ZM146.233 31.417C145.42 31.4185 144.641 31.742 144.067 32.3166C143.492 32.8912 143.169 33.6701 143.167 34.4828V186.891C143.169 187.703 143.492 188.482 144.067 189.057C144.641 189.632 145.42 189.955 146.233 189.957H254.659C255.471 189.955 256.25 189.632 256.825 189.057C257.399 188.482 257.723 187.703 257.724 186.891V34.4828C257.723 33.6701 257.399 32.8912 256.825 32.3166C256.25 31.742 255.471 31.4185 254.659 31.417H146.233Z" fill="#EBEBEB"/>
<path d="M36.1621 215.236V188.397H38.4586V175.611H41.8164V131.146H46.6622V125.413L57.0162 120.584V114.801H58.448V131.146H60.4582V175.611H62.4684V152.231H67.9149V140.186H69.4366V175.611H73.5749V162.13H76.3037V158.688H82.615V146.924H86.0682V138.609H90.3188V126.486H91.8292V138.609H96.0798V146.924H99.533V158.688H105.844V162.13H108.573V175.611H111.802V158.688H118.113V122.258H120.123V118.243H133.605V122.258H136.474V148.648H147.946V151.225H152.247V153.236H147.946V163.562H159.99V129.142H162.573V121.825H168.165V95.8672H169.743V121.825H173.763V129.142H197.307V126.733H198.739V143.084H200.749V143.37H201.951V159.721H203.961V164.168H208.206V152.118H209.727V180.805H211.417V168.756H212.939V187.543H213.866V174.062H216.589V170.62H222.9V158.862H226.353V150.54H230.604V138.423H232.12V150.54H236.371V158.862H239.824V170.62H246.135V174.062H248.858V187.257H249.347V187.543H250.7V215.236H36.1621Z" fill="#E6E6E6"/>
<path d="M184.168 130.746H182.545V132.369H184.168V130.746Z" fill="#F0F0F0"/>
<path d="M184.168 133.477H182.545V135.099H184.168V133.477Z" fill="#F0F0F0"/>
<path d="M184.168 144.375H182.545V145.998H184.168V144.375Z" fill="#F0F0F0"/>
<path d="M184.168 147.098H182.545V148.72H184.168V147.098Z" fill="#F0F0F0"/>
<path d="M184.168 149.824H182.545V151.453H184.168V149.824Z" fill="#F0F0F0"/>
<path d="M184.168 157.996H182.545V159.619H184.168V157.996Z" fill="#F0F0F0"/>
<path d="M184.168 160.727H182.545V162.355H184.168V160.727Z" fill="#F0F0F0"/>
<path d="M181.585 141.652H179.962V143.275H181.585V141.652Z" fill="#F0F0F0"/>
<path d="M181.585 144.375H179.962V145.998H181.585V144.375Z" fill="#F0F0F0"/>
<path d="M181.585 147.098H179.962V148.72H181.585V147.098Z" fill="#F0F0F0"/>
<path d="M181.585 149.824H179.962V151.453H181.585V149.824Z" fill="#F0F0F0"/>
<path d="M181.585 152.551H179.962V154.179H181.585V152.551Z" fill="#F0F0F0"/>
<path d="M181.585 157.996H179.962V159.619H181.585V157.996Z" fill="#F0F0F0"/>
<path d="M181.585 160.727H179.962V162.355H181.585V160.727Z" fill="#F0F0F0"/>
<path d="M179.002 130.746H177.379V132.369H179.002V130.746Z" fill="#F0F0F0"/>
<path d="M179.002 133.477H177.379V135.099H179.002V133.477Z" fill="#F0F0F0"/>
<path d="M179.002 136.199H177.379V137.828H179.002V136.199Z" fill="#F0F0F0"/>
<path d="M179.002 138.922H177.379V140.55H179.002V138.922Z" fill="#F0F0F0"/>
<path d="M179.002 141.652H177.379V143.275H179.002V141.652Z" fill="#F0F0F0"/>
<path d="M179.002 144.375H177.379V145.998H179.002V144.375Z" fill="#F0F0F0"/>
<path d="M179.002 147.098H177.379V148.72H179.002V147.098Z" fill="#F0F0F0"/>
<path d="M179.002 149.824H177.379V151.453H179.002V149.824Z" fill="#F0F0F0"/>
<path d="M179.002 152.551H177.379V154.179H179.002V152.551Z" fill="#F0F0F0"/>
<path d="M179.002 155.273H177.379V156.902H179.002V155.273Z" fill="#F0F0F0"/>
<path d="M179.002 160.727H177.379V162.355H179.002V160.727Z" fill="#F0F0F0"/>
<path d="M176.419 130.746H174.796V132.369H176.419V130.746Z" fill="#F0F0F0"/>
<path d="M176.419 133.477H174.796V135.099H176.419V133.477Z" fill="#F0F0F0"/>
<path d="M176.419 136.199H174.796V137.828H176.419V136.199Z" fill="#F0F0F0"/>
<path d="M176.419 138.922H174.796V140.55H176.419V138.922Z" fill="#F0F0F0"/>
<path d="M176.419 141.652H174.796V143.275H176.419V141.652Z" fill="#F0F0F0"/>
<path d="M176.419 144.375H174.796V145.998H176.419V144.375Z" fill="#F0F0F0"/>
<path d="M176.419 147.098H174.796V148.72H176.419V147.098Z" fill="#F0F0F0"/>
<path d="M176.419 171.625H174.796V173.248H176.419V171.625Z" fill="#F0F0F0"/>
<path d="M173.836 130.746H172.213V132.369H173.836V130.746Z" fill="#F0F0F0"/>
<path d="M173.836 133.477H172.213V135.099H173.836V133.477Z" fill="#F0F0F0"/>
<path d="M173.836 136.199H172.213V137.828H173.836V136.199Z" fill="#F0F0F0"/>
<path d="M173.836 138.922H172.213V140.55H173.836V138.922Z" fill="#F0F0F0"/>
<path d="M173.836 141.652H172.213V143.275H173.836V141.652Z" fill="#F0F0F0"/>
<path d="M173.836 144.375H172.213V145.998H173.836V144.375Z" fill="#F0F0F0"/>
<path d="M173.836 147.098H172.213V148.72H173.836V147.098Z" fill="#F0F0F0"/>
<path d="M173.836 149.824H172.213V151.453H173.836V149.824Z" fill="#F0F0F0"/>
<path d="M173.836 166.172H172.213V167.795H173.836V166.172Z" fill="#F0F0F0"/>
<path d="M173.836 168.898H172.213V170.521H173.836V168.898Z" fill="#F0F0F0"/>
<path d="M173.836 171.625H172.213V173.248H173.836V171.625Z" fill="#F0F0F0"/>
<path d="M173.836 174.348H172.213V175.976H173.836V174.348Z" fill="#F0F0F0"/>
<path d="M173.836 185.25H172.213V186.873H173.836V185.25Z" fill="#F0F0F0"/>
<path d="M171.259 130.746H169.636V132.369H171.259V130.746Z" fill="#F0F0F0"/>
<path d="M171.259 133.477H169.636V135.099H171.259V133.477Z" fill="#F0F0F0"/>
<path d="M171.259 136.199H169.636V137.828H171.259V136.199Z" fill="#F0F0F0"/>
<path d="M171.259 138.922H169.636V140.55H171.259V138.922Z" fill="#F0F0F0"/>
<path d="M171.259 141.652H169.636V143.275H171.259V141.652Z" fill="#F0F0F0"/>
<path d="M171.259 144.375H169.636V145.998H171.259V144.375Z" fill="#F0F0F0"/>
<path d="M171.259 147.098H169.636V148.72H171.259V147.098Z" fill="#F0F0F0"/>
<path d="M171.259 149.824H169.636V151.453H171.259V149.824Z" fill="#F0F0F0"/>
<path d="M171.259 152.551H169.636V154.179H171.259V152.551Z" fill="#F0F0F0"/>
<path d="M171.259 155.273H169.636V156.902H171.259V155.273Z" fill="#F0F0F0"/>
<path d="M171.259 163.449H169.636V165.072H171.259V163.449Z" fill="#F0F0F0"/>
<path d="M171.259 166.172H169.636V167.795H171.259V166.172Z" fill="#F0F0F0"/>
<path d="M171.259 168.898H169.636V170.521H171.259V168.898Z" fill="#F0F0F0"/>
<path d="M171.259 171.625H169.636V173.248H171.259V171.625Z" fill="#F0F0F0"/>
<path d="M171.259 174.348H169.636V175.976H171.259V174.348Z" fill="#F0F0F0"/>
<path d="M171.259 185.25H169.636V186.873H171.259V185.25Z" fill="#F0F0F0"/>
<path d="M168.676 130.746H167.053V132.369H168.676V130.746Z" fill="#F0F0F0"/>
<path d="M168.676 133.477H167.053V135.099H168.676V133.477Z" fill="#F0F0F0"/>
<path d="M168.676 136.199H167.053V137.828H168.676V136.199Z" fill="#F0F0F0"/>
<path d="M168.676 138.922H167.053V140.55H168.676V138.922Z" fill="#F0F0F0"/>
<path d="M168.676 141.652H167.053V143.275H168.676V141.652Z" fill="#F0F0F0"/>
<path d="M168.676 144.375H167.053V145.998H168.676V144.375Z" fill="#F0F0F0"/>
<path d="M168.676 147.098H167.053V148.72H168.676V147.098Z" fill="#F0F0F0"/>
<path d="M168.676 149.824H167.053V151.453H168.676V149.824Z" fill="#F0F0F0"/>
<path d="M168.676 152.551H167.053V154.179H168.676V152.551Z" fill="#F0F0F0"/>
<path d="M168.676 155.273H167.053V156.902H168.676V155.273Z" fill="#F0F0F0"/>
<path d="M168.676 157.996H167.053V159.619H168.676V157.996Z" fill="#F0F0F0"/>
<path d="M168.676 160.727H167.053V162.355H168.676V160.727Z" fill="#F0F0F0"/>
<path d="M168.676 163.449H167.053V165.072H168.676V163.449Z" fill="#F0F0F0"/>
<path d="M168.676 166.172H167.053V167.795H168.676V166.172Z" fill="#F0F0F0"/>
<path d="M168.676 168.898H167.053V170.521H168.676V168.898Z" fill="#F0F0F0"/>
<path d="M168.676 171.625H167.053V173.248H168.676V171.625Z" fill="#F0F0F0"/>
<path d="M168.676 174.348H167.053V175.976H168.676V174.348Z" fill="#F0F0F0"/>
<path d="M168.676 177.074H167.053V178.703H168.676V177.074Z" fill="#F0F0F0"/>
<path d="M166.093 130.746H164.47V132.369H166.093V130.746Z" fill="#F0F0F0"/>
<path d="M166.093 133.477H164.47V135.099H166.093V133.477Z" fill="#F0F0F0"/>
<path d="M166.093 136.199H164.47V137.828H166.093V136.199Z" fill="#F0F0F0"/>
<path d="M166.093 138.922H164.47V140.55H166.093V138.922Z" fill="#F0F0F0"/>
<path d="M166.093 141.652H164.47V143.275H166.093V141.652Z" fill="#F0F0F0"/>
<path d="M166.093 144.375H164.47V145.998H166.093V144.375Z" fill="#F0F0F0"/>
<path d="M166.093 147.098H164.47V148.72H166.093V147.098Z" fill="#F0F0F0"/>
<path d="M166.093 149.824H164.47V151.453H166.093V149.824Z" fill="#F0F0F0"/>
<path d="M166.093 152.551H164.47V154.179H166.093V152.551Z" fill="#F0F0F0"/>
<path d="M166.093 155.273H164.47V156.902H166.093V155.273Z" fill="#F0F0F0"/>
<path d="M166.093 163.449H164.47V165.072H166.093V163.449Z" fill="#F0F0F0"/>
<path d="M166.093 166.172H164.47V167.795H166.093V166.172Z" fill="#F0F0F0"/>
<path d="M166.093 168.898H164.47V170.521H166.093V168.898Z" fill="#F0F0F0"/>
<path d="M166.093 171.625H164.47V173.248H166.093V171.625Z" fill="#F0F0F0"/>
<path d="M163.51 130.746H161.888V132.369H163.51V130.746Z" fill="#F0F0F0"/>
<path d="M163.51 133.477H161.888V135.099H163.51V133.477Z" fill="#F0F0F0"/>
<path d="M163.51 136.199H161.888V137.828H163.51V136.199Z" fill="#F0F0F0"/>
<path d="M163.51 138.922H161.888V140.55H163.51V138.922Z" fill="#F0F0F0"/>
<path d="M163.51 141.652H161.888V143.275H163.51V141.652Z" fill="#F0F0F0"/>
<path d="M163.51 144.375H161.888V145.998H163.51V144.375Z" fill="#F0F0F0"/>
<path d="M163.51 147.098H161.888V148.72H163.51V147.098Z" fill="#F0F0F0"/>
<path d="M163.51 149.824H161.888V151.453H163.51V149.824Z" fill="#F0F0F0"/>
<path d="M163.51 152.551H161.888V154.179H163.51V152.551Z" fill="#F0F0F0"/>
<path d="M163.51 155.273H161.888V156.902H163.51V155.273Z" fill="#F0F0F0"/>
<path d="M163.51 163.449H161.888V165.072H163.51V163.449Z" fill="#F0F0F0"/>
<path d="M163.51 166.172H161.888V167.795H163.51V166.172Z" fill="#F0F0F0"/>
<path d="M163.51 168.898H161.888V170.521H163.51V168.898Z" fill="#F0F0F0"/>
<path d="M134.447 123.672H132.824V125.295H134.447V123.672Z" fill="#F0F0F0"/>
<path d="M134.447 126.398H132.824V128.021H134.447V126.398Z" fill="#F0F0F0"/>
<path d="M134.447 129.125H132.824V130.748H134.447V129.125Z" fill="#F0F0F0"/>
<path d="M134.447 131.848H132.824V133.47H134.447V131.848Z" fill="#F0F0F0"/>
<path d="M134.447 134.574H132.824V136.197H134.447V134.574Z" fill="#F0F0F0"/>
<path d="M134.447 137.301H132.824V138.924H134.447V137.301Z" fill="#F0F0F0"/>
<path d="M134.447 140.023H132.824V141.646H134.447V140.023Z" fill="#F0F0F0"/>
<path d="M134.447 142.746H132.824V144.369H134.447V142.746Z" fill="#F0F0F0"/>
<path d="M134.447 150.922H132.824V152.545H134.447V150.922Z" fill="#F0F0F0"/>
<path d="M134.447 153.648H132.824V155.271H134.447V153.648Z" fill="#F0F0F0"/>
<path d="M131.87 123.672H130.241V125.295H131.87V123.672Z" fill="#F0F0F0"/>
<path d="M131.87 126.398H130.241V128.021H131.87V126.398Z" fill="#F0F0F0"/>
<path d="M131.87 129.125H130.241V130.748H131.87V129.125Z" fill="#F0F0F0"/>
<path d="M131.87 131.848H130.241V133.47H131.87V131.848Z" fill="#F0F0F0"/>
<path d="M131.87 134.574H130.241V136.197H131.87V134.574Z" fill="#F0F0F0"/>
<path d="M131.87 137.301H130.241V138.924H131.87V137.301Z" fill="#F0F0F0"/>
<path d="M131.87 140.023H130.241V141.646H131.87V140.023Z" fill="#F0F0F0"/>
<path d="M131.87 142.746H130.241V144.369H131.87V142.746Z" fill="#F0F0F0"/>
<path d="M131.87 153.648H130.241V155.271H131.87V153.648Z" fill="#F0F0F0"/>
<path d="M129.287 123.672H127.659V125.295H129.287V123.672Z" fill="#F0F0F0"/>
<path d="M129.287 126.398H127.659V128.021H129.287V126.398Z" fill="#F0F0F0"/>
<path d="M129.287 129.125H127.659V130.748H129.287V129.125Z" fill="#F0F0F0"/>
<path d="M129.287 131.848H127.659V133.47H129.287V131.848Z" fill="#F0F0F0"/>
<path d="M129.287 134.574H127.659V136.197H129.287V134.574Z" fill="#F0F0F0"/>
<path d="M129.287 137.301H127.659V138.924H129.287V137.301Z" fill="#F0F0F0"/>
<path d="M129.287 140.023H127.659V141.646H129.287V140.023Z" fill="#F0F0F0"/>
<path d="M129.287 142.746H127.659V144.369H129.287V142.746Z" fill="#F0F0F0"/>
<path d="M126.704 123.672H125.076V125.295H126.704V123.672Z" fill="#F0F0F0"/>
<path d="M126.704 126.398H125.076V128.021H126.704V126.398Z" fill="#F0F0F0"/>
<path d="M126.704 129.125H125.076V130.748H126.704V129.125Z" fill="#F0F0F0"/>
<path d="M126.704 131.848H125.076V133.47H126.704V131.848Z" fill="#F0F0F0"/>
<path d="M126.704 134.574H125.076V136.197H126.704V134.574Z" fill="#F0F0F0"/>
<path d="M126.704 137.301H125.076V138.924H126.704V137.301Z" fill="#F0F0F0"/>
<path d="M126.704 142.746H125.076V144.369H126.704V142.746Z" fill="#F0F0F0"/>
<path d="M126.704 145.473H125.076V147.095H126.704V145.473Z" fill="#F0F0F0"/>
<path d="M126.704 153.648H125.076V155.271H126.704V153.648Z" fill="#F0F0F0"/>
<path d="M126.704 156.375H125.076V157.998H126.704V156.375Z" fill="#F0F0F0"/>
<path d="M126.704 159.098H125.076V160.72H126.704V159.098Z" fill="#F0F0F0"/>
<path d="M126.704 161.824H125.076V163.447H126.704V161.824Z" fill="#F0F0F0"/>
<path d="M126.704 164.547H125.076V166.17H126.704V164.547Z" fill="#F0F0F0"/>
<path d="M126.704 167.273H125.076V168.896H126.704V167.273Z" fill="#F0F0F0"/>
<path d="M126.704 169.996H125.076V171.624H126.704V169.996Z" fill="#F0F0F0"/>
<path d="M124.121 123.672H122.499V125.295H124.121V123.672Z" fill="#F0F0F0"/>
<path d="M124.121 126.398H122.499V128.021H124.121V126.398Z" fill="#F0F0F0"/>
<path d="M124.121 129.125H122.499V130.748H124.121V129.125Z" fill="#F0F0F0"/>
<path d="M124.121 131.848H122.499V133.47H124.121V131.848Z" fill="#F0F0F0"/>
<path d="M124.121 134.574H122.499V136.197H124.121V134.574Z" fill="#F0F0F0"/>
<path d="M124.121 137.301H122.499V138.924H124.121V137.301Z" fill="#F0F0F0"/>
<path d="M124.121 145.473H122.499V147.095H124.121V145.473Z" fill="#F0F0F0"/>
<path d="M124.121 148.199H122.499V149.822H124.121V148.199Z" fill="#F0F0F0"/>
<path d="M124.121 150.922H122.499V152.545H124.121V150.922Z" fill="#F0F0F0"/>
<path d="M124.121 153.648H122.499V155.271H124.121V153.648Z" fill="#F0F0F0"/>
<path d="M124.121 156.375H122.499V157.998H124.121V156.375Z" fill="#F0F0F0"/>
<path d="M124.121 159.098H122.499V160.72H124.121V159.098Z" fill="#F0F0F0"/>
<path d="M124.121 161.824H122.499V163.447H124.121V161.824Z" fill="#F0F0F0"/>
<path d="M124.121 164.547H122.499V166.17H124.121V164.547Z" fill="#F0F0F0"/>
<path d="M124.121 167.273H122.499V168.896H124.121V167.273Z" fill="#F0F0F0"/>
<path d="M124.121 169.996H122.499V171.624H124.121V169.996Z" fill="#F0F0F0"/>
<path d="M124.121 172.723H122.499V174.345H124.121V172.723Z" fill="#F0F0F0"/>
<path d="M124.121 178.172H122.499V179.795H124.121V178.172Z" fill="#F0F0F0"/>
<path d="M121.544 123.672H119.916V125.295H121.544V123.672Z" fill="#F0F0F0"/>
<path d="M121.544 126.398H119.916V128.021H121.544V126.398Z" fill="#F0F0F0"/>
<path d="M121.544 129.125H119.916V130.748H121.544V129.125Z" fill="#F0F0F0"/>
<path d="M121.544 131.848H119.916V133.47H121.544V131.848Z" fill="#F0F0F0"/>
<path d="M121.544 134.574H119.916V136.197H121.544V134.574Z" fill="#F0F0F0"/>
<path d="M121.544 137.301H119.916V138.924H121.544V137.301Z" fill="#F0F0F0"/>
<path d="M121.544 145.473H119.916V147.095H121.544V145.473Z" fill="#F0F0F0"/>
<path d="M121.544 148.199H119.916V149.822H121.544V148.199Z" fill="#F0F0F0"/>
<path d="M121.544 150.922H119.916V152.545H121.544V150.922Z" fill="#F0F0F0"/>
<path d="M121.544 153.648H119.916V155.271H121.544V153.648Z" fill="#F0F0F0"/>
<path d="M121.544 161.824H119.916V163.447H121.544V161.824Z" fill="#F0F0F0"/>
<path d="M121.544 164.547H119.916V166.17H121.544V164.547Z" fill="#F0F0F0"/>
<path d="M121.544 167.273H119.916V168.896H121.544V167.273Z" fill="#F0F0F0"/>
<path d="M121.544 169.996H119.916V171.624H121.544V169.996Z" fill="#F0F0F0"/>
<path d="M121.544 172.723H119.916V174.345H121.544V172.723Z" fill="#F0F0F0"/>
<path d="M121.544 178.172H119.916V179.795H121.544V178.172Z" fill="#F0F0F0"/>
<path d="M121.544 180.898H119.916V182.521H121.544V180.898Z" fill="#F0F0F0"/>
<path d="M98.1125 149.012H96.4897V150.634H98.1125V149.012Z" fill="#F0F0F0"/>
<path d="M98.1125 151.734H96.4897V153.357H98.1125V151.734Z" fill="#F0F0F0"/>
<path d="M98.1125 154.457H96.4897V156.08H98.1125V154.457Z" fill="#F0F0F0"/>
<path d="M98.1125 157.188H96.4897V158.81H98.1125V157.188Z" fill="#F0F0F0"/>
<path d="M98.1125 159.91H96.4897V161.533H98.1125V159.91Z" fill="#F0F0F0"/>
<path d="M98.1125 162.633H96.4897V164.256H98.1125V162.633Z" fill="#F0F0F0"/>
<path d="M98.1125 165.363H96.4897V166.986H98.1125V165.363Z" fill="#F0F0F0"/>
<path d="M98.1125 173.539H96.4897V175.162H98.1125V173.539Z" fill="#F0F0F0"/>
<path d="M98.1125 176.262H96.4897V177.884H98.1125V176.262Z" fill="#F0F0F0"/>
<path d="M98.1125 178.984H96.4897V180.607H98.1125V178.984Z" fill="#F0F0F0"/>
<path d="M95.5295 149.012H93.9067V150.634H95.5295V149.012Z" fill="#F0F0F0"/>
<path d="M95.5295 151.734H93.9067V153.357H95.5295V151.734Z" fill="#F0F0F0"/>
<path d="M95.5295 154.457H93.9067V156.08H95.5295V154.457Z" fill="#F0F0F0"/>
<path d="M95.5295 157.188H93.9067V158.81H95.5295V157.188Z" fill="#F0F0F0"/>
<path d="M95.5295 159.91H93.9067V161.533H95.5295V159.91Z" fill="#F0F0F0"/>
<path d="M95.5295 162.633H93.9067V164.256H95.5295V162.633Z" fill="#F0F0F0"/>
<path d="M95.5295 165.363H93.9067V166.986H95.5295V165.363Z" fill="#F0F0F0"/>
<path d="M92.9465 149.012H91.3237V150.634H92.9465V149.012Z" fill="#F0F0F0"/>
<path d="M92.9465 151.734H91.3237V153.357H92.9465V151.734Z" fill="#F0F0F0"/>
<path d="M92.9465 154.457H91.3237V156.08H92.9465V154.457Z" fill="#F0F0F0"/>
<path d="M92.9465 157.188H91.3237V158.81H92.9465V157.188Z" fill="#F0F0F0"/>
<path d="M92.9465 159.91H91.3237V161.533H92.9465V159.91Z" fill="#F0F0F0"/>
<path d="M92.9465 162.633H91.3237V164.256H92.9465V162.633Z" fill="#F0F0F0"/>
<path d="M92.9465 165.363H91.3237V166.986H92.9465V165.363Z" fill="#F0F0F0"/>
<path d="M90.3693 149.012H88.7466V150.634H90.3693V149.012Z" fill="#F0F0F0"/>
<path d="M90.3693 151.734H88.7466V153.357H90.3693V151.734Z" fill="#F0F0F0"/>
<path d="M90.3693 154.457H88.7466V156.08H90.3693V154.457Z" fill="#F0F0F0"/>
<path d="M90.3693 157.188H88.7466V158.81H90.3693V157.188Z" fill="#F0F0F0"/>
<path d="M90.3693 159.91H88.7466V161.533H90.3693V159.91Z" fill="#F0F0F0"/>
<path d="M90.3693 162.633H88.7466V164.256H90.3693V162.633Z" fill="#F0F0F0"/>
<path d="M90.3693 165.363H88.7466V166.986H90.3693V165.363Z" fill="#F0F0F0"/>
<path d="M90.3693 168.086H88.7466V169.709H90.3693V168.086Z" fill="#F0F0F0"/>
<path d="M90.3693 170.809H88.7466V172.431H90.3693V170.809Z" fill="#F0F0F0"/>
<path d="M90.3693 173.539H88.7466V175.162H90.3693V173.539Z" fill="#F0F0F0"/>
<path d="M90.3693 176.262H88.7466V177.884H90.3693V176.262Z" fill="#F0F0F0"/>
<path d="M87.7863 149.012H86.1636V150.634H87.7863V149.012Z" fill="#F0F0F0"/>
<path d="M87.7863 151.734H86.1636V153.357H87.7863V151.734Z" fill="#F0F0F0"/>
<path d="M87.7863 154.457H86.1636V156.08H87.7863V154.457Z" fill="#F0F0F0"/>
<path d="M87.7863 157.188H86.1636V158.81H87.7863V157.188Z" fill="#F0F0F0"/>
<path d="M87.7863 159.91H86.1636V161.533H87.7863V159.91Z" fill="#F0F0F0"/>
<path d="M87.7863 162.633H86.1636V164.256H87.7863V162.633Z" fill="#F0F0F0"/>
<path d="M87.7863 165.363H86.1636V166.986H87.7863V165.363Z" fill="#F0F0F0"/>
<path d="M87.7863 168.086H86.1636V169.709H87.7863V168.086Z" fill="#F0F0F0"/>
<path d="M87.7863 170.809H86.1636V172.431H87.7863V170.809Z" fill="#F0F0F0"/>
<path d="M87.7863 173.539H86.1636V175.162H87.7863V173.539Z" fill="#F0F0F0"/>
<path d="M87.7863 176.262H86.1636V177.884H87.7863V176.262Z" fill="#F0F0F0"/>
<path d="M87.7863 178.984H86.1636V180.607H87.7863V178.984Z" fill="#F0F0F0"/>
<path d="M87.7863 187.16H86.1636V188.783H87.7863V187.16Z" fill="#F0F0F0"/>
<path d="M87.7863 189.883H86.1636V191.506H87.7863V189.883Z" fill="#F0F0F0"/>
<path d="M85.2033 149.012H83.5806V150.634H85.2033V149.012Z" fill="#F0F0F0"/>
<path d="M85.2033 151.734H83.5806V153.357H85.2033V151.734Z" fill="#F0F0F0"/>
<path d="M85.2033 154.457H83.5806V156.08H85.2033V154.457Z" fill="#F0F0F0"/>
<path d="M85.2033 162.633H83.5806V164.256H85.2033V162.633Z" fill="#F0F0F0"/>
<path d="M85.2033 165.363H83.5806V166.986H85.2033V165.363Z" fill="#F0F0F0"/>
<path d="M85.2033 168.086H83.5806V169.709H85.2033V168.086Z" fill="#F0F0F0"/>
<path d="M85.2033 170.809H83.5806V172.431H85.2033V170.809Z" fill="#F0F0F0"/>
<path d="M85.2033 173.539H83.5806V175.162H85.2033V173.539Z" fill="#F0F0F0"/>
<path d="M85.2033 176.262H83.5806V177.884H85.2033V176.262Z" fill="#F0F0F0"/>
<path d="M85.2033 178.984H83.5806V180.607H85.2033V178.984Z" fill="#F0F0F0"/>
<path d="M85.2033 187.16H83.5806V188.783H85.2033V187.16Z" fill="#F0F0F0"/>
<path d="M85.2033 189.883H83.5806V191.506H85.2033V189.883Z" fill="#F0F0F0"/>
<path d="M85.2033 192.613H83.5806V194.242H85.2033V192.613Z" fill="#F0F0F0"/>
<path d="M58.1503 132.66H56.522V134.283H58.1503V132.66Z" fill="#F0F0F0"/>
<path d="M58.1503 135.383H56.522V137.006H58.1503V135.383Z" fill="#F0F0F0"/>
<path d="M58.1503 138.113H56.522V139.736H58.1503V138.113Z" fill="#F0F0F0"/>
<path d="M58.1503 140.836H56.522V142.459H58.1503V140.836Z" fill="#F0F0F0"/>
<path d="M58.1503 143.559H56.522V145.181H58.1503V143.559Z" fill="#F0F0F0"/>
<path d="M58.1503 146.281H56.522V147.904H58.1503V146.281Z" fill="#F0F0F0"/>
<path d="M58.1503 149.012H56.522V150.634H58.1503V149.012Z" fill="#F0F0F0"/>
<path d="M58.1503 151.734H56.522V153.357H58.1503V151.734Z" fill="#F0F0F0"/>
<path d="M58.1503 154.457H56.522V156.08H58.1503V154.457Z" fill="#F0F0F0"/>
<path d="M58.1503 157.188H56.522V158.81H58.1503V157.188Z" fill="#F0F0F0"/>
<path d="M58.1503 159.91H56.522V161.533H58.1503V159.91Z" fill="#F0F0F0"/>
<path d="M58.1503 162.633H56.522V164.256H58.1503V162.633Z" fill="#F0F0F0"/>
<path d="M58.1503 165.363H56.522V166.986H58.1503V165.363Z" fill="#F0F0F0"/>
<path d="M58.1503 168.086H56.522V169.709H58.1503V168.086Z" fill="#F0F0F0"/>
<path d="M58.1503 170.809H56.522V172.431H58.1503V170.809Z" fill="#F0F0F0"/>
<path d="M58.1503 173.539H56.522V175.162H58.1503V173.539Z" fill="#F0F0F0"/>
<path d="M58.1503 176.262H56.522V177.884H58.1503V176.262Z" fill="#F0F0F0"/>
<path d="M58.1503 178.984H56.522V180.607H58.1503V178.984Z" fill="#F0F0F0"/>
<path d="M58.1503 181.707H56.522V183.33H58.1503V181.707Z" fill="#F0F0F0"/>
<path d="M58.1503 184.438H56.522V186.06H58.1503V184.438Z" fill="#F0F0F0"/>
<path d="M58.1503 187.16H56.522V188.783H58.1503V187.16Z" fill="#F0F0F0"/>
<path d="M58.1503 189.883H56.522V191.506H58.1503V189.883Z" fill="#F0F0F0"/>
<path d="M58.1503 192.613H56.522V194.242H58.1503V192.613Z" fill="#F0F0F0"/>
<path d="M55.5617 132.66H53.939V134.283H55.5617V132.66Z" fill="#F0F0F0"/>
<path d="M55.5617 135.383H53.939V137.006H55.5617V135.383Z" fill="#F0F0F0"/>
<path d="M55.5617 138.113H53.939V139.736H55.5617V138.113Z" fill="#F0F0F0"/>
<path d="M55.5617 140.836H53.939V142.459H55.5617V140.836Z" fill="#F0F0F0"/>
<path d="M55.5617 143.559H53.939V145.181H55.5617V143.559Z" fill="#F0F0F0"/>
<path d="M55.5617 146.281H53.939V147.904H55.5617V146.281Z" fill="#F0F0F0"/>
<path d="M55.5617 149.012H53.939V150.634H55.5617V149.012Z" fill="#F0F0F0"/>
<path d="M55.5617 151.734H53.939V153.357H55.5617V151.734Z" fill="#F0F0F0"/>
<path d="M55.5617 154.457H53.939V156.08H55.5617V154.457Z" fill="#F0F0F0"/>
<path d="M55.5617 157.188H53.939V158.81H55.5617V157.188Z" fill="#F0F0F0"/>
<path d="M55.5617 159.91H53.939V161.533H55.5617V159.91Z" fill="#F0F0F0"/>
<path d="M55.5617 162.633H53.939V164.256H55.5617V162.633Z" fill="#F0F0F0"/>
<path d="M55.5617 165.363H53.939V166.986H55.5617V165.363Z" fill="#F0F0F0"/>
<path d="M55.5617 168.086H53.939V169.709H55.5617V168.086Z" fill="#F0F0F0"/>
<path d="M55.5617 170.809H53.939V172.431H55.5617V170.809Z" fill="#F0F0F0"/>
<path d="M55.5617 173.539H53.939V175.162H55.5617V173.539Z" fill="#F0F0F0"/>
<path d="M55.5617 176.262H53.939V177.884H55.5617V176.262Z" fill="#F0F0F0"/>
<path d="M55.5617 178.984H53.939V180.607H55.5617V178.984Z" fill="#F0F0F0"/>
<path d="M55.5617 181.707H53.939V183.33H55.5617V181.707Z" fill="#F0F0F0"/>
<path d="M52.9846 132.66H51.3618V134.283H52.9846V132.66Z" fill="#F0F0F0"/>
<path d="M52.9846 135.383H51.3618V137.006H52.9846V135.383Z" fill="#F0F0F0"/>
<path d="M52.9846 138.113H51.3618V139.736H52.9846V138.113Z" fill="#F0F0F0"/>
<path d="M52.9846 140.836H51.3618V142.459H52.9846V140.836Z" fill="#F0F0F0"/>
<path d="M52.9846 143.559H51.3618V145.181H52.9846V143.559Z" fill="#F0F0F0"/>
<path d="M52.9846 146.281H51.3618V147.904H52.9846V146.281Z" fill="#F0F0F0"/>
<path d="M52.9846 149.012H51.3618V150.634H52.9846V149.012Z" fill="#F0F0F0"/>
<path d="M52.9846 151.734H51.3618V153.357H52.9846V151.734Z" fill="#F0F0F0"/>
<path d="M52.9846 154.457H51.3618V156.08H52.9846V154.457Z" fill="#F0F0F0"/>
<path d="M52.9846 157.188H51.3618V158.81H52.9846V157.188Z" fill="#F0F0F0"/>
<path d="M52.9846 159.91H51.3618V161.533H52.9846V159.91Z" fill="#F0F0F0"/>
<path d="M52.9846 162.633H51.3618V164.256H52.9846V162.633Z" fill="#F0F0F0"/>
<path d="M52.9846 165.363H51.3618V166.986H52.9846V165.363Z" fill="#F0F0F0"/>
<path d="M52.9846 168.086H51.3618V169.709H52.9846V168.086Z" fill="#F0F0F0"/>
<path d="M52.9846 170.809H51.3618V172.431H52.9846V170.809Z" fill="#F0F0F0"/>
<path d="M52.9846 173.539H51.3618V175.162H52.9846V173.539Z" fill="#F0F0F0"/>
<path d="M52.9846 176.262H51.3618V177.884H52.9846V176.262Z" fill="#F0F0F0"/>
<path d="M52.9846 178.984H51.3618V180.607H52.9846V178.984Z" fill="#F0F0F0"/>
<path d="M52.9846 181.707H51.3618V183.33H52.9846V181.707Z" fill="#F0F0F0"/>
<path d="M50.4015 132.66H48.7788V134.283H50.4015V132.66Z" fill="#F0F0F0"/>
<path d="M50.4015 135.383H48.7788V137.006H50.4015V135.383Z" fill="#F0F0F0"/>
<path d="M50.4015 138.113H48.7788V139.736H50.4015V138.113Z" fill="#F0F0F0"/>
<path d="M50.4015 140.836H48.7788V142.459H50.4015V140.836Z" fill="#F0F0F0"/>
<path d="M50.4015 143.559H48.7788V145.181H50.4015V143.559Z" fill="#F0F0F0"/>
<path d="M50.4015 146.281H48.7788V147.904H50.4015V146.281Z" fill="#F0F0F0"/>
<path d="M50.4015 149.012H48.7788V150.634H50.4015V149.012Z" fill="#F0F0F0"/>
<path d="M50.4015 151.734H48.7788V153.357H50.4015V151.734Z" fill="#F0F0F0"/>
<path d="M50.4015 154.457H48.7788V156.08H50.4015V154.457Z" fill="#F0F0F0"/>
<path d="M50.4015 157.188H48.7788V158.81H50.4015V157.188Z" fill="#F0F0F0"/>
<path d="M50.4015 159.91H48.7788V161.533H50.4015V159.91Z" fill="#F0F0F0"/>
<path d="M50.4015 162.633H48.7788V164.256H50.4015V162.633Z" fill="#F0F0F0"/>
<path d="M50.4015 165.363H48.7788V166.986H50.4015V165.363Z" fill="#F0F0F0"/>
<path d="M50.4015 168.086H48.7788V169.709H50.4015V168.086Z" fill="#F0F0F0"/>
<path d="M50.4015 170.809H48.7788V172.431H50.4015V170.809Z" fill="#F0F0F0"/>
<path d="M47.819 132.66H46.1963V134.283H47.819V132.66Z" fill="#F0F0F0"/>
<path d="M47.819 135.383H46.1963V137.006H47.819V135.383Z" fill="#F0F0F0"/>
<path d="M47.819 138.113H46.1963V139.736H47.819V138.113Z" fill="#F0F0F0"/>
<path d="M47.819 140.836H46.1963V142.459H47.819V140.836Z" fill="#F0F0F0"/>
<path d="M47.819 143.559H46.1963V145.181H47.819V143.559Z" fill="#F0F0F0"/>
<path d="M47.819 146.281H46.1963V147.904H47.819V146.281Z" fill="#F0F0F0"/>
<path d="M47.819 149.012H46.1963V150.634H47.819V149.012Z" fill="#F0F0F0"/>
<path d="M47.819 151.734H46.1963V153.357H47.819V151.734Z" fill="#F0F0F0"/>
<path d="M47.819 154.457H46.1963V156.08H47.819V154.457Z" fill="#F0F0F0"/>
<path d="M47.819 157.188H46.1963V158.81H47.819V157.188Z" fill="#F0F0F0"/>
<path d="M47.819 159.91H46.1963V161.533H47.819V159.91Z" fill="#F0F0F0"/>
<path d="M47.819 162.633H46.1963V164.256H47.819V162.633Z" fill="#F0F0F0"/>
<path d="M47.819 165.363H46.1963V166.986H47.819V165.363Z" fill="#F0F0F0"/>
<path d="M45.236 132.66H43.6133V134.283H45.236V132.66Z" fill="#F0F0F0"/>
<path d="M45.236 135.383H43.6133V137.006H45.236V135.383Z" fill="#F0F0F0"/>
<path d="M45.236 138.113H43.6133V139.736H45.236V138.113Z" fill="#F0F0F0"/>
<path d="M45.236 140.836H43.6133V142.459H45.236V140.836Z" fill="#F0F0F0"/>
<path d="M45.236 143.559H43.6133V145.181H45.236V143.559Z" fill="#F0F0F0"/>
<path d="M45.236 146.281H43.6133V147.904H45.236V146.281Z" fill="#F0F0F0"/>
<path d="M45.236 149.012H43.6133V150.634H45.236V149.012Z" fill="#F0F0F0"/>
<path d="M45.236 151.734H43.6133V153.357H45.236V151.734Z" fill="#F0F0F0"/>
<path d="M45.236 154.457H43.6133V156.08H45.236V154.457Z" fill="#F0F0F0"/>
<path d="M45.236 157.188H43.6133V158.81H45.236V157.188Z" fill="#F0F0F0"/>
<path d="M45.236 159.91H43.6133V161.533H45.236V159.91Z" fill="#F0F0F0"/>
<path d="M45.236 162.633H43.6133V164.256H45.236V162.633Z" fill="#F0F0F0"/>
<path d="M234.939 152.551H233.316V154.179H234.939V152.551Z" fill="#F0F0F0"/>
<path d="M234.939 155.273H233.316V156.902H234.939V155.273Z" fill="#F0F0F0"/>
<path d="M234.939 157.996H233.316V159.619H234.939V157.996Z" fill="#F0F0F0"/>
<path d="M234.939 160.727H233.316V162.355H234.939V160.727Z" fill="#F0F0F0"/>
<path d="M234.939 163.449H233.316V165.072H234.939V163.449Z" fill="#F0F0F0"/>
<path d="M234.939 166.172H233.316V167.795H234.939V166.172Z" fill="#F0F0F0"/>
<path d="M234.939 168.898H233.316V170.521H234.939V168.898Z" fill="#F0F0F0"/>
<path d="M234.939 171.625H233.316V173.248H234.939V171.625Z" fill="#F0F0F0"/>
<path d="M234.939 174.348H233.316V175.976H234.939V174.348Z" fill="#F0F0F0"/>
<path d="M234.939 177.074H233.316V178.703H234.939V177.074Z" fill="#F0F0F0"/>
<path d="M234.939 179.801H233.316V181.429H234.939V179.801Z" fill="#F0F0F0"/>
<path d="M234.939 182.523H233.316V184.146H234.939V182.523Z" fill="#F0F0F0"/>
<path d="M234.939 185.25H233.316V186.873H234.939V185.25Z" fill="#F0F0F0"/>
<path d="M234.939 187.973H233.316V189.595H234.939V187.973Z" fill="#F0F0F0"/>
<path d="M234.939 190.699H233.316V192.322H234.939V190.699Z" fill="#F0F0F0"/>
<path d="M234.939 193.422H233.316V195.045H234.939V193.422Z" fill="#F0F0F0"/>
<path d="M234.939 196.148H233.316V197.771H234.939V196.148Z" fill="#F0F0F0"/>
<path d="M234.939 198.875H233.316V200.498H234.939V198.875Z" fill="#F0F0F0"/>
<path d="M234.939 201.598H233.316V203.22H234.939V201.598Z" fill="#F0F0F0"/>
<path d="M234.939 204.324H233.316V205.947H234.939V204.324Z" fill="#F0F0F0"/>
<path d="M232.356 152.551H230.733V154.179H232.356V152.551Z" fill="#F0F0F0"/>
<path d="M232.356 155.273H230.733V156.902H232.356V155.273Z" fill="#F0F0F0"/>
<path d="M232.356 157.996H230.733V159.619H232.356V157.996Z" fill="#F0F0F0"/>
<path d="M232.356 160.727H230.733V162.355H232.356V160.727Z" fill="#F0F0F0"/>
<path d="M232.356 163.449H230.733V165.072H232.356V163.449Z" fill="#F0F0F0"/>
<path d="M232.356 166.172H230.733V167.795H232.356V166.172Z" fill="#F0F0F0"/>
<path d="M232.356 168.898H230.733V170.521H232.356V168.898Z" fill="#F0F0F0"/>
<path d="M232.356 171.625H230.733V173.248H232.356V171.625Z" fill="#F0F0F0"/>
<path d="M232.356 174.348H230.733V175.976H232.356V174.348Z" fill="#F0F0F0"/>
<path d="M232.356 177.074H230.733V178.703H232.356V177.074Z" fill="#F0F0F0"/>
<path d="M232.356 179.801H230.733V181.429H232.356V179.801Z" fill="#F0F0F0"/>
<path d="M232.356 182.523H230.733V184.146H232.356V182.523Z" fill="#F0F0F0"/>
<path d="M232.356 185.25H230.733V186.873H232.356V185.25Z" fill="#F0F0F0"/>
<path d="M232.356 187.973H230.733V189.595H232.356V187.973Z" fill="#F0F0F0"/>
<path d="M232.356 190.699H230.733V192.322H232.356V190.699Z" fill="#F0F0F0"/>
<path d="M232.356 193.422H230.733V195.045H232.356V193.422Z" fill="#F0F0F0"/>
<path d="M232.356 196.148H230.733V197.771H232.356V196.148Z" fill="#F0F0F0"/>
<path d="M232.356 198.875H230.733V200.498H232.356V198.875Z" fill="#F0F0F0"/>
<path d="M229.773 152.551H228.15V154.179H229.773V152.551Z" fill="#F0F0F0"/>
<path d="M229.773 155.273H228.15V156.902H229.773V155.273Z" fill="#F0F0F0"/>
<path d="M229.773 157.996H228.15V159.619H229.773V157.996Z" fill="#F0F0F0"/>
<path d="M229.773 160.727H228.15V162.355H229.773V160.727Z" fill="#F0F0F0"/>
<path d="M229.773 163.449H228.15V165.072H229.773V163.449Z" fill="#F0F0F0"/>
<path d="M229.773 166.172H228.15V167.795H229.773V166.172Z" fill="#F0F0F0"/>
<path d="M229.773 168.898H228.15V170.521H229.773V168.898Z" fill="#F0F0F0"/>
<path d="M229.773 171.625H228.15V173.248H229.773V171.625Z" fill="#F0F0F0"/>
<path d="M229.773 174.348H228.15V175.976H229.773V174.348Z" fill="#F0F0F0"/>
<path d="M229.773 177.074H228.15V178.703H229.773V177.074Z" fill="#F0F0F0"/>
<path d="M229.773 179.801H228.15V181.429H229.773V179.801Z" fill="#F0F0F0"/>
<path d="M229.773 182.523H228.15V184.146H229.773V182.523Z" fill="#F0F0F0"/>
<path d="M229.773 185.25H228.15V186.873H229.773V185.25Z" fill="#F0F0F0"/>
<path d="M229.773 187.973H228.15V189.595H229.773V187.973Z" fill="#F0F0F0"/>
<path d="M229.773 190.699H228.15V192.322H229.773V190.699Z" fill="#F0F0F0"/>
<path d="M229.773 193.422H228.15V195.045H229.773V193.422Z" fill="#F0F0F0"/>
<path d="M229.773 196.148H228.15V197.771H229.773V196.148Z" fill="#F0F0F0"/>
<path d="M229.773 198.875H228.15V200.498H229.773V198.875Z" fill="#F0F0F0"/>
<path d="M244.591 172.438H242.968V174.066H244.591V172.438Z" fill="#F0F0F0"/>
<path d="M244.591 175.16H242.968V176.783H244.591V175.16Z" fill="#F0F0F0"/>
<path d="M244.591 177.883H242.968V179.506H244.591V177.883Z" fill="#F0F0F0"/>
<path d="M244.591 180.613H242.968V182.236H244.591V180.613Z" fill="#F0F0F0"/>
<path d="M244.591 183.336H242.968V184.959H244.591V183.336Z" fill="#F0F0F0"/>
<path d="M244.591 186.059H242.968V187.681H244.591V186.059Z" fill="#F0F0F0"/>
<path d="M244.591 188.789H242.968V190.412H244.591V188.789Z" fill="#F0F0F0"/>
<path d="M244.591 191.512H242.968V193.134H244.591V191.512Z" fill="#F0F0F0"/>
<path d="M244.591 194.234H242.968V195.857H244.591V194.234Z" fill="#F0F0F0"/>
<path d="M244.591 196.957H242.968V198.58H244.591V196.957Z" fill="#F0F0F0"/>
<path d="M244.591 199.688H242.968V201.31H244.591V199.688Z" fill="#F0F0F0"/>
<path d="M244.591 202.41H242.968V204.033H244.591V202.41Z" fill="#F0F0F0"/>
<path d="M244.591 205.133H242.968V206.756H244.591V205.133Z" fill="#F0F0F0"/>
<path d="M242.013 172.438H240.391V174.066H242.013V172.438Z" fill="#F0F0F0"/>
<path d="M242.013 175.16H240.391V176.783H242.013V175.16Z" fill="#F0F0F0"/>
<path d="M242.013 177.883H240.391V179.506H242.013V177.883Z" fill="#F0F0F0"/>
<path d="M242.013 180.613H240.391V182.236H242.013V180.613Z" fill="#F0F0F0"/>
<path d="M242.013 183.336H240.391V184.959H242.013V183.336Z" fill="#F0F0F0"/>
<path d="M242.013 186.059H240.391V187.681H242.013V186.059Z" fill="#F0F0F0"/>
<path d="M242.013 188.789H240.391V190.412H242.013V188.789Z" fill="#F0F0F0"/>
<path d="M242.013 191.512H240.391V193.134H242.013V191.512Z" fill="#F0F0F0"/>
<path d="M242.013 194.234H240.391V195.857H242.013V194.234Z" fill="#F0F0F0"/>
<path d="M242.013 196.957H240.391V198.58H242.013V196.957Z" fill="#F0F0F0"/>
<path d="M242.013 199.688H240.391V201.31H242.013V199.688Z" fill="#F0F0F0"/>
<path d="M242.013 202.41H240.391V204.033H242.013V202.41Z" fill="#F0F0F0"/>
<path d="M242.013 205.133H240.391V206.756H242.013V205.133Z" fill="#F0F0F0"/>
<path d="M239.431 172.438H237.808V174.066H239.431V172.438Z" fill="#F0F0F0"/>
<path d="M239.431 175.16H237.808V176.783H239.431V175.16Z" fill="#F0F0F0"/>
<path d="M239.431 177.883H237.808V179.506H239.431V177.883Z" fill="#F0F0F0"/>
<path d="M239.431 180.613H237.808V182.236H239.431V180.613Z" fill="#F0F0F0"/>
<path d="M239.431 183.336H237.808V184.959H239.431V183.336Z" fill="#F0F0F0"/>
<path d="M239.431 186.059H237.808V187.681H239.431V186.059Z" fill="#F0F0F0"/>
<path d="M239.431 188.789H237.808V190.412H239.431V188.789Z" fill="#F0F0F0"/>
<path d="M239.431 191.512H237.808V193.134H239.431V191.512Z" fill="#F0F0F0"/>
<path d="M239.431 194.234H237.808V195.857H239.431V194.234Z" fill="#F0F0F0"/>
<path d="M239.431 196.957H237.808V198.58H239.431V196.957Z" fill="#F0F0F0"/>
<path d="M239.431 199.688H237.808V201.31H239.431V199.688Z" fill="#F0F0F0"/>
<path d="M239.431 202.41H237.808V204.033H239.431V202.41Z" fill="#F0F0F0"/>
<path d="M239.431 205.133H237.808V206.756H239.431V205.133Z" fill="#F0F0F0"/>
<path d="M239.431 207.863H237.808V209.486H239.431V207.863Z" fill="#F0F0F0"/>
<path d="M225.09 173.246H223.467V174.869H225.09V173.246Z" fill="#F0F0F0"/>
<path d="M225.09 175.977H223.467V177.599H225.09V175.977Z" fill="#F0F0F0"/>
<path d="M225.09 178.699H223.467V180.322H225.09V178.699Z" fill="#F0F0F0"/>
<path d="M225.09 181.422H223.467V183.045H225.09V181.422Z" fill="#F0F0F0"/>
<path d="M225.09 184.152H223.467V185.775H225.09V184.152Z" fill="#F0F0F0"/>
<path d="M225.09 186.875H223.467V188.498H225.09V186.875Z" fill="#F0F0F0"/>
<path d="M225.09 189.598H223.467V191.22H225.09V189.598Z" fill="#F0F0F0"/>
<path d="M225.09 192.324H223.467V193.953H225.09V192.324Z" fill="#F0F0F0"/>
<path d="M225.09 195.051H223.467V196.674H225.09V195.051Z" fill="#F0F0F0"/>
<path d="M225.09 197.773H223.467V199.396H225.09V197.773Z" fill="#F0F0F0"/>
<path d="M225.09 205.949H223.467V207.572H225.09V205.949Z" fill="#F0F0F0"/>
<path d="M222.513 173.246H220.884V174.869H222.513V173.246Z" fill="#F0F0F0"/>
<path d="M222.513 175.977H220.884V177.599H222.513V175.977Z" fill="#F0F0F0"/>
<path d="M222.513 178.699H220.884V180.322H222.513V178.699Z" fill="#F0F0F0"/>
<path d="M222.513 181.422H220.884V183.045H222.513V181.422Z" fill="#F0F0F0"/>
<path d="M222.513 184.152H220.884V185.775H222.513V184.152Z" fill="#F0F0F0"/>
<path d="M222.513 186.875H220.884V188.498H222.513V186.875Z" fill="#F0F0F0"/>
<path d="M222.513 189.598H220.884V191.22H222.513V189.598Z" fill="#F0F0F0"/>
<path d="M222.513 192.324H220.884V193.953H222.513V192.324Z" fill="#F0F0F0"/>
<path d="M222.513 195.051H220.884V196.674H222.513V195.051Z" fill="#F0F0F0"/>
<path d="M222.513 203.227H220.884V204.855H222.513V203.227Z" fill="#F0F0F0"/>
<path d="M222.513 205.949H220.884V207.572H222.513V205.949Z" fill="#F0F0F0"/>
<path d="M219.93 173.246H218.301V174.869H219.93V173.246Z" fill="#F0F0F0"/>
<path d="M219.93 175.977H218.301V177.599H219.93V175.977Z" fill="#F0F0F0"/>
<path d="M219.93 178.699H218.301V180.322H219.93V178.699Z" fill="#F0F0F0"/>
<path d="M219.93 181.422H218.301V183.045H219.93V181.422Z" fill="#F0F0F0"/>
<path d="M219.93 184.152H218.301V185.775H219.93V184.152Z" fill="#F0F0F0"/>
<path d="M219.93 186.875H218.301V188.498H219.93V186.875Z" fill="#F0F0F0"/>
<path d="M219.93 189.598H218.301V191.22H219.93V189.598Z" fill="#F0F0F0"/>
<path d="M219.93 192.324H218.301V193.953H219.93V192.324Z" fill="#F0F0F0"/>
<path d="M219.93 200.5H218.301V202.123H219.93V200.5Z" fill="#F0F0F0"/>
<path d="M219.93 203.227H218.301V204.855H219.93V203.227Z" fill="#F0F0F0"/>
<path d="M219.93 205.949H218.301V207.572H219.93V205.949Z" fill="#F0F0F0"/>
<path d="M195.925 131.848H194.303V133.47H195.925V131.848Z" fill="#F0F0F0"/>
<path d="M195.925 134.574H194.303V136.197H195.925V134.574Z" fill="#F0F0F0"/>
<path d="M195.925 137.301H194.303V138.924H195.925V137.301Z" fill="#F0F0F0"/>
<path d="M195.925 140.023H194.303V141.646H195.925V140.023Z" fill="#F0F0F0"/>
<path d="M195.925 142.746H194.303V144.369H195.925V142.746Z" fill="#F0F0F0"/>
<path d="M195.925 145.473H194.303V147.095H195.925V145.473Z" fill="#F0F0F0"/>
<path d="M195.925 148.199H194.303V149.822H195.925V148.199Z" fill="#F0F0F0"/>
<path d="M195.925 150.922H194.303V152.545H195.925V150.922Z" fill="#F0F0F0"/>
<path d="M195.925 153.648H194.303V155.271H195.925V153.648Z" fill="#F0F0F0"/>
<path d="M195.925 156.375H194.303V157.998H195.925V156.375Z" fill="#F0F0F0"/>
<path d="M195.925 159.098H194.303V160.72H195.925V159.098Z" fill="#F0F0F0"/>
<path d="M195.925 161.824H194.303V163.447H195.925V161.824Z" fill="#F0F0F0"/>
<path d="M195.925 164.547H194.303V166.17H195.925V164.547Z" fill="#F0F0F0"/>
<path d="M195.925 167.273H194.303V168.896H195.925V167.273Z" fill="#F0F0F0"/>
<path d="M195.925 169.996H194.303V171.624H195.925V169.996Z" fill="#F0F0F0"/>
<path d="M195.925 172.723H194.303V174.345H195.925V172.723Z" fill="#F0F0F0"/>
<path d="M195.925 175.449H194.303V177.072H195.925V175.449Z" fill="#F0F0F0"/>
<path d="M195.925 180.898H194.303V182.521H195.925V180.898Z" fill="#F0F0F0"/>
<path d="M195.925 183.621H194.303V185.244H195.925V183.621Z" fill="#F0F0F0"/>
<path d="M195.925 186.348H194.303V187.97H195.925V186.348Z" fill="#F0F0F0"/>
<path d="M195.925 189.074H194.303V190.697H195.925V189.074Z" fill="#F0F0F0"/>
<path d="M195.925 191.797H194.303V193.42H195.925V191.797Z" fill="#F0F0F0"/>
<path d="M193.343 131.848H191.72V133.47H193.343V131.848Z" fill="#F0F0F0"/>
<path d="M193.343 134.574H191.72V136.197H193.343V134.574Z" fill="#F0F0F0"/>
<path d="M193.343 137.301H191.72V138.924H193.343V137.301Z" fill="#F0F0F0"/>
<path d="M193.343 140.023H191.72V141.646H193.343V140.023Z" fill="#F0F0F0"/>
<path d="M193.343 142.746H191.72V144.369H193.343V142.746Z" fill="#F0F0F0"/>
<path d="M193.343 145.473H191.72V147.095H193.343V145.473Z" fill="#F0F0F0"/>
<path d="M193.343 148.199H191.72V149.822H193.343V148.199Z" fill="#F0F0F0"/>
<path d="M193.343 150.922H191.72V152.545H193.343V150.922Z" fill="#F0F0F0"/>
<path d="M193.343 153.648H191.72V155.271H193.343V153.648Z" fill="#F0F0F0"/>
<path d="M193.343 156.375H191.72V157.998H193.343V156.375Z" fill="#F0F0F0"/>
<path d="M193.343 159.098H191.72V160.72H193.343V159.098Z" fill="#F0F0F0"/>
<path d="M193.343 161.824H191.72V163.447H193.343V161.824Z" fill="#F0F0F0"/>
<path d="M193.343 164.547H191.72V166.17H193.343V164.547Z" fill="#F0F0F0"/>
<path d="M193.343 167.273H191.72V168.896H193.343V167.273Z" fill="#F0F0F0"/>
<path d="M193.343 169.996H191.72V171.624H193.343V169.996Z" fill="#F0F0F0"/>
<path d="M193.343 172.723H191.72V174.345H193.343V172.723Z" fill="#F0F0F0"/>
<path d="M193.343 189.074H191.72V190.697H193.343V189.074Z" fill="#F0F0F0"/>
<path d="M193.343 191.797H191.72V193.42H193.343V191.797Z" fill="#F0F0F0"/>
<path d="M190.765 131.848H189.143V133.47H190.765V131.848Z" fill="#F0F0F0"/>
<path d="M190.765 134.574H189.143V136.197H190.765V134.574Z" fill="#F0F0F0"/>
<path d="M190.765 137.301H189.143V138.924H190.765V137.301Z" fill="#F0F0F0"/>
<path d="M190.765 140.023H189.143V141.646H190.765V140.023Z" fill="#F0F0F0"/>
<path d="M190.765 142.746H189.143V144.369H190.765V142.746Z" fill="#F0F0F0"/>
<path d="M190.765 145.473H189.143V147.095H190.765V145.473Z" fill="#F0F0F0"/>
<path d="M190.765 148.199H189.143V149.822H190.765V148.199Z" fill="#F0F0F0"/>
<path d="M190.765 150.922H189.143V152.545H190.765V150.922Z" fill="#F0F0F0"/>
<path d="M190.765 153.648H189.143V155.271H190.765V153.648Z" fill="#F0F0F0"/>
<path d="M190.765 156.375H189.143V157.998H190.765V156.375Z" fill="#F0F0F0"/>
<path d="M190.765 159.098H189.143V160.72H190.765V159.098Z" fill="#F0F0F0"/>
<path d="M190.765 161.824H189.143V163.447H190.765V161.824Z" fill="#F0F0F0"/>
<path d="M190.765 164.547H189.143V166.17H190.765V164.547Z" fill="#F0F0F0"/>
<path d="M190.765 167.273H189.143V168.896H190.765V167.273Z" fill="#F0F0F0"/>
<path d="M190.765 169.996H189.143V171.624H190.765V169.996Z" fill="#F0F0F0"/>
<path d="M190.765 172.723H189.143V174.345H190.765V172.723Z" fill="#F0F0F0"/>
<path d="M190.765 178.172H189.143V179.795H190.765V178.172Z" fill="#F0F0F0"/>
<path d="M190.765 180.898H189.143V182.521H190.765V180.898Z" fill="#F0F0F0"/>
<path d="M190.765 183.621H189.143V185.244H190.765V183.621Z" fill="#F0F0F0"/>
<path d="M190.765 186.348H189.143V187.97H190.765V186.348Z" fill="#F0F0F0"/>
<path d="M190.765 191.797H189.143V193.42H190.765V191.797Z" fill="#F0F0F0"/>
<path d="M205.303 166.172H203.674V167.795H205.303V166.172Z" fill="#F0F0F0"/>
<path d="M205.303 168.898H203.674V170.521H205.303V168.898Z" fill="#F0F0F0"/>
<path d="M205.303 171.625H203.674V173.248H205.303V171.625Z" fill="#F0F0F0"/>
<path d="M205.303 174.348H203.674V175.976H205.303V174.348Z" fill="#F0F0F0"/>
<path d="M205.303 177.074H203.674V178.703H205.303V177.074Z" fill="#F0F0F0"/>
<path d="M205.303 179.801H203.674V181.429H205.303V179.801Z" fill="#F0F0F0"/>
<path d="M205.303 182.523H203.674V184.146H205.303V182.523Z" fill="#F0F0F0"/>
<path d="M205.303 187.973H203.674V189.595H205.303V187.973Z" fill="#F0F0F0"/>
<path d="M205.303 190.699H203.674V192.322H205.303V190.699Z" fill="#F0F0F0"/>
<path d="M205.303 193.422H203.674V195.045H205.303V193.422Z" fill="#F0F0F0"/>
<path d="M205.303 196.148H203.674V197.771H205.303V196.148Z" fill="#F0F0F0"/>
<path d="M205.303 198.875H203.674V200.498H205.303V198.875Z" fill="#F0F0F0"/>
<path d="M205.303 201.598H203.674V203.22H205.303V201.598Z" fill="#F0F0F0"/>
<path d="M205.303 204.324H203.674V205.947H205.303V204.324Z" fill="#F0F0F0"/>
<path d="M205.303 207.047H203.674V208.67H205.303V207.047Z" fill="#F0F0F0"/>
<path d="M202.714 166.172H201.091V167.795H202.714V166.172Z" fill="#F0F0F0"/>
<path d="M202.714 168.898H201.091V170.521H202.714V168.898Z" fill="#F0F0F0"/>
<path d="M202.714 171.625H201.091V173.248H202.714V171.625Z" fill="#F0F0F0"/>
<path d="M202.714 174.348H201.091V175.976H202.714V174.348Z" fill="#F0F0F0"/>
<path d="M202.714 177.074H201.091V178.703H202.714V177.074Z" fill="#F0F0F0"/>
<path d="M202.714 179.801H201.091V181.429H202.714V179.801Z" fill="#F0F0F0"/>
<path d="M202.714 187.973H201.091V189.595H202.714V187.973Z" fill="#F0F0F0"/>
<path d="M202.714 190.699H201.091V192.322H202.714V190.699Z" fill="#F0F0F0"/>
<path d="M202.714 193.422H201.091V195.045H202.714V193.422Z" fill="#F0F0F0"/>
<path d="M202.714 196.148H201.091V197.771H202.714V196.148Z" fill="#F0F0F0"/>
<path d="M202.714 198.875H201.091V200.498H202.714V198.875Z" fill="#F0F0F0"/>
<path d="M202.714 201.598H201.091V203.22H202.714V201.598Z" fill="#F0F0F0"/>
<path d="M202.714 204.324H201.091V205.947H202.714V204.324Z" fill="#F0F0F0"/>
<path d="M202.714 207.047H201.091V208.67H202.714V207.047Z" fill="#F0F0F0"/>
<path d="M200.137 166.172H198.509V167.795H200.137V166.172Z" fill="#F0F0F0"/>
<path d="M200.137 168.898H198.509V170.521H200.137V168.898Z" fill="#F0F0F0"/>
<path d="M200.137 171.625H198.509V173.248H200.137V171.625Z" fill="#F0F0F0"/>
<path d="M200.137 174.348H198.509V175.976H200.137V174.348Z" fill="#F0F0F0"/>
<path d="M200.137 177.074H198.509V178.703H200.137V177.074Z" fill="#F0F0F0"/>
<path d="M200.137 179.801H198.509V181.429H200.137V179.801Z" fill="#F0F0F0"/>
<path d="M200.137 185.25H198.509V186.873H200.137V185.25Z" fill="#F0F0F0"/>
<path d="M200.137 187.973H198.509V189.595H200.137V187.973Z" fill="#F0F0F0"/>
<path d="M200.137 190.699H198.509V192.322H200.137V190.699Z" fill="#F0F0F0"/>
<path d="M200.137 193.422H198.509V195.045H200.137V193.422Z" fill="#F0F0F0"/>
<path d="M200.137 196.148H198.509V197.771H200.137V196.148Z" fill="#F0F0F0"/>
<path d="M200.137 198.875H198.509V200.498H200.137V198.875Z" fill="#F0F0F0"/>
<path d="M200.137 201.598H198.509V203.22H200.137V201.598Z" fill="#F0F0F0"/>
<path d="M200.137 204.324H198.509V205.947H200.137V204.324Z" fill="#F0F0F0"/>
<path d="M200.137 207.047H198.509V208.67H200.137V207.047Z" fill="#F0F0F0"/>
<path d="M145.728 150.922H144.105V152.545H145.728V150.922Z" fill="#F0F0F0"/>
<path d="M145.728 153.648H144.105V155.271H145.728V153.648Z" fill="#F0F0F0"/>
<path d="M145.728 156.375H144.105V157.998H145.728V156.375Z" fill="#F0F0F0"/>
<path d="M145.728 159.098H144.105V160.72H145.728V159.098Z" fill="#F0F0F0"/>
<path d="M145.728 161.824H144.105V163.447H145.728V161.824Z" fill="#F0F0F0"/>
<path d="M145.728 164.547H144.105V166.17H145.728V164.547Z" fill="#F0F0F0"/>
<path d="M145.728 167.273H144.105V168.896H145.728V167.273Z" fill="#F0F0F0"/>
<path d="M145.728 169.996H144.105V171.624H145.728V169.996Z" fill="#F0F0F0"/>
<path d="M145.728 172.723H144.105V174.345H145.728V172.723Z" fill="#F0F0F0"/>
<path d="M145.728 175.449H144.105V177.072H145.728V175.449Z" fill="#F0F0F0"/>
<path d="M145.728 178.172H144.105V179.795H145.728V178.172Z" fill="#F0F0F0"/>
<path d="M145.728 180.898H144.105V182.521H145.728V180.898Z" fill="#F0F0F0"/>
<path d="M145.728 183.621H144.105V185.244H145.728V183.621Z" fill="#F0F0F0"/>
<path d="M145.728 189.074H144.105V190.697H145.728V189.074Z" fill="#F0F0F0"/>
<path d="M145.728 191.797H144.105V193.42H145.728V191.797Z" fill="#F0F0F0"/>
<path d="M145.728 194.523H144.105V196.146H145.728V194.523Z" fill="#F0F0F0"/>
<path d="M145.728 197.25H144.105V198.873H145.728V197.25Z" fill="#F0F0F0"/>
<path d="M145.728 202.695H144.105V204.324H145.728V202.695Z" fill="#F0F0F0"/>
<path d="M145.728 205.426H144.105V207.049H145.728V205.426Z" fill="#F0F0F0"/>
<path d="M145.728 208.148H144.105V209.771H145.728V208.148Z" fill="#F0F0F0"/>
<path d="M143.145 150.922H141.522V152.545H143.145V150.922Z" fill="#F0F0F0"/>
<path d="M143.145 153.648H141.522V155.271H143.145V153.648Z" fill="#F0F0F0"/>
<path d="M143.145 156.375H141.522V157.998H143.145V156.375Z" fill="#F0F0F0"/>
<path d="M143.145 159.098H141.522V160.72H143.145V159.098Z" fill="#F0F0F0"/>
<path d="M143.145 161.824H141.522V163.447H143.145V161.824Z" fill="#F0F0F0"/>
<path d="M143.145 164.547H141.522V166.17H143.145V164.547Z" fill="#F0F0F0"/>
<path d="M143.145 167.273H141.522V168.896H143.145V167.273Z" fill="#F0F0F0"/>
<path d="M143.145 169.996H141.522V171.624H143.145V169.996Z" fill="#F0F0F0"/>
<path d="M143.145 172.723H141.522V174.345H143.145V172.723Z" fill="#F0F0F0"/>
<path d="M143.145 175.449H141.522V177.072H143.145V175.449Z" fill="#F0F0F0"/>
<path d="M143.145 178.172H141.522V179.795H143.145V178.172Z" fill="#F0F0F0"/>
<path d="M143.145 180.898H141.522V182.521H143.145V180.898Z" fill="#F0F0F0"/>
<path d="M143.145 183.621H141.522V185.244H143.145V183.621Z" fill="#F0F0F0"/>
<path d="M143.145 191.797H141.522V193.42H143.145V191.797Z" fill="#F0F0F0"/>
<path d="M143.145 194.523H141.522V196.146H143.145V194.523Z" fill="#F0F0F0"/>
<path d="M143.145 199.973H141.522V201.595H143.145V199.973Z" fill="#F0F0F0"/>
<path d="M143.145 202.695H141.522V204.324H143.145V202.695Z" fill="#F0F0F0"/>
<path d="M143.145 205.426H141.522V207.049H143.145V205.426Z" fill="#F0F0F0"/>
<path d="M143.145 208.148H141.522V209.771H143.145V208.148Z" fill="#F0F0F0"/>
<path d="M140.568 150.922H138.945V152.545H140.568V150.922Z" fill="#F0F0F0"/>
<path d="M140.568 153.648H138.945V155.271H140.568V153.648Z" fill="#F0F0F0"/>
<path d="M140.568 156.375H138.945V157.998H140.568V156.375Z" fill="#F0F0F0"/>
<path d="M140.568 159.098H138.945V160.72H140.568V159.098Z" fill="#F0F0F0"/>
<path d="M140.568 161.824H138.945V163.447H140.568V161.824Z" fill="#F0F0F0"/>
<path d="M140.568 164.547H138.945V166.17H140.568V164.547Z" fill="#F0F0F0"/>
<path d="M140.568 167.273H138.945V168.896H140.568V167.273Z" fill="#F0F0F0"/>
<path d="M140.568 169.996H138.945V171.624H140.568V169.996Z" fill="#F0F0F0"/>
<path d="M140.568 172.723H138.945V174.345H140.568V172.723Z" fill="#F0F0F0"/>
<path d="M140.568 175.449H138.945V177.072H140.568V175.449Z" fill="#F0F0F0"/>
<path d="M140.568 178.172H138.945V179.795H140.568V178.172Z" fill="#F0F0F0"/>
<path d="M140.568 180.898H138.945V182.521H140.568V180.898Z" fill="#F0F0F0"/>
<path d="M140.568 183.621H138.945V185.244H140.568V183.621Z" fill="#F0F0F0"/>
<path d="M140.568 186.348H138.945V187.97H140.568V186.348Z" fill="#F0F0F0"/>
<path d="M140.568 191.797H138.945V193.42H140.568V191.797Z" fill="#F0F0F0"/>
<path d="M140.568 197.25H138.945V198.873H140.568V197.25Z" fill="#F0F0F0"/>
<path d="M140.568 199.973H138.945V201.595H140.568V199.973Z" fill="#F0F0F0"/>
<path d="M140.568 202.695H138.945V204.324H140.568V202.695Z" fill="#F0F0F0"/>
<path d="M140.568 205.426H138.945V207.049H140.568V205.426Z" fill="#F0F0F0"/>
<path d="M140.568 208.148H138.945V209.771H140.568V208.148Z" fill="#F0F0F0"/>
<path d="M156.25 166.457H154.622V168.08H156.25V166.457Z" fill="#F0F0F0"/>
<path d="M156.25 169.188H154.622V170.81H156.25V169.188Z" fill="#F0F0F0"/>
<path d="M156.25 171.91H154.622V173.533H156.25V171.91Z" fill="#F0F0F0"/>
<path d="M156.25 174.633H154.622V176.256H156.25V174.633Z" fill="#F0F0F0"/>
<path d="M156.25 177.363H154.622V178.986H156.25V177.363Z" fill="#F0F0F0"/>
<path d="M156.25 180.086H154.622V181.709H156.25V180.086Z" fill="#F0F0F0"/>
<path d="M156.25 188.262H154.622V189.884H156.25V188.262Z" fill="#F0F0F0"/>
<path d="M156.25 190.984H154.622V192.607H156.25V190.984Z" fill="#F0F0F0"/>
<path d="M156.25 193.715H154.622V195.338H156.25V193.715Z" fill="#F0F0F0"/>
<path d="M156.25 196.438H154.622V198.066H156.25V196.438Z" fill="#F0F0F0"/>
<path d="M156.25 199.16H154.622V200.783H156.25V199.16Z" fill="#F0F0F0"/>
<path d="M156.25 201.883H154.622V203.506H156.25V201.883Z" fill="#F0F0F0"/>
<path d="M156.25 204.613H154.622V206.236H156.25V204.613Z" fill="#F0F0F0"/>
<path d="M153.667 166.457H152.044V168.08H153.667V166.457Z" fill="#F0F0F0"/>
<path d="M153.667 169.188H152.044V170.81H153.667V169.188Z" fill="#F0F0F0"/>
<path d="M153.667 171.91H152.044V173.533H153.667V171.91Z" fill="#F0F0F0"/>
<path d="M153.667 174.633H152.044V176.256H153.667V174.633Z" fill="#F0F0F0"/>
<path d="M153.667 177.363H152.044V178.986H153.667V177.363Z" fill="#F0F0F0"/>
<path d="M153.667 180.086H152.044V181.709H153.667V180.086Z" fill="#F0F0F0"/>
<path d="M153.667 188.262H152.044V189.884H153.667V188.262Z" fill="#F0F0F0"/>
<path d="M153.667 190.984H152.044V192.607H153.667V190.984Z" fill="#F0F0F0"/>
<path d="M153.667 193.715H152.044V195.338H153.667V193.715Z" fill="#F0F0F0"/>
<path d="M153.667 196.438H152.044V198.066H153.667V196.438Z" fill="#F0F0F0"/>
<path d="M153.667 199.16H152.044V200.783H153.667V199.16Z" fill="#F0F0F0"/>
<path d="M153.667 201.883H152.044V203.506H153.667V201.883Z" fill="#F0F0F0"/>
<path d="M153.667 207.336H152.044V208.959H153.667V207.336Z" fill="#F0F0F0"/>
<path d="M67.8981 154.457H66.2754V156.08H67.8981V154.457Z" fill="#F0F0F0"/>
<path d="M67.8981 157.188H66.2754V158.81H67.8981V157.188Z" fill="#F0F0F0"/>
<path d="M67.8981 159.91H66.2754V161.533H67.8981V159.91Z" fill="#F0F0F0"/>
<path d="M67.8981 162.633H66.2754V164.256H67.8981V162.633Z" fill="#F0F0F0"/>
<path d="M67.8981 165.363H66.2754V166.986H67.8981V165.363Z" fill="#F0F0F0"/>
<path d="M67.8981 168.086H66.2754V169.709H67.8981V168.086Z" fill="#F0F0F0"/>
<path d="M67.8981 170.809H66.2754V172.431H67.8981V170.809Z" fill="#F0F0F0"/>
<path d="M67.8981 173.539H66.2754V175.162H67.8981V173.539Z" fill="#F0F0F0"/>
<path d="M67.8981 176.262H66.2754V177.884H67.8981V176.262Z" fill="#F0F0F0"/>
<path d="M67.8981 178.984H66.2754V180.607H67.8981V178.984Z" fill="#F0F0F0"/>
<path d="M67.8981 181.707H66.2754V183.33H67.8981V181.707Z" fill="#F0F0F0"/>
<path d="M67.8981 187.16H66.2754V188.783H67.8981V187.16Z" fill="#F0F0F0"/>
<path d="M67.8981 189.883H66.2754V191.506H67.8981V189.883Z" fill="#F0F0F0"/>
<path d="M67.8981 192.613H66.2754V194.242H67.8981V192.613Z" fill="#F0F0F0"/>
<path d="M67.8981 195.336H66.2754V196.959H67.8981V195.336Z" fill="#F0F0F0"/>
<path d="M67.8981 198.059H66.2754V199.681H67.8981V198.059Z" fill="#F0F0F0"/>
<path d="M67.8981 200.789H66.2754V202.412H67.8981V200.789Z" fill="#F0F0F0"/>
<path d="M67.8981 203.512H66.2754V205.134H67.8981V203.512Z" fill="#F0F0F0"/>
<path d="M67.8981 206.234H66.2754V207.857H67.8981V206.234Z" fill="#F0F0F0"/>
<path d="M65.3207 154.457H63.6924V156.08H65.3207V154.457Z" fill="#F0F0F0"/>
<path d="M65.3207 157.188H63.6924V158.81H65.3207V157.188Z" fill="#F0F0F0"/>
<path d="M65.3207 159.91H63.6924V161.533H65.3207V159.91Z" fill="#F0F0F0"/>
<path d="M65.3207 162.633H63.6924V164.256H65.3207V162.633Z" fill="#F0F0F0"/>
<path d="M65.3207 165.363H63.6924V166.986H65.3207V165.363Z" fill="#F0F0F0"/>
<path d="M65.3207 168.086H63.6924V169.709H65.3207V168.086Z" fill="#F0F0F0"/>
<path d="M65.3207 170.809H63.6924V172.431H65.3207V170.809Z" fill="#F0F0F0"/>
<path d="M65.3207 173.539H63.6924V175.162H65.3207V173.539Z" fill="#F0F0F0"/>
<path d="M65.3207 176.262H63.6924V177.884H65.3207V176.262Z" fill="#F0F0F0"/>
<path d="M65.3207 178.984H63.6924V180.607H65.3207V178.984Z" fill="#F0F0F0"/>
<path d="M65.3207 181.707H63.6924V183.33H65.3207V181.707Z" fill="#F0F0F0"/>
<path d="M65.3207 184.438H63.6924V186.06H65.3207V184.438Z" fill="#F0F0F0"/>
<path d="M65.3207 187.16H63.6924V188.783H65.3207V187.16Z" fill="#F0F0F0"/>
<path d="M65.3207 189.883H63.6924V191.506H65.3207V189.883Z" fill="#F0F0F0"/>
<path d="M65.3207 192.613H63.6924V194.242H65.3207V192.613Z" fill="#F0F0F0"/>
<path d="M65.3207 195.336H63.6924V196.959H65.3207V195.336Z" fill="#F0F0F0"/>
<path d="M65.3207 198.059H63.6924V199.681H65.3207V198.059Z" fill="#F0F0F0"/>
<path d="M65.3207 200.789H63.6924V202.412H65.3207V200.789Z" fill="#F0F0F0"/>
<path d="M65.3207 203.512H63.6924V205.134H65.3207V203.512Z" fill="#F0F0F0"/>
<path d="M65.3207 206.234H63.6924V207.857H65.3207V206.234Z" fill="#F0F0F0"/>
<path d="M80.6159 165.078H78.9932V166.701H80.6159V165.078Z" fill="#F0F0F0"/>
<path d="M80.6159 167.801H78.9932V169.424H80.6159V167.801Z" fill="#F0F0F0"/>
<path d="M80.6159 170.523H78.9932V172.146H80.6159V170.523Z" fill="#F0F0F0"/>
<path d="M80.6159 173.246H78.9932V174.869H80.6159V173.246Z" fill="#F0F0F0"/>
<path d="M80.6159 175.977H78.9932V177.599H80.6159V175.977Z" fill="#F0F0F0"/>
<path d="M80.6159 178.699H78.9932V180.322H80.6159V178.699Z" fill="#F0F0F0"/>
<path d="M80.6159 181.422H78.9932V183.045H80.6159V181.422Z" fill="#F0F0F0"/>
<path d="M80.6159 184.152H78.9932V185.775H80.6159V184.152Z" fill="#F0F0F0"/>
<path d="M80.6159 186.875H78.9932V188.498H80.6159V186.875Z" fill="#F0F0F0"/>
<path d="M80.6159 189.598H78.9932V191.22H80.6159V189.598Z" fill="#F0F0F0"/>
<path d="M78.0329 165.078H76.4102V166.701H78.0329V165.078Z" fill="#F0F0F0"/>
<path d="M78.0329 167.801H76.4102V169.424H78.0329V167.801Z" fill="#F0F0F0"/>
<path d="M78.0329 170.523H76.4102V172.146H78.0329V170.523Z" fill="#F0F0F0"/>
<path d="M78.0329 173.246H76.4102V174.869H78.0329V173.246Z" fill="#F0F0F0"/>
<path d="M78.0329 175.977H76.4102V177.599H78.0329V175.977Z" fill="#F0F0F0"/>
<path d="M78.0329 178.699H76.4102V180.322H78.0329V178.699Z" fill="#F0F0F0"/>
<path d="M78.0329 181.422H76.4102V183.045H78.0329V181.422Z" fill="#F0F0F0"/>
<path d="M78.0329 184.152H76.4102V185.775H78.0329V184.152Z" fill="#F0F0F0"/>
<path d="M78.0329 186.875H76.4102V188.498H78.0329V186.875Z" fill="#F0F0F0"/>
<path d="M105.126 85.6409C105.126 84.4153 104.639 83.2399 103.772 82.3733C102.906 81.5067 101.73 81.0198 100.505 81.0198C100.054 81.0194 99.606 81.0837 99.1738 81.2107C99.3844 79.8175 99.2911 78.3951 98.9003 77.0413C98.5095 75.6875 97.8306 74.4343 96.91 73.3675C95.9894 72.3008 94.8489 71.4458 93.5668 70.8612C92.2847 70.2766 90.8914 69.9762 89.4823 69.9807C88.8777 69.9825 88.2744 70.0389 87.6799 70.1491C86.7136 68.5638 85.2582 67.3355 83.533 66.6493C81.8079 65.9631 79.9064 65.8562 78.1152 66.3447C76.324 66.8332 74.7401 67.8907 73.6022 69.3577C72.4642 70.8247 71.834 72.6219 71.8063 74.4783H71.6659C69.5736 74.4783 67.567 75.3095 66.0875 76.789C64.608 78.2685 63.7769 80.2751 63.7769 82.3674C63.7769 84.4597 64.608 86.4663 66.0875 87.9458C67.567 89.4253 69.5736 90.2565 71.6659 90.2565H100.634C101.835 90.2215 102.976 89.7201 103.815 88.8586C104.653 87.9971 105.123 86.8431 105.126 85.6409Z" fill="#F0F0F0"/>
<path d="M233.877 73.8655C233.877 73.0822 233.566 72.3309 233.012 71.777C232.458 71.2232 231.707 70.912 230.924 70.912C230.636 70.912 230.351 70.9555 230.076 71.0411C230.121 70.74 230.144 70.436 230.143 70.1315C230.145 69.3099 229.984 68.496 229.671 67.7365C229.358 66.977 228.897 66.2867 228.317 65.7052C227.737 65.1237 227.047 64.6623 226.288 64.3476C225.529 64.0328 224.716 63.8708 223.894 63.8708C223.506 63.8693 223.119 63.905 222.737 63.9775C222.117 62.9756 221.189 62.2011 220.092 61.7698C218.996 61.3384 217.789 61.2732 216.652 61.5839C215.515 61.8947 214.509 62.5646 213.785 63.4939C213.06 64.4231 212.655 65.5618 212.63 66.74H212.535C211.27 66.8436 210.091 67.4191 209.231 68.3522C208.371 69.2853 207.894 70.5078 207.894 71.7767C207.894 73.0456 208.371 74.2681 209.231 75.2012C210.091 76.1343 211.27 76.7098 212.535 76.8134H231.031C231.795 76.7871 232.519 76.465 233.05 75.915C233.581 75.365 233.878 74.6301 233.877 73.8655Z" fill="#F0F0F0"/>
<path d="M153.819 67.6167C153.819 67.1372 153.628 66.6773 153.289 66.3382C152.95 65.9992 152.49 65.8087 152.011 65.8087C151.834 65.8083 151.658 65.8349 151.489 65.8873C151.516 65.7014 151.529 65.5137 151.528 65.3258C151.528 64.3102 151.125 63.3361 150.406 62.618C149.688 61.8998 148.714 61.4964 147.699 61.4964C147.463 61.4967 147.228 61.5173 146.997 61.5581C146.611 60.9514 146.042 60.4839 145.371 60.224C144.701 59.9641 143.965 59.9254 143.271 60.1136C142.577 60.3018 141.962 60.707 141.515 61.27C141.068 61.833 140.813 62.5242 140.786 63.2426H140.73C139.911 63.2426 139.126 63.568 138.547 64.1472C137.967 64.7263 137.642 65.5118 137.642 66.3309C137.642 67.1499 137.967 67.9354 138.547 68.5146C139.126 69.0938 139.911 69.4191 140.73 69.4191H152.061C152.531 69.4046 152.976 69.2087 153.304 68.8725C153.632 68.5364 153.816 68.0862 153.819 67.6167Z" fill="#F0F0F0"/>
<path d="M140.5 240.498C200.627 240.498 249.369 237.652 249.369 234.141C249.369 230.631 200.627 227.785 140.5 227.785C80.3733 227.785 31.6309 230.631 31.6309 234.141C31.6309 237.652 80.3733 240.498 140.5 240.498Z" fill="#F5F5F5"/>
<path d="M229.2 117.359L215.735 118.19L219.222 120.156L145.233 158.13L125.401 150.853L65.388 180.831L61.3115 182.87L66.0337 185.531L70.9806 183.06L125.676 155.738L145.525 163.026L223.922 122.795L226.718 124.367L229.2 117.359Z" fill="#053D38"/>
<path d="M226.965 153.988L213.495 154.819L216.645 156.588L126.586 201.396L122.481 203.44L127.221 206.101L132.145 203.653L221.378 159.25L224.478 160.996L226.965 153.988Z" fill="#053D38"/>
<path d="M171.629 101.195L158.165 102.026L161.315 103.795L71.2501 148.603L67.1455 150.647L71.8846 153.308L76.8089 150.86L166.042 106.457L169.148 108.203L171.629 101.195Z" fill="#053D38"/>
<path opacity="0.3" d="M229.2 117.359L215.735 118.19L219.222 120.156L145.233 158.13L125.401 150.853L65.388 180.831L61.3115 182.87L66.0337 185.531L70.9806 183.06L125.676 155.738L145.525 163.026L223.922 122.795L226.718 124.367L229.2 117.359Z" fill="white"/>
<path opacity="0.7" d="M226.965 153.988L213.495 154.819L216.645 156.588L126.586 201.396L122.481 203.44L127.221 206.101L132.145 203.653L221.378 159.25L224.478 160.996L226.965 153.988Z" fill="white"/>
<path opacity="0.5" d="M171.629 101.195L158.165 102.026L161.315 103.795L71.2501 148.603L67.1455 150.647L71.8846 153.308L76.8089 150.86L166.042 106.457L169.148 108.203L171.629 101.195Z" fill="white"/>
<path d="M54.0176 234.518H218.082L212.692 228.622L201.361 225.843L196.919 218.465L188.924 208.684H179.148L168.805 221.379L154.285 223.204L132.886 228.622L119.691 231.391L114.609 229.257L82.8955 231.885L72.8222 230.189L54.0176 234.518Z" fill="#263238"/>
<path opacity="0.7" d="M54.0176 234.518H218.082L212.692 228.622L201.361 225.843L196.919 218.465L188.924 208.684H179.148L168.805 221.379L154.285 223.204L132.886 228.622L119.691 231.391L114.609 229.257L82.8955 231.885L72.8222 230.189L54.0176 234.518Z" fill="white"/>
<path opacity="0.2" d="M72.8222 230.189L70.054 233.002L81.3065 234.142L84.2712 233.002H107.517L113.739 229.577L120.145 231.997L119.022 233.592L149.478 231.997L147.356 227.236L154.285 223.204L162.28 225.821L164.386 229.184L168.53 231.076L168.805 221.379L179.148 208.684L181.225 214.344L188.081 212.53L181.225 219.975L176.677 221.761L175.346 230.307L186.897 226.371L197.408 228.707L201.361 225.843L199.334 230.307L189.412 231.997L186.105 234.518H54.0176L72.8222 230.189Z" fill="black"/>
<path d="M162.134 87.8242H155.851L153.375 97.1563L162.134 87.8242Z" fill="#053D38"/>
<path d="M175.296 84.4895V61.4736C175.296 58.14 172.593 55.4375 169.26 55.4375H146.244C142.91 55.4375 140.208 58.14 140.208 61.4736V84.4895C140.208 87.8232 142.91 90.5256 146.244 90.5256H169.26C172.593 90.5256 175.296 87.8232 175.296 84.4895Z" fill="#053D38"/>
<path opacity="0.8" d="M169.266 55.4492H146.244C145.452 55.4485 144.667 55.6039 143.935 55.9067C143.202 56.2094 142.537 56.6535 141.976 57.2135C141.416 57.7736 140.971 58.4386 140.668 59.1707C140.364 59.9027 140.208 60.6873 140.208 61.4797V84.5012C140.208 86.1021 140.844 87.6374 141.976 88.7694C143.108 89.9014 144.643 90.5374 146.244 90.5374H155.133L153.37 97.1743L159.591 90.5205H169.254C170.049 90.5235 170.836 90.3695 171.571 90.0675C172.306 89.7655 172.974 89.3213 173.537 88.7605C174.1 88.1997 174.547 87.5333 174.851 86.7995C175.156 86.0657 175.313 85.279 175.313 84.4844V61.4629C175.307 59.864 174.667 58.3327 173.533 57.2053C172.399 56.0778 170.865 55.4462 169.266 55.4492Z" fill="white"/>
<path d="M154.813 81.5977H146.413V84.8038H154.813V81.5977Z" fill="#263238"/>
<path opacity="0.4" d="M154.813 81.5977H146.413V84.8038H154.813V81.5977Z" fill="white"/>
<path opacity="0.2" d="M154.273 80.9336L152.701 84.8023H156.199L154.273 80.9336Z" fill="black"/>
<path d="M169.103 79.9375H161.09V84.8113H169.103V79.9375Z" fill="#263238"/>
<path opacity="0.4" d="M169.103 79.9375H161.09V84.8113H169.103V79.9375Z" fill="white"/>
<path opacity="0.2" d="M161.522 79.9375L163.864 84.8057H159.479L160.31 79.9375H161.522Z" fill="black"/>
<path d="M157.755 62.0625L152.426 64.3422L157.755 66.5545V62.0625Z" fill="#053D38"/>
<path d="M157.962 61.5H157.547V78.7661H157.962V61.5Z" fill="#263238"/>
<path opacity="0.2" d="M157.962 61.5H157.547V78.7661H157.962V61.5Z" fill="white"/>
<path d="M158.125 61.519C158.125 61.5923 158.104 61.664 158.063 61.7249C158.022 61.7859 157.964 61.8334 157.897 61.8614C157.829 61.8895 157.754 61.8968 157.683 61.8825C157.611 61.8682 157.545 61.8329 157.493 61.7811C157.441 61.7292 157.406 61.6632 157.391 61.5913C157.377 61.5194 157.384 61.4449 157.412 61.3772C157.441 61.3095 157.488 61.2516 157.549 61.2109C157.61 61.1702 157.682 61.1484 157.755 61.1484C157.853 61.1484 157.947 61.1875 158.017 61.257C158.086 61.3265 158.125 61.4207 158.125 61.519Z" fill="#263238"/>
<path d="M161.528 77.2695H153.987V84.8105H161.528V77.2695Z" fill="#263238"/>
<path opacity="0.4" d="M161.528 77.2695H153.987V84.8105H161.528V77.2695Z" fill="white"/>
<path d="M152.954 118.769C152.954 118.769 163.364 118.152 165.639 117.511C167.913 116.871 178.121 111.941 178.121 111.941L179.575 114.889C179.575 114.889 168.446 122.015 165.768 122.924C163.089 123.834 151.478 126.119 151.478 126.119L152.954 118.769Z" fill="#263238"/>
<path opacity="0.4" d="M179.553 114.889C179.553 114.889 168.446 122.015 165.768 122.924C164.083 123.486 158.755 124.643 155.099 125.389C153.011 125.816 151.472 126.119 151.472 126.119L152.466 121.15L152.938 118.769C152.938 118.769 163.348 118.152 165.622 117.511C167.896 116.871 178.121 111.941 178.121 111.941L179.553 114.889Z" fill="white"/>
<path opacity="0.2" d="M155.099 125.389C153.011 125.816 151.472 126.119 151.472 126.119L152.719 122.801C153.266 123.054 153.759 123.413 154.167 123.858C154.576 124.302 154.893 124.822 155.099 125.389Z" fill="black"/>
<path d="M149.108 111.245C147.985 113.07 145.335 114.159 144.122 115.271C142.909 116.383 143.471 120.218 135.565 119.078C127.659 117.938 124.7 119.527 124.7 119.527C124.7 119.527 124.256 117.809 127.732 116.388C127.732 116.388 125.048 116.911 124.279 118.309C124.279 118.309 124.105 113.991 127.648 112.694C131.191 111.397 130.685 105.894 133.201 103.008C135.716 100.122 142.23 98.5776 146.009 101.273C149.788 103.968 150.574 108.876 149.108 111.245Z" fill="#263238"/>
<path d="M124.278 153.711C124.278 153.711 143.813 153.84 147.889 151.824C151.966 149.809 151.466 129.926 151.466 129.926L134.11 135.462C134.11 135.462 133.61 145.333 124.278 153.711Z" fill="#263238"/>
<path opacity="0.1" d="M124.278 153.711C124.278 153.711 143.813 153.84 147.889 151.824C151.966 149.809 151.466 129.926 151.466 129.926L134.11 135.462C134.11 135.462 133.61 145.333 124.278 153.711Z" fill="white"/>
<path d="M137.255 120.205C139.192 119.834 142.544 119.082 144.369 119.082C146.194 119.082 147.541 120.121 147.889 120.98C148.238 121.839 138.159 125.236 136.603 124.405C135.048 123.574 134.84 120.665 137.255 120.205Z" fill="#263238"/>
<path opacity="0.1" d="M137.255 120.205C139.192 119.834 142.544 119.082 144.369 119.082C146.194 119.082 147.541 120.121 147.889 120.98C148.238 121.839 138.159 125.236 136.603 124.405C135.048 123.574 134.84 120.665 137.255 120.205Z" fill="white"/>
<path d="M109.713 231.786H110.516L110.741 230.792L113.402 231.993H120.14C120.14 231.993 121.213 230.915 118.001 230.056C117.844 230.014 117.692 229.955 117.546 229.882C115.862 229.079 113.397 226.367 113.397 226.367H109.696C109.583 226.547 109.481 226.735 109.393 226.929C108.994 227.715 108.293 229.427 109.713 231.786Z" fill="#263238"/>
<path d="M109.399 226.903C109.887 226.341 112.111 228.75 113.739 229.564C115.194 230.289 116.828 230.609 117.552 229.873C115.867 229.07 113.144 225.566 113.144 225.566H110.179C110.179 225.566 109.573 226.555 109.399 226.903Z" fill="#FFC2BC"/>
<path d="M112.829 227.233L119.023 213.993L113.666 212.527L109.943 225.588" fill="#FFC2BC"/>
<path d="M115.064 224.522C114.131 224.43 113.208 224.252 112.308 223.988C111.564 223.783 110.867 223.438 110.252 222.972C112.336 211.933 117.092 194.757 124.127 186.278C132.909 152.656 143.51 147.344 143.51 147.344L152.691 149.747C152.691 149.747 152.691 154.699 149.473 160.921C145.694 168.22 138.35 179.287 133.117 188.485C127.064 199.125 120.286 211.686 115.064 224.522Z" fill="#263238"/>
<path opacity="0.2" d="M141.444 174.649C138.597 179.276 135.615 184.088 133.117 188.485C127.069 199.125 120.315 211.68 115.07 224.516C114.137 224.425 113.214 224.248 112.313 223.988C111.569 223.781 110.87 223.437 110.252 222.972C112.341 211.927 117.092 194.756 124.127 186.272C126.805 176.03 129.647 168.411 132.314 162.773C134.921 167.049 137.982 171.031 141.444 174.649Z" fill="white"/>
<path d="M151.848 225.609H152.657L152.876 224.62L155.537 225.822H162.275C162.275 225.822 163.353 224.738 160.153 223.896C159.996 223.854 159.843 223.795 159.698 223.722C157.985 222.919 155.548 220.207 155.548 220.207H151.848C151.734 220.387 151.633 220.575 151.545 220.769C151.129 221.538 150.433 223.245 151.848 225.609Z" fill="#263238"/>
<path d="M151.534 220.725C152.022 220.163 154.246 222.572 155.874 223.386C157.328 224.111 158.962 224.431 159.687 223.695C157.974 222.892 155.285 219.383 155.285 219.383H152.292C152.292 219.383 151.73 220.377 151.534 220.725Z" fill="#FFC2BC"/>
<path d="M155.172 221.072L159.091 206.989L153.572 206.434L152.056 219.932" fill="#FFC2BC"/>
<path d="M165.465 174.641C154.953 162.586 135.941 145.848 135.941 145.848C134.516 147.151 133.392 148.75 132.649 150.532C131.907 152.315 131.562 154.238 131.64 156.168C131.718 158.097 132.217 159.987 133.102 161.703C133.986 163.42 135.235 164.923 136.761 166.107C143.553 171.287 150.761 175.897 158.311 179.891C153.729 193.367 152.191 207.905 152.028 217.27C152.761 217.638 153.547 217.887 154.358 218.006C155.333 218.205 156.337 218.205 157.312 218.006C159.968 207.029 164.145 192.84 166.79 182.379C167.705 178.909 167.548 176.663 165.465 174.641Z" fill="#263238"/>
<path opacity="0.2" d="M165.465 174.641C154.953 162.586 135.941 145.848 135.941 145.848C134.516 147.151 133.392 148.75 132.649 150.532C131.907 152.315 131.562 154.238 131.64 156.168C131.718 158.097 132.217 159.987 133.102 161.703C133.986 163.42 135.235 164.923 136.761 166.107C143.553 171.287 150.761 175.897 158.311 179.891C153.729 193.367 152.191 207.905 152.028 217.27C152.761 217.638 153.547 217.887 154.358 218.006C155.333 218.205 156.337 218.205 157.312 218.006C159.968 207.029 164.145 192.84 166.79 182.379C167.705 178.909 167.548 176.663 165.465 174.641Z" fill="white"/>
<path d="M178.48 111.973L181.287 108.57L183.5 112.198C183.5 112.198 180.339 114.966 179.294 114.163L178.48 111.973Z" fill="#EEC1BB"/>
<path d="M185.263 108.445L186.15 111.365L183.522 112.196L181.31 108.569L185.263 108.445Z" fill="#EEC1BB"/>
<path d="M176.925 112.002L178.542 115.77L180.041 114.916L178.559 111.379L176.925 112.002Z" fill="#053D38"/>
<path opacity="0.4" d="M176.925 112.002L178.542 115.77L180.041 114.916L178.559 111.379L176.925 112.002Z" fill="white"/>
<path d="M137.215 121.335C137.215 121.335 144.728 124.463 143.875 119.965C143.875 119.965 148.822 119.505 152.73 119.078C152.73 119.078 153.791 129.185 152.365 145.255L153.381 153.026L147.508 154.834L145.554 149.163L143.207 155.098L130.955 151.258L134.66 143.79C134.66 143.79 134.065 132.15 130.955 125.855C130.955 125.855 131.471 123.609 137.215 121.335Z" fill="#053D38"/>
<path d="M137.833 112.781C138.518 115.319 139.36 119.963 137.715 121.659C137.715 121.659 135.407 123.905 142.106 123.674C142.668 125.072 144.942 127.605 144.942 127.605C144.942 127.605 145.38 123.674 144.914 122.658C146.789 120.856 142.971 119.502 142.971 119.502C142.971 119.502 142.634 118.862 142.971 116.891L137.833 112.781Z" fill="#EEC1BB"/>
<path opacity="0.2" d="M139.939 114.465L142.982 116.907C142.893 117.368 142.848 117.836 142.847 118.306C141.752 118.154 140.18 116.964 139.984 115.835C139.885 115.385 139.869 114.92 139.939 114.465Z" fill="black"/>
<path d="M135.671 107.666C136.441 111.765 136.677 113.506 139.012 115.471C142.527 118.425 147.356 116.864 147.817 112.692C148.232 108.93 146.907 102.866 142.685 101.512C141.788 101.191 140.823 101.115 139.887 101.293C138.952 101.471 138.081 101.896 137.366 102.524C136.65 103.152 136.116 103.96 135.818 104.864C135.52 105.768 135.469 106.736 135.671 107.666Z" fill="#EEC1BB"/>
<path d="M139.192 104.737C136.946 107.651 141.573 111.003 136.946 110.812C132.319 110.621 134.189 104.074 136.946 102.569C139.703 101.064 139.192 104.737 139.192 104.737Z" fill="#263238"/>
<path d="M142.185 108.373C142.235 108.721 142.454 108.985 142.673 108.968C142.892 108.951 143.038 108.659 142.988 108.311C142.937 107.963 142.718 107.699 142.493 107.716C142.269 107.732 142.106 108.024 142.185 108.373Z" fill="#263238"/>
<path d="M146.34 108.126C146.385 108.475 146.609 108.738 146.828 108.727C147.047 108.716 147.193 108.413 147.143 108.07C147.092 107.728 146.873 107.453 146.649 107.469C146.424 107.486 146.289 107.778 146.34 108.126Z" fill="#263238"/>
<path d="M146.553 107.499L147.334 107.195C147.334 107.195 147.008 107.88 146.553 107.499Z" fill="#263238"/>
<path d="M145.256 108.789C145.673 109.557 146.186 110.268 146.784 110.906C146.624 111.046 146.436 111.148 146.231 111.204C146.027 111.26 145.813 111.27 145.604 111.232L145.256 108.789Z" fill="#D4827D"/>
<path d="M143.869 112.646C144.056 112.662 144.244 112.662 144.431 112.646C144.444 112.644 144.456 112.64 144.468 112.634C144.479 112.627 144.489 112.619 144.497 112.608C144.505 112.597 144.511 112.585 144.514 112.573C144.517 112.56 144.517 112.546 144.515 112.533C144.511 112.507 144.497 112.482 144.476 112.465C144.456 112.447 144.43 112.438 144.402 112.438C143.968 112.472 143.532 112.408 143.125 112.25C142.719 112.093 142.354 111.846 142.055 111.528C142.037 111.51 142.011 111.5 141.985 111.5C141.959 111.5 141.934 111.51 141.915 111.528C141.905 111.537 141.898 111.548 141.892 111.56C141.887 111.572 141.884 111.585 141.884 111.599C141.884 111.612 141.887 111.625 141.892 111.637C141.898 111.649 141.905 111.66 141.915 111.669C142.425 112.222 143.12 112.57 143.869 112.646Z" fill="#263238"/>
<path d="M140.989 106.51C141.016 106.513 141.043 106.509 141.067 106.498C141.092 106.487 141.113 106.47 141.129 106.449C141.292 106.262 141.498 106.119 141.729 106.031C141.96 105.943 142.209 105.913 142.454 105.943C142.48 105.949 142.507 105.949 142.532 105.944C142.558 105.939 142.582 105.928 142.603 105.912C142.625 105.897 142.642 105.877 142.655 105.855C142.668 105.832 142.676 105.807 142.679 105.781C142.686 105.726 142.671 105.672 142.639 105.628C142.607 105.584 142.559 105.554 142.505 105.545C142.194 105.497 141.877 105.53 141.582 105.639C141.287 105.748 141.025 105.93 140.82 106.168C140.787 106.21 140.772 106.263 140.777 106.317C140.782 106.37 140.808 106.419 140.849 106.454C140.867 106.472 140.889 106.487 140.913 106.496C140.937 106.506 140.963 106.511 140.989 106.51Z" fill="#263238"/>
<path d="M147.278 106.139C147.328 106.141 147.378 106.125 147.418 106.094C147.437 106.075 147.452 106.053 147.462 106.029C147.472 106.004 147.478 105.978 147.478 105.951C147.478 105.924 147.472 105.898 147.462 105.874C147.452 105.849 147.437 105.827 147.418 105.808C147.209 105.554 146.945 105.352 146.644 105.217C146.344 105.083 146.017 105.02 145.689 105.033C145.663 105.036 145.637 105.044 145.615 105.057C145.592 105.07 145.572 105.087 145.557 105.109C145.541 105.13 145.531 105.154 145.525 105.18C145.52 105.205 145.52 105.232 145.526 105.258C145.536 105.312 145.565 105.36 145.609 105.393C145.652 105.427 145.707 105.442 145.762 105.437C146.022 105.429 146.281 105.482 146.518 105.591C146.755 105.7 146.963 105.863 147.126 106.066C147.166 106.109 147.22 106.135 147.278 106.139Z" fill="#263238"/>
<path d="M142.37 107.745L143.151 107.441C143.151 107.441 142.825 108.126 142.37 107.745Z" fill="#263238"/>
<path d="M140.775 102.461C140.775 102.461 139.972 107.29 136.766 108.076C133.56 108.862 136.16 103.113 136.16 103.113C136.16 103.113 136.834 100.496 141.168 100.496C145.503 100.496 150.495 104.898 149.108 111.221C149.224 109.92 148.973 108.613 148.384 107.447C147.423 105.808 146.435 107.24 140.775 102.461Z" fill="#263238"/>
<path d="M135.272 111.642C135.44 112.003 135.682 112.325 135.982 112.587C136.282 112.85 136.633 113.046 137.013 113.164C137.962 113.417 138.378 112.327 138.063 111.238C137.777 110.255 136.94 108.936 136.002 109.177C135.065 109.419 134.79 110.682 135.272 111.642Z" fill="#EEC1BB"/>
<path d="M136.334 121.215C136.334 121.215 137.659 136.538 132.212 146.533C126.766 156.528 124.217 158.032 124.217 158.032L121.971 153.709C121.971 153.709 132.044 142.395 132.358 140.918C132.673 139.441 130.517 125.381 130.517 125.381C132.262 123.74 134.219 122.339 136.334 121.215Z" fill="#263238"/>
<path opacity="0.4" d="M132.212 146.535C126.772 156.518 124.217 158.034 124.217 158.034L121.971 153.711C121.971 153.711 132.044 142.396 132.358 140.92C132.389 139.593 132.303 138.267 132.1 136.955C131.87 134.9 131.539 132.396 131.23 130.245C130.848 127.533 130.517 125.383 130.517 125.383C132.257 123.741 134.207 122.339 136.317 121.211C136.317 121.211 137.659 136.54 132.212 146.535Z" fill="white"/>
<path d="M137.255 120.203C137.255 120.203 135.621 120.405 135.25 121.208C134.879 122.011 131.471 126.262 131.471 126.262L135.042 125.386L132.942 127.25C134.045 130.793 134.797 134.436 135.188 138.126C135.188 138.126 138.372 129.563 136.311 121.214L137.255 120.203Z" fill="#263238"/>
<path opacity="0.25" d="M137.255 120.203C137.255 120.203 135.621 120.405 135.25 121.208C134.879 122.011 131.471 126.262 131.471 126.262L135.042 125.386L132.942 127.25C134.045 130.793 134.797 134.436 135.188 138.126C135.188 138.126 138.372 129.563 136.311 121.214L137.255 120.203Z" fill="white"/>
<path d="M146.284 119.4C146.284 119.4 151.899 121.455 152.69 141.091C152.69 141.091 153.954 126.099 152.954 118.766L146.284 119.4Z" fill="#263238"/>
<path opacity="0.4" d="M146.284 119.4C146.284 119.4 151.899 121.455 152.69 141.091C152.69 141.091 153.954 126.099 152.954 118.766L146.284 119.4Z" fill="white"/>
<path d="M144.122 119.078L146.121 118.769C146.935 118.64 153.246 122.194 153.246 122.194L150.197 122.829L152.443 123.637C152.443 123.637 153.224 130.937 152.241 135.496C152.241 135.496 150.428 124.631 146.671 120.235C146.363 119.86 145.972 119.561 145.531 119.361C145.089 119.161 144.607 119.064 144.122 119.078Z" fill="#263238"/>
<path opacity="0.25" d="M144.122 119.078L146.121 118.769C146.935 118.64 153.246 122.194 153.246 122.194L150.197 122.829L152.443 123.637C152.443 123.637 153.224 130.937 152.241 135.496C152.241 135.496 150.428 124.631 146.671 120.235C146.363 119.86 145.972 119.561 145.531 119.361C145.089 119.161 144.607 119.064 144.122 119.078Z" fill="white"/>
<path d="M142.971 119.527C142.971 119.527 145.177 121.066 144.913 122.683L149.344 122.801C149.344 122.801 146.452 119.797 142.971 119.527Z" fill="#053D38"/>
<path d="M136.834 125.386L142.106 123.673C142.106 123.673 139.299 121.427 138.445 120.203L136.705 121.511C136.66 121.612 136.143 122.893 136.834 125.386Z" fill="#053D38"/>
<path opacity="0.4" d="M142.971 119.527C142.971 119.527 145.177 121.066 144.913 122.683L149.344 122.801C149.344 122.801 146.452 119.797 142.971 119.527Z" fill="white"/>
<path opacity="0.4" d="M136.834 125.386L142.106 123.673C142.106 123.673 139.299 121.427 138.445 120.203L136.705 121.511C136.66 121.612 136.143 122.893 136.834 125.386Z" fill="white"/>
<path d="M111.15 137.164L107.147 135.277L106.675 139.5C106.675 139.5 110.712 140.673 111.319 139.5L111.15 137.164Z" fill="#EEC1BB"/>
<path d="M103.514 136.838L103.947 139.859L106.675 139.5L107.147 135.277L103.514 136.838Z" fill="#EEC1BB"/>
<path d="M110.073 97.8793C110.073 97.8793 99.9936 93.6905 90.7963 100.299C85.4508 104.134 82.0537 112.972 70.0938 109.536C70.0938 109.536 80.9869 121.659 88.1235 120.143C95.2602 118.627 93.8284 114.606 108.281 118.554L110.073 97.8793Z" fill="#053D38"/>
<path d="M110.725 96.9526L109.386 96.8672L100.682 233.309L102.021 233.395L110.725 96.9526Z" fill="#263238"/>
<path d="M110.965 96.8915C110.919 97.0678 110.822 97.2265 110.686 97.3476C110.55 97.4686 110.381 97.5465 110.2 97.5714C110.02 97.5963 109.836 97.5671 109.672 97.4875C109.508 97.4078 109.371 97.2814 109.279 97.1241C109.187 96.9669 109.144 96.7858 109.155 96.6039C109.166 96.4221 109.231 96.2475 109.341 96.1024C109.451 95.9573 109.602 95.8481 109.774 95.7886C109.946 95.7292 110.132 95.7222 110.308 95.7685C110.543 95.8318 110.744 95.9852 110.867 96.1953C110.99 96.4055 111.025 96.6556 110.965 96.8915Z" fill="#263238"/>
<path d="M125.514 111.317C125.495 111.316 125.477 111.312 125.46 111.304C125.444 111.296 125.429 111.285 125.416 111.272C125.404 111.258 125.394 111.242 125.388 111.225C125.381 111.207 125.378 111.189 125.379 111.171C125.383 111.135 125.399 111.102 125.425 111.078C125.45 111.053 125.484 111.038 125.519 111.036C125.677 111.036 129.45 111.036 130.797 106.476C131.179 105.126 131.929 103.908 132.964 102.959C133.998 102.01 135.276 101.368 136.654 101.103C136.691 101.098 136.729 101.108 136.759 101.13C136.789 101.153 136.809 101.186 136.814 101.224C136.819 101.261 136.809 101.299 136.787 101.329C136.764 101.359 136.73 101.378 136.693 101.384C135.371 101.644 134.147 102.264 133.156 103.177C132.165 104.09 131.446 105.259 131.078 106.555C129.646 111.266 125.649 111.317 125.514 111.317Z" fill="#263238"/>
<path d="M148.243 113.342C148.213 113.342 148.184 113.332 148.16 113.313C148.137 113.295 148.119 113.269 148.111 113.24C148.103 113.211 148.104 113.181 148.115 113.153C148.126 113.124 148.145 113.1 148.17 113.084C148.327 112.983 151.949 110.608 149.215 105.088C146.688 99.9844 140.579 100.653 140.517 100.658C140.498 100.661 140.48 100.659 140.462 100.654C140.444 100.649 140.427 100.641 140.412 100.629C140.398 100.618 140.386 100.604 140.377 100.587C140.367 100.571 140.362 100.553 140.36 100.535C140.356 100.514 140.358 100.493 140.363 100.473C140.369 100.453 140.378 100.435 140.392 100.419C140.405 100.403 140.422 100.39 140.44 100.381C140.459 100.372 140.479 100.367 140.5 100.366C140.562 100.366 146.867 99.67 149.484 104.954C152.336 110.703 148.361 113.286 148.333 113.309C148.321 113.321 148.307 113.33 148.292 113.336C148.276 113.342 148.26 113.344 148.243 113.342Z" fill="#263238"/>
<path opacity="0.2" d="M132.117 136.962C131.887 134.907 131.555 132.403 131.247 130.252C131.444 130.019 131.694 129.836 131.977 129.719C131.977 129.719 133.762 133.896 132.117 136.962Z" fill="black"/>
<path d="M130.534 125.387C130.534 125.387 123.925 135.718 122.442 136.443C120.96 137.167 111.864 136.864 111.864 136.864L111.302 140.3C111.302 140.3 121.673 142.086 124.486 141.092C127.299 140.098 131.971 133.764 131.971 133.764C131.971 133.764 132.639 127.767 130.534 125.387Z" fill="#263238"/>
<path opacity="0.4" d="M130.534 125.387C130.534 125.387 123.925 135.718 122.442 136.443C120.96 137.167 111.864 136.864 111.864 136.864L111.302 140.3C111.302 140.3 121.673 142.086 124.486 141.092C127.299 140.098 131.971 133.764 131.971 133.764C131.971 133.764 132.639 127.767 130.534 125.387Z" fill="white"/>
<path d="M111.897 140.732L112.425 136.667L110.701 136.633L110.168 140.429L111.897 140.732Z" fill="#053D38"/>
<path opacity="0.4" d="M111.897 140.732L112.425 136.667L110.701 136.633L110.168 140.429L111.897 140.732Z" fill="white"/>
</g>
<defs>
<clipPath id="clip0_579_18147">
<rect width="280.75" height="280.75" fill="white" transform="translate(0.125 0.421875)"/>
</clipPath>
</defs>
</svg>
