<svg width="282" height="282" viewBox="0 0 282 282" fill="none" xmlns="http://www.w3.org/2000/svg">
<g clip-path="url(#clip0_579_18984)">
<path d="M281.367 215.141H0.616699V215.281H281.367V215.141Z" fill="#EBEBEB"/>
<path d="M253.236 224.176H204.441V224.316H253.236V224.176Z" fill="#EBEBEB"/>
<path d="M206.322 218.965H201.443V219.105H206.322V218.965Z" fill="#EBEBEB"/>
<path d="M168.679 223.617H157.904V223.758H168.679V223.617Z" fill="#EBEBEB"/>
<path d="M42.2012 219.906H30.0728V220.047H42.2012V219.906Z" fill="#EBEBEB"/>
<path d="M62.8814 219.906H47.1987V220.047H62.8814V219.906Z" fill="#EBEBEB"/>
<path d="M143.524 222.211H117.224V222.351H143.524V222.211Z" fill="#EBEBEB"/>
<path d="M133.692 190.097H25.2723C24.423 190.095 23.6089 189.757 23.0089 189.156C22.4088 188.555 22.0718 187.74 22.0718 186.891V34.4828C22.0792 33.6383 22.4195 32.8308 23.0187 32.2358C23.618 31.6407 24.4278 31.3061 25.2723 31.3047H133.692C134.543 31.3047 135.358 31.6425 135.959 32.2438C136.561 32.845 136.899 33.6605 136.899 34.5109V186.891C136.899 187.741 136.561 188.557 135.959 189.158C135.358 189.759 134.543 190.097 133.692 190.097ZM25.2723 31.417C24.4602 31.4185 23.6818 31.7421 23.1081 32.3169C22.5344 32.8917 22.2122 33.6707 22.2122 34.4828V186.891C22.2122 187.703 22.5344 188.482 23.1081 189.057C23.6818 189.631 24.4602 189.955 25.2723 189.957H133.692C134.505 189.955 135.284 189.632 135.859 189.057C136.433 188.482 136.757 187.703 136.758 186.891V34.4828C136.757 33.6701 136.433 32.8912 135.859 32.3166C135.284 31.742 134.505 31.4185 133.692 31.417H25.2723Z" fill="#EBEBEB"/>
<path d="M255.15 190.097H146.725C145.875 190.095 145.06 189.757 144.459 189.156C143.858 188.555 143.52 187.741 143.519 186.891V34.4828C143.527 33.6378 143.869 32.8303 144.469 32.2354C145.069 31.6405 145.88 31.3061 146.725 31.3047H255.15C255.994 31.3076 256.802 31.6429 257.4 32.2377C257.998 32.8326 258.338 33.6393 258.345 34.4828V186.891C258.345 187.739 258.009 188.553 257.41 189.154C256.811 189.755 255.999 190.094 255.15 190.097ZM146.725 31.417C145.912 31.4185 145.133 31.742 144.559 32.3166C143.984 32.8912 143.66 33.6701 143.659 34.4828V186.891C143.66 187.703 143.984 188.482 144.559 189.057C145.133 189.632 145.912 189.955 146.725 189.957H255.15C255.963 189.955 256.742 189.632 257.317 189.057C257.891 188.482 258.215 187.703 258.216 186.891V34.4828C258.215 33.6701 257.891 32.8912 257.317 32.3166C256.742 31.742 255.963 31.4185 255.15 31.417H146.725Z" fill="#EBEBEB"/>
<path d="M117.768 41.3789H30.9434V165.543H117.768V41.3789Z" fill="#E6E6E6"/>
<path d="M120.373 41.3789H32.1616V165.543H120.373V41.3789Z" fill="#F0F0F0"/>
<path d="M117.768 165.543H30.9434V167.817H117.768V165.543Z" fill="#E6E6E6"/>
<path d="M121.76 165.543H33.5488V167.817H121.76V165.543Z" fill="#F0F0F0"/>
<path d="M116.729 161.894L116.729 45.0234L35.8117 45.0234L35.8117 161.894H116.729Z" fill="#FAFAFA"/>
<path d="M73.1963 161.892L92.8263 45.0273H102.933L83.3033 161.892H73.1963Z" fill="white"/>
<path d="M47.6929 161.892L67.3229 45.0273H77.4299L57.7999 161.892H47.6929Z" fill="white"/>
<path d="M37.4958 103.232C37.3442 103.232 37.2207 103.046 37.2207 102.816V47.531C37.2207 47.3008 37.3442 47.1211 37.4958 47.1211C37.6474 47.1211 37.7766 47.3008 37.7766 47.531V102.816C37.7766 103.046 37.6755 103.232 37.4958 103.232Z" fill="#F0F0F0"/>
<path d="M85.4761 161.892L105.106 45.0273H109.042L89.4122 161.892H85.4761Z" fill="white"/>
<path d="M116.729 161.898L116.729 45.0273H116.269L116.269 161.898H116.729Z" fill="#E6E6E6"/>
<path opacity="0.5" d="M121.238 55.5658H34.4136L34.0767 46.4414H120.901L121.238 55.5658Z" fill="#E0E0E0"/>
<path opacity="0.5" d="M121.238 70.5602H34.4136L34.0767 61.4414H120.901L121.238 70.5602Z" fill="#E0E0E0"/>
<path opacity="0.5" d="M121.238 85.5563H34.4136L34.0767 76.4375H120.901L121.238 85.5563Z" fill="#E0E0E0"/>
<path opacity="0.5" d="M121.238 100.554H34.4136L34.0767 91.4297H120.901L121.238 100.554Z" fill="#E0E0E0"/>
<path opacity="0.5" d="M121.238 115.548H34.4136L34.0767 106.43H120.901L121.238 115.548Z" fill="#E0E0E0"/>
<path opacity="0.5" d="M121.238 130.545H34.4136L34.0767 121.426H120.901L121.238 130.545Z" fill="#E0E0E0"/>
<path opacity="0.5" d="M121.238 63.0619H34.4136L34.0767 53.9375H120.901L121.238 63.0619Z" fill="#E0E0E0"/>
<path opacity="0.5" d="M121.238 78.0619H34.4136L34.0767 68.9375H120.901L121.238 78.0619Z" fill="#E0E0E0"/>
<path opacity="0.5" d="M121.238 93.0524H34.4136L34.0767 83.9336H120.901L121.238 93.0524Z" fill="#E0E0E0"/>
<path opacity="0.5" d="M121.238 108.052H34.4136L34.0767 98.9336H120.901L121.238 108.052Z" fill="#E0E0E0"/>
<path opacity="0.5" d="M121.238 123.046H34.4136L34.0767 113.922H120.901L121.238 123.046Z" fill="#E0E0E0"/>
<path opacity="0.5" d="M121.238 138.046H34.4136L34.0767 128.922H120.901L121.238 138.046Z" fill="#E0E0E0"/>
<path d="M167.422 126.508H150.116V213.231H167.422V126.508Z" fill="#F0F0F0"/>
<path d="M238.777 213.23H153.44V215.14H238.777V213.23Z" fill="#F0F0F0"/>
<path d="M167.416 213.23H242.09V126.507L167.416 126.507V213.23Z" fill="#F5F5F5"/>
<path d="M233.504 175.368H176.001C175.455 175.366 174.932 175.149 174.546 174.763C174.16 174.377 173.942 173.853 173.94 173.307V159.887C173.94 159.34 174.157 158.816 174.544 158.428C174.93 158.041 175.454 157.823 176.001 157.821H185.507C185.891 157.827 186.265 157.939 186.589 158.144C186.913 158.349 187.174 158.639 187.343 158.983C187.528 159.324 187.801 159.608 188.135 159.806C188.468 160.004 188.848 160.108 189.236 160.106H220.281C220.848 160.105 221.391 159.879 221.791 159.477C221.954 159.312 222.09 159.122 222.196 158.916C222.365 158.579 222.625 158.295 222.946 158.097C223.268 157.899 223.638 157.793 224.015 157.793H233.504C234.052 157.793 234.578 158.011 234.965 158.398C235.353 158.786 235.571 159.311 235.571 159.859V173.307C235.569 173.854 235.351 174.378 234.963 174.765C234.576 175.151 234.051 175.368 233.504 175.368ZM176.001 158.388C175.603 158.39 175.222 158.549 174.941 158.831C174.66 159.113 174.502 159.495 174.502 159.893V173.307C174.503 173.704 174.662 174.085 174.943 174.366C175.224 174.647 175.604 174.805 176.001 174.806H233.504C233.902 174.806 234.284 174.649 234.566 174.368C234.848 174.087 235.008 173.705 235.009 173.307V159.887C235.009 159.488 234.851 159.106 234.568 158.823C234.286 158.541 233.903 158.383 233.504 158.383H224.015C223.743 158.382 223.476 158.456 223.243 158.596C223.011 158.737 222.821 158.939 222.695 159.18C222.564 159.44 222.391 159.677 222.185 159.882C221.935 160.133 221.638 160.332 221.312 160.468C220.985 160.604 220.635 160.673 220.281 160.673H189.236C188.746 160.674 188.266 160.541 187.845 160.29C187.425 160.039 187.081 159.679 186.849 159.247C186.726 158.994 186.536 158.78 186.299 158.627C186.063 158.475 185.789 158.39 185.507 158.383L176.001 158.388Z" fill="#EBEBEB"/>
<path d="M233.504 198.8H176.001C175.455 198.798 174.932 198.581 174.546 198.195C174.16 197.808 173.942 197.285 173.94 196.739V183.325C173.94 182.778 174.157 182.253 174.544 181.866C174.93 181.478 175.454 181.26 176.001 181.259H185.507C185.891 181.265 186.265 181.376 186.589 181.581C186.913 181.786 187.174 182.077 187.343 182.421C187.528 182.761 187.801 183.046 188.135 183.243C188.468 183.441 188.848 183.545 189.236 183.544H220.281C220.561 183.545 220.839 183.49 221.097 183.382C221.356 183.274 221.59 183.115 221.786 182.915C221.952 182.751 222.09 182.561 222.196 182.353C222.365 182.016 222.625 181.733 222.946 181.534C223.268 181.336 223.638 181.231 224.015 181.23H233.504C234.052 181.23 234.578 181.448 234.965 181.836C235.353 182.223 235.571 182.749 235.571 183.297V196.711C235.574 196.984 235.522 197.255 235.42 197.509C235.317 197.762 235.166 197.992 234.973 198.187C234.781 198.381 234.553 198.535 234.3 198.64C234.048 198.746 233.778 198.8 233.504 198.8ZM176.001 181.82C175.603 181.822 175.222 181.981 174.941 182.263C174.66 182.545 174.502 182.927 174.502 183.325V196.739C174.503 197.136 174.662 197.517 174.943 197.798C175.224 198.078 175.604 198.237 176.001 198.238H233.504C233.902 198.238 234.284 198.081 234.566 197.8C234.848 197.519 235.008 197.137 235.009 196.739V183.325C235.009 182.926 234.851 182.543 234.568 182.261C234.286 181.979 233.903 181.82 233.504 181.82H224.015C223.743 181.819 223.476 181.893 223.243 182.034C223.011 182.174 222.821 182.376 222.695 182.617C222.564 182.877 222.391 183.114 222.185 183.319C221.936 183.572 221.64 183.772 221.313 183.908C220.986 184.044 220.635 184.113 220.281 184.111H189.236C188.746 184.111 188.266 183.979 187.845 183.728C187.425 183.477 187.081 183.116 186.849 182.685C186.726 182.432 186.536 182.217 186.299 182.065C186.063 181.912 185.789 181.828 185.507 181.82H176.001Z" fill="#EBEBEB"/>
<path d="M235.571 209.232H173.94V204.246H235.571V209.232ZM174.502 208.671H235.009V204.808H174.502V208.671Z" fill="#EBEBEB"/>
<path d="M233.504 151.942H176.001C175.455 151.941 174.932 151.723 174.546 151.337C174.16 150.951 173.942 150.428 173.94 149.881V136.467C173.94 135.92 174.157 135.395 174.544 135.008C174.93 134.621 175.454 134.402 176.001 134.401H185.507C185.89 134.406 186.264 134.517 186.588 134.721C186.912 134.925 187.173 135.215 187.343 135.558C187.528 135.899 187.801 136.183 188.134 136.381C188.467 136.579 188.848 136.682 189.236 136.681H220.281C220.848 136.679 221.391 136.453 221.791 136.052C221.954 135.886 222.09 135.697 222.196 135.49C222.365 135.153 222.625 134.869 222.946 134.671C223.268 134.473 223.638 134.368 224.015 134.367H233.504C233.776 134.367 234.044 134.421 234.295 134.524C234.546 134.628 234.774 134.781 234.965 134.972C235.157 135.164 235.31 135.392 235.413 135.643C235.517 135.893 235.571 136.162 235.571 136.434V149.848C235.574 150.121 235.524 150.393 235.422 150.647C235.319 150.901 235.168 151.132 234.975 151.327C234.783 151.522 234.554 151.677 234.302 151.782C234.049 151.888 233.778 151.942 233.504 151.942ZM176.001 134.962C175.603 134.964 175.222 135.123 174.941 135.405C174.66 135.687 174.502 136.069 174.502 136.467V149.881C174.503 150.279 174.662 150.659 174.943 150.94C175.224 151.221 175.604 151.379 176.001 151.381H233.504C233.902 151.381 234.284 151.223 234.566 150.942C234.848 150.661 235.008 150.28 235.009 149.881V136.467C235.009 136.068 234.851 135.685 234.568 135.403C234.286 135.121 233.903 134.962 233.504 134.962H224.015C223.743 134.961 223.476 135.035 223.243 135.176C223.011 135.317 222.821 135.519 222.695 135.76C222.564 136.02 222.391 136.257 222.185 136.462C221.935 136.713 221.639 136.912 221.312 137.048C220.985 137.184 220.635 137.254 220.281 137.253H189.236C188.746 137.253 188.266 137.12 187.846 136.869C187.426 136.618 187.081 136.258 186.849 135.827C186.726 135.574 186.536 135.36 186.299 135.207C186.063 135.055 185.789 134.97 185.507 134.962H176.001Z" fill="#EBEBEB"/>
<path d="M244.403 125.109H167.421V126.508H244.403V125.109Z" fill="#F0F0F0"/>
<path d="M147.702 126.508H167.421V125.11H147.702V126.508Z" fill="#E6E6E6"/>
<path d="M227.643 44.3711H161.593V109.926H227.643V44.3711Z" fill="#E6E6E6"/>
<path d="M231.208 44.3711H162.267V109.926H231.208V44.3711Z" fill="#F0F0F0"/>
<path d="M228.024 106.748V47.5547L165.451 47.5547V106.748H228.024Z" fill="white"/>
<path d="M196.737 101.519C191.918 101.519 187.206 100.09 183.199 97.4125C179.191 94.7348 176.068 90.9289 174.223 86.476C172.379 82.0231 171.896 77.1233 172.836 72.3962C173.777 67.669 176.098 63.3269 179.506 59.9188C182.914 56.5107 187.256 54.1898 191.983 53.2495C196.71 52.3092 201.61 52.7918 206.063 54.6362C210.516 56.4807 214.322 59.6041 216.999 63.6116C219.677 67.6191 221.106 72.3306 221.106 77.1504C221.099 83.6112 218.529 89.8052 213.961 94.3737C209.392 98.9422 203.198 101.512 196.737 101.519ZM196.737 53.2024C192.001 53.2024 187.371 54.6069 183.432 57.2383C179.494 59.8698 176.425 63.61 174.612 67.9859C172.8 72.3618 172.325 77.1769 173.249 81.8224C174.173 86.4678 176.454 90.735 179.803 94.0841C183.153 97.4333 187.42 99.7141 192.065 100.638C196.711 101.562 201.526 101.088 205.902 99.2754C210.278 97.4628 214.018 94.3934 216.649 90.4552C219.281 86.5169 220.685 81.8868 220.685 77.1504C220.679 70.8008 218.154 64.713 213.664 60.2232C209.175 55.7333 203.087 53.2083 196.737 53.2024Z" fill="#F5F5F5"/>
<path d="M140.992 240.498C201.119 240.498 249.861 237.652 249.861 234.141C249.861 230.631 201.119 227.785 140.992 227.785C80.865 227.785 32.1226 230.631 32.1226 234.141C32.1226 237.652 80.865 240.498 140.992 240.498Z" fill="#F5F5F5"/>
<path d="M38.6753 202.326H176.181L186.063 116.781H48.5633L38.6753 202.326Z" fill="#F26800"/>
<path opacity="0.4" d="M38.6753 202.326H176.181L186.063 116.781H48.5633L38.6753 202.326Z" fill="white"/>
<path d="M203.189 205.532H65.6836L48.5635 116.781H186.064L203.189 205.532Z" fill="#F26800"/>
<path opacity="0.6" d="M203.189 205.532H65.6836L48.5635 116.781H186.064L203.189 205.532Z" fill="white"/>
<path d="M197.922 200.768H69.1086L55.2788 129.059H184.093L197.922 200.768Z" fill="white"/>
<g opacity="0.5">
<path d="M79.137 146.449H65.6666L63.0669 132.973H76.5373L79.137 146.449Z" fill="#F26800"/>
<path d="M180.415 146.449H166.939L164.345 132.973H177.815L180.415 146.449Z" fill="#F26800"/>
<path d="M163.531 146.449H150.06L147.46 132.973H160.936L163.531 146.449Z" fill="#F26800"/>
<path d="M146.652 146.449H133.181L130.582 132.973H144.058L146.652 146.449Z" fill="#F26800"/>
<path d="M129.773 146.449H116.303L113.703 132.973H127.174L129.773 146.449Z" fill="#F26800"/>
<path d="M112.894 146.449H99.424L96.8242 132.973H110.295L112.894 146.449Z" fill="#F26800"/>
<path d="M96.0159 146.449H82.5455L79.9458 132.973H93.4162L96.0159 146.449Z" fill="#F26800"/>
<path opacity="0.5" d="M82.3768 163.248H68.9064L66.3066 149.777H79.777L82.3768 163.248Z" fill="#F26800"/>
<path d="M183.655 163.248H170.184L167.584 149.777H181.055L183.655 163.248Z" fill="#F26800"/>
<path opacity="0.5" d="M166.776 163.248H153.305L150.706 149.777H164.176L166.776 163.248Z" fill="#F26800"/>
<path d="M149.897 163.248H136.421L133.827 149.777H147.298L149.897 163.248Z" fill="#F26800"/>
<path d="M133.013 163.248H119.543L116.943 149.777H130.419L133.013 163.248Z" fill="#F26800"/>
<path d="M116.134 163.248H102.664L100.064 149.777H113.534L116.134 163.248Z" fill="#F26800"/>
<path d="M99.2557 163.248H85.7853L83.1855 149.777H96.6559L99.2557 163.248Z" fill="#F26800"/>
<path d="M85.6165 180.049H72.1461L69.5464 166.578H83.0168L85.6165 180.049Z" fill="#F26800"/>
<path d="M186.894 180.049H173.424L170.824 166.578H184.295L186.894 180.049Z" fill="#F26800"/>
<path d="M170.016 180.049H156.546L153.946 166.578H167.416L170.016 180.049Z" fill="#F26800"/>
<path d="M153.137 180.049H139.667L137.067 166.578H150.537L153.137 180.049Z" fill="#F26800"/>
<path d="M136.259 180.049H122.783L120.188 166.578H133.659L136.259 180.049Z" fill="#F26800"/>
<path d="M119.374 180.049H105.904L103.304 166.578H116.78L119.374 180.049Z" fill="#F26800"/>
<path d="M102.495 180.049H89.025L86.4253 166.578H99.8957L102.495 180.049Z" fill="#F26800"/>
<path d="M88.8567 196.855H75.3864L72.7866 183.379H86.2626L88.8567 196.855Z" fill="#F26800"/>
<path d="M190.135 196.855H176.664L174.064 183.379H187.535L190.135 196.855Z" fill="#F26800"/>
<path d="M173.256 196.855H159.785L157.186 183.379H170.656L173.256 196.855Z" fill="#F26800"/>
<path d="M156.377 196.855H142.906L140.307 183.379H153.777L156.377 196.855Z" fill="#F26800"/>
<path d="M139.498 196.855H126.028L123.428 183.379H136.899L139.498 196.855Z" fill="#F26800"/>
<path d="M122.619 196.855H109.143L106.549 183.379H120.02L122.619 196.855Z" fill="#F26800"/>
<path opacity="0.5" d="M105.741 196.855H92.265L89.6709 183.379H103.141L105.741 196.855Z" fill="#F26800"/>
</g>
<path d="M65.5205 122.872L65.3465 121.979C66.9355 121.979 67.8227 119.599 67.278 116.78C66.7334 113.961 64.9309 111.575 63.3475 111.575C61.7641 111.575 60.8713 113.961 61.4103 116.78H60.5232C59.8606 113.36 61.0285 110.688 63.1735 110.688C65.3184 110.688 67.5195 113.36 68.1764 116.78C68.8334 120.199 67.6654 122.872 65.5205 122.872Z" fill="#263238"/>
<path d="M78.8169 122.872L78.6428 121.979C80.2319 121.979 81.1191 119.599 80.5744 116.78C80.0297 113.961 78.2273 111.575 76.6439 111.575C75.0605 111.575 74.1677 113.961 74.7067 116.78H73.8196C73.157 113.36 74.3249 110.688 76.4698 110.688C78.6148 110.688 80.8158 113.36 81.4728 116.78C82.1298 120.199 80.9618 122.872 78.8169 122.872Z" fill="#263238"/>
<path d="M92.1411 122.872L91.9671 121.979C93.5561 121.979 94.4433 119.599 93.8986 116.78C93.354 113.961 91.5516 111.575 89.9681 111.575C88.3847 111.575 87.4863 113.961 88.0309 116.78H87.0876C86.4251 113.36 87.593 110.688 89.7379 110.688C91.8828 110.688 94.0839 113.36 94.7409 116.78C95.3978 120.199 94.258 122.872 92.1411 122.872Z" fill="#263238"/>
<path d="M105.404 122.872L105.235 121.979C106.824 121.979 107.712 119.599 107.167 116.78C106.622 113.961 104.82 111.575 103.236 111.575C101.653 111.575 100.76 113.961 101.305 116.78H100.412C99.7552 113.36 100.923 110.688 103.068 110.688C105.213 110.688 107.408 113.36 108.071 116.78C108.734 120.199 107.554 122.872 105.404 122.872Z" fill="#263238"/>
<path d="M118.7 122.872L118.532 121.979C120.121 121.979 121.008 119.599 120.463 116.78C119.919 113.961 118.116 111.575 116.533 111.575C114.949 111.575 114.057 113.961 114.601 116.78H113.709C113.052 113.36 114.22 110.688 116.364 110.688C118.509 110.688 120.705 113.36 121.367 116.78C122.03 120.199 120.851 122.872 118.7 122.872Z" fill="#263238"/>
<path d="M132.008 122.872L131.839 121.979C133.428 121.979 134.316 119.599 133.771 116.78C133.226 113.961 131.424 111.575 129.84 111.575C128.257 111.575 127.364 113.961 127.909 116.78H127.016C126.359 113.36 127.522 110.688 129.672 110.688C131.823 110.688 134.012 113.36 134.675 116.78C135.338 120.199 134.147 122.872 132.008 122.872Z" fill="#263238"/>
<path d="M145.293 122.872L145.125 121.979C146.714 121.979 147.601 119.599 147.056 116.78C146.511 113.961 144.709 111.575 143.126 111.575C141.542 111.575 140.649 113.961 141.194 116.78H140.301C139.644 113.36 140.807 110.688 142.957 110.688C145.108 110.688 147.298 113.36 147.96 116.78C148.623 120.199 147.444 122.872 145.293 122.872Z" fill="#263238"/>
<path d="M158.589 122.872L158.421 121.979C160.01 121.979 160.897 119.599 160.353 116.78C159.808 113.961 158.005 111.575 156.422 111.575C154.839 111.575 153.946 113.961 154.49 116.78H153.598C152.941 113.36 154.103 110.688 156.254 110.688C158.404 110.688 160.594 113.36 161.257 116.78C161.919 120.199 160.734 122.872 158.589 122.872Z" fill="#263238"/>
<path d="M171.874 122.872L171.706 121.979C173.295 121.979 174.182 119.599 173.637 116.78C173.093 113.961 171.29 111.575 169.707 111.575C168.123 111.575 167.231 113.961 167.775 116.78H166.882C166.225 113.36 167.388 110.688 169.538 110.688C171.689 110.688 173.879 113.36 174.536 116.78C175.193 120.199 174.03 122.872 171.874 122.872Z" fill="#263238"/>
<path d="M114.427 144.552H67.194L64.5942 131.082H111.828L114.427 144.552Z" fill="#F26800"/>
<path d="M134.557 161.359H121.081L118.487 147.883H131.957L134.557 161.359Z" fill="#F26800"/>
<path d="M176.703 178.606L175.973 177.972C174.475 176.66 172.807 175.555 171.015 174.687L171.481 173.311C173.151 174.119 174.722 175.116 176.164 176.282C178.651 172.594 181.908 169.488 185.71 167.18L186.715 168.55C182.844 170.901 179.567 174.112 177.135 177.932L176.703 178.606Z" fill="#F26800"/>
<path d="M129.616 150.109H128.397L126.359 153.798L122.906 150.109H121.688L125.91 154.618L123.423 159.121H124.647L126.679 155.438L130.132 159.121H131.357L127.128 154.618L129.616 150.109Z" fill="white"/>
<path d="M154.586 182.381L156.832 194.066H145.153L142.907 182.381H154.592M155.316 181.488H141.84L144.44 194.964H157.916L155.321 181.488H155.316Z" fill="#F26800"/>
<path d="M120.907 178.158H90.5577L87.958 164.688H118.307L120.907 178.158Z" fill="#263238"/>
<path d="M100.002 170.059C100.083 170.372 100.09 170.699 100.021 171.015C99.9531 171.331 99.8118 171.626 99.6088 171.878C99.4058 172.13 99.1468 172.33 98.8524 172.464C98.5581 172.597 98.2366 172.66 97.9136 172.647C97.1845 172.62 96.4852 172.351 95.926 171.882C95.3668 171.413 94.9795 170.772 94.8254 170.059C94.7458 169.746 94.7402 169.419 94.809 169.103C94.8779 168.788 95.0192 168.493 95.222 168.242C95.4247 167.99 95.6832 167.79 95.9769 167.656C96.2707 167.522 96.5916 167.458 96.9142 167.47C97.643 167.498 98.3419 167.768 98.9009 168.236C99.4599 168.705 99.8474 169.346 100.002 170.059Z" fill="white"/>
<path d="M100.626 172.508C100.34 172.905 99.9612 173.226 99.5225 173.442C99.0839 173.658 98.5989 173.764 98.1101 173.749C96.9956 173.722 95.9308 173.282 95.1229 172.513C94.623 172.784 94.2213 173.205 93.9752 173.717C93.7291 174.23 93.6513 174.807 93.7528 175.366H103.096C102.927 174.734 102.617 174.148 102.189 173.653C101.761 173.158 101.227 172.767 100.626 172.508Z" fill="white"/>
<path d="M115.848 170.582H105.516L105.23 169.094H115.562L115.848 170.582Z" fill="white"/>
<path d="M113.001 173.746H106.128L105.842 172.258H112.715L113.001 173.746Z" fill="white"/>
<path d="M167.248 132.337C169.909 132.337 173.677 132.725 176.524 134.583C177.041 134.888 177.492 135.294 177.85 135.776C178.207 136.258 178.465 136.807 178.607 137.391C179.107 139.598 177.933 142.006 176.636 143.315C174.587 145.381 171.397 146.684 167.652 146.942C167.225 146.976 166.787 146.993 166.355 146.993C163.718 146.969 161.108 146.451 158.662 145.465C156.254 144.505 153.699 143.219 152.98 140.715C152.792 140.138 152.735 139.526 152.812 138.925C152.888 138.323 153.097 137.745 153.424 137.234C153.848 136.584 154.409 136.036 155.069 135.628C158.18 133.704 161.725 132.593 165.378 132.399C166.001 132.36 166.63 132.337 167.248 132.337ZM167.079 131.473C166.411 131.473 165.765 131.473 165.159 131.54C161.379 131.739 157.71 132.886 154.49 134.875C153.75 135.336 153.12 135.953 152.643 136.683C152.262 137.29 152.019 137.973 151.931 138.685C151.843 139.396 151.911 140.117 152.132 140.799C152.974 143.708 155.855 145.218 158.471 146.257C161.029 147.291 163.759 147.832 166.518 147.852C166.973 147.852 167.422 147.852 167.871 147.807C171.431 147.548 174.98 146.336 177.315 143.977C179.651 141.619 181.139 136.616 176.9 133.87C174.042 132.023 170.302 131.473 167.074 131.473H167.079Z" fill="#263238"/>
<path d="M217.928 230.167L221.949 229.1L219.989 219.645L215.969 220.717L217.928 230.167Z" fill="#B55B52"/>
<path d="M222.078 228.36L217.636 229.82C217.56 229.841 217.496 229.891 217.457 229.96C217.418 230.028 217.408 230.109 217.428 230.185L218.372 233.773C218.431 233.958 218.561 234.112 218.734 234.202C218.906 234.291 219.107 234.308 219.293 234.25C220.831 233.689 221.539 233.38 223.493 232.74C224.694 232.341 227.603 231.448 229.259 230.904C230.916 230.359 230.337 228.736 229.585 228.815C226.216 229.186 224.245 228.888 222.847 228.383C222.601 228.287 222.329 228.279 222.078 228.36Z" fill="#263238"/>
<path opacity="0.2" d="M215.969 220.717L219.989 219.645L221 224.518L216.974 225.591L215.969 220.717Z" fill="black"/>
<path d="M205.659 124.355C205.659 124.355 211.274 158.242 212.959 170.062C214.784 183.004 221.617 221.939 221.617 221.939L214.879 224.488C214.879 224.488 204.126 186.21 201.156 173.627C197.927 159.966 190.819 124.355 190.819 124.355H205.659Z" fill="#263238"/>
<path opacity="0.3" d="M196.636 138.254C199.511 145.435 199.837 157.642 198.669 162.645C196.906 154.43 194.884 144.604 193.329 136.962C193.885 135.003 194.896 133.885 196.636 138.254Z" fill="black"/>
<path d="M214.576 225.446L222.398 223.099L222.173 219.898L212.864 222.622L214.576 225.446Z" fill="#263238"/>
<path d="M223.706 228.588C223.34 228.695 222.964 228.763 222.583 228.79C222.565 228.791 222.546 228.788 222.53 228.78C222.513 228.772 222.499 228.76 222.488 228.745C222.479 228.729 222.474 228.71 222.474 228.692C222.474 228.673 222.479 228.654 222.488 228.638C222.583 228.509 223.454 227.375 223.998 227.403C224.06 227.407 224.119 227.427 224.171 227.461C224.223 227.494 224.266 227.54 224.296 227.594C224.357 227.673 224.394 227.768 224.402 227.867C224.411 227.967 224.392 228.066 224.347 228.155C224.191 228.371 223.964 228.524 223.706 228.588ZM222.814 228.588C223.572 228.492 224.083 228.301 224.206 228.06C224.231 228.003 224.24 227.94 224.233 227.878C224.226 227.816 224.204 227.757 224.167 227.706C224.153 227.679 224.132 227.656 224.106 227.639C224.081 227.623 224.051 227.613 224.021 227.611C223.729 227.583 223.179 228.133 222.814 228.576V228.588Z" fill="#F26800"/>
<path d="M222.628 228.783C222.613 228.789 222.597 228.789 222.583 228.783C222.567 228.781 222.552 228.774 222.539 228.765C222.527 228.755 222.516 228.742 222.51 228.727C222.51 228.677 222.027 227.57 222.297 227.043C222.332 226.977 222.382 226.919 222.442 226.875C222.502 226.83 222.571 226.799 222.645 226.784C222.725 226.761 222.811 226.765 222.888 226.797C222.966 226.829 223.03 226.885 223.072 226.958C223.307 227.357 222.987 228.379 222.673 228.738C222.656 228.772 222.645 228.783 222.628 228.783ZM222.628 227.003C222.556 227.029 222.495 227.081 222.459 227.149C222.365 227.601 222.418 228.072 222.611 228.491C222.885 228.072 222.985 227.563 222.892 227.071C222.864 227.02 222.813 226.964 222.673 226.992L222.628 227.003Z" fill="#F26800"/>
<path d="M204.806 89.4728C204.969 89.7367 205.193 90.1073 205.401 90.4273L206.041 91.438C206.485 92.1062 206.923 92.7744 207.389 93.4314C208.304 94.7397 209.27 96.0087 210.269 97.2159C211.244 98.3962 212.299 99.5087 213.425 100.546C214.443 101.497 215.575 102.319 216.794 102.994L215.907 102.741C216.776 102.92 217.667 102.971 218.551 102.893C219.034 102.848 219.528 102.786 220.034 102.696C220.539 102.606 221.05 102.483 221.567 102.342C222.63 102.053 223.674 101.698 224.694 101.281C225.216 101.068 225.739 100.849 226.261 100.613C226.783 100.377 227.316 100.113 227.771 99.8999L227.923 99.8269C228.359 99.6184 228.859 99.5912 229.315 99.7512C229.771 99.9111 230.144 100.245 230.354 100.68C230.511 101.016 230.564 101.391 230.505 101.756C230.446 102.122 230.278 102.461 230.023 102.73C229.512 103.258 229.063 103.679 228.557 104.122C228.052 104.566 227.547 104.959 227.013 105.352C225.927 106.145 224.778 106.847 223.577 107.452C222.309 108.089 220.974 108.581 219.596 108.918C218.856 109.088 218.106 109.209 217.35 109.283C216.556 109.35 215.758 109.35 214.963 109.283C214.738 109.26 214.517 109.205 214.307 109.12L214.082 109.024C212.226 108.221 210.493 107.161 208.933 105.874C207.454 104.681 206.077 103.366 204.817 101.944C203.587 100.581 202.435 99.1488 201.37 97.6539C200.842 96.9052 200.333 96.1565 199.842 95.4079C199.601 95.0204 199.359 94.6386 199.124 94.2399C198.888 93.8413 198.674 93.4707 198.416 92.9878C197.938 92.1471 197.814 91.151 198.07 90.2186C198.326 89.2861 198.943 88.4937 199.783 88.0157C200.624 87.5377 201.62 87.4132 202.553 87.6696C203.485 87.926 204.277 88.5423 204.755 89.383L204.806 89.4728Z" fill="#263238"/>
<path opacity="0.3" d="M208.265 99.7402C206.075 95.2482 202.341 95.5065 200.836 96.8934L201.263 97.5167C202.282 98.9614 203.381 100.349 204.554 101.672C205.754 103.032 207.053 104.303 208.439 105.473C208.877 105.833 209.332 106.186 209.792 106.523C209.73 104.184 209.211 101.88 208.265 99.7402Z" fill="black"/>
<path d="M229.018 99.2477L231.826 96.9062L233.51 100.539C233.51 100.539 229.327 103.532 228.367 102.476L228.255 101.123C228.223 100.772 228.276 100.419 228.409 100.093C228.541 99.7664 228.75 99.4767 229.018 99.2477Z" fill="#B55B52"/>
<path d="M235.57 97.3511L236.452 100.159L233.487 100.524L231.814 96.8906L235.57 97.3511Z" fill="#B55B52"/>
<path d="M182.756 230.032H186.917L187.456 220.391H183.295L182.756 230.032Z" fill="#B55B52"/>
<path d="M187.136 229.547H182.458C182.419 229.546 182.38 229.552 182.344 229.565C182.307 229.579 182.273 229.6 182.245 229.626C182.216 229.653 182.193 229.685 182.177 229.72C182.16 229.756 182.151 229.794 182.15 229.833L181.919 233.534C181.919 233.728 181.996 233.915 182.133 234.054C182.269 234.193 182.455 234.272 182.649 234.275C184.278 234.247 185.058 234.151 187.113 234.151C188.377 234.151 191.864 234.281 193.61 234.281C195.356 234.281 195.294 232.551 194.57 232.394C191.246 231.698 189.028 230.709 187.832 229.805C187.636 229.643 187.39 229.552 187.136 229.547Z" fill="#263238"/>
<path opacity="0.2" d="M183.295 220.395H187.456L187.175 225.364H183.014L183.295 220.395Z" fill="black"/>
<path d="M197.529 124.355C197.529 124.355 197.17 160.522 196.496 172.442C195.755 185.492 188.961 224.162 188.961 224.162H181.335C181.335 224.162 184.66 186.542 184.199 173.627C183.699 159.59 183.396 124.355 183.396 124.355H197.529Z" fill="#263238"/>
<path d="M180.723 224.165H190.022L190.476 221.273L180.33 221.723L180.723 224.165Z" fill="#263238"/>
<path d="M188.607 230.271C188.228 230.263 187.852 230.214 187.484 230.125C187.465 230.122 187.448 230.113 187.434 230.099C187.421 230.086 187.412 230.069 187.408 230.05C187.404 230.031 187.406 230.012 187.414 229.994C187.421 229.977 187.434 229.962 187.45 229.951C187.585 229.856 188.758 229.053 189.269 229.255C189.327 229.277 189.377 229.313 189.417 229.361C189.456 229.408 189.483 229.464 189.494 229.525C189.52 229.615 189.523 229.711 189.503 229.804C189.482 229.896 189.439 229.982 189.376 230.052C189.155 230.217 188.881 230.295 188.607 230.271ZM187.765 229.985C188.511 230.131 189.062 230.109 189.253 229.918C189.295 229.872 189.324 229.815 189.337 229.754C189.35 229.692 189.346 229.629 189.326 229.57C189.321 229.539 189.308 229.51 189.288 229.486C189.268 229.463 189.243 229.445 189.213 229.435C188.944 229.328 188.247 229.676 187.765 229.985Z" fill="#F26800"/>
<path d="M187.523 230.126C187.509 230.132 187.493 230.132 187.478 230.126C187.463 230.119 187.451 230.108 187.442 230.094C187.433 230.08 187.428 230.064 187.428 230.048C187.428 229.997 187.327 228.801 187.748 228.397C187.802 228.345 187.866 228.306 187.937 228.283C188.008 228.259 188.084 228.252 188.158 228.262C188.24 228.265 188.32 228.295 188.384 228.348C188.448 228.401 188.493 228.473 188.511 228.554C188.607 229.009 187.983 229.879 187.574 230.126C187.557 230.131 187.54 230.131 187.523 230.126ZM188.085 228.442C188.007 228.442 187.932 228.472 187.877 228.526C187.646 228.925 187.549 229.387 187.602 229.845C187.967 229.542 188.377 228.88 188.315 228.582C188.315 228.526 188.27 228.458 188.13 228.442H188.085Z" fill="#F26800"/>
<path d="M203.908 90.5383C203.698 89.8362 203.301 89.2042 202.76 88.7097C202.219 88.2153 201.554 87.8769 200.836 87.7308C199.81 87.4881 198.769 87.3099 197.72 87.1974C194.569 87.0175 191.41 87.0175 188.259 87.1974C186.608 87.276 184.923 87.4781 183.581 87.6746H183.531C183.178 87.7243 182.839 87.8444 182.533 88.0279C182.228 88.2113 181.963 88.4544 181.753 88.7425C181.544 89.0306 181.394 89.358 181.314 89.7051C181.233 90.0522 181.223 90.4119 181.285 90.7629C182.342 96.3474 183.034 101.995 183.357 107.67C183.683 115.907 183.239 122.375 183.396 124.363H205.66C207.013 104.256 205.267 95.1201 203.908 90.5383Z" fill="#E6E6E6"/>
<path d="M188.888 86.8281C190.639 93.9367 192.257 111.95 192.228 126.032H182.818C182.649 123.932 183.121 117.115 182.778 108.429C182.441 102.457 181.719 96.5138 180.617 90.6351C180.553 90.2667 180.563 89.8892 180.647 89.5248C180.731 89.1603 180.886 88.8164 181.105 88.513C181.324 88.2096 181.601 87.953 181.92 87.7581C182.239 87.5633 182.594 87.4342 182.964 87.3784H183.014C184.429 87.1706 186.204 86.9573 187.944 86.873L188.888 86.8281Z" fill="#263238"/>
<path d="M205.053 90.6402C204.813 89.8642 204.377 89.1632 203.787 88.6054C203.197 88.0475 202.472 87.6518 201.684 87.4565C200.196 87.2226 198.696 87.0689 197.192 86.9961C198.972 93.1726 202.464 111.988 201.426 126.032H207.366C208.776 104.958 206.378 94.4921 205.053 90.6402Z" fill="#263238"/>
<path d="M239.754 110.106L195.457 129.062L190.134 116.687L234.437 97.7305L239.754 110.106Z" fill="#F26800"/>
<path d="M202.369 117.3C202.57 117.771 202.628 118.29 202.534 118.793C202.44 119.296 202.2 119.76 201.842 120.127C201.485 120.493 201.027 120.745 200.526 120.851C200.026 120.957 199.505 120.913 199.029 120.723C198.554 120.533 198.146 120.207 197.856 119.785C197.566 119.363 197.408 118.865 197.401 118.353C197.394 117.841 197.539 117.339 197.818 116.91C198.097 116.481 198.496 116.144 198.966 115.941C199.279 115.807 199.615 115.735 199.955 115.731C200.295 115.726 200.633 115.789 200.949 115.915C201.265 116.041 201.553 116.229 201.797 116.466C202.041 116.704 202.235 116.987 202.369 117.3Z" fill="white"/>
<path d="M203.487 119.488C203.322 119.981 203.055 120.433 202.703 120.815C202.351 121.196 201.923 121.5 201.446 121.704C200.968 121.909 200.453 122.01 199.934 122.002C199.415 121.994 198.904 121.876 198.433 121.656C198.035 122.108 197.765 122.66 197.652 123.253C197.54 123.845 197.588 124.457 197.793 125.025L206.384 121.352C206.114 120.81 205.702 120.35 205.192 120.022C204.682 119.694 204.093 119.51 203.487 119.488Z" fill="white"/>
<path d="M233.454 104.569L207.563 115.648L206.979 114.278L232.87 103.199L233.454 104.569Z" fill="white"/>
<path d="M231.528 108.831L208.815 118.551L208.226 117.181L230.938 107.461L231.528 108.831Z" fill="white"/>
<path opacity="0.3" d="M185.726 97.8416C185.569 93.1194 182.082 91.317 181.099 92.586C181.056 92.6373 181.017 92.6917 180.981 92.7488C181.593 96.3873 182.34 101.396 182.666 106.331C184.322 105.377 185.872 102.328 185.726 97.8416Z" fill="black"/>
<path d="M197.271 87.1841C194.52 86.5328 194.037 84.8314 194.222 82.9617C194.266 82.4933 194.339 82.0282 194.441 81.5691L190.993 78.7055L188.461 76.6055C189.163 79.6544 189.955 85.2077 187.899 87.2403C187.899 87.2403 189.584 90.0478 194.317 89.8007C198.265 89.5817 197.271 87.1841 197.271 87.1841Z" fill="#B55B52"/>
<path d="M192.425 92.3123C192.75 91.3765 193.279 90.525 193.975 89.8192C191.861 89.1258 189.939 87.9492 188.36 86.3828L186.917 86.9443C186.917 86.9443 187.427 90.6109 192.425 92.3123Z" fill="white"/>
<path d="M196.277 91.6836C195.652 90.9044 194.867 90.2687 193.975 89.8195C195.362 89.4264 195.901 86.6133 195.901 86.6133L197.254 86.894C197.254 86.894 199.752 90.5606 196.277 91.6836Z" fill="white"/>
<path opacity="0.2" d="M194.441 81.5707C194.339 82.0298 194.266 82.4949 194.222 82.9632C192.936 82.7049 191.218 81.3348 191.038 80.0209C190.975 79.5859 190.96 79.1453 190.993 78.707L194.441 81.5707Z" fill="black"/>
<path d="M196.047 66.5974C197.782 66.2829 199.803 68.1022 198.854 71.7968C197.905 75.4915 193.396 67.0746 196.047 66.5974Z" fill="#263238"/>
<path d="M187.416 72.2206C188.298 76.269 188.607 78.6778 190.999 80.5251C191.77 81.1332 192.692 81.519 193.666 81.6408C194.64 81.7626 195.629 81.6159 196.526 81.2164C197.422 80.8169 198.193 80.1798 198.754 79.3742C199.314 78.5685 199.644 77.6248 199.708 76.6452C200.022 72.8775 198.534 66.8919 194.272 65.7465C193.357 65.4736 192.386 65.4463 191.456 65.6674C190.527 65.8885 189.672 66.3502 188.977 67.0061C188.283 67.662 187.773 68.4891 187.499 69.4044C187.225 70.3197 187.196 71.2909 187.416 72.2206Z" fill="#B55B52"/>
<path d="M189.045 76.6073C189.64 75.2036 190.168 71.2955 189.685 69.6728C191.622 69.611 195.693 69.2517 197.389 67.365C199.994 64.4677 196.558 61.0425 192.234 63.7714C189.427 65.5289 183.368 65.1808 184.373 67.1404C181.42 70.3915 184.738 74.0637 189.045 76.6073Z" fill="#263238"/>
<path d="M184.367 67.2876C184.347 67.2875 184.327 67.2828 184.308 67.2741C184.29 67.2654 184.274 67.2528 184.261 67.2371C183.901 66.7935 183.789 66.4229 183.913 66.1141C184.21 65.3729 185.754 65.1708 187.534 64.9462C189.219 64.7328 191.083 64.4914 191.678 63.7333C191.705 63.7089 191.74 63.6953 191.776 63.6953C191.813 63.6953 191.848 63.7089 191.875 63.7333C191.888 63.7459 191.899 63.7612 191.906 63.7781C191.913 63.795 191.917 63.8132 191.917 63.8316C191.917 63.85 191.913 63.8682 191.906 63.8851C191.899 63.902 191.888 63.9173 191.875 63.9299C191.206 64.7777 189.348 65.0136 187.551 65.2438C185.996 65.4459 184.39 65.648 184.182 66.2432C184.098 66.4566 184.182 66.743 184.48 67.0967C184.505 67.123 184.52 67.1582 184.52 67.195C184.52 67.2317 184.505 67.267 184.48 67.2932C184.443 67.3043 184.403 67.3023 184.367 67.2876Z" fill="#263238"/>
<path d="M186.793 75.488C187.277 76.244 188.007 76.8095 188.86 77.0883C189.943 77.414 190.314 76.4145 189.876 75.3589C189.477 74.4043 188.433 73.0848 187.417 73.2252C186.4 73.3656 186.181 74.5391 186.793 75.488Z" fill="#B55B52"/>
<path d="M193.211 72.6262C193.262 72.9575 193.481 73.1877 193.7 73.1877C193.919 73.1877 194.048 72.8733 193.997 72.542C193.947 72.2107 193.728 71.9805 193.509 71.9805C193.29 71.9805 193.161 72.2949 193.211 72.6262Z" fill="#263238"/>
<path d="M196.979 72.1787C197.029 72.51 197.248 72.7402 197.467 72.7402C197.686 72.7402 197.821 72.4201 197.765 72.0888C197.709 71.7576 197.495 71.5273 197.282 71.5273C197.068 71.5273 196.928 71.8474 196.979 72.1787Z" fill="#263238"/>
<path d="M196.4 72.4844C196.957 73.454 197.641 74.3453 198.433 75.1347C198.226 75.3241 197.98 75.4655 197.712 75.549C197.444 75.6325 197.161 75.6559 196.883 75.6175L196.4 72.4844Z" fill="#A02724"/>
<path d="M195.659 76.6791C195.27 76.6843 194.883 76.6104 194.523 76.4618C194.163 76.3131 193.837 76.0929 193.565 75.8144C193.557 75.8048 193.55 75.7936 193.546 75.7815C193.542 75.7694 193.54 75.7566 193.541 75.7438C193.541 75.7311 193.545 75.7186 193.55 75.7071C193.556 75.6956 193.564 75.6853 193.573 75.6768C193.583 75.6683 193.594 75.6618 193.606 75.6576C193.618 75.6535 193.631 75.6517 193.644 75.6525C193.657 75.6533 193.669 75.6566 193.681 75.6622C193.692 75.6678 193.703 75.6756 193.711 75.6852C194.013 75.9801 194.379 76.2029 194.779 76.3371C195.18 76.4712 195.605 76.5133 196.024 76.4601C196.037 76.4577 196.051 76.458 196.064 76.461C196.076 76.464 196.088 76.4697 196.099 76.4776C196.11 76.4855 196.118 76.4955 196.125 76.507C196.131 76.5185 196.135 76.5312 196.137 76.5443C196.138 76.5569 196.137 76.5696 196.134 76.5818C196.13 76.594 196.125 76.6053 196.117 76.6153C196.109 76.6252 196.099 76.6335 196.088 76.6396C196.077 76.6457 196.065 76.6496 196.052 76.651C195.922 76.6683 195.791 76.6777 195.659 76.6791Z" fill="#263238"/>
<path d="M191.982 71.5535C191.948 71.5512 191.916 71.5416 191.886 71.5254C191.864 71.5126 191.844 71.4955 191.828 71.4749C191.812 71.4544 191.8 71.431 191.793 71.4059C191.787 71.3808 191.785 71.3547 191.788 71.3289C191.792 71.3032 191.8 71.2784 191.813 71.2559C191.958 70.9823 192.168 70.7485 192.425 70.5751C192.681 70.4018 192.976 70.2943 193.284 70.2621C193.31 70.2605 193.336 70.2641 193.36 70.2726C193.385 70.2811 193.407 70.2944 193.427 70.3116C193.446 70.3288 193.462 70.3496 193.473 70.3729C193.484 70.3962 193.491 70.4215 193.492 70.4474C193.494 70.4732 193.49 70.499 193.481 70.5235C193.473 70.5479 193.46 70.5704 193.443 70.5897C193.425 70.609 193.404 70.6247 193.381 70.6359C193.358 70.6472 193.333 70.6537 193.307 70.6551C193.064 70.6838 192.833 70.7715 192.632 70.9105C192.431 71.0495 192.268 71.2356 192.156 71.4524C192.138 71.4834 192.113 71.5092 192.083 71.5269C192.052 71.5447 192.017 71.5539 191.982 71.5535Z" fill="#263238"/>
<path d="M198.669 70.6962C198.636 70.6964 198.604 70.6882 198.576 70.6725C198.547 70.6568 198.523 70.634 198.506 70.6064C198.37 70.394 198.186 70.2158 197.97 70.0853C197.754 69.9549 197.511 69.8758 197.26 69.854C197.207 69.854 197.157 69.8333 197.121 69.7964C197.084 69.7596 197.063 69.7096 197.063 69.6575C197.063 69.6053 197.084 69.5554 197.121 69.5185C197.157 69.4816 197.207 69.4609 197.26 69.4609C197.575 69.483 197.882 69.5782 198.155 69.739C198.428 69.8997 198.659 70.1217 198.832 70.3874C198.86 70.4316 198.87 70.485 198.859 70.5363C198.849 70.5876 198.819 70.6329 198.776 70.6625C198.744 70.6839 198.707 70.6956 198.669 70.6962Z" fill="#263238"/>
<path d="M186.237 93.4913L186.198 93.553L186.102 93.7102L185.9 94.064C185.76 94.3167 185.625 94.575 185.49 94.8445C185.232 95.406 184.979 95.9675 184.755 96.529C184.306 97.705 183.95 98.914 183.688 100.145C183.167 102.687 183.013 105.291 183.233 107.877C183.264 108.421 183.337 108.962 183.452 109.494C183.58 110.032 183.759 110.556 183.986 111.061C184.506 112.212 185.144 113.307 185.889 114.329C187.529 116.546 189.363 118.613 191.369 120.505L191.448 120.584C191.76 120.887 191.953 121.293 191.992 121.726C192.031 122.16 191.913 122.593 191.659 122.947C191.406 123.302 191.034 123.553 190.611 123.656C190.188 123.759 189.742 123.707 189.354 123.509C187.945 122.789 186.597 121.957 185.322 121.022C184.025 120.085 182.803 119.048 181.667 117.922C180.461 116.723 179.405 115.383 178.522 113.93C178.038 113.139 177.633 112.302 177.315 111.431C177.005 110.55 176.777 109.642 176.636 108.719C176.345 107.094 176.194 105.446 176.186 103.795C176.161 102.123 176.287 100.452 176.563 98.803C176.841 97.1291 177.279 95.4857 177.871 93.8955C178.173 93.0851 178.52 92.2922 178.91 91.5204C179.112 91.1273 179.32 90.7399 179.555 90.3525C179.673 90.1559 179.797 89.9594 179.926 89.7573L180.134 89.4541L180.414 89.0666C181.009 88.327 181.868 87.8479 182.81 87.731C183.751 87.614 184.701 87.8684 185.459 88.4402C186.216 89.012 186.721 89.8562 186.866 90.7939C187.011 91.7316 186.786 92.689 186.237 93.4632V93.4913Z" fill="#263238"/>
<path d="M192.56 120.549L194.879 120.426L192.189 124.918C192.189 124.918 188.438 124.441 188.82 122.526L189.342 121.964C190.197 121.101 191.347 120.596 192.56 120.549Z" fill="#B55B52"/>
<path d="M197.282 122.037L195.26 126.81L192.189 124.935L194.879 120.426L197.282 122.037Z" fill="#B55B52"/>
</g>
<defs>
<clipPath id="clip0_579_18984">
<rect width="280.75" height="280.75" fill="white" transform="translate(0.616699 0.421875)"/>
</clipPath>
</defs>
</svg>
