<svg width="282" height="282" viewBox="0 0 282 282" fill="none" xmlns="http://www.w3.org/2000/svg">
<g clip-path="url(#clip0_579_17990)">
<path d="M281.375 215.141H0.625V215.281H281.375V215.141Z" fill="#EBEBEB"/>
<path d="M253.244 224.176H204.45V224.316H253.244V224.176Z" fill="#EBEBEB"/>
<path d="M206.331 218.965H201.451V219.105H206.331V218.965Z" fill="#EBEBEB"/>
<path d="M168.688 223.617H157.913V223.758H168.688V223.617Z" fill="#EBEBEB"/>
<path d="M42.2095 219.906H30.0811V220.047H42.2095V219.906Z" fill="#EBEBEB"/>
<path d="M62.8897 219.906H47.207V220.047H62.8897V219.906Z" fill="#EBEBEB"/>
<path d="M143.533 222.211H117.232V222.351H143.533V222.211Z" fill="#EBEBEB"/>
<path d="M133.701 190.097H25.2806C24.4313 190.095 23.6172 189.757 23.0172 189.156C22.4171 188.555 22.0801 187.74 22.0801 186.891V34.4828C22.0875 33.6383 22.4278 32.8308 23.027 32.2358C23.6263 31.6407 24.4361 31.3061 25.2806 31.3047H133.701C134.551 31.3047 135.367 31.6425 135.968 32.2438C136.569 32.845 136.907 33.6605 136.907 34.5109V186.891C136.907 187.741 136.569 188.557 135.968 189.158C135.367 189.759 134.551 190.097 133.701 190.097ZM25.2806 31.417C24.4685 31.4185 23.6902 31.7421 23.1164 32.3169C22.5427 32.8917 22.2205 33.6707 22.2205 34.4828V186.891C22.2205 187.703 22.5427 188.482 23.1164 189.057C23.6902 189.631 24.4685 189.955 25.2806 189.957H133.701C134.513 189.955 135.292 189.632 135.867 189.057C136.441 188.482 136.765 187.703 136.766 186.891V34.4828C136.765 33.6701 136.441 32.8912 135.867 32.3166C135.292 31.742 134.513 31.4185 133.701 31.417H25.2806Z" fill="#EBEBEB"/>
<path d="M255.159 190.097H146.733C145.883 190.095 145.069 189.757 144.468 189.156C143.867 188.555 143.528 187.741 143.527 186.891V34.4828C143.536 33.6378 143.877 32.8303 144.477 32.2354C145.078 31.6405 145.888 31.3061 146.733 31.3047H255.159C256.002 31.3076 256.811 31.6429 257.409 32.2377C258.007 32.8326 258.346 33.6393 258.354 34.4828V186.891C258.354 187.739 258.017 188.553 257.419 189.154C256.82 189.755 256.007 190.094 255.159 190.097ZM146.733 31.417C145.92 31.4185 145.141 31.742 144.567 32.3166C143.992 32.8912 143.669 33.6701 143.667 34.4828V186.891C143.669 187.703 143.992 188.482 144.567 189.057C145.141 189.632 145.92 189.955 146.733 189.957H255.159C255.971 189.955 256.75 189.632 257.325 189.057C257.899 188.482 258.223 187.703 258.224 186.891V34.4828C258.223 33.6701 257.899 32.8912 257.325 32.3166C256.75 31.742 255.971 31.4185 255.159 31.417H146.733Z" fill="#EBEBEB"/>
<path d="M117.776 41.3789H30.9517V165.543H117.776V41.3789Z" fill="#E6E6E6"/>
<path d="M120.382 41.3789H32.1699V165.543H120.382V41.3789Z" fill="#F0F0F0"/>
<path d="M117.776 165.543H30.9517V167.817H117.776V165.543Z" fill="#E6E6E6"/>
<path d="M121.769 165.543H33.5571V167.817H121.769V165.543Z" fill="#F0F0F0"/>
<path d="M116.738 161.894L116.738 45.0234L35.82 45.0234L35.82 161.894H116.738Z" fill="#FAFAFA"/>
<path d="M73.2046 161.892L92.8346 45.0273H102.942L83.3116 161.892H73.2046Z" fill="white"/>
<path d="M47.7012 161.892L67.3312 45.0273H77.4382L57.8082 161.892H47.7012Z" fill="white"/>
<path d="M37.5041 103.232C37.3525 103.232 37.229 103.046 37.229 102.816V47.531C37.229 47.3008 37.3525 47.1211 37.5041 47.1211C37.6557 47.1211 37.7849 47.3008 37.7849 47.531V102.816C37.7849 103.046 37.6838 103.232 37.5041 103.232Z" fill="#F0F0F0"/>
<path d="M85.4844 161.892L105.114 45.0273H109.051L89.4205 161.892H85.4844Z" fill="white"/>
<path d="M116.738 161.898L116.738 45.0273H116.277L116.277 161.898H116.738Z" fill="#E6E6E6"/>
<path opacity="0.5" d="M121.247 55.5658H34.4219L34.085 46.4414H120.91L121.247 55.5658Z" fill="#E0E0E0"/>
<path opacity="0.5" d="M121.247 70.5602H34.4219L34.085 61.4414H120.91L121.247 70.5602Z" fill="#E0E0E0"/>
<path opacity="0.5" d="M121.247 85.5563H34.4219L34.085 76.4375H120.91L121.247 85.5563Z" fill="#E0E0E0"/>
<path opacity="0.5" d="M121.247 100.554H34.4219L34.085 91.4297H120.91L121.247 100.554Z" fill="#E0E0E0"/>
<path opacity="0.5" d="M121.247 115.548H34.4219L34.085 106.43H120.91L121.247 115.548Z" fill="#E0E0E0"/>
<path opacity="0.5" d="M121.247 130.545H34.4219L34.085 121.426H120.91L121.247 130.545Z" fill="#E0E0E0"/>
<path opacity="0.5" d="M121.247 63.0619H34.4219L34.085 53.9375H120.91L121.247 63.0619Z" fill="#E0E0E0"/>
<path opacity="0.5" d="M121.247 78.0619H34.4219L34.085 68.9375H120.91L121.247 78.0619Z" fill="#E0E0E0"/>
<path opacity="0.5" d="M121.247 93.0524H34.4219L34.085 83.9336H120.91L121.247 93.0524Z" fill="#E0E0E0"/>
<path opacity="0.5" d="M121.247 108.052H34.4219L34.085 98.9336H120.91L121.247 108.052Z" fill="#E0E0E0"/>
<path opacity="0.5" d="M121.247 123.046H34.4219L34.085 113.922H120.91L121.247 123.046Z" fill="#E0E0E0"/>
<path opacity="0.5" d="M121.247 138.046H34.4219L34.085 128.922H120.91L121.247 138.046Z" fill="#E0E0E0"/>
<path d="M167.43 126.508H150.125V213.231H167.43V126.508Z" fill="#F0F0F0"/>
<path d="M238.785 213.23H153.448V215.14H238.785V213.23Z" fill="#F0F0F0"/>
<path d="M167.424 213.23H242.098V126.507L167.424 126.507V213.23Z" fill="#F5F5F5"/>
<path d="M233.513 175.368H176.009C175.463 175.366 174.94 175.149 174.554 174.763C174.168 174.377 173.95 173.853 173.949 173.307V159.887C173.949 159.34 174.166 158.816 174.552 158.428C174.938 158.041 175.462 157.823 176.009 157.821H185.516C185.899 157.827 186.273 157.939 186.597 158.144C186.921 158.349 187.182 158.639 187.352 158.983C187.536 159.324 187.81 159.608 188.143 159.806C188.476 160.004 188.857 160.108 189.244 160.106H220.289C220.856 160.105 221.399 159.879 221.8 159.477C221.962 159.312 222.098 159.122 222.204 158.916C222.374 158.579 222.633 158.295 222.955 158.097C223.276 157.899 223.646 157.793 224.023 157.793H233.513C234.061 157.793 234.586 158.011 234.974 158.398C235.361 158.786 235.579 159.311 235.579 159.859V173.307C235.577 173.854 235.359 174.378 234.972 174.765C234.584 175.151 234.06 175.368 233.513 175.368ZM176.009 158.388C175.611 158.39 175.23 158.549 174.949 158.831C174.668 159.113 174.51 159.495 174.51 159.893V173.307C174.512 173.704 174.67 174.085 174.951 174.366C175.232 174.647 175.612 174.805 176.009 174.806H233.513C233.911 174.806 234.293 174.649 234.575 174.368C234.857 174.087 235.016 173.705 235.017 173.307V159.887C235.017 159.488 234.859 159.106 234.577 158.823C234.295 158.541 233.912 158.383 233.513 158.383H224.023C223.751 158.382 223.484 158.456 223.252 158.596C223.019 158.737 222.829 158.939 222.704 159.18C222.572 159.44 222.4 159.677 222.193 159.882C221.943 160.133 221.647 160.332 221.32 160.468C220.993 160.604 220.643 160.673 220.289 160.673H189.244C188.754 160.674 188.274 160.541 187.854 160.29C187.433 160.039 187.089 159.679 186.858 159.247C186.734 158.994 186.544 158.78 186.308 158.627C186.071 158.475 185.797 158.39 185.516 158.383L176.009 158.388Z" fill="#EBEBEB"/>
<path d="M233.513 198.8H176.009C175.463 198.798 174.94 198.581 174.554 198.195C174.168 197.808 173.95 197.285 173.949 196.739V183.325C173.949 182.778 174.166 182.253 174.552 181.866C174.938 181.478 175.462 181.26 176.009 181.259H185.516C185.899 181.265 186.273 181.376 186.597 181.581C186.921 181.786 187.182 182.077 187.352 182.421C187.536 182.761 187.81 183.046 188.143 183.243C188.476 183.441 188.857 183.545 189.244 183.544H220.289C220.569 183.545 220.847 183.49 221.105 183.382C221.364 183.274 221.598 183.115 221.794 182.915C221.96 182.751 222.098 182.561 222.204 182.353C222.374 182.016 222.633 181.733 222.955 181.534C223.276 181.336 223.646 181.231 224.023 181.23H233.513C234.061 181.23 234.586 181.448 234.974 181.836C235.361 182.223 235.579 182.749 235.579 183.297V196.711C235.582 196.984 235.531 197.255 235.428 197.509C235.326 197.762 235.174 197.992 234.982 198.187C234.79 198.381 234.561 198.535 234.309 198.64C234.056 198.746 233.786 198.8 233.513 198.8ZM176.009 181.82C175.611 181.822 175.23 181.981 174.949 182.263C174.668 182.545 174.51 182.927 174.51 183.325V196.739C174.512 197.136 174.67 197.517 174.951 197.798C175.232 198.078 175.612 198.237 176.009 198.238H233.513C233.911 198.238 234.293 198.081 234.575 197.8C234.857 197.519 235.016 197.137 235.017 196.739V183.325C235.017 182.926 234.859 182.543 234.577 182.261C234.295 181.979 233.912 181.82 233.513 181.82H224.023C223.751 181.819 223.484 181.893 223.252 182.034C223.019 182.174 222.829 182.376 222.704 182.617C222.572 182.877 222.4 183.114 222.193 183.319C221.945 183.572 221.648 183.772 221.321 183.908C220.994 184.044 220.643 184.113 220.289 184.111H189.244C188.754 184.111 188.274 183.979 187.854 183.728C187.433 183.477 187.089 183.116 186.858 182.685C186.734 182.432 186.544 182.217 186.308 182.065C186.071 181.912 185.797 181.828 185.516 181.82H176.009Z" fill="#EBEBEB"/>
<path d="M235.579 209.232H173.949V204.246H235.579V209.232ZM174.51 208.671H235.017V204.808H174.51V208.671Z" fill="#EBEBEB"/>
<path d="M233.513 151.942H176.009C175.463 151.941 174.94 151.723 174.554 151.337C174.168 150.951 173.95 150.428 173.949 149.881V136.467C173.949 135.92 174.166 135.395 174.552 135.008C174.938 134.621 175.462 134.402 176.009 134.401H185.516C185.898 134.406 186.272 134.517 186.596 134.721C186.92 134.925 187.182 135.215 187.352 135.558C187.536 135.899 187.809 136.183 188.142 136.381C188.476 136.579 188.856 136.682 189.244 136.681H220.289C220.856 136.679 221.399 136.453 221.8 136.052C221.962 135.886 222.098 135.697 222.204 135.49C222.374 135.153 222.633 134.869 222.955 134.671C223.276 134.473 223.646 134.368 224.023 134.367H233.513C233.784 134.367 234.053 134.421 234.303 134.524C234.554 134.628 234.782 134.781 234.974 134.972C235.166 135.164 235.318 135.392 235.422 135.643C235.526 135.893 235.579 136.162 235.579 136.434V149.848C235.583 150.121 235.532 150.393 235.43 150.647C235.328 150.901 235.176 151.132 234.984 151.327C234.792 151.522 234.562 151.677 234.31 151.782C234.057 151.888 233.786 151.942 233.513 151.942ZM176.009 134.962C175.611 134.964 175.23 135.123 174.949 135.405C174.668 135.687 174.51 136.069 174.51 136.467V149.881C174.512 150.279 174.67 150.659 174.951 150.94C175.232 151.221 175.612 151.379 176.009 151.381H233.513C233.911 151.381 234.293 151.223 234.575 150.942C234.857 150.661 235.016 150.28 235.017 149.881V136.467C235.017 136.068 234.859 135.685 234.577 135.403C234.295 135.121 233.912 134.962 233.513 134.962H224.023C223.751 134.961 223.484 135.035 223.252 135.176C223.019 135.317 222.829 135.519 222.704 135.76C222.572 136.02 222.4 136.257 222.193 136.462C221.944 136.713 221.647 136.912 221.32 137.048C220.994 137.184 220.643 137.254 220.289 137.253H189.244C188.755 137.253 188.274 137.12 187.854 136.869C187.434 136.618 187.09 136.258 186.858 135.827C186.734 135.574 186.544 135.36 186.308 135.207C186.071 135.055 185.797 134.97 185.516 134.962H176.009Z" fill="#EBEBEB"/>
<path d="M244.411 125.109H167.43V126.508H244.411V125.109Z" fill="#F0F0F0"/>
<path d="M147.71 126.508H167.43V125.11H147.71V126.508Z" fill="#E6E6E6"/>
<path d="M227.651 44.3711H161.602V109.926H227.651V44.3711Z" fill="#E6E6E6"/>
<path d="M231.216 44.3711H162.275V109.926H231.216V44.3711Z" fill="#F0F0F0"/>
<path d="M228.033 106.748V47.5547L165.459 47.5547V106.748H228.033Z" fill="white"/>
<path d="M196.746 101.519C191.926 101.519 187.214 100.09 183.207 97.4125C179.199 94.7348 176.076 90.9289 174.231 86.476C172.387 82.0231 171.904 77.1233 172.845 72.3962C173.785 67.669 176.106 63.3269 179.514 59.9188C182.922 56.5107 187.264 54.1898 191.991 53.2495C196.719 52.3092 201.618 52.7918 206.071 54.6362C210.524 56.4807 214.33 59.6041 217.008 63.6116C219.685 67.6191 221.115 72.3306 221.115 77.1504C221.107 83.6112 218.537 89.8052 213.969 94.3737C209.4 98.9422 203.206 101.512 196.746 101.519ZM196.746 53.2024C192.009 53.2024 187.379 54.6069 183.441 57.2383C179.503 59.8698 176.433 63.61 174.621 67.9859C172.808 72.3618 172.334 77.1769 173.258 81.8224C174.182 86.4678 176.463 90.735 179.812 94.0841C183.161 97.4333 187.428 99.7141 192.074 100.638C196.719 101.562 201.534 101.088 205.91 99.2754C210.286 97.4628 214.026 94.3934 216.658 90.4552C219.289 86.5169 220.694 81.8868 220.694 77.1504C220.688 70.8008 218.163 64.713 213.673 60.2232C209.183 55.7333 203.095 53.2083 196.746 53.2024Z" fill="#F5F5F5"/>
<path d="M141 240.498C201.127 240.498 249.869 237.652 249.869 234.141C249.869 230.631 201.127 227.785 141 227.785C80.8733 227.785 32.1309 230.631 32.1309 234.141C32.1309 237.652 80.8733 240.498 141 240.498Z" fill="#F5F5F5"/>
<path d="M38.6836 202.326H176.189L186.072 116.781H48.5716L38.6836 202.326Z" fill="#053D38"/>
<path opacity="0.4" d="M38.6836 202.326H176.189L186.072 116.781H48.5716L38.6836 202.326Z" fill="white"/>
<path d="M203.198 205.532H65.6919L48.5718 116.781H186.072L203.198 205.532Z" fill="#053D38"/>
<path opacity="0.6" d="M203.198 205.532H65.6919L48.5718 116.781H186.072L203.198 205.532Z" fill="white"/>
<path d="M197.931 200.768H69.1169L55.2871 129.059H184.101L197.931 200.768Z" fill="white"/>
<g opacity="0.5">
<path d="M79.1453 146.449H65.6749L63.0752 132.973H76.5456L79.1453 146.449Z" fill="#053D38"/>
<path d="M180.423 146.449H166.947L164.353 132.973H177.823L180.423 146.449Z" fill="#053D38"/>
<path d="M163.539 146.449H150.068L147.469 132.973H160.945L163.539 146.449Z" fill="#053D38"/>
<path d="M146.66 146.449H133.19L130.59 132.973H144.066L146.66 146.449Z" fill="#053D38"/>
<path d="M129.782 146.449H116.311L113.711 132.973H127.182L129.782 146.449Z" fill="#053D38"/>
<path d="M112.903 146.449H99.4323L96.8325 132.973H110.303L112.903 146.449Z" fill="#053D38"/>
<path d="M96.0242 146.449H82.5538L79.9541 132.973H93.4245L96.0242 146.449Z" fill="#053D38"/>
<path opacity="0.5" d="M82.3851 163.248H68.9147L66.3149 149.777H79.7853L82.3851 163.248Z" fill="#053D38"/>
<path d="M183.663 163.248H170.193L167.593 149.777H181.063L183.663 163.248Z" fill="#053D38"/>
<path opacity="0.5" d="M166.784 163.248H153.314L150.714 149.777H164.184L166.784 163.248Z" fill="#053D38"/>
<path d="M149.906 163.248H136.43L133.835 149.777H147.306L149.906 163.248Z" fill="#053D38"/>
<path d="M133.021 163.248H119.551L116.951 149.777H130.427L133.021 163.248Z" fill="#053D38"/>
<path d="M116.142 163.248H102.672L100.072 149.777H113.543L116.142 163.248Z" fill="#053D38"/>
<path d="M99.264 163.248H85.7936L83.1938 149.777H96.6642L99.264 163.248Z" fill="#053D38"/>
<path d="M85.6248 180.049H72.1544L69.5547 166.578H83.0251L85.6248 180.049Z" fill="#053D38"/>
<path d="M186.903 180.049H173.432L170.833 166.578H184.303L186.903 180.049Z" fill="#053D38"/>
<path d="M170.024 180.049H156.554L153.954 166.578H167.424L170.024 180.049Z" fill="#053D38"/>
<path d="M153.145 180.049H139.675L137.075 166.578H150.546L153.145 180.049Z" fill="#053D38"/>
<path d="M136.267 180.049H122.791L120.197 166.578H133.667L136.267 180.049Z" fill="#053D38"/>
<path d="M119.383 180.049H105.912L103.312 166.578H116.788L119.383 180.049Z" fill="#053D38"/>
<path d="M102.504 180.049H89.0333L86.4336 166.578H99.904L102.504 180.049Z" fill="#053D38"/>
<path d="M88.865 196.855H75.3947L72.7949 183.379H86.2709L88.865 196.855Z" fill="#053D38"/>
<path d="M190.142 196.855H176.672L174.072 183.379H187.543L190.142 196.855Z" fill="#053D38"/>
<path d="M173.264 196.855H159.794L157.194 183.379H170.664L173.264 196.855Z" fill="#053D38"/>
<path d="M156.385 196.855H142.915L140.315 183.379H153.785L156.385 196.855Z" fill="#053D38"/>
<path d="M139.507 196.855H126.036L123.437 183.379H136.907L139.507 196.855Z" fill="#053D38"/>
<path d="M122.628 196.855H109.152L106.558 183.379H120.028L122.628 196.855Z" fill="#053D38"/>
<path opacity="0.5" d="M105.749 196.855H92.2733L89.6792 183.379H103.15L105.749 196.855Z" fill="#053D38"/>
</g>
<path d="M65.5288 122.872L65.3548 121.979C66.9438 121.979 67.831 119.599 67.2863 116.78C66.7417 113.961 64.9392 111.575 63.3558 111.575C61.7724 111.575 60.8796 113.961 61.4186 116.78H60.5315C59.8689 113.36 61.0368 110.688 63.1818 110.688C65.3267 110.688 67.5278 113.36 68.1847 116.78C68.8417 120.199 67.6737 122.872 65.5288 122.872Z" fill="#263238"/>
<path d="M78.8252 122.872L78.6511 121.979C80.2402 121.979 81.1274 119.599 80.5827 116.78C80.038 113.961 78.2356 111.575 76.6522 111.575C75.0688 111.575 74.176 113.961 74.715 116.78H73.8279C73.1653 113.36 74.3332 110.688 76.4781 110.688C78.6231 110.688 80.8242 113.36 81.4811 116.78C82.1381 120.199 80.9701 122.872 78.8252 122.872Z" fill="#263238"/>
<path d="M92.1494 122.872L91.9754 121.979C93.5644 121.979 94.4516 119.599 93.9069 116.78C93.3623 113.961 91.5599 111.575 89.9764 111.575C88.393 111.575 87.4946 113.961 88.0392 116.78H87.0959C86.4334 113.36 87.6013 110.688 89.7462 110.688C91.8911 110.688 94.0922 113.36 94.7492 116.78C95.4061 120.199 94.2663 122.872 92.1494 122.872Z" fill="#263238"/>
<path d="M105.412 122.872L105.244 121.979C106.833 121.979 107.72 119.599 107.175 116.78C106.631 113.961 104.828 111.575 103.245 111.575C101.661 111.575 100.769 113.961 101.313 116.78H100.42C99.7635 113.36 100.931 110.688 103.076 110.688C105.221 110.688 107.417 113.36 108.079 116.78C108.742 120.199 107.563 122.872 105.412 122.872Z" fill="#263238"/>
<path d="M118.709 122.872L118.54 121.979C120.129 121.979 121.016 119.599 120.472 116.78C119.927 113.961 118.125 111.575 116.541 111.575C114.958 111.575 114.065 113.961 114.61 116.78H113.717C113.06 113.36 114.228 110.688 116.373 110.688C118.518 110.688 120.713 113.36 121.376 116.78C122.038 120.199 120.859 122.872 118.709 122.872Z" fill="#263238"/>
<path d="M132.016 122.872L131.848 121.979C133.437 121.979 134.324 119.599 133.779 116.78C133.235 113.961 131.432 111.575 129.849 111.575C128.265 111.575 127.373 113.961 127.917 116.78H127.024C126.368 113.36 127.53 110.688 129.68 110.688C131.831 110.688 134.021 113.36 134.683 116.78C135.346 120.199 134.156 122.872 132.016 122.872Z" fill="#263238"/>
<path d="M145.301 122.872L145.133 121.979C146.722 121.979 147.609 119.599 147.064 116.78C146.52 113.961 144.717 111.575 143.134 111.575C141.551 111.575 140.658 113.961 141.202 116.78H140.31C139.653 113.36 140.815 110.688 142.966 110.688C145.116 110.688 147.306 113.36 147.968 116.78C148.631 120.199 147.452 122.872 145.301 122.872Z" fill="#263238"/>
<path d="M158.598 122.872L158.429 121.979C160.018 121.979 160.905 119.599 160.361 116.78C159.816 113.961 158.014 111.575 156.43 111.575C154.847 111.575 153.954 113.961 154.499 116.78H153.606C152.949 113.36 154.111 110.688 156.262 110.688C158.412 110.688 160.602 113.36 161.265 116.78C161.927 120.199 160.743 122.872 158.598 122.872Z" fill="#263238"/>
<path d="M171.882 122.872L171.714 121.979C173.303 121.979 174.19 119.599 173.646 116.78C173.101 113.961 171.298 111.575 169.715 111.575C168.132 111.575 167.239 113.961 167.783 116.78H166.891C166.234 113.36 167.396 110.688 169.547 110.688C171.697 110.688 173.887 113.36 174.544 116.78C175.201 120.199 174.039 122.872 171.882 122.872Z" fill="#263238"/>
<path d="M114.436 144.552H67.2023L64.6025 131.082H111.836L114.436 144.552Z" fill="#053D38"/>
<path d="M134.565 161.359H121.089L118.495 147.883H131.966L134.565 161.359Z" fill="#053D38"/>
<path d="M176.711 178.606L175.981 177.972C174.483 176.66 172.816 175.555 171.023 174.687L171.489 173.311C173.159 174.119 174.73 175.116 176.172 176.282C178.659 172.594 181.916 169.488 185.718 167.18L186.723 168.55C182.853 170.901 179.575 174.112 177.144 177.932L176.711 178.606Z" fill="#053D38"/>
<path d="M129.624 150.109H128.406L126.367 153.798L122.914 150.109H121.696L125.918 154.618L123.431 159.121H124.655L126.688 155.438L130.141 159.121H131.365L127.137 154.618L129.624 150.109Z" fill="white"/>
<path d="M154.594 182.381L156.84 194.066H145.161L142.915 182.381H154.6M155.324 181.488H141.848L144.448 194.964H157.924L155.33 181.488H155.324Z" fill="#053D38"/>
<path d="M120.915 178.158H90.566L87.9663 164.688H118.315L120.915 178.158Z" fill="#263238"/>
<path d="M100.011 170.059C100.092 170.372 100.098 170.699 100.03 171.015C99.9614 171.331 99.8201 171.626 99.6171 171.878C99.4141 172.13 99.1551 172.33 98.8608 172.464C98.5664 172.597 98.2449 172.66 97.9219 172.647C97.1928 172.62 96.4935 172.351 95.9343 171.882C95.3751 171.413 94.9878 170.772 94.8337 170.059C94.7541 169.746 94.7485 169.419 94.8173 169.103C94.8862 168.788 95.0276 168.493 95.2303 168.242C95.433 167.99 95.6915 167.79 95.9852 167.656C96.279 167.522 96.5999 167.458 96.9225 167.47C97.6513 167.498 98.3502 167.768 98.9092 168.236C99.4682 168.705 99.8557 169.346 100.011 170.059Z" fill="white"/>
<path d="M100.634 172.508C100.348 172.905 99.9695 173.226 99.5308 173.442C99.0922 173.658 98.6072 173.764 98.1184 173.749C97.0039 173.722 95.9391 173.282 95.1312 172.513C94.6313 172.784 94.2296 173.205 93.9835 173.717C93.7374 174.23 93.6596 174.807 93.7611 175.366H103.104C102.935 174.734 102.625 174.148 102.197 173.653C101.769 173.158 101.235 172.767 100.634 172.508Z" fill="white"/>
<path d="M115.856 170.582H105.525L105.238 169.094H115.57L115.856 170.582Z" fill="white"/>
<path d="M113.009 173.746H106.136L105.85 172.258H112.723L113.009 173.746Z" fill="white"/>
<path d="M167.256 132.337C169.918 132.337 173.685 132.725 176.532 134.583C177.049 134.888 177.5 135.294 177.858 135.776C178.216 136.258 178.473 136.807 178.615 137.391C179.115 139.598 177.941 142.006 176.644 143.315C174.595 145.381 171.406 146.684 167.66 146.942C167.234 146.976 166.796 146.993 166.363 146.993C163.726 146.969 161.117 146.451 158.671 145.465C156.262 144.505 153.707 143.219 152.988 140.715C152.801 140.138 152.743 139.526 152.82 138.925C152.897 138.323 153.106 137.745 153.432 137.234C153.856 136.584 154.418 136.036 155.077 135.628C158.188 133.704 161.733 132.593 165.386 132.399C166.009 132.36 166.638 132.337 167.256 132.337ZM167.088 131.473C166.419 131.473 165.774 131.473 165.167 131.54C161.388 131.739 157.719 132.886 154.499 134.875C153.759 135.336 153.128 135.953 152.651 136.683C152.271 137.29 152.027 137.973 151.939 138.685C151.851 139.396 151.92 140.117 152.14 140.799C152.983 143.708 155.863 145.218 158.48 146.257C161.037 147.291 163.767 147.832 166.526 147.852C166.981 147.852 167.43 147.852 167.879 147.807C171.439 147.548 174.988 146.336 177.324 143.977C179.66 141.619 181.148 136.616 176.908 133.87C174.05 132.023 170.311 131.473 167.082 131.473H167.088Z" fill="#263238"/>
<path d="M217.937 230.167L221.957 229.1L219.997 219.645L215.977 220.717L217.937 230.167Z" fill="#B55B52"/>
<path d="M222.086 228.36L217.644 229.82C217.569 229.841 217.504 229.891 217.465 229.96C217.426 230.028 217.416 230.109 217.437 230.185L218.38 233.773C218.439 233.958 218.569 234.112 218.742 234.202C218.915 234.291 219.115 234.308 219.301 234.25C220.839 233.689 221.547 233.38 223.501 232.74C224.703 232.341 227.611 231.448 229.268 230.904C230.924 230.359 230.346 228.736 229.593 228.815C226.224 229.186 224.253 228.888 222.855 228.383C222.609 228.287 222.337 228.279 222.086 228.36Z" fill="#263238"/>
<path opacity="0.2" d="M215.977 220.717L219.997 219.645L221.008 224.518L216.982 225.591L215.977 220.717Z" fill="black"/>
<path d="M205.668 124.355C205.668 124.355 211.283 158.242 212.967 170.062C214.792 183.004 221.625 221.939 221.625 221.939L214.887 224.488C214.887 224.488 204.135 186.21 201.164 173.627C197.936 159.966 190.827 124.355 190.827 124.355H205.668Z" fill="#263238"/>
<path opacity="0.3" d="M196.645 138.254C199.52 145.435 199.845 157.642 198.677 162.645C196.914 154.43 194.893 144.604 193.337 136.962C193.893 135.003 194.904 133.885 196.645 138.254Z" fill="black"/>
<path d="M214.585 225.446L222.406 223.099L222.182 219.898L212.872 222.622L214.585 225.446Z" fill="#263238"/>
<path d="M223.714 228.588C223.348 228.695 222.972 228.763 222.591 228.79C222.573 228.791 222.554 228.788 222.538 228.78C222.521 228.772 222.506 228.76 222.496 228.745C222.486 228.729 222.481 228.71 222.481 228.692C222.481 228.673 222.486 228.654 222.496 228.638C222.591 228.509 223.462 227.375 224.006 227.403C224.068 227.407 224.127 227.427 224.179 227.461C224.231 227.494 224.274 227.54 224.304 227.594C224.364 227.673 224.401 227.768 224.41 227.867C224.419 227.967 224.4 228.066 224.354 228.155C224.199 228.371 223.972 228.524 223.714 228.588ZM222.821 228.588C223.579 228.492 224.09 228.301 224.214 228.06C224.239 228.003 224.248 227.94 224.241 227.878C224.234 227.816 224.211 227.757 224.175 227.706C224.16 227.679 224.14 227.656 224.114 227.639C224.088 227.623 224.059 227.613 224.029 227.611C223.737 227.583 223.186 228.133 222.821 228.576V228.588Z" fill="#053D38"/>
<path d="M222.636 228.783C222.622 228.789 222.606 228.789 222.591 228.783C222.575 228.781 222.56 228.774 222.548 228.765C222.535 228.755 222.525 228.742 222.518 228.727C222.518 228.677 222.035 227.57 222.305 227.043C222.34 226.977 222.39 226.919 222.45 226.875C222.51 226.83 222.58 226.799 222.653 226.784C222.733 226.761 222.819 226.765 222.897 226.797C222.974 226.829 223.039 226.885 223.08 226.958C223.316 227.357 222.996 228.379 222.681 228.738C222.664 228.772 222.653 228.783 222.636 228.783ZM222.636 227.003C222.564 227.029 222.504 227.081 222.468 227.149C222.373 227.601 222.426 228.072 222.619 228.491C222.893 228.072 222.994 227.563 222.9 227.071C222.872 227.02 222.822 226.964 222.681 226.992L222.636 227.003Z" fill="#053D38"/>
<path d="M204.814 89.4728C204.977 89.7367 205.202 90.1073 205.409 90.4273L206.05 91.438C206.493 92.1062 206.931 92.7744 207.397 93.4314C208.312 94.7397 209.278 96.0087 210.278 97.2159C211.253 98.3962 212.307 99.5087 213.433 100.546C214.451 101.497 215.583 102.319 216.802 102.994L215.915 102.741C216.785 102.92 217.676 102.971 218.56 102.893C219.043 102.848 219.537 102.786 220.042 102.696C220.547 102.606 221.058 102.483 221.575 102.342C222.638 102.053 223.683 101.698 224.703 101.281C225.225 101.068 225.747 100.849 226.269 100.613C226.791 100.377 227.325 100.113 227.78 99.8999L227.931 99.8269C228.367 99.6184 228.867 99.5912 229.323 99.7512C229.779 99.9111 230.153 100.245 230.363 100.68C230.52 101.016 230.572 101.391 230.513 101.756C230.454 102.122 230.286 102.461 230.031 102.73C229.52 103.258 229.071 103.679 228.566 104.122C228.06 104.566 227.555 104.959 227.022 105.352C225.936 106.145 224.786 106.847 223.585 107.452C222.318 108.089 220.982 108.581 219.604 108.918C218.864 109.088 218.114 109.209 217.358 109.283C216.564 109.35 215.766 109.35 214.972 109.283C214.746 109.26 214.525 109.205 214.315 109.12L214.09 109.024C212.235 108.221 210.501 107.161 208.941 105.874C207.462 104.681 206.085 103.366 204.826 101.944C203.595 100.581 202.444 99.1488 201.378 97.6539C200.85 96.9052 200.341 96.1565 199.851 95.4079C199.609 95.0204 199.368 94.6386 199.132 94.2399C198.896 93.8413 198.683 93.4707 198.424 92.9878C197.946 92.1471 197.822 91.151 198.078 90.2186C198.335 89.2861 198.951 88.4937 199.792 88.0157C200.632 87.5377 201.628 87.4132 202.561 87.6696C203.493 87.926 204.286 88.5423 204.764 89.383L204.814 89.4728Z" fill="#263238"/>
<path opacity="0.3" d="M208.273 99.7402C206.084 95.2482 202.35 95.5065 200.845 96.8934L201.271 97.5167C202.291 98.9614 203.389 100.349 204.562 101.672C205.763 103.032 207.061 104.303 208.447 105.473C208.885 105.833 209.34 106.186 209.801 106.523C209.738 104.184 209.219 101.88 208.273 99.7402Z" fill="black"/>
<path d="M229.026 99.2477L231.834 96.9062L233.518 100.539C233.518 100.539 229.335 103.532 228.375 102.476L228.263 101.123C228.231 100.772 228.284 100.419 228.417 100.093C228.55 99.7664 228.759 99.4767 229.026 99.2477Z" fill="#B55B52"/>
<path d="M235.579 97.3511L236.46 100.159L233.496 100.524L231.822 96.8906L235.579 97.3511Z" fill="#B55B52"/>
<path d="M182.764 230.032H186.925L187.464 220.391H183.303L182.764 230.032Z" fill="#B55B52"/>
<path d="M187.144 229.547H182.467C182.428 229.546 182.389 229.552 182.352 229.565C182.315 229.579 182.282 229.6 182.253 229.626C182.224 229.653 182.201 229.685 182.185 229.72C182.169 229.756 182.159 229.794 182.158 229.833L181.928 233.534C181.928 233.728 182.004 233.915 182.141 234.054C182.277 234.193 182.463 234.272 182.658 234.275C184.286 234.247 185.067 234.151 187.122 234.151C188.385 234.151 191.872 234.281 193.618 234.281C195.364 234.281 195.303 232.551 194.578 232.394C191.254 231.698 189.036 230.709 187.84 229.805C187.644 229.643 187.399 229.552 187.144 229.547Z" fill="#263238"/>
<path opacity="0.2" d="M183.303 220.395H187.464L187.183 225.364H183.022L183.303 220.395Z" fill="black"/>
<path d="M197.537 124.355C197.537 124.355 197.178 160.522 196.504 172.442C195.763 185.492 188.969 224.162 188.969 224.162H181.344C181.344 224.162 184.668 186.542 184.207 173.627C183.708 159.59 183.404 124.355 183.404 124.355H197.537Z" fill="#263238"/>
<path d="M180.731 224.165H190.03L190.485 221.273L180.338 221.723L180.731 224.165Z" fill="#263238"/>
<path d="M188.615 230.271C188.237 230.263 187.86 230.214 187.492 230.125C187.473 230.122 187.456 230.113 187.443 230.099C187.429 230.086 187.42 230.069 187.416 230.05C187.413 230.031 187.415 230.012 187.422 229.994C187.43 229.977 187.442 229.962 187.458 229.951C187.593 229.856 188.767 229.053 189.278 229.255C189.335 229.277 189.386 229.313 189.425 229.361C189.464 229.408 189.491 229.464 189.502 229.525C189.529 229.615 189.532 229.711 189.511 229.804C189.49 229.896 189.447 229.982 189.384 230.052C189.163 230.217 188.89 230.295 188.615 230.271ZM187.773 229.985C188.52 230.131 189.07 230.109 189.261 229.918C189.303 229.872 189.332 229.815 189.345 229.754C189.358 229.692 189.354 229.629 189.334 229.57C189.329 229.539 189.316 229.51 189.297 229.486C189.277 229.463 189.251 229.445 189.222 229.435C188.952 229.328 188.256 229.676 187.773 229.985Z" fill="#053D38"/>
<path d="M187.531 230.126C187.517 230.132 187.501 230.132 187.486 230.126C187.472 230.119 187.459 230.108 187.45 230.094C187.441 230.08 187.436 230.064 187.436 230.048C187.436 229.997 187.335 228.801 187.756 228.397C187.81 228.345 187.875 228.306 187.946 228.283C188.017 228.259 188.092 228.252 188.166 228.262C188.249 228.265 188.328 228.295 188.392 228.348C188.456 228.401 188.501 228.473 188.52 228.554C188.615 229.009 187.992 229.879 187.582 230.126C187.565 230.131 187.548 230.131 187.531 230.126ZM188.093 228.442C188.015 228.442 187.941 228.472 187.885 228.526C187.654 228.925 187.558 229.387 187.61 229.845C187.975 229.542 188.385 228.88 188.323 228.582C188.323 228.526 188.278 228.458 188.138 228.442H188.093Z" fill="#053D38"/>
<path d="M203.916 90.5383C203.706 89.8362 203.31 89.2042 202.769 88.7097C202.228 88.2153 201.563 87.8769 200.845 87.7308C199.818 87.4881 198.777 87.3099 197.728 87.1974C194.577 87.0175 191.418 87.0175 188.267 87.1974C186.616 87.276 184.932 87.4781 183.59 87.6746H183.539C183.186 87.7243 182.847 87.8444 182.542 88.0279C182.236 88.2113 181.971 88.4544 181.761 88.7425C181.552 89.0306 181.402 89.358 181.322 89.7051C181.242 90.0522 181.232 90.4119 181.293 90.7629C182.351 96.3474 183.043 101.995 183.365 107.67C183.691 115.907 183.247 122.375 183.404 124.363H205.668C207.021 104.256 205.275 95.1201 203.916 90.5383Z" fill="#E6E6E6"/>
<path d="M188.896 86.8281C190.648 93.9367 192.265 111.95 192.237 126.032H182.826C182.658 123.932 183.129 117.115 182.787 108.429C182.449 102.457 181.727 96.5138 180.625 90.6351C180.561 90.2667 180.571 89.8892 180.655 89.5248C180.739 89.1603 180.895 88.8164 181.113 88.513C181.332 88.2096 181.609 87.953 181.928 87.7581C182.247 87.5633 182.602 87.4342 182.972 87.3784H183.023C184.438 87.1706 186.212 86.9573 187.953 86.873L188.896 86.8281Z" fill="#263238"/>
<path d="M205.061 90.6402C204.822 89.8642 204.386 89.1632 203.795 88.6054C203.205 88.0475 202.481 87.6518 201.692 87.4565C200.204 87.2226 198.705 87.0689 197.2 86.9961C198.98 93.1726 202.473 111.988 201.434 126.032H207.375C208.784 104.958 206.386 94.4921 205.061 90.6402Z" fill="#263238"/>
<path d="M239.762 110.106L195.466 129.062L190.143 116.687L234.445 97.7305L239.762 110.106Z" fill="#053D38"/>
<path d="M202.377 117.3C202.579 117.771 202.636 118.29 202.542 118.793C202.449 119.296 202.208 119.76 201.85 120.127C201.493 120.493 201.035 120.745 200.534 120.851C200.034 120.957 199.513 120.913 199.038 120.723C198.562 120.533 198.154 120.207 197.864 119.785C197.574 119.363 197.416 118.865 197.409 118.353C197.403 117.841 197.548 117.339 197.826 116.91C198.105 116.481 198.504 116.144 198.975 115.941C199.287 115.807 199.623 115.735 199.964 115.731C200.304 115.726 200.642 115.789 200.958 115.915C201.274 116.041 201.562 116.229 201.805 116.466C202.049 116.704 202.243 116.987 202.377 117.3Z" fill="white"/>
<path d="M203.495 119.488C203.33 119.981 203.063 120.433 202.711 120.815C202.36 121.196 201.931 121.5 201.454 121.704C200.977 121.909 200.462 122.01 199.943 122.002C199.423 121.994 198.912 121.876 198.442 121.656C198.043 122.108 197.773 122.66 197.661 123.253C197.548 123.845 197.597 124.457 197.801 125.025L206.392 121.352C206.122 120.81 205.71 120.35 205.2 120.022C204.69 119.694 204.101 119.51 203.495 119.488Z" fill="white"/>
<path d="M233.462 104.569L207.571 115.648L206.987 114.278L232.878 103.199L233.462 104.569Z" fill="white"/>
<path d="M231.536 108.831L208.823 118.551L208.234 117.181L230.947 107.461L231.536 108.831Z" fill="white"/>
<path opacity="0.3" d="M185.734 97.8416C185.577 93.1194 182.09 91.317 181.108 92.586C181.064 92.6373 181.025 92.6917 180.99 92.7488C181.602 96.3873 182.349 101.396 182.674 106.331C184.331 105.377 185.88 102.328 185.734 97.8416Z" fill="black"/>
<path d="M197.279 87.1841C194.528 86.5328 194.045 84.8314 194.23 82.9617C194.274 82.4933 194.347 82.0282 194.449 81.5691L191.002 78.7055L188.469 76.6055C189.171 79.6544 189.963 85.2077 187.908 87.2403C187.908 87.2403 189.592 90.0478 194.326 89.8007C198.273 89.5817 197.279 87.1841 197.279 87.1841Z" fill="#B55B52"/>
<path d="M192.433 92.3123C192.758 91.3765 193.288 90.525 193.983 89.8192C191.87 89.1258 189.947 87.9492 188.368 86.3828L186.925 86.9443C186.925 86.9443 187.436 90.6109 192.433 92.3123Z" fill="white"/>
<path d="M196.285 91.6836C195.66 90.9044 194.875 90.2687 193.983 89.8195C195.37 89.4264 195.909 86.6133 195.909 86.6133L197.262 86.894C197.262 86.894 199.761 90.5606 196.285 91.6836Z" fill="white"/>
<path opacity="0.2" d="M194.449 81.5707C194.347 82.0298 194.274 82.4949 194.23 82.9632C192.944 82.7049 191.226 81.3348 191.047 80.0209C190.983 79.5859 190.968 79.1453 191.002 78.707L194.449 81.5707Z" fill="black"/>
<path d="M196.055 66.5974C197.79 66.2829 199.811 68.1022 198.862 71.7968C197.913 75.4915 193.405 67.0746 196.055 66.5974Z" fill="#263238"/>
<path d="M187.425 72.2206C188.306 76.269 188.615 78.6778 191.007 80.5251C191.778 81.1332 192.7 81.519 193.674 81.6408C194.648 81.7626 195.637 81.6159 196.534 81.2164C197.431 80.8169 198.201 80.1798 198.762 79.3742C199.323 78.5685 199.653 77.6248 199.716 76.6452C200.03 72.8775 198.542 66.8919 194.281 65.7465C193.365 65.4736 192.394 65.4463 191.464 65.6674C190.535 65.8885 189.68 66.3502 188.985 67.0061C188.291 67.662 187.781 68.4891 187.507 69.4044C187.233 70.3197 187.205 71.2909 187.425 72.2206Z" fill="#B55B52"/>
<path d="M189.053 76.6073C189.648 75.2036 190.176 71.2955 189.693 69.6728C191.63 69.611 195.701 69.2517 197.397 67.365C200.002 64.4677 196.566 61.0425 192.242 63.7714C189.435 65.5289 183.376 65.1808 184.381 67.1404C181.428 70.3915 184.746 74.0637 189.053 76.6073Z" fill="#263238"/>
<path d="M184.376 67.2876C184.355 67.2875 184.335 67.2828 184.317 67.2741C184.298 67.2654 184.282 67.2528 184.269 67.2371C183.91 66.7935 183.797 66.4229 183.921 66.1141C184.218 65.3729 185.763 65.1708 187.543 64.9462C189.227 64.7328 191.091 64.4914 191.686 63.7333C191.713 63.7089 191.748 63.6953 191.785 63.6953C191.821 63.6953 191.856 63.7089 191.883 63.7333C191.896 63.7459 191.907 63.7612 191.914 63.7781C191.922 63.795 191.926 63.8132 191.926 63.8316C191.926 63.85 191.922 63.8682 191.914 63.8851C191.907 63.902 191.896 63.9173 191.883 63.9299C191.215 64.7777 189.356 65.0136 187.559 65.2438C186.004 65.4459 184.398 65.648 184.19 66.2432C184.106 66.4566 184.19 66.743 184.488 67.0967C184.514 67.123 184.528 67.1582 184.528 67.195C184.528 67.2317 184.514 67.267 184.488 67.2932C184.451 67.3043 184.411 67.3023 184.376 67.2876Z" fill="#263238"/>
<path d="M186.802 75.488C187.285 76.244 188.015 76.8095 188.868 77.0883C189.952 77.414 190.322 76.4145 189.884 75.3589C189.486 74.4043 188.441 73.0848 187.425 73.2252C186.409 73.3656 186.19 74.5391 186.802 75.488Z" fill="#B55B52"/>
<path d="M193.219 72.6262C193.27 72.9575 193.489 73.1877 193.708 73.1877C193.927 73.1877 194.056 72.8733 194.006 72.542C193.955 72.2107 193.736 71.9805 193.517 71.9805C193.298 71.9805 193.169 72.2949 193.219 72.6262Z" fill="#263238"/>
<path d="M196.987 72.1787C197.037 72.51 197.256 72.7402 197.475 72.7402C197.694 72.7402 197.829 72.4201 197.773 72.0888C197.717 71.7576 197.503 71.5273 197.29 71.5273C197.077 71.5273 196.936 71.8474 196.987 72.1787Z" fill="#263238"/>
<path d="M196.409 72.4844C196.966 73.454 197.649 74.3453 198.441 75.1347C198.234 75.3241 197.988 75.4655 197.72 75.549C197.452 75.6325 197.17 75.6559 196.892 75.6175L196.409 72.4844Z" fill="#A02724"/>
<path d="M195.668 76.6791C195.278 76.6843 194.892 76.6104 194.532 76.4618C194.172 76.3131 193.846 76.0929 193.573 75.8144C193.565 75.8048 193.558 75.7936 193.554 75.7815C193.55 75.7694 193.548 75.7566 193.549 75.7438C193.55 75.7311 193.553 75.7186 193.559 75.7071C193.564 75.6956 193.572 75.6853 193.582 75.6768C193.591 75.6683 193.602 75.6618 193.615 75.6576C193.627 75.6535 193.639 75.6517 193.652 75.6525C193.665 75.6533 193.678 75.6566 193.689 75.6622C193.701 75.6678 193.711 75.6756 193.719 75.6852C194.022 75.9801 194.387 76.2029 194.787 76.3371C195.188 76.4712 195.614 76.5133 196.033 76.4601C196.046 76.4577 196.059 76.458 196.072 76.461C196.085 76.464 196.097 76.4697 196.107 76.4776C196.118 76.4855 196.127 76.4955 196.133 76.507C196.14 76.5185 196.144 76.5312 196.145 76.5443C196.147 76.5569 196.146 76.5696 196.142 76.5818C196.139 76.594 196.133 76.6053 196.125 76.6153C196.117 76.6252 196.108 76.6335 196.097 76.6396C196.085 76.6457 196.073 76.6496 196.061 76.651C195.93 76.6683 195.799 76.6777 195.668 76.6791Z" fill="#263238"/>
<path d="M191.99 71.5535C191.956 71.5512 191.924 71.5416 191.894 71.5254C191.872 71.5126 191.852 71.4955 191.836 71.4749C191.82 71.4544 191.809 71.431 191.802 71.4059C191.795 71.3808 191.793 71.3547 191.797 71.3289C191.8 71.3032 191.808 71.2784 191.821 71.2559C191.966 70.9823 192.176 70.7485 192.433 70.5751C192.689 70.4018 192.985 70.2943 193.293 70.2621C193.318 70.2605 193.344 70.2641 193.369 70.2726C193.393 70.2811 193.416 70.2944 193.435 70.3116C193.454 70.3288 193.47 70.3496 193.481 70.3729C193.492 70.3962 193.499 70.4215 193.5 70.4474C193.502 70.4732 193.498 70.499 193.49 70.5235C193.481 70.5479 193.468 70.5704 193.451 70.5897C193.434 70.609 193.413 70.6247 193.389 70.6359C193.366 70.6472 193.341 70.6537 193.315 70.6551C193.073 70.6838 192.841 70.7715 192.64 70.9105C192.44 71.0495 192.276 71.2356 192.164 71.4524C192.147 71.4834 192.122 71.5092 192.091 71.5269C192.06 71.5447 192.025 71.5539 191.99 71.5535Z" fill="#263238"/>
<path d="M198.677 70.6962C198.645 70.6964 198.613 70.6882 198.584 70.6725C198.556 70.6568 198.532 70.634 198.514 70.6064C198.378 70.394 198.195 70.2158 197.979 70.0853C197.762 69.9549 197.519 69.8758 197.268 69.854C197.216 69.854 197.166 69.8333 197.129 69.7964C197.092 69.7596 197.071 69.7096 197.071 69.6575C197.071 69.6053 197.092 69.5554 197.129 69.5185C197.166 69.4816 197.216 69.4609 197.268 69.4609C197.584 69.483 197.89 69.5782 198.163 69.739C198.436 69.8997 198.668 70.1217 198.84 70.3874C198.868 70.4316 198.878 70.485 198.868 70.5363C198.857 70.5876 198.827 70.6329 198.784 70.6625C198.752 70.6839 198.715 70.6956 198.677 70.6962Z" fill="#263238"/>
<path d="M186.246 93.4913L186.206 93.553L186.111 93.7102L185.909 94.064C185.768 94.3167 185.634 94.575 185.499 94.8445C185.24 95.406 184.988 95.9675 184.763 96.529C184.315 97.705 183.958 98.914 183.696 100.145C183.175 102.687 183.022 105.291 183.242 107.877C183.272 108.421 183.345 108.962 183.461 109.494C183.589 110.032 183.767 110.556 183.994 111.061C184.515 112.212 185.153 113.307 185.897 114.329C187.537 116.546 189.371 118.613 191.378 120.505L191.456 120.584C191.769 120.887 191.962 121.293 192.001 121.726C192.039 122.16 191.921 122.593 191.668 122.947C191.414 123.302 191.042 123.553 190.619 123.656C190.196 123.759 189.75 123.707 189.362 123.509C187.954 122.789 186.605 121.957 185.33 121.022C184.033 120.085 182.811 119.048 181.675 117.922C180.469 116.723 179.414 115.383 178.531 113.93C178.046 113.139 177.641 112.302 177.323 111.431C177.013 110.55 176.786 109.642 176.644 108.719C176.353 107.094 176.203 105.446 176.195 103.795C176.169 102.123 176.295 100.452 176.571 98.803C176.849 97.1291 177.287 95.4857 177.879 93.8955C178.181 93.0851 178.528 92.2922 178.918 91.5204C179.12 91.1273 179.328 90.7399 179.564 90.3525C179.682 90.1559 179.805 89.9594 179.934 89.7573L180.142 89.4541L180.423 89.0666C181.017 88.327 181.876 87.8479 182.818 87.731C183.76 87.614 184.71 87.8684 185.467 88.4402C186.224 89.012 186.729 89.8562 186.874 90.7939C187.02 91.7316 186.794 92.689 186.246 93.4632V93.4913Z" fill="#263238"/>
<path d="M192.568 120.549L194.887 120.426L192.198 124.918C192.198 124.918 188.447 124.441 188.829 122.526L189.351 121.964C190.205 121.101 191.355 120.596 192.568 120.549Z" fill="#B55B52"/>
<path d="M197.29 122.037L195.269 126.81L192.197 124.935L194.887 120.426L197.29 122.037Z" fill="#B55B52"/>
</g>
<defs>
<clipPath id="clip0_579_17990">
<rect width="280.75" height="280.75" fill="white" transform="translate(0.625 0.421875)"/>
</clipPath>
</defs>
</svg>
