<svg width="179" height="171" viewBox="0 0 179 171" fill="none" xmlns="http://www.w3.org/2000/svg">
<path d="M22.5255 39.0331L23.3478 37.691C29.9588 26.9363 41.8598 20.4144 54.4729 21.0516C56.2516 21.1417 58.0204 21.3714 59.7631 21.7387C71.3651 24.1915 81.4613 32.8565 85.6479 43.9495C88.1078 50.4785 88.7949 57.9902 93.4799 63.1735C99.5568 69.9161 109.877 70.1262 118.948 69.8485C128.019 69.5708 138.347 69.8058 144.395 76.5734C148.186 80.8133 149.379 86.8404 149.083 92.5186C148.275 107.545 137.67 120.999 124.163 127.663C110.657 134.327 94.7971 134.94 80.0195 132.003C59.343 127.887 39.6776 116.581 27.8584 99.1224C16.0392 81.6642 13.0666 57.8798 22.5255 39.0331Z" fill="#F5F5F5"/>
<path d="M9.98009 141.832C9.98009 141.885 45.5801 141.928 89.4963 141.928C133.412 141.928 169.02 141.896 169.02 141.832C169.02 141.768 133.42 141.739 89.4963 141.739C45.573 141.739 9.98009 141.782 9.98009 141.832Z" fill="#263238"/>
<path d="M66.1108 55.5518C65.9162 52.2553 65.7192 48.9587 65.5199 45.6622C65.495 45.2634 65.4344 44.8042 65.0927 44.5942C64.9261 44.5285 64.747 44.5008 64.5684 44.5131C64.3898 44.5254 64.2162 44.5774 64.0603 44.6654C58.2148 47.0185 53.925 53.5404 53.4123 59.8167" fill="#709312"/>
<g opacity="0.3">
<path d="M64.1245 48.0118C62.7553 48.909 61.6122 50.1108 60.7846 51.5232C59.9571 52.9357 59.4675 54.5204 59.3541 56.1535C59.2893 56.5481 59.373 56.9527 59.5891 57.2891C59.7 57.4098 59.8348 57.506 59.985 57.5716C60.1352 57.6371 60.2974 57.6707 60.4613 57.67C60.7895 57.6665 61.1156 57.6161 61.4296 57.5205C62.2164 57.3176 63.0458 57.0969 63.6297 56.5273C64.1633 55.9616 64.4689 55.2186 64.4876 54.4411C64.5018 53.6702 64.4229 52.9005 64.2527 52.1485L63.2559 53.8502L64.3239 48.3393C64.3407 48.2909 64.3468 48.2394 64.3419 48.1884C64.337 48.1374 64.3211 48.0881 64.2954 48.0438C64.2349 47.9655 64.064 47.994 64.0747 48.0936" fill="white"/>
</g>
<path d="M99.9984 62.5722C103.049 58.9502 104.803 54.4135 104.982 49.6814L101.725 51.2158L102.54 50.2225C97.7869 50.6188 93.3761 52.8555 90.2476 56.4561" fill="#709312"/>
<g opacity="0.3">
<path d="M98.1937 61.1339C99.473 60.2042 100.548 59.0218 101.352 57.6599C102.156 56.2981 102.672 54.7858 102.868 53.2165C102.893 53.0029 102.868 52.7216 102.669 52.6504C102.594 52.6374 102.518 52.6412 102.445 52.6616C102.373 52.6819 102.305 52.7182 102.249 52.7679L96.371 56.6092C96.6263 56.2427 96.7854 55.8179 96.8338 55.3739L94.3418 57.2001C94.2472 57.2528 94.1638 57.3236 94.0966 57.4085C94.0294 57.4934 93.9797 57.5908 93.9502 57.695C93.9489 57.8121 93.9757 57.9279 94.0284 58.0326C94.081 58.1373 94.158 58.2278 94.2528 58.2966C94.6679 58.6714 95.1732 58.932 95.7192 59.053C96.2651 59.1741 96.8332 59.1514 97.3678 58.9872L96.2998 59.9164C96.6179 60.1219 96.9742 60.2609 97.3474 60.3251C97.7206 60.3894 98.1029 60.3775 98.4714 60.2902C98.5075 60.4658 98.4901 60.6481 98.4216 60.8137C98.3531 60.9793 98.2365 61.1206 98.0869 61.2194" fill="white"/>
</g>
<path d="M33.6079 93.6403C33.6079 93.6403 29.0511 98.3502 26.9792 97.9586C26.9792 97.9586 34.1775 90.301 37.2035 83.2344C38.6488 79.8927 40.3707 76.6775 42.3512 73.6224C40.9878 71.2728 39.7738 68.6135 39.2184 65.9257C40.7489 67.7008 42.4936 69.2792 44.4125 70.6249C44.5691 70.4042 44.7293 70.187 44.8931 69.9663C43.2829 68.5095 42.2096 66.5534 41.8457 64.4127L49.0405 64.103C48.8152 63.7787 48.6118 63.4398 48.4317 63.0884C51.9661 60.0506 55.9235 57.543 60.1797 55.6444C68.4567 50.9345 86.8797 49.3788 95.8509 57.0364C103.886 61.7213 106.04 67.7164 112.369 69.2009L116.122 68.7915C116.122 68.7915 117.581 76.6235 112.786 80.123L116.346 79.297C116.346 79.297 115.691 82.4156 112.188 85.8546L114.374 85.5876C114.374 85.5876 113.427 90.4932 110.401 91.6716C110.401 91.6716 115.128 92.2626 116.453 90.4932C116.453 90.4932 118.026 97.8269 110.867 100.593C110.867 100.593 132.32 103.106 126.289 129.368C124.865 135.502 116.41 139.917 106.673 142.049L36.5413 141.775C32.2693 140.38 27.1714 126.225 26.9827 120.533C26.794 114.84 29.6278 103.843 29.6278 103.843L26.972 107.378L33.6079 93.6403Z" fill="#709312"/>
<path d="M113.765 104.584C117.791 104.342 121.747 107.471 122.434 111.447C119.814 109.71 116.823 108.612 113.701 108.243C114.93 109.374 115.787 110.852 116.158 112.481C116.529 114.11 116.396 115.813 115.776 117.364C115.257 115.977 114.462 114.71 113.439 113.64C112.416 112.57 111.186 111.719 109.824 111.138C110.754 112.26 111.379 113.603 111.639 115.037C111.898 116.472 111.783 117.949 111.305 119.326" fill="#709312"/>
<path d="M111.305 119.333C111.329 119.286 111.348 119.237 111.362 119.187C111.394 119.091 111.451 118.948 111.508 118.76C111.665 118.199 111.762 117.624 111.8 117.044C111.854 116.126 111.762 115.205 111.526 114.317C111.216 113.141 110.654 112.048 109.877 111.113L109.795 111.223C111.144 111.806 112.362 112.654 113.375 113.718C114.389 114.782 115.178 116.039 115.694 117.414L115.773 117.628L115.858 117.418C116.288 116.334 116.488 115.173 116.443 114.008C116.398 112.843 116.11 111.701 115.598 110.654C115.147 109.729 114.524 108.899 113.761 108.208L113.69 108.368C116.797 108.735 119.776 109.819 122.391 111.536L122.547 111.64L122.512 111.455C122.354 110.595 122.053 109.769 121.622 109.009C121.24 108.32 120.76 107.691 120.198 107.14C119.299 106.23 118.213 105.528 117.015 105.082C116.249 104.795 115.443 104.627 114.626 104.584C114.342 104.584 114.124 104.584 113.982 104.584C114.128 104.584 114.338 104.584 114.623 104.584C115.432 104.646 116.227 104.827 116.983 105.121C118.161 105.574 119.226 106.278 120.105 107.183C120.653 107.729 121.119 108.351 121.49 109.03C121.908 109.778 122.199 110.59 122.352 111.433L122.476 111.351C119.843 109.614 116.841 108.516 113.708 108.147L113.42 108.115L113.637 108.307C114.376 108.984 114.98 109.794 115.417 110.696C115.921 111.722 116.204 112.841 116.25 113.983C116.295 115.124 116.101 116.263 115.68 117.325H115.844C115.28 115.834 114.401 114.482 113.266 113.363C112.279 112.386 111.114 111.606 109.835 111.066L109.564 110.953L109.753 111.177C110.523 112.094 111.086 113.168 111.401 114.324C111.642 115.201 111.744 116.11 111.704 117.019C111.676 117.594 111.59 118.166 111.447 118.724C111.401 118.916 111.351 119.062 111.326 119.158C111.313 119.216 111.306 119.274 111.305 119.333Z" fill="#263238"/>
<path d="M40.2544 115.63C38.0809 115.171 35.8154 115.474 33.8391 116.488C31.8628 117.503 30.2964 119.168 29.4035 121.202" fill="#709312"/>
<path d="M29.4035 121.202C29.4391 121.22 29.7132 120.525 30.4074 119.561C31.3121 118.303 32.5027 117.278 33.8811 116.571C35.2595 115.863 36.7862 115.493 38.3355 115.492C39.5246 115.492 40.2508 115.67 40.2544 115.63C40.0919 115.571 39.9237 115.53 39.7524 115.506C39.2828 115.417 38.8063 115.37 38.3284 115.363C36.7514 115.328 35.1904 115.686 33.7868 116.406C32.3832 117.126 31.1813 118.184 30.2899 119.486C30.0189 119.876 29.7808 120.288 29.5779 120.718C29.5016 120.872 29.443 121.034 29.4035 121.202Z" fill="#263238"/>
<g opacity="0.3">
<path d="M64.9823 121.547C67.5668 121.96 70.8563 123.914 72.056 126.232C72.3123 126.727 72.0773 126.794 72.056 127.35C72.0556 127.63 71.9767 127.904 71.8282 128.141C71.6796 128.378 71.4675 128.569 71.2158 128.692C71.0883 128.744 70.9513 128.768 70.8137 128.764C70.6761 128.759 70.5411 128.726 70.4172 128.666C70.2934 128.605 70.1835 128.52 70.0948 128.415C70.0061 128.309 69.9404 128.187 69.9022 128.055C70.2109 129.951 69.7967 131.895 68.7416 133.501C68.0145 133.091 67.4287 132.471 67.0613 131.721C67.1289 133.112 66.9111 134.502 66.4213 135.806C65.9315 137.109 65.1801 138.298 64.2133 139.301L65.4736 134.384C65.9257 132.604 66.3636 131.091 66.2425 129.265C66.1144 127.314 64.9538 125.669 64.0531 124.053C65.292 124.591 66.7267 127.026 67.9477 128.51C68.0209 127.218 67.7997 125.927 67.3008 124.733C66.8019 123.539 66.0383 122.474 65.0677 121.618" fill="black"/>
</g>
<path d="M65.4665 134.441C65.5073 134.375 65.5407 134.305 65.5662 134.231C65.6196 134.089 65.7228 133.875 65.8083 133.601C66.0754 132.802 66.2369 131.972 66.2889 131.131C66.3732 129.85 66.2224 128.565 65.8439 127.339C65.3783 125.781 64.5471 124.357 63.4195 123.185L63.2949 123.313C64.3355 124.246 65.3231 125.236 66.2533 126.278C66.8542 126.964 67.3849 127.708 67.8375 128.5L67.9763 128.745L68.0084 128.468C68.1658 127 67.8989 125.517 67.2394 124.196C66.6934 123.076 65.8819 122.107 64.8755 121.373L64.8079 121.494C65.5153 121.757 66.1638 122.158 66.7161 122.672C67.1326 123.058 67.4922 123.502 67.7841 123.989C67.9692 124.3 68.1287 124.625 68.2611 124.961C68.299 125.082 68.3442 125.201 68.3964 125.317C68.4004 125.286 68.4004 125.255 68.3964 125.225C68.3786 125.161 68.3572 125.068 68.3181 124.95C68.2008 124.603 68.0494 124.268 67.866 123.95C67.5775 123.448 67.2177 122.99 66.798 122.59C66.2392 122.06 65.581 121.645 64.8613 121.369L64.3843 121.188L64.7972 121.49C65.7682 122.222 66.5485 123.177 67.0721 124.274C67.706 125.568 67.9614 127.014 67.809 128.446L67.9799 128.411C67.5211 127.609 66.9845 126.854 66.3779 126.157C65.4425 125.109 64.4476 124.115 63.3982 123.181L63.2735 123.309C64.3846 124.459 65.209 125.854 65.6801 127.382C66.0625 128.59 66.2241 129.858 66.1572 131.124C66.116 131.958 65.9737 132.784 65.7335 133.583C65.6552 133.865 65.5626 134.071 65.5199 134.217C65.4974 134.291 65.4795 134.366 65.4665 134.441Z" fill="#263238"/>
<path d="M107.706 134.064C106.308 135.616 104.468 136.701 102.434 137.176C102.323 137.22 102.203 137.234 102.085 137.218C101.967 137.202 101.855 137.155 101.761 137.083C101.554 136.855 101.725 136.496 101.896 136.243L104.157 132.904C102.547 134.175 100.639 135.014 98.6138 135.339C98.2756 135.392 97.8591 135.392 97.6882 135.1C97.6395 134.972 97.6215 134.834 97.6357 134.697C97.6499 134.56 97.6959 134.429 97.7701 134.313C98.1261 133.551 98.4821 132.8 98.9022 132.067" fill="#709312"/>
<path d="M98.9018 132.053C98.8583 132.108 98.8213 132.167 98.7915 132.231L98.5067 132.765C98.3785 133.003 98.2325 133.288 98.0617 133.612C97.9715 133.778 97.8789 133.956 97.784 134.146C97.6655 134.346 97.5892 134.567 97.5597 134.797C97.5498 134.935 97.5903 135.072 97.6736 135.182C97.7651 135.291 97.8904 135.366 98.0296 135.396C98.3048 135.438 98.5856 135.424 98.8555 135.356C99.4439 135.255 100.024 135.109 100.589 134.918C101.9 134.481 103.125 133.82 104.21 132.964L104.075 132.839L103.683 133.42L102.423 135.285L101.821 136.172C101.714 136.324 101.636 136.494 101.59 136.674C101.562 136.773 101.567 136.878 101.604 136.974C101.64 137.07 101.706 137.152 101.793 137.208C101.96 137.292 102.152 137.312 102.334 137.265C102.501 137.236 102.651 137.186 102.807 137.151C103.117 137.062 103.412 136.969 103.69 136.862C104.21 136.667 104.712 136.429 105.192 136.15C105.889 135.75 106.533 135.266 107.111 134.708C107.314 134.509 107.467 134.352 107.56 134.235C107.613 134.18 107.661 134.119 107.702 134.053C107.64 134.098 107.582 134.149 107.531 134.206C107.428 134.313 107.271 134.466 107.061 134.655C106.471 135.186 105.822 135.65 105.128 136.036C104.65 136.304 104.151 136.532 103.637 136.72C103.359 136.823 103.067 136.912 102.764 136.998C102.462 137.083 102.124 137.2 101.882 137.065C101.825 137.027 101.783 136.972 101.761 136.908C101.739 136.843 101.739 136.774 101.761 136.709C101.802 136.552 101.874 136.405 101.971 136.275C102.166 135.986 102.366 135.691 102.572 135.392C102.98 134.787 103.402 134.165 103.836 133.527L104.228 132.946L104.584 132.448L104.096 132.818C102.561 134.033 100.752 134.854 98.8271 135.21C98.5765 135.277 98.3152 135.294 98.0581 135.26C97.9496 135.246 97.8505 135.191 97.7811 135.106C97.7116 135.022 97.677 134.914 97.6843 134.805C97.7089 134.589 97.7767 134.381 97.8837 134.192C97.9762 134.004 98.0652 133.836 98.1471 133.655L98.5636 132.797L98.8199 132.248C98.856 132.187 98.8835 132.121 98.9018 132.053Z" fill="#263238"/>
<g opacity="0.3">
<path d="M98.9234 111.914C98.1366 113.241 96.985 114.315 95.6055 115.007C95.6843 114.276 95.9878 113.587 96.4742 113.035C94.9719 114.466 93.1919 115.574 91.2445 116.289C92.0737 116.658 92.9788 116.825 93.8852 116.776C94.7916 116.727 95.6733 116.463 96.4577 116.006C97.2421 115.549 97.9066 114.912 98.3966 114.148C98.8866 113.384 99.188 112.515 99.2759 111.611" fill="black"/>
</g>
<g opacity="0.3">
<path d="M108.45 88.7132C105.623 94.1494 96.481 96.8336 89.3111 96.9511C87.0968 96.9831 83.9711 98.6207 81.7782 98.4071C76.8547 97.9336 72.8568 95.2814 67.9227 94.8471C64.8504 94.5872 61.7603 94.4911 58.7236 93.9749C55.6869 93.4587 55.8258 93.0992 53.4121 91.1803C50.9984 89.2615 48.389 87.3604 48.4281 84.2775C52.9636 89.8311 57.4456 91.5506 64.4268 93.1775C71.4079 94.8044 78.6667 94.7688 85.8259 94.4377C93.7042 94.0817 101.974 93.2131 108.45 88.7097" fill="black"/>
</g>
<path d="M84.1277 47.0185C84.0957 47.0185 84.0672 47.4208 83.9604 48.058C83.8194 48.8874 83.5927 49.6998 83.284 50.4824C82.9682 51.2635 82.5734 52.0102 82.1057 52.711C81.8926 52.9901 81.6942 53.28 81.5111 53.5796C81.5111 53.5796 81.593 53.5191 81.7176 53.3838C81.8949 53.195 82.0602 52.9952 82.2125 52.7857C82.7189 52.097 83.1364 51.347 83.4549 50.5536C83.7741 49.7542 83.9872 48.9164 84.0886 48.0616C84.1221 47.8054 84.1411 47.5475 84.1455 47.2891C84.1527 47.1985 84.1467 47.1074 84.1277 47.0185Z" fill="#709312"/>
<path d="M81.8032 46.1321C81.7712 46.1321 81.9136 46.4881 82.0524 47.0826C82.228 47.8502 82.2868 48.6399 82.2269 49.4251C82.1626 50.2091 81.979 50.9786 81.6822 51.707C81.4543 52.2695 81.2585 52.5935 81.287 52.6077C81.3155 52.622 81.3547 52.5401 81.4508 52.3977C81.5847 52.1941 81.7036 51.9812 81.8068 51.7604C82.49 50.2856 82.6226 48.6148 82.1806 47.0506C82.1171 46.8165 82.035 46.5879 81.9349 46.367C81.8602 46.1962 81.8139 46.1107 81.8032 46.1321Z" fill="#709312"/>
<path d="M125.374 105.299C125.332 105.248 125.284 105.201 125.232 105.16C125.136 105.075 124.997 104.94 124.801 104.804C124.254 104.37 123.676 103.976 123.071 103.626C121.061 102.487 118.875 101.696 116.602 101.284C114.336 100.871 112.041 100.643 109.739 100.6C108.856 100.579 108.144 100.572 107.652 100.572H107.083C107.016 100.566 106.95 100.566 106.883 100.572C106.949 100.588 107.016 100.596 107.083 100.597L107.649 100.625L109.735 100.714C112.026 100.787 114.309 101.025 116.567 101.426C118.82 101.838 120.994 102.604 123.007 103.697C123.611 104.037 124.195 104.413 124.755 104.822C125.15 105.139 125.363 105.31 125.374 105.299Z" fill="#709312"/>
<path d="M74.3413 47.6771C74.3413 47.7092 74.9501 47.5062 75.9398 47.2642C76.5152 47.1226 77.1058 47.0521 77.6984 47.0541C78.4184 47.0591 79.1235 47.2597 79.7383 47.6344C80.0505 47.8288 80.3225 48.0814 80.5393 48.3784C80.7343 48.6594 80.8711 48.9765 80.9416 49.3112C81.0434 49.8912 81.0179 50.4864 80.8668 51.0556C80.6212 52.0381 80.3577 52.622 80.3933 52.6362C80.4742 52.5103 80.5399 52.3752 80.5891 52.2339C80.7507 51.8616 80.8863 51.4786 80.995 51.0876C81.1686 50.501 81.2076 49.8828 81.1089 49.2791C81.0391 48.9193 80.8961 48.5776 80.6888 48.2752C80.4595 47.9559 80.1706 47.6839 79.838 47.4742C79.1941 47.0841 78.4548 46.8795 77.702 46.8832C77.0999 46.8891 76.5013 46.9753 75.922 47.1396C75.4271 47.2713 75.0355 47.4066 74.765 47.4956C74.618 47.5417 74.4761 47.6025 74.3413 47.6771Z" fill="#709312"/>
<path d="M20.9307 136.891C21.3152 134.335 22.5683 131.818 24.7078 130.362C26.8474 128.906 29.9268 128.735 31.9631 130.333L40.4146 141.761L22.4223 141.836C21.4184 140.906 20.7278 138.244 20.9307 136.891Z" fill="#709312"/>
<g opacity="0.3">
<path d="M32.8958 141.597C31.3757 140.963 30.2543 139.6 29.5636 138.105C28.873 136.609 28.5704 134.972 28.2678 133.352C28.0186 132.01 27.7836 130.561 28.3675 129.322C28.5068 129.315 28.6457 129.344 28.7706 129.406C28.8954 129.468 29.0018 129.562 29.0795 129.678C29.2357 129.914 29.3501 130.176 29.4177 130.451C30.8096 134.844 32.9563 138.639 36.4629 141.611" fill="black"/>
</g>
<g opacity="0.3">
<path d="M86.3388 52.33C84.5588 57.46 84.3345 63.01 84.5268 68.4177C84.6229 71.1162 84.8258 73.8431 85.6695 76.4099C86.5133 78.9766 88.0619 81.3939 90.3616 82.8179C92.5332 84.16 95.2175 84.5124 97.7522 84.1778C100.287 83.8432 102.693 82.8713 104.975 81.725C107.581 80.4149 110.091 78.8485 112.113 76.741C114.135 74.6335 115.794 71.6893 116.129 68.795L112.377 69.2044C112.377 69.2044 109.49 68.8983 105 64.5551C100.095 59.8132 99.2011 59.2329 95.5272 56.7622C92.6779 54.878 89.5871 53.3871 86.3388 52.33Z" fill="white"/>
</g>
<g opacity="0.3">
<path d="M70.8316 83.95C70.1219 83.5498 69.3008 83.3927 68.4935 83.5026C67.6863 83.6125 66.9371 83.9834 66.3602 84.5587C65.7891 83.8122 65.0165 83.2447 64.1334 82.923C63.2503 82.6013 62.2936 82.5389 61.3762 82.7431C62.4887 83.1806 63.5246 83.7923 64.4449 84.5552C65.3242 85.3633 65.9579 86.5238 65.8476 87.7129C66.9476 86.528 68.2125 85.5077 69.6034 84.6833C70.1801 84.3273 70.9384 84.039 71.4795 84.4377" fill="black"/>
</g>
<path d="M58.5706 124.057C60.6371 125.54 62.1603 127.66 62.9069 130.092C63.6534 132.524 63.582 135.133 62.7037 137.521" fill="#709312"/>
<path d="M62.7041 137.521C62.7333 137.478 62.7561 137.431 62.7717 137.382C62.8073 137.286 62.8678 137.151 62.9283 136.965C63.1018 136.451 63.234 135.924 63.3235 135.388C63.6343 133.612 63.5206 131.788 62.9916 130.064C62.4626 128.34 61.5333 126.766 60.2797 125.47C59.905 125.082 59.499 124.724 59.0657 124.402C58.9162 124.285 58.7881 124.203 58.7097 124.146C58.6314 124.089 58.578 124.064 58.5745 124.071C58.7181 124.209 58.869 124.338 59.0266 124.459C59.4365 124.806 59.8241 125.178 60.1871 125.573C61.3988 126.874 62.2994 128.433 62.8211 130.133C63.3428 131.832 63.472 133.628 63.1989 135.385C63.1197 135.916 63.0067 136.442 62.8607 136.958C62.7959 137.142 62.7435 137.33 62.7041 137.521Z" fill="#263238"/>
<path d="M51.4899 111.732C50.0338 110.614 48.1541 109.44 46.5059 110.226C46.0493 110.477 45.6578 110.831 45.3629 111.26C45.068 111.689 44.8778 112.181 44.8077 112.697C44.6797 113.73 44.7449 114.778 45 115.787C46.1955 121.676 48.7929 127.189 52.5721 131.86C53.9427 133.555 55.8936 135.271 58.0224 134.805C60.0089 134.367 61.1375 132.095 61.02 130.063C60.9025 128.03 59.8772 126.182 58.9267 124.367C56.6697 120.095 54.4767 115.41 51.5005 111.718" fill="#709312"/>
<path d="M51.4896 111.732C51.518 111.779 51.5488 111.824 51.5822 111.867L51.867 112.248C52.1198 112.583 52.4864 113.085 52.935 113.743C54.1756 115.621 55.3118 117.565 56.3384 119.568L58.4744 123.711C59.2291 125.207 60.1796 126.752 60.6744 128.56C60.9403 129.478 60.9903 130.446 60.8204 131.387C60.6413 132.366 60.1565 133.263 59.4356 133.95C59.062 134.287 58.6144 134.53 58.129 134.662C57.6319 134.791 57.112 134.804 56.6089 134.701C55.5793 134.436 54.6399 133.898 53.8891 133.145C53.1208 132.402 52.4214 131.59 51.7994 130.721C51.1586 129.881 50.5818 129.012 50.0194 128.151C48.0256 124.967 46.5174 121.505 45.5444 117.877C45.3308 117.07 45.1481 116.284 44.9962 115.52C44.8351 114.796 44.7622 114.054 44.779 113.313C44.8218 111.914 45.5551 110.643 46.5982 110.219C47.0776 110.016 47.6046 109.953 48.1183 110.037C48.5514 110.11 48.9728 110.241 49.3714 110.425C49.9233 110.687 50.4511 110.997 50.9485 111.351L51.3401 111.629C51.4256 111.689 51.4754 111.718 51.4754 111.718L51.3508 111.615C51.2654 111.543 51.1408 111.447 50.9699 111.323C50.4801 110.952 49.9555 110.63 49.4035 110.361C49.0014 110.165 48.5735 110.027 48.1326 109.952C47.5613 109.847 46.9713 109.924 46.4466 110.173C45.9219 110.423 45.4891 110.831 45.2098 111.34C44.8656 111.94 44.6736 112.615 44.6509 113.306C44.6266 114.057 44.6947 114.809 44.8538 115.545C45.0069 116.314 45.1849 117.104 45.3949 117.916C46.3607 121.561 47.8666 125.041 49.8627 128.24C50.4181 129.108 50.9984 129.977 51.6427 130.824C52.2713 131.704 52.9778 132.525 53.7538 133.277C54.529 134.053 55.4994 134.606 56.5626 134.876C57.0931 134.983 57.6413 134.967 58.1646 134.829C58.6793 134.687 59.1527 134.425 59.5459 134.064C60.2915 133.35 60.7903 132.417 60.9699 131.401C61.1451 130.434 61.0927 129.439 60.8168 128.496C60.3078 126.652 59.3466 125.107 58.5918 123.619C57.8371 122.131 57.0895 120.749 56.4274 119.486C55.3892 117.485 54.2338 115.547 52.967 113.683C52.5114 113.028 52.134 112.533 51.8741 112.205L51.5715 111.849C51.546 111.809 51.5187 111.77 51.4896 111.732Z" fill="#263238"/>
<g opacity="0.3">
<path d="M51.3117 116.809V116.827C50.9557 115.823 50.1974 115.534 49.3822 115.239C48.5669 114.943 47.5808 114.975 46.9258 115.545C46.171 116.2 46.0749 117.353 46.2778 118.332C46.3257 118.678 46.4673 119.005 46.6872 119.276C46.801 119.408 46.9538 119.5 47.1234 119.539C47.2931 119.578 47.4707 119.562 47.6306 119.493C47.9866 119.297 48.097 118.781 48.4744 118.624C48.8517 118.468 49.3501 118.82 49.8058 118.934C50.1176 118.994 50.4405 118.945 50.7201 118.795C50.9997 118.644 51.2187 118.402 51.3402 118.108C51.4219 117.901 51.4615 117.679 51.4566 117.456C51.4517 117.233 51.4025 117.013 51.3117 116.809Z" fill="black"/>
</g>
<g opacity="0.3">
<path d="M49.7599 111.796C49.577 111.878 49.4245 112.015 49.3241 112.188C49.2238 112.361 49.1807 112.562 49.201 112.761C49.2187 113.208 49.3163 113.648 49.4893 114.06C49.6139 114.416 49.824 114.812 50.2013 114.826C50.3072 114.823 50.4106 114.793 50.5016 114.739C50.5926 114.685 50.6682 114.608 50.7211 114.516C50.8232 114.33 50.8805 114.123 50.8884 113.911C50.9239 113.426 50.8485 112.939 50.6677 112.487C50.5898 112.251 50.4436 112.044 50.2476 111.892C50.1487 111.818 50.0281 111.777 49.9041 111.777C49.7801 111.777 49.6595 111.818 49.5605 111.892" fill="black"/>
</g>
<g opacity="0.3">
<path d="M45.495 112.672C45.3121 112.754 45.1596 112.891 45.0592 113.064C44.9588 113.237 44.9157 113.438 44.936 113.637C44.9541 114.084 45.0518 114.524 45.2244 114.936C45.349 115.292 45.5626 115.687 45.9364 115.702C46.0424 115.699 46.1459 115.669 46.2369 115.615C46.328 115.561 46.4035 115.484 46.4562 115.392C46.5615 115.207 46.6191 114.999 46.6235 114.787C46.6583 114.302 46.5841 113.815 46.4063 113.363C46.3271 113.127 46.1796 112.92 45.9827 112.768C45.884 112.693 45.7633 112.652 45.6392 112.652C45.515 112.652 45.3943 112.693 45.2956 112.768" fill="black"/>
</g>
<g opacity="0.3">
<path d="M47.2963 111.042C47.1141 111.125 46.9624 111.263 46.8623 111.437C46.7621 111.61 46.7185 111.81 46.7374 112.01C46.7568 112.455 46.8544 112.894 47.0257 113.306C47.1539 113.662 47.3639 114.06 47.7377 114.071C47.8437 114.069 47.9472 114.039 48.0383 113.984C48.1293 113.93 48.2048 113.853 48.2575 113.761C48.3601 113.577 48.4163 113.371 48.4212 113.16C48.4598 112.675 48.3855 112.187 48.2041 111.736C48.1266 111.499 47.9788 111.292 47.7805 111.141C47.6821 111.067 47.5621 111.026 47.4387 111.026C47.3153 111.026 47.1953 111.067 47.0969 111.141" fill="black"/>
</g>
<g opacity="0.3">
<path d="M48.6776 125.595C48.9617 127.749 49.5477 129.852 50.4184 131.843C51.2963 133.841 52.6389 135.601 54.3344 136.976C55.1176 137.588 56.0361 138.115 57.0293 138.14C58.4355 138.176 59.7171 137.168 60.3508 135.912C60.9845 134.655 61.0628 133.195 60.9987 131.793C60.3188 132.928 59.5534 134.139 58.3216 134.641C57.7773 134.823 57.1999 134.886 56.6291 134.825C56.0582 134.763 55.5074 134.579 55.0144 134.285C54.0318 133.69 53.1725 132.911 52.4832 131.992C50.9579 130.13 49.7042 128.061 48.7595 125.848" fill="black"/>
</g>
<path d="M128.411 112.017C130.162 111.479 132.327 111.034 133.616 112.352C133.953 112.748 134.194 113.218 134.317 113.723C134.441 114.229 134.444 114.756 134.328 115.264C134.087 116.277 133.66 117.237 133.067 118.094C129.885 123.191 125.524 127.447 120.351 130.504C118.475 131.608 116.047 132.533 114.217 131.348C112.505 130.244 112.248 127.72 113.067 125.858C113.886 123.996 115.488 122.612 117.022 121.248C120.632 118.044 124.328 114.42 128.414 111.992" fill="#709312"/>
<path d="M128.411 112.017C128.411 112.017 128.361 112.038 128.265 112.092L127.855 112.334C127.499 112.551 126.969 112.882 126.31 113.334C124.471 114.638 122.711 116.049 121.038 117.56L117.56 120.671C116.332 121.8 114.89 122.911 113.768 124.459C113.178 125.246 112.78 126.158 112.604 127.126C112.421 128.143 112.565 129.192 113.014 130.123C113.257 130.597 113.608 131.008 114.039 131.323C114.481 131.637 114.991 131.844 115.527 131.928C116.622 132.051 117.729 131.874 118.731 131.415C119.724 130.982 120.678 130.462 121.579 129.86C122.476 129.29 123.327 128.678 124.149 128.062C125.71 126.856 127.174 125.53 128.528 124.096C129.76 122.798 130.897 121.413 131.931 119.952C132.412 119.265 132.857 118.585 133.266 117.919C133.674 117.287 134.003 116.607 134.245 115.894C134.466 115.239 134.522 114.539 134.409 113.858C134.326 113.283 134.064 112.749 133.66 112.331C133.256 111.914 132.731 111.635 132.159 111.533C131.719 111.451 131.27 111.43 130.824 111.469C130.213 111.53 129.608 111.649 129.019 111.825C128.816 111.882 128.663 111.928 128.564 111.964L128.411 112.021L128.567 111.981L129.03 111.86C129.62 111.703 130.223 111.597 130.831 111.544C131.27 111.511 131.71 111.538 132.141 111.622C132.653 111.725 133.125 111.972 133.501 112.334C134.331 113.099 134.569 114.545 134.121 115.869C133.877 116.569 133.55 117.237 133.145 117.859C132.732 118.521 132.286 119.194 131.807 119.877C129.623 122.934 126.997 125.648 124.014 127.93C123.195 128.546 122.348 129.155 121.454 129.71C120.566 130.307 119.626 130.821 118.646 131.248C117.68 131.692 116.612 131.867 115.555 131.754C115.043 131.676 114.555 131.479 114.131 131.18C113.723 130.884 113.391 130.495 113.163 130.045C112.729 129.15 112.589 128.14 112.764 127.161C112.933 126.22 113.319 125.331 113.893 124.566C114.989 123.042 116.421 121.928 117.649 120.792L121.109 117.663C122.772 116.143 124.518 114.717 126.339 113.391C126.987 112.928 127.506 112.59 127.859 112.362L128.261 112.106L128.411 112.017Z" fill="#263238"/>
<g opacity="0.3">
<path d="M126.795 116.83C127.482 116.015 128.29 116.008 129.158 116.018C130.027 116.029 130.938 116.406 131.351 117.165C131.828 118.048 131.515 119.158 130.995 120.013C130.832 120.321 130.585 120.576 130.283 120.75C130.132 120.835 129.956 120.869 129.784 120.846C129.611 120.824 129.451 120.746 129.326 120.625C129.059 120.315 129.134 119.799 128.842 119.514C128.55 119.23 127.948 119.39 127.485 119.34C127.172 119.287 126.887 119.128 126.678 118.889C126.468 118.651 126.347 118.347 126.335 118.03C126.326 117.585 126.491 117.155 126.795 116.83Z" fill="black"/>
</g>
<g opacity="0.3">
<path d="M130.009 112.679C130.152 112.82 130.247 113.003 130.28 113.201C130.313 113.399 130.283 113.603 130.194 113.783C130.025 114.193 129.784 114.571 129.482 114.897C129.244 115.178 128.902 115.484 128.553 115.367C128.455 115.327 128.368 115.263 128.302 115.18C128.236 115.097 128.193 114.998 128.176 114.893C128.144 114.685 128.162 114.471 128.229 114.27C128.369 113.802 128.612 113.371 128.941 113.01C129.097 112.816 129.308 112.673 129.546 112.601C129.666 112.568 129.792 112.575 129.907 112.621C130.022 112.666 130.119 112.748 130.184 112.854" fill="black"/>
</g>
<g opacity="0.3">
<path d="M133.694 114.997C133.836 115.137 133.931 115.319 133.964 115.517C133.997 115.714 133.967 115.917 133.879 116.097C133.709 116.507 133.468 116.885 133.167 117.211C132.925 117.492 132.587 117.798 132.234 117.681C132.136 117.641 132.05 117.576 131.984 117.493C131.918 117.41 131.874 117.312 131.857 117.207C131.826 116.998 131.845 116.785 131.914 116.584C132.052 116.116 132.295 115.685 132.626 115.324C132.781 115.13 132.992 114.987 133.231 114.915C133.35 114.882 133.477 114.889 133.592 114.935C133.707 114.98 133.804 115.062 133.868 115.168" fill="black"/>
</g>
<g opacity="0.3">
<path d="M132.576 112.839C132.718 112.98 132.813 113.162 132.846 113.36C132.879 113.557 132.85 113.76 132.761 113.939C132.592 114.35 132.351 114.727 132.049 115.054C131.807 115.335 131.469 115.641 131.116 115.524C131.018 115.484 130.932 115.419 130.866 115.336C130.8 115.253 130.756 115.155 130.739 115.05C130.708 114.841 130.728 114.627 130.796 114.427C130.934 113.958 131.178 113.527 131.508 113.167C131.664 112.972 131.875 112.829 132.113 112.757C132.233 112.725 132.359 112.732 132.474 112.777C132.589 112.823 132.686 112.905 132.751 113.01" fill="black"/>
</g>
<g opacity="0.3">
<path d="M126.168 125.983C125.151 127.897 123.87 129.659 122.362 131.216C120.847 132.784 118.978 133.965 116.912 134.662C115.965 134.965 114.922 135.136 113.982 134.812C112.651 134.352 111.807 132.96 111.654 131.561C111.501 130.162 111.928 128.763 112.49 127.475C112.729 128.777 113.021 130.18 114.003 131.07C114.446 131.432 114.961 131.694 115.514 131.838C116.067 131.982 116.645 132.004 117.207 131.903C118.337 131.691 119.414 131.264 120.383 130.646C122.462 129.435 124.361 127.937 126.022 126.196" fill="black"/>
</g>
<g opacity="0.3">
<path d="M127.492 124.05C127.596 124.192 127.699 124.338 127.799 124.484C127.359 123.775 126.78 123.162 126.097 122.683C125.414 122.204 124.641 121.868 123.824 121.696C123.008 121.524 122.165 121.52 121.347 121.683C120.528 121.845 119.751 122.173 119.063 122.644C118.375 123.116 117.789 123.722 117.342 124.426C116.894 125.131 116.594 125.918 116.46 126.742C116.325 127.565 116.359 128.407 116.559 129.217C116.759 130.027 117.122 130.789 117.624 131.455C121.626 129.818 125.25 127.377 128.269 124.281" fill="white"/>
</g>
<path d="M26.9866 120.536C26.9838 120.616 26.9898 120.696 27.0044 120.775C27.0294 120.953 27.0614 121.177 27.097 121.458C27.1789 122.053 27.3177 122.907 27.5135 123.95C27.9979 126.705 28.727 129.41 29.6922 132.035C30.247 133.475 30.9173 134.868 31.6965 136.2C31.8781 136.506 32.0739 136.791 32.2519 137.076L32.5224 137.492L32.8108 137.88L33.359 138.61C33.5477 138.835 33.7364 139.045 33.9144 139.244C34.0924 139.443 34.2526 139.646 34.4306 139.81L34.9219 140.283L35.3526 140.693L35.7442 141.003L36.2889 141.43C36.3491 141.483 36.4161 141.529 36.4883 141.565C36.4345 141.505 36.3761 141.449 36.3138 141.398L35.7905 140.949L35.4132 140.629L34.9966 140.209L34.516 139.732C34.3416 139.564 34.1885 139.358 34.0141 139.158L33.473 138.521L32.9354 137.788L32.6542 137.403C32.5652 137.268 32.4797 137.129 32.3907 136.987C32.2127 136.702 32.0347 136.417 31.8425 136.115C31.0843 134.785 30.4286 133.4 29.8809 131.971C28.9163 129.359 28.1674 126.673 27.6417 123.939C27.4316 122.893 27.2857 122.042 27.1682 121.447C27.1184 121.17 27.0756 120.946 27.0436 120.771C27.0306 120.691 27.0115 120.613 26.9866 120.536Z" fill="#263238"/>
<path d="M108.888 98.9411C108.841 98.877 108.786 98.8196 108.724 98.7702L108.229 98.3074C108.012 98.1045 107.745 97.8624 107.425 97.5954C107.104 97.3284 106.748 97.0045 106.335 96.677C105.52 96.0041 104.52 95.253 103.377 94.4342C102.234 93.6154 100.942 92.8001 99.5463 91.9884C98.1507 91.1768 96.7801 90.479 95.5199 89.8809C94.2597 89.2828 93.092 88.8129 92.1023 88.432C91.611 88.2362 91.1589 88.076 90.7637 87.9407C90.3686 87.8054 90.0233 87.688 89.742 87.6025L89.0905 87.4032C89.0169 87.3759 88.9405 87.3568 88.8627 87.3462C88.9325 87.3829 89.0051 87.4138 89.0799 87.4388L89.7207 87.6702C89.9983 87.7663 90.3365 87.8873 90.7281 88.0262C91.1197 88.165 91.5683 88.3359 92.056 88.5388C93.035 88.9268 94.192 89.4288 95.4451 90.0233C96.6983 90.6178 98.0439 91.3441 99.4679 92.1415C100.892 92.939 102.145 93.7791 103.295 94.5694C104.445 95.3598 105.431 96.1145 106.268 96.7731C106.684 97.0935 107.047 97.4032 107.371 97.6702C107.695 97.9372 107.973 98.165 108.193 98.3608L108.713 98.7987C108.766 98.8528 108.824 98.9006 108.888 98.9411Z" fill="#263238"/>
<path d="M118.909 92.9959C118.909 92.9959 118.888 92.9781 118.845 92.9461L118.646 92.8108L117.863 92.3124C117.524 92.0952 117.108 91.8354 116.609 91.5541C116.111 91.2729 115.541 90.9311 114.915 90.6036L113.918 90.0732C113.562 89.8916 113.206 89.7172 112.818 89.532C112.063 89.1511 111.23 88.7951 110.362 88.4071C108.607 87.6666 106.649 86.9261 104.548 86.2711C102.448 85.616 100.408 85.1426 98.5389 84.7723C97.6026 84.605 96.7126 84.4341 95.8724 84.3238C95.4559 84.2668 95.0501 84.1992 94.662 84.1564L93.5371 84.0318C92.8251 83.9464 92.1736 83.9108 91.604 83.8681C91.0344 83.8254 90.536 83.8004 90.1373 83.7898L89.2117 83.7648H88.9731C88.9449 83.7594 88.9159 83.7594 88.8877 83.7648H88.9696L89.2117 83.7862L90.1337 83.8467C90.536 83.8681 91.0273 83.8966 91.5933 83.9535C92.1593 84.0105 92.8108 84.0496 93.5228 84.1458L94.6442 84.281C95.0323 84.3273 95.4345 84.3985 95.8511 84.459C96.6877 84.573 97.5741 84.751 98.5068 84.9218C100.365 85.3028 102.398 85.794 104.495 86.4313C106.592 87.0685 108.542 87.8126 110.294 88.5424C111.163 88.9233 111.996 89.2757 112.75 89.6495C113.131 89.8346 113.505 90.0055 113.854 90.18L114.854 90.6997C115.495 91.0201 116.058 91.3476 116.556 91.6218C117.054 91.8959 117.482 92.1451 117.827 92.3516L118.624 92.8215L118.834 92.939C118.881 92.9888 118.909 92.9995 118.909 92.9959Z" fill="#263238"/>
<path d="M76.4846 81.2622C76.4632 81.3156 77.3817 81.7036 78.3963 82.3836C79.4109 83.0635 80.1264 83.7577 80.1763 83.715C79.2039 82.5679 77.9282 81.7179 76.4952 81.2622H76.4846Z" fill="#263238"/>
<path d="M70.4613 83.1952C70.4613 83.2308 70.9882 82.9923 71.8604 82.7716C72.9968 82.4748 74.1742 82.3666 75.3456 82.4512C76.5177 82.5002 77.6647 82.8052 78.7063 83.3448C79.1209 83.5943 79.4777 83.9293 79.7529 84.3273C79.7166 84.1978 79.6549 84.0768 79.5714 83.9713C79.3552 83.6759 79.0845 83.4245 78.7739 83.2308C77.9978 82.7218 76.7483 82.3693 75.3599 82.2625C74.1685 82.1762 72.9712 82.304 71.8248 82.6399C71.4793 82.7364 71.1403 82.8553 70.8102 82.9959C70.687 83.0495 70.5701 83.1163 70.4613 83.1952Z" fill="#263238"/>
<path d="M82.1592 86.1643L81.7427 87.1611C81.6196 87.419 81.5356 87.6937 81.4935 87.9763C81.4734 88.1183 81.484 88.263 81.5245 88.4005C81.565 88.5381 81.6346 88.6653 81.7284 88.7738C81.8887 88.9091 82.089 88.9884 82.2985 88.9993C82.5081 89.0102 82.7154 88.9523 82.889 88.8343C83.2262 88.5846 83.4755 88.2343 83.601 87.8339C83.7505 87.4423 83.8502 87.0294 84.0317 86.652C83.8009 86.4415 83.6268 86.1762 83.5254 85.8807C83.4239 85.5852 83.3985 85.2689 83.4515 84.961C83.4515 84.961 83.0919 86.1002 82.1592 86.1643Z" fill="#F5F5F5"/>
<path d="M87.9727 82.5331C87.6573 81.898 87.213 81.3357 86.6681 80.8821C86.1231 80.4285 85.4895 80.0936 84.8078 79.8987C82.5365 79.3006 80.1798 81.6787 80.1798 81.6787C80.1798 81.6787 82.9246 80.8706 82.8854 82.234C82.8463 83.5975 82.0381 83.5655 82.9495 84.4626C83.8609 85.3597 85.4237 84.4163 85.7975 83.359L86.5309 82.3266L87.9727 82.5331Z" fill="#263238"/>
<path d="M78.5674 83.8681C78.5674 83.8681 78.5674 83.9144 78.5496 83.9962C78.5376 84.1205 78.5376 84.2457 78.5496 84.37C78.6147 84.8262 78.7989 85.2572 79.0836 85.6196C79.2914 85.8947 79.5528 86.1249 79.852 86.2962C80.1512 86.4675 80.482 86.5764 80.8244 86.6164C81.2472 86.6486 81.6716 86.5806 82.0632 86.4179C82.4548 86.2552 82.8024 86.0025 83.0779 85.6801C83.3507 85.3669 83.5426 84.9917 83.6368 84.5872L83.4624 84.5374C83.3553 84.8724 83.3262 85.2275 83.3775 85.5755C83.4287 85.9235 83.5588 86.2552 83.7579 86.5452C84.0271 86.9223 84.4081 87.2053 84.847 87.3542C85.2859 87.503 85.7604 87.5102 86.2036 87.3747C86.297 87.3463 86.3876 87.3094 86.4741 87.2643C86.5311 87.2323 86.5596 87.2145 86.5596 87.2074C86.5596 87.2002 86.4279 87.2572 86.1858 87.3142C85.8437 87.3923 85.4884 87.3923 85.1463 87.3142C84.6334 87.1986 84.184 86.8917 83.8896 86.4562C83.7099 86.185 83.5935 85.8768 83.5492 85.5545C83.5048 85.2322 83.5335 84.904 83.6332 84.5943L83.4588 84.548C83.368 84.9222 83.1885 85.2689 82.9355 85.5591C82.6789 85.8599 82.3559 86.0969 81.992 86.2513C81.6281 86.4058 81.2332 86.4735 80.8387 86.4491C80.5162 86.414 80.2039 86.3154 79.9198 86.159C79.6357 86.0025 79.3853 85.7914 79.1833 85.5377C78.9006 85.1965 78.7073 84.7903 78.6208 84.3558C78.5745 84.0568 78.5852 83.8681 78.5674 83.8681Z" fill="#263238"/>
<path d="M82.9674 80.2333C83.203 80.2686 83.4416 80.2794 83.6794 80.2654C84.2553 80.2593 84.8292 80.3336 85.3846 80.4861C85.9332 80.6462 86.4311 80.9454 86.83 81.3547C87.1255 81.6787 87.2323 81.9386 87.2607 81.9279C87.2139 81.6811 87.0979 81.4526 86.9261 81.2693C86.5378 80.8068 86.0193 80.4719 85.438 80.3081C84.865 80.1492 84.2689 80.0902 83.6758 80.1336C83.4359 80.1298 83.1969 80.1635 82.9674 80.2333Z" fill="white"/>
<path d="M82.2841 89.0799C82.6274 88.5027 82.8864 87.8793 83.053 87.2287C83.2755 86.5957 83.405 85.9338 83.4375 85.2636C83.3841 85.2636 83.1954 86.1251 82.875 87.1753C82.5546 88.2255 82.2342 89.0586 82.2841 89.0799Z" fill="#263238"/>
<path d="M107.631 93.0707C107.588 93.0246 107.54 92.9829 107.488 92.9461L107.058 92.6115C106.702 92.3231 106.121 91.9279 105.413 91.4651C104.705 91.0023 103.843 90.4826 102.857 89.9486C101.871 89.4146 100.76 88.8806 99.5639 88.3928C98.3677 87.9051 97.2036 87.5064 96.1321 87.1825C95.0605 86.8585 94.0779 86.6235 93.2485 86.4705C92.419 86.3174 91.7426 86.1857 91.2727 86.1145L90.7315 86.0468C90.6689 86.0397 90.6056 86.0397 90.5429 86.0468C90.6019 86.0722 90.6642 86.089 90.728 86.0967L91.262 86.1963C91.7283 86.2747 92.3976 86.4099 93.22 86.5951C94.0423 86.7802 95 87.0294 96.068 87.3533C97.136 87.6773 98.2894 88.0867 99.482 88.5708C100.675 89.055 101.775 89.5926 102.764 90.1088C103.754 90.625 104.616 91.1341 105.331 91.5826C106.047 92.0312 106.613 92.4085 107.001 92.6791L107.453 92.9817C107.57 93.0458 107.627 93.0778 107.631 93.0707Z" fill="#263238"/>
<path d="M89.7928 77.3881C88.7646 73.0753 91.4272 68.7456 95.74 67.7174C100.053 66.6891 104.382 69.3518 105.411 73.6645C106.439 77.9773 103.776 82.307 99.4635 83.3352C95.1508 84.3635 90.8211 81.7008 89.7928 77.3881Z" fill="#F5F5F5"/>
<path d="M89.5675 75.5377C89.5675 79.411 92.1841 82.5544 94.3985 82.5544C96.6128 82.5544 98.3999 79.411 98.3999 75.5377C98.3999 71.6644 96.6199 68.5174 94.3842 68.5174C92.1485 68.5174 89.5675 71.6608 89.5675 75.5377Z" fill="#263238"/>
<path d="M92.6185 72.9424C91.8596 72.9424 91.2444 72.3272 91.2444 71.5683C91.2444 70.8094 91.8596 70.1941 92.6185 70.1941C93.3774 70.1941 93.9927 70.8094 93.9927 71.5683C93.9927 72.3272 93.3774 72.9424 92.6185 72.9424Z" fill="white"/>
<path d="M96.1713 80.6356C96.2514 80.5328 96.3184 80.4204 96.3707 80.301C96.5385 79.9858 96.6825 79.6586 96.8015 79.322C96.9861 78.8242 97.1302 78.3122 97.2322 77.7912C97.3532 77.1524 97.4199 76.5045 97.4316 75.8545C97.4338 75.2032 97.3802 74.5529 97.2714 73.9108C97.18 73.3882 97.0467 72.8739 96.8727 72.3728C96.7613 72.0343 96.6244 71.7046 96.4633 71.3867C96.4149 71.2602 96.3503 71.1405 96.271 71.0307C96.239 71.0307 96.4846 71.5469 96.7481 72.4013C96.901 72.9006 97.0199 73.4097 97.1041 73.925C97.2011 74.5576 97.2487 75.1968 97.2465 75.8367C97.2349 76.4765 97.1742 77.1144 97.0649 77.7449C96.9714 78.2601 96.8417 78.768 96.6769 79.265C96.3956 80.1265 96.1393 80.6214 96.1713 80.6356Z" fill="white"/>
<path d="M99.6351 65.3134C99.6565 65.5732 99.9555 65.7726 100.347 65.9577C100.739 66.1428 101.269 66.3137 101.792 66.5522C102.316 66.7908 102.775 66.9972 103.167 67.1752C103.558 67.3532 103.879 67.46 104.11 67.3212C104.341 67.1824 104.37 66.7943 104.11 66.2781C103.759 65.6268 103.187 65.1219 102.497 64.8541C101.837 64.563 101.099 64.4955 100.397 64.6619C99.895 64.7972 99.6138 65.0642 99.6351 65.3134Z" fill="#263238"/>
<path d="M137.948 133.708L136.143 130.881C127.549 140.323 99.1549 151.551 73.733 126.172C62.8144 115.271 63.6973 96.8514 63.6973 96.8514L65.8689 90.0304L63.6973 90.0304C63.6973 90.0304 57.4033 101.64 63.9928 116.841C63.9928 116.841 70.7568 134.858 91.4653 141.405C124.132 151.722 137.948 133.708 137.948 133.708Z" fill="#709312"/>
<g opacity="0.7">
<path d="M137.948 133.708L136.143 130.881C127.549 140.323 99.1549 151.551 73.733 126.172C62.8144 115.271 63.6973 96.8514 63.6973 96.8514L65.8689 90.0304L63.6973 90.0304C63.6973 90.0304 57.4033 101.64 63.9928 116.841C63.9928 116.841 70.7568 134.858 91.4653 141.405C124.132 151.722 137.948 133.708 137.948 133.708Z" fill="white"/>
</g>
<path d="M138.435 137.162C132.408 131.135 132.408 121.364 138.435 115.337C144.462 109.31 154.233 109.31 160.26 115.337C166.287 121.364 166.287 131.135 160.26 137.162C154.233 143.189 144.462 143.189 138.435 137.162Z" fill="#709312"/>
<g opacity="0.7">
<path d="M138.435 137.162C132.408 131.135 132.408 121.364 138.435 115.337C144.462 109.31 154.233 109.31 160.26 115.337C166.287 121.364 166.287 131.135 160.26 137.162C154.233 143.189 144.462 143.189 138.435 137.162Z" fill="white"/>
</g>
<path d="M145.648 111.248C145.656 111.347 145.674 111.445 145.702 111.54C145.744 111.746 145.808 112.024 145.883 112.377C145.926 112.558 145.972 112.761 146.022 112.978C146.072 113.195 146.15 113.43 146.221 113.69C146.374 114.196 146.52 114.78 146.755 115.403L147.111 116.385C147.232 116.741 147.385 117.072 147.531 117.435C147.809 118.165 148.179 118.916 148.553 119.71C149.41 121.415 150.388 123.055 151.479 124.619C152.594 126.168 153.818 127.635 155.143 129.009C155.773 129.625 156.357 130.219 156.955 130.725C157.247 130.981 157.524 131.241 157.806 131.469L158.621 132.12C159.13 132.548 159.632 132.879 160.045 133.188C160.262 133.341 160.458 133.487 160.646 133.612L161.17 133.943L161.882 134.392C161.963 134.449 162.05 134.498 162.142 134.538C162.066 134.473 161.986 134.414 161.903 134.36L161.191 133.883L160.678 133.527C160.493 133.395 160.301 133.245 160.087 133.092C159.667 132.775 159.173 132.434 158.663 132.003L157.859 131.348C157.578 131.116 157.307 130.857 157.019 130.597C156.428 130.088 155.848 129.489 155.239 128.874C153.934 127.504 152.725 126.046 151.622 124.509C150.534 122.953 149.557 121.324 148.695 119.632C148.318 118.842 147.948 118.097 147.663 117.375C147.514 117.019 147.357 116.663 147.232 116.332C147.108 116.001 146.99 115.666 146.876 115.356C146.634 114.737 146.478 114.157 146.317 113.658C146.243 113.405 146.164 113.17 146.104 112.946C146.043 112.722 145.997 112.53 145.951 112.348C145.858 111.992 145.787 111.725 145.734 111.522C145.713 111.429 145.684 111.337 145.648 111.248Z" fill="#709312"/>
<path d="M141.999 112.822C142.01 112.926 142.031 113.03 142.06 113.131C142.11 113.348 142.177 113.64 142.266 114.011C142.313 114.203 142.366 114.416 142.423 114.648C142.48 114.879 142.562 115.125 142.644 115.392C142.811 115.922 142.971 116.542 143.231 117.193L143.612 118.229C143.744 118.585 143.918 118.941 144.078 119.333C144.388 120.098 144.79 120.885 145.207 121.714C146.153 123.497 147.237 125.204 148.446 126.819C149.676 128.418 151.024 129.921 152.48 131.316C153.163 131.946 153.811 132.551 154.459 133.064C154.78 133.324 155.079 133.591 155.388 133.815L156.275 134.473C156.827 134.904 157.371 135.239 157.834 135.541C158.297 135.844 158.706 136.104 159.045 136.3L159.828 136.755C159.917 136.812 160.01 136.862 160.105 136.905C160.024 136.838 159.937 136.777 159.846 136.723L159.084 136.239C158.749 136.033 158.343 135.78 157.891 135.456C157.439 135.132 156.898 134.794 156.35 134.36L155.477 133.708C155.171 133.48 154.876 133.21 154.559 132.95C153.915 132.434 153.277 131.828 152.597 131.198C151.157 129.799 149.82 128.297 148.596 126.706C147.393 125.099 146.312 123.405 145.364 121.636C144.943 120.81 144.538 120.031 144.221 119.269C144.061 118.891 143.865 118.535 143.751 118.176C143.637 117.816 143.484 117.464 143.359 117.151C143.092 116.499 142.925 115.89 142.747 115.371C142.661 115.104 142.572 114.858 142.508 114.63C142.444 114.402 142.391 114.192 142.341 114C142.238 113.644 142.16 113.345 142.099 113.131C142.072 113.026 142.039 112.923 141.999 112.822Z" fill="#709312"/>
<path d="M138.628 115.595C138.646 115.699 138.672 115.801 138.706 115.901C138.77 116.118 138.859 116.406 138.97 116.777C139.027 116.965 139.094 117.175 139.162 117.403C139.23 117.631 139.333 117.877 139.429 118.144C139.628 118.667 139.831 119.276 140.141 119.924L140.579 120.945C140.732 121.301 140.917 121.657 141.099 122.035C141.455 122.79 141.889 123.566 142.337 124.388C143.35 126.146 144.481 127.832 145.723 129.436C146.995 131.023 148.375 132.521 149.853 133.918C150.565 134.548 151.198 135.153 151.857 135.67C152.181 135.93 152.483 136.193 152.797 136.424L153.69 137.087C154.253 137.517 154.797 137.855 155.264 138.155C155.499 138.308 155.716 138.457 155.922 138.582L156.488 138.916L157.279 139.372C157.369 139.428 157.463 139.478 157.56 139.522C157.477 139.454 157.389 139.393 157.297 139.34L156.528 138.856L155.969 138.5C155.766 138.372 155.552 138.219 155.321 138.062C154.862 137.738 154.324 137.396 153.769 136.958C153.484 136.745 153.188 136.524 152.882 136.289C152.576 136.054 152.277 135.791 151.953 135.527C151.305 135.011 150.657 134.402 149.97 133.776C148.506 132.376 147.136 130.881 145.869 129.301C144.623 127.706 143.483 126.03 142.459 124.285C142.006 123.466 141.561 122.701 141.205 121.949C141.024 121.593 140.849 121.237 140.679 120.881C140.508 120.525 140.376 120.187 140.234 119.867C139.934 119.226 139.724 118.621 139.522 118.087C139.418 117.827 139.322 117.585 139.24 117.357C139.158 117.129 139.094 116.923 139.03 116.734C138.906 116.378 138.806 116.086 138.735 115.872C138.706 115.778 138.67 115.685 138.628 115.595Z" fill="#709312"/>
<path d="M134.58 130.237C134.705 130.206 134.824 130.158 134.936 130.095C135.15 129.995 135.459 129.838 135.837 129.643C136.592 129.251 137.617 128.681 138.738 128.012C139.86 127.343 140.835 126.698 141.536 126.214C141.892 125.972 142.167 125.773 142.359 125.627C142.463 125.56 142.558 125.481 142.644 125.392C142.527 125.437 142.417 125.497 142.316 125.57L141.465 126.104C140.753 126.56 139.753 127.172 138.642 127.852C137.531 128.532 136.506 129.109 135.773 129.529L134.901 130.031C134.784 130.083 134.676 130.153 134.58 130.237Z" fill="#709312"/>
<path d="M133.929 126.898C134.288 126.696 134.633 126.47 134.961 126.221C135.592 125.791 136.467 125.207 137.453 124.602C138.44 123.996 139.369 123.491 140.038 123.121C140.408 122.937 140.765 122.728 141.106 122.494C140.996 122.519 140.891 122.56 140.793 122.615C140.597 122.701 140.319 122.832 139.977 123.003C139.294 123.359 138.358 123.84 137.357 124.445C136.357 125.05 135.492 125.655 134.865 126.115C134.559 126.346 134.313 126.535 134.153 126.674C133.993 126.812 133.918 126.891 133.929 126.898Z" fill="#709312"/>
<path d="M143.438 140.187C143.491 140.187 143.612 137.361 143.708 133.868C143.804 130.376 143.844 127.542 143.794 127.542C143.744 127.542 143.623 130.369 143.523 133.861C143.423 137.354 143.388 140.187 143.438 140.187Z" fill="#709312"/>
<path d="M151.045 141.957C151.139 140.781 151.17 139.601 151.138 138.422C151.17 137.242 151.139 136.062 151.045 134.886C150.954 136.062 150.923 137.242 150.953 138.422C150.923 139.601 150.954 140.781 151.045 141.957Z" fill="#709312"/>
<path d="M147.307 141.54C147.357 141.54 147.386 139.226 147.364 136.375C147.343 133.523 147.29 131.205 147.236 131.205C147.183 131.205 147.161 133.519 147.179 136.375C147.197 139.23 147.258 141.54 147.307 141.54Z" fill="#709312"/>
<path d="M155.196 129.005C155.225 129.048 157.24 127.749 159.692 126.1C162.145 124.452 164.118 123.081 164.089 123.028C164.061 122.975 162.046 124.285 159.589 125.933C157.133 127.581 155.168 128.963 155.196 129.005Z" fill="#709312"/>
<path d="M157.884 131.216C157.991 131.2 158.094 131.166 158.19 131.116C158.379 131.042 158.653 130.921 158.984 130.76C159.839 130.342 160.671 129.878 161.476 129.368C162.423 128.77 163.256 128.176 163.833 127.734C164.16 127.511 164.466 127.258 164.748 126.98C164.402 127.173 164.07 127.389 163.754 127.628C163.153 128.044 162.33 128.617 161.376 129.212C160.422 129.806 159.554 130.298 158.909 130.636C158.556 130.809 158.214 131.003 157.884 131.216Z" fill="#709312"/>
<path d="M148.621 119.682C148.795 119.766 148.976 119.835 149.162 119.888C149.377 119.967 149.595 120.035 149.817 120.091C150.073 120.162 150.365 120.244 150.693 120.312C151.461 120.478 152.239 120.596 153.021 120.668C153.98 120.753 154.943 120.783 155.905 120.757C156.867 120.722 157.826 120.633 158.778 120.49C159.554 120.37 160.323 120.206 161.081 119.999C161.405 119.917 161.693 119.824 161.946 119.742C162.199 119.66 162.419 119.586 162.59 119.514C162.776 119.454 162.956 119.378 163.128 119.287C162.938 119.325 162.751 119.378 162.569 119.447C162.391 119.507 162.174 119.575 161.918 119.643C161.661 119.71 161.373 119.799 161.049 119.874C160.401 120.041 159.625 120.184 158.753 120.322C157.808 120.454 156.858 120.537 155.905 120.572C154.955 120.596 154.004 120.571 153.057 120.497C152.277 120.434 151.501 120.328 150.732 120.18C150.401 120.123 150.109 120.048 149.853 119.988C149.596 119.927 149.372 119.87 149.194 119.817C149.008 119.753 148.816 119.708 148.621 119.682Z" fill="#709312"/>
<path d="M146.916 115.687C147.083 115.782 147.258 115.863 147.439 115.929C147.61 116.008 147.823 116.086 148.073 116.175C148.322 116.264 148.607 116.367 148.923 116.46C149.671 116.689 150.43 116.877 151.198 117.022C152.14 117.195 153.091 117.313 154.046 117.378C155.002 117.435 155.96 117.435 156.916 117.378C157.695 117.328 158.471 117.226 159.237 117.072C159.568 117.015 159.86 116.937 160.116 116.869C160.335 116.815 160.552 116.75 160.764 116.673C160.95 116.619 161.131 116.55 161.305 116.467C161.114 116.495 160.925 116.541 160.743 116.606C160.568 116.659 160.348 116.713 160.091 116.766C159.835 116.819 159.543 116.894 159.215 116.944C158.451 117.076 157.68 117.164 156.905 117.207C155.956 117.25 155.005 117.242 154.057 117.183C153.109 117.111 152.166 116.992 151.23 116.827C150.372 116.659 149.6 116.492 148.966 116.307C148.646 116.221 148.361 116.129 148.108 116.047C147.855 115.965 147.642 115.901 147.467 115.833C147.288 115.768 147.104 115.719 146.916 115.687Z" fill="#709312"/>
<path d="M145.862 112.17C146.011 112.253 146.168 112.319 146.332 112.366C146.638 112.483 147.09 112.636 147.649 112.807C149.112 113.258 150.609 113.595 152.124 113.815C153.641 114.036 155.174 114.123 156.706 114.075C157.293 114.05 157.774 114.014 158.094 113.975C158.265 113.965 158.434 113.939 158.6 113.897C158.429 113.881 158.258 113.881 158.087 113.897C157.763 113.914 157.29 113.929 156.702 113.936C155.181 113.949 153.662 113.848 152.156 113.633C150.648 113.41 149.156 113.092 147.688 112.683C147.126 112.526 146.67 112.394 146.357 112.298C146.196 112.242 146.03 112.199 145.862 112.17Z" fill="#709312"/>
<path d="M139.625 127.353C140.236 128.158 140.896 128.925 141.601 129.65C142.26 130.416 142.965 131.143 143.712 131.825C143.1 131.019 142.44 130.251 141.736 129.525C141.077 128.759 140.372 128.034 139.625 127.353Z" fill="#709312"/>
<path d="M136.663 129.105C136.702 129.212 136.755 129.313 136.823 129.404C136.937 129.593 137.115 129.853 137.347 130.169C138.562 131.815 140.114 133.181 141.9 134.178C142.256 134.367 142.523 134.509 142.722 134.598C142.822 134.653 142.928 134.694 143.039 134.719C143.039 134.694 142.626 134.47 141.971 134.064C141.112 133.539 140.297 132.943 139.536 132.284C138.783 131.613 138.088 130.881 137.457 130.095C136.962 129.482 136.688 129.08 136.663 129.105Z" fill="#709312"/>
<path d="M135.762 130.686C135.828 131.386 136.04 132.064 136.384 132.677C136.728 133.29 137.196 133.825 137.759 134.246C137.312 133.723 136.905 133.167 136.542 132.583C136.236 131.971 135.975 131.336 135.762 130.686Z" fill="#709312"/>
<path d="M132.775 133.957C132.883 134.531 133.145 135.064 133.534 135.499C133.875 135.972 134.341 136.342 134.879 136.567C134.454 136.197 134.052 135.801 133.676 135.381C133.349 134.924 133.048 134.449 132.775 133.957Z" fill="#709312"/>
<path d="M127.948 136.912C127.931 137.527 128.092 138.134 128.411 138.66C128.678 139.214 129.103 139.678 129.632 139.991C129.234 139.55 128.876 139.073 128.564 138.567C128.31 138.035 128.104 137.481 127.948 136.912Z" fill="#709312"/>
<path d="M122.419 139.568C122.287 140.146 122.349 140.751 122.594 141.291C122.782 141.851 123.147 142.336 123.633 142.672C122.891 141.804 122.463 140.71 122.419 139.568Z" fill="#709312"/>
<path d="M117.314 144.121C117.368 144.103 117.154 143.409 117.104 142.54C117.054 141.672 117.179 140.956 117.126 140.945C116.785 141.99 116.852 143.124 117.314 144.121Z" fill="#709312"/>
<path d="M113.131 144.427C113.181 144.406 112.925 143.786 112.857 142.978C112.79 142.17 112.928 141.519 112.857 141.508C112.681 141.983 112.613 142.492 112.658 142.997C112.703 143.502 112.86 143.99 113.117 144.427H113.131Z" fill="#709312"/>
<path d="M107.279 144.388C107.332 144.388 107.247 143.779 107.343 143.05C107.439 142.32 107.667 141.761 107.617 141.739C107.347 142.118 107.188 142.564 107.158 143.028C107.069 143.484 107.111 143.955 107.279 144.388Z" fill="#709312"/>
<path d="M103.234 144.032C103.291 144.032 103.291 143.459 103.484 142.793C103.676 142.127 103.964 141.633 103.918 141.604C103.633 141.934 103.424 142.322 103.306 142.742C103.188 143.162 103.163 143.602 103.234 144.032Z" fill="#709312"/>
<path d="M98.4891 142.989C98.5461 142.989 98.5176 142.43 98.7276 141.793C98.9377 141.156 99.2759 140.725 99.2296 140.682C98.9141 140.967 98.6795 141.331 98.5495 141.736C98.4194 142.141 98.3986 142.573 98.4891 142.989Z" fill="#709312"/>
<path d="M92.6471 141.8C92.704 141.8 92.7111 141.177 92.971 140.469C93.2309 139.76 93.6225 139.276 93.5798 139.24C93.2279 139.559 92.9591 139.959 92.7965 140.405C92.634 140.851 92.5827 141.33 92.6471 141.8Z" fill="#709312"/>
<path d="M87.7199 139.878C87.7733 139.878 87.9691 139.247 88.3892 138.543C88.8093 137.838 89.2756 137.354 89.2365 137.314C88.4216 137.943 87.8789 138.861 87.7199 139.878Z" fill="#709312"/>
<path d="M82.2129 136.99C82.2663 136.99 82.4336 136.321 82.8822 135.602C83.3307 134.883 83.8576 134.427 83.822 134.384C83.3778 134.673 83.0031 135.056 82.7248 135.507C82.4466 135.957 82.2718 136.464 82.2129 136.99Z" fill="#709312"/>
<path d="M76.8337 133.135C77.0682 132.72 77.3311 132.321 77.6205 131.942C77.9533 131.601 78.3103 131.285 78.6885 130.995C78.2046 131.131 77.7782 131.421 77.4745 131.821C77.1257 132.179 76.901 132.639 76.8337 133.135Z" fill="#709312"/>
<path d="M72.2267 129.201C72.273 129.233 72.7002 128.66 73.3481 128.076C73.996 127.492 74.6012 127.111 74.5728 127.062C74.0641 127.251 73.6034 127.55 73.2235 127.937C72.8033 128.281 72.4631 128.712 72.2267 129.201Z" fill="#709312"/>
<path d="M68.1008 124.071C68.1471 124.1 68.5031 123.523 69.1297 123.003C69.7562 122.483 70.3792 122.22 70.3579 122.167C69.8621 122.294 69.4015 122.532 69.0106 122.862C68.6198 123.192 68.3087 123.607 68.1008 124.075V124.071Z" fill="#709312"/>
<path d="M64.4235 117.966C64.8392 117.633 65.273 117.324 65.7229 117.04C66.2027 116.812 66.6947 116.612 67.1968 116.439C66.6446 116.435 66.1028 116.588 65.6339 116.88C65.1347 117.118 64.7145 117.495 64.4235 117.966Z" fill="#709312"/>
<path d="M62.1878 111.369C63.1492 110.812 64.2542 110.552 65.3633 110.621C64.8144 110.462 64.2337 110.448 63.6774 110.579C63.1211 110.71 62.608 110.982 62.1878 111.369Z" fill="#709312"/>
<path d="M61.1944 104.285C61.2122 104.338 61.7925 104.135 62.5366 104.057C63.2806 103.979 63.8894 104.057 63.8965 103.986C62.9912 103.73 62.022 103.837 61.1944 104.285Z" fill="#709312"/>
<path d="M61.5611 97.1896C61.8963 97.2322 62.2345 97.2465 62.5721 97.2323C62.9061 97.2755 63.243 97.2921 63.5796 97.2822C62.9418 97.001 62.2219 96.968 61.5611 97.1896Z" fill="#709312"/>
<path d="M63.0137 92.316C63.3648 92.2429 63.7232 92.2106 64.0817 92.2198C64.4295 92.2876 64.7686 92.3938 65.0928 92.5367C65.0928 92.5189 65.0287 92.4156 64.8578 92.3017C64.6306 92.1549 64.3721 92.0635 64.1031 92.0347C63.8343 92.0045 63.5622 92.0387 63.3092 92.1344C63.1027 92.2092 63.0031 92.2946 63.0137 92.316Z" fill="#709312"/>
<g opacity="0.3">
<path d="M87.1573 116.264C85.4307 119.543 81.4043 121.227 77.7233 120.778C74.0423 120.33 70.7635 118.041 68.4673 115.121C66.7763 112.964 65.5232 110.169 66.2209 107.521C68.0471 111.317 71.2417 114.282 75.1633 115.82C79.0849 117.359 83.4434 117.357 87.3638 115.816" fill="black"/>
</g>
<path d="M65.6126 88.0511C66.4398 86.7763 66.743 85.2314 66.4591 83.7385C66.1753 82.2456 65.3262 80.9198 64.089 80.0375C63.1064 79.3255 61.9209 78.9446 60.9918 78.1756C60.4236 77.6773 59.9608 77.0704 59.6306 76.3905C59.3005 75.7106 59.1096 74.9716 59.0694 74.2169C59.0008 72.7028 59.3362 71.1977 60.0412 69.8559L59.0516 69.3682L58.9661 69.475C58.309 70.3379 57.8514 71.3357 57.6262 72.3967C57.401 73.4576 57.4137 74.5553 57.6636 75.6108C57.9135 76.6662 58.3943 77.6531 59.0714 78.5004C59.7484 79.3477 60.6049 80.0344 61.5792 80.511C62.3203 80.8511 63.0173 81.2803 63.6546 81.789C64.89 82.857 64.3844 84.071 64.3844 84.071" fill="#709312"/>
<g opacity="0.7">
<path d="M65.6126 88.0511C66.4398 86.7763 66.743 85.2314 66.4591 83.7385C66.1753 82.2456 65.3262 80.9198 64.089 80.0375C63.1064 79.3255 61.9209 78.9446 60.9918 78.1756C60.4236 77.6773 59.9608 77.0704 59.6306 76.3905C59.3005 75.7106 59.1096 74.9716 59.0694 74.2169C59.0008 72.7028 59.3362 71.1977 60.0412 69.8559L59.0516 69.3682L58.9661 69.475C58.309 70.3379 57.8514 71.3357 57.6262 72.3967C57.401 73.4576 57.4137 74.5553 57.6636 75.6108C57.9135 76.6662 58.3943 77.6531 59.0714 78.5004C59.7484 79.3477 60.6049 80.0344 61.5792 80.511C62.3203 80.8511 63.0173 81.2803 63.6546 81.789C64.89 82.857 64.3844 84.071 64.3844 84.071" fill="white"/>
</g>
<path d="M64.224 84.1351C64.6271 84.0552 65.0378 84.0194 65.4487 84.0283C65.8561 84.0939 66.2549 84.205 66.6377 84.3594C66.3142 84.0651 65.9038 83.8841 65.4684 83.8437C65.0329 83.8032 64.5962 83.9055 64.224 84.1351Z" fill="#709312"/>
<path d="M63.2912 81.4188C63.341 81.4366 63.4977 81.1269 63.7896 80.835C64.0815 80.5431 64.3877 80.3793 64.3699 80.3294C64.3521 80.2796 63.9818 80.3757 63.6579 80.7032C63.3339 81.0308 63.2449 81.4046 63.2912 81.4188Z" fill="#709312"/>
<path d="M59.7988 79.354C59.8486 79.3718 59.9768 79.0265 60.258 78.6883C60.5392 78.3501 60.8418 78.1507 60.8169 78.1044C60.792 78.0582 60.4182 78.197 60.1049 78.5744C59.7916 78.9517 59.7489 79.3469 59.7988 79.354Z" fill="#709312"/>
<path d="M57.4598 74.9254C57.7322 74.9064 58.0025 74.8647 58.2679 74.8008C58.5405 74.7946 58.8121 74.7648 59.0796 74.7118C58.8128 74.6115 58.5255 74.5785 58.243 74.6158C57.9604 74.6531 57.6914 74.7594 57.4598 74.9254Z" fill="#709312"/>
<path d="M58.2541 70.6462C58.2541 70.6996 58.5567 70.6818 58.8877 70.7815C59.2188 70.8812 59.4645 71.0414 59.5001 71.0022C59.5357 70.9631 59.3221 70.7103 58.9411 70.6035C58.5602 70.4967 58.2398 70.6 58.2541 70.6462Z" fill="#709312"/>
<path d="M91.2051 97.0009C89.9448 96.1821 88.2752 96.4527 86.8441 96.9262C85.413 97.3996 83.9783 98.0547 82.4795 97.9123C80.8455 97.7592 79.4464 96.6699 78.3677 95.4381C77.035 93.9151 76.0433 92.1248 75.4592 90.1871C74.8682 88.2149 74.5656 85.8973 72.8675 84.7296C71.1694 83.5619 68.8127 84.1493 67.3531 85.5306C65.8935 86.9119 65.1886 88.9055 64.7258 90.8706C63.6578 95.3989 63.64 100.23 65.1067 104.648C66.5734 109.066 69.5888 113.024 73.6828 115.239C77.7768 117.453 82.9388 117.77 87.104 115.698" fill="#709312"/>
<path d="M87.104 115.687C87.0385 115.71 86.9743 115.736 86.9117 115.766L86.3564 116.008C86.1072 116.104 85.7974 116.218 85.4308 116.364C85.0641 116.51 84.6298 116.609 84.1349 116.72C82.9356 116.979 81.7086 117.088 80.4824 117.044C79.7174 117.013 78.9558 116.925 78.204 116.78C77.3606 116.626 76.5326 116.398 75.7298 116.097C73.88 115.406 72.1754 114.376 70.703 113.06C69.0084 111.56 67.5986 109.767 66.5414 107.766C65.3745 105.556 64.6103 103.156 64.2844 100.678C63.9333 98.0177 63.991 95.3189 64.4552 92.6755C64.6691 91.3344 65.0039 90.0154 65.4556 88.7346C65.8798 87.4884 66.6064 86.3668 67.5702 85.4701C68.5217 84.6297 69.7581 84.184 71.027 84.2241C71.6345 84.2503 72.2247 84.4343 72.7394 84.7581C73.2364 85.0861 73.6507 85.5247 73.9498 86.0397C74.5621 87.0507 74.8255 88.2042 75.1246 89.2935C75.3869 90.368 75.7641 91.4111 76.2495 92.405C76.706 93.3322 77.2636 94.2061 77.912 95.0109C78.498 95.7659 79.1884 96.4335 79.9626 96.9938C80.6691 97.51 81.492 97.8439 82.3585 97.9657C83.1326 98.0363 83.913 97.9528 84.6547 97.72C86.0395 97.3106 87.1716 96.7838 88.172 96.6236C88.9294 96.4554 89.7165 96.475 90.4646 96.6805C90.6564 96.7406 90.8423 96.8181 91.02 96.9119C91.141 96.9796 91.2051 97.008 91.2051 97.008L91.0306 96.8977C90.8558 96.7949 90.6709 96.7102 90.4788 96.6449C89.725 96.4205 88.927 96.3886 88.1577 96.5524C87.1467 96.7054 86.0004 97.2252 84.6262 97.6204C83.8974 97.8442 83.1316 97.9216 82.3727 97.8482C81.527 97.725 80.7248 97.3948 80.0374 96.887C79.2756 96.3313 78.597 95.6695 78.0224 94.9219C77.3862 94.1218 76.8383 93.2552 76.3884 92.3373C75.9093 91.3513 75.5381 90.3165 75.2812 89.2508C74.9857 88.165 74.7258 86.9973 74.0957 85.9507C73.7847 85.4119 73.3519 84.9535 72.8319 84.6121C72.2984 84.2709 71.6846 84.0757 71.0519 84.0461C70.406 84.016 69.7606 84.1165 69.1544 84.3416C68.5346 84.5643 67.9612 84.8999 67.4634 85.3312C66.4778 86.2475 65.7342 87.3935 65.299 88.667C64.8417 89.9602 64.5033 91.2924 64.2879 92.647C63.8175 95.3078 63.7611 98.0253 64.1206 100.703C64.4506 103.202 65.2246 105.622 66.4061 107.848C67.4749 109.869 68.9019 111.678 70.6176 113.188C72.1078 114.504 73.8308 115.531 75.6977 116.214C76.507 116.512 77.3409 116.739 78.1897 116.891C78.9479 117.031 79.7154 117.114 80.4859 117.14C81.7207 117.177 82.9551 117.057 84.1598 116.784C84.6547 116.677 85.0819 116.535 85.4557 116.428C85.8295 116.321 86.1321 116.175 86.3777 116.072L86.926 115.812C87.0434 115.723 87.104 115.687 87.104 115.687Z" fill="#263238"/>
<path d="M71.782 88.9055C71.9644 88.7548 72.1104 88.565 72.2092 88.3501C72.4781 87.8418 72.6129 87.2732 72.6008 86.6983C72.5939 86.1244 72.4434 85.5614 72.1629 85.0607C72.0599 84.8464 71.9074 84.6597 71.7179 84.516C71.693 84.5374 71.8639 84.7438 72.0455 85.1212C72.2813 85.6153 72.4076 86.1546 72.4156 86.7021C72.4236 87.2496 72.3131 87.7924 72.0917 88.2932C71.9173 88.6741 71.7535 88.8877 71.782 88.9055Z" fill="#263238"/>
<path d="M69.6208 88.5922C69.7837 88.4243 69.9119 88.2259 69.9981 88.0084C70.2368 87.4931 70.3768 86.9376 70.4111 86.3708C70.4468 85.8045 70.3743 85.2367 70.1975 84.6976C70.1399 84.4704 70.037 84.2573 69.8949 84.071C70.1608 84.8033 70.2737 85.5824 70.2265 86.36C70.1794 87.1377 69.9732 87.8974 69.6208 88.5922Z" fill="#263238"/>
<path d="M67.8908 89.2081C68.1158 88.6681 68.2085 88.0823 68.1614 87.4993C68.177 86.9144 68.0551 86.3339 67.8054 85.8047C67.752 85.8225 67.9549 86.563 67.9763 87.5028C67.9976 88.4427 67.8374 89.2081 67.8908 89.2081Z" fill="#263238"/>
<path d="M38.1684 93.6581C41.4258 95.6446 45.7583 95.2672 49.1332 93.4837C52.5081 91.7001 55.0642 88.7133 57.1966 85.5805C57.8018 84.6905 58.4141 83.747 59.354 83.2095C61.2016 82.1415 63.7541 83.1739 64.815 84.9895C65.8759 86.8051 65.6765 89.1333 64.8577 91.0771C64.8577 91.0771 62.6861 101.6 51.3653 108.144" fill="#709312"/>
<path d="M51.3655 108.154C51.3999 108.143 51.4323 108.126 51.4616 108.105L51.7393 107.941C51.9885 107.788 52.3409 107.567 52.8073 107.289C53.0316 107.14 53.3021 106.997 53.5691 106.798L54.4413 106.161C54.751 105.922 55.107 105.698 55.4417 105.403L56.5097 104.488C58.2716 102.909 59.8384 101.126 61.1768 99.1761C61.9847 98.0023 62.6989 96.7667 63.3128 95.4808C64.0025 94.0819 64.5465 92.6158 64.9362 91.1056V91.1234C65.4778 89.8843 65.7041 88.5303 65.5948 87.1824C65.5257 86.4786 65.3253 85.7939 65.0038 85.1639C64.5853 84.3693 63.9432 83.7146 63.1568 83.2806C62.3705 82.8466 61.4742 82.6523 60.5788 82.7218C60.0573 82.7837 59.5569 82.9639 59.1156 83.2487C58.6935 83.5366 58.3188 83.8885 58.0049 84.2917C57.688 84.6833 57.4104 85.0963 57.1398 85.4986C56.8692 85.9008 56.588 86.296 56.3103 86.6805C55.7478 87.453 55.1711 88.1899 54.5766 88.877C53.4612 90.191 52.1905 91.3649 50.7923 92.3729C49.5711 93.2502 48.2163 93.9246 46.7802 94.3701C44.7067 95.045 42.4836 95.1142 40.3722 94.5694C40.196 94.5261 40.0225 94.4726 39.8524 94.4092C39.6922 94.3523 39.5392 94.306 39.4039 94.2491C39.1333 94.128 38.8984 94.0354 38.7204 93.9429L38.311 93.7257C38.2655 93.6992 38.2179 93.6766 38.1686 93.6581C38.21 93.6902 38.2541 93.7187 38.3003 93.7435L38.7026 93.9749C38.8806 94.0746 39.112 94.1707 39.3825 94.2989C39.5214 94.3594 39.6709 94.4092 39.8311 94.4698C40.0019 94.5373 40.1767 94.5944 40.3544 94.6407C42.4816 95.2196 44.7311 95.1689 46.83 94.4947C48.2812 94.0537 49.6507 93.3791 50.8849 92.4975C52.2973 91.4872 53.5813 90.3085 54.7083 88.9874C55.31 88.2967 55.8902 87.5634 56.4563 86.7873C56.7375 86.3993 57.0152 86.0005 57.2893 85.5982C57.5634 85.196 57.8376 84.7866 58.1473 84.4057C58.4506 84.019 58.8106 83.6805 59.2153 83.4017C59.6329 83.1328 60.1067 82.9635 60.6001 82.9069C61.6235 82.8136 62.6459 83.0957 63.4766 83.7008C64.0345 84.1081 64.4968 84.6323 64.8313 85.2367C65.1658 85.8411 65.3644 86.5112 65.4132 87.2002C65.5188 88.5173 65.2987 89.8402 64.7724 91.0522V91.07C64.3884 92.5698 63.8516 94.0264 63.1704 95.4167C62.5552 96.6974 61.8411 97.9282 61.0344 99.0978C59.7077 101.043 58.1541 102.824 56.4064 104.402L55.3384 105.324C55.0074 105.623 54.6549 105.848 54.3523 106.09L53.4872 106.738C53.2238 106.94 52.9568 107.094 52.7325 107.236L51.6894 107.912L51.4224 108.09C51.4016 108.11 51.3825 108.131 51.3655 108.154Z" fill="#263238"/>
<path d="M61.7959 89.1689C62.0656 88.3086 62.4449 87.4866 62.9244 86.7232C63.7575 85.4772 64.8183 84.8222 64.7756 84.7723C64.5274 84.8756 64.2977 85.0187 64.0957 85.196C63.0668 86.0086 62.3134 87.1187 61.9383 88.375C61.8452 88.6294 61.797 88.8981 61.7959 89.1689Z" fill="#263238"/>
<path d="M59.5959 87.7414C59.736 86.838 59.9946 85.957 60.3648 85.1212C60.7919 84.3132 61.322 83.5641 61.9419 82.8926C61.7078 83.0344 61.4976 83.2122 61.3189 83.4195C60.8635 83.8995 60.4853 84.4471 60.1975 85.0429C59.9112 85.6379 59.7168 86.2728 59.6208 86.9261C59.5657 87.1944 59.5573 87.4702 59.5959 87.7414Z" fill="#263238"/>
<g opacity="0.3">
<path d="M66.9546 108.635C66.0682 107.279 69.7207 106.958 71.3299 107.147C73.6866 107.418 75.8586 108.554 77.4243 110.337C78.9899 112.119 79.8376 114.419 79.8027 116.791C79.8027 116.791 72.7681 117.542 66.9546 108.635Z" fill="white"/>
</g>
<g opacity="0.3">
<path d="M60.9559 102.579C59.1052 105.41 56.3608 107.541 53.1595 108.631C52.8236 108.777 52.4544 108.829 52.0915 108.781C51.9125 108.755 51.7484 108.666 51.6275 108.532C51.5066 108.397 51.4365 108.225 51.4293 108.044C55.2349 105.974 58.4968 103.033 60.9487 99.4609C61.1356 100.557 60.9789 101.683 60.5002 102.686" fill="black"/>
</g>
<path d="M65.8538 78.5561C62.7187 75.4211 62.7187 70.3382 65.8538 67.2031C68.9888 64.0681 74.0717 64.068 77.2068 67.2031C80.3418 70.3382 80.3418 75.4211 77.2068 78.5561C74.0717 81.6912 68.9888 81.6912 65.8538 78.5561Z" fill="#F5F5F5"/>
<path d="M63.512 73.2166C63.512 77.0934 65.5484 80.3366 67.8161 80.3366C70.0838 80.3366 71.9243 77.1931 71.9243 73.3198C71.9243 69.4465 70.0838 66.303 67.8161 66.303C65.5484 66.303 63.512 69.3433 63.512 73.2166Z" fill="#263238"/>
<path d="M69.8134 76.5452C69.8805 76.4658 69.9357 76.377 69.9771 76.2817C70.106 76.0301 70.2166 75.7695 70.3082 75.5021C70.9282 73.7153 70.8764 71.7639 70.1623 70.0126C70.0569 69.7501 69.9307 69.4966 69.7849 69.2543C69.7398 69.1607 69.681 69.0743 69.6105 68.998C69.582 68.998 69.7956 69.3967 70.0377 70.066C70.3499 70.9303 70.5229 71.8387 70.5503 72.7573C70.574 73.6746 70.4539 74.5899 70.1943 75.47C69.9771 76.1358 69.7813 76.5309 69.8134 76.5452Z" fill="white"/>
<path d="M66.7909 70.1941C66.0319 70.1941 65.4167 69.5789 65.4167 68.82C65.4167 68.061 66.0319 67.4458 66.7909 67.4458C67.5498 67.4458 68.165 68.061 68.165 68.82C68.165 69.5789 67.5498 70.1941 66.7909 70.1941Z" fill="white"/>
<path d="M66.3315 62.9709C66.4846 63.1809 66.8726 63.1774 67.3603 63.0991C67.848 63.0207 68.4604 62.8783 69.1225 62.7715C69.7847 62.6647 70.3828 62.6007 70.8634 62.533C71.344 62.4654 71.7142 62.3692 71.8103 62.1272C71.9064 61.8851 71.6751 61.5398 71.1339 61.2514C70.8157 61.0887 70.473 60.9793 70.1193 60.9274C69.6876 60.86 69.2481 60.86 68.8164 60.9274C68.0382 61.0456 67.3137 61.3954 66.7373 61.9314C66.3101 62.3728 66.1855 62.768 66.3315 62.9709Z" fill="#263238"/>
<path d="M69.9697 82.9033C70.5893 81.6301 70.7257 80.1752 70.3536 78.8089C69.9814 77.4427 69.1259 76.258 67.9461 75.4749C66.7663 74.6918 65.3423 74.3637 63.9388 74.5513C62.5353 74.739 61.2475 75.4298 60.3149 76.4953" fill="#709312"/>
<path d="M60.3079 76.4953C60.3079 76.4953 60.4788 76.3351 60.7956 76.061C61.2482 75.6768 61.7574 75.3646 62.305 75.1354C63.1141 74.7932 63.9864 74.6258 64.8647 74.6441C65.9445 74.6341 67.0026 74.9471 67.9034 75.5427C68.8041 76.1383 69.5063 76.9895 69.9199 77.987C70.2773 78.7892 70.4617 79.6577 70.461 80.5359C70.4611 81.1287 70.3711 81.7181 70.194 82.2839C70.0658 82.6826 69.9662 82.8962 69.984 82.9033C70.0171 82.8582 70.0446 82.8092 70.0658 82.7574C70.1406 82.6122 70.206 82.4623 70.2616 82.3088C70.4713 81.7384 70.5821 81.1364 70.5892 80.5288C70.613 79.6283 70.4379 78.7337 70.0765 77.9086C69.6588 76.8785 68.9398 75.9984 68.0138 75.3836C67.0877 74.7687 65.9976 74.4477 64.886 74.4626C63.9858 74.4521 63.0941 74.6379 62.273 75.0072C61.7201 75.2502 61.2122 75.5848 60.7707 75.9969C60.6498 76.1075 60.5367 76.2265 60.4325 76.3529C60.3852 76.395 60.3433 76.4428 60.3079 76.4953Z" fill="#263238"/>
<path d="M85.9115 52.5045C85.9684 52.5344 86.0297 52.5548 86.0931 52.565L86.6235 52.7074C86.8549 52.7644 87.1362 52.8462 87.4601 52.9459L87.9763 53.099L88.5531 53.2948C90.6456 54.0261 92.6532 54.9809 94.541 56.1428C96.4311 57.3087 98.2391 58.6028 99.9522 60.0161C100.611 60.5572 101.141 60.9986 101.501 61.3119L101.924 61.6679C102.021 61.7498 102.074 61.789 102.081 61.7818C102.042 61.7309 101.998 61.6843 101.949 61.643L101.551 61.2621C101.195 60.9346 100.686 60.4789 100.038 59.92C98.3407 58.4779 96.5351 57.1687 94.6371 56.004C92.7387 54.8256 90.7072 53.8768 88.5851 53.1773L88.0048 52.9886L87.4779 52.8498C87.1504 52.7572 86.8692 52.686 86.6342 52.6398L86.0931 52.533C86.0339 52.5162 85.973 52.5066 85.9115 52.5045Z" fill="#263238"/>
<path d="M160.922 85.7476C160.986 85.6145 161.035 85.4748 161.068 85.3311C161.111 85.1958 161.157 85.0249 161.2 84.8291C161.243 84.6333 161.3 84.4019 161.335 84.1527C161.433 83.5641 161.488 82.9692 161.499 82.3727C161.508 81.6401 161.458 80.9079 161.349 80.1833C161.231 79.4588 161.056 78.7446 160.826 78.0473C160.629 77.4812 160.391 76.9303 160.114 76.399C160.004 76.1676 159.879 75.9718 159.78 75.7938C159.68 75.6158 159.584 75.4734 159.502 75.3559C159.426 75.228 159.336 75.1087 159.235 74.9999C159.206 75.0177 159.559 75.5411 159.997 76.4524C160.25 76.9863 160.468 77.5356 160.652 78.0971C160.87 78.7881 161.038 79.4935 161.157 80.2082C161.262 80.9238 161.315 81.6459 161.317 82.3691C161.314 82.9645 161.273 83.5591 161.193 84.1491C161.065 85.1353 160.887 85.7405 160.922 85.7476Z" fill="#263238"/>
<path d="M157.455 85.8545C157.515 85.7205 157.563 85.581 157.597 85.438C157.652 85.2725 157.696 85.1036 157.729 84.9325C157.772 84.7367 157.832 84.5124 157.864 84.2596C157.963 83.6711 158.019 83.0762 158.031 82.4796C158.059 81.0094 157.83 79.5457 157.355 78.1542C157.159 77.5867 156.921 77.0345 156.643 76.5024C156.536 76.271 156.412 76.0752 156.312 75.9007C156.227 75.7502 156.134 75.604 156.034 75.4629C155.957 75.3356 155.868 75.2163 155.767 75.1069C155.735 75.1282 156.091 75.648 156.526 76.5629C156.782 77.0954 157.003 77.645 157.184 78.2076C157.402 78.8971 157.57 79.6015 157.686 80.3151C157.794 81.0316 157.849 81.7551 157.85 82.4796C157.847 83.075 157.805 83.6696 157.725 84.2596C157.597 85.2422 157.419 85.8438 157.455 85.8545Z" fill="#263238"/>
<path d="M30.8141 49C30.7484 49.1322 30.6993 49.2722 30.6682 49.4165C30.6151 49.5813 30.5712 49.7489 30.5364 49.9185C30.4937 50.1178 30.4332 50.3421 30.4012 50.5949C30.3022 51.1834 30.2463 51.7783 30.2338 52.3749C30.2066 53.845 30.4355 55.3087 30.9102 56.7003C31.1054 57.267 31.3434 57.818 31.6222 58.3486C31.7326 58.58 31.8536 58.7758 31.9569 58.9538C32.0402 59.1054 32.133 59.2516 32.2346 59.3916C32.3087 59.5198 32.3971 59.6392 32.498 59.7476C32.53 59.7298 32.174 59.2065 31.7397 58.2952C31.4871 57.7608 31.2671 57.2115 31.0811 56.6504C30.8629 55.9598 30.6951 55.2543 30.5792 54.5394C30.4716 53.8241 30.4168 53.1018 30.4154 52.3784C30.4205 51.7831 30.4621 51.1887 30.54 50.5984C30.6682 49.6266 30.8462 49.0214 30.8141 49Z" fill="#263238"/>
<path d="M23.8968 12.5978C23.7498 12.6125 23.6052 12.6454 23.4664 12.6957C23.2987 12.7385 23.1334 12.7904 22.9713 12.8512C22.7797 12.921 22.5576 12.9891 22.3265 13.0964C21.7756 13.3256 21.2421 13.5946 20.7302 13.9014C19.4708 14.6603 18.3531 15.6326 17.4271 16.7748C17.0511 17.2415 16.7111 17.7362 16.4101 18.2544C16.2728 18.471 16.1714 18.6776 16.0755 18.8597C15.9915 19.0109 15.917 19.1673 15.8524 19.3278C15.7833 19.4588 15.7292 19.5971 15.6911 19.7402C15.7232 19.7579 15.977 19.1781 16.5178 18.3255C16.8359 17.8274 17.1841 17.349 17.5602 16.893C18.029 16.3409 18.5372 15.8236 19.081 15.3451C19.6295 14.8735 20.212 14.443 20.8238 14.0571C21.3306 13.7447 21.8561 13.4638 22.3974 13.2158C23.2885 12.8074 23.8957 12.6363 23.8968 12.5978Z" fill="#263238"/>
<path d="M28.4966 49.6265C28.4317 49.7591 28.3827 49.8989 28.3506 50.043C28.2976 50.2078 28.2536 50.3753 28.2189 50.5449C28.1762 50.7443 28.1192 50.9686 28.0836 51.2213C27.9847 51.8098 27.9288 52.4047 27.9163 53.0013C27.909 53.7339 27.959 54.466 28.0658 55.1907C28.1838 55.9157 28.36 56.63 28.5927 57.3267C28.7886 57.8943 29.0266 58.4465 29.3047 58.9786C29.4151 59.2064 29.5361 59.4022 29.6393 59.5802C29.7246 59.7372 29.8185 59.8893 29.9206 60.0359C29.9948 60.1641 30.0831 60.2835 30.184 60.3919C30.2161 60.3741 29.8601 59.8508 29.4257 58.9394C29.1719 58.4056 28.9519 57.8562 28.7672 57.2947C28.5489 56.6041 28.3812 55.8985 28.2652 55.1836C28.1573 54.4683 28.1026 53.7461 28.1014 53.0227C28.1062 52.4274 28.1478 51.8329 28.226 51.2427C28.3542 50.2388 28.5322 49.6336 28.4966 49.6265Z" fill="#263238"/>
<path d="M22.1332 10.9685C21.9864 10.9841 21.8419 11.017 21.7028 11.0665C21.535 11.1092 21.3698 11.1611 21.2077 11.2219C21.0161 11.2918 20.7959 11.3628 20.5629 11.4671C20.012 11.6963 19.4784 11.9654 18.9666 12.2722C18.3424 12.6557 17.7491 13.0874 17.1921 13.5633C16.6409 14.0488 16.1298 14.578 15.6635 15.1456C15.2871 15.6133 14.9461 16.1085 14.6434 16.6271C14.5092 16.8417 14.4078 17.0484 14.3119 17.2305C14.2243 17.3862 14.1454 17.5466 14.0756 17.711C14.0065 17.842 13.9524 17.9803 13.9143 18.1234C13.9464 18.1411 14.2002 17.5613 14.741 16.7088C15.058 16.2098 15.4062 15.7314 15.7835 15.2763C16.2522 14.7241 16.7604 14.2068 17.3042 13.7283C17.8525 13.2566 18.435 12.8261 19.047 12.4403C19.5536 12.1277 20.0792 11.8467 20.6206 11.5991C21.5389 11.1736 22.1461 11.0025 22.1332 10.9685Z" fill="#263238"/>
<path d="M115.299 53.3266C113.045 50.3155 112.002 46.5688 112.374 42.8259C112.747 39.083 114.51 35.6159 117.314 33.1089C120.118 30.6019 123.76 29.2371 127.521 29.2839C131.282 29.3307 134.889 30.7857 137.63 33.3617C140.371 35.9377 142.047 39.4476 142.327 43.1986C142.606 46.9496 141.47 50.6691 139.141 53.6232C136.813 56.5773 133.462 58.5511 129.749 59.1553C126.036 59.7594 122.232 58.9499 119.087 56.8866L113.918 59.1756L115.299 53.3266Z" fill="#FAFAFA"/>
<path d="M127.35 29.3393C127.438 29.3315 127.526 29.3315 127.613 29.3393L128.379 29.3642C128.55 29.3642 128.735 29.3642 128.945 29.3891L129.621 29.4817L130.412 29.5956L131.294 29.8163C132.811 30.1985 134.255 30.8288 135.566 31.6818C137.512 32.9189 139.148 34.5848 140.35 36.552C141.552 38.5193 142.288 40.7355 142.501 43.031C142.56 43.72 142.574 44.4121 142.544 45.103C142.519 45.459 142.544 45.815 142.476 46.171C142.409 46.527 142.37 46.883 142.313 47.239C142.048 48.7052 141.568 50.1243 140.889 51.4504C140.162 52.839 139.236 54.1139 138.14 55.2347C136.974 56.3826 135.638 57.3433 134.178 58.0827C132.668 58.8583 131.032 59.3597 129.347 59.5637C128.921 59.6308 128.49 59.6676 128.058 59.674C127.625 59.7073 127.19 59.7156 126.755 59.699C125.878 59.6626 125.005 59.5518 124.146 59.3679C122.292 58.9664 120.53 58.2201 118.952 57.1678L119.109 57.1856L113.818 59.3216L113.505 59.4498L113.594 59.1222L115.132 53.4476L115.157 53.5864C113.723 51.684 112.757 49.4704 112.337 47.125C112.134 46.034 112.064 44.9221 112.131 43.8142C112.142 43.2783 112.193 42.744 112.284 42.2158C112.323 41.9559 112.366 41.6996 112.405 41.4433C112.444 41.187 112.53 40.9413 112.59 40.6921C113.474 37.216 115.564 34.1673 118.489 32.0912C119.57 31.315 120.752 30.691 122.003 30.2364L122.793 29.9552L123.544 29.7629L124.231 29.592C124.452 29.5493 124.666 29.528 124.865 29.4959C125.264 29.4461 125.616 29.3784 125.933 29.3606L126.713 29.3357H127.186C127.239 29.3279 127.293 29.3279 127.346 29.3357C127.294 29.3475 127.24 29.3546 127.186 29.3571L126.713 29.3927L125.944 29.4461C125.638 29.471 125.289 29.5458 124.894 29.6063C122.024 30.1017 119.359 31.4197 117.224 33.4002C115.088 35.3808 113.574 37.9386 112.864 40.7633C112.807 41.009 112.733 41.251 112.686 41.5002C112.64 41.7494 112.612 42.0058 112.572 42.2585C112.486 42.7752 112.44 43.2976 112.434 43.8214C112.373 44.9083 112.445 45.9985 112.647 47.0681C113.066 49.3638 114.02 51.5285 115.431 53.3871L115.477 53.4512L115.456 53.5295C114.958 55.3558 114.445 57.2461 113.914 59.1863L113.69 58.987L118.977 56.851L119.059 56.8189L119.137 56.8652C120.682 57.8863 122.403 58.6106 124.214 59.0012C125.052 59.1812 125.905 59.2896 126.763 59.3252C127.187 59.34 127.613 59.3317 128.037 59.3002C128.458 59.2933 128.878 59.2576 129.294 59.1934C130.941 58.9955 132.541 58.5073 134.018 57.7516C135.452 57.0341 136.767 56.0999 137.916 54.982C138.99 53.8855 139.9 52.6397 140.618 51.2831C141.291 49.9871 141.771 48.5994 142.042 47.1642C142.095 46.8082 142.149 46.4522 142.202 46.1211C142.256 45.79 142.249 45.4091 142.273 45.0816C142.402 42.4722 141.843 39.8749 140.651 37.5499C139.46 35.2249 137.678 33.254 135.485 31.8348C134.193 30.9794 132.772 30.3386 131.277 29.9374L130.404 29.706L129.621 29.5778L128.952 29.4674C128.745 29.4425 128.557 29.439 128.389 29.4247L127.624 29.3678C127.532 29.3641 127.441 29.3546 127.35 29.3393Z" fill="#263238"/>
<path d="M126.732 44.863C126.752 44.8429 126.763 44.8157 126.763 44.7874C126.763 44.759 126.752 44.7318 126.732 44.7118L122.777 40.7576C122.527 40.5072 122.527 40.1015 122.778 39.8514C123.028 39.6013 123.434 39.6016 123.684 39.852L127.638 43.8046C127.658 43.8247 127.685 43.8359 127.714 43.8359C127.742 43.8359 127.769 43.8247 127.789 43.8046L131.743 39.852C131.994 39.6019 132.399 39.6018 132.649 39.8518C132.899 40.1019 132.899 40.5074 132.649 40.7576L128.696 44.7118C128.676 44.7318 128.664 44.759 128.664 44.7874C128.664 44.8157 128.676 44.8429 128.696 44.863L132.649 48.8176C132.811 48.9795 132.874 49.2153 132.815 49.4363C132.756 49.6573 132.583 49.8299 132.362 49.8891C132.141 49.9482 131.905 49.885 131.743 49.7232L127.789 45.7685C127.769 45.7484 127.742 45.7371 127.714 45.7371C127.685 45.7371 127.658 45.7484 127.638 45.7685L123.684 49.7232C123.434 49.9733 123.028 49.9734 122.778 49.7234C122.528 49.4733 122.528 49.0678 122.778 48.8176L126.732 44.863Z" fill="#709312"/>
<mask id="mask0_3558_46758" style="mask-type:alpha" maskUnits="userSpaceOnUse" x="122" y="39" width="11" height="11">
<path d="M126.732 44.863C126.752 44.8429 126.763 44.8157 126.763 44.7874C126.763 44.759 126.752 44.7318 126.732 44.7118L122.777 40.7576C122.527 40.5072 122.527 40.1015 122.778 39.8514C123.028 39.6013 123.434 39.6016 123.684 39.852L127.638 43.8046C127.658 43.8247 127.685 43.8359 127.714 43.8359C127.742 43.8359 127.769 43.8247 127.789 43.8046L131.743 39.852C131.994 39.6019 132.399 39.6018 132.649 39.8518C132.899 40.1019 132.899 40.5074 132.649 40.7576L128.696 44.7118C128.676 44.7318 128.664 44.759 128.664 44.7874C128.664 44.8157 128.676 44.8429 128.696 44.863L132.649 48.8176C132.811 48.9795 132.874 49.2153 132.815 49.4363C132.756 49.6573 132.583 49.8299 132.362 49.8891C132.141 49.9482 131.905 49.885 131.743 49.7232L127.789 45.7685C127.769 45.7484 127.742 45.7371 127.714 45.7371C127.685 45.7371 127.658 45.7484 127.638 45.7685L123.684 49.7232C123.434 49.9733 123.028 49.9734 122.778 49.7234C122.528 49.4733 122.528 49.0678 122.778 48.8176L126.732 44.863Z" fill="white"/>
</mask>
<g mask="url(#mask0_3558_46758)">
</g>
</svg>
