<svg width="449" height="225" viewBox="0 0 449 225" fill="none" xmlns="http://www.w3.org/2000/svg">
<g opacity="0.3">
<g clip-path="url(#clip0_9652_12987)">
<path d="M449 0H-50V225H449V0Z" fill="white"/>
<path d="M49.8004 0H-0.0996094V45H49.8004V0Z" fill="white"/>
<path d="M24.8504 0H-0.0996094V22.5H24.8504V0Z" fill="#D7DEFA"/>
<path d="M24.8504 0V22.5H-0.0996094L24.8504 0Z" fill="#FFE4EB"/>
<path d="M49.7996 0H24.8496V22.5H49.7996V0Z" fill="#CDD5F8"/>
<path d="M24.8496 0H49.7996L24.8496 22.5V0Z" fill="#FF698D"/>
<path d="M24.8504 22.5H-0.0996094V45H24.8504V22.5Z" fill="#869AEF"/>
<path d="M-0.0996094 22.5H24.8504V45L-0.0996094 22.5Z" fill="#FF527B"/>
<path d="M49.7996 22.5H24.8496V45H49.7996V22.5Z" fill="#FFE6EC"/>
<path d="M24.8496 22.5L49.7996 45H24.8496V22.5Z" fill="#3C5DE6"/>
<path d="M99.7008 0H49.8008V45H99.7008V0Z" fill="white"/>
<path d="M74.7508 0H49.8008V22.5H74.7508V0Z" fill="#FFE8ED"/>
<path d="M49.8008 22.5C56.4179 22.5 62.7641 20.1295 67.4431 15.9099C72.1221 11.6903 74.7508 5.96737 74.7508 0H49.8008" fill="#3759E5"/>
<path d="M99.7 0H74.75V22.5H99.7V0Z" fill="#FF5B82"/>
<path d="M74.75 0C74.75 5.96737 77.3787 11.6903 82.0577 15.9099C86.7367 20.1295 93.0829 22.5 99.7 22.5V0" fill="#8FA2F1"/>
<path d="M74.7508 22.5H49.8008V45H74.7508V22.5Z" fill="#99AAF2"/>
<path d="M49.8008 22.5C56.4179 22.5 62.7641 24.8705 67.4431 29.0901C72.1221 33.3097 74.7508 39.0326 74.7508 45H49.8008" fill="#3C5DE6"/>
<path d="M99.7 22.5H74.75V45H99.7V22.5Z" fill="#CDD6F9"/>
<path d="M74.75 45C74.75 39.0326 77.3787 33.3097 82.0577 29.0901C86.7367 24.8705 93.0829 22.5 99.7 22.5V45" fill="#FF8DA8"/>
<path d="M149.599 0H99.6992V45H149.599V0Z" fill="#FFECF1"/>
<path d="M99.6992 0H149.599L99.6992 45V0Z" fill="#FF4F79"/>
<path d="M199.5 0H149.6V45H199.5V0Z" fill="white"/>
<path d="M174.55 0H149.6V22.5H174.55V0Z" fill="#C2CCF7"/>
<path d="M149.6 22.5C149.6 16.5326 152.228 10.8097 156.907 6.5901C161.586 2.37053 167.932 0 174.55 0V22.5" fill="#FF99B1"/>
<path d="M199.501 0H174.551V22.5H199.501V0Z" fill="#2E51E4"/>
<path d="M174.551 0C181.168 0 187.514 2.37053 192.193 6.5901C196.872 10.8097 199.501 16.5326 199.501 22.5H174.551" fill="#FFAEC1"/>
<path d="M174.55 22.5H149.6V45H174.55V22.5Z" fill="#284CE3"/>
<path d="M149.6 22.5C149.6 28.4674 152.228 34.1903 156.907 38.4099C161.586 42.6295 167.932 45 174.55 45V22.5" fill="#EFF2FD"/>
<path d="M199.501 22.5H174.551V45H199.501V22.5Z" fill="#FF668A"/>
<path d="M174.551 45C181.168 45 187.514 42.6295 192.193 38.4099C196.872 34.1903 199.501 28.4674 199.501 22.5H174.551" fill="#FFE8EE"/>
<path d="M249.4 0H199.5V45H249.4V0Z" fill="#FFF1F4"/>
<path d="M249.4 0H199.5V45H249.4V0Z" fill="#D7DEFA"/>
<path d="M299.3 0H249.4V45H299.3V0Z" fill="#F6F8FE"/>
<path d="M249.4 45C249.4 33.0653 254.658 21.6193 264.016 13.1802C273.374 4.74106 286.066 0 299.3 0L249.4 45C262.635 45 275.327 40.2589 284.685 31.8198C294.043 23.3807 299.3 11.9347 299.3 0" fill="#4161E6"/>
<path d="M349.201 0H299.301V45H349.201V0Z" fill="#FF7697"/>
<path d="M299.301 0H349.201V45L299.301 0Z" fill="#788FED"/>
<path d="M399.099 0H349.199V45H399.099V0Z" fill="#FFC4D2"/>
<path d="M349.199 0H399.099V45L349.199 0Z" fill="#FF3565"/>
<path d="M449 0H399.1V45H449V0Z" fill="white"/>
<path d="M449 0H399.1V45H449V0Z" fill="#5F7AEA"/>
<path d="M49.8004 45H-0.0996094V90H49.8004V45Z" fill="white"/>
<path d="M24.8504 45H-0.0996094V67.5H24.8504V45Z" fill="#CAD3F8"/>
<path d="M-0.0996094 45C3.17687 45 6.42127 45.582 9.44835 46.7127C12.4754 47.8434 15.2259 49.5008 17.5427 51.5901C19.8595 53.6794 21.6973 56.1598 22.9512 58.8896C24.205 61.6194 24.8504 64.5453 24.8504 67.5H-0.0996094" fill="#A3B2F3"/>
<path d="M49.7996 45H24.8496V67.5H49.7996V45Z" fill="#FF688C"/>
<path d="M24.8496 67.5C24.8496 64.5453 25.495 61.6194 26.7488 58.8896C28.0027 56.1598 29.8405 53.6794 32.1573 51.5901C36.8363 47.3705 43.1825 45 49.7996 45V67.5" fill="#4463E7"/>
<path d="M24.8504 67.5H-0.0996094V90H24.8504V67.5Z" fill="#F7F8FE"/>
<path d="M-0.0996094 90C6.51754 90 12.8637 87.6295 17.5427 83.4099C22.2217 79.1903 24.8504 73.4674 24.8504 67.5H-0.0996094" fill="#FFF4F6"/>
<path d="M49.7996 67.5H24.8496V90H49.7996V67.5Z" fill="#FFD6E0"/>
<path d="M24.8496 67.5C24.8496 73.4674 27.4783 79.1903 32.1573 83.4099C36.8363 87.6295 43.1825 90 49.7996 90V67.5" fill="#2147E2"/>
<path d="M99.7008 45H49.8008V90H99.7008V45Z" fill="#F6F8FE"/>
<path d="M49.8008 45L99.7008 90H49.8008V45Z" fill="#FF3F6D"/>
<path d="M149.599 45H99.6992V90H149.599V45Z" fill="white"/>
<path d="M124.649 45H99.6992V67.5H124.649V45Z" fill="#FF88A4"/>
<path d="M99.6992 45C99.6992 50.9674 102.328 56.6903 107.007 60.9099C111.686 65.1295 118.032 67.5 124.649 67.5V45" fill="#98A9F2"/>
<path d="M149.6 45H124.65V67.5H149.6V45Z" fill="#7D93EE"/>
<path d="M124.65 67.5C127.927 67.5 131.171 66.918 134.198 65.7873C137.225 64.6566 139.976 62.9992 142.293 60.9099C144.61 58.8206 146.447 56.3402 147.701 53.6104C148.955 50.8806 149.6 47.9547 149.6 45H124.65" fill="#2449E3"/>
<path d="M124.649 67.5H99.6992V90H124.649V67.5Z" fill="#1D43E2"/>
<path d="M99.6992 90C99.6992 84.0326 102.328 78.3097 107.007 74.0901C111.686 69.8705 118.032 67.5 124.649 67.5V90" fill="#EAEDFC"/>
<path d="M149.6 67.5H124.65V90H149.6V67.5Z" fill="#C6D0F8"/>
<path d="M124.65 67.5C127.927 67.5 131.171 68.082 134.198 69.2127C137.225 70.3434 139.976 72.0008 142.293 74.0901C144.61 76.1794 146.447 78.6598 147.701 81.3896C148.955 84.1194 149.6 87.0453 149.6 90H124.65" fill="#FFBCCC"/>
<path d="M199.5 45H149.6V90H199.5V45Z" fill="white"/>
<path d="M174.55 45H149.6V67.5H174.55V45Z" fill="#3153E4"/>
<path d="M149.6 67.5C149.6 64.5453 150.245 61.6194 151.499 58.8896C152.753 56.1598 154.59 53.6794 156.907 51.5901C161.586 47.3705 167.932 45 174.55 45V67.5" fill="#F7F9FE"/>
<path d="M199.501 45H174.551V67.5H199.501V45Z" fill="#FF5C83"/>
<path d="M174.551 45C177.827 45 181.072 45.582 184.099 46.7127C187.126 47.8434 189.876 49.5008 192.193 51.5901C194.51 53.6794 196.348 56.1598 197.602 58.8896C198.855 61.6194 199.501 64.5453 199.501 67.5H174.551" fill="#CBD4F8"/>
<path d="M174.55 67.5H149.6V90H174.55V67.5Z" fill="#FF6D90"/>
<path d="M149.6 67.5C149.6 73.4674 152.228 79.1903 156.907 83.4099C161.586 87.6295 167.932 90 174.55 90V67.5" fill="#FF3666"/>
<path d="M199.501 67.5H174.551V90H199.501V67.5Z" fill="#FBFCFF"/>
<path d="M174.551 90C181.168 90 187.514 87.6295 192.193 83.4099C196.872 79.1903 199.501 73.4674 199.501 67.5H174.551" fill="#D7DDFA"/>
<path d="M249.4 45H199.5V90H249.4V45Z" fill="#607AEA"/>
<path d="M249.4 45H199.5V90H249.4V45Z" fill="#FFB4C6"/>
<path d="M299.3 45H249.4V90H299.3V45Z" fill="white"/>
<path d="M274.35 45H249.4V67.5H274.35V45Z" fill="#869BEF"/>
<path d="M274.35 45V67.5H249.4L274.35 45Z" fill="#FF7999"/>
<path d="M299.3 45H274.35V67.5H299.3V45Z" fill="#1940E1"/>
<path d="M274.35 45L299.3 67.5H274.35V45Z" fill="#BCC7F6"/>
<path d="M274.35 67.5H249.4V90H274.35V67.5Z" fill="#D3DAF9"/>
<path d="M249.4 67.5H274.35L249.4 90V67.5Z" fill="#7189ED"/>
<path d="M299.3 67.5H274.35V90H299.3V67.5Z" fill="#5B77EA"/>
<path d="M274.35 67.5H299.3V90L274.35 67.5Z" fill="#2C50E4"/>
<path d="M349.201 45H299.301V90H349.201V45Z" fill="#FF6C8F"/>
<path d="M349.201 45V90H299.301L349.201 45Z" fill="#FF99B1"/>
<path d="M399.099 45H349.199V90H399.099V45Z" fill="white"/>
<path d="M374.149 45H349.199V67.5H374.149V45Z" fill="#96A8F1"/>
<path d="M349.199 67.5C349.199 64.5453 349.845 61.6194 351.098 58.8896C352.352 56.1598 354.19 53.6794 356.507 51.5901C361.186 47.3705 367.532 45 374.149 45V50.625C371.692 50.625 369.259 51.0615 366.988 51.9095C364.718 52.7576 362.655 54.0006 360.918 55.5676C359.18 57.1346 357.802 58.9948 356.861 61.0422C355.921 63.0896 355.437 65.2839 355.437 67.5" fill="#FFF7F9"/>
<path d="M399.1 45H374.15V67.5H399.1V45Z" fill="#5270E9"/>
<path d="M374.15 45C377.427 45 380.671 45.582 383.698 46.7127C386.725 47.8434 389.476 49.5008 391.793 51.5901C394.11 53.6794 395.947 56.1598 397.201 58.8896C398.455 61.6194 399.1 64.5453 399.1 67.5H392.863C392.863 63.0245 390.891 58.7322 387.382 55.5676C383.873 52.4029 379.113 50.625 374.15 50.625" fill="#E2E7FB"/>
<path d="M374.149 67.5H349.199V90H374.149V67.5Z" fill="#7B91EE"/>
<path d="M349.199 67.5C349.199 73.4674 351.828 79.1903 356.507 83.4099C361.186 87.6295 367.532 90 374.149 90V84.375C371.692 84.375 369.259 83.9385 366.988 83.0905C364.718 82.2424 362.655 80.9994 360.918 79.4324C359.18 77.8654 357.802 76.0052 356.861 73.9578C355.921 71.9104 355.437 69.7161 355.437 67.5" fill="#FF92AC"/>
<path d="M399.1 67.5H374.15V90H399.1V67.5Z" fill="#FFCAD7"/>
<path d="M374.15 90C380.768 90 387.114 87.6295 391.793 83.4099C396.472 79.1903 399.1 73.4674 399.1 67.5H392.863C392.863 69.7161 392.379 71.9104 391.438 73.9578C390.498 76.0052 389.12 77.8654 387.382 79.4324C385.645 80.9994 383.582 82.2424 381.311 83.0905C379.041 83.9385 376.608 84.375 374.15 84.375" fill="#FF6086"/>
<path d="M449 45H399.1V90H449V45Z" fill="white"/>
<path d="M424.05 45H399.1V67.5H424.05V45Z" fill="#FF7193"/>
<path d="M399.1 45C402.376 45 405.62 45.582 408.648 46.7127C411.675 47.8434 414.425 49.5008 416.742 51.5901C419.059 53.6794 420.897 56.1598 422.15 58.8896C423.404 61.6194 424.05 64.5453 424.05 67.5H399.1" fill="#2B4FE3"/>
<path d="M449.001 45H424.051V67.5H449.001V45Z" fill="#7F94EE"/>
<path d="M424.051 67.5C424.051 64.5453 424.696 61.6194 425.95 58.8896C427.204 56.1598 429.042 53.6794 431.358 51.5901C436.037 47.3705 442.384 45 449.001 45V67.5" fill="#FF98B0"/>
<path d="M424.05 67.5H399.1V90H424.05V67.5Z" fill="#8CA0F0"/>
<path d="M399.1 90C405.717 90 412.063 87.6295 416.742 83.4099C421.421 79.1903 424.05 73.4674 424.05 67.5H399.1" fill="#FF557E"/>
<path d="M449.001 67.5H424.051V90H449.001V67.5Z" fill="#B8C4F6"/>
<path d="M424.051 67.5C424.051 73.4674 426.679 79.1903 431.358 83.4099C436.037 87.6295 442.384 90 449.001 90V67.5" fill="#D3DAF9"/>
<path d="M49.8004 90H-0.0996094V135H49.8004V90Z" fill="white"/>
<path d="M24.8504 90H-0.0996094V112.5H24.8504V90Z" fill="#ADBBF4"/>
<path d="M12.3754 112.5C19.2651 112.5 24.8504 107.463 24.8504 101.25C24.8504 95.0368 19.2651 90 12.3754 90C5.48564 90 -0.0996094 95.0368 -0.0996094 101.25C-0.0996094 107.463 5.48564 112.5 12.3754 112.5Z" fill="#8A9EF0"/>
<path d="M49.7996 90H24.8496V112.5H49.7996V90Z" fill="#FF3B69"/>
<path d="M49.7996 90H24.8496V112.5H49.7996V90Z" fill="#B7C3F6"/>
<path d="M24.8504 112.5H-0.0996094V135H24.8504V112.5Z" fill="#FF3C6A"/>
<path d="M12.3754 135C19.2651 135 24.8504 129.963 24.8504 123.75C24.8504 117.537 19.2651 112.5 12.3754 112.5C5.48564 112.5 -0.0996094 117.537 -0.0996094 123.75C-0.0996094 129.963 5.48564 135 12.3754 135Z" fill="#FF567E"/>
<path d="M49.7996 112.5H24.8496V135H49.7996V112.5Z" fill="#FF5D84"/>
<path d="M49.7996 112.5H24.8496V135H49.7996V112.5Z" fill="#CFD7F9"/>
<path d="M99.7008 90H49.8008V135H99.7008V90Z" fill="white"/>
<path d="M74.7508 90H49.8008V112.5H74.7508V90Z" fill="#FFDFE6"/>
<path d="M74.7508 90V112.5H49.8008L74.7508 90Z" fill="#FF5880"/>
<path d="M99.7 90H74.75V112.5H99.7V90Z" fill="#FFEAEF"/>
<path d="M74.75 90H99.7L74.75 112.5V90Z" fill="#C6D0F8"/>
<path d="M74.7508 112.5H49.8008V135H74.7508V112.5Z" fill="#FF97AF"/>
<path d="M49.8008 112.5H74.7508V135L49.8008 112.5Z" fill="#FF6388"/>
<path d="M99.7 112.5H74.75V135H99.7V112.5Z" fill="#FFBDCD"/>
<path d="M74.75 112.5L99.7 135H74.75V112.5Z" fill="#B9C5F6"/>
<path d="M149.599 90H99.6992V135H149.599V90Z" fill="#FF6086"/>
<path d="M99.6992 135C99.6992 129.091 100.99 123.239 103.498 117.779C106.005 112.32 109.681 107.359 114.315 103.18C123.673 94.7411 136.365 90 149.599 90V135" fill="#3456E5"/>
<path d="M199.5 90H149.6V135H199.5V90Z" fill="#D6DDFA"/>
<path d="M149.6 135C149.6 129.091 150.89 123.239 153.398 117.779C155.906 112.32 159.581 107.359 164.215 103.18C173.573 94.7411 186.265 90 199.5 90V135" fill="#FFD4DF"/>
<path d="M249.4 90H199.5V135H249.4V90Z" fill="white"/>
<path d="M224.45 90H199.5V112.5H224.45V90Z" fill="#FFB8C9"/>
<path d="M211.975 112.5C218.865 112.5 224.45 107.463 224.45 101.25C224.45 95.0368 218.865 90 211.975 90C205.085 90 199.5 95.0368 199.5 101.25C199.5 107.463 205.085 112.5 211.975 112.5Z" fill="#8498EF"/>
<path d="M249.399 90H224.449V112.5H249.399V90Z" fill="#7F94EE"/>
<path d="M249.399 90H224.449V112.5H249.399V90Z" fill="#FFE1E8"/>
<path d="M224.45 112.5H199.5V135H224.45V112.5Z" fill="#3F60E6"/>
<path d="M211.975 135C218.865 135 224.45 129.963 224.45 123.75C224.45 117.537 218.865 112.5 211.975 112.5C205.085 112.5 199.5 117.537 199.5 123.75C199.5 129.963 205.085 135 211.975 135Z" fill="#FF547C"/>
<path d="M249.399 112.5H224.449V135H249.399V112.5Z" fill="#607BEA"/>
<path d="M249.399 112.5H224.449V135H249.399V112.5Z" fill="#FF6E91"/>
<path d="M299.3 90H249.4V135H299.3V90Z" fill="#DFE5FB"/>
<path d="M299.3 90H249.4V135H299.3V90Z" fill="#D3DBF9"/>
<path d="M349.201 90H299.301V135H349.201V90Z" fill="#FF6C8F"/>
<path d="M299.301 90C305.854 90 312.343 91.164 318.397 93.4254C324.451 95.6869 329.952 99.0016 334.585 103.18C339.219 107.359 342.895 112.32 345.402 117.779C347.91 123.239 349.201 129.091 349.201 135H299.301" fill="#FF3766"/>
<path d="M399.099 90H349.199V135H399.099V90Z" fill="white"/>
<path d="M374.149 90H349.199V112.5H374.149V90Z" fill="#ACBAF4"/>
<path d="M374.149 90V112.5H349.199L374.149 90Z" fill="#284DE3"/>
<path d="M399.1 90H374.15V112.5H399.1V90Z" fill="#E9EDFC"/>
<path d="M374.15 90L399.1 112.5H374.15V90Z" fill="#D4DBF9"/>
<path d="M374.149 112.5H349.199V135H374.149V112.5Z" fill="#D9E0FA"/>
<path d="M349.199 112.5H374.149V135L349.199 112.5Z" fill="#FFAEC1"/>
<path d="M399.1 112.5H374.15V135H399.1V112.5Z" fill="#FF4A75"/>
<path d="M374.15 112.5H399.1L374.15 135V112.5Z" fill="#A7B6F4"/>
<path d="M449 90H399.1V135H449V90Z" fill="white"/>
<path d="M424.05 90H399.1V112.5H424.05V90Z" fill="#4363E7"/>
<path d="M424.05 90V112.5H399.1L424.05 90Z" fill="#FFBDCD"/>
<path d="M449.001 90H424.051V112.5H449.001V90Z" fill="#6882EB"/>
<path d="M424.051 90H449.001L424.051 112.5V90Z" fill="#FF406D"/>
<path d="M424.05 112.5H399.1V135H424.05V112.5Z" fill="#FF85A2"/>
<path d="M399.1 112.5H424.05V135L399.1 112.5Z" fill="#E5EAFC"/>
<path d="M449.001 112.5H424.051V135H449.001V112.5Z" fill="#FF9BB3"/>
<path d="M424.051 112.5L449.001 135H424.051V112.5Z" fill="#2247E2"/>
<path d="M49.8004 135H-0.0996094V180H49.8004V135Z" fill="#7C92EE"/>
<path d="M-0.0996094 135H49.8004L-0.0996094 180V135Z" fill="#FFAFC2"/>
<path d="M99.7008 135H49.8008V180H99.7008V135Z" fill="#1E44E2"/>
<path d="M99.7008 135V180H49.8008L99.7008 135Z" fill="#FF3D6B"/>
<path d="M149.599 135H99.6992V180H149.599V135Z" fill="white"/>
<path d="M124.649 135H99.6992V157.5H124.649V135Z" fill="#E8ECFC"/>
<path d="M99.6992 157.5C106.316 157.5 112.662 155.129 117.342 150.91C122.021 146.69 124.649 140.967 124.649 135H99.6992" fill="#FF95AE"/>
<path d="M149.6 135H124.65V157.5H149.6V135Z" fill="#4867E7"/>
<path d="M124.65 135C124.65 140.967 127.279 146.69 131.958 150.91C136.637 155.129 142.983 157.5 149.6 157.5V135" fill="#657FEB"/>
<path d="M124.649 157.5H99.6992V180H124.649V157.5Z" fill="#FF4F79"/>
<path d="M99.6992 157.5C106.316 157.5 112.662 159.871 117.342 164.09C122.021 168.31 124.649 174.033 124.649 180H99.6992" fill="#2348E2"/>
<path d="M149.6 157.5H124.65V180H149.6V157.5Z" fill="#FF93AC"/>
<path d="M124.65 180C124.65 174.033 127.279 168.31 131.958 164.09C136.637 159.871 142.983 157.5 149.6 157.5V180" fill="#FFD3DE"/>
<path d="M199.5 135H149.6V180H199.5V135Z" fill="#FFEDF1"/>
<path d="M199.5 135H149.6V180H199.5V135Z" fill="#FFEAEF"/>
<path d="M249.4 135H199.5V180H249.4V135Z" fill="white"/>
<path d="M224.45 135H199.5V157.5H224.45V135Z" fill="#FFE8ED"/>
<path d="M224.45 135V157.5H199.5L224.45 135Z" fill="#3A5CE5"/>
<path d="M249.399 135H224.449V157.5H249.399V135Z" fill="#FF6D90"/>
<path d="M224.449 135L249.399 157.5H224.449V135Z" fill="#C8D2F8"/>
<path d="M224.45 157.5H199.5V180H224.45V157.5Z" fill="#8EA1F0"/>
<path d="M199.5 157.5H224.45L199.5 180V157.5Z" fill="#FF6E90"/>
<path d="M249.399 157.5H224.449V180H249.399V157.5Z" fill="#778EED"/>
<path d="M224.449 157.5H249.399V180L224.449 157.5Z" fill="#778EED"/>
<path d="M299.3 135H249.4V180H299.3V135Z" fill="#FFB1C4"/>
<path d="M299.3 135H249.4V180H299.3V135Z" fill="#506EE8"/>
<path d="M349.201 135H299.301V180H349.201V135Z" fill="white"/>
<path d="M324.251 135H299.301V157.5H324.251V135Z" fill="#FF93AD"/>
<path d="M324.251 135V157.5H299.301L324.251 135Z" fill="#99ABF2"/>
<path d="M349.2 135H324.25V157.5H349.2V135Z" fill="#FF85A2"/>
<path d="M324.25 135L349.2 157.5H324.25V135Z" fill="#748CED"/>
<path d="M324.251 157.5H299.301V180H324.251V157.5Z" fill="#E3E7FB"/>
<path d="M299.301 157.5H324.251L299.301 180V157.5Z" fill="#FF4B75"/>
<path d="M349.2 157.5H324.25V180H349.2V157.5Z" fill="#FFB2C4"/>
<path d="M324.25 157.5H349.2V180L324.25 157.5Z" fill="#EBEEFC"/>
<path d="M399.099 135H349.199V180H399.099V135Z" fill="#D2DAF9"/>
<path d="M399.099 135H349.199V180H399.099V135Z" fill="#FF3F6C"/>
<path d="M449 135H399.1V180H449V135Z" fill="#FFD6E0"/>
<path d="M399.1 135H449V180L399.1 135Z" fill="#FFB5C7"/>
<path d="M49.8004 180H-0.0996094V225H49.8004V180Z" fill="#F9FAFE"/>
<path d="M49.8004 180V225H-0.0996094L49.8004 180Z" fill="#FF688C"/>
<path d="M99.7008 180H49.8008V225H99.7008V180Z" fill="white"/>
<path d="M74.7508 180H49.8008V202.5H74.7508V180Z" fill="#FFD6E0"/>
<path d="M49.8008 202.5C49.8008 196.533 52.4294 190.81 57.1085 186.59C61.7875 182.371 68.1336 180 74.7508 180V185.625C69.7879 185.625 65.0283 187.403 61.519 190.568C58.0098 193.732 56.0383 198.024 56.0383 202.5" fill="#9FAFF3"/>
<path d="M99.7 180H74.75V202.5H99.7V180Z" fill="#F5F6FE"/>
<path d="M74.75 180C81.3672 180 87.7133 182.371 92.3923 186.59C97.0713 190.81 99.7 196.533 99.7 202.5H93.4625C93.4625 198.024 91.491 193.732 87.9817 190.568C84.4725 187.403 79.7129 185.625 74.75 185.625" fill="#3F60E6"/>
<path d="M74.7508 202.5H49.8008V225H74.7508V202.5Z" fill="#8196EF"/>
<path d="M49.8008 202.5C49.8008 208.467 52.4294 214.19 57.1085 218.41C61.7875 222.629 68.1336 225 74.7508 225V219.375C69.7879 219.375 65.0283 217.597 61.519 214.432C58.0098 211.268 56.0383 206.976 56.0383 202.5" fill="#B7C3F6"/>
<path d="M99.7 202.5H74.75V225H99.7V202.5Z" fill="#FF3968"/>
<path d="M74.75 225C81.3672 225 87.7133 222.629 92.3923 218.41C97.0713 214.19 99.7 208.467 99.7 202.5H93.4625C93.4625 206.976 91.491 211.268 87.9817 214.432C84.4725 217.597 79.7129 219.375 74.75 219.375" fill="#FFC1D0"/>
<path d="M149.599 180H99.6992V225H149.599V180Z" fill="white"/>
<path d="M124.649 180H99.6992V202.5H124.649V180Z" fill="#FF5880"/>
<path d="M124.649 180V202.5H99.6992L124.649 180Z" fill="#B2BFF5"/>
<path d="M149.6 180H124.65V202.5H149.6V180Z" fill="#738BED"/>
<path d="M124.65 180H149.6L124.65 202.5V180Z" fill="#BDC8F6"/>
<path d="M124.649 202.5H99.6992V225H124.649V202.5Z" fill="#FFB1C3"/>
<path d="M99.6992 202.5H124.649V225L99.6992 202.5Z" fill="#A1B1F3"/>
<path d="M149.6 202.5H124.65V225H149.6V202.5Z" fill="#FF97B0"/>
<path d="M124.65 202.5L149.6 225H124.65V202.5Z" fill="#FFCDD9"/>
<path d="M199.5 180H149.6V225H199.5V180Z" fill="#FF93AD"/>
<path d="M149.6 225C162.834 225 175.526 220.259 184.884 211.82C194.242 203.381 199.5 191.935 199.5 180H149.6" fill="#FF95AE"/>
<path d="M249.4 180H199.5V225H249.4V180Z" fill="#FF7495"/>
<path d="M199.5 180L249.4 225H199.5V180Z" fill="#FFDAE3"/>
<path d="M299.3 180H249.4V225H299.3V180Z" fill="white"/>
<path d="M274.35 180H249.4V202.5H274.35V180Z" fill="#FFA1B7"/>
<path d="M261.875 202.5C268.765 202.5 274.35 197.463 274.35 191.25C274.35 185.037 268.765 180 261.875 180C254.986 180 249.4 185.037 249.4 191.25C249.4 197.463 254.986 202.5 261.875 202.5Z" fill="#D5DCFA"/>
<path d="M299.3 180H274.35V202.5H299.3V180Z" fill="#294DE3"/>
<path d="M299.3 180H274.35V202.5H299.3V180Z" fill="#FF688C"/>
<path d="M274.35 202.5H249.4V225H274.35V202.5Z" fill="#254AE3"/>
<path d="M261.875 225C268.765 225 274.35 219.963 274.35 213.75C274.35 207.537 268.765 202.5 261.875 202.5C254.986 202.5 249.4 207.537 249.4 213.75C249.4 219.963 254.986 225 261.875 225Z" fill="#F2F4FD"/>
<path d="M299.3 202.5H274.35V225H299.3V202.5Z" fill="#E8ECFC"/>
<path d="M299.3 202.5H274.35V225H299.3V202.5Z" fill="#B6C2F5"/>
<path d="M349.201 180H299.301V225H349.201V180Z" fill="#FF89A5"/>
<path d="M349.201 180H299.301V225H349.201V180Z" fill="#7E93EE"/>
<path d="M399.099 180H349.199V225H399.099V180Z" fill="#FF98B1"/>
<path d="M349.199 180H399.099L349.199 225V180Z" fill="#A1B1F3"/>
<path d="M449 180H399.1V225H449V180Z" fill="#B1BEF5"/>
<path d="M449 180H399.1V225H449V180Z" fill="#3E5FE6"/>
</g>
</g>
<defs>
<clipPath id="clip0_9652_12987">
<path d="M0 0H441C445.418 0 449 3.58172 449 8V217C449 221.418 445.418 225 441 225H0V0Z" fill="white"/>
</clipPath>
</defs>
</svg>
