<svg
          width="334"
          height="251"
          viewBox="0 0 334 251"
          fill="none"
          xmlns="http://www.w3.org/2000/svg"
        >
          <path
            fill-rule="evenodd"
            clip-rule="evenodd"
            d="M30.0078 19.3467H317.039C319.807 19.3467 322.462 20.4487 324.419 22.41C326.377 24.3713 327.477 27.0313 327.477 29.805V233.743C327.477 236.516 326.377 239.176 324.419 241.138C322.462 243.099 319.807 244.201 317.039 244.201H30.0078C27.2396 244.201 24.5848 243.099 22.6274 241.138C20.67 239.176 19.5703 236.516 19.5703 233.743V29.805C19.5703 27.0313 20.67 24.3713 22.6274 22.41C24.5848 20.4487 27.2396 19.3467 30.0078 19.3467Z"
            fill="url(#paint0_linear_9599_83188)"
          />
          <path
            fill-rule="evenodd"
            clip-rule="evenodd"
            d="M23.4844 13.0723H310.516C313.284 13.0723 315.939 14.1741 317.896 16.1354C319.853 18.0968 320.953 20.7569 320.953 23.5306V227.468C320.953 230.242 319.853 232.902 317.896 234.863C315.939 236.825 313.284 237.926 310.516 237.926H23.4844C20.7162 237.926 18.0614 236.825 16.1039 234.863C14.1465 232.902 13.0469 230.242 13.0469 227.468V23.5306C13.0469 20.7569 14.1465 18.0968 16.1039 16.1354C18.0614 14.1741 20.7162 13.0723 23.4844 13.0723Z"
            fill="url(#paint1_linear_9599_83188)"
            stroke="#3C3E57"
            stroke-opacity="0.49804"
            stroke-width="0.5"
            stroke-linecap="round"
            stroke-linejoin="round"
          />
          <path
            d="M23.4844 18.3008H310.516C311.9 18.3008 313.227 18.8515 314.206 19.8321C315.185 20.8128 315.734 22.1431 315.734 23.5299V227.467C315.734 228.854 315.185 230.184 314.206 231.165C313.227 232.145 311.9 232.697 310.516 232.697H23.4844C22.1003 232.697 20.7729 232.145 19.7942 231.165C18.8155 230.184 18.2656 228.854 18.2656 227.467V23.5299C18.2656 22.1431 18.8155 20.8128 19.7942 19.8321C20.7729 18.8515 22.1003 18.3008 23.4844 18.3008Z"
            stroke="white"
            stroke-linecap="round"
          />
          <path
            opacity="0.46"
            d="M39.1406 28.7598L28.7031 39.2181H49.5781L39.1406 28.7598ZM75.6719 28.7598L65.2344 39.2181H86.1094L75.6719 28.7598ZM112.203 28.7598L101.766 39.2181H122.641L112.203 28.7598ZM148.734 28.7598L138.297 39.2181H159.172L148.734 28.7598ZM185.266 28.7598L174.828 39.2181H195.703L185.266 28.7598ZM221.797 28.7598L211.359 39.2181H232.234L221.797 28.7598ZM258.328 28.7598L247.891 39.2181H268.766L258.328 28.7598ZM294.859 28.7598L284.422 39.2181H305.297L294.859 28.7598ZM46.9688 31.3743L57.4062 41.8327L67.8438 31.3743H46.9688ZM83.5 31.3743L93.9375 41.8327L104.375 31.3743H83.5ZM120.031 31.3743L130.469 41.8327L140.906 31.3743H120.031ZM193.094 31.3743L203.531 41.8327L213.969 31.3743H193.094ZM229.625 31.3743L240.062 41.8327L250.5 31.3743H229.625ZM266.156 31.3743L276.594 41.8327L287.031 31.3743H266.156ZM36.5312 43.14L26.0938 53.5983L36.5312 64.0566V43.14ZM297.469 43.14V64.0566L307.906 53.5983L297.469 43.14ZM28.7031 61.4421V82.3587L39.1406 71.9004L28.7031 61.4421ZM305.297 61.4421L294.859 71.9004L305.297 82.3587V61.4421ZM36.5312 79.7441L26.0938 90.2025L36.5312 100.661V79.7441ZM297.469 79.7441V100.661L307.906 90.2025L297.469 79.7441ZM28.7031 98.0462V118.963L39.1406 108.505L28.7031 98.0462ZM305.297 98.0462L294.859 108.505L305.297 118.963V98.0462ZM36.5312 116.348L26.0938 126.807L36.5312 137.265V116.348ZM297.469 116.348V137.265L307.906 126.807L297.469 116.348ZM28.7031 134.65V155.567L39.1406 145.109L28.7031 134.65ZM305.297 134.65L294.859 145.109L305.297 155.567V134.65ZM36.5312 152.952L26.0938 163.411L36.5312 173.869V152.952ZM297.469 152.952V173.869L307.906 163.411L297.469 152.952ZM28.7031 171.255V192.171L39.1406 181.713L28.7031 171.255ZM305.297 171.255L294.859 181.713L305.297 192.171V171.255ZM36.5312 189.557L26.0938 200.015L36.5312 210.473V189.557ZM297.469 189.557V210.473L307.906 200.015L297.469 189.557ZM57.4062 211.781L46.9688 222.239H67.8438L57.4062 211.781ZM93.9375 211.781L83.5 222.239H104.375L93.9375 211.781ZM130.469 211.781L120.031 222.239H140.906L130.469 211.781ZM167 211.781L156.562 222.239H177.438L167 211.781ZM203.531 211.781L193.094 222.239H213.969L203.531 211.781ZM240.062 211.781L229.625 222.239H250.5L240.062 211.781ZM276.594 211.781L266.156 222.239H287.031L276.594 211.781ZM28.7031 214.395L39.1406 224.854L49.5781 214.395H28.7031ZM65.2344 214.395L75.6719 224.854L86.1094 214.395H65.2344ZM101.766 214.395L112.203 224.854L122.641 214.395H101.766ZM138.297 214.395L148.734 224.854L159.172 214.395H138.297ZM174.828 214.395L185.266 224.854L195.703 214.395H174.828ZM211.359 214.395L221.797 224.854L232.234 214.395H211.359ZM247.891 214.395L258.328 224.854L268.766 214.395H247.891ZM284.422 214.395L294.859 224.854L305.297 214.395H284.422Z"
            fill="#1669A5"
          />
          <path
            opacity="0.46"
            d="M57.4062 28.7598L46.9688 39.2181H67.8438L57.4062 28.7598ZM93.9375 28.7598L83.5 39.2181H104.375L93.9375 28.7598ZM130.469 28.7598L120.031 39.2181H140.906L130.469 28.7598ZM203.531 28.7598L193.094 39.2181H213.969L203.531 28.7598ZM240.062 28.7598L229.625 39.2181H250.5L240.062 28.7598ZM276.594 28.7598L266.156 39.2181H287.031L276.594 28.7598ZM28.7031 31.3743L39.1406 41.8327L49.5781 31.3743H28.7031ZM65.2344 31.3743L75.6719 41.8327L86.1094 31.3743H65.2344ZM101.766 31.3743L112.203 41.8327L122.641 31.3743H101.766ZM138.297 31.3743L148.734 41.8327L159.172 31.3743H138.297ZM174.828 31.3743L185.266 41.8327L195.703 31.3743H174.828ZM211.359 31.3743L221.797 41.8327L232.234 31.3743H211.359ZM247.891 31.3743L258.328 41.8327L268.766 31.3743H247.891ZM284.422 31.3743L294.859 41.8327L305.297 31.3743H284.422ZM28.7031 43.14V64.0566L39.1406 53.5983L28.7031 43.14ZM305.297 43.14L294.859 53.5983L305.297 64.0566V43.14ZM36.5312 61.4421L26.0938 71.9004L36.5312 82.3587V61.4421ZM297.469 61.4421V82.3587L307.906 71.9004L297.469 61.4421ZM28.7031 79.7441V100.661L39.1406 90.2025L28.7031 79.7441ZM305.297 79.7441L294.859 90.2025L305.297 100.661V79.7441ZM36.5312 98.0462L26.0938 108.505L36.5312 118.963V98.0462ZM297.469 98.0462V118.963L307.906 108.505L297.469 98.0462ZM28.7031 116.348V137.265L39.1406 126.807L28.7031 116.348ZM305.297 116.348L294.859 126.807L305.297 137.265V116.348ZM36.5312 134.65L26.0938 145.109L36.5312 155.567V134.65ZM297.469 134.65V155.567L307.906 145.109L297.469 134.65ZM28.7031 152.952V173.869L39.1406 163.411L28.7031 152.952ZM305.297 152.952L294.859 163.411L305.297 173.869V152.952ZM36.5312 171.255L26.0938 181.713L36.5312 192.171V171.255ZM297.469 171.255V192.171L307.906 181.713L297.469 171.255ZM28.7031 189.557V210.473L39.1406 200.015L28.7031 189.557ZM305.297 189.557L294.859 200.015L305.297 210.473V189.557ZM39.1406 211.781L28.7031 222.239H49.5781L39.1406 211.781ZM75.6719 211.781L65.2344 222.239H86.1094L75.6719 211.781ZM112.203 211.781L101.766 222.239H122.641L112.203 211.781ZM148.734 211.781L138.297 222.239H159.172L148.734 211.781ZM185.266 211.781L174.828 222.239H195.703L185.266 211.781ZM221.797 211.781L211.359 222.239H232.234L221.797 211.781ZM258.328 211.781L247.891 222.239H268.766L258.328 211.781ZM294.859 211.781L284.422 222.239H305.297L294.859 211.781ZM46.9688 214.395L57.4062 224.854L67.8438 214.395H46.9688ZM83.5 214.395L93.9375 224.854L104.375 214.395H83.5ZM120.031 214.395L130.469 224.854L140.906 214.395H120.031ZM156.562 214.395L167 224.854L177.438 214.395H156.562ZM193.094 214.395L203.531 224.854L213.969 214.395H193.094ZM229.625 214.395L240.062 224.854L250.5 214.395H229.625ZM266.156 214.395L276.594 224.854L287.031 214.395H266.156Z"
            fill="#1669A5"
          />
          <path
            opacity="0.7"
            d="M88.882 96.7391C88.5394 96.7712 88.2064 96.8707 87.9021 97.0319C87.5978 97.193 87.3282 97.4126 87.1086 97.6782C86.889 97.9437 86.7238 98.25 86.6223 98.5795C86.5209 98.9091 86.4852 99.2554 86.5173 99.5988C86.5494 99.9421 86.6487 100.276 86.8095 100.581C86.9704 100.886 87.1895 101.156 87.4545 101.376C87.7196 101.596 88.0252 101.761 88.3541 101.863C88.683 101.965 89.0286 102 89.3713 101.968H263.547C263.893 101.973 264.236 101.909 264.557 101.78C264.878 101.651 265.17 101.459 265.416 101.216C265.662 100.972 265.858 100.682 265.991 100.363C266.125 100.043 266.194 99.7001 266.194 99.3536C266.194 99.0071 266.125 98.6641 265.991 98.3444C265.858 98.0248 265.662 97.7349 265.416 97.4916C265.17 97.2484 264.878 97.0566 264.557 96.9274C264.236 96.7982 263.893 96.7342 263.547 96.7391H89.3713C89.2086 96.7237 89.0448 96.7237 88.882 96.7391Z"
            fill="#1669A5"
          />
          <path
            opacity="0.7"
            d="M88.718 105.704C88.3753 105.736 88.0423 105.836 87.738 105.997C87.4338 106.158 87.1641 106.377 86.9445 106.643C86.7249 106.909 86.5597 107.215 86.4583 107.544C86.3568 107.874 86.3211 108.22 86.3532 108.564C86.3854 108.907 86.4847 109.241 86.6455 109.545C86.8063 109.85 87.0255 110.121 87.2905 110.341C87.5555 110.561 87.8612 110.726 88.1901 110.828C88.5189 110.929 88.8646 110.965 89.2072 110.933H263.546C263.892 110.938 264.235 110.874 264.556 110.745C264.877 110.616 265.169 110.424 265.415 110.18C265.661 109.937 265.857 109.647 265.99 109.328C266.124 109.008 266.193 108.665 266.193 108.318C266.193 107.972 266.124 107.629 265.99 107.309C265.857 106.99 265.661 106.7 265.415 106.456C265.169 106.213 264.877 106.021 264.556 105.892C264.235 105.763 263.892 105.699 263.546 105.704H89.2072C89.0445 105.689 88.8807 105.689 88.718 105.704Z"
            fill="#1669A5"
          />
          <path
            opacity="0.7"
            d="M69.9641 114.667C69.6214 114.699 69.2884 114.798 68.9841 114.96C68.6798 115.121 68.4102 115.34 68.1906 115.606C67.971 115.871 67.8058 116.178 67.7043 116.507C67.6029 116.837 67.5672 117.183 67.5993 117.526C67.6315 117.87 67.7308 118.203 67.8916 118.508C68.0524 118.813 68.2716 119.083 68.5366 119.303C68.8016 119.524 69.1073 119.689 69.4362 119.791C69.765 119.892 70.1107 119.928 70.4533 119.896H263.547C263.893 119.901 264.236 119.837 264.557 119.708C264.878 119.578 265.17 119.387 265.416 119.143C265.662 118.9 265.858 118.61 265.991 118.291C266.125 117.971 266.194 117.628 266.194 117.281C266.194 116.935 266.125 116.592 265.991 116.272C265.858 115.953 265.662 115.663 265.416 115.419C265.17 115.176 264.878 114.984 264.557 114.855C264.236 114.726 263.893 114.662 263.547 114.667H70.4533C70.2906 114.651 70.1268 114.651 69.9641 114.667Z"
            fill="#1669A5"
          />
          <path
            opacity="0.7"
            d="M69.9641 132.596C69.6214 132.629 69.2884 132.728 68.9841 132.889C68.6798 133.05 68.4102 133.27 68.1906 133.536C67.971 133.801 67.8058 134.107 67.7043 134.437C67.6029 134.766 67.5672 135.113 67.5993 135.456C67.6315 135.8 67.7308 136.133 67.8916 136.438C68.0524 136.743 68.2716 137.013 68.5366 137.233C68.8016 137.453 69.1073 137.619 69.4362 137.72C69.765 137.822 70.1107 137.858 70.4533 137.826H263.547C263.893 137.831 264.236 137.767 264.557 137.637C264.878 137.508 265.17 137.316 265.416 137.073C265.662 136.83 265.858 136.54 265.991 136.22C266.125 135.901 266.194 135.558 266.194 135.211C266.194 134.865 266.125 134.522 265.991 134.202C265.858 133.882 265.662 133.592 265.416 133.349C265.17 133.106 264.878 132.914 264.557 132.785C264.236 132.656 263.893 132.592 263.547 132.596H70.4533C70.2906 132.581 70.1268 132.581 69.9641 132.596Z"
            fill="#1669A5"
          />
          <path
            opacity="0.7"
            d="M69.9641 141.561C69.6214 141.594 69.2884 141.693 68.9841 141.854C68.6798 142.015 68.4102 142.235 68.1906 142.5C67.971 142.766 67.8058 143.072 67.7043 143.402C67.6029 143.731 67.5672 144.078 67.5993 144.421C67.6315 144.764 67.7308 145.098 67.8916 145.403C68.0524 145.708 68.2716 145.978 68.5366 146.198C68.8016 146.418 69.1073 146.584 69.4362 146.685C69.765 146.787 70.1107 146.823 70.4533 146.79H263.547C263.893 146.795 264.236 146.731 264.557 146.602C264.878 146.473 265.17 146.281 265.416 146.038C265.662 145.795 265.858 145.505 265.991 145.185C266.125 144.865 266.194 144.522 266.194 144.176C266.194 143.829 266.125 143.486 265.991 143.167C265.858 142.847 265.662 142.557 265.416 142.314C265.17 142.071 264.878 141.879 264.557 141.75C264.236 141.62 263.893 141.556 263.547 141.561H70.4533C70.2906 141.546 70.1268 141.546 69.9641 141.561Z"
            fill="#1669A5"
          />
          <path
            opacity="0.7"
            d="M69.9641 150.524C69.6214 150.556 69.2884 150.656 68.9841 150.817C68.6798 150.978 68.4102 151.198 68.1906 151.463C67.971 151.729 67.8058 152.035 67.7043 152.365C67.6029 152.694 67.5672 153.041 67.5993 153.384C67.6315 153.727 67.7308 154.061 67.8916 154.366C68.0524 154.671 68.2716 154.941 68.5366 155.161C68.8016 155.381 69.1073 155.547 69.4362 155.648C69.765 155.75 70.1107 155.786 70.4533 155.753H263.547C263.893 155.758 264.236 155.694 264.557 155.565C264.878 155.436 265.17 155.244 265.416 155.001C265.662 154.758 265.858 154.468 265.991 154.148C266.125 153.828 266.194 153.485 266.194 153.139C266.194 152.792 266.125 152.449 265.991 152.13C265.858 151.81 265.662 151.52 265.416 151.277C265.17 151.034 264.878 150.842 264.557 150.713C264.236 150.583 263.893 150.519 263.547 150.524H70.4533C70.2906 150.509 70.1268 150.509 69.9641 150.524Z"
            fill="#1669A5"
          />
          <path
            opacity="0.7"
            d="M69.9641 159.489C69.6214 159.521 69.2884 159.621 68.9841 159.782C68.6798 159.943 68.4102 160.163 68.1906 160.428C67.971 160.694 67.8058 161 67.7043 161.33C67.6029 161.659 67.5672 162.005 67.5993 162.349C67.6315 162.692 67.7308 163.026 67.8916 163.331C68.0524 163.636 68.2716 163.906 68.5366 164.126C68.8016 164.346 69.1073 164.511 69.4362 164.613C69.765 164.715 70.1107 164.75 70.4533 164.718H133.078C133.424 164.723 133.767 164.659 134.088 164.53C134.409 164.401 134.701 164.209 134.947 163.966C135.194 163.722 135.389 163.432 135.523 163.113C135.656 162.793 135.725 162.45 135.725 162.104C135.725 161.757 135.656 161.414 135.523 161.094C135.389 160.775 135.194 160.485 134.947 160.242C134.701 159.998 134.409 159.807 134.088 159.677C133.767 159.548 133.424 159.484 133.078 159.489H70.4533C70.2906 159.474 70.1268 159.474 69.9641 159.489Z"
            fill="#1669A5"
          />
          <path
            opacity="0.7"
            d="M83.4772 96.0701C75.8488 92.8311 69.658 97.0625 68.8222 102.508C68.4042 105.23 69.6511 108.461 72.41 110.025C75.169 111.588 78.5859 112.391 83.3141 111.499C84.6686 111.244 85.4926 109.557 85.1083 108.231C84.724 106.904 83.17 106.048 81.8463 106.433C77.8392 107.685 75.9494 105.976 75.0194 105.449C74.0894 104.922 73.8896 104.31 74.0409 103.325C74.3434 101.354 76.2313 98.7268 81.5202 100.972C82.801 101.486 84.4326 100.785 84.945 99.5017C85.4573 98.2183 84.7581 96.5835 83.4772 96.0701Z"
            fill="#1669A5"
          />
          <path
            d="M166.999 39.2119L145.961 51.4678H151.832V65.0309H148.896L139.764 74.3454H194.234L185.102 65.0309H182.166V51.4678H188.037L166.999 39.2119ZM166.999 42.1533L179.557 49.8337H154.278L166.999 42.1533ZM166.999 43.4606C165.357 43.4606 164.063 44.7563 164.063 46.402C164.063 48.0477 165.357 49.5068 166.999 49.5068C168.641 49.5068 169.935 48.0477 169.935 46.402C169.935 44.7563 168.641 43.4606 166.999 43.4606ZM166.999 45.0947C167.795 45.0947 168.467 45.6041 168.467 46.402C168.467 47.1999 167.795 47.8727 166.999 47.8727C166.203 47.8727 165.531 47.1999 165.531 46.402C165.531 45.6041 166.203 45.0947 166.999 45.0947ZM154.542 52.4845H156.173V64.3199H154.542V52.4845ZM157.803 52.4845H160.965V64.3199H157.803V52.4845ZM162.596 52.4845H165.857V64.3199H162.596V52.4845ZM167.488 52.4845H170.75V64.3199H167.488V52.4845ZM172.381 52.4845H175.643V64.3199H172.381V52.4845ZM177.273 52.4845H179.23V64.3199H177.273V52.4845ZM151.343 66.665H182.166L183.145 67.6455H150.527L151.343 66.665ZM149.06 69.2796H184.775L185.917 70.2601H147.918L149.06 69.2796ZM146.287 71.8942H187.385L188.2 72.7113H145.309L146.287 71.8942Z"
            fill="#1669A5"
          />
          <path
            fill-rule="evenodd"
            clip-rule="evenodd"
            d="M204.021 44.9307L201.086 53.9183L191.627 53.7549L199.292 59.3109L196.193 68.2985L203.858 62.7425L211.36 68.4619L208.425 59.4743L216.253 54.0817L206.794 53.9183L204.021 44.9307ZM227.832 45.5843L225.712 51.7939L219.188 51.6305L224.407 55.5524L222.287 61.762L227.669 58.0036L232.888 61.9255L230.931 55.7158L236.312 51.7939H229.626L227.832 45.5843ZM204.021 52.2842L205.163 56.2061H209.077L205.815 58.4938L207.12 62.2523L203.858 59.8011L200.76 62.0889L202.064 58.3304L198.803 56.0426L202.717 56.2061L204.021 52.2842Z"
            fill="#1669A5"
          />
          <path
            fill-rule="evenodd"
            clip-rule="evenodd"
            d="M129.98 44.9307L132.916 53.9183L142.375 53.7549L134.71 59.3109L137.809 68.2985L130.144 62.7425L122.642 68.4619L125.577 59.4743L117.749 54.0817L127.208 53.9183L129.98 44.9307ZM106.17 45.5843L108.29 51.7939L114.813 51.6305L109.595 55.5524L111.715 61.762L106.333 58.0036L101.114 61.9255L103.071 55.7158L97.6895 51.7939H104.376L106.17 45.5843ZM129.98 52.2842L128.839 56.2061H124.925L128.187 58.4938L126.882 62.2523L130.144 59.8011L133.242 62.0889L131.938 58.3304L135.199 56.0426L131.285 56.2061L129.98 52.2842Z"
            fill="#1669A5"
          />
          <path
            opacity="0.7"
            d="M69.9641 123.632C69.272 123.697 68.6341 124.034 68.1906 124.571C67.971 124.836 67.8058 125.143 67.7043 125.472C67.6029 125.802 67.5672 126.148 67.5993 126.491C67.6315 126.835 67.7308 127.168 67.8916 127.473C68.0524 127.778 68.2716 128.048 68.5366 128.268C69.0718 128.713 69.7613 128.926 70.4533 128.861H263.547C263.893 128.866 264.236 128.802 264.557 128.672C264.878 128.543 265.17 128.351 265.416 128.108C265.662 127.865 265.858 127.575 265.991 127.255C266.125 126.936 266.194 126.593 266.194 126.246C266.194 125.9 266.125 125.557 265.991 125.237C265.858 124.917 265.662 124.627 265.416 124.384C265.17 124.141 264.878 123.949 264.557 123.82C264.236 123.691 263.893 123.627 263.547 123.632H70.4533C70.2906 123.616 70.1268 123.616 69.9641 123.632Z"
            fill="#1669A5"
          />
          <path
            d="M218.367 84.8672C218.021 84.0848 217.401 83.4271 216.642 83.0357C215.882 82.6443 214.988 82.5219 214.151 82.6947C213.181 82.8952 212.301 83.4938 211.749 84.318C211.197 85.1421 210.978 86.1813 211.14 87.1604C211.271 87.9511 211.646 88.6994 212.201 89.2767C212.756 89.8541 213.488 90.258 214.272 90.4191H226.359"
            stroke="black"
            stroke-width="0.65"
            stroke-linecap="round"
          />
          <path
            opacity="0.75"
            d="M70.4531 190.865H127.859"
            stroke="black"
            stroke-width="0.5"
            stroke-linecap="round"
          />
          <path
            opacity="0.75"
            d="M79.7767 173.807C78.2406 173.9 73.9002 176.885 73.6524 178.653C73.4045 180.42 76.6102 181.053 75.2204 183.539C73.8305 186.026 70.7731 184.676 70.2232 182.372C69.6734 180.067 67.0373 182.558 67.9977 184.714C68.9581 186.869 71.7175 188.958 74.2112 187.809C76.705 186.66 78.5757 184.164 81.2817 185.198C83.9877 186.232 86.3907 184.009 88.619 185.075C90.8472 186.141 91.7823 186.611 93.664 187.129C95.5457 187.646 97.9011 185.354 99.9662 185.08C102.031 184.805 101.885 181.833 106.315 181.73C110.745 181.627 122.527 183.022 126.627 183.989C130.726 184.956 132.389 184.37 130.101 182.346C127.814 180.323 127.198 181.744 122.653 181.363C118.108 180.983 106.919 178.838 102.46 178.944C98.0003 179.051 97.7862 184.77 95.13 184.37C92.4739 183.971 88.6605 183.399 87.7678 181.814C86.8751 180.229 86.2132 179.609 85.2629 180.925C84.3126 182.241 80.0408 183.288 80.8887 181.319C81.7365 179.35 81.4707 175.557 80.791 174.424C80.1113 173.29 81.3129 173.714 79.7767 173.807ZM129.681 182.631C129.992 182.1 129.37 183.162 129.681 182.631Z"
            fill="#000080"
          />
          <path
            opacity="0.75"
            d="M206.141 190.865H263.547"
            stroke="black"
            stroke-width="0.5"
            stroke-linecap="round"
          />
          <path
            opacity="0.75"
            d="M222.286 170.626C218.289 171.936 214.543 174.429 212.418 178.143C210.884 179.931 209.623 183.138 211.874 184.763C207.281 187.119 210.365 188.881 214.569 186.974C216.67 186.855 219.098 183.726 220.784 185.735C222.237 187.068 224.394 187.055 225.675 188.812C227.659 189.144 229.941 185.406 231.796 187.189C237.976 189.172 238.183 187.104 242.458 183.829C252.28 190.138 259.534 190.569 271.438 189.991C257.031 187.563 251.635 185.798 243.27 180.119C240.492 179.305 239.563 181.226 238.689 183.056C236.381 185.645 236.603 185.438 233.355 184.905C233.477 183.263 232.865 183.672 232.341 182.293C230.042 181.858 227.807 182.862 225.85 183.932C224.592 184.769 220.793 183.634 223.522 182.589C225.666 181.125 225.852 178.4 226.889 176.225C227.678 174.024 226.99 170.621 224.183 170.504C223.55 170.431 222.906 170.48 222.286 170.626ZM224.08 173.404C224.731 175.877 223.334 178.333 221.003 179.15C219.763 180.939 218.261 182.564 215.981 182.876C214.062 183.914 212.727 181.783 214.324 180.362C216.421 176.799 219.865 173.89 224.08 173.404Z"
            fill="#000080"
          />
          <g opacity="0.75">
            <path
              opacity="0.75"
              d="M166.999 160.813C153.675 160.813 142.861 171.648 142.861 184.999C142.861 198.35 153.675 209.185 166.999 209.185C180.323 209.185 191.136 198.35 191.136 184.999C191.136 171.648 180.323 160.813 166.999 160.813ZM166.999 162.798C167.553 162.798 168.065 162.882 168.608 162.922L166.504 166.767C166.399 166.589 166.366 166.452 166.256 166.271C165.737 165.412 165.169 164.56 164.771 163.914C164.572 163.591 164.402 163.24 164.276 163.046C164.25 163.007 164.295 162.951 164.276 162.922C165.14 162.82 166.107 162.798 166.999 162.798ZM169.846 163.046C170.642 163.15 171.431 163.233 172.198 163.418L172.074 163.542C171.928 163.722 171.811 163.986 171.579 164.286C171.347 164.587 170.904 164.991 170.589 165.403L169.846 163.046ZM162.419 163.17C162.577 163.137 162.754 163.199 162.914 163.17C162.903 163.22 162.929 163.238 162.914 163.294C162.854 163.518 162.756 163.793 162.666 164.162L162.295 165.651L160.562 163.666C161.173 163.484 161.787 163.299 162.419 163.17ZM173.436 163.79C174.865 164.226 176.23 164.701 177.52 165.403L173.931 168.131C173.902 167.912 173.959 167.736 173.931 167.511C173.805 166.515 173.661 165.535 173.559 164.782C173.508 164.406 173.472 164.143 173.436 163.914C173.43 163.88 173.443 163.822 173.436 163.79ZM159.448 164.162L159.077 168.503L158.582 168.131L156.354 166.643L155.611 166.147L155.363 166.023C156.636 165.242 158.023 164.676 159.448 164.162ZM169.103 164.41L169.722 166.519C169.154 167.267 168.667 168.068 168.237 168.627C168.122 168.777 167.959 168.879 167.865 168.999C167.778 168.86 167.727 168.681 167.618 168.503C167.509 168.326 167.367 168.087 167.246 167.883L169.103 164.41ZM163.781 164.534C164.169 165.165 164.642 165.939 165.142 166.767C165.383 167.165 165.652 167.496 165.885 167.883L165.266 168.999L163.285 166.767C163.482 165.957 163.63 165.152 163.781 164.534ZM172.445 164.906C172.546 165.65 172.691 166.639 172.817 167.635C172.874 168.088 172.899 168.455 172.94 168.875L171.95 169.62L171.084 166.767C171.575 166.121 172.072 165.391 172.445 164.906ZM160.438 165.279L162.048 167.015C161.833 167.951 161.598 168.919 161.429 169.62L161.305 170.116C161.174 170.027 161.096 169.855 160.934 169.744C160.739 169.61 160.418 169.41 160.191 169.247L160.438 165.279ZM178.634 166.023C179.285 166.426 179.888 166.92 180.491 167.387C180.285 167.492 179.835 167.579 179.501 167.759C179.146 167.95 178.7 168.264 178.263 168.503L178.634 166.023ZM154.373 166.643C154.391 166.704 154.361 166.815 154.373 166.891C154.409 167.12 154.429 167.385 154.497 167.759C154.571 168.169 154.771 168.719 154.868 169.247L152.393 168.255C153.05 167.677 153.65 167.141 154.373 166.643ZM177.273 167.015L177.025 169.247L174.797 170.488C174.614 170.587 174.447 170.659 174.302 170.736C174.279 170.576 174.205 170.441 174.178 170.24C174.151 170.039 174.087 169.729 174.054 169.496L177.273 167.015ZM155.735 167.635C156.345 168.053 157.17 168.572 157.963 169.123L159.077 169.868L158.953 171.108L156.106 169.868C155.955 169.096 155.843 168.232 155.735 167.635ZM170.217 167.883L170.96 170.612C170.148 170.384 169.346 170.203 168.484 170.116C168.63 169.934 168.871 169.673 169.103 169.371C169.416 168.964 169.818 168.428 170.217 167.883ZM162.914 168.131L164.771 170.116C163.928 170.239 163.086 170.478 162.295 170.736C162.354 170.511 162.453 170.238 162.543 169.868C162.656 169.398 162.767 168.733 162.914 168.131ZM181.481 168.255C182.556 169.195 183.576 170.226 184.452 171.356L180.367 172.348C180.421 172.172 180.437 172.031 180.491 171.852C180.781 170.89 181.021 169.977 181.234 169.247C181.34 168.883 181.422 168.479 181.481 168.255ZM180.12 168.875C179.91 169.596 179.667 170.519 179.377 171.48L179.006 172.72L177.768 172.968L178.139 169.992C178.866 169.575 179.568 169.173 180.12 168.875ZM151.526 168.999L153.135 173.216L152.516 173.092L149.793 172.596C149.42 172.528 149.155 172.508 148.927 172.472C148.847 172.46 148.742 172.366 148.679 172.348C149.514 171.131 150.471 170.025 151.526 168.999ZM166.504 169.123C166.528 169.163 166.604 169.209 166.628 169.247L167.123 169.992H166.999C166.666 169.992 166.336 170.094 166.009 170.116L166.504 169.123ZM153.011 169.744L155.116 170.736C155.286 171.632 155.487 172.54 155.611 173.216C155.645 173.402 155.584 173.562 155.611 173.713L155.24 173.588L154.249 173.464L153.011 169.744ZM173.064 170.24C173.069 170.275 173.06 170.33 173.064 170.364C173.115 170.741 173.152 171.126 173.188 171.356C172.852 171.201 172.547 170.99 172.198 170.86L173.064 170.24ZM160.067 170.612L160.191 170.736L160.934 171.232L159.943 171.728L160.067 170.612ZM176.901 170.736L176.53 173.464C175.869 172.907 175.177 172.413 174.426 171.976C174.632 171.87 174.958 171.785 175.292 171.604L176.901 170.736ZM166.999 171.108C174.614 171.108 180.739 177.369 180.739 184.999C180.739 192.63 174.614 198.766 166.999 198.766C159.384 198.766 153.135 192.63 153.135 184.999C153.135 177.369 159.384 171.108 166.999 171.108ZM156.477 171.356L158.705 172.472C158.043 172.914 157.432 173.422 156.849 173.961C156.811 173.731 156.793 173.343 156.725 172.968C156.641 172.508 156.588 171.935 156.477 171.356ZM185.195 172.348C185.632 172.985 186.063 173.65 186.433 174.333C186.202 174.345 185.82 174.428 185.442 174.457L183.957 174.581L185.195 172.348ZM183.586 172.72L182.472 174.705L179.996 174.953H179.501C179.548 174.788 179.562 174.669 179.625 174.457C179.694 174.219 179.787 173.867 179.872 173.588L183.586 172.72ZM147.936 173.464L148.06 173.588L148.555 174.333C148.782 174.665 149.127 175.143 149.422 175.573H146.946C147.273 174.871 147.541 174.124 147.936 173.464ZM149.669 173.713L152.269 174.209L153.507 174.457L154.002 175.697H150.907C150.441 174.995 150.033 174.246 149.669 173.713ZM178.634 173.961C178.613 174.035 178.531 174.139 178.511 174.209L178.263 175.077C177.997 174.771 177.686 174.492 177.397 174.209L178.634 173.961ZM154.744 174.705H154.992C155.366 174.773 155.629 174.916 155.858 174.953C155.606 175.234 155.347 175.521 155.116 175.821L154.744 174.705ZM185.442 175.573C184.964 176.138 184.463 176.95 183.833 177.681L182.967 178.674L181.729 178.426L183.214 175.821C184.023 175.752 184.814 175.621 185.442 175.573ZM187.052 175.573C187.662 176.885 188.066 178.228 188.413 179.666L184.328 178.922C184.472 178.755 184.556 178.593 184.7 178.426C185.355 177.665 185.943 176.897 186.433 176.317L187.052 175.573ZM181.729 175.945L180.367 178.426C179.996 177.666 179.618 176.874 179.13 176.193C179.361 176.18 179.741 176.098 180.12 176.069L181.729 175.945ZM146.451 176.689L149.546 179.914L148.927 180.038L146.203 180.658C145.835 180.748 145.56 180.846 145.337 180.906H145.213C145.482 179.423 145.905 178.053 146.451 176.689ZM148.06 176.813H150.288C150.828 177.585 151.375 178.339 151.774 178.922L152.021 179.294L151.526 179.418C151.28 179.478 150.954 179.604 150.66 179.666L148.06 176.813ZM151.774 176.813H154.373C153.927 177.501 153.589 178.287 153.259 179.046L152.764 178.302C152.495 177.908 152.128 177.309 151.774 176.813ZM180.862 179.418L182.1 179.666L181.977 179.79L181.358 180.534L181.234 180.658C181.106 180.231 181.027 179.828 180.862 179.418ZM183.462 179.914L187.299 180.534L185.319 181.898L182.967 181.03L182.595 180.906C182.693 180.789 182.721 180.678 182.843 180.534C182.995 180.355 183.279 180.126 183.462 179.914ZM152.764 180.286C152.637 180.67 152.488 181.006 152.393 181.402L151.65 180.534H151.897C152.267 180.445 152.54 180.345 152.764 180.286ZM150.412 180.906L151.279 181.774L148.432 183.015L146.575 181.898C147.296 181.722 148.224 181.378 149.174 181.154C149.615 181.051 149.992 181.01 150.412 180.906ZM188.785 181.03C188.91 181.748 188.977 182.523 189.032 183.263C188.824 183.176 188.603 183.003 188.289 182.891C187.898 182.75 187.301 182.556 186.804 182.395L188.785 181.03ZM181.605 181.898H181.729C181.946 181.981 182.238 182.019 182.595 182.147L184.205 182.767L181.853 184.379C181.819 183.559 181.765 182.679 181.605 181.898ZM144.966 182.271C144.995 182.29 145.051 182.245 145.089 182.271L145.832 182.767L147.194 183.635L144.842 184.627C144.854 183.857 144.877 183.019 144.966 182.271ZM152.145 182.643C152.029 183.397 151.897 184.212 151.897 184.999C151.897 185.042 151.897 185.081 151.897 185.123C151.702 184.997 151.478 184.951 151.155 184.751C150.74 184.495 150.215 184.089 149.669 183.759L152.145 182.643ZM185.566 183.263L187.67 184.007L185.319 185.123L184.205 185.619L183.214 184.999L185.566 183.263ZM148.308 184.379C149.108 184.861 149.935 185.249 150.536 185.619L151.031 185.991C150.905 186.09 150.818 186.117 150.66 186.239C150.501 186.362 150.24 186.582 150.041 186.736L146.327 185.247L148.308 184.379ZM189.156 184.627C189.158 184.747 189.156 184.878 189.156 184.999C189.156 186.32 189.004 187.587 188.785 188.844L185.319 186.488L185.814 186.239L188.289 184.999L189.156 184.627ZM181.853 185.495L182.843 186.239C182.5 186.404 182.184 186.631 181.977 186.736L181.729 186.86C181.787 186.402 181.837 185.965 181.853 185.495ZM144.842 185.867L148.927 187.48L148.432 187.852C147.633 188.459 146.803 189.124 146.203 189.588L145.461 190.208C145.122 188.803 144.9 187.364 144.842 185.867ZM152.145 186.488C152.183 186.865 152.203 187.235 152.269 187.604L151.155 187.232L151.279 187.108C151.58 186.875 151.84 186.757 152.021 186.612L152.145 186.488ZM184.081 186.984L187.299 189.216L184.947 189.588C184.318 188.988 183.691 188.307 183.214 187.852C183.07 187.714 183.081 187.715 182.967 187.604C183.114 187.531 183.15 187.446 183.338 187.356C183.545 187.256 183.839 187.098 184.081 186.984ZM150.041 187.976L151.279 188.472L149.174 190.705C148.361 190.599 147.552 190.539 146.946 190.456C147.539 189.997 148.252 189.327 149.05 188.72L150.041 187.976ZM181.605 187.976L181.729 188.1C181.894 188.264 182.197 188.457 182.472 188.72C182.816 189.048 183.281 189.545 183.709 189.96L180.862 190.456C181.173 189.666 181.432 188.825 181.605 187.976ZM152.516 188.968C152.741 189.782 153.031 190.573 153.383 191.325H153.259L152.393 191.201L150.66 190.953L152.516 188.968ZM188.537 190.208C188.362 190.938 188.163 191.617 187.918 192.317L187.299 191.697C187.008 191.418 186.56 191.05 186.185 190.705L188.537 190.208ZM184.7 190.953C185.315 191.525 185.967 192.119 186.433 192.565C185.691 192.587 184.685 192.544 183.709 192.565H182.348L181.729 191.573L184.7 190.953ZM145.832 191.449L146.699 191.573C147.092 191.626 147.684 191.755 148.184 191.821L146.575 193.557C146.28 192.857 146.056 192.184 145.832 191.449ZM180.367 191.449L181.234 192.689H180.986H179.996H179.748C179.993 192.284 180.161 191.877 180.367 191.449ZM149.793 191.945L152.269 192.317C152.455 192.342 152.489 192.295 152.64 192.317L152.393 192.813C152.281 193.02 152.152 193.316 152.021 193.557L148.184 193.681L149.793 191.945ZM154.002 192.565C154.215 192.927 154.502 193.215 154.744 193.557H153.383C153.407 193.514 153.484 193.475 153.507 193.433L154.002 192.565ZM179.13 193.557C179.154 193.631 179.211 193.821 179.253 193.929C179.337 194.146 179.48 194.321 179.625 194.673C179.804 195.11 180.025 195.71 180.244 196.286L177.397 195.666C178.042 195.034 178.606 194.296 179.13 193.557ZM186.433 193.681H187.423C186.871 194.973 186.094 196.251 185.319 197.402L183.091 193.805H183.709C184.712 193.784 185.675 193.704 186.433 193.681ZM180.986 193.805H181.853L183.833 197.154L181.729 196.658L180.739 194.301C180.67 194.134 180.547 194.067 180.491 193.929C180.653 193.923 180.783 193.811 180.986 193.805ZM155.487 194.425C156.027 195.077 156.579 195.734 157.22 196.286C157.157 196.301 157.051 196.389 156.973 196.41C156.749 196.471 156.471 196.427 156.106 196.534L154.497 197.03L155.487 194.425ZM152.764 194.673H154.126L153.135 197.526C152.316 197.777 151.403 197.965 150.783 198.146C151.138 197.485 151.662 196.67 152.145 195.79L152.764 194.673ZM151.402 194.798C151.323 194.943 151.235 195.023 151.155 195.17L149.793 197.65C149.614 197.985 149.527 198.312 149.422 198.518C148.567 197.409 147.829 196.183 147.194 194.922L151.402 194.798ZM176.654 196.286L176.901 197.774L176.654 197.65L175.787 197.278C175.679 197.236 175.613 197.303 175.54 197.278C175.945 196.993 176.28 196.608 176.654 196.286ZM158.087 197.03C158.449 197.298 158.814 197.539 159.201 197.774L158.087 198.27C158.089 198.235 158.084 198.181 158.087 198.146C158.115 197.767 158.073 197.51 158.087 197.278C158.091 197.201 158.088 197.091 158.087 197.03ZM177.892 197.03L180.739 197.65C181.076 198.426 181.486 199.164 181.729 199.759C181.036 199.474 180.053 199.155 179.13 198.766C178.715 198.592 178.41 198.426 178.015 198.27L177.892 197.03ZM156.973 197.526C156.961 197.697 156.866 197.802 156.849 198.022C156.832 198.243 156.869 198.62 156.849 198.89L153.259 200.627L154.002 198.518C154.919 198.24 155.786 197.854 156.477 197.65C156.69 197.588 156.808 197.573 156.973 197.526ZM174.673 197.774C174.666 197.852 174.555 198.03 174.55 198.146C174.538 198.379 174.56 198.634 174.55 199.014C174.536 199.499 174.566 200.131 174.55 200.751L172.198 199.014C173.085 198.683 173.875 198.26 174.673 197.774ZM182.224 197.898L184.576 198.394C184.11 199.009 183.617 199.569 183.091 200.131C183.021 199.922 182.968 199.692 182.843 199.387C182.679 198.987 182.443 198.402 182.224 197.898ZM160.191 198.27C160.985 198.674 161.799 199.004 162.666 199.263C162.604 199.309 162.509 199.313 162.419 199.387C162.239 199.534 162.089 199.76 161.8 200.007C161.437 200.316 160.903 200.72 160.438 201.123L160.191 198.27ZM175.787 198.518C175.94 198.58 175.966 198.687 176.159 198.766C176.394 198.864 176.745 199.028 177.025 199.139L177.52 202.983L175.664 201.619C175.684 200.706 175.768 199.824 175.787 199.139C175.793 198.936 175.782 198.68 175.787 198.518ZM152.64 198.89L151.897 201.123C151.365 200.625 150.769 200.182 150.288 199.635C150.512 199.575 150.791 199.369 151.155 199.263C151.549 199.147 152.133 199.042 152.64 198.89ZM159.077 199.139L159.324 202.115L157.591 203.604C157.647 202.862 157.758 201.849 157.839 200.875C157.877 200.42 157.929 200.07 157.963 199.635L159.077 199.139ZM171.207 199.263L170.836 200.627L170.712 200.503L170.093 199.883C170.032 199.821 170.02 199.684 169.97 199.635C170.394 199.548 170.797 199.385 171.207 199.263ZM163.657 199.511C164.133 199.617 164.65 199.698 165.142 199.759L164.276 200.875C164.25 200.802 164.176 200.696 164.152 200.627C164.024 200.268 163.863 199.976 163.781 199.759C163.739 199.65 163.687 199.582 163.657 199.511ZM178.263 199.511L178.758 199.759L181.358 200.875C181.648 200.994 181.896 201.04 182.1 201.123C181.067 202.094 179.963 202.968 178.758 203.728L178.263 199.511ZM168.856 199.759C168.818 199.827 168.784 200.027 168.732 200.131C168.627 200.338 168.401 200.532 168.237 200.875C168.042 201.282 167.856 201.853 167.618 202.363L166.256 199.883C166.503 199.895 166.749 200.007 166.999 200.007C167.646 200.007 168.23 199.839 168.856 199.759ZM156.725 200.255C156.708 200.471 156.743 200.658 156.725 200.875C156.641 201.876 156.534 202.846 156.477 203.604C156.449 203.982 156.365 204.24 156.354 204.472C155.098 203.789 153.982 203.019 152.888 202.115L156.725 200.255ZM172.198 200.379L174.55 202.115C174.53 202.957 174.445 203.829 174.426 204.472C173.915 203.936 173.354 203.192 172.693 202.487C172.393 202.167 172.113 201.915 171.826 201.619L172.198 200.379ZM162.914 200.627C162.969 200.779 162.97 200.807 163.038 200.999C163.117 201.223 163.188 201.6 163.285 201.867L160.81 204.844L160.562 202.611L162.543 200.875C162.686 200.753 162.797 200.725 162.914 200.627ZM169.598 200.999C169.695 201.1 169.731 201.25 169.846 201.371L170.465 201.991L169.351 205.588L168.36 203.728C168.76 202.876 169.045 202.01 169.351 201.371C169.429 201.208 169.534 201.132 169.598 200.999ZM165.513 201.123L166.999 203.728C166.636 204.503 166.164 205.254 165.885 205.836L165.018 203.356C164.869 202.927 164.797 202.526 164.647 202.115L165.513 201.123ZM171.455 202.983C171.566 203.1 171.591 203.237 171.703 203.356C172.389 204.088 173.159 204.791 173.683 205.34C173.945 205.614 174.138 205.796 174.302 205.96C172.985 206.423 171.636 206.744 170.217 206.952L171.455 202.983ZM175.664 202.983L177.52 204.472C176.94 204.788 176.274 205.076 175.664 205.34C175.667 205.117 175.654 204.921 175.664 204.596C175.677 204.147 175.649 203.534 175.664 202.983ZM163.781 203.231C163.841 203.4 163.846 203.559 163.904 203.728C164.234 204.676 164.515 205.617 164.771 206.332C164.883 206.647 165.055 206.868 165.142 207.076C163.745 206.964 162.369 206.691 161.057 206.332L163.781 203.231ZM159.572 203.48L159.819 205.96C159.054 205.7 158.316 205.431 157.591 205.092C157.771 204.946 158.045 204.841 158.334 204.596C158.677 204.304 159.155 203.859 159.572 203.48ZM167.618 204.968L168.732 207.076C168.148 207.123 167.595 207.2 166.999 207.2H166.628C166.733 206.994 166.834 206.674 166.999 206.332C167.163 205.99 167.383 205.428 167.618 204.968Z"
              fill="#000080"
            />
            <path
              d="M157.134 179.79H159.864V186.124H158.523L154.261 190.52H179.738L175.476 186.124H174.135V179.79H176.865L167 173.983L157.134 179.79ZM166.999 175.432L172.914 179.022H161.001L166.999 175.432ZM161.088 179.838H161.875V186.124H161.088V179.838ZM162.641 179.838H164.174V186.124H162.641V179.838ZM164.94 179.838H166.472V186.124H164.94V179.838ZM167.239 179.838H168.771V186.124H167.239V179.838ZM169.537 179.838H171.07V186.124H169.537V179.838ZM171.836 179.838H172.702V186.124H171.836V179.838ZM159.692 186.891H174.14L174.571 187.323H159.261L159.692 186.891ZM158.59 187.995V188.091H175.337L175.864 188.571H158.015L158.59 187.995ZM157.249 189.339H176.583L176.953 189.752H156.837L157.249 189.339Z"
              fill="#000080"
            />
            <path
              d="M158.621 192.517H175.379"
              stroke="#000080"
              stroke-width="0.3795"
              stroke-linecap="round"
            />
          </g>
          <path
            d="M141.382 79.5817L140.404 79.7451C140.161 79.7764 139.893 79.7524 139.588 79.9085C139.284 80.0646 138.982 80.4393 138.936 80.889C138.913 81.1224 138.818 81.4375 138.936 81.706C139.055 81.9745 139.352 82.2709 139.588 82.3597C139.746 82.4189 139.802 82.3508 139.915 82.3597V89.0595C139.639 89.2374 139.311 89.3792 139.099 89.7132C139.011 89.8519 138.958 89.9422 138.936 90.2034C138.914 90.4647 139.045 90.8125 139.262 91.0205C139.696 91.4364 139.974 91.375 140.404 91.3473H144.318C144.372 91.3525 144.427 91.3525 144.481 91.3473C144.535 91.3525 144.59 91.3525 144.644 91.3473C144.706 91.3005 144.76 91.2455 144.807 91.1839C144.869 91.1371 144.924 91.0821 144.97 91.0205C145.032 90.9737 145.087 90.9187 145.133 90.8571C145.221 90.6313 145.313 90.3119 145.296 90.04C145.28 89.7681 145.163 89.5778 144.97 89.3864C144.586 89.0034 144.22 88.93 143.992 88.8961H143.829V87.0986C145.833 87.5098 148.093 86.6729 148.884 84.6474C149.279 83.5366 149.148 82.2267 148.395 81.2158C147.63 80.3119 146.597 79.9061 145.623 79.7451C144.648 79.5841 143.665 79.6041 142.85 79.5817H141.709C141.654 79.5764 141.6 79.5764 141.545 79.5817C141.491 79.5764 141.437 79.5764 141.382 79.5817ZM161.931 79.5817C161.009 79.7374 159.605 79.5759 158.506 80.5621L158.343 80.7255C157.209 81.477 156.751 82.8312 156.386 83.6669C156.381 83.7213 156.381 83.776 156.386 83.8304C156.183 84.8201 155.851 85.9722 156.386 87.262C156.397 87.3132 156.375 87.3745 156.386 87.4254C156.627 88.4837 157.131 89.569 157.854 90.3668C158.648 91.1318 159.796 91.5923 160.953 91.6741C162.066 91.763 162.885 91.3218 163.562 91.0205C163.624 90.9737 163.678 90.9187 163.725 90.8571C163.779 90.8623 163.834 90.8623 163.888 90.8571C164.03 90.7262 164.311 90.4676 164.704 90.2034C165.096 89.9392 165.611 89.7667 165.845 89.0595C165.85 89.0052 165.85 88.9505 165.845 88.8961C165.85 88.8418 165.85 88.787 165.845 88.7327C165.85 88.6784 165.85 88.6236 165.845 88.5693C165.795 88.37 165.81 88.1068 165.682 87.9156C165.554 87.7245 165.304 87.5054 165.03 87.4254C164.482 87.2655 164.104 87.6041 163.888 87.7522C163.672 87.9003 163.529 87.9779 163.399 88.0791C163.269 88.1802 163.173 88.2583 163.236 88.2425C163.182 88.2372 163.127 88.2372 163.073 88.2425C162.639 88.4316 162.081 88.5287 161.605 88.4059C161.129 88.2831 160.768 88.0028 160.626 87.5888C160.632 87.5345 160.632 87.4798 160.626 87.4254C160.065 86.4299 159.851 85.2747 160.137 84.1572C160.142 84.1028 160.142 84.0481 160.137 83.9938C160.206 83.14 160.678 82.4476 161.442 82.1962H161.605C161.776 82.2245 161.892 82.3574 162.094 82.5231C162.347 82.7301 162.643 83.0074 162.91 83.3401C162.956 83.4018 163.011 83.4567 163.073 83.5035C163.068 83.5579 163.068 83.6126 163.073 83.6669C163.454 83.8872 164.093 83.8572 164.541 83.6669C164.989 83.4767 165.07 83.1235 165.193 82.8499C165.438 82.3027 165.643 81.7871 165.682 81.706C165.838 81.3006 165.631 80.6945 165.356 80.3987C165.081 80.1029 164.788 79.9923 164.541 79.9085L163.562 79.5817C163.508 79.5764 163.453 79.5764 163.399 79.5817C162.701 79.3789 162.245 79.589 162.094 79.5817C162.04 79.5764 161.985 79.5764 161.931 79.5817ZM128.988 79.7451C128.983 79.7994 128.983 79.8541 128.988 79.9085C128.926 79.9553 128.871 80.0103 128.825 80.0719C128.763 80.1187 128.708 80.1737 128.662 80.2353C128.478 80.6879 128.502 81.3535 128.825 81.706C129.147 82.0585 129.441 82.1243 129.64 82.1962C129.72 82.225 129.76 82.1759 129.803 82.1962C129.825 82.2067 129.792 82.3551 129.803 82.3597V88.8961C129.612 88.9939 129.373 89.0694 129.151 89.2229C129.04 89.2998 128.95 89.3941 128.825 89.5498C128.699 89.7054 128.441 90.0004 128.499 90.3668C128.556 90.7333 128.801 91.064 128.988 91.1839C129.175 91.3037 129.444 91.2931 129.64 91.3473C129.694 91.3525 129.749 91.3525 129.803 91.3473H137.305C137.359 91.3525 137.414 91.3525 137.468 91.3473C137.523 91.3525 137.577 91.3525 137.631 91.3473C137.693 91.3005 137.748 91.2455 137.794 91.1839C137.856 91.1371 137.911 91.0821 137.958 91.0205C138.019 90.9737 138.074 90.9187 138.121 90.8571C138.126 90.8027 138.126 90.748 138.121 90.6936C138.298 89.7059 138.276 88.7922 138.447 88.0791C138.452 88.0247 138.452 87.97 138.447 87.9156C138.452 87.8613 138.452 87.8066 138.447 87.7522C138.452 87.6979 138.452 87.6432 138.447 87.5888C138.4 87.5272 138.345 87.4722 138.284 87.4254C138.237 87.3638 138.182 87.3088 138.121 87.262C138.126 87.2077 138.126 87.1529 138.121 87.0986C137.765 86.8901 137.258 86.8296 136.816 86.9352C136.374 87.0408 136.147 87.3509 136.001 87.5888C135.766 87.9696 135.739 88.2684 135.674 88.4059H135.511C135.498 88.4142 135.525 88.5616 135.511 88.5693C135.06 88.8278 134.315 88.7172 133.554 88.5693C133.547 88.5515 133.555 88.5654 133.554 88.4059C133.553 88.1223 133.624 87.6266 133.554 87.0986C133.554 87.0161 133.554 87.0136 133.554 86.9352C133.553 86.6999 133.555 86.5727 133.554 86.4449C133.608 86.4502 133.663 86.4502 133.717 86.4449C133.772 86.4502 133.826 86.4502 133.88 86.4449C133.953 86.4235 134.231 86.5005 134.533 86.6084C134.834 86.7162 135.141 86.9217 135.837 86.7718C135.892 86.777 135.946 86.777 136.001 86.7718C136.062 86.725 136.117 86.67 136.164 86.6084C136.225 86.5615 136.28 86.5066 136.327 86.4449C136.566 86.1616 136.728 85.9781 136.816 85.6279C136.903 85.2776 136.906 84.8144 136.653 84.484C136.518 84.3078 136.34 84.2418 136.164 84.1572C136.409 84.1755 136.769 84.0593 136.979 83.9938C137.041 83.947 137.095 83.892 137.142 83.8304C137.204 83.7836 137.258 83.7286 137.305 83.6669C137.367 83.6201 137.422 83.5652 137.468 83.5035C137.586 83.1381 137.711 82.5735 137.794 82.0328C137.878 81.4921 137.857 80.8274 137.468 80.2353C137.422 80.1737 137.367 80.1187 137.305 80.0719C137.258 80.0103 137.204 79.9553 137.142 79.9085C135.958 79.4288 134.857 79.8124 134.207 79.7451C134.152 79.7398 134.098 79.7398 134.043 79.7451H129.477C129.423 79.7398 129.368 79.7398 129.314 79.7451C129.26 79.7398 129.205 79.7398 129.151 79.7451C129.097 79.7398 129.042 79.7398 128.988 79.7451ZM149.863 79.7451C149.858 79.7994 149.858 79.8541 149.863 79.9085C149.801 79.9553 149.746 80.0103 149.7 80.0719C149.638 80.1187 149.583 80.1737 149.537 80.2353C149.353 80.6879 149.377 81.3535 149.7 81.706C150.022 82.0585 150.316 82.1243 150.515 82.1962C150.595 82.225 150.635 82.1759 150.678 82.1962C150.7 82.2067 150.667 82.3551 150.678 82.3597V88.8961C150.485 88.9976 150.311 88.9947 150.026 89.2229C149.919 89.3085 149.814 89.5282 149.7 89.7132C149.586 89.8982 149.434 90.2072 149.537 90.5302C149.639 90.8532 149.847 91.0764 150.026 91.1839C150.204 91.2914 150.484 91.2937 150.678 91.3473C150.732 91.3525 150.787 91.3525 150.841 91.3473H154.755C154.81 91.3525 154.864 91.3525 154.918 91.3473C154.973 91.3525 155.027 91.3525 155.082 91.3473C155.143 91.3005 155.198 91.2455 155.245 91.1839C155.306 91.1371 155.361 91.0821 155.408 91.0205C155.469 90.9737 155.524 90.9187 155.571 90.8571C155.658 90.639 155.76 90.3158 155.734 90.04C155.708 89.7642 155.426 89.559 155.245 89.3864C154.883 89.041 154.619 88.9435 154.429 88.8961V82.3597C154.767 82.198 155.168 82.0059 155.408 81.706C155.511 81.577 155.505 81.4301 155.571 81.2158C155.636 81.0015 155.726 80.689 155.571 80.3987C155.416 80.1084 155.141 79.8194 154.918 79.7451C154.696 79.6708 154.485 79.7412 154.266 79.7451H150.352C150.298 79.7398 150.243 79.7398 150.189 79.7451C150.135 79.7398 150.08 79.7398 150.026 79.7451C149.972 79.7398 149.917 79.7398 149.863 79.7451ZM172.532 79.7451C172.527 79.7994 172.527 79.8541 172.532 79.9085C172.47 79.9553 172.415 80.0103 172.369 80.0719C172.307 80.1187 172.252 80.1737 172.206 80.2353C172.128 80.4463 172.023 80.6329 172.043 80.889C172.062 81.145 172.201 81.5241 172.369 81.706C172.704 82.0699 173.002 82.1459 173.184 82.1962H173.347L175.304 91.0205C175.299 91.0748 175.299 91.1295 175.304 91.1839C175.351 91.2455 175.406 91.3005 175.467 91.3473C175.514 91.4089 175.569 91.4639 175.63 91.5107C175.677 91.5723 175.732 91.6273 175.793 91.6741C175.848 91.6793 175.902 91.6793 175.957 91.6741C176.011 91.6793 176.065 91.6793 176.12 91.6741C176.174 91.6793 176.229 91.6793 176.283 91.6741C177.427 91.4794 178.184 90.5966 178.403 89.5498C178.413 89.499 178.395 89.4376 178.403 89.3864L179.708 86.2815L181.665 91.1839C181.711 91.2455 181.766 91.3005 181.828 91.3473C181.874 91.4089 181.929 91.4639 181.991 91.5107C182.037 91.5723 182.092 91.6273 182.154 91.6741C182.262 91.6952 182.372 91.6952 182.48 91.6741C182.534 91.6793 182.589 91.6793 182.643 91.6741C183.78 91.3703 184.523 90.328 184.6 89.2229C184.604 89.1698 184.599 89.1129 184.6 89.0595L186.068 82.3597C186.278 82.2753 186.548 82.0813 186.883 81.8694C186.999 81.7962 187.242 81.8506 187.373 81.706C187.695 82.0585 187.989 82.1243 188.188 82.1962C188.268 82.225 188.308 82.1759 188.351 82.1962C188.373 82.2067 188.34 82.3551 188.351 82.3597V88.8961C188.16 88.9939 187.921 89.0694 187.699 89.2229C187.587 89.2998 187.498 89.3941 187.373 89.5498C187.247 89.7054 186.989 90.0004 187.046 90.3668C187.104 90.7333 187.348 91.064 187.536 91.1839C187.723 91.3037 187.992 91.2931 188.188 91.3473C188.242 91.3525 188.297 91.3525 188.351 91.3473H192.428C192.482 91.3525 192.537 91.3525 192.591 91.3473C192.646 91.3525 192.7 91.3525 192.754 91.3473C192.816 91.3005 192.871 91.2455 192.918 91.1839C192.979 91.1371 193.034 91.0821 193.081 91.0205C193.142 90.9737 193.197 90.9187 193.244 90.8571C193.323 90.6362 193.281 90.3069 193.244 90.04C193.207 89.773 193.081 89.5499 192.918 89.3864C192.59 89.0592 192.425 88.9533 192.265 88.8961V82.3597C192.664 82.1604 192.868 81.8009 193.081 81.3792C193.159 81.223 193.244 81.1371 193.244 80.889C193.244 80.6408 193.128 80.2779 192.918 80.0719C192.549 79.7115 192.162 79.7059 191.776 79.7451H191.613H188.025C187.971 79.7398 187.916 79.7398 187.862 79.7451C187.808 79.7398 187.753 79.7398 187.699 79.7451C187.637 79.7919 187.582 79.8469 187.536 79.9085C187.474 79.9553 187.419 80.0103 187.373 80.0719C187.311 80.1187 187.256 80.1737 187.21 80.2353C187.051 80.0541 186.899 79.8369 186.72 79.7451C186.666 79.7398 186.611 79.7398 186.557 79.7451C186.503 79.7398 186.448 79.7398 186.394 79.7451H183.132C183.078 79.7398 183.024 79.7398 182.969 79.7451C182.915 79.7398 182.86 79.7398 182.806 79.7451C182.745 79.7919 182.69 79.8469 182.643 79.9085C182.582 79.9553 182.527 80.0103 182.48 80.0719C182.419 80.1187 182.364 80.1737 182.317 80.2353C182.221 80.4537 182.15 80.6243 182.154 80.889C182.158 81.1537 182.315 81.508 182.48 81.706C182.811 82.102 183.099 82.1407 183.295 82.1962L182.806 83.9938L181.338 80.2353C181.292 80.1737 181.237 80.1187 181.175 80.0719C181.129 80.0103 181.074 79.9553 181.012 79.9085C180.966 79.8469 180.911 79.7919 180.849 79.7451C180.459 79.6135 179.93 79.6159 179.544 79.7451C179.158 79.8742 178.901 80.1338 178.729 80.3987C178.419 80.8756 178.329 81.3509 178.24 81.706C178.23 81.7452 178.25 81.8329 178.24 81.8694L177.587 83.8304C177.439 83.2348 177.21 82.6164 177.098 82.0328C177.467 81.8355 177.824 81.4612 177.914 81.0524C178.003 80.6435 177.852 80.1922 177.424 79.9085C177.049 79.6597 176.684 79.6541 176.283 79.7451H176.12H173.021C172.967 79.7398 172.912 79.7398 172.858 79.7451C172.804 79.7398 172.749 79.7398 172.695 79.7451C172.641 79.7398 172.586 79.7398 172.532 79.7451ZM193.896 79.7451C193.891 79.7994 193.891 79.8541 193.896 79.9085C193.835 79.9553 193.78 80.0103 193.733 80.0719C193.671 80.1187 193.617 80.1737 193.57 80.2353C193.393 80.67 193.443 81.3607 193.733 81.706C194.022 82.0513 194.357 82.112 194.548 82.1962C194.625 82.2297 194.665 82.1722 194.711 82.1962C194.734 82.2083 194.697 82.3523 194.711 82.3597V88.8961C194.521 88.9939 194.282 89.0694 194.059 89.2229C193.948 89.2998 193.859 89.3941 193.733 89.5498C193.607 89.7054 193.349 90.0004 193.407 90.3668C193.465 90.7333 193.709 91.064 193.896 91.1839C194.083 91.3037 194.352 91.2931 194.548 91.3473C194.603 91.3525 194.657 91.3525 194.711 91.3473H197.81C197.864 91.3525 197.919 91.3525 197.973 91.3473C198.027 91.3525 198.082 91.3525 198.136 91.3473C198.198 91.3005 198.253 91.2455 198.299 91.1839C198.361 91.1371 198.416 91.0821 198.462 91.0205C198.524 90.9737 198.579 90.9187 198.626 90.8571C198.711 90.6427 198.821 90.3171 198.789 90.04C198.756 89.7629 198.479 89.5501 198.299 89.3864C197.94 89.0589 197.664 89.107 197.484 89.0595V85.9547C198.642 87.6024 199.712 89.2697 201.072 90.8571C201.119 90.9187 201.173 90.9737 201.235 91.0205C201.659 91.3596 202.088 91.5543 202.703 91.6741C203.01 91.734 203.382 91.7727 203.844 91.5107C204.075 91.3797 204.257 91.1362 204.334 90.8571C204.391 90.6477 204.364 90.5425 204.334 90.3668V90.2034V82.1962C204.527 82.0947 204.701 82.0977 204.986 81.8694C205.093 81.7838 205.198 81.5642 205.312 81.3792C205.426 81.1942 205.578 80.8851 205.475 80.5621C205.373 80.2391 205.164 80.016 204.986 79.9085C204.807 79.801 204.527 79.7986 204.334 79.7451C204.279 79.7398 204.225 79.7398 204.17 79.7451H201.235C201.181 79.7398 201.126 79.7398 201.072 79.7451C201.018 79.7398 200.963 79.7398 200.909 79.7451C200.847 79.7919 200.792 79.8469 200.746 79.9085C200.684 79.9553 200.629 80.0103 200.583 80.0719C200.521 80.1187 200.466 80.1737 200.419 80.2353C200.331 80.4503 200.239 80.6244 200.256 80.889C200.274 81.1536 200.42 81.525 200.583 81.706C200.907 82.0681 201.216 82.1384 201.398 82.1962V85.3011C200.143 83.5593 198.927 81.79 197.647 80.0719C197.6 80.0103 197.545 79.9553 197.484 79.9085C197.437 79.8469 197.382 79.7919 197.321 79.7451C197.267 79.7398 197.212 79.7398 197.158 79.7451C197.104 79.7398 197.049 79.7398 196.995 79.7451H194.385C194.331 79.7398 194.276 79.7398 194.222 79.7451C194.168 79.7398 194.113 79.7398 194.059 79.7451C194.005 79.7398 193.95 79.7398 193.896 79.7451ZM143.829 82.1962C143.983 82.2187 144.189 82.1534 144.318 82.1962C144.666 82.3131 144.827 82.4057 144.97 82.6865C145.11 83.0013 145.271 83.7089 145.133 84.1572C144.996 84.6054 144.843 84.7777 144.481 84.8108C144.31 84.7551 144.161 84.6748 143.992 84.6474H143.829V82.1962ZM133.554 82.3597C134.108 82.3654 134.646 82.4676 135.022 82.5231H135.185C135.194 82.5967 135.172 82.7156 135.185 82.8499C135.208 83.0737 135.122 83.4533 135.511 83.8304L135.674 83.9938C135.454 83.9603 135.247 83.9645 135.022 83.9938C134.878 83.9546 134.824 84.0068 134.696 83.9938C134.247 83.9483 133.829 83.9823 133.554 83.9938V82.3597Z"
            fill="black"
          />
          <path
            d="M115.632 84.8672C115.979 84.0848 116.598 83.4271 117.358 83.0357C118.117 82.6443 119.012 82.5219 119.848 82.6947C120.818 82.8952 121.699 83.4938 122.251 84.318C122.803 85.1421 123.022 86.1813 122.86 87.1604C122.729 87.9511 122.353 88.6994 121.798 89.2767C121.244 89.8541 120.511 90.258 119.728 90.4191H107.641"
            stroke="black"
            stroke-width="0.65"
            stroke-linecap="round"
          />
          <g opacity="0.6">
            <path
              fill-rule="evenodd"
              clip-rule="evenodd"
              d="M23.4844 13.0723H310.516C313.284 13.0723 315.939 14.1741 317.896 16.1354C319.853 18.0968 320.953 20.7569 320.953 23.5306V227.468C320.953 230.242 319.853 232.902 317.896 234.863C315.939 236.825 313.284 237.926 310.516 237.926H23.4844C20.7162 237.926 18.0614 236.825 16.1039 234.863C14.1465 232.902 13.0469 230.242 13.0469 227.468V23.5306C13.0469 20.7569 14.1465 18.0968 16.1039 16.1354C18.0614 14.1741 20.7162 13.0723 23.4844 13.0723Z"
              fill="url(#paint2_linear_9599_83188)"
            />
            <path
              fill-rule="evenodd"
              clip-rule="evenodd"
              d="M33.9219 23.5312C28.1395 23.5312 23.4844 28.1957 23.4844 33.9896V127.048C62.9162 103.167 106.901 103.768 167 103.768C227.099 103.768 271.083 103.167 310.516 127.048V33.9896C310.516 28.1957 305.861 23.5312 300.078 23.5312H33.9219Z"
              fill="url(#paint3_linear_9599_83188)"
            />
          </g>
          <defs>
            <linearGradient
              id="paint0_linear_9599_83188"
              x1="229.625"
              y1="245.77"
              x2="227.005"
              y2="13.0718"
              gradientUnits="userSpaceOnUse"
            >
              <stop stop-color="#000606" stop-opacity="0" />
              <stop offset="0.05277" stop-color="#CCCECE" stop-opacity="0.37647" />
              <stop offset="0.90625" stop-color="#000606" stop-opacity="0.0372603" />
              <stop offset="1" stop-color="#000606" stop-opacity="0" />
            </linearGradient>
            <linearGradient
              id="paint1_linear_9599_83188"
              x1="-5.66765e-06"
              y1="237.926"
              x2="-5.66765e-06"
              y2="13.0723"
              gradientUnits="userSpaceOnUse"
            >
              <stop stop-color="#F8F8FC" />
              <stop offset="1" stop-color="#EFF0F9" />
            </linearGradient>
            <linearGradient
              id="paint2_linear_9599_83188"
              x1="-3.19863e-06"
              y1="-26.112"
              x2="-3.19863e-06"
              y2="276.031"
              gradientUnits="userSpaceOnUse"
            >
              <stop stop-color="white" stop-opacity="0.3287" />
              <stop offset="1" stop-color="white" stop-opacity="0" />
            </linearGradient>
            <linearGradient
              id="paint3_linear_9599_83188"
              x1="2.97932e-06"
              y1="199.409"
              x2="2.97932e-06"
              y2="-30.1451"
              gradientUnits="userSpaceOnUse"
            >
              <stop stop-color="white" />
              <stop offset="1" stop-color="white" stop-opacity="0" />
            </linearGradient>
          </defs>
        </svg>