<svg width="77" height="78" viewBox="0 0 77 78" fill="none" xmlns="http://www.w3.org/2000/svg">
<g filter="url(#filter0_d_3964_23727)">
<rect x="32" y="8" width="35" height="35" rx="17.5" fill="white" shape-rendering="crispEdges"/>
<rect x="37" y="13" width="25" height="25" rx="12.5" fill="white"/>
<path d="M50.7008 25.2874C50.6694 25.2561 50.6518 25.2136 50.6518 25.1693C50.6518 25.125 50.6694 25.0825 50.7008 25.0512L56.88 18.8727C57.2707 18.4814 57.2702 17.8475 56.879 17.4568C56.4877 17.0661 55.8538 17.0665 55.4631 17.4578L49.2846 23.6337C49.2533 23.665 49.2108 23.6827 49.1665 23.6827C49.1222 23.6827 49.0797 23.665 49.0484 23.6337L42.8699 17.4578C42.4792 17.0669 41.8456 17.0668 41.4547 17.4575C41.0638 17.8482 41.0636 18.4818 41.4543 18.8727L47.6322 25.0512C47.6636 25.0825 47.6812 25.125 47.6812 25.1693C47.6812 25.2136 47.6636 25.2561 47.6322 25.2874L41.4543 31.4666C41.2016 31.7194 41.1029 32.0879 41.1956 32.4332C41.2882 32.7785 41.558 33.0482 41.9033 33.1407C42.2487 33.2331 42.6171 33.1343 42.8699 32.8814L49.0484 26.7022C49.0797 26.6709 49.1222 26.6532 49.1665 26.6532C49.2108 26.6532 49.2533 26.6709 49.2846 26.7022L55.4631 32.8814C55.8538 33.2723 56.4874 33.2725 56.8783 32.8818C57.2692 32.4911 57.2693 31.8574 56.8786 31.4666L50.7008 25.2874Z" fill="#262626"/>
<mask id="mask0_3964_23727" style="mask-type:alpha" maskUnits="userSpaceOnUse" x="41" y="17" width="17" height="17">
<path d="M50.7008 25.2874C50.6694 25.2561 50.6518 25.2136 50.6518 25.1693C50.6518 25.125 50.6694 25.0825 50.7008 25.0512L56.88 18.8727C57.2707 18.4814 57.2702 17.8475 56.879 17.4568C56.4877 17.0661 55.8538 17.0665 55.4631 17.4578L49.2846 23.6337C49.2533 23.665 49.2108 23.6827 49.1665 23.6827C49.1222 23.6827 49.0797 23.665 49.0484 23.6337L42.8699 17.4578C42.4792 17.0669 41.8456 17.0668 41.4547 17.4575C41.0638 17.8482 41.0636 18.4818 41.4543 18.8727L47.6322 25.0512C47.6636 25.0825 47.6812 25.125 47.6812 25.1693C47.6812 25.2136 47.6636 25.2561 47.6322 25.2874L41.4543 31.4666C41.2016 31.7194 41.1029 32.0879 41.1956 32.4332C41.2882 32.7785 41.558 33.0482 41.9033 33.1407C42.2487 33.2331 42.6171 33.1343 42.8699 32.8814L49.0484 26.7022C49.0797 26.6709 49.1222 26.6532 49.1665 26.6532C49.2108 26.6532 49.2533 26.6709 49.2846 26.7022L55.4631 32.8814C55.8538 33.2723 56.4874 33.2725 56.8783 32.8818C57.2692 32.4911 57.2693 31.8574 56.8786 31.4666L50.7008 25.2874Z" fill="white"/>
</mask>
<g mask="url(#mask0_3964_23727)">
</g>
</g>
<defs>
<filter id="filter0_d_3964_23727" x="0" y="-21" width="99" height="99" filterUnits="userSpaceOnUse" color-interpolation-filters="sRGB">
<feFlood flood-opacity="0" result="BackgroundImageFix"/>
<feColorMatrix in="SourceAlpha" type="matrix" values="0 0 0 0 0 0 0 0 0 0 0 0 0 0 0 0 0 0 127 0" result="hardAlpha"/>
<feMorphology radius="10" operator="dilate" in="SourceAlpha" result="effect1_dropShadow_3964_23727"/>
<feOffset dy="3"/>
<feGaussianBlur stdDeviation="11"/>
<feComposite in2="hardAlpha" operator="out"/>
<feColorMatrix type="matrix" values="0 0 0 0 0.5875 0 0 0 0 0.5875 0 0 0 0 0.5875 0 0 0 0.1 0"/>
<feBlend mode="normal" in2="BackgroundImageFix" result="effect1_dropShadow_3964_23727"/>
<feBlend mode="normal" in="SourceGraphic" in2="effect1_dropShadow_3964_23727" result="shape"/>
</filter>
</defs>
</svg>
