<svg width="400" height="400" viewBox="0 0 400 400" fill="none" xmlns="http://www.w3.org/2000/svg">
<path d="M400 305.922H0V306.122H400V305.922Z" fill="#EBEBEB"/>
<path d="M359.92 318.793H333.424V318.993H359.92V318.793Z" fill="#EBEBEB"/>
<path d="M264.976 320.969H258.024V321.169H264.976V320.969Z" fill="#EBEBEB"/>
<path d="M332.624 311.367H317.272V311.567H332.624V311.367Z" fill="#EBEBEB"/>
<path d="M76.52 312.711H41.968V312.911H76.52V312.711Z" fill="#EBEBEB"/>
<path d="M88.712 312.711H83.648V312.911H88.712V312.711Z" fill="#EBEBEB"/>
<path d="M180.12 316.09H105.176V316.29H180.12V316.09Z" fill="#EBEBEB"/>
<path d="M189.6 270.24H35.128C33.9179 270.238 32.758 269.756 31.9031 268.899C31.0482 268.043 30.568 266.882 30.568 265.672V48.528C30.5785 47.3248 31.0633 46.1744 31.9171 45.3266C32.7709 44.4788 33.9248 44.0021 35.128 44H189.6C190.811 44 191.973 44.4813 192.83 45.3379C193.687 46.1946 194.168 47.3565 194.168 48.568V265.672C194.168 266.884 193.687 268.045 192.83 268.902C191.973 269.759 190.811 270.24 189.6 270.24ZM35.128 44.16C33.9709 44.1621 32.862 44.6233 32.0445 45.4422C31.2271 46.2611 30.768 47.3709 30.768 48.528V265.672C30.768 266.829 31.2271 267.939 32.0445 268.758C32.862 269.577 33.9709 270.038 35.128 270.04H189.6C190.758 270.038 191.868 269.577 192.686 268.758C193.505 267.94 193.966 266.83 193.968 265.672V48.528C193.966 47.3702 193.505 46.2604 192.686 45.4417C191.868 44.623 190.758 44.1621 189.6 44.16H35.128Z" fill="#EBEBEB"/>
<path d="M362.648 270.24H208.168C206.957 270.238 205.796 269.756 204.94 268.9C204.084 268.044 203.602 266.883 203.6 265.672V48.528C203.613 47.3241 204.099 46.1737 204.954 45.3261C205.809 44.4785 206.964 44.002 208.168 44H362.648C363.85 44.0042 365.002 44.4818 365.854 45.3294C366.706 46.177 367.189 47.3262 367.2 48.528V265.672C367.2 266.881 366.721 268.04 365.868 268.896C365.015 269.753 363.857 270.236 362.648 270.24ZM208.168 44.16C207.01 44.1621 205.9 44.623 205.082 45.4417C204.263 46.2604 203.802 47.3702 203.8 48.528V265.672C203.802 266.83 204.263 267.94 205.082 268.758C205.9 269.577 207.01 270.038 208.168 270.04H362.648C363.806 270.038 364.916 269.577 365.734 268.758C366.553 267.94 367.014 266.83 367.016 265.672V48.528C367.014 47.3702 366.553 46.2604 365.734 45.4417C364.916 44.623 363.806 44.1621 362.648 44.16H208.168Z" fill="#EBEBEB"/>
<path d="M68.32 190.215H72.824L72.824 95.4148H68.32L68.32 190.215Z" fill="#E0E0E0"/>
<path d="M156.632 95.4258H70.92V190.226H156.632V95.4258Z" fill="#E0E0E0"/>
<path d="M159.368 95.4258H70.464V190.226H159.368V95.4258Z" fill="#F0F0F0"/>
<path d="M155.608 98.4492H74.088V185.865H155.608V98.4492Z" fill="white"/>
<path d="M155.608 98.4492H153.248V185.865H155.608V98.4492Z" fill="#E0E0E0"/>
<path d="M73.872 161.304V163.664H153.496V161.304H73.872Z" fill="#E0E0E0"/>
<path d="M155.608 157.352H72.824V161.312H155.608V157.352Z" fill="#F0F0F0"/>
<path d="M218.968 304.441H336.896V155.105L218.968 155.105V304.441Z" fill="#F0F0F0"/>
<path d="M223.136 192.473H332.728V160.537H223.136V192.473Z" fill="#E0E0E0"/>
<path d="M326.496 192.473H332.72V165.713H326.496V192.473Z" fill="#EBEBEB"/>
<path d="M296.392 192.473H302.616V165.713H296.392V192.473Z" fill="#EBEBEB"/>
<path d="M257.679 191.412L263.813 192.469L268.358 166.098L262.225 165.04L257.679 191.412Z" fill="#EBEBEB"/>
<path d="M318.792 192.473H325.016V169.233H318.792V192.473Z" fill="#EBEBEB"/>
<path d="M304.472 192.473H310.696V169.233H304.472V192.473Z" fill="#EBEBEB"/>
<path d="M268.352 192.473H274.576V169.233H268.352V192.473Z" fill="#EBEBEB"/>
<path d="M283.189 191.122L289.265 192.473L294.307 169.786L288.231 168.436L283.189 191.122Z" fill="#EBEBEB"/>
<path d="M313.408 192.473H316.52V164.377H313.408V192.473Z" fill="#EBEBEB"/>
<path d="M276.376 192.473H279.488V164.377H276.376V192.473Z" fill="#EBEBEB"/>
<path d="M332.72 197.535H223.128V229.471H332.72V197.535Z" fill="#E0E0E0"/>
<path d="M229.352 202.703H223.128V229.463H229.352V202.703Z" fill="#EBEBEB"/>
<path d="M259.456 202.703H253.232V229.463H259.456V202.703Z" fill="#EBEBEB"/>
<path d="M293.634 202.029L287.501 203.086L292.046 229.457L298.18 228.4L293.634 202.029Z" fill="#EBEBEB"/>
<path d="M237.072 206.23H230.848V229.47H237.072V206.23Z" fill="#EBEBEB"/>
<path d="M251.376 206.23H245.152V229.47H251.376V206.23Z" fill="#EBEBEB"/>
<path d="M287.496 206.23H281.272V229.47H287.496V206.23Z" fill="#EBEBEB"/>
<path d="M267.643 205.423L261.567 206.773L266.609 229.46L272.685 228.11L267.643 205.423Z" fill="#EBEBEB"/>
<path d="M242.456 201.375H239.344V229.471H242.456V201.375Z" fill="#EBEBEB"/>
<path d="M279.48 201.375H276.368V229.471H279.48V201.375Z" fill="#EBEBEB"/>
<path d="M326.496 229.465H332.72V202.705H326.496V229.465Z" fill="#EBEBEB"/>
<path d="M318.792 229.465H325.016V206.225H318.792V229.465Z" fill="#EBEBEB"/>
<path d="M304.472 229.465H310.696V206.225H304.472V229.465Z" fill="#EBEBEB"/>
<path d="M313.408 229.465H316.52V201.369H313.408V229.465Z" fill="#EBEBEB"/>
<path d="M223.136 266.457H332.728V234.521H223.136V266.457Z" fill="#E0E0E0"/>
<path d="M263.592 266.457H269.816V239.697H263.592V266.457Z" fill="#EBEBEB"/>
<path d="M224.882 265.388L231.015 266.445L235.561 240.074L229.428 239.017L224.882 265.388Z" fill="#EBEBEB"/>
<path d="M285.992 266.457H292.216V243.217H285.992V266.457Z" fill="#EBEBEB"/>
<path d="M271.68 266.457H277.904V243.217H271.68V266.457Z" fill="#EBEBEB"/>
<path d="M235.552 266.457H241.776V243.217H235.552V266.457Z" fill="#EBEBEB"/>
<path d="M250.395 265.095L256.47 266.445L261.512 243.759L255.437 242.409L250.395 265.095Z" fill="#EBEBEB"/>
<path d="M280.608 266.457H283.72V238.361H280.608V266.457Z" fill="#EBEBEB"/>
<path d="M243.576 266.457H246.688V238.361H243.576V266.457Z" fill="#EBEBEB"/>
<path d="M296.507 265.388L302.64 266.445L307.186 240.074L301.052 239.017L296.507 265.388Z" fill="#EBEBEB"/>
<path d="M307.184 266.457H313.408V243.217H307.184V266.457Z" fill="#EBEBEB"/>
<path d="M322.021 265.091L328.096 266.441L333.138 243.755L327.063 242.405L322.021 265.091Z" fill="#EBEBEB"/>
<path d="M315.192 266.457H318.304V238.361H315.192V266.457Z" fill="#EBEBEB"/>
<path d="M141.12 212.625H72.672C70.9046 212.622 69.154 212.967 67.5202 213.641C65.8863 214.315 64.4014 215.304 63.1502 216.553C61.899 217.801 60.9061 219.283 60.2283 220.916C59.5505 222.548 59.2011 224.298 59.2 226.065V279.521H154.568V226.065C154.568 224.299 154.22 222.551 153.544 220.92C152.868 219.289 151.878 217.807 150.629 216.559C149.38 215.311 147.897 214.321 146.266 213.646C144.634 212.971 142.886 212.624 141.12 212.625Z" fill="#E6E6E6"/>
<path d="M174.808 252.238H162.56C160.438 252.238 158.403 253.081 156.903 254.581C155.403 256.082 154.56 258.117 154.56 260.238V304.438H182.784V260.23C182.782 258.114 181.941 256.085 180.447 254.587C178.952 253.089 176.924 252.245 174.808 252.238Z" fill="#E0E0E0"/>
<path d="M174.808 252.238H174.544C172.422 252.238 170.387 253.081 168.887 254.581C167.387 256.082 166.544 258.117 166.544 260.238V304.438H182.776V260.23C182.774 258.115 181.935 256.088 180.441 254.59C178.948 253.092 176.923 252.247 174.808 252.238Z" fill="#EBEBEB"/>
<path d="M163.144 284.129H69.2V304.433H163.144V284.129Z" fill="#E6E6E6"/>
<path d="M163.272 265.559H72.672C68.1874 265.559 64.552 269.194 64.552 273.679V278.743C64.552 283.227 68.1874 286.863 72.672 286.863H163.272C167.757 286.863 171.392 283.227 171.392 278.743V273.679C171.392 269.194 167.757 265.559 163.272 265.559Z" fill="#F5F5F5"/>
<path d="M84.064 265.559H72.824C68.3395 265.559 64.704 269.194 64.704 273.679V278.743C64.704 283.227 68.3395 286.863 72.824 286.863H84.064C88.5486 286.863 92.184 283.227 92.184 278.743V273.679C92.184 269.194 88.5486 265.559 84.064 265.559Z" fill="#E0E0E0"/>
<path d="M71.608 252.238H59.36C57.2383 252.238 55.2034 253.081 53.7031 254.581C52.2028 256.082 51.36 258.117 51.36 260.238V304.438H79.6V260.23C79.5979 258.111 78.7552 256.08 77.2568 254.581C75.7585 253.083 73.7269 252.24 71.608 252.238Z" fill="#E0E0E0"/>
<path d="M71.608 252.238H71.352C69.2303 252.238 67.1954 253.081 65.6951 254.581C64.1948 256.082 63.352 258.117 63.352 260.238V304.438H79.6V260.23C79.5979 258.111 78.7552 256.08 77.2568 254.581C75.7585 253.083 73.7269 252.24 71.608 252.238Z" fill="#F0F0F0"/>
<path d="M274.944 119.623C283.94 119.623 291.232 112.33 291.232 103.335C291.232 94.3393 283.94 87.0469 274.944 87.0469C265.948 87.0469 258.656 94.3393 258.656 103.335C258.656 112.33 265.948 119.623 274.944 119.623Z" fill="#E0E0E0"/>
<path d="M288.627 105.561C289.853 98.0123 284.726 90.899 277.177 89.6736C269.628 88.4482 262.514 93.5747 261.289 101.124C260.064 108.673 265.19 115.786 272.739 117.012C280.288 118.237 287.402 113.111 288.627 105.561Z" fill="#F0F0F0"/>
<path d="M274.296 93.832V103.512L267.88 99.88" fill="#F0F0F0"/>
<path d="M274.296 104.208C274.175 104.209 274.056 104.176 273.952 104.112L267.552 100.488C267.402 100.392 267.294 100.242 267.251 100.069C267.208 99.8957 267.234 99.7126 267.322 99.5576C267.41 99.4025 267.555 99.2873 267.726 99.2357C267.897 99.1842 268.081 99.2002 268.24 99.2804L273.616 102.328V93.8324C273.634 93.6617 273.715 93.5038 273.843 93.3891C273.971 93.2744 274.136 93.2109 274.308 93.2109C274.48 93.2109 274.645 93.2744 274.773 93.3891C274.901 93.5038 274.982 93.6617 275 93.8324V103.512C275.001 103.634 274.969 103.753 274.909 103.859C274.848 103.964 274.761 104.052 274.656 104.112C274.548 104.179 274.423 104.212 274.296 104.208Z" fill="#E0E0E0"/>
<path d="M200 342.055C285.666 342.055 355.112 337.123 355.112 331.039C355.112 324.955 285.666 320.023 200 320.023C114.334 320.023 44.888 324.955 44.888 331.039C44.888 337.123 114.334 342.055 200 342.055Z" fill="#F5F5F5"/>
<path d="M310.928 164.656H289.328C287.361 164.656 285.475 165.438 284.084 166.828C282.693 168.219 281.912 170.105 281.912 172.072V181.016C281.912 182.983 282.693 184.869 284.084 186.26C285.475 187.651 287.361 188.432 289.328 188.432H298.56L301.04 196.264L303.544 188.432H310.888C312.855 188.432 314.741 187.651 316.132 186.26C317.523 184.869 318.304 182.983 318.304 181.016V172.072C318.304 170.112 317.528 168.232 316.146 166.842C314.764 165.453 312.888 164.667 310.928 164.656Z" fill="#106FA4"/>
<path d="M291.744 176C291.744 176.296 291.656 176.585 291.492 176.831C291.327 177.077 291.094 177.269 290.82 177.382C290.547 177.495 290.246 177.525 289.956 177.467C289.666 177.409 289.399 177.267 289.19 177.058C288.981 176.849 288.838 176.582 288.781 176.292C288.723 176.002 288.753 175.701 288.866 175.427C288.979 175.154 289.171 174.92 289.417 174.756C289.663 174.592 289.952 174.504 290.248 174.504C290.444 174.504 290.639 174.543 290.82 174.618C291.002 174.693 291.167 174.803 291.306 174.942C291.445 175.081 291.555 175.246 291.63 175.427C291.705 175.609 291.744 175.803 291.744 176ZM296.848 174.504C296.552 174.504 296.263 174.592 296.017 174.756C295.771 174.92 295.579 175.154 295.466 175.427C295.353 175.701 295.323 176.002 295.381 176.292C295.438 176.582 295.581 176.849 295.79 177.058C295.999 177.267 296.266 177.409 296.556 177.467C296.846 177.525 297.147 177.495 297.42 177.382C297.694 177.269 297.927 177.077 298.092 176.831C298.256 176.585 298.344 176.296 298.344 176C298.336 175.609 298.174 175.236 297.895 174.963C297.615 174.689 297.239 174.536 296.848 174.536V174.504ZM303.448 174.504C303.152 174.504 302.863 174.592 302.617 174.756C302.371 174.92 302.179 175.154 302.066 175.427C301.953 175.701 301.923 176.002 301.981 176.292C302.038 176.582 302.181 176.849 302.39 177.058C302.599 177.267 302.866 177.409 303.156 177.467C303.446 177.525 303.747 177.495 304.02 177.382C304.294 177.269 304.527 177.077 304.692 176.831C304.856 176.585 304.944 176.296 304.944 176C304.936 175.609 304.774 175.236 304.495 174.963C304.215 174.689 303.839 174.536 303.448 174.536V174.504ZM310.048 174.504C309.752 174.504 309.463 174.592 309.217 174.756C308.971 174.92 308.779 175.154 308.666 175.427C308.553 175.701 308.523 176.002 308.581 176.292C308.638 176.582 308.781 176.849 308.99 177.058C309.199 177.267 309.466 177.409 309.756 177.467C310.046 177.525 310.347 177.495 310.62 177.382C310.894 177.269 311.127 177.077 311.292 176.831C311.456 176.585 311.544 176.296 311.544 176C311.536 175.609 311.374 175.236 311.095 174.963C310.815 174.689 310.439 174.536 310.048 174.536V174.504Z" fill="white"/>
<path d="M89.2 191.055H67.64C66.6661 191.055 65.7018 191.247 64.802 191.619C63.9023 191.992 63.0847 192.538 62.3961 193.227C61.7075 193.915 61.1612 194.733 60.7885 195.633C60.4158 196.532 60.224 197.497 60.224 198.471V207.415C60.224 209.382 61.0053 211.268 62.3961 212.659C63.7869 214.049 65.6732 214.831 67.64 214.831H76.872L79.352 222.655L81.856 214.831H89.2C91.1668 214.831 93.0531 214.049 94.4439 212.659C95.8347 211.268 96.616 209.382 96.616 207.415V198.471C96.616 197.497 96.4242 196.532 96.0515 195.633C95.6788 194.733 95.1325 193.915 94.4439 193.227C93.7553 192.538 92.9377 191.992 92.038 191.619C91.1382 191.247 90.1739 191.055 89.2 191.055Z" fill="#106FA4"/>
<path d="M70.016 202.398C70.016 202.694 69.9282 202.984 69.7639 203.23C69.5995 203.476 69.3658 203.667 69.0925 203.781C68.8191 203.894 68.5183 203.923 68.2281 203.866C67.9379 203.808 67.6714 203.665 67.4622 203.456C67.2529 203.247 67.1105 202.98 67.0527 202.69C66.995 202.4 67.0246 202.099 67.1379 201.826C67.2511 201.553 67.4428 201.319 67.6889 201.155C67.9349 200.99 68.2241 200.902 68.52 200.902C68.9168 200.902 69.2973 201.06 69.5778 201.341C69.8584 201.621 70.016 202.002 70.016 202.398ZM75.12 200.902C74.8241 200.902 74.5349 200.99 74.2889 201.155C74.0428 201.319 73.8511 201.553 73.7379 201.826C73.6246 202.099 73.595 202.4 73.6527 202.69C73.7105 202.98 73.8529 203.247 74.0622 203.456C74.2714 203.665 74.5379 203.808 74.8281 203.866C75.1183 203.923 75.4191 203.894 75.6925 203.781C75.9658 203.667 76.1995 203.476 76.3639 203.23C76.5282 202.984 76.616 202.694 76.616 202.398C76.6097 202.007 76.449 201.633 76.1689 201.359C75.8888 201.085 75.5119 200.932 75.12 200.934V200.902ZM81.72 200.902C81.4234 200.899 81.1326 200.984 80.8845 201.147C80.6364 201.309 80.4422 201.542 80.3265 201.815C80.2108 202.088 80.1789 202.389 80.2348 202.68C80.2907 202.972 80.4319 203.24 80.6405 203.45C80.8491 203.661 81.1156 203.805 81.4062 203.864C81.6968 203.923 81.9984 203.895 82.2727 203.782C82.547 203.669 82.7816 203.478 82.9467 203.231C83.1118 202.985 83.2 202.695 83.2 202.398C83.1937 202.009 83.0353 201.638 82.7586 201.365C82.482 201.091 82.1091 200.936 81.72 200.934V200.902ZM88.32 200.902C88.0241 200.902 87.7349 200.99 87.4889 201.155C87.2428 201.319 87.0511 201.553 86.9379 201.826C86.8246 202.099 86.795 202.4 86.8527 202.69C86.9105 202.98 87.0529 203.247 87.2622 203.456C87.4714 203.665 87.7379 203.808 88.0281 203.866C88.3183 203.923 88.6191 203.894 88.8925 203.781C89.1658 203.667 89.3995 203.476 89.5639 203.23C89.7282 202.984 89.816 202.694 89.816 202.398C89.8097 202.007 89.649 201.633 89.3689 201.359C89.0888 201.085 88.7119 200.932 88.32 200.934V200.902Z" fill="white"/>
<path d="M330.4 332.158H228.864C209.896 332.158 208.68 309.822 224.272 299.31C227.123 297.414 230.278 296.023 233.6 295.198C264.472 287.078 307.848 232.494 338.4 255.334L338.488 255.398C368.92 278.398 347.648 332.158 330.4 332.158Z" fill="#263238"/>
<path opacity="0.5" d="M330.4 332.158H228.864C209.896 332.158 208.68 309.822 224.272 299.31C227.123 297.414 230.278 296.023 233.6 295.198C264.472 287.078 307.848 232.494 338.4 255.334L338.488 255.398C368.92 278.398 347.648 332.158 330.4 332.158Z" fill="white"/>
<path opacity="0.2" d="M338.32 255.294C335.76 255.126 332.656 255.846 329.312 258.646C320.632 265.926 333.832 300.974 313.072 315.55C301.488 323.686 251.512 327.27 234.832 317.294C222.52 309.926 222.36 305.294 224.272 299.31C227.123 297.415 230.278 296.024 233.6 295.198C264.432 287.038 307.808 232.454 338.32 255.294Z" fill="black"/>
<path d="M259.376 248.689L253.32 244.425L257.848 239.793C257.848 239.793 262.496 242.193 262.056 246.473L259.376 248.689Z" fill="#E4897B"/>
<path d="M250.944 239.718L255.144 237.078L257.848 239.79L253.32 244.422L250.944 239.718Z" fill="#E4897B"/>
<path d="M289.168 237.672C283.432 239.36 280.608 249.448 275.872 258.976L262.088 245.28L257.704 249.168C257.704 249.168 270.328 269.224 276.288 269.224C283.728 269.224 291.448 248.56 291.448 248.56L289.168 237.672Z" fill="#263238"/>
<path opacity="0.1" d="M291.448 248.56C291.448 248.56 290.224 251.832 288.248 255.76C286.368 259.584 283.808 264.04 281.048 266.736C279.488 268.248 277.848 269.208 276.248 269.208C270.288 269.208 257.664 249.152 257.664 249.152L262.048 245.264L275.832 258.96C280.568 249.432 283.384 239.344 289.136 237.656L291.448 248.56Z" fill="white"/>
<path opacity="0.2" d="M288.28 255.776C286.4 259.6 283.84 264.056 281.08 266.752C281.376 257.608 285.88 248.688 285.88 248.688C287.122 250.877 287.936 253.282 288.28 255.776Z" fill="black"/>
<path d="M283.68 293.399C283.68 293.399 235 286.407 232.424 297.087C229.712 308.383 268.8 315.999 292.16 316.799C315.52 317.599 322.224 311.999 318.472 283.199H286.472L283.68 293.399Z" fill="#106FA4"/>
<path opacity="0.6" d="M283.68 293.399C283.68 293.399 235 286.407 232.424 297.087C229.712 308.383 268.8 315.999 292.16 316.799C315.52 317.599 322.224 311.999 318.472 283.199H286.472L283.68 293.399Z" fill="white"/>
<path d="M256.568 315.669L246.368 315.677L241.472 315.685L240.888 310.525L245.416 309.917L256.48 308.445L256.568 315.669Z" fill="#E4897B"/>
<path d="M241.992 309.881L243.232 315.769C243.249 315.846 243.251 315.926 243.236 316.004C243.222 316.082 243.191 316.156 243.147 316.222C243.103 316.288 243.046 316.344 242.979 316.387C242.913 316.43 242.838 316.459 242.76 316.473L239.824 317.001C239.824 317.001 235.928 317.993 234.832 317.297C231.632 315.249 228.56 302.305 229.864 301.345C230.336 300.993 231.16 301.529 231.576 301.953C232.888 303.289 235.68 307.025 236.792 308.129C238.08 309.425 240.376 309.465 241.384 309.409C241.525 309.402 241.664 309.446 241.775 309.532C241.887 309.619 241.964 309.742 241.992 309.881Z" fill="#263238"/>
<path opacity="0.2" d="M256.568 315.669L246.368 315.677L245.416 309.917L256.48 308.445L256.568 315.669Z" fill="black"/>
<path d="M271.48 306.566L281.16 309.79L285.808 311.334L284.728 316.406L280.24 315.55L269.28 313.454L271.48 306.566Z" fill="#E4897B"/>
<path d="M283.48 316.673L284.16 310.697C284.17 310.618 284.195 310.543 284.234 310.474C284.273 310.406 284.326 310.346 284.388 310.297C284.451 310.249 284.522 310.214 284.598 310.193C284.674 310.172 284.754 310.167 284.832 310.177L287.784 310.609C287.784 310.609 291.784 310.897 292.584 311.905C294.984 314.857 293.8 328.113 292.264 328.609C291.696 328.793 291.088 328.025 290.824 327.497C290.024 325.809 288.536 321.377 287.832 319.985C287.032 318.345 284.848 317.585 283.88 317.313C283.748 317.271 283.636 317.183 283.563 317.066C283.489 316.949 283.46 316.81 283.48 316.673Z" fill="#263238"/>
<path opacity="0.2" d="M271.48 306.566L281.16 309.79L280.24 315.55L269.28 313.454L271.48 306.566Z" fill="black"/>
<path d="M278.56 316.448L275.8 316.712L277.448 307.16L280.616 308.832L278.56 316.448Z" fill="#106FA4"/>
<path opacity="0.6" d="M278.56 316.448L275.8 316.712L277.448 307.16L280.616 308.832L278.56 316.448Z" fill="white"/>
<path d="M287.8 319.911C287.872 320.344 287.807 320.788 287.616 321.183C287.539 321.301 287.431 321.397 287.305 321.46C287.178 321.523 287.037 321.552 286.896 321.543C286.811 321.547 286.726 321.528 286.65 321.489C286.574 321.449 286.51 321.391 286.464 321.319C286.048 320.615 287.024 318.447 287.144 318.207C287.152 318.18 287.169 318.157 287.193 318.142C287.216 318.127 287.245 318.122 287.272 318.127C287.302 318.129 287.331 318.142 287.354 318.162C287.377 318.182 287.393 318.209 287.4 318.239C287.59 318.781 287.724 319.341 287.8 319.911ZM286.648 320.951C286.653 321.022 286.675 321.09 286.712 321.151C286.727 321.181 286.751 321.207 286.782 321.222C286.812 321.238 286.846 321.244 286.88 321.239C286.977 321.25 287.075 321.234 287.163 321.191C287.251 321.149 287.325 321.082 287.376 320.999C287.609 320.238 287.567 319.419 287.256 318.687C286.919 319.399 286.713 320.166 286.648 320.951Z" fill="#106FA4"/>
<path d="M287.424 318.255V318.319C287.16 319.015 285.96 320.391 285.28 320.295C285.169 320.276 285.067 320.22 284.992 320.135C284.916 320.051 284.871 319.944 284.864 319.831C284.833 319.719 284.827 319.602 284.847 319.487C284.866 319.372 284.91 319.263 284.976 319.167C285.472 318.367 287.192 318.111 287.288 318.119C287.315 318.114 287.342 318.118 287.366 318.129C287.391 318.141 287.411 318.16 287.424 318.183C287.43 318.207 287.43 318.232 287.424 318.255ZM285.12 319.719V319.783C285.168 319.983 285.248 319.991 285.288 320.007C285.688 320.063 286.608 319.167 287.008 318.479C286.326 318.562 285.69 318.869 285.2 319.351C285.132 319.461 285.101 319.59 285.112 319.719H285.12Z" fill="#106FA4"/>
<path d="M247.296 309.176C247.296 309.176 292.584 291.576 306.456 294.52C320.328 297.464 320.392 304.72 313.36 311.488C306.328 318.256 295.824 315.648 295.824 315.648C295.824 315.648 304.08 310.704 303.504 307.648C302.928 304.592 297.68 311.576 297.68 311.576C297.68 311.576 270.312 318.272 247.712 316.504L247.296 309.176Z" fill="#106FA4"/>
<path d="M237.104 308.224C236.841 307.875 236.695 307.452 236.688 307.016C236.701 306.875 236.75 306.741 236.832 306.625C236.913 306.51 237.024 306.419 237.152 306.36C237.227 306.319 237.311 306.297 237.396 306.297C237.481 306.297 237.565 306.319 237.64 306.36C238.328 306.8 238.44 309.176 238.44 309.448C238.443 309.475 238.437 309.503 238.423 309.526C238.408 309.549 238.386 309.567 238.36 309.576C238.335 309.592 238.306 309.601 238.276 309.601C238.246 309.601 238.217 309.592 238.192 309.576C237.783 309.164 237.418 308.711 237.104 308.224ZM237.648 306.768C237.607 306.71 237.556 306.661 237.496 306.624C237.469 306.605 237.437 306.595 237.404 306.595C237.371 306.595 237.339 306.605 237.312 306.624C237.22 306.657 237.139 306.717 237.079 306.795C237.02 306.873 236.984 306.966 236.976 307.064C237.119 307.846 237.536 308.552 238.152 309.056C238.121 308.269 237.95 307.495 237.648 306.768Z" fill="#106FA4"/>
<path d="M238.192 309.519V309.447C238.112 308.711 238.536 306.935 239.192 306.703C239.3 306.669 239.417 306.672 239.523 306.713C239.629 306.754 239.718 306.829 239.776 306.927C239.927 307.104 240.001 307.334 239.984 307.567C239.904 308.503 238.496 309.519 238.384 309.567C238.362 309.582 238.335 309.59 238.308 309.59C238.281 309.59 238.254 309.582 238.232 309.567C238.215 309.554 238.201 309.538 238.192 309.519ZM239.568 307.159V307.103C239.44 306.951 239.36 306.983 239.32 306.991C238.936 307.119 238.52 308.335 238.52 309.135C238.912 308.807 239.672 308.119 239.72 307.535C239.728 307.405 239.695 307.276 239.624 307.167L239.568 307.159Z" fill="#106FA4"/>
<path opacity="0.7" d="M247.296 309.176C247.296 309.176 292.584 291.576 306.456 294.52C320.328 297.464 320.392 304.72 313.36 311.488C306.328 318.256 295.824 315.648 295.824 315.648C295.824 315.648 304.08 310.704 303.504 307.648C302.928 304.592 297.68 311.576 297.68 311.576C297.68 311.576 270.312 318.272 247.712 316.504L247.296 309.176Z" fill="white"/>
<path d="M246.744 309.039L249.288 307.871L250.752 317.399L247.216 316.823L246.744 309.039Z" fill="#106FA4"/>
<path opacity="0.6" d="M246.744 309.039L249.288 307.871L250.752 317.399L247.216 316.823L246.744 309.039Z" fill="white"/>
<path d="M321.688 239.199C316.8 266.399 318.576 283.999 318.576 283.999C318.576 283.999 295.832 283.687 286.488 283.159C281.504 250.191 289.168 237.663 289.168 237.663C291.612 237.173 294.083 236.834 296.568 236.647C297.088 236.607 297.624 236.583 298.168 236.559C302.576 236.556 306.98 236.804 311.36 237.303C312.16 237.391 313.032 237.503 313.848 237.623C318.016 238.255 321.688 239.199 321.688 239.199Z" fill="#263238"/>
<path opacity="0.1" d="M321.688 239.199C321.08 242.575 320.576 245.807 320.16 248.863C319.504 253.663 319.064 258.111 318.776 262.063C318.688 263.255 318.608 264.415 318.552 265.519C318.32 269.567 318.256 273.031 318.264 275.831C318.264 281.095 318.576 283.999 318.576 283.999C318.576 283.999 295.832 283.687 286.488 283.159C281.496 250.191 289.176 237.663 289.176 237.663C291.617 237.173 294.085 236.833 296.568 236.647C297.088 236.607 297.624 236.583 298.168 236.559C302.576 236.552 306.981 236.8 311.36 237.303C312.16 237.391 313.032 237.503 313.848 237.623C318.016 238.247 321.688 239.199 321.688 239.199Z" fill="white"/>
<path opacity="0.2" d="M301.376 269.223C307.204 268.531 312.955 267.294 318.552 265.527C318.32 269.575 318.256 273.039 318.264 275.839C307.408 276.839 302.976 274.751 302.976 274.751L301.376 269.223Z" fill="black"/>
<path opacity="0.2" d="M320.16 248.873C319.504 253.673 319.064 258.121 318.776 262.073C315.664 255.737 317.976 248.137 317.976 248.137L320.16 248.873Z" fill="black"/>
<path d="M302.608 280.39H286.064C285.743 280.385 285.435 280.26 285.201 280.039C284.967 279.819 284.824 279.519 284.8 279.198L282.496 257.238C282.48 257.091 282.496 256.942 282.542 256.801C282.588 256.66 282.663 256.53 282.763 256.421C282.863 256.311 282.985 256.224 283.121 256.165C283.257 256.106 283.404 256.076 283.552 256.078H300.096C300.411 256.084 300.713 256.206 300.944 256.42C301.176 256.634 301.321 256.925 301.352 257.238L303.664 279.198C303.685 279.348 303.673 279.501 303.629 279.646C303.585 279.79 303.511 279.924 303.41 280.037C303.31 280.151 303.186 280.241 303.048 280.302C302.909 280.363 302.759 280.393 302.608 280.39Z" fill="#263238"/>
<path opacity="0.6" d="M302.608 280.39H286.064C285.743 280.385 285.435 280.26 285.201 280.039C284.967 279.819 284.824 279.519 284.8 279.198L282.496 257.238C282.48 257.091 282.496 256.942 282.542 256.801C282.588 256.66 282.663 256.53 282.763 256.421C282.863 256.311 282.985 256.224 283.121 256.165C283.257 256.106 283.404 256.076 283.552 256.078H300.096C300.411 256.084 300.713 256.206 300.944 256.42C301.176 256.634 301.321 256.925 301.352 257.238L303.664 279.198C303.685 279.348 303.673 279.501 303.629 279.646C303.585 279.79 303.511 279.924 303.41 280.037C303.31 280.151 303.186 280.241 303.048 280.302C302.909 280.363 302.759 280.393 302.608 280.39Z" fill="white"/>
<path opacity="0.2" d="M301.92 280.39H286.064C285.743 280.385 285.435 280.26 285.201 280.039C284.967 279.819 284.824 279.519 284.8 279.198L282.496 257.238C282.48 257.091 282.496 256.942 282.542 256.801C282.588 256.66 282.663 256.53 282.763 256.421C282.863 256.311 282.985 256.224 283.121 256.165C283.257 256.106 283.404 256.076 283.552 256.078H299.408C299.723 256.084 300.025 256.206 300.256 256.42C300.488 256.634 300.633 256.925 300.664 257.238L302.976 279.198C302.997 279.348 302.985 279.501 302.941 279.646C302.897 279.79 302.823 279.924 302.722 280.037C302.622 280.151 302.498 280.241 302.36 280.302C302.221 280.363 302.071 280.393 301.92 280.39Z" fill="white"/>
<path d="M292.272 266.453C292.044 266.451 291.818 266.498 291.61 266.591C291.401 266.684 291.215 266.82 291.064 266.99C290.912 267.161 290.799 267.361 290.731 267.579C290.664 267.797 290.643 268.027 290.672 268.253C290.719 268.739 290.943 269.19 291.302 269.52C291.661 269.851 292.128 270.038 292.616 270.045C292.843 270.047 293.068 270 293.276 269.908C293.484 269.816 293.67 269.68 293.821 269.511C293.972 269.341 294.086 269.141 294.154 268.925C294.222 268.708 294.243 268.479 294.216 268.253C293.728 268.244 293.26 268.055 292.901 267.723C292.543 267.391 292.319 266.939 292.272 266.453Z" fill="#263238"/>
<path opacity="0.3" d="M295.856 257.853H287.112C286.897 257.85 286.687 257.787 286.506 257.671C286.325 257.556 286.18 257.391 286.088 257.197L285.568 256.109H297.104L296.8 257.197C296.741 257.398 296.615 257.572 296.443 257.691C296.271 257.81 296.064 257.867 295.856 257.853Z" fill="black"/>
<path d="M300.992 268.519L297.168 268.207L297.328 273.295L300.528 274.975L307.904 274.303L308.504 270.871C306.08 267.319 300.992 268.519 300.992 268.519Z" fill="#E4897B"/>
<path d="M321.688 239.199C325.616 240.383 331.184 263.199 330.296 268.239C329.408 273.279 319.72 275.439 307.408 275.159V269.207L321.688 265.039L319.288 256.239C319.288 256.239 317.304 249.767 318.192 245.239C318.68 242.903 319.905 240.786 321.688 239.199Z" fill="#263238"/>
<path opacity="0.1" d="M321.688 239.199C325.616 240.383 331.184 263.199 330.296 268.239C329.408 273.279 319.72 275.439 307.408 275.159V269.207L321.688 265.039L319.288 256.239C319.288 256.239 317.304 249.767 318.192 245.239C318.68 242.903 319.905 240.786 321.688 239.199Z" fill="white"/>
<path d="M309.456 237.045C307.464 239.125 304.336 240.869 299.32 240.685C295.472 240.533 294.936 238.117 295.608 236.789C297.944 236.309 299 235.293 299.328 233.997C299.656 232.701 299.2 230.957 298.528 229.341L305.016 223.877L306.112 222.949C306.112 223.261 306.072 223.589 306.056 223.933C305.98 225.201 305.98 226.473 306.056 227.741C306.272 231.317 307.12 235.197 309.456 237.045Z" fill="#E4897B"/>
<path opacity="0.2" d="M306.064 227.743C304.856 230.215 302.736 233.199 299.328 233.999C299.68 232.623 299.2 230.959 298.528 229.343L305.016 223.879C305.36 223.879 305.712 223.879 306.056 223.935C305.983 225.203 305.986 226.475 306.064 227.743Z" fill="black"/>
<path d="M291.2 213.013C290.248 215.189 290.128 219.861 293.44 218.701C296.752 217.541 292.8 209.277 291.2 213.013Z" fill="#263238"/>
<path d="M307.064 217.837C306.776 223.661 306.912 227.094 304 230.094C299.616 234.605 292.384 231.949 290.912 226.141C289.6 220.901 290.288 212.253 295.968 209.917C297.228 209.401 298.598 209.213 299.95 209.37C301.303 209.527 302.593 210.024 303.702 210.815C304.81 211.606 305.699 212.665 306.287 213.893C306.875 215.121 307.143 216.478 307.064 217.837Z" fill="#E4897B"/>
<path d="M298.232 219.489C298.232 219.961 297.992 220.353 297.68 220.353C297.368 220.353 297.112 219.969 297.104 219.489C297.096 219.009 297.352 218.633 297.656 218.633C297.96 218.633 298.224 219.017 298.232 219.489Z" fill="#263238"/>
<path d="M292.856 219.504C292.856 219.976 292.616 220.36 292.304 220.36C291.992 220.36 291.736 219.976 291.736 219.504C291.736 219.032 291.976 218.648 292.288 218.648C292.6 218.648 292.856 219.024 292.856 219.504Z" fill="#263238"/>
<path d="M294.568 219.734C294.002 221.14 293.243 222.459 292.312 223.654C292.642 223.872 293.014 224.017 293.404 224.082C293.794 224.147 294.193 224.129 294.576 224.03L294.568 219.734Z" fill="#DE5753"/>
<path d="M299.864 217.752C299.816 217.759 299.767 217.753 299.722 217.735C299.677 217.717 299.637 217.687 299.608 217.648C299.401 217.364 299.13 217.132 298.818 216.971C298.505 216.81 298.16 216.724 297.808 216.72C297.734 216.725 297.661 216.701 297.605 216.653C297.548 216.605 297.512 216.538 297.504 216.464C297.501 216.427 297.505 216.39 297.516 216.355C297.527 216.32 297.545 216.287 297.569 216.259C297.592 216.231 297.622 216.207 297.654 216.19C297.687 216.173 297.723 216.163 297.76 216.16C298.204 216.157 298.643 216.259 299.041 216.458C299.439 216.657 299.784 216.947 300.048 217.304C300.093 217.363 300.114 217.437 300.105 217.51C300.096 217.584 300.058 217.65 300 217.696C299.96 217.726 299.913 217.746 299.864 217.752Z" fill="#263238"/>
<path d="M290.52 217.662C290.468 217.677 290.412 217.677 290.36 217.662C290.327 217.645 290.297 217.623 290.273 217.595C290.248 217.567 290.23 217.535 290.218 217.5C290.206 217.465 290.201 217.428 290.203 217.392C290.206 217.355 290.216 217.319 290.232 217.286C290.409 216.879 290.682 216.521 291.028 216.242C291.373 215.964 291.781 215.773 292.216 215.686C292.253 215.681 292.29 215.684 292.326 215.694C292.361 215.704 292.395 215.721 292.424 215.744C292.453 215.767 292.477 215.796 292.495 215.829C292.513 215.861 292.524 215.897 292.528 215.934C292.534 215.969 292.532 216.006 292.523 216.041C292.515 216.076 292.499 216.109 292.478 216.138C292.456 216.167 292.429 216.192 292.398 216.21C292.366 216.229 292.332 216.241 292.296 216.246C291.953 216.31 291.63 216.459 291.358 216.678C291.086 216.897 290.872 217.18 290.736 217.502C290.715 217.543 290.685 217.58 290.647 217.608C290.61 217.635 290.566 217.654 290.52 217.662Z" fill="#263238"/>
<path d="M297.912 213.167C297.912 213.167 299.512 212.015 300.248 213.255C300.984 214.495 300.936 217.799 300.936 217.799L301.256 217.215C301.256 217.215 303.328 224.575 306.328 222.719C309.328 220.863 313.736 213.391 306.728 209.583C306.728 209.583 305.984 207.807 301.352 206.927C296.72 206.047 291.12 208.911 290.152 211.975C289.184 215.039 290.536 216.775 290.536 216.775C290.685 216.108 290.989 215.486 291.424 214.959C291.486 215.271 291.625 215.563 291.827 215.809C292.029 216.055 292.289 216.246 292.584 216.367C292.537 215.741 292.667 215.114 292.96 214.559C293.113 215.103 293.386 215.606 293.76 216.031C294.096 212.879 296.24 212.239 296.912 212.263C297.153 212.29 297.379 212.391 297.558 212.554C297.738 212.716 297.861 212.93 297.912 213.167Z" fill="#263238"/>
<path d="M309.376 222.664C309.162 223.357 308.813 224.001 308.349 224.558C307.885 225.116 307.315 225.576 306.672 225.912C304.944 226.8 303.68 225.336 303.824 223.512C303.952 221.856 305 219.4 306.896 219.28C307.311 219.261 307.724 219.345 308.098 219.525C308.473 219.704 308.797 219.973 309.042 220.308C309.288 220.643 309.447 221.033 309.505 221.444C309.563 221.855 309.519 222.274 309.376 222.664Z" fill="#E4897B"/>
<path d="M294.76 225.983C295.259 226.506 295.719 227.065 296.136 227.655L296.48 227.487C298.024 226.687 298.488 225.831 298.528 225.087C298.538 224.728 298.464 224.372 298.312 224.047C298.231 223.862 298.123 223.689 297.992 223.535C297.255 224.443 296.33 225.18 295.28 225.695C294.968 225.887 294.76 225.983 294.76 225.983Z" fill="#263238"/>
<path d="M295.28 225.711L295.704 226.191C297.152 225.455 298.104 224.735 298.312 224.063C298.231 223.878 298.123 223.705 297.992 223.551C297.255 224.459 296.33 225.196 295.28 225.711Z" fill="white"/>
<path d="M296.48 227.486C298.024 226.686 298.488 225.83 298.528 225.086C297.946 225.395 297.424 225.804 296.984 226.294C296.694 226.628 296.518 227.045 296.48 227.486Z" fill="#A24E3F"/>
<path d="M155.528 244.942L155.944 249.382C155.944 249.382 181.928 253.334 186.088 257.382C190.248 261.43 205.008 325.454 205.008 325.454L199.056 326.254C199.056 326.254 178.4 279.054 177.296 272.222C177.296 272.222 159.104 272.902 146.688 272.902C134.272 272.902 132.792 244.902 132.792 244.902L155.528 244.942Z" fill="#106FA4"/>
<path opacity="0.3" d="M205.008 325.463L199.056 326.263C199.056 326.263 190.608 306.959 184.232 291.255C180.624 282.399 177.688 274.687 177.296 272.223C177.296 272.223 164.704 272.687 153.296 272.847C150.992 272.847 148.744 272.895 146.656 272.895C134.24 272.895 132.76 244.895 132.76 244.895H155.496L155.912 249.335C155.912 249.335 181.904 253.279 186.056 257.335C190.208 261.391 205.008 325.463 205.008 325.463Z" fill="white"/>
<path d="M209.6 331.2C205.6 331.2 205.064 331.136 202.808 331.056C200.88 330.992 200.408 331.232 198.872 331.2C197.576 331.2 197.624 329.928 198.024 328.504C198.224 327.784 198.528 326.272 198.824 325.12L204.696 324.688C205.496 326.288 207.384 328.52 209.64 328.824C211.896 329.128 211.2 331.2 209.6 331.2Z" fill="#263238"/>
<path opacity="0.2" d="M184.232 291.289C180.624 282.433 177.688 274.721 177.296 272.257C177.296 272.257 164.704 272.721 153.296 272.881L152.064 251.129C152.064 251.129 168.128 253.433 178.928 262.737C180.296 263.889 182.96 281.705 184.232 291.289Z" fill="black"/>
<path d="M178.632 277.062H132.144V274.207C132.144 273.254 132.522 272.34 133.196 271.667C133.87 270.993 134.783 270.615 135.736 270.615H175.04C175.993 270.615 176.906 270.993 177.58 271.667C178.254 272.34 178.632 273.254 178.632 274.207V277.062Z" fill="#263238"/>
<path opacity="0.2" d="M178.632 277.062H132.144V274.207C132.144 273.254 132.522 272.34 133.196 271.667C133.87 270.993 134.783 270.615 135.736 270.615H175.04C175.993 270.615 176.906 270.993 177.58 271.667C178.254 272.34 178.632 273.254 178.632 274.207V277.062Z" fill="white"/>
<path d="M177.016 318.862L159.096 317.302V293.766H152.8V317.294L134.816 318.894C134.051 318.969 133.342 319.326 132.826 319.895C132.31 320.465 132.024 321.205 132.024 321.974V324.374H179.816V321.974C179.824 321.199 179.54 320.449 179.022 319.873C178.503 319.296 177.788 318.936 177.016 318.862Z" fill="#263238"/>
<path d="M137.816 327.296C137.816 328.111 137.574 328.907 137.122 329.585C136.669 330.262 136.025 330.79 135.273 331.102C134.52 331.414 133.691 331.496 132.892 331.337C132.093 331.178 131.359 330.785 130.783 330.209C130.207 329.633 129.814 328.899 129.655 328.1C129.496 327.3 129.578 326.472 129.89 325.719C130.201 324.966 130.73 324.323 131.407 323.87C132.085 323.417 132.881 323.176 133.696 323.176C134.789 323.176 135.837 323.61 136.609 324.382C137.382 325.155 137.816 326.203 137.816 327.296Z" fill="#263238"/>
<path d="M178.128 331.416C180.403 331.416 182.248 329.571 182.248 327.296C182.248 325.02 180.403 323.176 178.128 323.176C175.853 323.176 174.008 325.02 174.008 327.296C174.008 329.571 175.853 331.416 178.128 331.416Z" fill="#263238"/>
<path d="M151.712 275.527H160.184V295.599C160.184 296.387 159.871 297.141 159.315 297.698C158.758 298.255 158.003 298.567 157.216 298.567H154.688C153.901 298.567 153.146 298.255 152.589 297.698C152.033 297.141 151.72 296.387 151.72 295.599V275.527H151.712Z" fill="#263238"/>
<path opacity="0.2" d="M151.712 275.527H160.184V295.599C160.184 296.387 159.871 297.141 159.315 297.698C158.758 298.255 158.003 298.567 157.216 298.567H154.688C153.901 298.567 153.146 298.255 152.589 297.698C152.033 297.141 151.72 296.387 151.72 295.599V275.527H151.712Z" fill="white"/>
<path d="M131.816 277.809H178.952C179.752 277.809 180.4 277.16 180.4 276.361V276.033C180.4 275.233 179.752 274.585 178.952 274.585H131.816C131.016 274.585 130.368 275.233 130.368 276.033V276.361C130.368 277.16 131.016 277.809 131.816 277.809Z" fill="#263238"/>
<path opacity="0.2" d="M137.816 327.296C137.816 328.111 137.574 328.907 137.122 329.585C136.669 330.262 136.025 330.79 135.273 331.102C134.52 331.414 133.691 331.496 132.892 331.337C132.093 331.178 131.359 330.785 130.783 330.209C130.207 329.633 129.814 328.899 129.655 328.1C129.496 327.3 129.578 326.472 129.89 325.719C130.201 324.966 130.73 324.323 131.407 323.87C132.085 323.417 132.881 323.176 133.696 323.176C134.789 323.176 135.837 323.61 136.609 324.382C137.382 325.155 137.816 326.203 137.816 327.296Z" fill="white"/>
<path opacity="0.2" d="M178.128 331.416C180.403 331.416 182.248 329.571 182.248 327.296C182.248 325.02 180.403 323.176 178.128 323.176C175.853 323.176 174.008 325.02 174.008 327.296C174.008 329.571 175.853 331.416 178.128 331.416Z" fill="white"/>
<path d="M182.584 237.487H168.224C164.016 237.487 160.976 233.703 161.44 229.047L162.048 222.823C162.512 218.159 166.288 214.375 170.496 214.375H184.856C189.064 214.375 192.104 218.159 191.648 222.823L191.032 229.047C190.576 233.703 186.792 237.487 182.584 237.487Z" fill="#263238"/>
<path opacity="0.2" d="M182.584 237.487H168.224C164.016 237.487 160.976 233.703 161.44 229.047L162.048 222.823C162.512 218.159 166.288 214.375 170.496 214.375H184.856C189.064 214.375 192.104 218.159 191.648 222.823L191.032 229.047C190.576 233.703 186.792 237.487 182.584 237.487Z" fill="white"/>
<path d="M181.264 234.457H172.8C170.312 234.457 168.512 232.225 168.8 229.465L169.168 225.793C169.432 223.033 171.672 220.801 174.16 220.801H182.64C185.128 220.801 186.928 223.033 186.64 225.793L186.272 229.465C185.984 232.225 183.752 234.457 181.264 234.457Z" fill="#263238"/>
<path d="M174.528 228.969C174.528 228.969 172.592 267.889 164.208 274.569H173.176C173.176 274.569 181.176 261.313 181.76 228.969H174.528Z" fill="#263238"/>
<path d="M181.744 212.752L183.288 211.952C183.578 211.804 183.899 211.727 184.224 211.727C184.549 211.727 184.87 211.804 185.16 211.952L187.928 213.312C188.473 213.58 188.946 213.975 189.306 214.463C189.667 214.952 189.905 215.52 190 216.12L190.128 216.88C187.656 218.432 183.848 218.288 183.848 218.288L182.752 218.376C182.528 218.399 182.303 218.378 182.087 218.313C181.872 218.248 181.672 218.141 181.499 217.998C181.325 217.855 181.182 217.679 181.077 217.48C180.972 217.281 180.908 217.064 180.888 216.84L180.696 214.68C180.659 214.291 180.74 213.9 180.926 213.556C181.113 213.213 181.398 212.933 181.744 212.752Z" fill="#B97964"/>
<path opacity="0.2" d="M181.744 212.752L183.288 211.952C183.578 211.804 183.899 211.727 184.224 211.727C184.549 211.727 184.87 211.804 185.16 211.952L187.928 213.312C188.473 213.58 188.946 213.975 189.306 214.463C189.667 214.952 189.905 215.52 190 216.12L190.128 216.88C187.656 218.432 183.848 218.288 183.848 218.288L182.752 218.376C182.528 218.399 182.303 218.378 182.087 218.313C181.872 218.248 181.672 218.141 181.499 217.998C181.325 217.855 181.182 217.679 181.077 217.48C180.972 217.281 180.908 217.064 180.888 216.84L180.696 214.68C180.659 214.291 180.74 213.9 180.926 213.556C181.113 213.213 181.398 212.933 181.744 212.752Z" fill="black"/>
<path d="M170.4 214.655L164.8 221.735H159.472L160.168 211.855C164.2 212.631 170.4 214.655 170.4 214.655Z" fill="#106FA4"/>
<path opacity="0.2" d="M164.328 221.736H159.72L162.584 214.656C162.584 214.656 164.224 217.144 164.328 221.736Z" fill="black"/>
<path d="M155.872 247.613L132.424 245.437C133.16 242.941 133.808 240.493 134.352 238.133C135.04 235.245 135.584 232.477 136.016 229.893C136.448 227.309 136.816 224.909 137.072 222.733L137.144 222.117C137.144 221.773 137.224 221.437 137.256 221.117C137.488 219.013 137.632 217.181 137.728 215.669C137.928 212.717 137.928 211.013 137.928 211.013C145.962 209.475 154.253 209.967 162.048 212.445C165.536 222.269 155.872 247.613 155.872 247.613Z" fill="#106FA4"/>
<path d="M155.792 214.016C155.436 214.754 154.891 215.385 154.213 215.845C153.535 216.306 152.748 216.579 151.931 216.637C151.113 216.695 150.295 216.537 149.559 216.178C148.822 215.819 148.193 215.272 147.736 214.592L146.72 213.08L145.472 211.2C147.568 209.96 148.392 205.992 148.672 202.584C148.76 201.512 148.792 200.504 148.792 199.648L154.056 206.848C153.688 207.611 153.419 208.418 153.256 209.248C153.189 209.591 153.163 209.94 153.176 210.288C153.184 211.688 153.88 212.984 155.792 214.016Z" fill="#B97964"/>
<path opacity="0.2" d="M154.04 206.888C153.672 207.651 153.403 208.457 153.24 209.288C151.856 211.064 149.704 212.944 146.736 213.064L145.472 211.2C147.568 209.96 148.392 205.992 148.672 202.584C148.76 201.512 148.792 200.504 148.792 199.648L154.04 206.888Z" fill="black"/>
<path d="M141.392 194.863C141.392 194.863 138.792 193.887 139.56 192.087C140.328 190.287 141.256 190.303 141.256 190.303C140.863 189.567 140.65 188.749 140.633 187.915C140.616 187.08 140.797 186.254 141.16 185.503C142.448 183.103 145.296 184.079 145.296 184.079C145.307 183.325 145.575 182.598 146.055 182.016C146.534 181.434 147.198 181.033 147.936 180.879C148.689 180.754 149.463 180.879 150.138 181.234C150.814 181.59 151.356 182.156 151.68 182.847C151.68 182.847 153.472 180.519 156.096 181.159C158.72 181.799 159.248 185.455 159.248 185.455C159.965 185.221 160.744 185.273 161.423 185.599C162.103 185.926 162.63 186.502 162.896 187.207C163.253 187.943 163.402 188.763 163.327 189.578C163.252 190.393 162.957 191.172 162.472 191.831C162.472 191.831 164.144 191.031 164.696 193.727C165.248 196.423 162.432 198.791 162.432 198.791C162.432 198.791 163.952 198.975 163.168 200.967C162.384 202.959 159.912 202.991 159.912 202.991C159.912 202.991 160.872 203.479 159.056 205.119C157.24 206.759 151.392 204.415 151.392 204.415L141.392 194.863Z" fill="#263238"/>
<path d="M148.544 190.592C142.944 190.88 141.344 193.968 141.208 199.752C141.072 206.952 142.936 212 149.84 210.096C159.2 207.512 157.824 190.104 148.544 190.592Z" fill="#B97964"/>
<path d="M144.8 199.246C144.397 200.104 143.892 200.909 143.296 201.646C143.473 201.869 143.707 202.039 143.974 202.138C144.24 202.237 144.529 202.26 144.808 202.206L144.8 199.246Z" fill="#A24E3F"/>
<path d="M148.2 198.606C148.2 199.07 148.472 199.406 148.776 199.406C149.08 199.406 149.32 199.022 149.312 198.558C149.304 198.094 149.04 197.758 148.728 197.758C148.416 197.758 148.184 198.15 148.2 198.606Z" fill="#263238"/>
<path d="M148.856 197.782L147.848 197.414C147.848 197.414 148.368 198.246 148.856 197.782Z" fill="#263238"/>
<path d="M142.48 198.68C142.48 199.144 142.752 199.48 143.064 199.48C143.376 199.48 143.608 199.096 143.592 198.632C143.576 198.168 143.32 197.832 143.016 197.832C142.712 197.832 142.472 198.224 142.48 198.68Z" fill="#263238"/>
<path d="M143.144 197.848L142.128 197.488C142.128 197.488 142.656 198.312 143.144 197.848Z" fill="#263238"/>
<path d="M150.52 195.703C150.487 195.704 150.453 195.697 150.423 195.683C150.392 195.669 150.365 195.649 150.344 195.623C150.042 195.354 149.683 195.156 149.293 195.045C148.904 194.934 148.495 194.913 148.096 194.983C148.065 194.989 148.033 194.989 148.002 194.982C147.971 194.976 147.942 194.963 147.916 194.945C147.89 194.927 147.868 194.905 147.851 194.878C147.834 194.852 147.822 194.822 147.816 194.791C147.807 194.73 147.821 194.667 147.857 194.617C147.893 194.566 147.947 194.531 148.008 194.519C148.487 194.432 148.981 194.458 149.448 194.597C149.915 194.736 150.343 194.984 150.696 195.319C150.74 195.364 150.765 195.424 150.765 195.487C150.765 195.55 150.74 195.61 150.696 195.655C150.646 195.693 150.583 195.71 150.52 195.703Z" fill="#263238"/>
<path d="M141.776 195.536C141.74 195.536 141.704 195.528 141.67 195.513C141.637 195.498 141.608 195.476 141.584 195.448C141.546 195.397 141.529 195.333 141.538 195.27C141.547 195.207 141.581 195.15 141.632 195.112C141.96 194.836 142.347 194.638 142.762 194.531C143.177 194.425 143.611 194.413 144.032 194.496C144.063 194.505 144.091 194.521 144.116 194.541C144.141 194.561 144.161 194.586 144.176 194.615C144.191 194.643 144.2 194.674 144.203 194.706C144.206 194.738 144.202 194.77 144.192 194.8C144.172 194.859 144.13 194.908 144.075 194.936C144.019 194.964 143.955 194.97 143.896 194.952C143.544 194.889 143.183 194.905 142.838 194.999C142.494 195.093 142.175 195.263 141.904 195.496C141.866 195.521 141.822 195.535 141.776 195.536Z" fill="#263238"/>
<path d="M155.144 199.687C155.144 199.687 152.288 195.231 152.504 191.687C152.504 191.687 141.192 187.743 141.232 199.007C141.232 199.007 139.632 189.087 149.232 188.359C158.832 187.631 159.52 201.687 154.776 206.135C154.768 206.119 156.912 202.471 155.144 199.687Z" fill="#263238"/>
<path d="M154.296 200.92C154.303 200.597 154.374 200.279 154.505 199.983C154.636 199.687 154.823 199.42 155.058 199.197C155.292 198.974 155.568 198.8 155.869 198.683C156.171 198.567 156.493 198.512 156.816 198.52C158.56 198.624 159.568 202.136 155.304 203.216C154.696 203.384 154.312 202.8 154.296 200.92Z" fill="#B97964"/>
<path d="M146.152 205.463C145.992 205.474 145.832 205.474 145.672 205.463C145.641 205.457 145.611 205.445 145.585 205.428C145.559 205.411 145.536 205.389 145.518 205.363C145.5 205.337 145.488 205.307 145.481 205.277C145.475 205.246 145.474 205.214 145.48 205.183C145.485 205.152 145.496 205.123 145.512 205.097C145.529 205.07 145.55 205.047 145.575 205.029C145.601 205.012 145.629 204.999 145.66 204.992C145.69 204.986 145.721 204.985 145.752 204.991C146.355 205.097 146.975 204.997 147.514 204.706C148.052 204.416 148.477 203.953 148.72 203.391C148.732 203.362 148.749 203.335 148.771 203.312C148.793 203.289 148.819 203.271 148.848 203.258C148.877 203.246 148.908 203.239 148.94 203.238C148.971 203.238 149.003 203.243 149.032 203.255C149.061 203.267 149.088 203.284 149.111 203.306C149.134 203.328 149.152 203.354 149.165 203.383C149.177 203.412 149.184 203.443 149.185 203.475C149.185 203.506 149.18 203.538 149.168 203.567C148.923 204.156 148.501 204.654 147.961 204.994C147.421 205.333 146.789 205.497 146.152 205.463Z" fill="#263238"/>
<path d="M157.2 197.646C155.864 190.71 145.608 184.886 141.76 192.95C142.405 190.929 143.653 189.153 145.336 187.862C145.336 187.862 155.736 184.894 157.568 196.742L157.2 197.646Z" fill="#106FA4"/>
<path d="M151.736 331.2C147.736 331.2 147.2 331.136 144.944 331.056C143.016 330.992 142.544 331.232 141.008 331.2C139.712 331.2 139.76 329.928 140.16 328.504C140.36 327.784 140.664 326.272 140.96 325.12L146.832 324.688C147.632 326.288 149.52 328.52 151.776 328.824C154.032 329.128 153.328 331.2 151.736 331.2Z" fill="#263238"/>
<path d="M132.8 244.941C132.8 244.941 124.8 256.837 129.136 266.613C133.472 276.389 155.4 271.973 155.4 271.973L140.952 325.141L147.864 326.285C147.864 326.285 172.368 273.589 172.992 264.605C173.616 255.621 147.16 249.853 147.16 249.853L132.8 244.941Z" fill="#106FA4"/>
<path opacity="0.3" d="M132.8 244.941C132.8 244.941 124.8 256.837 129.136 266.613C133.472 276.389 155.4 271.973 155.4 271.973L140.952 325.141L147.864 326.285C147.864 326.285 172.368 273.589 172.992 264.605C173.616 255.621 147.16 249.853 147.16 249.853L132.8 244.941Z" fill="white"/>
<path opacity="0.2" d="M157.2 217.6C157.2 217.6 146 225.488 137.144 222.096C137.144 221.752 137.224 221.416 137.256 221.096C137.488 218.992 137.632 217.16 137.728 215.648C140.598 214.337 143.577 213.28 146.632 212.488C149.776 214.884 153.37 216.622 157.2 217.6Z" fill="black"/>
<path d="M141.6 211.03C146.528 213.43 151.616 216.414 156.984 217.51C160.072 217.31 163.528 216.054 166.632 215.206L175.936 212.39C176.335 212.264 176.766 212.292 177.145 212.467C177.524 212.642 177.825 212.953 177.987 213.337C178.15 213.722 178.164 214.154 178.026 214.548C177.888 214.942 177.607 215.271 177.24 215.47C174.336 217.07 171.408 218.542 168.376 219.886C164.632 221.422 161.176 223.214 156.952 223.598C155.436 223.58 153.929 223.359 152.472 222.942C147.554 221.499 142.819 219.494 138.36 216.966C137.651 216.502 137.141 215.788 136.933 214.966C136.724 214.145 136.832 213.274 137.234 212.528C137.636 211.782 138.304 211.214 139.105 210.936C139.906 210.659 140.782 210.692 141.56 211.03H141.6Z" fill="#B97864"/>
<path d="M138.952 210.143C134.64 211.167 134.496 218.567 138.456 222.039L148.056 213.935C148.056 213.935 144.064 208.927 138.952 210.143Z" fill="#106FA4"/>
<path d="M176.184 212.433L181.504 212.305L179.104 217.689C179.104 217.689 174.304 217.521 174.536 215.073L176.184 212.433Z" fill="#B97964"/>
<path d="M186.072 214.937L182.424 218.865L179.088 217.689L181.504 212.305L186.072 214.937Z" fill="#B97964"/>
<path d="M257.504 277.207C261.224 284.903 264.808 292.599 267.232 300.839C268.344 306.439 268.552 312.135 268.968 317.695C269.256 322.295 269.424 326.887 269.488 331.503L265.368 331.935C264.064 325.447 262.84 318.207 261.704 311.663C261.16 308.703 260.744 305.791 260 302.943C257.168 295.607 253.24 288.055 249.984 280.839L257.504 277.207Z" fill="#DC897C"/>
<path d="M263.648 287.28L257.128 290.4L253.08 292.36L250.624 286.456L248.056 280.272L250.224 269C256.88 271.912 263.648 287.28 263.648 287.28Z" fill="#106FA4"/>
<path opacity="0.2" d="M257.128 290.398L253.08 292.358L250.624 286.454C251.128 283.11 251.552 280.27 251.552 280.27C251.552 280.27 256.288 284.518 257.128 290.398Z" fill="black"/>
<path d="M237.6 248.557C237.672 249.037 237.984 249.357 238.296 249.357C238.608 249.357 238.8 248.885 238.728 248.405C238.656 247.925 238.336 247.605 238.024 247.605C237.712 247.605 237.48 248.085 237.6 248.557Z" fill="#263238"/>
<path d="M237.896 249.391C238.689 250.76 239.666 252.014 240.8 253.119C240.512 253.405 240.166 253.625 239.784 253.763C239.403 253.901 238.996 253.954 238.592 253.919L237.896 249.391Z" fill="#DE5753"/>
<path d="M235.4 246.182C235.328 246.179 235.26 246.151 235.208 246.102C235.156 246.048 235.127 245.976 235.127 245.902C235.127 245.827 235.156 245.755 235.208 245.702C235.521 245.38 235.907 245.14 236.334 245.001C236.76 244.861 237.214 244.827 237.656 244.902C237.692 244.909 237.727 244.924 237.758 244.945C237.788 244.966 237.814 244.993 237.834 245.024C237.855 245.056 237.868 245.091 237.875 245.127C237.881 245.164 237.88 245.201 237.872 245.238C237.864 245.274 237.85 245.309 237.829 245.339C237.808 245.37 237.781 245.396 237.749 245.416C237.718 245.436 237.683 245.45 237.646 245.456C237.61 245.463 237.572 245.462 237.536 245.454C237.184 245.404 236.826 245.438 236.49 245.555C236.155 245.672 235.852 245.868 235.608 246.126C235.579 246.148 235.545 246.165 235.51 246.174C235.474 246.184 235.437 246.187 235.4 246.182Z" fill="#263238"/>
<path d="M239.088 255.791C238.935 257.722 238.111 259.539 236.76 260.927C235.867 261.844 234.771 262.537 233.56 262.951C232.401 263.353 231.16 263.461 229.949 263.264C228.739 263.067 227.596 262.572 226.624 261.823C223.2 259.279 222.752 255.815 221.488 250.015C221.177 248.67 221.215 247.269 221.598 245.943C221.981 244.617 222.696 243.411 223.677 242.439C224.657 241.468 225.869 240.763 227.199 240.392C228.528 240.021 229.93 239.996 231.272 240.319C237.384 241.767 239.528 250.335 239.088 255.791Z" fill="#E4897B"/>
<path d="M223.688 259.479C226.088 260.991 235.16 256.743 233.664 249.599C233.664 249.599 237.24 245.687 237.064 241.183C236.888 236.679 233.864 234.783 230.568 235.631C227.64 236.343 227.648 237.935 227.648 237.935C227.648 237.935 213.92 238.903 216.576 244.591C210.736 250.399 220.736 257.599 223.688 259.479Z" fill="#263238"/>
<path d="M231.2 250.709C231.524 252.15 232.314 253.443 233.448 254.389C234.944 255.621 236.16 254.533 236.136 252.789C236.136 251.189 235.336 248.653 233.6 248.101C231.864 247.549 230.864 248.973 231.2 250.709Z" fill="#E4897B"/>
<path opacity="0.2" d="M238.672 257.809C238.273 258.977 237.62 260.042 236.76 260.929C235.867 261.845 234.771 262.539 233.56 262.953C232.746 262.541 231.965 262.067 231.224 261.537L232.44 258.553C232.44 258.553 236.168 260.377 238.672 257.809Z" fill="black"/>
<path d="M225.64 266.8L224.616 259.784C224.616 259.784 229.184 256.584 233.968 258.736L241.168 267.416L225.64 266.8Z" fill="#E4897B"/>
<path d="M242 266.55L240.328 264.046C240.328 264.046 228.2 259.558 222.912 265.31C222.912 265.31 234.744 271.566 242 266.55Z" fill="#106FA4"/>
<path opacity="0.2" d="M242 266.55L240.328 264.046C240.328 264.046 228.2 259.558 222.912 265.31C222.912 265.31 234.744 271.566 242 266.55Z" fill="black"/>
<path d="M195.432 334.574L190.864 331.63L192.616 329.014L197.376 321.91L201.952 324.854L196.688 332.702L195.432 334.574Z" fill="#E4897B"/>
<path d="M191.2 331.255L197.6 331.191C197.704 331.194 197.804 331.23 197.885 331.295C197.966 331.36 198.023 331.45 198.048 331.551L199.12 336.199C199.159 336.399 199.121 336.607 199.012 336.779C198.903 336.952 198.733 337.076 198.536 337.127H198.368C196.304 337.127 194.808 336.999 192.224 337.023C190.624 337.023 185.824 337.255 183.632 337.271C181.44 337.287 181.12 335.127 182.032 334.919C186.032 333.999 189.088 332.751 190.368 331.575C190.597 331.371 190.893 331.257 191.2 331.255Z" fill="#263238"/>
<path d="M192.432 327.247L200.8 329.503L246.224 295.039L222.92 289.935C221.255 289.579 219.522 289.739 217.95 290.392C216.378 291.045 215.042 292.161 214.12 293.591L192.432 327.247Z" fill="#263238"/>
<path opacity="0.2" d="M192.432 327.247L200.8 329.503L246.224 295.039L222.92 289.935C221.255 289.579 219.522 289.739 217.95 290.392C216.378 291.045 215.042 292.161 214.12 293.591L192.432 327.247Z" fill="black"/>
<path d="M167.6 334.744L162.88 332.048L164.496 329.344L168.872 322L173.592 324.696L168.752 332.808L167.6 334.744Z" fill="#E4897B"/>
<path d="M163.064 331.141H169.464C169.568 331.142 169.669 331.178 169.75 331.243C169.832 331.308 169.889 331.399 169.912 331.501L170.944 336.165C170.98 336.366 170.938 336.573 170.827 336.744C170.715 336.915 170.543 337.037 170.344 337.085H170.176C168.12 337.085 166.616 336.925 164.032 336.925C162.432 336.925 157.632 337.093 155.44 337.093C153.248 337.093 152.952 334.917 153.84 334.693C157.84 333.813 160.92 332.597 162.216 331.437C162.454 331.24 162.755 331.135 163.064 331.141Z" fill="#263238"/>
<path d="M257.184 313.133L225.424 313.213C224.624 310.397 223.616 300.597 220.512 288.477C219.672 285.189 218.672 281.733 217.496 278.189C216.519 274.984 215.333 271.847 213.944 268.797C216.818 267.06 219.976 265.844 223.272 265.205C237.328 262.805 250.224 268.997 250.224 268.997C250.224 268.997 255.8 284.517 257.184 313.133Z" fill="#106FA4"/>
<path opacity="0.2" d="M220.512 288.477C219.672 285.189 218.672 281.733 217.496 278.189L219.712 277.293C219.712 277.293 223.2 285.157 220.512 288.477Z" fill="black"/>
<path d="M206.616 293.919L210.304 295.663L211.712 289.455C211.712 289.455 208.768 288.423 206.56 289.927L206.616 293.919Z" fill="#E4897B"/>
<path d="M215.592 297.765L215.76 292.109L211.712 289.453L210.304 295.661L215.592 297.765Z" fill="#E4897B"/>
<path d="M218.112 278.52C211.976 281.84 204.968 284.92 199.632 289.264C199.512 289.368 199.552 289.416 199.688 288.952C199.713 288.656 199.675 288.359 199.576 288.08C199.488 287.776 199.291 287.514 199.024 287.344C198.92 287.304 198.984 287.4 199.128 287.496C199.328 287.62 199.54 287.725 199.76 287.808C202.224 288.744 205.64 289.056 208.4 289.408L208.816 293.528C207.944 293.776 207.128 293.944 206.272 294.104C203.072 294.656 199.752 295.048 196.384 293.936C194.937 293.501 193.715 292.519 192.979 291.199C192.243 289.879 192.05 288.324 192.44 286.864C194.088 281.016 209 273.72 214.472 271.008L218.112 278.528V278.52Z" fill="#DC897C"/>
<path d="M223.928 306.454L222.504 310.102C222.504 310.102 205.488 289.078 196.104 287.878C186.72 286.678 164.904 326.63 164.904 326.63L173.176 329.134L196.456 308.014C206.056 324.766 217.536 337.054 231.184 337.054H244.512C259.416 337.054 259.584 320.43 256.64 306.334L223.928 306.454Z" fill="#263238"/>
<path d="M213.944 268.797C208.608 270.749 202.336 276.669 202.336 276.669C202.336 276.669 207.616 285.821 208.144 285.469C208.672 285.117 219.504 282.013 219.504 282.013C219.504 282.013 221.712 279.149 220.016 274.301C219.575 272.932 218.782 271.703 217.716 270.737C216.65 269.771 215.35 269.102 213.944 268.797Z" fill="#106FA4"/>
<path d="M267.528 328.742L273.328 329.03L270.264 334.694C270.264 334.694 265.104 334.126 265.512 331.494L267.528 328.742Z" fill="#E4897B"/>
<path d="M278.08 332.263L273.8 336.239L270.264 334.695L273.328 329.031L278.08 332.263Z" fill="#E4897B"/>
<path d="M87.776 271.375C91.664 275.295 95.496 279.687 100.152 282.655C100.152 282.655 100.44 282.807 100.464 282.831C100.339 282.784 100.206 282.762 100.072 282.767C99.952 282.767 100.144 282.767 100.352 282.767C105.664 281.263 110.6 277.799 115.488 275.135C115.866 274.907 116.315 274.826 116.749 274.908C117.184 274.989 117.572 275.228 117.842 275.577C118.112 275.927 118.244 276.364 118.212 276.804C118.181 277.245 117.989 277.659 117.672 277.967C113.864 281.495 103.6 290.927 98.208 288.951C94.912 287.743 92.16 285.471 89.568 283.287C87.0361 281.092 84.6498 278.735 82.424 276.231C79.376 272.607 84.464 267.991 87.776 271.383V271.375Z" fill="#E9B376"/>
<path d="M94.464 276.913C93.784 282.001 89.664 286.993 89.664 286.993L88.8 286.401L84.592 283.609C84.592 283.609 84.512 283.369 84.392 282.945C84.272 282.521 84.12 282.025 83.936 281.345C82.968 277.953 81.224 271.609 81.008 268.977C86.232 268.857 88.584 271.345 94.464 276.913Z" fill="#106FA4"/>
<path opacity="0.7" d="M94.464 276.913C93.784 282.001 89.664 286.993 89.664 286.993L88.8 286.401L84.592 283.609C84.592 283.609 84.512 283.369 84.392 282.945C84.272 282.521 84.12 282.025 83.936 281.345C82.968 277.953 81.224 271.609 81.008 268.977C86.232 268.857 88.584 271.345 94.464 276.913Z" fill="white"/>
<path opacity="0.2" d="M88.8 286.401L84.592 283.609C84.592 283.609 84.512 283.369 84.392 282.945C84.5481 281.657 84.7832 280.38 85.096 279.121C86.2046 279.993 87.1102 281.096 87.7498 282.353C88.3894 283.61 88.7478 284.992 88.8 286.401Z" fill="black"/>
<path d="M83.68 302L87.272 308.288C96.872 306.048 127.736 301.344 131.52 311.928C136.232 325.072 102.208 335.56 83.384 336.2C64.56 336.84 48.136 332.36 60.04 304.912L83.68 302Z" fill="#263238"/>
<path opacity="0.2" d="M83.68 302L87.272 308.288C96.872 306.048 127.736 301.344 131.52 311.928C136.232 325.072 102.208 335.56 83.384 336.2C64.56 336.84 48.136 332.36 60.04 304.912L83.68 302Z" fill="black"/>
<path d="M126.072 330.511C126.05 330.525 126.025 330.532 126 330.532C125.975 330.532 125.95 330.525 125.928 330.511C125.917 330.493 125.911 330.473 125.911 330.451C125.911 330.43 125.917 330.409 125.928 330.391C125.992 330.183 126.616 328.375 127.248 328.183C127.314 328.167 127.384 328.168 127.45 328.186C127.515 328.205 127.575 328.239 127.624 328.287C127.711 328.361 127.777 328.455 127.816 328.562C127.856 328.668 127.867 328.783 127.848 328.895C127.745 329.235 127.538 329.535 127.256 329.751C126.889 330.045 126.492 330.299 126.072 330.511ZM126.232 330.167C126.82 329.912 127.295 329.451 127.568 328.871C127.586 328.796 127.581 328.717 127.554 328.644C127.527 328.572 127.479 328.509 127.416 328.463C127.398 328.441 127.374 328.425 127.347 328.416C127.32 328.408 127.291 328.407 127.264 328.415C127.211 328.435 127.162 328.465 127.12 328.503C126.725 328.999 126.424 329.563 126.232 330.167Z" fill="#263238"/>
<path d="M126.032 330.535C126.016 330.548 125.996 330.556 125.976 330.556C125.956 330.556 125.936 330.548 125.92 330.535C125.856 330.487 124.992 329.391 125.12 328.647C125.135 328.555 125.17 328.467 125.22 328.389C125.271 328.31 125.338 328.243 125.416 328.191C125.484 328.13 125.569 328.093 125.66 328.084C125.751 328.075 125.842 328.096 125.92 328.143C126.376 328.471 126.32 329.935 126.096 330.495V330.551L126.032 330.535ZM125.544 328.391C125.464 328.456 125.41 328.547 125.392 328.647C125.416 329.202 125.621 329.733 125.976 330.159C126.112 329.535 126.072 328.503 125.8 328.319C125.8 328.319 125.72 328.255 125.584 328.319V328.359L125.544 328.391Z" fill="#263238"/>
<path d="M92.976 333.6C92.9883 333.58 93.0062 333.564 93.0276 333.554C93.0489 333.544 93.0727 333.541 93.096 333.544C93.1175 333.546 93.1379 333.554 93.1539 333.569C93.1698 333.584 93.1805 333.603 93.184 333.624C93.232 333.84 93.56 335.728 93.104 336.2C93.0527 336.246 92.9901 336.278 92.9227 336.292C92.8553 336.306 92.7854 336.302 92.72 336.28C92.6074 336.262 92.5021 336.212 92.4159 336.137C92.3297 336.063 92.2661 335.965 92.232 335.856C92.1529 335.513 92.1895 335.153 92.336 334.832C92.5059 334.4 92.7204 333.988 92.976 333.6ZM92.976 333.984C92.5865 334.492 92.3908 335.121 92.424 335.76C92.446 335.837 92.4905 335.906 92.5518 335.957C92.6131 336.008 92.6884 336.04 92.768 336.048C92.7905 336.063 92.8169 336.071 92.844 336.071C92.8711 336.071 92.8975 336.063 92.92 336.048C92.956 336.006 92.9832 335.957 93 335.904C93.1199 335.27 93.1199 334.619 93 333.984H92.976Z" fill="#263238"/>
<path d="M105.296 324.074L97.552 326.834L93.832 328.162L94.784 332.234L98.384 331.466L107.184 329.586L105.296 324.074Z" fill="#EBB376"/>
<path d="M95.8 332.425L95.144 327.625C95.1352 327.562 95.1139 327.501 95.0812 327.446C95.0486 327.391 95.0053 327.343 94.9539 327.305C94.9024 327.267 94.8439 327.24 94.7818 327.224C94.7197 327.209 94.6551 327.207 94.592 327.217L92.192 327.617C92.192 327.617 88.992 327.913 88.328 328.745C86.456 331.145 87.624 341.817 88.872 342.193C89.328 342.329 89.808 341.705 90.008 341.273C90.64 339.897 91.752 336.305 92.296 335.169C92.92 333.833 94.696 333.185 95.432 332.953C95.5478 332.926 95.6496 332.857 95.7176 332.76C95.7856 332.662 95.815 332.543 95.8 332.425Z" fill="#106FA4"/>
<path d="M92.992 333.601C93.0095 333.589 93.0305 333.582 93.052 333.582C93.0735 333.582 93.0944 333.589 93.112 333.601C93.184 333.601 94.48 334.161 94.712 334.873C94.7402 334.962 94.7505 335.057 94.7422 335.15C94.734 335.243 94.7074 335.334 94.664 335.417C94.6385 335.506 94.5831 335.583 94.5073 335.635C94.4315 335.688 94.3399 335.712 94.248 335.705C93.696 335.641 93.032 334.329 92.96 333.737V333.601C92.9705 333.599 92.9814 333.599 92.992 333.601ZM94.464 335.241C94.4958 335.142 94.4958 335.036 94.464 334.937C94.312 334.481 93.592 334.081 93.224 333.897C93.4 334.513 93.936 335.393 94.264 335.425C94.264 335.425 94.36 335.425 94.432 335.289V335.241H94.464Z" fill="#263238"/>
<path opacity="0.2" d="M105.296 324.074L97.552 326.834L98.384 331.466L107.184 329.586L105.296 324.074Z" fill="black"/>
<path d="M99.76 332.16L101.984 332.32L100.496 324.656L97.968 326.048L99.76 332.16Z" fill="#106FA4"/>
<path opacity="0.6" d="M99.76 332.16L101.984 332.32L100.496 324.656L97.968 326.048L99.76 332.16Z" fill="white"/>
<path opacity="0.2" d="M67.448 302.402L79.048 315.266C79.048 315.266 91.848 314.978 107.448 322.594C107.448 322.594 124.16 315.69 125.696 309.954C127.712 302.442 87.296 308.314 87.296 308.314L67.448 302.402Z" fill="black"/>
<path d="M83.56 307.543L59.904 304.799C60.3571 302.357 60.6245 299.883 60.704 297.399C60.7988 293.861 60.6598 290.32 60.288 286.799C59.96 283.431 59.488 279.559 58.688 275.015C58.528 274.203 58.5518 273.365 58.7576 272.563C58.9635 271.76 59.3462 271.014 59.8778 270.379C60.4094 269.744 61.0763 269.236 61.8297 268.892C62.5831 268.548 63.4039 268.377 64.232 268.391C65.184 268.391 66.184 268.439 67.208 268.503C70.8306 268.666 74.437 269.085 78 269.759C79.152 269.991 80.344 270.279 81.488 270.559C85.592 271.623 88.136 276.791 87.784 280.959C87.6456 284.199 87.2874 287.425 86.712 290.615C85.984 295.319 85.128 299.911 83.56 307.543Z" fill="#106FA4"/>
<path opacity="0.7" d="M83.56 307.543L59.904 304.799C60.3571 302.357 60.6245 299.883 60.704 297.399C60.7988 293.861 60.6598 290.32 60.288 286.799C59.96 283.431 59.488 279.559 58.688 275.015C58.528 274.203 58.5518 273.365 58.7576 272.563C58.9635 271.76 59.3462 271.014 59.8778 270.379C60.4094 269.744 61.0763 269.236 61.8297 268.892C62.5831 268.548 63.4039 268.377 64.232 268.391C65.184 268.391 66.184 268.439 67.208 268.503C70.8306 268.666 74.437 269.085 78 269.759C79.152 269.991 80.344 270.279 81.488 270.559C85.592 271.623 88.136 276.791 87.784 280.959C87.6456 284.199 87.2874 287.425 86.712 290.615C85.984 295.319 85.128 299.911 83.56 307.543Z" fill="white"/>
<path opacity="0.2" d="M60.72 297.41C60.8148 293.872 60.6758 290.33 60.304 286.81C63.264 283.314 66.064 280.41 66.064 280.41C66.064 280.41 70.704 292.354 60.72 297.41Z" fill="black"/>
<path d="M64.456 279.114C64.728 284.178 64.68 292.058 65.6 296.898L65.36 296.306C65.2 296.074 65.296 296.306 65.464 296.434C65.6804 296.648 65.9102 296.849 66.152 297.034C69.352 299.434 73.192 301.282 76.8 303.194L81.352 305.538C81.7466 305.736 82.0547 306.072 82.2178 306.482C82.3808 306.892 82.3874 307.348 82.2363 307.763C82.0852 308.178 81.787 308.523 81.3982 308.732C81.0095 308.941 80.5575 309 80.128 308.898C78.392 308.482 76.728 307.986 75.04 307.474C70.24 305.874 65.312 304.338 61.184 301.21C60.3778 300.584 59.7513 299.756 59.368 298.81C57.52 292.25 57.376 285.914 57.24 279.226C57.408 274.562 64.16 274.474 64.44 279.138L64.456 279.114Z" fill="#E9B376"/>
<path d="M87.736 305.247L86.296 304.199C86.0292 304.006 85.7199 303.88 85.3941 303.831C85.0684 303.782 84.7356 303.813 84.424 303.919L81.464 304.911C80.8805 305.109 80.3526 305.443 79.9241 305.885C79.4955 306.328 79.1787 306.866 79 307.455L78.776 308.199C81.048 310.087 84.896 310.463 84.896 310.463L85.976 310.687C86.1972 310.741 86.4268 310.75 86.6515 310.714C86.8762 310.678 87.0915 310.598 87.2849 310.478C87.4784 310.358 87.6462 310.201 87.7785 310.016C87.9109 309.831 88.0052 309.621 88.056 309.399L88.536 307.255C88.6131 306.879 88.5785 306.489 88.4364 306.132C88.2942 305.775 88.0507 305.468 87.736 305.247Z" fill="#EBB376"/>
<path d="M62.296 268.719C57.672 270.375 56.344 274.407 56.248 282.815C58.648 284.999 65.936 285.119 65.936 285.119C65.936 285.119 67.2 272.367 62.296 268.719Z" fill="#106FA4"/>
<path d="M118.312 309.879V311.783C118.312 312.271 117.736 312.471 117.248 312.471H79.2C78.704 312.471 78.12 312.271 78.12 311.783V309.879H118.312Z" fill="#263238"/>
<path opacity="0.4" d="M118.312 309.879V311.783C118.312 312.271 117.736 312.471 117.248 312.471H79.2C78.704 312.471 78.12 312.271 78.12 311.783V309.879H118.312Z" fill="white"/>
<path opacity="0.2" d="M118.312 309.879V311.783C118.312 312.271 117.736 312.471 117.248 312.471H92.128C91.64 312.471 91.056 312.271 91.056 311.783V309.879H118.312Z" fill="black"/>
<path d="M124.688 290.09L120.152 310.658C120.068 310.987 119.879 311.279 119.613 311.49C119.347 311.701 119.019 311.819 118.68 311.826H93.88C93.7257 311.822 93.5744 311.782 93.438 311.71C93.3016 311.637 93.1839 311.534 93.094 311.409C93.0041 311.283 92.9445 311.138 92.9199 310.986C92.8952 310.834 92.9062 310.677 92.952 310.53L97.48 290.122C97.5725 289.811 97.7693 289.541 98.0373 289.357C98.3053 289.174 98.6282 289.088 98.952 289.114H123.752C124.416 289.114 124.8 289.418 124.688 290.09Z" fill="#263238"/>
<path opacity="0.4" d="M124.688 290.09L120.152 310.658C120.068 310.987 119.879 311.279 119.613 311.49C119.347 311.701 119.019 311.819 118.68 311.826H94.744C94.5896 311.821 94.4382 311.781 94.3017 311.709C94.1652 311.637 94.0472 311.534 93.9567 311.409C93.8662 311.283 93.8058 311.139 93.78 310.987C93.7542 310.834 93.7638 310.678 93.808 310.53L98.344 290.122C98.4365 289.811 98.6333 289.541 98.9013 289.357C99.1693 289.174 99.4923 289.088 99.816 289.114H123.752C124.416 289.114 124.8 289.418 124.688 290.09Z" fill="white"/>
<path opacity="0.2" d="M112.472 300.536C112.393 301.37 112.021 302.149 111.422 302.735C110.823 303.321 110.036 303.675 109.2 303.736C107.816 303.736 106.992 302.304 107.392 300.536C107.792 298.768 109.16 297.4 110.512 297.336C110.12 299.096 110.968 300.536 112.344 300.536H112.472Z" fill="black"/>
<path d="M116.4 278.623L121.728 278.759L119.328 273.367C119.328 273.367 114.576 273.535 114.76 275.983L116.4 278.623Z" fill="#EBB376"/>
<path d="M126.296 276.135L122.648 272.199L119.312 273.367L121.728 278.759L126.296 276.135Z" fill="#EBB376"/>
<path d="M66.04 268.449C65.496 268.409 67.16 275.089 75.24 276.737C83.32 278.385 82.696 270.953 82.064 269.089C82.064 269.089 71.44 268.801 66.04 268.449Z" fill="#EBB376"/>
<path d="M68.256 242.329C68.256 242.329 72.888 237.192 81.36 239.84C89.832 242.488 89.472 257.608 85.168 263.096C78.4275 262.86 71.6844 263.489 65.104 264.968C65.104 264.968 61.024 254.001 63.048 247.553C65.072 241.105 68.256 242.329 68.256 242.329Z" fill="#263238"/>
<path d="M69.96 257.41C70.496 260.978 70.912 267.442 68.36 269.49C68.36 269.49 71.688 269.378 78.144 274.482C80.488 271.826 79.104 270.73 79.104 270.73C75.288 269.362 75.504 266.482 76.28 263.85L69.96 257.41Z" fill="#EBB376"/>
<path opacity="0.2" d="M72.552 260.039L76.32 263.847C76.1299 264.463 75.9934 265.095 75.912 265.735C74.448 265.351 72.488 263.487 72.4 261.911C72.3379 261.283 72.3894 260.649 72.552 260.039Z" fill="black"/>
<path d="M67.808 250.129C68.208 255.833 68.264 258.249 71.136 261.329C75.464 265.905 82.336 264.529 83.576 258.929C84.736 253.873 83.88 245.393 78.344 242.889C77.1763 242.311 75.8754 242.055 74.5757 242.147C73.276 242.24 72.0246 242.678 70.9507 243.416C69.8769 244.154 69.0194 245.165 68.4669 246.345C67.9145 247.525 67.687 248.831 67.808 250.129Z" fill="#EBB376"/>
<path d="M74.832 251.879C74.832 252.367 75.096 252.759 75.408 252.775C75.72 252.791 75.944 252.407 75.936 251.927C75.928 251.447 75.664 251.047 75.36 251.039C75.056 251.031 74.816 251.399 74.832 251.879Z" fill="#263238"/>
<path d="M80.8 251.946C80.8 252.426 81.072 252.826 81.376 252.842C81.68 252.858 81.912 252.474 81.904 251.994C81.896 251.514 81.632 251.114 81.328 251.106C81.024 251.098 80.8 251.466 80.8 251.946Z" fill="#263238"/>
<path d="M81.168 251.12L82.28 250.832C82.28 250.832 81.728 251.712 81.168 251.12Z" fill="#263238"/>
<path d="M78.992 252.93C79.4394 254.044 80.0253 255.098 80.736 256.066C80.4964 256.229 80.223 256.336 79.9363 256.379C79.6496 256.422 79.3569 256.4 79.08 256.314L78.992 252.93Z" fill="#D58745"/>
<path d="M73.872 248.839C73.908 248.845 73.9449 248.842 73.9797 248.831C74.0144 248.82 74.0461 248.801 74.072 248.775C74.3217 248.544 74.6253 248.379 74.955 248.295C75.2848 248.212 75.6302 248.212 75.96 248.295C75.9936 248.306 76.0291 248.31 76.0643 248.307C76.0994 248.303 76.1335 248.292 76.1643 248.275C76.1951 248.258 76.222 248.234 76.2433 248.206C76.2646 248.178 76.2798 248.146 76.288 248.111C76.3079 248.037 76.2982 247.958 76.2609 247.891C76.2236 247.824 76.1616 247.774 76.088 247.751C75.6705 247.639 75.2315 247.635 74.8118 247.739C74.3922 247.842 74.0055 248.05 73.688 248.343C73.6367 248.396 73.608 248.466 73.608 248.539C73.608 248.613 73.6367 248.683 73.688 248.735C73.7339 248.792 73.7997 248.829 73.872 248.839Z" fill="#263238"/>
<path d="M83.12 248.888C83.1844 248.913 83.2556 248.913 83.32 248.888C83.351 248.868 83.3778 248.843 83.3987 248.813C83.4197 248.783 83.4343 248.749 83.4418 248.713C83.4492 248.677 83.4494 248.64 83.4422 248.604C83.435 248.568 83.4207 248.534 83.4 248.504C83.1801 248.109 82.8724 247.771 82.5006 247.514C82.1288 247.257 81.703 247.09 81.256 247.024C81.2204 247.022 81.1847 247.027 81.1512 247.039C81.1177 247.052 81.0872 247.071 81.0616 247.096C81.0359 247.121 81.0158 247.151 81.0025 247.184C80.9891 247.217 80.9828 247.252 80.984 247.288C80.9853 247.363 81.0135 247.435 81.0634 247.491C81.1134 247.546 81.1817 247.582 81.256 247.592C81.6096 247.646 81.9459 247.781 82.2388 247.986C82.5316 248.192 82.7729 248.462 82.944 248.776C82.9645 248.805 82.9906 248.83 83.0208 248.849C83.051 248.869 83.0847 248.882 83.12 248.888Z" fill="#263238"/>
<path d="M75.2 251.057L76.312 250.777C76.312 250.777 75.784 251.649 75.2 251.057Z" fill="#263238"/>
<path d="M68.992 253.553C68.992 253.553 73.392 250.097 72.392 244.689C72.392 244.689 80.264 241.577 83.368 249.489C83.368 249.489 84.024 242.705 76.624 241.377C69.224 240.049 60.464 250.081 68.848 257.689L68.992 253.553Z" fill="#263238"/>
<path d="M65.992 254.735C66.2774 255.264 66.6647 255.732 67.1315 256.111C67.5983 256.49 68.1354 256.773 68.712 256.943C70.208 257.351 70.88 255.879 70.4 254.359C69.96 252.991 68.656 251.159 67.2 251.391C65.744 251.623 65.248 253.383 65.992 254.735Z" fill="#EBB376"/>
<path d="M84.232 252.849C84.196 252.848 84.161 252.837 84.1322 252.815C84.1034 252.793 84.0823 252.763 84.072 252.729C81.248 242.785 71.928 244.833 71.832 244.849C71.8115 244.853 71.7903 244.854 71.7696 244.851C71.7488 244.847 71.729 244.84 71.7111 244.828C71.6933 244.817 71.6779 244.803 71.6656 244.786C71.6534 244.769 71.6447 244.749 71.64 244.729C71.6353 244.708 71.6346 244.687 71.6381 244.666C71.6416 244.645 71.6491 244.626 71.6602 244.608C71.6714 244.59 71.6859 244.575 71.703 244.562C71.7202 244.55 71.7395 244.541 71.76 244.537C71.856 244.537 81.48 242.401 84.384 252.641C84.3901 252.661 84.392 252.683 84.3896 252.704C84.3872 252.725 84.3806 252.746 84.3702 252.764C84.3597 252.783 84.3457 252.799 84.3288 252.812C84.3119 252.826 84.2926 252.835 84.272 252.841L84.232 252.849Z" fill="#263238"/>
<path d="M79.36 257.97C79.0808 258.624 78.8508 259.298 78.672 259.986H78.296C76.608 259.802 75.896 259.186 75.592 258.506C75.4558 258.183 75.3982 257.832 75.424 257.482C75.4363 257.284 75.474 257.088 75.536 256.898C76.5313 257.475 77.6392 257.829 78.784 257.938C79.136 257.954 79.36 257.97 79.36 257.97Z" fill="#263238"/>
<path d="M78.784 257.903L78.568 258.487C76.968 258.319 75.872 257.983 75.424 257.447C75.4363 257.249 75.474 257.052 75.536 256.863C76.5313 257.439 77.6392 257.794 78.784 257.903Z" fill="white"/>
<path d="M78.296 259.953C76.608 259.769 75.896 259.153 75.592 258.473C76.2332 258.556 76.8555 258.748 77.432 259.041C77.8075 259.248 78.1093 259.567 78.296 259.953Z" fill="#DE5753"/>
<path d="M78.024 284.624C77.9986 284.625 77.9731 284.621 77.9495 284.611C77.926 284.602 77.9049 284.587 77.888 284.568C73.6372 280.01 70.432 274.58 68.496 268.656C68.4838 268.607 68.4912 268.555 68.5166 268.512C68.542 268.468 68.5835 268.437 68.632 268.424C68.6556 268.418 68.6802 268.416 68.7043 268.42C68.7285 268.424 68.7516 268.432 68.7724 268.445C68.7933 268.457 68.8114 268.474 68.8258 268.494C68.8401 268.513 68.8504 268.536 68.856 268.56C70.7403 274.321 73.8395 279.611 77.944 284.072C78.424 282.472 80.416 274.872 77.416 269.048C77.4013 269.004 77.4026 268.957 77.4197 268.915C77.4367 268.872 77.4683 268.837 77.5088 268.816C77.5493 268.795 77.5961 268.789 77.6407 268.799C77.6852 268.809 77.7247 268.835 77.752 268.872C81.184 275.536 78.232 284.408 78.2 284.496C78.1895 284.526 78.1716 284.554 78.1479 284.576C78.1242 284.599 78.0954 284.615 78.064 284.624H78.024Z" fill="#263238"/>
<path d="M78.272 284.289L78.88 285.089C78.9345 285.157 78.9643 285.242 78.9643 285.329C78.9643 285.416 78.9345 285.501 78.88 285.569L78.264 286.369C78.2272 286.413 78.1813 286.448 78.1295 286.472C78.0777 286.496 78.0212 286.509 77.964 286.509C77.9069 286.509 77.8504 286.496 77.7986 286.472C77.7467 286.448 77.7008 286.413 77.664 286.369L77.088 285.713C77.0374 285.646 77.01 285.565 77.01 285.481C77.01 285.397 77.0374 285.316 77.088 285.249L77.6 284.321C77.6335 284.263 77.681 284.214 77.7382 284.179C77.7954 284.145 77.8604 284.125 77.9273 284.122C77.9942 284.118 78.0608 284.132 78.121 284.161C78.1812 284.19 78.2332 284.234 78.272 284.289Z" fill="white"/>
<path opacity="0.7" d="M62.296 268.719C57.672 270.375 56.344 274.407 56.248 282.815C58.648 284.999 65.936 285.119 65.936 285.119C65.936 285.119 67.2 272.367 62.296 268.719Z" fill="white"/>
<path d="M110.672 332.888L118.784 334.224L122.68 334.864L123.816 330.84L120.296 329.768L111.688 327.152L110.672 332.888Z" fill="#EBB376"/>
<path d="M123.024 330.184L121.272 334.696C121.249 334.756 121.238 334.821 121.24 334.885C121.242 334.95 121.257 335.013 121.284 335.072C121.311 335.131 121.349 335.184 121.396 335.228C121.444 335.272 121.499 335.306 121.56 335.328L123.824 336.128C123.824 336.128 126.792 337.424 127.752 337.008C130.56 335.8 134.696 325.904 133.784 325.008C133.448 324.664 132.728 325.008 132.344 325.264C131.128 326.16 128.416 328.76 127.392 329.496C126.192 330.36 124.36 330.088 123.568 329.92C123.461 329.892 123.347 329.903 123.247 329.951C123.147 330 123.068 330.082 123.024 330.184Z" fill="#106FA4"/>
<path opacity="0.2" d="M110.672 332.888L118.784 334.224L120.296 329.768L111.688 327.152L110.672 332.888Z" fill="black"/>
<path d="M118.896 328.927C118.896 328.927 85.824 310.335 74.4 310.863C62.976 311.391 61.344 321.455 66.048 327.751C70.752 334.047 79.456 335.583 79.456 335.583C79.456 335.583 73.544 327.199 74.4 324.863C75.256 322.527 78.6 325.791 78.6 325.791C78.6 325.791 99.4 332.511 117.616 334.055L118.896 328.927Z" fill="#263238"/>
<path d="M119.432 328.416L117.56 327.16L115.152 334.544H118.04L119.432 328.416Z" fill="#106FA4"/>
<path opacity="0.6" d="M119.432 328.416L117.56 327.16L115.152 334.544H118.04L119.432 328.416Z" fill="white"/>
</svg>
