<svg width="450" height="300" viewBox="0 0 450 300" fill="none" xmlns="http://www.w3.org/2000/svg">
<path d="M354.858 40.0156C311.832 34.4116 287.4 58.2735 229.554 60.8715C172.104 56.4015 150.198 31.7355 106.656 35.9115C59.8081 40.3995 23.5201 101.444 33.8461 162.512C44.1721 223.58 108.162 257.714 140.874 257.504C167.022 257.336 190.116 246.704 219.93 244.148C249.42 247.676 271.362 259.058 297.444 260.09C330.078 261.386 397.536 229.418 414.252 168.8C430.968 108.182 401.154 46.0396 354.858 40.0156Z" fill="#F26800"/>
<path opacity="0.7" d="M354.858 40.0156C311.832 34.4116 287.4 58.2735 229.554 60.8715C172.104 56.4015 150.198 31.7355 106.656 35.9115C59.8081 40.3995 23.5201 101.444 33.8461 162.512C44.1721 223.58 108.162 257.714 140.874 257.504C167.022 257.336 190.116 246.704 219.93 244.148C249.42 247.676 271.362 259.058 297.444 260.09C330.078 261.386 397.536 229.418 414.252 168.8C430.968 108.182 401.154 46.0396 354.858 40.0156Z" fill="white"/>
<path d="M22.0801 271.734H441.75" stroke="#263238" stroke-linecap="round" stroke-linejoin="round"/>
<g opacity="0.15">
<path d="M122.328 47.7701C119.796 50.2601 112.302 52.9361 112.296 52.9361C112.29 52.9361 112.032 47.4581 112.062 47.1101C112.386 43.0781 115.386 35.4701 119.802 34.4321C122.982 33.6821 125.802 36.0641 126.228 39.1721C126.654 42.2801 124.488 45.6461 122.328 47.7701Z" fill="black"/>
<path d="M117.792 148.691C117.828 148.871 117.864 149.039 117.894 149.219L115.542 151.391C115.41 150.665 115.278 149.933 115.152 149.171C114.774 147.023 114.42 144.719 114.078 142.349C111.794 142.313 109.514 142.143 107.25 141.839C105.978 145.019 101.478 149.891 100.89 150.515C102.354 152.081 103.8 153.593 105.186 155.003C106.134 155.971 107.054 156.895 107.946 157.775L105.138 158.855L103.242 156.863C101.748 155.273 100.182 153.545 98.5856 151.763C97.8536 152.231 91.8476 156.047 88.5476 156.527C85.5476 156.959 81.6176 156.677 79.3436 154.421C77.0696 152.165 76.9436 148.517 79.4576 146.441C82.9556 143.555 90.8276 145.769 94.2356 147.953C94.4396 148.085 96.4676 149.723 97.7276 150.779C97.0796 150.047 96.4436 149.339 95.7896 148.577C94.4756 147.077 93.2156 145.541 91.8536 143.891L89.9396 141.413C89.2856 140.597 88.6976 139.649 88.0676 138.767C86.6396 136.685 85.3016 134.501 83.9996 132.275C82.6856 133.421 77.9456 137.411 75.0416 138.275C72.1376 139.139 68.2196 139.475 65.6276 137.591C63.0356 135.707 62.3576 132.119 64.5296 129.683C67.5296 126.299 75.6716 127.283 79.3676 128.939C79.6016 129.041 82.1216 130.517 83.4956 131.339C82.7216 129.995 81.9476 128.657 81.2096 127.271C79.0796 123.275 77.0516 119.159 75.0116 115.061C74.4116 113.807 73.7456 112.565 73.1096 111.317C72.6476 111.731 67.1096 116.597 63.8636 117.587C60.9716 118.469 57.0416 118.787 54.4556 116.903C51.8696 115.019 51.1796 111.431 53.3576 108.995C56.3576 105.611 64.4936 106.595 68.1956 108.251C68.4716 108.377 72.1016 110.507 72.9956 111.089C71.5976 108.347 70.1816 105.623 68.6756 102.995C66.6593 99.4375 64.4146 96.0143 61.9556 92.7471C61.7396 92.9391 55.9976 98.0451 52.6616 99.0591C49.7696 99.9411 45.8396 100.259 43.2476 98.3751C40.6556 96.4911 39.9776 92.9031 42.1556 90.4671C45.1556 87.0831 53.2916 88.0671 56.9936 89.7231C57.2816 89.8551 61.1936 92.1231 61.8596 92.6091C61.7156 92.4231 61.5896 92.2131 61.4396 92.0091C58.8851 88.7995 56.0477 85.8255 52.9616 83.1231C51.2816 81.6051 49.5836 80.2491 47.9096 78.9711C46.9316 80.0271 42.4376 84.8271 39.5396 86.0691C36.7556 87.2691 32.8856 88.0071 30.1076 86.4231C27.3296 84.8391 26.2556 81.3471 28.1456 78.6831C30.7796 74.9931 38.9456 75.0831 42.8156 76.3191C43.0256 76.3851 45.0836 77.2971 46.5716 77.9811C45.8036 77.4171 45.0236 76.8171 44.2796 76.2891C41.4896 74.2971 38.8076 72.6531 36.4256 71.2071C35.0636 70.3971 33.8156 69.6951 32.6396 69.0471C31.1396 69.5871 25.0796 71.6991 21.9896 71.4471C18.8996 71.1951 15.1916 70.1991 13.4576 67.4931C11.7236 64.7871 12.3776 61.1991 15.2876 59.7231C19.3196 57.6591 26.5316 61.5231 29.3936 64.3791C29.6396 64.6311 33.0596 68.9451 32.9936 68.9751L32.9036 69.0051C34.0496 69.6051 35.2676 70.2651 36.5816 71.0091C38.9816 72.4011 41.7296 74.0091 44.5736 75.9351C47.6601 77.9871 50.6233 80.219 53.4476 82.6191C56.6306 85.2894 59.5683 88.2392 62.2256 91.4331C62.2589 91.4705 62.289 91.5106 62.3156 91.5531C61.8176 90.3171 60.5156 86.8251 60.4796 86.5491C59.5316 82.6131 60.0116 74.4471 63.8816 72.0831C66.6716 70.3851 70.1096 71.7591 71.4656 74.5851C72.8216 77.4111 71.8316 81.2811 70.4396 83.9691C68.8796 86.9991 63.0716 91.5771 62.6096 91.9431C65.2385 95.2575 67.6438 98.7432 69.8096 102.377C71.0756 104.489 72.2936 106.655 73.4816 108.839C73.0856 107.759 72.7436 106.793 72.7076 106.655C71.7596 102.719 72.2396 94.5531 76.1096 92.1951C78.8996 90.4911 82.3376 91.8711 83.6936 94.6911C85.0496 97.5111 84.0596 101.387 82.6736 104.075C81.2876 106.763 76.3916 110.807 75.0896 111.845C75.5336 112.691 75.9956 113.525 76.4396 114.371C78.5696 118.427 80.6816 122.483 82.8776 126.371C83.6456 127.751 84.4616 129.077 85.2776 130.415C84.9296 129.455 84.6416 128.645 84.6116 128.519C83.6636 124.583 84.1436 116.417 88.0136 114.053C90.7976 112.355 94.2416 113.729 95.5976 116.555C96.9536 119.381 95.9576 123.251 94.5716 125.939C93.1856 128.627 88.7636 132.275 87.2216 133.523C88.0916 134.861 88.9556 136.205 89.8556 137.471C90.4916 138.317 91.0556 139.175 91.7276 139.991L93.6956 142.433C94.9976 143.933 96.3356 145.499 97.6436 146.933C98.5496 147.941 99.4436 148.877 100.314 149.831C99.5276 148.469 98.0456 145.763 97.9496 145.523C96.7215 142.179 96.3723 138.576 96.9356 135.059C96.7843 134.692 96.6659 134.313 96.5816 133.925C95.9396 130.859 97.8356 127.673 101.082 127.325C105.594 126.845 110.934 133.037 112.572 136.739C112.674 136.955 113.454 139.445 113.922 141.017C113.79 140.051 113.646 139.109 113.52 138.113C113.256 136.139 113.052 134.159 112.824 132.035C112.752 131.003 112.674 129.959 112.602 128.909C112.53 127.859 112.536 126.755 112.494 125.669C112.458 123.149 112.542 120.587 112.686 118.013C110.958 118.241 104.802 118.955 101.886 118.091C98.9696 117.227 95.5376 115.325 94.4096 112.325C93.2816 109.325 94.7036 105.959 97.8596 105.125C102.246 103.973 108.468 109.283 110.646 112.691C110.784 112.907 112.074 115.529 112.752 116.981C112.854 115.433 112.944 113.891 113.094 112.331C113.52 107.819 114.096 103.271 114.654 98.7291C114.828 97.3371 114.978 95.9451 115.14 94.5291C114.54 94.6131 107.232 95.6211 103.968 94.6551C101.07 93.7911 97.6196 91.8891 96.4976 88.8891C95.3756 85.8891 96.7856 82.5231 99.9476 81.6891C104.328 80.5371 110.55 85.8471 112.728 89.2551C112.896 89.5131 114.744 93.2931 115.17 94.2711C115.518 91.2171 115.836 88.1631 116.028 85.1391C116.312 81.0606 116.33 76.9679 116.082 72.8871C115.794 72.9231 108.186 74.0151 104.844 73.0191C101.946 72.1611 98.4956 70.2531 97.3736 67.2591C96.2516 64.2651 97.6616 60.8871 100.824 60.0591C105.204 58.9011 111.426 64.2111 113.604 67.6191C113.778 67.8891 115.764 71.9571 116.076 72.7191C116.076 72.4791 116.076 72.2331 116.076 71.9991C115.689 67.9421 114.948 63.9268 113.862 59.9991C113.262 57.8031 112.626 55.7391 111.936 53.7471C110.538 54.0951 104.136 55.6131 101.034 55.0491C98.0336 54.5151 94.4336 53.0031 92.9756 50.1471C91.5176 47.2911 92.5616 43.7811 95.6096 42.6111C99.8396 40.9791 106.608 45.5751 109.152 48.7251C109.29 48.8931 110.502 50.7951 111.366 52.1871C111.036 51.2931 110.718 50.3871 110.388 49.5111C109.188 46.3131 107.832 43.4571 106.638 40.9371C105.948 39.5091 105.294 38.2371 104.67 37.0491C103.122 36.6711 96.9056 35.0871 94.4696 33.1971C92.0336 31.3071 89.5436 28.3251 89.5796 25.1271C89.6156 21.9291 92.1476 19.2891 95.3936 19.6551C99.8996 20.1591 103.794 27.3531 104.592 31.3191C104.658 31.6611 105.126 37.1511 105.048 37.1331H104.958C105.558 38.2611 106.23 39.4851 106.92 40.8291C108.168 43.3251 109.56 46.1631 110.868 49.3491C112.309 52.7513 113.555 56.233 114.6 59.7771C115.778 63.7604 116.602 67.8404 117.06 71.9691C117.057 72.019 117.057 72.0691 117.06 72.1191C117.324 70.8171 118.188 67.2051 118.29 66.9351C119.67 63.1251 124.572 56.5851 129.09 56.7351C132.354 56.8551 134.49 59.9031 134.034 63.0051C133.578 66.1071 130.644 68.7891 128.034 70.2651C125.034 71.9331 117.684 72.5451 117.102 72.5931C117.46 76.8072 117.538 81.0406 117.336 85.2651C117.234 87.7251 117.048 90.2031 116.838 92.6811C117.102 91.5651 117.348 90.5691 117.396 90.4311C118.776 86.6271 123.684 80.0811 128.196 80.2311C131.46 80.3451 133.596 83.3931 133.14 86.4951C132.684 89.5971 129.75 92.2851 127.14 93.7611C124.53 95.2371 118.194 95.9091 116.532 96.0591C116.436 97.0071 116.358 97.9611 116.262 98.9091C115.806 103.469 115.326 108.017 114.996 112.493C114.882 114.065 114.822 115.625 114.762 117.185C114.996 116.189 115.206 115.355 115.248 115.235C116.628 111.425 121.536 104.885 126.048 105.035C129.312 105.155 131.448 108.203 130.992 111.305C130.536 114.407 127.602 117.089 124.962 118.565C122.322 120.041 116.622 120.647 114.648 120.833C114.648 122.435 114.612 124.031 114.648 125.579C114.708 126.641 114.696 127.661 114.816 128.717C114.936 129.773 115.014 130.805 115.11 131.837C115.368 133.811 115.62 135.851 115.92 137.771C116.118 139.109 116.334 140.381 116.52 141.659C116.622 140.087 116.874 137.015 116.928 136.763C117.714 132.791 121.572 125.585 126.072 125.057C129.318 124.679 131.862 127.373 131.91 130.505C131.958 133.637 129.438 136.739 127.056 138.599C124.428 140.645 117.528 142.331 116.664 142.535C117.042 144.695 117.414 146.753 117.792 148.691Z" fill="black"/>
<path d="M47.7776 78.1687C47.7296 78.2347 44.5316 73.7467 44.3636 73.4407C42.4136 69.8947 40.7216 61.8967 43.8296 58.5967C46.0676 56.1967 49.7456 56.6407 51.8036 59.0047C53.8616 61.3687 53.9216 65.3647 53.2916 68.3227C52.5536 71.7967 47.7776 78.1627 47.7776 78.1687Z" fill="black"/>
</g>
<g opacity="0.15">
<path d="M292.122 63.5279C294.654 66.0179 302.148 68.6939 302.154 68.6939C302.16 68.6939 302.418 63.2159 302.388 62.8679C302.064 58.8359 299.064 51.2279 294.648 50.1899C291.468 49.4399 288.648 51.8219 288.228 54.9299C287.808 58.0379 289.968 61.4039 292.122 63.5279Z" fill="black"/>
<path d="M296.658 164.447C296.622 164.627 296.592 164.795 296.556 164.975L298.914 167.147C299.04 166.421 299.172 165.689 299.304 164.927C299.676 162.779 300.03 160.475 300.372 158.105C302.658 158.069 304.94 157.899 307.206 157.595C308.472 160.775 312.978 165.647 313.56 166.271C312.096 167.837 310.65 169.349 309.27 170.753C308.316 171.725 307.398 172.649 306.504 173.531L309.312 174.605C309.912 173.963 310.56 173.303 311.208 172.619C312.702 171.029 314.268 169.301 315.864 167.519C316.596 167.987 322.608 171.803 325.908 172.283C328.908 172.715 332.832 172.433 335.106 170.177C337.38 167.921 337.506 164.273 334.992 162.197C331.494 159.311 323.592 161.525 320.214 163.709C320.01 163.835 317.988 165.479 316.722 166.535C317.37 165.803 318.006 165.095 318.666 164.333C319.974 162.833 321.234 161.297 322.596 159.647L324.51 157.169C325.164 156.353 325.752 155.405 326.388 154.523C327.81 152.441 329.148 150.257 330.45 148.031C331.77 149.177 336.504 153.167 339.408 154.031C342.312 154.895 346.23 155.231 348.822 153.347C351.414 151.463 352.092 147.875 349.92 145.439C346.92 142.055 338.784 143.039 335.082 144.695C334.848 144.797 332.328 146.273 330.954 147.095C331.728 145.751 332.508 144.413 333.24 143.027C335.37 139.025 337.398 134.915 339.444 130.817C340.044 129.563 340.704 128.321 341.34 127.073C341.802 127.487 347.34 132.353 350.586 133.343C353.478 134.219 357.408 134.543 359.994 132.659C362.58 130.775 363.27 127.187 361.092 124.751C358.092 121.367 349.956 122.351 346.254 124.007C345.978 124.127 342.348 126.257 341.454 126.845C342.852 124.103 344.268 121.379 345.774 118.751C347.79 115.194 350.035 111.771 352.494 108.503C352.71 108.695 358.452 113.801 361.788 114.815C364.68 115.691 368.61 116.015 371.202 114.131C373.794 112.247 374.472 108.659 372.294 106.223C369.294 102.839 361.158 103.823 357.456 105.479C357.168 105.605 353.256 107.879 352.59 108.365C352.734 108.179 352.86 107.969 353.01 107.765C355.564 104.556 358.402 101.582 361.488 98.8794C363.168 97.3614 364.866 96.0054 366.546 94.7274C367.518 95.7834 372.012 100.583 374.946 101.825C377.724 103.025 381.594 103.763 384.372 102.179C387.15 100.595 388.23 97.0974 386.334 94.4394C383.7 90.7494 375.534 90.8394 371.664 92.0754C371.454 92.1414 369.402 93.0534 367.908 93.7374C368.676 93.1734 369.456 92.5734 370.2 92.0454C372.99 90.0534 375.672 88.4034 378.054 86.9634C379.422 86.1534 380.664 85.4514 381.84 84.8034C383.34 85.3434 389.4 87.4554 392.49 87.2034C395.58 86.9514 399.288 85.8594 401.022 83.1714C402.756 80.4834 402.102 76.8894 399.192 75.3714C395.16 73.3074 387.948 77.1714 385.086 80.0274C384.84 80.2734 381.42 84.5934 381.486 84.6234L381.576 84.6534C380.43 85.2534 379.212 85.9134 377.898 86.6574C375.498 88.0494 372.756 89.6574 369.906 91.5834C366.807 93.6786 363.834 95.9546 361.002 98.3994C357.812 101.061 354.866 104.003 352.2 107.189L352.11 107.303C352.608 106.073 353.91 102.581 353.946 102.305C354.894 98.3694 354.414 90.2034 350.544 87.8394C347.76 86.1414 344.316 87.5154 342.96 90.3414C341.604 93.1674 342.6 97.0374 343.986 99.7254C345.546 102.725 351.354 107.333 351.786 107.699C349.155 111.012 346.75 114.498 344.586 118.133C343.314 120.245 342.096 122.411 340.908 124.595C341.304 123.515 341.646 122.549 341.682 122.411C342.63 118.475 342.15 110.309 338.28 107.945C335.49 106.247 332.052 107.621 330.696 110.447C329.34 113.273 330.33 117.143 331.716 119.831C333.102 122.519 337.998 126.563 339.3 127.601C338.856 128.447 338.4 129.281 337.95 130.127C335.82 134.183 333.708 138.239 331.512 142.157C330.744 143.537 329.928 144.863 329.112 146.201C329.46 145.241 329.748 144.431 329.778 144.305C330.726 140.363 330.246 132.203 326.382 129.839C323.592 128.141 320.148 129.515 318.798 132.341C317.448 135.167 318.432 139.037 319.818 141.725C321.204 144.413 325.626 148.061 327.168 149.309C326.298 150.647 325.434 151.991 324.534 153.257C323.898 154.103 323.334 154.961 322.662 155.777L320.7 158.213C319.392 159.719 318.054 161.279 316.746 162.719C315.84 163.727 314.946 164.663 314.076 165.617C314.862 164.249 316.344 161.549 316.44 161.309C317.668 157.966 318.017 154.363 317.454 150.845C317.605 150.479 317.724 150.099 317.808 149.711C318.45 146.645 316.554 143.459 313.308 143.111C308.796 142.637 303.456 148.829 301.818 152.531C301.722 152.747 300.936 155.237 300.468 156.809C300.6 155.843 300.744 154.901 300.87 153.905C301.134 151.931 301.338 149.951 301.566 147.827C301.638 146.795 301.716 145.751 301.788 144.701C301.86 143.651 301.86 142.547 301.896 141.461C301.932 138.941 301.848 136.379 301.704 133.805C303.438 134.033 309.588 134.747 312.504 133.883C315.42 133.019 318.858 131.117 319.98 128.117C321.102 125.117 319.686 121.751 316.53 120.917C312.144 119.765 305.922 125.075 303.744 128.483C303.606 128.699 302.316 131.321 301.638 132.773C301.542 131.225 301.452 129.683 301.302 128.123C300.87 123.611 300.294 119.063 299.736 114.515C299.562 113.129 299.412 111.737 299.25 110.351C299.85 110.435 307.158 111.443 310.422 110.477C313.32 109.613 316.77 107.711 317.892 104.711C319.014 101.711 317.604 98.3454 314.448 97.5114C310.062 96.3594 303.84 101.669 301.662 105.077C301.494 105.335 299.646 109.109 299.22 110.093C298.872 107.039 298.554 103.985 298.362 100.961C298.077 96.8829 298.059 92.7902 298.308 88.7094C298.596 88.7454 306.204 89.8374 309.546 88.8414C312.444 87.9774 315.894 86.0754 317.016 83.0814C318.138 80.0874 316.728 76.7094 313.572 75.8814C309.186 74.7294 302.964 80.0394 300.786 83.4474C300.612 83.7174 298.626 87.7854 298.32 88.5474C298.32 88.3074 298.32 88.0614 298.32 87.8274C298.719 83.7357 299.482 79.6877 300.6 75.7314C301.17 73.5354 301.836 71.4714 302.526 69.4794C303.924 69.8274 310.326 71.3454 313.428 70.7814C316.428 70.2474 320.028 68.7294 321.492 65.8794C322.956 63.0294 321.9 59.5134 318.852 58.3374C314.652 56.7114 307.854 61.3374 305.316 64.4574C305.178 64.6254 303.96 66.5274 303.102 67.9194C303.426 67.0254 303.744 66.1194 304.074 65.2434C305.304 62.0454 306.63 59.1894 307.824 56.6694C308.514 55.2414 309.168 53.9634 309.792 52.7814C311.34 52.4034 317.556 50.8194 319.992 48.9294C322.428 47.0394 324.918 44.0574 324.882 40.8594C324.846 37.6614 322.32 35.0214 319.08 35.3994C314.574 35.9034 310.68 43.0974 309.882 47.0634C309.81 47.4054 309.342 52.8954 309.42 52.8774H309.516C308.916 54.0054 308.238 55.2294 307.548 56.5734C306.3 59.0694 304.908 61.9074 303.606 65.0934C302.16 68.5094 300.916 72.0074 299.88 75.5694C298.695 79.5513 297.872 83.6318 297.42 87.7614C297.42 87.8094 297.42 87.8634 297.42 87.9114C297.156 86.6094 296.292 82.9974 296.19 82.7274C294.81 78.9174 289.908 72.3774 285.39 72.5274C282.126 72.6474 279.99 75.6954 280.446 78.7974C280.902 81.8994 283.836 84.5814 286.446 86.0574C289.446 87.7254 296.796 88.3374 297.384 88.3854C297.02 92.5993 296.94 96.8328 297.144 101.057C297.246 103.517 297.432 105.995 297.642 108.473C297.378 107.357 297.132 106.361 297.084 106.223C295.704 102.419 290.796 95.8734 286.284 96.0234C283.02 96.1374 280.914 99.1854 281.34 102.287C281.766 105.389 284.73 108.077 287.37 109.553C290.01 111.029 296.316 111.701 297.984 111.851C298.074 112.799 298.152 113.747 298.248 114.701C298.71 119.261 299.184 123.809 299.514 128.285C299.628 129.857 299.688 131.417 299.754 132.977C299.514 131.981 299.304 131.147 299.262 131.027C297.882 127.217 292.98 120.677 288.462 120.827C285.198 120.947 283.092 123.995 283.518 127.097C283.944 130.199 286.908 132.881 289.518 134.357C292.128 135.833 297.858 136.439 299.832 136.625C299.832 138.227 299.868 139.823 299.832 141.371C299.766 142.433 299.784 143.453 299.658 144.509C299.532 145.565 299.466 146.597 299.37 147.629C299.112 149.603 298.854 151.643 298.554 153.563C298.356 154.901 298.14 156.173 297.954 157.451C297.858 155.879 297.6 152.807 297.546 152.555C296.76 148.583 292.902 141.377 288.402 140.849C285.156 140.471 282.612 143.165 282.564 146.297C282.516 149.429 285.036 152.531 287.424 154.385C290.046 156.437 296.946 158.123 297.81 158.327C297.408 160.451 297.036 162.509 296.658 164.447Z" fill="black"/>
<path d="M366.672 93.9226C366.726 93.9886 369.918 89.5006 370.086 89.1946C372.042 85.6486 373.734 77.6506 370.626 74.3506C368.382 71.9506 364.704 72.3946 362.652 74.7586C360.6 77.1226 360.528 81.1186 361.158 84.0766C361.896 87.5506 366.672 93.9166 366.672 93.9226Z" fill="black"/>
</g>
<path d="M297.114 258.755V236.603C297.116 233.162 298.483 229.861 300.917 227.428C303.35 224.994 306.651 223.627 310.092 223.625H187.728C184.286 223.625 180.985 224.992 178.551 227.426C176.117 229.86 174.75 233.161 174.75 236.603V258.755C174.749 260.46 175.084 262.147 175.736 263.722C176.388 265.297 177.344 266.728 178.549 267.934C179.755 269.139 181.186 270.095 182.761 270.747C184.336 271.399 186.023 271.734 187.728 271.733H310.092C306.65 271.733 303.349 270.366 300.915 267.932C298.481 265.498 297.114 262.197 297.114 258.755Z" fill="#263238" stroke="#263238" stroke-linecap="round" stroke-linejoin="round"/>
<path d="M419.057 225.383L420.515 224.423C420.591 224.37 420.649 224.295 420.679 224.208C420.71 224.12 420.712 224.025 420.685 223.937C420.659 223.848 420.605 223.77 420.531 223.714C420.457 223.658 420.368 223.627 420.275 223.625H310.091C306.65 223.627 303.35 224.994 300.916 227.428C298.483 229.861 297.115 233.162 297.113 236.603V258.755C297.113 262.197 298.481 265.498 300.914 267.932C303.348 270.366 306.649 271.733 310.091 271.733H420.275C420.37 271.735 420.463 271.707 420.539 271.651C420.616 271.595 420.672 271.516 420.7 271.426C420.727 271.335 420.724 271.238 420.69 271.149C420.657 271.06 420.596 270.985 420.515 270.935L419.057 269.975V225.383Z" fill="#949494" stroke="#263238" stroke-linecap="round" stroke-linejoin="round"/>
<path d="M316.584 225.383H419.058V269.999H316.584C312.058 269.999 307.718 268.201 304.517 265.001C301.317 261.801 299.52 257.46 299.52 252.935V242.447C299.52 237.921 301.317 233.581 304.517 230.381C307.718 227.181 312.058 225.383 316.584 225.383Z" fill="white" stroke="#263238" stroke-linecap="round" stroke-linejoin="round"/>
<path d="M303.258 233.59H346.248" stroke="#263238" stroke-linecap="round" stroke-linejoin="round"/>
<path d="M334.962 237.672H375.072" stroke="#263238" stroke-linecap="round" stroke-linejoin="round"/>
<path d="M359.219 242.719H320.789" stroke="#263238" stroke-linecap="round" stroke-linejoin="round"/>
<path d="M304.218 258.09H329.436" stroke="#263238" stroke-linecap="round" stroke-linejoin="round"/>
<path d="M322.955 261.688H360.659" stroke="#263238" stroke-linecap="round" stroke-linejoin="round"/>
<path d="M318.39 265.055H328.476" stroke="#263238" stroke-linecap="round" stroke-linejoin="round"/>
<path d="M346.733 254.73H410.855" stroke="#263238" stroke-linecap="round" stroke-linejoin="round"/>
<path d="M418.302 244.398H405.096" stroke="#263238" stroke-linecap="round" stroke-linejoin="round"/>
<path d="M416.141 241.039H402.689" stroke="#263238" stroke-linecap="round" stroke-linejoin="round"/>
<path d="M416.142 262.656H382.518" stroke="#263238" stroke-linecap="round" stroke-linejoin="round"/>
<path d="M291.342 210.419V188.267C291.341 186.563 291.676 184.875 292.328 183.3C292.98 181.725 293.936 180.294 295.141 179.088C296.346 177.883 297.777 176.927 299.352 176.275C300.927 175.623 302.615 175.288 304.32 175.289H181.95C180.246 175.289 178.558 175.625 176.984 176.277C175.41 176.929 173.979 177.885 172.775 179.091C171.57 180.296 170.615 181.727 169.963 183.301C169.312 184.876 168.977 186.563 168.978 188.267V210.419C168.978 213.86 170.344 217.16 172.777 219.594C175.209 222.027 178.509 223.395 181.95 223.397H304.35C302.643 223.401 300.952 223.068 299.374 222.418C297.796 221.767 296.362 220.812 295.153 219.607C293.945 218.401 292.986 216.969 292.332 215.392C291.678 213.816 291.342 212.126 291.342 210.419Z" fill="#8C8C8C" stroke="#263238" stroke-linecap="round" stroke-linejoin="round"/>
<path d="M413.28 177.047L414.744 176.087C414.824 176.037 414.886 175.962 414.919 175.873C414.952 175.784 414.955 175.687 414.928 175.597C414.901 175.506 414.845 175.427 414.768 175.371C414.691 175.316 414.598 175.287 414.504 175.289H304.32C302.615 175.288 300.927 175.624 299.352 176.275C297.777 176.927 296.346 177.883 295.141 179.089C293.936 180.294 292.98 181.725 292.328 183.3C291.676 184.875 291.341 186.563 291.342 188.267V210.419C291.342 213.861 292.709 217.162 295.143 219.596C297.577 222.03 300.878 223.397 304.32 223.397H414.504C414.596 223.395 414.686 223.364 414.76 223.308C414.833 223.252 414.887 223.174 414.914 223.085C414.941 222.997 414.938 222.902 414.908 222.815C414.877 222.727 414.82 222.652 414.744 222.599L413.28 221.639V177.047Z" fill="#949494" stroke="#263238" stroke-linecap="round" stroke-linejoin="round"/>
<path d="M310.799 177.047H413.279V221.639H310.799C306.279 221.637 301.944 219.842 298.745 216.647C295.547 213.453 293.748 209.119 293.741 204.599V194.111C293.741 189.586 295.538 185.247 298.737 182.047C301.936 178.847 306.275 177.048 310.799 177.047Z" fill="white" stroke="#263238" stroke-linecap="round" stroke-linejoin="round"/>
<path d="M297.485 185.254H340.475" stroke="#263238" stroke-linecap="round" stroke-linejoin="round"/>
<path d="M329.189 189.336H369.299" stroke="#263238" stroke-linecap="round" stroke-linejoin="round"/>
<path d="M353.448 194.383H315.018" stroke="#263238" stroke-linecap="round" stroke-linejoin="round"/>
<path d="M298.445 209.754H323.663" stroke="#263238" stroke-linecap="round" stroke-linejoin="round"/>
<path d="M317.178 213.352H354.888" stroke="#263238" stroke-linecap="round" stroke-linejoin="round"/>
<path d="M312.617 216.715H322.703" stroke="#263238" stroke-linecap="round" stroke-linejoin="round"/>
<path d="M340.955 206.387H405.083" stroke="#263238" stroke-linecap="round" stroke-linejoin="round"/>
<path d="M412.529 196.062H399.323" stroke="#263238" stroke-linecap="round" stroke-linejoin="round"/>
<path d="M410.37 192.703H396.918" stroke="#263238" stroke-linecap="round" stroke-linejoin="round"/>
<path d="M410.369 214.312H376.745" stroke="#263238" stroke-linecap="round" stroke-linejoin="round"/>
<path d="M392.826 249.016L382.944 239.134L373.086 249.016V192.664H392.826V249.016Z" fill="#263238" stroke="#263238" stroke-linecap="round" stroke-linejoin="round"/>
<path d="M302.064 162.083V139.925C302.062 136.484 300.694 133.185 298.261 130.752C295.827 128.32 292.527 126.953 289.086 126.953H411.45C413.154 126.952 414.841 127.287 416.416 127.939C417.99 128.59 419.421 129.546 420.626 130.75C421.832 131.955 422.788 133.385 423.44 134.96C424.092 136.534 424.428 138.221 424.428 139.925V162.083C424.428 163.787 424.092 165.474 423.44 167.049C422.788 168.623 421.832 170.053 420.626 171.258C419.421 172.462 417.99 173.418 416.416 174.069C414.841 174.721 413.154 175.056 411.45 175.055H289.086C292.527 175.055 295.827 173.689 298.261 171.256C300.694 168.824 302.062 165.524 302.064 162.083Z" fill="#F26800" stroke="#263238" stroke-linecap="round" stroke-linejoin="round"/>
<path d="M180.12 128.705L178.662 127.751C178.581 127.701 178.52 127.626 178.487 127.537C178.453 127.449 178.45 127.351 178.477 127.261C178.505 127.17 178.561 127.091 178.638 127.035C178.714 126.98 178.807 126.951 178.902 126.953H289.086C292.527 126.953 295.827 128.32 298.26 130.752C300.694 133.185 302.062 136.484 302.064 139.925V162.083C302.062 165.524 300.694 168.824 298.26 171.256C295.827 173.689 292.527 175.055 289.086 175.055H178.902C178.807 175.058 178.714 175.029 178.638 174.973C178.561 174.918 178.505 174.838 178.477 174.748C178.45 174.657 178.453 174.56 178.487 174.471C178.52 174.383 178.581 174.308 178.662 174.257L180.12 173.303V128.705Z" fill="#949494" stroke="#263238" stroke-linecap="round" stroke-linejoin="round"/>
<path d="M282.593 173.305L180.119 173.305V128.713H282.593C287.118 128.713 291.457 130.51 294.657 133.708C297.857 136.907 299.656 141.246 299.657 145.771V156.211C299.661 158.454 299.223 160.676 298.367 162.75C297.511 164.824 296.255 166.708 294.67 168.296C293.085 169.884 291.203 171.143 289.13 172.003C287.058 172.862 284.837 173.305 282.593 173.305Z" fill="white" stroke="#263238" stroke-linecap="round" stroke-linejoin="round"/>
<path d="M295.92 136.914H252.924" stroke="#263238" stroke-linecap="round" stroke-linejoin="round"/>
<path d="M264.215 141H224.105" stroke="#263238" stroke-linecap="round" stroke-linejoin="round"/>
<path d="M239.957 146.039H278.381" stroke="#263238" stroke-linecap="round" stroke-linejoin="round"/>
<path d="M294.953 161.41H269.735" stroke="#263238" stroke-linecap="round" stroke-linejoin="round"/>
<path d="M276.222 165.016H238.512" stroke="#263238" stroke-linecap="round" stroke-linejoin="round"/>
<path d="M280.787 168.379H270.695" stroke="#263238" stroke-linecap="round" stroke-linejoin="round"/>
<path d="M252.443 158.051H188.315" stroke="#263238" stroke-linecap="round" stroke-linejoin="round"/>
<path d="M180.869 147.727H194.081" stroke="#263238" stroke-linecap="round" stroke-linejoin="round"/>
<path d="M183.035 144.359H196.481" stroke="#263238" stroke-linecap="round" stroke-linejoin="round"/>
<path d="M183.035 165.977H216.659" stroke="#263238" stroke-linecap="round" stroke-linejoin="round"/>
<path d="M316.764 158.951V143.183H320.478C321.504 143.137 322.528 143.318 323.478 143.711C324.176 144.036 324.727 144.612 325.02 145.325C325.349 146.208 325.504 147.148 325.476 148.091V153.851C325.502 154.821 325.348 155.787 325.02 156.701C324.738 157.433 324.198 158.037 323.502 158.399C322.588 158.807 321.591 158.996 320.592 158.951H316.764ZM319.644 156.947H320.52C321.017 156.989 321.515 156.867 321.936 156.599C322.237 156.337 322.426 155.97 322.464 155.573C322.535 155.028 322.567 154.478 322.56 153.929V147.893C322.571 147.377 322.527 146.862 322.428 146.357C322.39 146.181 322.318 146.014 322.215 145.867C322.112 145.719 321.98 145.594 321.828 145.499C321.4 145.287 320.924 145.194 320.448 145.229H319.614L319.644 156.947Z" fill="#263238"/>
<path d="M327.678 158.952V143.184H330.522V158.952H327.678Z" fill="#263238"/>
<path d="M337.199 159.166C336.245 159.22 335.296 158.981 334.481 158.482C333.831 158.03 333.348 157.376 333.107 156.622C332.834 155.744 332.702 154.829 332.717 153.91V148.282C332.7 147.333 332.832 146.388 333.107 145.48C333.34 144.73 333.826 144.083 334.481 143.65C335.298 143.242 336.196 143.023 337.109 143.009C338.022 142.994 338.926 143.184 339.755 143.566C340.366 143.922 340.832 144.483 341.069 145.15C341.342 145.92 341.474 146.733 341.459 147.55V148.876H338.693V147.514C338.697 147.113 338.675 146.712 338.627 146.314C338.6 145.991 338.47 145.686 338.255 145.444C338.113 145.323 337.948 145.232 337.769 145.178C337.591 145.123 337.403 145.105 337.217 145.126C336.827 145.093 336.44 145.213 336.137 145.462C335.898 145.714 335.745 146.035 335.699 146.38C335.631 146.808 335.599 147.242 335.603 147.676V154.522C335.593 154.997 335.637 155.473 335.735 155.938C335.801 156.265 335.977 156.559 336.233 156.772C336.521 156.973 336.867 157.072 337.217 157.054C337.402 157.073 337.588 157.053 337.764 156.994C337.94 156.935 338.102 156.839 338.237 156.712C338.454 156.458 338.586 156.144 338.615 155.812C338.671 155.392 338.697 154.969 338.693 154.546V153.124H341.459V154.39C341.472 155.231 341.347 156.068 341.087 156.868C340.859 157.562 340.405 158.16 339.797 158.566C339.008 159.013 338.105 159.222 337.199 159.166Z" fill="#263238"/>
<path d="M345.041 158.952V145.308H342.527V143.184H350.399V145.308H347.927V158.952H345.041Z" fill="#263238"/>
<path d="M351.911 158.952V143.184H354.755V158.952H351.911Z" fill="#263238"/>
<path d="M361.469 159.167C360.541 159.219 359.616 159.011 358.799 158.567C358.134 158.146 357.633 157.511 357.377 156.767C357.076 155.879 356.932 154.945 356.951 154.007V148.109C356.931 147.179 357.075 146.253 357.377 145.373C357.639 144.648 358.141 144.034 358.799 143.633C359.637 143.234 360.553 143.027 361.481 143.027C362.409 143.027 363.325 143.234 364.163 143.633C364.818 144.038 365.319 144.65 365.585 145.373C365.894 146.251 366.043 147.178 366.023 148.109V154.025C366.041 154.956 365.892 155.882 365.585 156.761C365.323 157.502 364.823 158.135 364.163 158.561C363.342 159.017 362.407 159.227 361.469 159.167ZM361.469 157.043C361.848 157.077 362.225 156.965 362.525 156.731C362.767 156.502 362.929 156.201 362.987 155.873C363.068 155.478 363.106 155.076 363.101 154.673V147.413C363.107 147.01 363.069 146.608 362.987 146.213C362.928 145.894 362.766 145.603 362.525 145.385C362.212 145.189 361.85 145.085 361.481 145.085C361.112 145.085 360.75 145.189 360.437 145.385C360.193 145.601 360.028 145.893 359.969 146.213C359.885 146.607 359.845 147.01 359.849 147.413V154.673C359.845 155.076 359.881 155.478 359.957 155.873C360.01 156.203 360.173 156.505 360.419 156.731C360.718 156.963 361.092 157.074 361.469 157.043Z" fill="#263238"/>
<path d="M368.142 158.952V143.184H370.146L373.986 152.184V143.184H376.386V158.952H374.478L370.626 149.532V158.952H368.142Z" fill="#263238"/>
<path d="M377.951 158.952L381.107 143.184H384.179L387.335 158.952H384.665L384.065 155.31H381.299L380.657 158.952H377.951ZM381.599 153.48H383.741L382.667 146.88L381.599 153.48Z" fill="#263238"/>
<path d="M388.836 158.95V143.182H392.61C393.523 143.161 394.433 143.291 395.304 143.566C395.995 143.787 396.587 144.244 396.978 144.856C397.407 145.615 397.615 146.48 397.578 147.352C397.583 147.926 397.525 148.5 397.404 149.062C397.298 149.531 397.094 149.973 396.804 150.358C396.497 150.73 396.098 151.016 395.646 151.186L397.8 158.95H394.92L393.012 151.75H391.692V158.95H388.836ZM391.716 149.92H392.61C393.067 149.939 393.522 149.855 393.942 149.674C394.269 149.516 394.525 149.239 394.656 148.9C394.808 148.458 394.879 147.993 394.866 147.526C394.913 146.895 394.76 146.265 394.428 145.726C394.218 145.502 393.958 145.331 393.669 145.227C393.38 145.122 393.071 145.088 392.766 145.126H391.716V149.92Z" fill="#263238"/>
<path d="M401.759 158.952V152.952L398.567 143.196H401.249L403.199 149.436L404.999 143.184H407.627L404.477 152.94V158.94L401.759 158.952Z" fill="#263238"/>
<path d="M404.502 163.836H316.974V165.846H404.502V163.836Z" fill="#263238" stroke="#263238" stroke-linecap="round" stroke-linejoin="round"/>
<path d="M404.502 136.859H316.974V138.869H404.502V136.859Z" fill="#263238" stroke="#263238" stroke-linecap="round" stroke-linejoin="round"/>
<path d="M300.894 90.7373C300.893 90.0747 300.628 89.4399 300.159 88.972C299.69 88.5041 299.055 88.2413 298.392 88.2413H112.032C111.694 88.2247 111.356 88.277 111.038 88.3951C110.72 88.5132 110.43 88.6946 110.185 88.9283C109.939 89.162 109.744 89.4431 109.61 89.7546C109.477 90.066 109.408 90.4014 109.408 90.7403C109.408 91.0792 109.477 91.4145 109.61 91.726C109.744 92.0375 109.939 92.3186 110.185 92.5522C110.43 92.7859 110.72 92.9673 111.038 93.0854C111.356 93.2035 111.694 93.2559 112.032 93.2393H295.632L282.204 266.639H170.814L164.514 259.973L156.114 266.639H79.3803C79.0419 266.623 78.7036 266.675 78.3859 266.793C78.0683 266.911 77.7779 267.093 77.5325 267.326C77.2871 267.56 77.0917 267.841 76.9582 268.153C76.8247 268.464 76.7559 268.799 76.7559 269.138C76.7559 269.477 76.8247 269.812 76.9582 270.124C77.0917 270.435 77.2871 270.717 77.5325 270.95C77.7779 271.184 78.0683 271.365 78.3859 271.483C78.7036 271.602 79.0419 271.654 79.3803 271.637H283.8C283.963 271.685 284.13 271.715 284.298 271.727C284.626 271.753 284.955 271.713 285.267 271.611C285.58 271.509 285.868 271.346 286.118 271.132C286.367 270.918 286.571 270.657 286.719 270.364C286.867 270.07 286.956 269.751 286.98 269.423L300.78 91.3853C300.846 91.1751 300.884 90.9573 300.894 90.7373Z" fill="#263238" stroke="#263238" stroke-linecap="round" stroke-linejoin="round"/>
<path d="M165.097 262.525C166.087 262.921 168.019 266.275 169.171 268.405H284.737L275.443 246.265C275.443 246.265 266.545 242.233 243.313 234.589C220.081 226.945 205.381 224.299 189.793 227.533C174.205 230.767 168.037 232.801 168.037 232.801C168.037 232.801 162.745 228.391 146.569 228.097C130.393 227.803 82.3265 246.241 82.3265 246.241L78.9365 268.381H160.117C161.611 265.921 164.095 262.123 165.097 262.525Z" fill="white" stroke="#263238" stroke-linecap="round" stroke-linejoin="round"/>
<path d="M185.629 70.931L166.723 242.399C166.723 242.399 187.351 233.807 200.671 233.399C211.591 233.045 244.471 240.785 255.961 243.599C258.692 244.267 261.464 244.756 264.259 245.063L275.443 246.311L288.763 76.565C288.763 76.565 266.851 71.411 250.963 66.251C235.075 61.091 203.677 57.179 185.629 70.931Z" fill="white" stroke="#263238" stroke-linecap="round" stroke-linejoin="round"/>
<path d="M261.282 83.55L262.746 72.75L265.014 73.524C265.67 73.7308 266.288 74.0429 266.844 74.448C267.287 74.7745 267.624 75.2228 267.816 75.738C268.004 76.3187 268.049 76.9361 267.948 77.538C267.901 77.9118 267.802 78.2773 267.654 78.624C267.536 78.9097 267.341 79.1569 267.09 79.338C266.832 79.5116 266.525 79.5959 266.214 79.578L267.084 85.524L265.566 85.008L264.768 79.446L263.568 79.026L262.884 84.084L261.282 83.55ZM263.682 77.952L264.282 78.156C264.636 78.2947 265.012 78.3679 265.392 78.372C265.525 78.3712 265.656 78.3405 265.775 78.2824C265.895 78.2242 266 78.14 266.082 78.036C266.277 77.7312 266.392 77.3827 266.418 77.022C266.524 76.5203 266.463 75.9977 266.244 75.534C265.906 75.0783 265.417 74.7573 264.864 74.628L264.168 74.388L263.682 77.952Z" fill="black"/>
<path d="M268.801 82.4823L268.945 81.4023L272.059 82.4643L271.909 83.5443L268.801 82.4823Z" fill="black"/>
<path d="M274.236 87.979L275.544 78.313L273.63 77.659L273.786 76.543L279.126 78.343L278.97 79.459L277.116 78.829L275.808 88.489L274.236 87.979Z" fill="black"/>
<path d="M185.628 70.9325L166.722 242.401C166.722 242.401 153.408 233.809 143.118 233.401C135.258 233.071 111.198 239.755 100.242 242.935C96.4196 244.04 92.5212 244.864 88.5782 245.401L82.3262 246.271L105.474 79.1225C105.474 79.1225 115.926 75.6305 129.33 70.4705C142.734 65.3105 174.288 57.1805 185.628 70.9325Z" fill="white" stroke="#263238" stroke-linecap="round" stroke-linejoin="round"/>
<path d="M114.504 85.8486L115.668 77.2626L117.624 76.6626C118.132 76.491 118.666 76.4059 119.202 76.4106C119.369 76.4054 119.535 76.4442 119.682 76.5232C119.83 76.6022 119.954 76.7186 120.042 76.8606C120.213 77.2364 120.259 77.6568 120.174 78.0606C120.13 78.3854 120.048 78.7037 119.928 79.0086C119.814 79.3016 119.652 79.5734 119.448 79.8126C119.237 80.0572 118.983 80.2606 118.698 80.4126L119.496 84.3066L118.188 84.6966L117.462 81.0486L116.406 81.3666L115.86 85.3926L114.504 85.8486ZM116.52 80.5566L117.036 80.4006C117.37 80.307 117.691 80.1699 117.99 79.9926C118.238 79.847 118.444 79.6405 118.59 79.3926C118.743 79.1117 118.84 78.8042 118.878 78.4866C118.944 77.9826 118.878 77.6526 118.71 77.4906C118.542 77.3286 118.11 77.3466 117.51 77.5266L116.91 77.7066L116.52 80.5566Z" fill="black"/>
<path d="M120.937 81.2636L121.057 80.4056L123.733 79.6016L123.601 80.4596L120.937 81.2636Z" fill="black"/>
<path d="M125.653 82.5052L126.697 74.8072L125.053 75.3053L125.173 74.4112L129.769 73.0312L129.649 73.9252L128.053 74.4053L127.009 82.0973L125.653 82.5052Z" fill="black"/>
<path d="M288.762 76.5156L297.12 93.4416L284.736 268.402L275.442 246.262L288.762 76.5156Z" fill="white" stroke="#263238" stroke-linecap="round" stroke-linejoin="round"/>
<path d="M160.116 268.402C160.116 268.402 154.404 264.49 148.68 263.062C142.956 261.634 126.63 263.632 110.88 265.066" stroke="#263238" stroke-linecap="round" stroke-linejoin="round"/>
<path d="M160.417 264.491C160.417 264.491 154.417 259.625 146.677 259.055" stroke="#263238" stroke-linecap="round" stroke-linejoin="round"/>
<path d="M162.996 261.63C162.996 261.63 153.546 253.902 141.804 253.902C132.888 253.902 122.046 255.906 122.046 255.906" stroke="#263238" stroke-linecap="round" stroke-linejoin="round"/>
<path d="M163.855 254.76C163.855 254.76 156.409 249.318 149.821 248.76C143.233 248.202 134.935 249.6 134.935 249.6" stroke="#263238" stroke-linecap="round" stroke-linejoin="round"/>
<path d="M164.4 247.889C164.4 247.889 158.964 243.017 151.518 241.889C146.865 241.209 142.138 241.209 137.484 241.889" stroke="#263238" stroke-linecap="round" stroke-linejoin="round"/>
<path d="M167.286 249.895C167.286 249.895 176.454 243.295 191.886 245.023" stroke="#263238" stroke-linecap="round" stroke-linejoin="round"/>
<path d="M166.717 256.198C166.717 256.198 171.301 252.766 183.037 252.766" stroke="#263238" stroke-linecap="round" stroke-linejoin="round"/>
<path d="M167.574 262.199C167.574 262.199 177.024 258.473 185.616 259.331C194.208 260.189 195.348 260.765 205.944 261.911" stroke="#263238" stroke-linecap="round" stroke-linejoin="round"/>
<path d="M172.729 266.213C177.406 264.554 182.397 263.965 187.333 264.491" stroke="#263238" stroke-linecap="round" stroke-linejoin="round"/>
<path d="M188.479 253.043C188.479 253.043 197.641 253.613 202.219 255.329" stroke="#263238" stroke-linecap="round" stroke-linejoin="round"/>
<path d="M133.5 242.445L127.776 243.873" stroke="#263238" stroke-linecap="round" stroke-linejoin="round"/>
<path d="M118.614 257.051L114.318 258.191" stroke="#263238" stroke-linecap="round" stroke-linejoin="round"/>
<path d="M195.349 245.879L199.933 246.743" stroke="#263238" stroke-linecap="round" stroke-linejoin="round"/>
<path d="M262.351 263.633C262.351 263.633 274.663 264.491 279.241 264.491" stroke="#263238" stroke-linecap="round" stroke-linejoin="round"/>
<path d="M279.24 262.485L274.374 262.203" stroke="#263238" stroke-linecap="round" stroke-linejoin="round"/>
<path d="M262.062 256.477C262.062 256.477 271.8 257.077 276.666 257.623" stroke="#263238" stroke-linecap="round" stroke-linejoin="round"/>
<path d="M83.6826 251.899C89.4998 251.268 95.2488 250.118 100.861 248.461" stroke="#263238" stroke-linecap="round" stroke-linejoin="round"/>
<path d="M90.2646 254.473C90.2646 254.473 97.1406 253.903 101.149 252.469" stroke="#263238" stroke-linecap="round" stroke-linejoin="round"/>
<path d="M273.228 251.319C273.228 251.319 265.212 252.465 253.758 249.891C247.238 248.393 240.643 247.246 234 246.453" stroke="#263238" stroke-linecap="round" stroke-linejoin="round"/>
<path d="M248.893 264.211L256.621 264.493" stroke="#263238" stroke-linecap="round" stroke-linejoin="round"/>
<path d="M292.698 86.6797L289.548 127.342" stroke="#263238" stroke-linecap="round" stroke-linejoin="round"/>
<path d="M294.42 97.2773L292.986 115.031" stroke="#263238" stroke-linecap="round" stroke-linejoin="round"/>
<path d="M289.266 163.992L286.398 201.504" stroke="#263238" stroke-linecap="round" stroke-linejoin="round"/>
<path d="M284.97 212.383L282.108 249.895" stroke="#263238" stroke-linecap="round" stroke-linejoin="round"/>
<path d="M287.113 159.695L285.259 184.037" stroke="#263238" stroke-linecap="round" stroke-linejoin="round"/>
<path d="M284.821 188.328L282.967 212.67" stroke="#263238" stroke-linecap="round" stroke-linejoin="round"/>
<path d="M190.494 90.642C190.494 90.642 202.632 82.14 224.49 85.782" stroke="#B2B2B2" stroke-linecap="round" stroke-linejoin="round"/>
<path d="M189.853 96.0572C189.853 96.0572 202.027 87.5252 223.885 91.0892" stroke="#B2B2B2" stroke-linecap="round" stroke-linejoin="round"/>
<path d="M189.217 101.477C189.217 101.477 201.421 92.9145 223.279 96.3945" stroke="#B2B2B2" stroke-linecap="round" stroke-linejoin="round"/>
<path d="M188.58 106.889C188.58 106.889 200.814 98.2972 222.666 101.699" stroke="#B2B2B2" stroke-linecap="round" stroke-linejoin="round"/>
<path d="M187.938 112.306C187.938 112.306 200.208 103.684 222.06 107.008" stroke="#B2B2B2" stroke-linecap="round" stroke-linejoin="round"/>
<path d="M187.303 117.725C187.303 117.725 199.597 109.073 221.455 112.325" stroke="#B2B2B2" stroke-linecap="round" stroke-linejoin="round"/>
<path d="M186.66 123.145C186.66 123.145 198.99 114.457 220.86 117.619" stroke="#B2B2B2" stroke-linecap="round" stroke-linejoin="round"/>
<path d="M186 128.56C186 128.56 198.36 119.842 220.2 122.92" stroke="#B2B2B2" stroke-linecap="round" stroke-linejoin="round"/>
<path d="M185.4 133.98C185.4 133.98 197.79 125.232 219.642 128.232" stroke="#B2B2B2" stroke-linecap="round" stroke-linejoin="round"/>
<path d="M184.746 139.399C184.746 139.399 197.172 130.615 219.024 133.537" stroke="#B2B2B2" stroke-linecap="round" stroke-linejoin="round"/>
<path d="M184.11 144.816C184.11 144.816 196.56 136.002 218.418 138.816" stroke="#B2B2B2" stroke-linecap="round" stroke-linejoin="round"/>
<path d="M183.475 150.225C183.475 150.225 195.955 141.387 217.813 144.141" stroke="#B2B2B2" stroke-linecap="round" stroke-linejoin="round"/>
<path d="M182.832 155.646C182.832 155.646 195.348 146.772 217.206 149.454" stroke="#B2B2B2" stroke-linecap="round" stroke-linejoin="round"/>
<path d="M182.196 161.062C182.196 161.062 194.742 152.158 216.6 154.756" stroke="#B2B2B2" stroke-linecap="round" stroke-linejoin="round"/>
<path d="M181.555 166.479C181.555 166.479 194.155 157.545 215.989 160.059" stroke="#B2B2B2" stroke-linecap="round" stroke-linejoin="round"/>
<path d="M180.918 171.897C180.918 171.897 193.518 162.933 215.382 165.363" stroke="#B2B2B2" stroke-linecap="round" stroke-linejoin="round"/>
<path d="M180.282 177.317C180.282 177.317 192.918 168.317 214.776 170.675" stroke="#B2B2B2" stroke-linecap="round" stroke-linejoin="round"/>
<path d="M179.641 182.737C179.641 182.737 192.313 173.707 214.201 175.981" stroke="#B2B2B2" stroke-linecap="round" stroke-linejoin="round"/>
<path d="M179.004 188.153C179.004 188.153 191.706 179.093 213.564 181.283" stroke="#B2B2B2" stroke-linecap="round" stroke-linejoin="round"/>
<path d="M178.368 193.565C178.368 193.565 191.1 184.475 212.952 186.599" stroke="#B2B2B2" stroke-linecap="round" stroke-linejoin="round"/>
<path d="M177.727 198.983C177.727 198.983 190.495 189.863 212.347 191.897" stroke="#B2B2B2" stroke-linecap="round" stroke-linejoin="round"/>
<path d="M177.091 204.402C177.091 204.402 189.883 195.252 211.741 197.202" stroke="#B2B2B2" stroke-linecap="round" stroke-linejoin="round"/>
<path d="M176.448 209.82C176.448 209.82 189.276 200.634 211.134 202.506" stroke="#B2B2B2" stroke-linecap="round" stroke-linejoin="round"/>
<path d="M175.801 215.236C175.801 215.236 188.659 206.02 210.517 207.814" stroke="#B2B2B2" stroke-linecap="round" stroke-linejoin="round"/>
<path d="M175.2 220.653C175.2 220.653 188.088 211.407 209.946 213.117" stroke="#B2B2B2" stroke-linecap="round" stroke-linejoin="round"/>
<path d="M174.534 226.073C174.534 226.073 187.458 216.791 209.334 218.423" stroke="#B2B2B2" stroke-linecap="round" stroke-linejoin="round"/>
<path d="M173.898 231.492C173.898 231.492 186.852 222.18 208.698 223.728" stroke="#B2B2B2" stroke-linecap="round" stroke-linejoin="round"/>
<path d="M234.601 86.5905C234.601 86.5905 251.599 84.1905 275.479 96.7125" stroke="#B2B2B2" stroke-linecap="round" stroke-linejoin="round"/>
<path d="M234 91.9486C234 91.9486 251.262 89.6566 274.956 102.035" stroke="#B2B2B2" stroke-linecap="round" stroke-linejoin="round"/>
<path d="M233.4 97.3019C233.4 97.3019 250.926 95.1539 274.434 107.358" stroke="#B2B2B2" stroke-linecap="round" stroke-linejoin="round"/>
<path d="M232.836 102.657C232.836 102.657 250.626 100.647 273.942 112.683" stroke="#B2B2B2" stroke-linecap="round" stroke-linejoin="round"/>
<path d="M232.242 107.998C232.242 107.998 250.302 106.132 273.432 117.994" stroke="#B2B2B2" stroke-linecap="round" stroke-linejoin="round"/>
<path d="M231.648 113.399C231.648 113.399 249.972 111.671 272.916 123.359" stroke="#B2B2B2" stroke-linecap="round" stroke-linejoin="round"/>
<path d="M231.061 118.722C231.061 118.722 249.661 117.138 272.407 128.658" stroke="#B2B2B2" stroke-linecap="round" stroke-linejoin="round"/>
<path d="M230.467 124.08C230.467 124.08 249.319 122.628 271.867 133.98" stroke="#B2B2B2" stroke-linecap="round" stroke-linejoin="round"/>
<path d="M229.878 129.43C229.878 129.43 248.994 128.122 271.374 139.3" stroke="#B2B2B2" stroke-linecap="round" stroke-linejoin="round"/>
<path d="M229.284 134.788C229.284 134.788 248.664 133.588 270.864 144.622" stroke="#B2B2B2" stroke-linecap="round" stroke-linejoin="round"/>
<path d="M228.69 140.139C228.69 140.139 248.34 139.113 270.348 149.949" stroke="#B2B2B2" stroke-linecap="round" stroke-linejoin="round"/>
<path d="M228.103 145.499C228.103 145.499 248.011 144.611 269.839 155.273" stroke="#B2B2B2" stroke-linecap="round" stroke-linejoin="round"/>
<path d="M227.509 150.851C227.509 150.851 247.687 150.107 269.323 160.595" stroke="#B2B2B2" stroke-linecap="round" stroke-linejoin="round"/>
<path d="M226.92 156.21C226.92 156.21 247.356 155.61 268.806 165.924" stroke="#B2B2B2" stroke-linecap="round" stroke-linejoin="round"/>
<path d="M226.326 161.562C226.326 161.562 247.032 161.094 268.326 171.246" stroke="#B2B2B2" stroke-linecap="round" stroke-linejoin="round"/>
<path d="M225.732 166.919C225.732 166.919 246.702 166.589 267.78 176.567" stroke="#B2B2B2" stroke-linecap="round" stroke-linejoin="round"/>
<path d="M225.145 172.27C225.145 172.27 246.379 172.084 267.265 181.87" stroke="#B2B2B2" stroke-linecap="round" stroke-linejoin="round"/>
<path d="M224.551 177.629C224.551 177.629 246.049 177.581 266.755 187.229" stroke="#B2B2B2" stroke-linecap="round" stroke-linejoin="round"/>
<path d="M223.962 183C223.962 183 245.724 183.096 266.238 192.558" stroke="#B2B2B2" stroke-linecap="round" stroke-linejoin="round"/>
<path d="M223.368 188.34C223.368 188.34 245.394 188.574 265.728 197.862" stroke="#B2B2B2" stroke-linecap="round" stroke-linejoin="round"/>
<path d="M222.78 193.691C222.78 193.691 245.07 194.063 265.212 203.189" stroke="#B2B2B2" stroke-linecap="round" stroke-linejoin="round"/>
<path d="M222.187 199.051C222.187 199.051 244.741 199.561 264.697 208.513" stroke="#B2B2B2" stroke-linecap="round" stroke-linejoin="round"/>
<path d="M221.593 204.402C221.593 204.402 244.393 205.056 264.193 213.834" stroke="#B2B2B2" stroke-linecap="round" stroke-linejoin="round"/>
<path d="M221.004 209.758C221.004 209.758 244.086 210.55 263.67 219.16" stroke="#B2B2B2" stroke-linecap="round" stroke-linejoin="round"/>
<path d="M220.41 215.109C220.41 215.109 243.762 216.045 263.16 224.481" stroke="#B2B2B2" stroke-linecap="round" stroke-linejoin="round"/>
<path d="M219.822 220.469C219.822 220.469 243.432 221.543 262.644 229.805" stroke="#B2B2B2" stroke-linecap="round" stroke-linejoin="round"/>
<path d="M219.229 225.82C219.229 225.82 243.109 227.02 262.129 235.132" stroke="#B2B2B2" stroke-linecap="round" stroke-linejoin="round"/>
<path d="M112.032 93.2392C112.032 93.2392 118.032 86.1893 137.472 85.7812" stroke="#B2B2B2" stroke-linecap="round" stroke-linejoin="round"/>
<path d="M111.301 98.6166C111.301 98.6166 117.301 91.6686 136.771 91.1406" stroke="#B2B2B2" stroke-linecap="round" stroke-linejoin="round"/>
<path d="M110.562 103.998C110.562 103.998 116.562 97.1462 136.068 96.4922" stroke="#B2B2B2" stroke-linecap="round" stroke-linejoin="round"/>
<path d="M109.83 109.378C109.83 109.378 115.83 102.628 135.372 101.848" stroke="#B2B2B2" stroke-linecap="round" stroke-linejoin="round"/>
<path d="M109.099 114.753C109.099 114.753 115.099 108.105 134.671 107.199" stroke="#B2B2B2" stroke-linecap="round" stroke-linejoin="round"/>
<path d="M108.36 120.137C108.36 120.137 114.36 113.585 133.968 112.559" stroke="#B2B2B2" stroke-linecap="round" stroke-linejoin="round"/>
<path d="M107.628 125.512C107.628 125.512 113.628 119.062 133.266 117.91" stroke="#B2B2B2" stroke-linecap="round" stroke-linejoin="round"/>
<path d="M106.896 130.896C106.896 130.896 112.896 124.548 132.57 123.27" stroke="#B2B2B2" stroke-linecap="round" stroke-linejoin="round"/>
<path d="M106.158 136.277C106.158 136.277 112.194 130.025 131.868 128.621" stroke="#B2B2B2" stroke-linecap="round" stroke-linejoin="round"/>
<path d="M105.427 141.654C105.427 141.654 111.463 135.504 131.167 133.98" stroke="#B2B2B2" stroke-linecap="round" stroke-linejoin="round"/>
<path d="M104.694 147.036C104.694 147.006 110.73 140.982 130.464 139.332" stroke="#B2B2B2" stroke-linecap="round" stroke-linejoin="round"/>
<path d="M103.962 152.398C103.962 152.368 109.998 146.452 129.762 144.676" stroke="#B2B2B2" stroke-linecap="round" stroke-linejoin="round"/>
<path d="M103.2 157.799C103.23 157.763 109.242 151.949 129.042 150.047" stroke="#B2B2B2" stroke-linecap="round" stroke-linejoin="round"/>
<path d="M102.492 163.198C102.522 163.156 108.534 157.444 128.364 155.398" stroke="#B2B2B2" stroke-linecap="round" stroke-linejoin="round"/>
<path d="M101.761 168.55C101.791 168.508 107.803 162.898 127.663 160.75" stroke="#B2B2B2" stroke-linecap="round" stroke-linejoin="round"/>
<path d="M101.022 173.933C101.058 173.885 107.07 168.383 126.966 166.133" stroke="#B2B2B2" stroke-linecap="round" stroke-linejoin="round"/>
<path d="M100.29 179.309C100.326 179.261 106.338 173.861 126.264 171.461" stroke="#B2B2B2" stroke-linecap="round" stroke-linejoin="round"/>
<path d="M99.5586 184.692C99.5946 184.638 105.607 179.34 125.563 176.82" stroke="#B2B2B2" stroke-linecap="round" stroke-linejoin="round"/>
<path d="M98.8203 190.074C98.8623 190.02 104.874 184.818 124.86 182.172" stroke="#B2B2B2" stroke-linecap="round" stroke-linejoin="round"/>
<path d="M98.0879 195.447C98.1299 195.393 104.142 190.299 124.164 187.527" stroke="#B2B2B2" stroke-linecap="round" stroke-linejoin="round"/>
<path d="M97.3564 200.833C97.3984 200.773 103.41 195.781 123.462 192.883" stroke="#B2B2B2" stroke-linecap="round" stroke-linejoin="round"/>
<path d="M96.6006 206.206C96.6546 206.146 102.661 201.256 122.743 198.238" stroke="#B2B2B2" stroke-linecap="round" stroke-linejoin="round"/>
<path d="M95.8867 211.588C95.9407 211.522 101.947 206.734 122.059 203.59" stroke="#B2B2B2" stroke-linecap="round" stroke-linejoin="round"/>
<path d="M95.1543 216.971C95.2083 216.899 101.214 212.219 121.362 208.949" stroke="#B2B2B2" stroke-linecap="round" stroke-linejoin="round"/>
<path d="M94.416 222.347C94.476 222.275 100.488 217.697 120.66 214.301" stroke="#B2B2B2" stroke-linecap="round" stroke-linejoin="round"/>
<path d="M93.6846 227.73C93.7446 227.652 99.7566 223.176 119.959 219.66" stroke="#B2B2B2" stroke-linecap="round" stroke-linejoin="round"/>
<path d="M92.9521 233.106C93.0121 233.028 99.0241 228.654 119.256 225.012" stroke="#B2B2B2" stroke-linecap="round" stroke-linejoin="round"/>
<path d="M145.164 84.1657C145.164 84.1657 159.786 78.9037 173.496 88.2097" stroke="#B2B2B2" stroke-linecap="round" stroke-linejoin="round"/>
<path d="M144.492 89.5065C144.492 89.5065 159.066 84.2745 172.95 93.4905" stroke="#B2B2B2" stroke-linecap="round" stroke-linejoin="round"/>
<path d="M143.82 94.8411C143.82 94.8411 158.346 89.6451 172.404 98.7651" stroke="#B2B2B2" stroke-linecap="round" stroke-linejoin="round"/>
<path d="M143.154 100.198C143.154 100.198 157.632 95.0316 171.858 104.062" stroke="#B2B2B2" stroke-linecap="round" stroke-linejoin="round"/>
<path d="M142.482 105.522C147.282 104.105 152.324 103.711 157.285 104.366C162.246 105.02 167.015 106.708 171.282 109.32" stroke="#B2B2B2" stroke-linecap="round" stroke-linejoin="round"/>
<path d="M141.816 110.862C146.638 109.448 151.7 109.05 156.684 109.693C161.667 110.337 166.462 112.008 170.766 114.6" stroke="#B2B2B2" stroke-linecap="round" stroke-linejoin="round"/>
<path d="M141.145 116.201C145.986 114.794 151.064 114.393 156.066 115.025C161.068 115.657 165.887 117.307 170.227 119.873" stroke="#B2B2B2" stroke-linecap="round" stroke-linejoin="round"/>
<path d="M140.479 121.542C140.479 121.542 154.759 116.496 169.681 125.142" stroke="#B2B2B2" stroke-linecap="round" stroke-linejoin="round"/>
<path d="M139.801 126.882C139.801 126.882 154.033 121.866 169.129 130.428" stroke="#B2B2B2" stroke-linecap="round" stroke-linejoin="round"/>
<path d="M139.141 132.219C139.141 132.219 153.325 127.233 168.589 135.705" stroke="#B2B2B2" stroke-linecap="round" stroke-linejoin="round"/>
<path d="M138.469 137.563C138.469 137.563 152.605 132.613 168.043 140.983" stroke="#B2B2B2" stroke-linecap="round" stroke-linejoin="round"/>
<path d="M137.796 142.897C137.796 142.897 151.884 137.983 167.502 146.263" stroke="#B2B2B2" stroke-linecap="round" stroke-linejoin="round"/>
<path d="M137.13 148.235C137.13 148.235 151.17 143.351 166.956 151.535" stroke="#B2B2B2" stroke-linecap="round" stroke-linejoin="round"/>
<path d="M136.458 153.6C136.458 153.6 150.45 148.746 166.41 156.84" stroke="#B2B2B2" stroke-linecap="round" stroke-linejoin="round"/>
<path d="M135.792 158.917C135.792 158.917 149.73 154.117 165.864 162.091" stroke="#B2B2B2" stroke-linecap="round" stroke-linejoin="round"/>
<path d="M135.12 164.255C135.12 164.255 149.016 159.455 165.318 167.369" stroke="#B2B2B2" stroke-linecap="round" stroke-linejoin="round"/>
<path d="M134.454 169.595C134.454 169.595 148.296 164.831 164.778 172.643" stroke="#B2B2B2" stroke-linecap="round" stroke-linejoin="round"/>
<path d="M133.801 174.934C133.801 174.934 147.601 170.2 164.251 177.934" stroke="#B2B2B2" stroke-linecap="round" stroke-linejoin="round"/>
<path d="M133.116 180.274C133.116 180.274 146.862 175.57 163.686 183.202" stroke="#B2B2B2" stroke-linecap="round" stroke-linejoin="round"/>
<path d="M132.444 185.616C132.444 185.616 146.142 180.942 163.14 188.478" stroke="#B2B2B2" stroke-linecap="round" stroke-linejoin="round"/>
<path d="M131.772 190.954C131.772 190.954 145.422 186.31 162.594 193.756" stroke="#B2B2B2" stroke-linecap="round" stroke-linejoin="round"/>
<path d="M131.106 196.289C131.106 196.289 144.702 191.681 162.054 199.031" stroke="#B2B2B2" stroke-linecap="round" stroke-linejoin="round"/>
<path d="M130.435 201.629C130.435 201.629 143.989 197.057 161.509 204.311" stroke="#B2B2B2" stroke-linecap="round" stroke-linejoin="round"/>
<path d="M129.769 206.999C129.769 206.999 143.269 202.457 160.969 209.615" stroke="#B2B2B2" stroke-linecap="round" stroke-linejoin="round"/>
<path d="M129.097 212.31C129.097 212.31 142.549 207.798 160.417 214.866" stroke="#B2B2B2" stroke-linecap="round" stroke-linejoin="round"/>
<path d="M128.431 217.649C128.431 217.649 141.835 213.167 159.871 220.139" stroke="#B2B2B2" stroke-linecap="round" stroke-linejoin="round"/>
<path d="M127.759 222.991C127.759 222.991 141.115 218.539 159.331 225.421" stroke="#B2B2B2" stroke-linecap="round" stroke-linejoin="round"/>
<path d="M189.955 67.9018L181.597 144.222L189.079 133.668L194.797 139.8L202.717 63.2578C202.717 63.2578 195.673 63.7258 189.955 67.9018Z" fill="#263238" stroke="#263238" stroke-linecap="round" stroke-linejoin="round"/>
<path d="M50.8863 273.417C50.8863 273.417 50.1183 273.705 50.7903 274.377C51.4623 275.049 54.1623 275.535 56.5683 275.343C58.6558 275.077 60.6968 274.526 62.6343 273.705C63.5943 273.321 62.9223 271.203 62.9223 271.203L50.8863 273.417Z" fill="#263238" stroke="#263238" stroke-linecap="round" stroke-linejoin="round"/>
<path d="M55.1997 255.916C55.1997 255.916 56.6457 266.584 56.6457 267.064C56.6457 267.544 52.8897 271.781 51.0597 272.741C49.2297 273.701 53.9517 274.57 55.9737 274.378C57.9957 274.186 60.9777 273.611 61.5537 273.226C62.1297 272.843 62.8077 272.549 62.9037 271.205C62.9997 269.861 62.2317 265.714 62.2317 265.714L62.3997 255.562L55.1997 255.916Z" fill="white" stroke="#263238" stroke-linecap="round" stroke-linejoin="round"/>
<path d="M62.2737 265.859C60.3922 266.285 58.4456 266.338 56.5437 266.015C56.6157 266.615 56.6637 266.981 56.6637 267.065C56.3919 267.62 56.0311 268.127 55.5957 268.565C56.5497 268.391 58.4877 268.211 59.7237 269.219C60.6417 269.969 61.0377 271.301 60.8877 273.173C60.8821 273.278 60.8984 273.382 60.9357 273.479C61.1574 273.422 61.3711 273.338 61.5717 273.227C61.8204 273.076 62.0571 272.905 62.2797 272.717C62.3397 270.659 61.7757 269.117 60.5877 268.151C60.3166 267.931 60.0206 267.744 59.7057 267.593C60.6488 267.552 61.5864 267.427 62.5077 267.221C62.3997 266.597 62.3157 266.093 62.2737 265.859Z" fill="#263238"/>
<path d="M58.992 270.333C57.7553 269.589 56.3128 269.261 54.876 269.397C54.408 269.907 53.892 270.435 53.376 270.933C54.834 270.687 56.976 270.591 58.176 271.473C58.5473 271.751 58.846 272.114 59.0466 272.532C59.2472 272.95 59.3437 273.41 59.328 273.873C59.328 273.873 59.328 273.873 59.328 273.903C59.832 273.801 60.3 273.693 60.678 273.585C60.6608 272.951 60.5002 272.329 60.2082 271.766C59.9162 271.203 59.5004 270.713 58.992 270.333Z" fill="#263238"/>
<path d="M88.5301 272.764C88.4392 272.825 88.3618 272.905 88.3026 272.997C88.2434 273.09 88.2037 273.193 88.1857 273.302C88.1678 273.41 88.172 273.521 88.1982 273.627C88.2244 273.734 88.272 273.834 88.3381 273.922C88.8181 274.594 90.5521 274.594 91.5121 274.594C92.4721 274.594 97.4821 274.69 97.4821 274.69C97.4821 274.69 104.796 274.594 105.882 274.306C106.968 274.018 107.034 273.442 106.65 273.148C106.295 272.968 105.893 272.901 105.498 272.956C103.74 273.167 101.965 273.199 100.2 273.052C98.0821 272.764 91.7281 272.86 90.7681 272.764C90.0231 272.709 89.2751 272.709 88.5301 272.764Z" fill="#263238" stroke="#263238" stroke-linecap="round" stroke-linejoin="round"/>
<path d="M85.1221 256.362C85.1221 256.362 88.3381 266.028 88.4341 266.508C88.5777 267.502 88.6419 268.505 88.6261 269.508C88.6261 270.852 87.7561 272.298 89.2981 273.258C90.8401 274.218 95.0761 273.552 97.1941 273.744C99.3737 273.889 101.56 273.889 103.74 273.744C106.626 273.648 107.688 272.106 107.01 271.818C106.332 271.53 106.05 272.298 102.87 270.468C99.6901 268.638 94.1101 265.944 93.9181 265.368C93.7261 264.792 92.6701 256.32 92.6701 256.32L85.1221 256.362Z" fill="white" stroke="#263238" stroke-linecap="round" stroke-linejoin="round"/>
<path d="M99.6004 268.668C98.9982 270.319 98.6975 272.065 98.7124 273.822C99.1684 273.822 99.6244 273.822 100.092 273.822C100.084 272.288 100.331 270.763 100.824 269.31L99.6004 268.668Z" fill="#263238"/>
<path d="M92.8377 273.779C93.0816 271.151 94.1055 268.656 95.7777 266.615C95.2977 266.345 94.8837 266.099 94.5777 265.895C92.7831 268.145 91.701 270.88 91.4697 273.749C91.8957 273.779 92.3577 273.785 92.8377 273.779Z" fill="#263238"/>
<path d="M93.9182 265.354C93.8882 265.264 93.8402 264.982 93.7742 264.574C91.9458 265.098 90.0593 265.392 88.1582 265.45C88.3142 266.02 88.4162 266.416 88.4342 266.506L88.4822 266.824C90.5019 266.746 92.5027 266.406 94.4342 265.81C94.2317 265.697 94.0558 265.541 93.9182 265.354Z" fill="#263238"/>
<path d="M77.5559 120.684C77.5559 120.684 78.0119 124.776 78.8639 126.534C79.7159 128.292 81.7619 129.72 81.2639 133.356C80.7659 136.992 78.0779 138.87 76.6559 139.158C75.8675 139.326 75.0619 139.401 74.2559 139.38L74.5379 143.418C76.8703 143.33 79.204 143.548 81.4799 144.066C84.4439 144.888 89.2799 146.532 91.4279 146.862C93.5759 147.192 101.784 147.612 103.428 149.418C105.072 151.224 104.658 152.874 103.674 153.858C102.69 154.842 97.5119 154.59 90.6899 154.59H83.8739C83.8739 154.59 85.4339 158.616 85.1879 161.496C84.9419 164.376 82.4759 169.47 82.4759 169.47C82.4759 169.47 82.7219 175.224 83.2139 179.67C83.7059 184.116 83.8139 186.984 83.8139 186.984C83.8139 186.984 86.5259 205.314 89.7299 217.482C92.9339 229.65 92.6099 247.812 93.4319 251.016C94.2539 254.22 94.7219 257.4 94.7219 257.4C94.7219 257.4 86.8319 258.96 84.0359 259.128C82.6683 259.226 81.2965 259.254 79.9259 259.212L78.2819 243.18C78.2819 243.18 75.0779 221.892 74.9099 221.58C74.7419 221.268 70.1459 205.632 70.1459 205.632L67.2659 233.4L64.5539 258.714L52.1999 257.178L52.4459 226.518C52.4459 226.518 51.7919 208.68 51.9539 201.282C52.1159 193.884 54.4199 187.308 56.4719 184.674C58.5239 182.04 63.6239 174.474 63.6239 174.474L62.7239 169.296L57.9239 159.846C57.9239 159.846 46.8719 167.79 44.9819 169.11C43.0919 170.43 40.7819 169.44 40.1819 166.314C39.5819 163.188 54.2759 150.228 56.5799 148.584C58.8839 146.94 66.7799 142.5 66.7799 142.5L66.4499 138.552C66.4499 138.552 63.6539 137.652 62.6699 135.432C61.6859 133.212 65.2979 130.416 65.3819 128.61C65.4659 126.804 64.0679 123.51 66.3659 122.688C68.6639 121.866 77.5559 120.684 77.5559 120.684Z" fill="white" stroke="#263238" stroke-linecap="round" stroke-linejoin="round"/>
<path d="M79.9255 259.235C81.2961 259.278 82.6679 259.25 84.0355 259.151C86.8315 258.983 94.7215 257.423 94.7215 257.423C94.7215 257.423 94.2295 254.219 93.4075 251.009C92.5855 247.799 92.9155 229.637 89.7055 217.475C86.4955 205.313 83.7895 186.977 83.7895 186.977C83.7895 186.977 83.7055 184.097 83.1895 179.663C82.9795 177.791 82.8175 175.685 82.6975 173.879L63.5515 174.047L63.6235 174.479C63.6235 174.479 58.5295 182.045 56.4715 184.679C54.4135 187.313 52.1155 193.889 51.9535 201.287C51.7915 208.685 52.4455 226.523 52.4455 226.523L52.1995 257.177L64.5295 258.737L67.2655 233.399L70.1455 205.613C70.1455 205.613 74.7475 221.213 74.9095 221.561C75.0715 221.909 78.2815 243.161 78.2815 243.161L79.9255 259.235Z" fill="#F26800" stroke="#263238" stroke-linecap="round" stroke-linejoin="round"/>
<path d="M76.2422 180.268L82.1102 180.184" stroke="#263238" stroke-linecap="round" stroke-linejoin="round"/>
<path d="M67.7461 180.395L74.7961 180.293" stroke="#263238" stroke-linecap="round" stroke-linejoin="round"/>
<path d="M78.8936 180.285L80.2916 192.615" stroke="#263238" stroke-linecap="round" stroke-linejoin="round"/>
<path d="M79.8604 181.895L83.0764 196.373" stroke="#263238" stroke-linecap="round" stroke-linejoin="round"/>
<path d="M66.7801 181.469L63.9961 191.975" stroke="#263238" stroke-linecap="round" stroke-linejoin="round"/>
<path d="M65.9825 194.395L65.8145 196.051" stroke="#263238" stroke-linecap="round" stroke-linejoin="round"/>
<path d="M67.1037 183.184L66.1797 192.406" stroke="#263238" stroke-linecap="round" stroke-linejoin="round"/>
<path d="M69.7861 126.077C70.1378 125.732 70.5591 125.468 71.0218 125.3C71.4844 125.132 71.9776 125.066 72.4681 125.105" stroke="#263238" stroke-miterlimit="10"/>
<path d="M75.8936 123.798C76.2877 123.346 76.8389 123.061 77.4356 123" stroke="#263238" stroke-miterlimit="10"/>
<path d="M81.7024 126.203C81.7024 126.781 81.531 127.346 81.21 127.827C80.8889 128.307 80.4325 128.682 79.8986 128.903C79.3647 129.124 78.7772 129.182 78.2103 129.069C77.6435 128.956 77.1229 128.678 76.7142 128.269C76.3056 127.861 76.0273 127.34 75.9145 126.773C75.8018 126.206 75.8597 125.619 76.0808 125.085C76.302 124.551 76.6765 124.095 77.157 123.774C77.6375 123.453 78.2025 123.281 78.7804 123.281C79.5554 123.281 80.2986 123.589 80.8466 124.137C81.3945 124.685 81.7024 125.428 81.7024 126.203Z" stroke="#263238" stroke-linecap="round" stroke-linejoin="round"/>
<path d="M74.334 132.973C74.8655 133.28 75.4572 133.467 76.0684 133.523C76.6796 133.579 77.2956 133.502 77.874 133.297" stroke="#263238" stroke-linecap="round" stroke-linejoin="round"/>
<path d="M74.9101 128.65C74.9101 129.227 74.7391 129.791 74.4187 130.27C74.0983 130.75 73.6429 131.124 73.11 131.344C72.5772 131.565 71.9909 131.623 71.4252 131.51C70.8596 131.398 70.34 131.12 69.9322 130.712C69.5244 130.304 69.2467 129.785 69.1342 129.219C69.0216 128.654 69.0794 128.067 69.3001 127.534C69.5208 127.002 69.8946 126.546 70.3741 126.226C70.8536 125.905 71.4174 125.734 71.9941 125.734C72.7675 125.734 73.5092 126.042 74.056 126.588C74.6029 127.135 74.9101 127.877 74.9101 128.65Z" stroke="#263238" stroke-linecap="round" stroke-linejoin="round"/>
<path d="M73.3436 128.481C73.4336 128.997 73.2956 129.453 73.0256 129.501C72.7556 129.549 72.4676 129.171 72.3716 128.661C72.2756 128.151 72.4196 127.689 72.6896 127.641C72.9596 127.593 73.2476 127.965 73.3436 128.481Z" fill="#263238"/>
<path d="M78.1322 126.773C78.2282 127.283 78.0902 127.739 77.8202 127.787C77.5502 127.835 77.2562 127.463 77.1662 126.947C77.0762 126.431 77.2142 125.981 77.4782 125.927C77.7422 125.873 78.0422 126.257 78.1322 126.773Z" fill="#263238"/>
<path d="M69.2398 129.684L64.8838 131.736" stroke="#263238" stroke-linecap="round" stroke-linejoin="round"/>
<path d="M74.832 127.799C74.933 127.649 75.0708 127.527 75.2322 127.445C75.3936 127.364 75.5732 127.325 75.7539 127.333C75.9346 127.341 76.1102 127.395 76.2639 127.49C76.4177 127.585 76.5444 127.718 76.632 127.877" stroke="#263238" stroke-linecap="round" stroke-linejoin="round"/>
<path d="M75.5996 127.047C75.8504 127.436 76.2276 127.726 76.6676 127.869C77.3276 128.037 79.2176 128.199 79.0676 129.105C79.006 129.477 78.854 129.829 78.625 130.129C78.3959 130.43 78.0967 130.669 77.7536 130.827" stroke="#263238" stroke-linecap="round" stroke-linejoin="round"/>
<path d="M66.246 123.869C66.246 123.869 66.756 127.265 66.33 129.479C65.904 131.693 64.038 132.533 64.29 134.321C64.542 136.109 67.29 138.737 67.29 138.737C66.5644 139.611 65.6558 140.314 64.6284 140.799C63.601 141.283 62.4798 141.535 61.344 141.539C57.324 141.599 54 140.093 54 133.385C54 126.677 54.936 119.111 59.778 116.735C64.62 114.359 73.71 115.289 75.75 116.057C77.79 116.825 80.082 119.453 79.314 120.725C78.546 121.997 69.642 124.295 66.246 123.869Z" fill="#263238" stroke="#263238" stroke-linecap="round" stroke-linejoin="round"/>
<path d="M66.198 132.805C66.198 132.805 63.732 130.669 62.748 131.737C61.764 132.805 62.994 134.695 63.894 135.763C64.0367 135.949 64.2219 136.099 64.4341 136.199C64.6463 136.3 64.8794 136.348 65.1141 136.341C65.3488 136.333 65.5782 136.27 65.7835 136.155C65.9887 136.041 66.1637 135.88 66.294 135.685" fill="white"/>
<path d="M66.198 132.805C66.198 132.805 63.732 130.669 62.748 131.737C61.764 132.805 62.994 134.695 63.894 135.763C64.0367 135.949 64.2219 136.099 64.4341 136.199C64.6463 136.3 64.8794 136.348 65.1141 136.341C65.3488 136.333 65.5782 136.27 65.7835 136.155C65.9887 136.041 66.1637 135.88 66.294 135.685" stroke="#263238" stroke-linecap="round" stroke-linejoin="round"/>
<path d="M74.262 139.384L71.334 138.988L74.424 142.714L74.262 139.384Z" fill="#263238" stroke="#263238" stroke-linecap="round" stroke-linejoin="round"/>
<path d="M101.49 153.678C100.328 153.541 99.2153 153.13 98.2438 152.478C96.8158 151.446 96.2638 148.278 94.9977 145.98C93.7317 143.682 87.1977 132.486 87.1977 132.486C86.5609 132.456 85.9419 132.267 85.3977 131.934C84.5277 131.376 83.6577 130.662 82.3137 130.506C80.9697 130.35 80.2498 130.584 79.7758 130.428C79.3018 130.272 79.6197 128.922 80.7297 128.628C81.8397 128.334 83.5017 128.946 83.5017 128.946C83.5867 128.095 83.5052 127.235 83.2618 126.414C82.8658 125.382 81.5217 124.194 80.5677 123.642C79.6137 123.09 78.5877 123.084 78.9837 122.532C79.3797 121.98 79.9378 121.818 81.1258 121.974C82.3138 122.13 84.3717 124.272 84.3717 124.272C84.3717 124.272 86.1717 125.7 86.5857 125.7C86.9997 125.7 88.6498 125.622 89.4418 126.9C90.2338 128.178 90.9418 130.86 90.8638 131.574C90.8176 132.021 90.8176 132.472 90.8638 132.918C90.8638 132.918 99.7978 143.328 101.664 145.146C103.53 146.964 104.832 151.146 104.514 152.196C104.335 152.799 104.059 153.368 103.698 153.882" fill="white"/>
<path d="M101.49 153.678C100.328 153.541 99.2153 153.13 98.2438 152.478C96.8158 151.446 96.2637 148.278 94.9977 145.98C93.7317 143.682 87.1977 132.486 87.1977 132.486C86.5609 132.456 85.9419 132.267 85.3977 131.934C84.5277 131.376 83.6577 130.662 82.3137 130.506C80.9697 130.35 80.2498 130.584 79.7758 130.428C79.3018 130.272 79.6197 128.922 80.7297 128.628C81.8397 128.334 83.5017 128.946 83.5017 128.946C83.5867 128.095 83.5052 127.235 83.2618 126.414C82.8658 125.382 81.5217 124.194 80.5677 123.642C79.6137 123.09 78.5877 123.084 78.9837 122.532C79.3797 121.98 79.9378 121.818 81.1258 121.974C82.3138 122.13 84.3717 124.272 84.3717 124.272C84.3717 124.272 86.1717 125.7 86.5857 125.7C86.9997 125.7 88.6498 125.622 89.4418 126.9C90.2338 128.178 90.9418 130.86 90.8638 131.574C90.8176 132.021 90.8176 132.472 90.8638 132.918C90.8638 132.918 99.7978 143.328 101.664 145.146C103.53 146.964 104.832 151.146 104.514 152.196C104.335 152.799 104.059 153.368 103.698 153.882" stroke="#263238" stroke-linecap="round" stroke-linejoin="round"/>
<path d="M86.2198 124.799C86.1292 124.607 85.9907 124.442 85.8178 124.319C84.6178 123.443 84.1378 125.141 84.1738 125.927C84.2271 126.55 84.3874 127.159 84.6478 127.727C84.7318 127.931 84.8758 128.165 85.1098 128.153C85.1671 128.149 85.2229 128.134 85.2737 128.107C85.3244 128.08 85.3687 128.042 85.4038 127.997C85.8478 127.499 85.4698 126.731 85.7218 126.137C85.8658 125.789 86.2258 125.537 86.2738 125.153C86.2864 125.032 86.2678 124.91 86.2198 124.799Z" fill="white" stroke="#263238" stroke-linecap="round" stroke-linejoin="round"/>
<path d="M87.8037 124.883C87.7132 124.691 87.5747 124.525 87.4017 124.403C86.2017 123.533 85.7217 125.225 85.7577 126.011C85.811 126.633 85.9713 127.242 86.2317 127.811C86.3157 128.009 86.4597 128.249 86.6937 128.237C86.7512 128.231 86.8068 128.214 86.8574 128.186C86.9079 128.158 86.9523 128.12 86.9877 128.075C87.4317 127.583 87.0537 126.815 87.3057 126.221C87.4497 125.873 87.8097 125.621 87.8577 125.231C87.8686 125.112 87.85 124.992 87.8037 124.883Z" fill="white" stroke="#263238" stroke-linecap="round" stroke-linejoin="round"/>
<path d="M89.2615 125.544C89.1817 125.371 89.0575 125.221 88.9015 125.112C87.8395 124.32 87.3835 125.856 87.4135 126.564C87.4601 127.134 87.6042 127.692 87.8395 128.214C87.9175 128.394 88.0495 128.61 88.2595 128.598C88.3119 128.593 88.3628 128.578 88.4092 128.553C88.4556 128.529 88.4965 128.495 88.5295 128.454C88.9315 128.01 88.5835 127.314 88.8115 126.774C88.9435 126.462 89.2675 126.216 89.3155 125.88C89.3275 125.765 89.3088 125.649 89.2615 125.544Z" fill="white" stroke="#263238" stroke-linecap="round" stroke-linejoin="round"/>
<path d="M86.9336 129.73C87.0151 130.43 87.2289 131.108 87.5636 131.728C87.9724 132.144 88.523 132.391 89.1056 132.418" stroke="#263238" stroke-linecap="round" stroke-linejoin="round"/>
<path d="M82.4758 169.468C82.4758 169.468 84.9417 164.368 85.1877 161.494C85.4337 158.62 83.8737 154.588 83.8737 154.588C83.8737 154.588 79.2057 145.732 77.8737 143.494C77.2197 143.44 76.6198 143.416 76.0738 143.41C76.6475 144.235 77.136 145.115 77.5318 146.038C77.7778 146.944 79.8357 152.116 79.8357 152.116L74.6578 157.288L66.6537 153.598C66.3378 151.295 65.6743 149.054 64.6857 146.95C64.263 146.117 63.7818 145.315 63.2458 144.55L62.2018 145.15C62.538 145.611 62.8466 146.092 63.1258 146.59C64.5178 149.056 64.8478 154.06 64.8478 154.06C64.8478 154.06 61.7278 158.416 60.9898 160.714C60.6766 161.677 60.2936 162.615 59.8438 163.522L62.7478 169.276L63.1798 171.748L82.5057 170.146C82.4877 169.726 82.4758 169.468 82.4758 169.468Z" fill="#F26800" stroke="#263238" stroke-linecap="round" stroke-linejoin="round"/>
<path d="M43.488 161.363C43.488 161.363 39.126 164.825 39.054 166.661C38.982 168.497 53.808 182.063 54.942 182.861C56.076 183.659 57.132 183.917 57.768 183.635C58.404 183.353 62.004 181.307 62.004 181.307C62.004 181.307 66.378 180.953 66.66 180.533C66.942 180.113 66.732 180.035 65.886 179.963C65.04 179.891 63.978 179.681 63.768 179.681C63.558 179.681 62.496 179.543 62.496 179.543C62.496 179.543 67.23 177.779 67.512 177.707C67.794 177.635 69.066 177.563 68.85 177.071C68.634 176.579 67.296 175.871 66.096 175.517C64.896 175.163 61.932 174.881 61.086 175.517C60.24 176.153 56.85 180.107 56.85 180.107C55.2298 178.257 54.0048 176.094 53.25 173.753C52.05 169.937 47.394 164.627 45.84 163.553" fill="white"/>
<path d="M43.488 161.363C43.488 161.363 39.126 164.825 39.054 166.661C38.982 168.497 53.808 182.063 54.942 182.861C56.076 183.659 57.132 183.917 57.768 183.635C58.404 183.353 62.004 181.307 62.004 181.307C62.004 181.307 66.378 180.953 66.66 180.533C66.942 180.113 66.732 180.035 65.886 179.963C65.04 179.891 63.978 179.681 63.768 179.681C63.558 179.681 62.496 179.543 62.496 179.543C62.496 179.543 67.23 177.779 67.512 177.707C67.794 177.635 69.066 177.563 68.85 177.071C68.634 176.579 67.296 175.871 66.096 175.517C64.896 175.163 61.932 174.881 61.086 175.517C60.24 176.153 56.85 180.107 56.85 180.107C55.2298 178.257 54.0048 176.094 53.25 173.753C52.05 169.937 47.394 164.627 45.84 163.553" stroke="#263238" stroke-linecap="round" stroke-linejoin="round"/>
<path d="M62.2861 178.043C62.2861 178.043 64.0501 177.407 65.3221 176.981C66.5941 176.555 67.5781 176.207 68.2141 176.627" stroke="#263238" stroke-linecap="round" stroke-linejoin="round"/>
<path d="M61.7217 176.7C63.1225 176.115 64.5924 175.712 66.0957 175.5" stroke="#263238" stroke-linecap="round" stroke-linejoin="round"/>
<path d="M61.2959 175.992C61.9332 175.595 62.6215 175.286 63.3419 175.074" stroke="#263238" stroke-linecap="round" stroke-linejoin="round"/>
</svg>
