<svg width="336" height="462" viewBox="0 0 336 462" fill="none" xmlns="http://www.w3.org/2000/svg">
<path d="M327.994 0.39679H7.47912C3.37441 0.39679 0.046875 3.70231 0.046875 7.78092V454.499C0.046875 458.576 3.37441 461.882 7.47912 461.882H327.994C332.098 461.882 335.426 458.576 335.426 454.499V7.78092C335.426 3.70231 332.098 0.39679 327.994 0.39679Z" fill="white"/>
<path d="M327.682 0.39679H7.79153C3.68683 0.39679 0.359375 3.70231 0.359375 7.78092V223.756C0.359375 227.833 3.68683 231.14 7.79153 231.14H327.682C331.786 231.14 335.114 227.833 335.114 223.756V7.78092C335.114 3.70231 331.786 0.39679 327.682 0.39679Z" fill="#053D38"/>
<path d="M29.2656 74.4654V57.0129H32.4475V64.4014H40.5876V57.0129H43.7788V74.4654H40.5876V67.0506H32.4475V74.4654H29.2656ZM52.9354 74.7208C51.6142 74.7208 50.4734 74.4487 49.5129 73.9029C48.5578 73.3519 47.8229 72.5735 47.3092 71.5679C46.7945 70.5562 46.5371 69.3663 46.5371 67.9974C46.5371 66.6504 46.7945 65.4693 47.3092 64.4523C47.8295 63.4291 48.555 62.6341 49.4877 62.0664C50.4195 61.4916 51.5149 61.2056 52.7728 61.2056C53.5847 61.2056 54.3512 61.3363 55.0712 61.5969C55.7977 61.8531 56.4378 62.2507 56.9934 62.7903C57.5535 63.3309 57.9939 64.0171 58.3135 64.8524C58.634 65.6825 58.7938 66.6706 58.7938 67.8184V68.7643H47.9948V66.6846H55.8182C55.8117 66.0941 55.6834 65.5685 55.4317 65.1078C55.1799 64.6418 54.8287 64.2759 54.3763 64.0092C53.9304 63.7424 53.4101 63.6081 52.8155 63.6081C52.181 63.6081 51.6235 63.7617 51.1433 64.0688C50.663 64.3698 50.2876 64.7673 50.0192 65.2614C49.7562 65.7501 49.6215 66.2871 49.6159 66.8716V68.6871C49.6159 69.4488 49.7562 70.1025 50.0368 70.6474C50.3164 71.1871 50.7085 71.6021 51.212 71.8917C51.7146 72.1751 52.3036 72.3173 52.9781 72.3173C53.4306 72.3173 53.8393 72.2559 54.2053 72.1304C54.5714 71.9996 54.8881 71.8092 55.1576 71.56C55.4261 71.3099 55.6286 70.9993 55.7661 70.6299L58.6656 70.9545C58.4826 71.7153 58.1342 72.3805 57.6195 72.9491C57.1104 73.5107 56.4583 73.9485 55.663 74.2601C54.8686 74.5681 53.9592 74.7208 52.9354 74.7208ZM64.5259 57.0129V74.4654H61.4211V57.0129H64.5259ZM70.8247 57.0129V74.4654H67.7189V57.0129H70.8247ZM79.7649 74.7208C78.4778 74.7208 77.3619 74.4391 76.419 73.8775C75.4752 73.315 74.743 72.5279 74.2233 71.5161C73.7084 70.5053 73.4511 69.3233 73.4511 67.971C73.4511 66.6197 73.7084 65.4351 74.2233 64.4181C74.743 63.4019 75.4752 62.6113 76.419 62.0497C77.3619 61.4864 78.4778 61.2056 79.7649 61.2056C81.0511 61.2056 82.1661 61.4864 83.1099 62.0497C84.0528 62.6113 84.7824 63.4019 85.2969 64.4181C85.8175 65.4351 86.0774 66.6197 86.0774 67.971C86.0774 69.3233 85.8175 70.5053 85.2969 71.5161C84.7824 72.5279 84.0528 73.315 83.1099 73.8775C82.1661 74.4391 81.0511 74.7208 79.7649 74.7208ZM79.7816 72.2488C80.4796 72.2488 81.0625 72.0593 81.5314 71.6785C82.0002 71.2924 82.3496 70.7755 82.5779 70.1271C82.8123 69.4803 82.9299 68.7582 82.9299 67.9631C82.9299 67.162 82.8123 66.4381 82.5779 65.7905C82.3496 65.1367 82.0002 64.6173 81.5314 64.2303C81.0625 63.8442 80.4796 63.6511 79.7816 63.6511C79.0669 63.6511 78.4726 63.8442 77.9976 64.2303C77.5288 64.6173 77.1767 65.1367 76.9423 65.7905C76.714 66.4381 76.5999 67.162 76.5999 67.9631C76.5999 68.7582 76.714 69.4803 76.9423 70.1271C77.1767 70.7755 77.5288 71.2924 77.9976 71.6785C78.4726 72.0593 79.0669 72.2488 79.7816 72.2488ZM92.3583 72.0795L92.2468 73.0158C92.1669 73.7327 92.0238 74.4592 91.8184 75.1981C91.6182 75.9422 91.4066 76.6267 91.1836 77.2515C90.9606 77.8762 90.7806 78.3685 90.6428 78.7257H88.5506C88.6305 78.3799 88.7394 77.9078 88.8755 77.312C89.0186 76.7153 89.1564 76.044 89.2881 75.3008C89.4189 74.5558 89.5085 73.8003 89.5541 73.0333L89.6129 72.0795H92.3583ZM101.423 74.4654V57.0129H108.148C109.418 57.0129 110.473 57.2112 111.313 57.6087C112.159 58.0009 112.792 58.538 113.209 59.2198C113.631 59.9016 113.844 60.6738 113.844 61.5381C113.844 62.248 113.707 62.8561 113.432 63.3607C113.158 63.8609 112.789 64.2671 112.326 64.5804C111.862 64.8919 111.344 65.1166 110.773 65.2535V65.4237C111.396 65.4579 111.994 65.6483 112.566 65.9941C113.143 66.3354 113.614 66.818 113.981 67.4428C114.347 68.0685 114.53 68.824 114.53 69.7102C114.53 70.6132 114.31 71.4258 113.869 72.1479C113.429 72.8631 112.765 73.4291 111.88 73.8433C110.993 74.2574 109.878 74.4654 108.534 74.4654H101.423ZM104.605 71.8233H108.028C109.183 71.8233 110.015 71.6048 110.524 71.1678C111.039 70.7246 111.296 70.156 111.296 69.4628C111.296 68.946 111.168 68.48 110.91 68.0649C110.653 67.6455 110.287 67.3156 109.812 67.0769C109.338 66.8321 108.771 66.7101 108.114 66.7101H104.605V71.8233ZM104.605 64.4356H107.753C108.303 64.4356 108.797 64.3356 109.237 64.1373C109.678 63.9319 110.023 63.645 110.275 63.2764C110.532 62.9009 110.661 62.4586 110.661 61.947C110.661 61.2705 110.42 60.7142 109.94 60.2763C109.466 59.8393 108.759 59.6199 107.823 59.6199H104.605V64.4356ZM120.952 74.7295C120.117 74.7295 119.365 74.5812 118.697 74.2864C118.033 73.9854 117.506 73.5423 117.118 72.957C116.736 72.3717 116.543 71.6504 116.543 70.7931C116.543 70.0533 116.68 69.4435 116.954 68.9609C117.23 68.4774 117.604 68.0913 118.079 67.8017C118.554 67.5112 119.088 67.2927 119.683 67.1453C120.283 66.9918 120.904 66.8812 121.544 66.8127C122.316 66.7338 122.942 66.6627 123.422 66.5995C123.903 66.5311 124.252 66.4293 124.47 66.2933C124.693 66.1511 124.804 65.9326 124.804 65.6369V65.5851C124.804 64.9437 124.612 64.4461 124.229 64.0934C123.846 63.7424 123.294 63.566 122.573 63.566C121.813 63.566 121.21 63.731 120.764 64.0609C120.323 64.39 120.026 64.7787 119.872 65.2271L116.973 64.8182C117.201 64.0232 117.578 63.3581 118.104 62.8245C118.63 62.2849 119.274 61.8812 120.034 61.6145C120.795 61.3416 121.636 61.2056 122.556 61.2056C123.191 61.2056 123.823 61.2793 124.452 61.4276C125.081 61.575 125.656 61.8189 126.176 62.1603C126.696 62.4955 127.114 62.9518 127.428 63.5318C127.749 64.1109 127.908 64.8357 127.908 65.7053V74.4654H124.923V72.6674H124.821C124.632 73.0307 124.367 73.3712 124.023 73.6897C123.686 74.0021 123.26 74.2548 122.745 74.4487C122.236 74.6356 121.639 74.7295 120.952 74.7295ZM121.758 72.4621C122.382 72.4621 122.923 72.3401 123.38 72.0962C123.837 71.8461 124.189 71.5161 124.435 71.1072C124.686 70.6983 124.812 70.2526 124.812 69.7699V68.2264C124.714 68.3071 124.549 68.3808 124.314 68.4493C124.086 68.5169 123.829 68.5765 123.542 68.6274C123.257 68.6792 122.973 68.7239 122.693 68.7643C122.413 68.8038 122.17 68.838 121.965 68.8661C121.501 68.9293 121.087 69.0311 120.721 69.1732C120.355 69.3154 120.066 69.5146 119.854 69.7699C119.643 70.0191 119.537 70.3429 119.537 70.7413C119.537 71.3099 119.745 71.7382 120.163 72.0277C120.581 72.3173 121.112 72.4621 121.758 72.4621ZM134.136 66.7952V74.4654H131.031V61.3758H133.999V63.6002H134.153C134.456 62.8675 134.94 62.2849 135.603 61.8532C136.272 61.4205 137.099 61.2056 138.081 61.2056C138.991 61.2056 139.783 61.3986 140.458 61.7847C141.138 62.1708 141.665 62.7306 142.037 63.4634C142.414 64.1961 142.599 65.0858 142.594 66.1309V74.4654H139.488V66.6083C139.488 65.7325 139.26 65.049 138.803 64.5541C138.351 64.0609 137.725 63.8135 136.924 63.8135C136.381 63.8135 135.898 63.9319 135.474 64.1715C135.057 64.404 134.728 64.7419 134.488 65.185C134.253 65.6281 134.136 66.1652 134.136 66.7952ZM150.64 74.6953C149.604 74.6953 148.678 74.4312 147.861 73.9029C147.043 73.3738 146.396 72.6069 145.921 71.6021C145.447 70.5965 145.21 69.375 145.21 67.9377C145.21 66.4837 145.45 65.2561 145.93 64.2566C146.417 63.2501 147.071 62.4928 147.895 61.9813C148.718 61.4644 149.636 61.2056 150.648 61.2056C151.421 61.2056 152.055 61.3363 152.552 61.5969C153.05 61.8531 153.444 62.1629 153.736 62.5262C154.028 62.8833 154.253 63.222 154.414 63.5397H154.542V57.0129H157.656V74.4654H154.603V72.4033H154.414C154.253 72.7209 154.021 73.0596 153.719 73.4168C153.417 73.7695 153.015 74.0705 152.518 74.3206C152.021 74.5707 151.395 74.6953 150.64 74.6953ZM151.506 72.1646C152.164 72.1646 152.724 71.9882 153.187 71.6364C153.65 71.2783 154.002 70.7808 154.242 70.1446C154.482 69.5075 154.603 68.7669 154.603 67.9202C154.603 67.0743 154.482 66.338 154.242 65.7132C154.008 65.0885 153.659 64.6023 153.196 64.2566C152.738 63.9091 152.175 63.7363 151.506 63.7363C150.814 63.7363 150.236 63.9153 149.773 64.2724C149.309 64.6313 148.962 65.1253 148.727 65.7563C148.492 66.3863 148.375 67.1085 148.375 67.9202C148.375 68.738 148.492 69.4681 148.727 70.1104C148.967 70.7466 149.318 71.2494 149.782 71.6188C150.251 71.9821 150.825 72.1646 151.506 72.1646ZM160.964 74.4654V61.3758H164.071V74.4654H160.964ZM162.526 59.5172C162.035 59.5172 161.611 59.3558 161.256 59.032C160.902 58.7029 160.725 58.308 160.725 57.8482C160.725 57.3823 160.902 56.9865 161.256 56.6628C161.611 56.3337 162.035 56.1687 162.526 56.1687C163.023 56.1687 163.447 56.3337 163.795 56.6628C164.15 56.9865 164.328 57.3823 164.328 57.8482C164.328 58.308 164.15 58.7029 163.795 59.032C163.447 59.3558 163.023 59.5172 162.526 59.5172Z" fill="white"/>
<path opacity="0.75" d="M28.5059 104.807V93.9002H30.1623V99.1081H30.2971L34.9022 93.9002H36.987L32.5592 98.8107L37.0037 104.807H35.009L31.4602 99.9347L30.1623 101.415V104.807H28.5059ZM40.7987 104.989C40.2776 104.989 39.8057 104.893 39.3838 104.701C38.962 104.506 38.6276 104.224 38.3814 103.855C38.138 103.485 38.0163 103.032 38.0163 102.497C38.0163 102.035 38.1065 101.655 38.2848 101.357C38.4632 101.058 38.7047 100.823 39.0085 100.648C39.3123 100.474 39.6514 100.343 40.0267 100.254C40.4021 100.166 40.7849 100.098 41.1741 100.051C41.6674 99.9944 42.0678 99.9488 42.3754 99.9137C42.6828 99.8742 42.9058 99.8119 43.0452 99.7268C43.1845 99.6417 43.2542 99.503 43.2542 99.3117V99.274C43.2542 98.8089 43.1222 98.4483 42.8575 98.1929C42.5964 97.9376 42.2071 97.8086 41.6888 97.8086C41.149 97.8086 40.7245 97.9279 40.4132 98.1657C40.1057 98.4009 39.8929 98.6615 39.7749 98.9484L38.269 98.608C38.4474 98.1104 38.7085 97.7103 39.0512 97.4049C39.3978 97.0952 39.7964 96.8723 40.2469 96.7336C40.6975 96.5915 41.1704 96.5204 41.6674 96.5204C41.9963 96.5204 42.3446 96.559 42.7126 96.638C43.0841 96.7126 43.4316 96.8512 43.753 97.053C44.0782 97.2549 44.3449 97.5453 44.5521 97.9218C44.7592 98.2947 44.8623 98.7791 44.8623 99.3749V104.807H43.2969V103.69H43.2329C43.1297 103.895 42.9736 104.098 42.7665 104.297C42.5593 104.495 42.2927 104.66 41.9675 104.793C41.6424 104.923 41.2531 104.989 40.7987 104.989ZM41.1472 103.711C41.5903 103.711 41.9693 103.624 42.2843 103.449C42.602 103.275 42.8436 103.049 43.008 102.768C43.1761 102.484 43.2597 102.18 43.2597 101.857V100.803C43.2021 100.86 43.0916 100.913 42.9272 100.963C42.7664 101.009 42.5825 101.049 42.3754 101.084C42.1682 101.117 41.9656 101.147 41.7696 101.175C41.5726 101.2 41.4082 101.221 41.2762 101.24C40.9651 101.278 40.6808 101.344 40.4234 101.436C40.1698 101.528 39.9663 101.663 39.813 101.836C39.6626 102.007 39.5873 102.234 39.5873 102.518C39.5873 102.912 39.7341 103.21 40.0267 103.412C40.3203 103.611 40.6938 103.711 41.1472 103.711ZM46.9981 104.807V96.6266H48.5367V97.9586H48.6379C48.8098 97.5076 49.0903 97.1566 49.4796 96.9039C49.8698 96.6476 50.3361 96.5204 50.8787 96.5204C51.4296 96.5204 51.8905 96.6476 52.262 96.9039C52.6373 97.1592 52.9142 97.5111 53.0935 97.9586H53.1789C53.376 97.5216 53.6881 97.1741 54.1173 96.9144C54.5465 96.6512 55.0575 96.5204 55.6502 96.5204C56.3972 96.5204 57.0066 96.753 57.4786 97.218C57.9541 97.6831 58.192 98.3851 58.192 99.3214V104.807H56.5885V99.4714C56.5885 98.9177 56.437 98.5158 56.1333 98.2675C55.8295 98.0183 55.4663 97.8946 55.0444 97.8946C54.5233 97.8946 54.1173 98.0543 53.8274 98.3737C53.5385 98.6905 53.3936 99.0967 53.3936 99.5943V104.807H51.7956V99.3696C51.7956 98.9256 51.6563 98.5694 51.3776 98.2991C51.0989 98.0297 50.7366 97.8946 50.2897 97.8946C49.9859 97.8946 49.7053 97.9744 49.448 98.1341C49.1943 98.2912 48.9881 98.5088 48.8311 98.7887C48.6779 99.0695 48.6008 99.3942 48.6008 99.7636V104.807H46.9981ZM65.5564 101.415V96.6266H67.1646V104.807H65.5889V103.391H65.5025C65.313 103.827 65.0092 104.192 64.5911 104.483C64.1768 104.771 63.6602 104.914 63.0425 104.914C62.5129 104.914 62.0447 104.799 61.6378 104.568C61.2337 104.334 60.9159 103.987 60.6827 103.53C60.4542 103.072 60.3399 102.505 60.3399 101.83V96.6266H61.9434V101.638C61.9434 102.196 62.0986 102.64 62.4098 102.97C62.7201 103.301 63.1243 103.466 63.6213 103.466C63.9213 103.466 64.2196 103.391 64.5159 103.241C64.8169 103.093 65.065 102.868 65.2619 102.566C65.4616 102.265 65.5601 101.88 65.5564 101.415ZM73.442 93.9002H75.4528L78.9479 102.379H79.077L82.5721 93.9002H84.5826V104.807H83.0067V96.9144H82.9048L79.6661 104.793H78.3588L75.1209 96.9091H75.0182V104.807H73.442V93.9002ZM90.4114 104.973C89.601 104.973 88.9013 104.8 88.3157 104.456C87.7327 104.108 87.2823 103.62 86.9636 102.991C86.6502 102.359 86.493 101.619 86.493 100.771C86.493 99.933 86.6502 99.1941 86.9636 98.5544C87.2823 97.9156 87.7257 97.4163 88.2937 97.0583C88.8653 96.6994 89.5334 96.5204 90.299 96.5204C90.7634 96.5204 91.2147 96.5967 91.6502 96.7494C92.0856 96.903 92.4772 97.1417 92.824 97.4681C93.1708 97.7954 93.4438 98.2201 93.6449 98.7414C93.8442 99.26 93.9451 99.89 93.9451 100.632V101.197H87.3991V100.004H92.3736C92.3736 99.5846 92.2884 99.2134 92.1164 98.8905C91.9443 98.5641 91.7037 98.3061 91.3929 98.1183C91.0848 97.9297 90.7239 97.8358 90.3095 97.8358C89.8591 97.8358 89.4658 97.9463 89.1304 98.1657C88.7977 98.3833 88.5404 98.6676 88.3587 99.0178C88.1796 99.3661 88.09 99.7443 88.09 100.152V101.084C88.09 101.632 88.1866 102.097 88.3798 102.48C88.5756 102.864 88.8495 103.157 89.1998 103.359C89.5501 103.558 89.9592 103.658 90.4272 103.658C90.7309 103.658 91.0084 103.614 91.2586 103.53C91.5088 103.441 91.7257 103.31 91.9074 103.136C92.0891 102.962 92.2287 102.747 92.3253 102.491L93.8424 102.763C93.7213 103.207 93.5035 103.595 93.1883 103.929C92.8775 104.26 92.486 104.517 92.0145 104.701C91.5457 104.883 91.0119 104.973 90.4114 104.973ZM97.3253 99.9505V104.807H95.723V96.6266H97.2612V97.9586H97.3639C97.5527 97.526 97.8494 97.1777 98.2533 96.9144C98.6606 96.6512 99.1734 96.5204 99.7923 96.5204C100.353 96.5204 100.845 96.638 101.266 96.8723C101.688 97.1031 102.015 97.447 102.247 97.9051C102.48 98.364 102.596 98.9291 102.596 99.6039V104.807H100.993V99.7961C100.993 99.2029 100.837 98.7396 100.527 98.4061C100.215 98.0683 99.7879 97.9007 99.2445 97.9007C98.8731 97.9007 98.5421 97.9797 98.2533 98.1394C97.967 98.2991 97.7405 98.5334 97.5728 98.8423C97.4078 99.1485 97.3253 99.517 97.3253 99.9505ZM108.198 108.046C107.544 108.046 106.981 107.96 106.51 107.791C106.042 107.62 105.659 107.395 105.362 107.114C105.065 106.834 104.844 106.526 104.697 106.192L106.075 105.629C106.172 105.784 106.3 105.95 106.461 106.123C106.626 106.301 106.847 106.452 107.126 106.577C107.409 106.7 107.771 106.763 108.215 106.763C108.822 106.763 109.323 106.615 109.72 106.32C110.117 106.029 110.316 105.564 110.316 104.925V103.317H110.214C110.117 103.49 109.977 103.683 109.796 103.897C109.618 104.11 109.37 104.295 109.056 104.45C108.741 104.607 108.332 104.686 107.828 104.686C107.178 104.686 106.591 104.535 106.07 104.233C105.551 103.927 105.141 103.478 104.837 102.885C104.537 102.289 104.386 101.555 104.386 100.686C104.386 99.8154 104.535 99.0695 104.831 98.4483C105.131 97.827 105.543 97.3514 106.064 97.0206C106.586 96.6871 107.178 96.5204 107.84 96.5204C108.351 96.5204 108.762 96.6055 109.078 96.7758C109.392 96.9434 109.637 97.1382 109.812 97.3619C109.991 97.5857 110.128 97.7831 110.225 97.9534H110.342V96.6266H111.913V104.989C111.913 105.692 111.748 106.269 111.42 106.72C111.091 107.171 110.646 107.505 110.085 107.722C109.527 107.938 108.898 108.046 108.198 108.046ZM108.182 103.364C108.643 103.364 109.033 103.258 109.351 103.045C109.672 102.828 109.916 102.52 110.08 102.118C110.248 101.713 110.332 101.228 110.332 100.664C110.332 100.114 110.249 99.6294 110.085 99.2099C109.921 98.7914 109.68 98.4641 109.361 98.2298C109.043 97.9928 108.65 97.8735 108.182 97.8735C107.7 97.8735 107.298 97.9972 106.976 98.2464C106.654 98.4913 106.411 98.8256 106.247 99.2468C106.086 99.6697 106.006 100.142 106.006 100.664C106.006 101.2 106.088 101.67 106.252 102.076C106.416 102.48 106.66 102.796 106.981 103.024C107.306 103.251 107.706 103.364 108.182 103.364ZM116.459 104.989C115.938 104.989 115.466 104.893 115.044 104.701C114.622 104.506 114.288 104.224 114.042 103.855C113.799 103.485 113.677 103.032 113.677 102.497C113.677 102.035 113.767 101.655 113.945 101.357C114.124 101.058 114.365 100.823 114.668 100.648C114.972 100.474 115.312 100.343 115.688 100.254C116.063 100.166 116.444 100.098 116.835 100.051C117.329 99.9944 117.728 99.9488 118.035 99.9137C118.343 99.8742 118.567 99.8119 118.706 99.7268C118.846 99.6417 118.915 99.503 118.915 99.3117V99.274C118.915 98.8089 118.782 98.4483 118.518 98.1929C118.257 97.9376 117.867 97.8086 117.35 97.8086C116.81 97.8086 116.385 97.9279 116.073 98.1657C115.766 98.4009 115.553 98.6615 115.436 98.9484L113.929 98.608C114.107 98.1104 114.368 97.7103 114.712 97.4049C115.059 97.0952 115.458 96.8723 115.907 96.7336C116.358 96.5915 116.832 96.5204 117.329 96.5204C117.656 96.5204 118.005 96.559 118.373 96.638C118.745 96.7126 119.092 96.8512 119.413 97.053C119.739 97.2549 120.005 97.5453 120.212 97.9218C120.419 98.2947 120.523 98.7791 120.523 99.3749V104.807H118.958V103.69H118.894C118.79 103.895 118.634 104.098 118.428 104.297C118.219 104.495 117.954 104.66 117.628 104.793C117.303 104.923 116.913 104.989 116.459 104.989ZM116.808 103.711C117.251 103.711 117.631 103.624 117.944 103.449C118.263 103.275 118.503 103.049 118.668 102.768C118.836 102.484 118.919 102.18 118.919 101.857V100.803C118.863 100.86 118.753 100.913 118.588 100.963C118.428 101.009 118.243 101.049 118.035 101.084C117.828 101.117 117.626 101.147 117.43 101.175C117.234 101.2 117.069 101.221 116.936 101.24C116.626 101.278 116.342 101.344 116.085 101.436C115.831 101.528 115.626 101.663 115.473 101.836C115.322 102.007 115.248 102.234 115.248 102.518C115.248 102.912 115.394 103.21 115.688 103.412C115.98 103.611 116.354 103.711 116.808 103.711ZM122.658 104.807V96.6266H124.197V97.9586H124.299C124.47 97.5076 124.75 97.1566 125.141 96.9039C125.53 96.6476 125.996 96.5204 126.539 96.5204C127.09 96.5204 127.552 96.6476 127.923 96.9039C128.299 97.1592 128.575 97.5111 128.753 97.9586H128.839C129.036 97.5216 129.349 97.1741 129.777 96.9144C130.206 96.6512 130.717 96.5204 131.311 96.5204C132.058 96.5204 132.667 96.753 133.139 97.218C133.614 97.6831 133.852 98.3851 133.852 99.3214V104.807H132.249V99.4714C132.249 98.9177 132.097 98.5158 131.793 98.2675C131.489 98.0183 131.127 97.8946 130.705 97.8946C130.184 97.8946 129.777 98.0543 129.488 98.3737C129.199 98.6905 129.054 99.0967 129.054 99.5943V104.807H127.457V99.3696C127.457 98.9256 127.317 98.5694 127.039 98.2991C126.759 98.0297 126.397 97.8946 125.95 97.8946C125.646 97.8946 125.365 97.9744 125.108 98.1341C124.854 98.2912 124.649 98.5088 124.492 98.7887C124.338 99.0695 124.261 99.3942 124.261 99.7636V104.807H122.658ZM136.129 104.807V93.9002H137.731V97.9534H137.828C137.921 97.7831 138.056 97.5857 138.231 97.3619C138.406 97.1382 138.649 96.9434 138.96 96.7758C139.271 96.6055 139.681 96.5204 140.192 96.5204C140.858 96.5204 141.45 96.6871 141.973 97.0206C142.495 97.3549 142.903 97.8358 143.2 98.4641C143.501 99.0932 143.651 99.8496 143.651 100.733C143.651 101.617 143.503 102.376 143.205 103.008C142.909 103.636 142.501 104.121 141.984 104.462C141.465 104.799 140.874 104.967 140.208 104.967C139.709 104.967 139.299 104.885 138.982 104.717C138.666 104.55 138.42 104.355 138.241 104.131C138.062 103.908 137.925 103.709 137.828 103.535H137.695V104.807H136.129ZM137.7 100.717C137.7 101.292 137.784 101.797 137.952 102.23C138.12 102.663 138.363 103.002 138.681 103.247C138.999 103.489 139.389 103.61 139.85 103.61C140.328 103.61 140.729 103.483 141.05 103.232C141.372 102.976 141.615 102.63 141.78 102.193C141.947 101.756 142.031 101.264 142.031 100.717C142.031 100.177 141.949 99.6926 141.785 99.2635C141.624 98.8335 141.381 98.4948 141.055 98.2464C140.734 97.9972 140.332 97.8735 139.85 97.8735C139.385 97.8735 138.992 97.9928 138.67 98.2298C138.352 98.4676 138.111 98.8001 137.947 99.2257C137.781 99.6522 137.7 100.15 137.7 100.717ZM145.451 104.807V96.6266H147.054V104.807H145.451ZM146.26 95.3648C145.982 95.3648 145.742 95.2726 145.542 95.0883C145.345 94.8997 145.247 94.6759 145.247 94.417C145.247 94.1538 145.345 93.9309 145.542 93.7449C145.742 93.558 145.982 93.4632 146.26 93.4632C146.539 93.4632 146.777 93.558 146.974 93.7449C147.173 93.9309 147.274 94.1538 147.274 94.417C147.274 94.6759 147.173 94.8997 146.974 95.0883C146.777 95.2726 146.539 95.3648 146.26 95.3648ZM150.813 93.9002V104.807H149.21V93.9002H150.813Z" fill="white"/>
<path d="M160.93 101.054V99.4819L165.587 92.1698H166.907V94.4056H166.102L162.966 99.3442V99.4284H169.469V101.054H160.93ZM166.167 103.077V100.574L166.188 99.8707V92.1698H168.064V103.077H166.167ZM175.034 103.077V92.1698H179.152C179.994 92.1698 180.703 92.3259 181.274 92.6383C181.849 92.9507 182.284 93.3807 182.576 93.9265C182.874 94.4706 183.022 95.0883 183.022 95.7807C183.022 96.48 182.874 97.1013 182.576 97.6445C182.28 98.1885 181.842 98.6158 181.264 98.9282C180.684 99.2371 179.972 99.3916 179.124 99.3916H176.396V97.7673H178.857C179.349 97.7673 179.753 97.6813 180.068 97.512C180.382 97.3409 180.614 97.1066 180.765 96.8082C180.918 96.5107 180.995 96.1676 180.995 95.7807C180.995 95.3937 180.918 95.0532 180.765 94.7575C180.614 94.4635 180.381 94.2345 180.063 94.0713C179.748 93.9037 179.343 93.8212 178.845 93.8212H177.022V103.077H175.034ZM188.192 103.237C187.366 103.237 186.652 103.067 186.052 102.726C185.455 102.381 184.996 101.895 184.674 101.267C184.353 100.634 184.192 99.89 184.192 99.0344C184.192 98.1929 184.353 97.4549 184.674 96.8196C185 96.1799 185.453 95.6824 186.036 95.3279C186.619 94.969 187.303 94.79 188.089 94.79C188.597 94.79 189.076 94.8716 189.525 95.0348C189.98 95.1954 190.381 95.4437 190.726 95.7807C191.077 96.1185 191.352 96.5476 191.553 97.0697C191.753 97.5874 191.853 98.2061 191.853 98.923V99.5135H185.103V98.214H189.992C189.989 97.8445 189.908 97.5164 189.751 97.2294C189.594 96.9381 189.374 96.709 189.092 96.5414C188.813 96.3756 188.488 96.2914 188.116 96.2914C187.719 96.2914 187.371 96.3879 187.071 96.5792C186.77 96.7678 186.536 97.0162 186.368 97.325C186.204 97.6304 186.12 97.9656 186.116 98.3315V99.467C186.116 99.9418 186.204 100.35 186.379 100.691C186.554 101.028 186.798 101.288 187.114 101.469C187.428 101.647 187.796 101.735 188.217 101.735C188.5 101.735 188.755 101.696 188.985 101.618C189.214 101.536 189.411 101.417 189.58 101.261C189.748 101.105 189.875 100.911 189.96 100.681L191.772 100.883C191.658 101.359 191.44 101.774 191.118 102.129C190.8 102.481 190.392 102.754 189.896 102.95C189.399 103.141 188.831 103.237 188.192 103.237ZM195.435 92.1698V103.077H193.495V92.1698H195.435ZM199.801 103.243C199.279 103.243 198.808 103.15 198.39 102.966C197.976 102.777 197.647 102.501 197.403 102.135C197.165 101.769 197.045 101.318 197.045 100.782C197.045 100.32 197.13 99.9382 197.302 99.6364C197.474 99.3345 197.707 99.0941 198.005 98.9116C198.301 98.7308 198.636 98.5948 199.007 98.5018C199.382 98.4061 199.77 98.3368 200.171 98.2947C200.653 98.2447 201.044 98.1999 201.344 98.1613C201.645 98.1192 201.863 98.0543 201.999 97.9691C202.138 97.8814 202.207 97.7445 202.207 97.5593V97.5278C202.207 97.1259 202.088 96.8161 201.848 96.595C201.609 96.3756 201.264 96.2651 200.813 96.2651C200.338 96.2651 199.962 96.3686 199.682 96.5739C199.408 96.7801 199.222 97.0232 199.125 97.304L197.313 97.0486C197.456 96.5511 197.691 96.136 198.021 95.8017C198.35 95.4648 198.752 95.2129 199.227 95.0453C199.702 94.8751 200.228 94.79 200.803 94.79C201.2 94.79 201.595 94.8365 201.987 94.9286C202.38 95.0208 202.74 95.1726 203.065 95.3858C203.39 95.5955 203.652 95.8816 203.848 96.244C204.049 96.6064 204.149 97.0583 204.149 97.6023V103.077H202.283V101.953H202.218C202.1 102.181 201.934 102.393 201.72 102.593C201.51 102.787 201.243 102.946 200.921 103.067C200.603 103.183 200.229 103.243 199.801 103.243ZM200.304 101.826C200.695 101.826 201.032 101.749 201.318 101.597C201.603 101.441 201.823 101.234 201.977 100.978C202.135 100.723 202.214 100.444 202.214 100.142V99.1783C202.152 99.2283 202.049 99.2749 201.902 99.317C201.759 99.36 201.598 99.3977 201.42 99.4284C201.241 99.4609 201.064 99.4898 200.889 99.5135C200.714 99.539 200.561 99.5601 200.433 99.5785C200.143 99.6171 199.884 99.6811 199.655 99.7698C199.427 99.8593 199.247 99.983 199.114 100.142C198.982 100.299 198.916 100.502 198.916 100.75C198.916 101.105 199.046 101.373 199.308 101.555C199.568 101.735 199.901 101.826 200.304 101.826ZM210.211 94.8961V96.3879H205.478V94.8961H210.211ZM206.646 92.9367H208.588V100.617C208.588 100.876 208.626 101.075 208.705 101.213C208.787 101.347 208.895 101.441 209.027 101.49C209.159 101.54 209.306 101.564 209.466 101.564C209.588 101.564 209.698 101.556 209.799 101.538C209.903 101.52 209.981 101.505 210.034 101.49L210.362 102.997C210.257 103.033 210.11 103.072 209.917 103.114C209.727 103.158 209.495 103.181 209.22 103.189C208.734 103.203 208.295 103.131 207.906 102.971C207.517 102.808 207.207 102.555 206.979 102.214C206.754 101.874 206.643 101.448 206.646 100.936V92.9367ZM211.834 103.077V94.8961H213.775V103.077H211.834ZM212.811 93.7352C212.503 93.7352 212.238 93.6343 212.018 93.4316C211.796 93.2254 211.685 92.9788 211.685 92.691C211.685 92.4005 211.796 92.154 212.018 91.9513C212.238 91.7451 212.503 91.6424 212.811 91.6424C213.121 91.6424 213.386 91.7451 213.604 91.9513C213.825 92.154 213.936 92.4005 213.936 92.691C213.936 92.9788 213.825 93.2254 213.604 93.4316C213.386 93.6343 213.121 93.7352 212.811 93.7352ZM217.711 98.2833V103.077H215.771V92.1698H217.668V96.2861H217.765C217.959 95.8245 218.257 95.4612 218.66 95.1954C219.068 94.9251 219.586 94.79 220.215 94.79C220.788 94.79 221.285 94.9093 221.71 95.1471C222.136 95.384 222.465 95.7324 222.697 96.1913C222.933 96.6485 223.051 97.2084 223.051 97.8682V103.077H221.111V98.1675C221.111 97.6164 220.968 97.189 220.681 96.8828C220.399 96.5739 220.003 96.4195 219.492 96.4195C219.149 96.4195 218.841 96.495 218.57 96.6433C218.301 96.7889 218.091 97.0004 217.937 97.2777C217.787 97.5541 217.711 97.8893 217.711 98.2833ZM227.4 103.243C226.877 103.243 226.407 103.15 225.989 102.966C225.574 102.777 225.246 102.501 225.003 102.135C224.764 101.769 224.644 101.318 224.644 100.782C224.644 100.32 224.729 99.9382 224.901 99.6364C225.072 99.3345 225.306 99.0941 225.603 98.9116C225.9 98.7308 226.234 98.5948 226.606 98.5018C226.981 98.4061 227.369 98.3368 227.769 98.2947C228.251 98.2447 228.644 98.1999 228.943 98.1613C229.243 98.1192 229.462 98.0543 229.597 97.9691C229.737 97.8814 229.806 97.7445 229.806 97.5593V97.5278C229.806 97.1259 229.687 96.8161 229.447 96.595C229.207 96.3756 228.862 96.2651 228.413 96.2651C227.937 96.2651 227.56 96.3686 227.281 96.5739C227.006 96.7801 226.82 97.0232 226.724 97.304L224.911 97.0486C225.055 96.5511 225.291 96.136 225.619 95.8017C225.948 95.4648 226.35 95.2129 226.825 95.0453C227.3 94.8751 227.826 94.79 228.401 94.79C228.798 94.79 229.193 94.8365 229.587 94.9286C229.979 95.0208 230.339 95.1726 230.664 95.3858C230.989 95.5955 231.25 95.8816 231.447 96.244C231.647 96.6064 231.747 97.0583 231.747 97.6023V103.077H229.882V101.953H229.817C229.699 102.181 229.533 102.393 229.319 102.593C229.108 102.787 228.841 102.946 228.52 103.067C228.202 103.183 227.829 103.243 227.4 103.243ZM227.903 101.826C228.293 101.826 228.63 101.749 228.917 101.597C229.203 101.441 229.421 101.234 229.576 100.978C229.733 100.723 229.812 100.444 229.812 100.142V99.1783C229.751 99.2283 229.647 99.2749 229.5 99.317C229.357 99.36 229.197 99.3977 229.018 99.4284C228.839 99.4609 228.663 99.4898 228.487 99.5135C228.313 99.539 228.16 99.5601 228.032 99.5785C227.742 99.6171 227.483 99.6811 227.255 99.7698C227.026 99.8593 226.846 99.983 226.713 100.142C226.58 100.299 226.515 100.502 226.515 100.75C226.515 101.105 226.644 101.373 226.906 101.555C227.167 101.735 227.5 101.826 227.903 101.826ZM235.639 98.2833V103.077H233.698V94.8961H235.553V96.2861H235.65C235.839 95.828 236.141 95.4648 236.556 95.1954C236.974 94.9251 237.491 94.79 238.105 94.79C238.673 94.79 239.169 94.9111 239.59 95.1515C240.016 95.3937 240.344 95.7429 240.577 96.201C240.813 96.659 240.929 97.2145 240.925 97.8682V103.077H238.984V98.1675C238.984 97.6199 238.841 97.1917 238.555 96.8828C238.274 96.5739 237.881 96.4195 237.382 96.4195C237.041 96.4195 236.739 96.495 236.475 96.6433C236.215 96.7889 236.009 97.0004 235.859 97.2777C235.712 97.5541 235.639 97.8893 235.639 98.2833Z" fill="white"/>
<g opacity="0.5">
<mask id="mask0_577_16761" style="mask-type:luminance" maskUnits="userSpaceOnUse" x="160" y="108" width="82" height="3">
<path d="M160.152 108.384H241.398V110.23H160.152V108.384Z" fill="white"/>
</mask>
<g mask="url(#mask0_577_16761)">
<path d="M241.398 108.384H160.152V112.077H241.398V108.384Z" fill="white"/>
</g>
</g>
<path d="M147.522 156.379H38.6815C32.5244 156.379 27.5331 161.338 27.5331 167.455V276.322C27.5331 282.438 32.5244 287.397 38.6815 287.397H147.522C153.679 287.397 158.671 282.438 158.671 276.322V167.455C158.671 161.338 153.679 156.379 147.522 156.379Z" fill="#F5F5F5"/>
<path d="M62.0457 171.377H57.1219C50.7853 171.377 45.6484 176.481 45.6484 182.776V187.668C45.6484 193.963 50.7853 199.066 57.1219 199.066H62.0457C68.3824 199.066 73.5193 193.963 73.5193 187.668V182.776C73.5193 176.481 68.3824 171.377 62.0457 171.377Z" fill="#F5F5F5"/>
<mask id="mask1_577_16761" style="mask-type:luminance" maskUnits="userSpaceOnUse" x="49" y="174" width="22" height="22">
<path d="M70.153 174.723H49.0176V195.721H70.153V174.723Z" fill="white"/>
</mask>
<g mask="url(#mask1_577_16761)">
<path opacity="0.3" d="M64.7871 186.097H58.8869C58.8869 185.571 58.5348 185.221 58.0061 185.221C57.4775 185.221 57.1255 185.571 57.1255 186.097H54.748L57.1255 182.073V178.223C56.5977 178.223 56.2447 177.873 56.2447 177.348C56.2447 176.823 56.5977 176.473 57.1255 176.473H62.4098C62.9384 176.473 63.2905 176.823 63.2905 177.348C63.2905 177.873 62.9384 178.223 62.4098 178.223V182.073L64.7871 186.097ZM60.6483 182.597C60.1197 182.597 59.7676 182.948 59.7676 183.472C59.7676 183.997 60.1197 184.346 60.6483 184.346C61.177 184.346 61.529 183.997 61.529 183.472C61.529 182.948 61.177 182.597 60.6483 182.597Z" fill="#A3CCAB"/>
<path d="M65.6672 193.971H53.7785C52.1935 193.971 51.1372 192.22 51.9297 190.821L54.6592 186.097H57.0374C57.0374 186.622 57.3896 186.972 57.9182 186.972C58.4459 186.972 58.798 186.622 58.798 186.097H64.6992L67.4287 190.821C68.3093 192.22 67.3404 193.971 65.6672 193.971ZM61.5284 187.847C60.5595 187.847 59.767 188.634 59.767 189.596C59.767 190.558 60.5595 191.345 61.5284 191.345C62.4974 191.345 63.2898 190.558 63.2898 189.596C63.2898 188.634 62.4974 187.847 61.5284 187.847Z" fill="#A3CCAB"/>
</g>
<path d="M54.5568 246.407C53.1159 246.407 51.8328 246.16 50.7069 245.668C49.5874 245.169 48.703 244.486 48.0526 243.616C47.4098 242.741 47.0781 241.73 47.0586 240.587H51.2662C51.2922 241.066 51.4501 241.488 51.7391 241.852C52.0354 242.21 52.4275 242.488 52.9161 242.687C53.4057 242.884 53.9557 242.984 54.567 242.984C55.2034 242.984 55.7664 242.871 56.2551 242.648C56.7446 242.424 57.1274 242.115 57.4033 241.719C57.6802 241.321 57.8186 240.865 57.8186 240.347C57.8186 239.823 57.6709 239.359 57.3745 238.957C57.0855 238.549 56.6676 238.229 56.1203 237.998C55.5797 237.768 54.9368 237.653 54.1898 237.653H52.3476V234.604H54.1898C54.8206 234.604 55.3771 234.496 55.8593 234.279C56.3489 234.062 56.7279 233.761 56.9983 233.377C57.2686 232.987 57.4033 232.534 57.4033 232.016C57.4033 231.524 57.2844 231.092 57.0466 230.722C56.8152 230.345 56.4873 230.051 56.0627 229.84C55.6438 229.629 55.1551 229.523 54.5958 229.523C54.0291 229.523 53.5117 229.626 53.0415 229.831C52.5724 230.028 52.1961 230.312 51.9128 230.684C51.6294 231.055 51.4789 231.489 51.4594 231.987H47.4544C47.4739 230.856 47.7991 229.86 48.4289 228.996C49.0597 228.134 49.9089 227.46 50.9773 226.973C52.0512 226.481 53.2635 226.235 54.6153 226.235C55.9791 226.235 57.172 226.481 58.1948 226.973C59.2178 227.465 60.012 228.131 60.5788 228.968C61.151 229.798 61.4344 230.732 61.4278 231.767C61.4344 232.867 61.0897 233.784 60.3948 234.518C59.7064 235.254 58.809 235.72 57.7025 235.918V236.072C59.1564 236.257 60.2629 236.758 61.0228 237.576C61.7883 238.389 62.1674 239.405 62.1608 240.625C62.1674 241.744 61.8422 242.738 61.1863 243.607C60.537 244.477 59.6395 245.16 58.494 245.659C57.3495 246.157 56.0367 246.407 54.5568 246.407ZM64.7389 246.138L72.9311 230.032V229.897H63.3872V226.503H77.2551V229.946L69.0524 246.138H64.7389Z" fill="#737373"/>
<path d="M46.6875 266.905V257.523H48.1117V262.004H48.2269L52.1874 257.523H53.9813L50.1723 261.747L53.9943 266.905H52.2794L49.2275 262.713L48.1117 263.987V266.905H46.6875ZM57.73 267.047C57.0323 267.047 56.4321 266.898 55.9276 266.602C55.4269 266.303 55.0395 265.883 54.7654 265.343C54.4951 264.8 54.3604 264.163 54.3604 263.433C54.3604 262.711 54.4951 262.077 54.7654 261.528C55.0395 260.977 55.4203 260.548 55.909 260.24C56.4015 259.931 56.9756 259.778 57.6333 259.778C58.0328 259.778 58.4202 259.843 58.7956 259.974C59.1709 260.106 59.5071 260.312 59.8054 260.592C60.1036 260.874 60.3387 261.239 60.5106 261.687C60.6824 262.134 60.7688 262.675 60.7688 263.313V263.798H55.1389V262.774H59.418C59.418 262.413 59.3437 262.093 59.1969 261.815C59.0492 261.535 58.842 261.313 58.5744 261.152C58.3097 260.99 57.9993 260.909 57.6426 260.909C57.2552 260.909 56.9171 261.003 56.6281 261.192C56.3429 261.379 56.1218 261.623 55.9648 261.926C55.8106 262.225 55.7344 262.55 55.7344 262.902V263.703C55.7344 264.174 55.8171 264.573 55.9834 264.902C56.1525 265.233 56.3875 265.485 56.6886 265.659C56.9895 265.829 57.3416 265.915 57.7439 265.915C58.0058 265.915 58.2437 265.878 58.4592 265.805C58.6739 265.729 58.8596 265.617 59.0166 265.467C59.1737 265.317 59.2935 265.131 59.3761 264.912L60.6815 265.145C60.5765 265.528 60.3889 265.861 60.1185 266.148C59.851 266.433 59.5146 266.655 59.1086 266.814C58.7064 266.968 58.2465 267.047 57.73 267.047ZM63.6766 257.523V266.905H62.298V257.523H63.6766ZM67.5925 267.061C67.1438 267.061 66.7378 266.978 66.3755 266.814C66.0123 266.645 65.7252 266.403 65.5133 266.085C65.3043 265.768 65.1994 265.378 65.1994 264.916C65.1994 264.52 65.2764 264.193 65.4297 263.936C65.5839 263.68 65.7911 263.476 66.0522 263.327C66.3132 263.178 66.6059 263.065 66.9282 262.989C67.2506 262.912 67.5795 262.853 67.9149 262.814C68.3395 262.765 68.6832 262.725 68.948 262.695C69.2118 262.662 69.4041 262.609 69.5239 262.536C69.6438 262.461 69.7042 262.343 69.7042 262.177V262.146C69.7042 261.745 69.5899 261.436 69.3623 261.215C69.1384 260.996 68.803 260.886 68.3581 260.886C67.8935 260.886 67.5274 260.989 67.2599 261.192C66.9961 261.394 66.813 261.619 66.7118 261.866L65.4158 261.572C65.57 261.145 65.7939 260.8 66.0893 260.538C66.3876 260.272 66.7303 260.081 67.1178 259.961C67.5043 259.838 67.9121 259.778 68.3395 259.778C68.6219 259.778 68.922 259.811 69.2378 259.878C69.5574 259.943 69.8556 260.062 70.1324 260.235C70.4121 260.41 70.6415 260.659 70.82 260.982C70.9984 261.303 71.0866 261.72 71.0866 262.233V266.905H69.7404V265.943H69.6856C69.5964 266.12 69.4626 266.294 69.2842 266.465C69.1059 266.636 68.8774 266.778 68.5978 266.891C68.318 267.004 67.9827 267.061 67.5925 267.061ZM67.8916 265.962C68.2734 265.962 68.5986 265.887 68.869 265.737C69.143 265.587 69.3502 265.392 69.4914 265.15C69.6364 264.907 69.7088 264.645 69.7088 264.367V263.46C69.6596 263.509 69.5639 263.555 69.4227 263.598C69.2842 263.637 69.1264 263.672 68.948 263.703C68.7696 263.731 68.5958 263.756 68.4267 263.78C68.2577 263.803 68.1165 263.82 68.0022 263.836C67.7356 263.869 67.4913 263.927 67.2692 264.006C67.0509 264.085 66.8763 264.199 66.7443 264.349C66.6152 264.496 66.5501 264.691 66.5501 264.935C66.5501 265.274 66.6765 265.531 66.9282 265.704C67.18 265.876 67.5015 265.962 67.8916 265.962ZM78.2302 261.586L76.98 261.807C76.9282 261.648 76.8448 261.497 76.7316 261.353C76.6209 261.21 76.4699 261.091 76.2794 261C76.0898 260.909 75.851 260.863 75.5656 260.863C75.1741 260.863 74.8492 260.949 74.5867 261.124C74.326 261.295 74.196 261.516 74.196 261.789C74.196 262.023 74.283 262.213 74.4577 262.356C74.6333 262.501 74.916 262.617 75.3075 262.709L76.4313 262.966C77.0836 263.115 77.5691 263.346 77.8887 263.656C78.2083 263.969 78.3681 264.373 78.3681 264.872C78.3681 265.292 78.2452 265.668 77.9993 265.997C77.7561 266.324 77.4173 266.581 76.98 266.767C76.5472 266.954 76.045 267.047 75.4726 267.047C74.6798 267.047 74.0327 266.878 73.5318 266.542C73.0311 266.204 72.7235 265.723 72.6092 265.101L73.9423 264.898C74.0248 265.244 74.196 265.504 74.4533 265.682C74.7114 265.856 75.0485 265.943 75.4629 265.943C75.916 265.943 76.2759 265.85 76.5472 265.663C76.8176 265.474 76.9528 265.244 76.9528 264.972C76.9528 264.752 76.8694 264.567 76.7035 264.417C76.5411 264.268 76.29 264.155 75.9519 264.078L74.7535 263.818C74.0933 263.668 73.6042 263.43 73.2874 263.103C72.9735 262.776 72.8174 262.363 72.8174 261.862C72.8174 261.446 72.9334 261.083 73.1676 260.771C73.4008 260.46 73.724 260.217 74.1355 260.044C74.5472 259.866 75.0196 259.778 75.5516 259.778C76.3163 259.778 76.9186 259.943 77.3584 260.272C77.7983 260.599 78.0889 261.037 78.2302 261.586ZM82.9651 258.742V257.523H90.2732V258.742H87.3259V266.905H85.9062V258.742H82.9651ZM93.8025 267.047C93.1037 267.047 92.5032 266.898 91.9992 266.602C91.4979 266.303 91.1107 265.883 90.8368 265.343C90.5664 264.8 90.4321 264.163 90.4321 263.433C90.4321 262.711 90.5664 262.077 90.8368 261.528C91.1107 260.977 91.4918 260.548 91.9808 260.24C92.4724 259.931 93.0466 259.778 93.7051 259.778C94.1045 259.778 94.4917 259.843 94.8666 259.974C95.2424 260.106 95.5786 260.312 95.8771 260.592C96.1748 260.874 96.4101 261.239 96.5821 261.687C96.7533 262.134 96.8403 262.675 96.8403 263.313V263.798H91.2099V262.774H95.4891C95.4891 262.413 95.4153 262.093 95.2678 261.815C95.1203 261.535 94.9131 261.313 94.6454 261.152C94.3811 260.99 94.0703 260.909 93.7139 260.909C93.3267 260.909 92.9887 261.003 92.6998 261.192C92.4145 261.379 92.1932 261.623 92.0361 261.926C91.8816 262.225 91.8061 262.55 91.8061 262.902V263.703C91.8061 264.174 91.8886 264.573 92.0545 264.902C92.224 265.233 92.4593 265.485 92.7595 265.659C93.0607 265.829 93.4127 265.915 93.8148 265.915C94.0773 265.915 94.3153 265.878 94.5304 265.805C94.7455 265.729 94.9307 265.617 95.0879 265.467C95.245 265.317 95.3653 265.131 95.4478 264.912L96.7525 265.145C96.648 265.528 96.4601 265.861 96.1897 266.148C95.9219 266.433 95.5857 266.655 95.18 266.814C94.7779 266.968 94.3179 267.047 93.8025 267.047ZM98.3697 266.905V259.869H99.7024V260.987H99.7761C99.9052 260.608 100.133 260.31 100.457 260.093C100.787 259.873 101.159 259.764 101.573 259.764C101.66 259.764 101.761 259.766 101.878 259.773C101.998 259.78 102.092 259.787 102.16 259.796V261.105C102.104 261.091 102.005 261.073 101.864 261.055C101.723 261.033 101.582 261.024 101.44 261.024C101.115 261.024 100.824 261.091 100.569 261.229C100.317 261.364 100.117 261.551 99.9693 261.793C99.8227 262.031 99.748 262.302 99.748 262.609V266.905H98.3697ZM105.75 267.043C105.178 267.043 104.668 266.897 104.219 266.606C103.773 266.314 103.423 265.897 103.168 265.357C102.916 264.813 102.789 264.161 102.789 263.401C102.789 262.64 102.917 261.99 103.172 261.449C103.431 260.909 103.785 260.496 104.234 260.209C104.682 259.922 105.19 259.778 105.759 259.778C106.198 259.778 106.552 259.851 106.82 259.997C107.09 260.141 107.299 260.31 107.447 260.501C107.597 260.694 107.715 260.863 107.797 261.01H107.88V257.523H109.258V266.905H107.912V265.81H107.797C107.715 265.96 107.593 266.13 107.437 266.323C107.284 266.515 107.072 266.683 106.802 266.828C106.531 266.971 106.181 267.043 105.75 267.043ZM106.054 265.874C106.451 265.874 106.786 265.77 107.06 265.563C107.336 265.353 107.545 265.06 107.687 264.687C107.831 264.314 107.903 263.882 107.903 263.387C107.903 262.898 107.832 262.471 107.691 262.104C107.55 261.738 107.341 261.453 107.068 261.248C106.795 261.043 106.456 260.941 106.054 260.941C105.639 260.941 105.293 261.048 105.017 261.262C104.741 261.476 104.531 261.766 104.39 262.136C104.252 262.506 104.183 262.923 104.183 263.387C104.183 263.857 104.253 264.279 104.394 264.656C104.536 265.031 104.745 265.329 105.021 265.549C105.301 265.766 105.645 265.874 106.054 265.874ZM113.287 267.061C112.838 267.061 112.432 266.978 112.069 266.814C111.708 266.645 111.42 266.403 111.207 266.085C110.998 265.768 110.895 265.378 110.895 264.916C110.895 264.52 110.971 264.193 111.125 263.936C111.278 263.68 111.485 263.476 111.747 263.327C112.009 263.178 112.3 263.065 112.623 262.989C112.945 262.912 113.275 262.853 113.61 262.814C114.033 262.765 114.378 262.725 114.643 262.695C114.907 262.662 115.099 262.609 115.219 262.536C115.339 262.461 115.398 262.343 115.398 262.177V262.146C115.398 261.745 115.285 261.436 115.058 261.215C114.832 260.996 114.499 260.886 114.053 260.886C113.588 260.886 113.223 260.989 112.955 261.192C112.69 261.394 112.507 261.619 112.406 261.866L111.111 261.572C111.264 261.145 111.489 260.8 111.784 260.538C112.082 260.272 112.425 260.081 112.812 259.961C113.199 259.838 113.607 259.778 114.033 259.778C114.317 259.778 114.616 259.811 114.933 259.878C115.253 259.943 115.55 260.062 115.828 260.235C116.107 260.41 116.336 260.659 116.514 260.982C116.693 261.303 116.782 261.72 116.782 262.233V266.905H115.435V265.943H115.38C115.29 266.12 115.157 266.294 114.98 266.465C114.801 266.636 114.571 266.778 114.292 266.891C114.012 267.004 113.677 267.061 113.287 267.061ZM113.586 265.962C113.967 265.962 114.294 265.887 114.564 265.737C114.837 265.587 115.046 265.392 115.187 265.15C115.331 264.907 115.403 264.645 115.403 264.367V263.46C115.354 263.509 115.259 263.555 115.117 263.598C114.98 263.637 114.821 263.672 114.643 263.703C114.463 263.731 114.29 263.756 114.121 263.78C113.952 263.803 113.81 263.82 113.697 263.836C113.43 263.869 113.185 263.927 112.965 264.006C112.746 264.085 112.571 264.199 112.439 264.349C112.309 264.496 112.245 264.691 112.245 264.935C112.245 265.274 112.37 265.531 112.623 265.704C112.875 265.876 113.197 265.962 113.586 265.962ZM121.988 259.869V260.969H117.986V259.869H121.988ZM119.084 266.905V259.054C119.084 258.613 119.181 258.249 119.374 257.96C119.568 257.666 119.824 257.448 120.144 257.304C120.463 257.158 120.811 257.084 121.186 257.084C121.463 257.084 121.699 257.108 121.896 257.152C122.093 257.196 122.239 257.236 122.333 257.272L122.011 258.38C121.946 258.362 121.864 258.34 121.762 258.317C121.661 258.289 121.537 258.275 121.393 258.275C121.058 258.275 120.818 258.358 120.674 258.522C120.532 258.687 120.462 258.926 120.462 259.236V266.905H119.084ZM126.716 259.869V260.969H122.848V259.869H126.716ZM123.885 258.183H125.264V264.839C125.264 265.105 125.304 265.304 125.383 265.439C125.463 265.57 125.567 265.661 125.693 265.71C125.822 265.754 125.961 265.778 126.112 265.778C126.223 265.778 126.32 265.77 126.403 265.754C126.485 265.74 126.55 265.728 126.596 265.718L126.845 266.85C126.765 266.88 126.652 266.911 126.504 266.942C126.356 266.975 126.173 266.993 125.951 266.996C125.588 267.002 125.25 266.938 124.937 266.804C124.622 266.67 124.369 266.462 124.176 266.181C123.981 265.9 123.885 265.547 123.885 265.123V258.183ZM130.302 267.061C129.853 267.061 129.448 266.978 129.085 266.814C128.722 266.645 128.434 266.403 128.223 266.085C128.014 265.768 127.908 265.378 127.908 264.916C127.908 264.52 127.986 264.193 128.14 263.936C128.293 263.68 128.5 263.476 128.763 263.327C129.023 263.178 129.315 263.065 129.638 262.989C129.961 262.912 130.289 262.853 130.624 262.814C131.049 262.765 131.393 262.725 131.657 262.695C131.922 262.662 132.114 262.609 132.233 262.536C132.354 262.461 132.413 262.343 132.413 262.177V262.146C132.413 261.745 132.3 261.436 132.073 261.215C131.848 260.996 131.513 260.886 131.067 260.886C130.603 260.886 130.238 260.989 129.97 261.192C129.706 261.394 129.522 261.619 129.421 261.866L128.126 261.572C128.279 261.145 128.505 260.8 128.799 260.538C129.097 260.272 129.44 260.081 129.827 259.961C130.215 259.838 130.621 259.778 131.049 259.778C131.332 259.778 131.631 259.811 131.948 259.878C132.268 259.943 132.566 260.062 132.843 260.235C133.123 260.41 133.351 260.659 133.529 260.982C133.707 261.303 133.797 261.72 133.797 262.233V266.905H132.451V265.943H132.395C132.306 266.12 132.172 266.294 131.994 266.465C131.815 266.636 131.587 266.778 131.307 266.891C131.028 267.004 130.692 267.061 130.302 267.061ZM130.602 265.962C130.983 265.962 131.309 265.887 131.579 265.737C131.852 265.587 132.06 265.392 132.202 265.15C132.346 264.907 132.419 264.645 132.419 264.367V263.46C132.369 263.509 132.274 263.555 132.132 263.598C131.994 263.637 131.836 263.672 131.657 263.703C131.479 263.731 131.305 263.756 131.136 263.78C130.967 263.803 130.826 263.82 130.713 263.836C130.445 263.869 130.201 263.927 129.98 264.006C129.761 264.085 129.585 264.199 129.454 264.349C129.325 264.496 129.26 264.691 129.26 264.935C129.26 265.274 129.386 265.531 129.638 265.704C129.89 265.876 130.21 265.962 130.602 265.962ZM135.633 266.905V259.869H136.965V260.987H137.039C137.168 260.608 137.396 260.31 137.721 260.093C138.05 259.873 138.423 259.764 138.837 259.764C138.923 259.764 139.024 259.766 139.142 259.773C139.261 259.78 139.355 259.787 139.423 259.796V261.105C139.368 261.091 139.269 261.073 139.128 261.055C138.987 261.033 138.845 261.024 138.703 261.024C138.378 261.024 138.087 261.091 137.832 261.229C137.58 261.364 137.38 261.551 137.232 261.793C137.085 262.031 137.011 262.302 137.011 262.609V266.905H135.633Z" fill="#A3A3A3"/>
<path d="M297.241 156.379H188.4C182.243 156.379 177.252 161.338 177.252 167.455V276.322C177.252 282.438 182.243 287.397 188.4 287.397H297.241C303.398 287.397 308.389 282.438 308.389 276.322V167.455C308.389 161.338 303.398 156.379 297.241 156.379Z" fill="#F5F5F5"/>
<path d="M211.765 171.377H206.841C200.504 171.377 195.367 176.481 195.367 182.776V187.668C195.367 193.963 200.504 199.066 206.841 199.066H211.765C218.101 199.066 223.238 193.963 223.238 187.668V182.776C223.238 176.481 218.101 171.377 211.765 171.377Z" fill="#F5F5F5"/>
<mask id="mask2_577_16761" style="mask-type:luminance" maskUnits="userSpaceOnUse" x="198" y="174" width="22" height="22">
<path d="M219.87 174.723H198.734V195.721H219.87V174.723Z" fill="white"/>
</mask>
<g mask="url(#mask2_577_16761)">
<path d="M216.348 191.981V191.106C216.348 190.58 215.996 190.231 215.467 190.231H203.138C202.61 190.231 202.258 190.58 202.258 191.106V191.981H201.378C200.848 191.981 200.496 192.331 200.496 192.855V193.729H218.109V192.855C218.109 192.331 217.757 191.981 217.228 191.981H216.348Z" fill="#A3CCAB"/>
<path opacity="0.3" d="M218.109 180.607V181.481C218.109 182.007 217.757 182.357 217.228 182.357H214.586C215.115 182.357 215.467 182.706 215.467 183.232C215.467 183.756 215.115 184.107 214.586 184.107V188.48C215.115 188.48 215.467 188.83 215.467 189.356V190.231H211.945V189.356C211.945 188.83 212.297 188.48 212.825 188.48V184.107C212.297 184.107 211.945 183.756 211.945 183.232C211.945 182.706 212.297 182.357 212.825 182.357H210.183C210.712 182.357 211.064 182.706 211.064 183.232C211.064 183.756 210.712 184.107 210.183 184.107V188.48C210.712 188.48 211.064 188.83 211.064 189.356V190.231H207.542V189.356C207.542 188.83 207.894 188.48 208.422 188.48V184.107C207.894 184.107 207.542 183.756 207.542 183.232C207.542 182.706 207.894 182.357 208.422 182.357H205.78C206.308 182.357 206.66 182.706 206.66 183.232C206.66 183.756 206.308 184.107 205.78 184.107V188.48C206.308 188.48 206.66 188.83 206.66 189.356V190.231H203.138V189.356C203.138 188.83 203.491 188.48 204.018 188.48V184.107C203.491 184.107 203.138 183.756 203.138 183.232C203.138 182.706 203.491 182.357 204.018 182.357H201.378C200.848 182.357 200.496 182.007 200.496 181.481V180.607L208.422 176.669C208.951 176.408 209.655 176.408 210.272 176.669L218.109 180.607ZM209.303 177.982C208.599 177.982 207.982 178.594 207.982 179.295C207.982 179.994 208.599 180.607 209.303 180.607C210.007 180.607 210.624 179.994 210.624 179.295C210.624 178.594 210.007 177.982 209.303 177.982Z" fill="#A3CCAB"/>
</g>
<path d="M204.554 246.407C203.537 246.4 202.556 246.23 201.611 245.898C200.672 245.566 199.828 245.025 199.082 244.278C198.336 243.53 197.744 242.539 197.306 241.306C196.875 240.072 196.66 238.557 196.66 236.761C196.666 235.113 196.856 233.64 197.229 232.342C197.608 231.038 198.149 229.932 198.851 229.025C199.558 228.118 200.404 227.427 201.389 226.954C202.373 226.475 203.477 226.235 204.698 226.235C206.017 226.235 207.182 226.491 208.192 227.002C209.202 227.507 210.012 228.194 210.623 229.064C211.241 229.932 211.614 230.907 211.743 231.987H207.622C207.462 231.304 207.124 230.767 206.609 230.377C206.095 229.987 205.458 229.792 204.698 229.792C203.413 229.792 202.434 230.347 201.765 231.46C201.103 232.572 200.765 234.084 200.751 235.994H200.887C201.182 235.413 201.581 234.918 202.083 234.509C202.592 234.093 203.167 233.778 203.811 233.56C204.46 233.336 205.146 233.225 205.866 233.225C207.038 233.225 208.079 233.499 208.993 234.049C209.906 234.593 210.627 235.34 211.153 236.292C211.681 237.244 211.945 238.334 211.945 239.561C211.945 240.891 211.633 242.073 211.009 243.109C210.392 244.143 209.526 244.955 208.414 245.543C207.306 246.125 206.021 246.413 204.554 246.407ZM204.535 243.147C205.177 243.147 205.753 242.993 206.261 242.687C206.77 242.38 207.169 241.964 207.458 241.44C207.748 240.917 207.893 240.328 207.893 239.676C207.893 239.024 207.748 238.44 207.458 237.921C207.175 237.403 206.783 236.992 206.281 236.685C205.779 236.378 205.207 236.225 204.564 236.225C204.081 236.225 203.633 236.314 203.222 236.493C202.816 236.672 202.46 236.922 202.151 237.241C201.849 237.56 201.611 237.932 201.437 238.354C201.263 238.769 201.176 239.213 201.176 239.686C201.176 240.318 201.321 240.898 201.611 241.421C201.906 241.944 202.305 242.364 202.808 242.676C203.316 242.99 203.891 243.147 204.535 243.147Z" fill="#737373"/>
<path d="M201.554 259.987C201.505 259.554 201.302 259.219 200.946 258.981C200.589 258.739 200.14 258.619 199.599 258.619C199.212 258.619 198.877 258.68 198.595 258.802C198.312 258.921 198.092 259.086 197.935 259.297C197.782 259.504 197.705 259.741 197.705 260.007C197.705 260.23 197.757 260.422 197.862 260.583C197.969 260.746 198.108 260.882 198.281 260.991C198.456 261.098 198.644 261.189 198.843 261.262C199.044 261.332 199.236 261.39 199.419 261.436L200.342 261.674C200.643 261.747 200.952 261.847 201.268 261.972C201.585 262.097 201.878 262.261 202.149 262.466C202.419 262.671 202.638 262.924 202.804 263.226C202.973 263.528 203.058 263.891 203.058 264.312C203.058 264.844 202.919 265.316 202.642 265.728C202.369 266.14 201.971 266.465 201.448 266.704C200.929 266.942 200.3 267.061 199.562 267.061C198.856 267.061 198.245 266.949 197.727 266.726C197.211 266.503 196.807 266.188 196.515 265.778C196.224 265.366 196.062 264.877 196.031 264.312H197.46C197.488 264.651 197.598 264.933 197.792 265.159C197.989 265.382 198.239 265.549 198.543 265.659C198.851 265.766 199.188 265.819 199.554 265.819C199.957 265.819 200.314 265.756 200.628 265.631C200.944 265.503 201.193 265.326 201.375 265.101C201.556 264.872 201.647 264.604 201.647 264.299C201.647 264.02 201.567 263.793 201.407 263.616C201.251 263.439 201.036 263.292 200.766 263.175C200.499 263.06 200.196 262.958 199.858 262.869L198.742 262.566C197.986 262.363 197.387 262.062 196.943 261.665C196.504 261.268 196.285 260.742 196.285 260.088C196.285 259.549 196.432 259.077 196.727 258.674C197.022 258.27 197.422 257.957 197.926 257.735C198.43 257.509 198.999 257.395 199.632 257.395C200.272 257.395 200.835 257.507 201.324 257.731C201.815 257.953 202.202 258.26 202.486 258.65C202.769 259.038 202.916 259.484 202.928 259.987H201.554ZM207.702 267.047C207.004 267.047 206.403 266.898 205.899 266.602C205.397 266.303 205.01 265.883 204.737 265.343C204.467 264.8 204.331 264.163 204.331 263.433C204.331 262.711 204.467 262.077 204.737 261.528C205.01 260.977 205.391 260.548 205.88 260.24C206.373 259.931 206.946 259.778 207.604 259.778C208.005 259.778 208.391 259.843 208.766 259.974C209.142 260.106 209.478 260.312 209.777 260.592C210.074 260.874 210.309 261.239 210.482 261.687C210.654 262.134 210.74 262.675 210.74 263.313V263.798H205.111V262.774H209.388C209.388 262.413 209.316 262.093 209.168 261.815C209.02 261.535 208.813 261.313 208.546 261.152C208.28 260.99 207.971 260.909 207.613 260.909C207.227 260.909 206.889 261.003 206.6 261.192C206.314 261.379 206.093 261.623 205.935 261.926C205.783 262.225 205.705 262.55 205.705 262.902V263.703C205.705 264.174 205.788 264.573 205.954 264.902C206.123 265.233 206.359 265.485 206.659 265.659C206.96 265.829 207.312 265.915 207.716 265.915C207.977 265.915 208.215 265.878 208.43 265.805C208.645 265.729 208.832 265.617 208.987 265.467C209.144 265.317 209.265 265.131 209.347 264.912L210.653 265.145C210.547 265.528 210.36 265.861 210.089 266.148C209.823 266.433 209.485 266.655 209.08 266.814C208.677 266.968 208.218 267.047 207.702 267.047ZM212.269 266.905V259.869H213.602V260.987H213.676C213.805 260.608 214.032 260.31 214.359 260.093C214.687 259.873 215.058 259.764 215.474 259.764C215.56 259.764 215.661 259.766 215.777 259.773C215.898 259.78 215.992 259.787 216.059 259.796V261.105C216.004 261.091 215.905 261.073 215.764 261.055C215.623 261.033 215.481 261.024 215.34 261.024C215.014 261.024 214.723 261.091 214.468 261.229C214.216 261.364 214.016 261.551 213.87 261.793C213.722 262.031 213.647 262.302 213.647 262.609V266.905H212.269ZM220.977 259.869V260.969H217.108V259.869H220.977ZM218.145 258.183H219.524V264.839C219.524 265.105 219.563 265.304 219.643 265.439C219.723 265.57 219.826 265.661 219.953 265.71C220.082 265.754 220.222 265.778 220.372 265.778C220.483 265.778 220.58 265.77 220.662 265.754C220.745 265.74 220.811 265.728 220.856 265.718L221.106 266.85C221.026 266.88 220.912 266.911 220.764 266.942C220.616 266.975 220.432 266.993 220.211 266.996C219.848 267.002 219.51 266.938 219.197 266.804C218.884 266.67 218.63 266.462 218.436 266.181C218.243 265.9 218.145 265.547 218.145 265.123V258.183ZM222.501 266.905V259.869H223.88V266.905H222.501ZM223.197 258.784C222.957 258.784 222.752 258.704 222.579 258.545C222.41 258.383 222.325 258.191 222.325 257.968C222.325 257.742 222.41 257.55 222.579 257.391C222.752 257.23 222.957 257.148 223.197 257.148C223.437 257.148 223.641 257.23 223.81 257.391C223.983 257.55 224.069 257.742 224.069 257.968C224.069 258.191 223.983 258.383 223.81 258.545C223.641 258.704 223.437 258.784 223.197 258.784ZM229.105 259.869V260.969H225.102V259.869H229.105ZM226.2 266.905V259.054C226.2 258.613 226.297 258.249 226.49 257.96C226.683 257.666 226.941 257.448 227.26 257.304C227.58 257.158 227.927 257.084 228.302 257.084C228.579 257.084 228.816 257.108 229.013 257.152C229.208 257.196 229.355 257.236 229.451 257.272L229.128 258.38C229.063 258.362 228.98 258.34 228.879 258.317C228.776 258.289 228.654 258.275 228.51 258.275C228.175 258.275 227.935 258.358 227.79 258.522C227.649 258.687 227.578 258.926 227.578 259.236V266.905H226.2ZM230.527 266.905V259.869H231.905V266.905H230.527ZM231.223 258.784C230.984 258.784 230.777 258.704 230.605 258.545C230.436 258.383 230.351 258.191 230.351 257.968C230.351 257.742 230.436 257.55 230.605 257.391C230.777 257.23 230.984 257.148 231.223 257.148C231.463 257.148 231.667 257.23 231.836 257.391C232.009 257.55 232.094 257.742 232.094 257.968C232.094 258.191 232.009 258.383 231.836 258.545C231.667 258.704 231.463 258.784 231.223 258.784ZM235.028 264.518L235.019 262.846H235.258L238.08 259.869H239.731L236.513 263.259H236.295L235.028 264.518ZM233.76 266.905V257.523H235.139V266.905H233.76ZM238.232 266.905L235.696 263.561L236.646 262.603L239.924 266.905H238.232ZM243.048 267.061C242.599 267.061 242.194 266.978 241.831 266.814C241.468 266.645 241.18 266.403 240.969 266.085C240.76 265.768 240.655 265.378 240.655 264.916C240.655 264.52 240.731 264.193 240.886 263.936C241.039 263.68 241.247 263.476 241.508 263.327C241.769 263.178 242.061 263.065 242.384 262.989C242.707 262.912 243.035 262.853 243.371 262.814C243.795 262.765 244.139 262.725 244.403 262.695C244.667 262.662 244.86 262.609 244.98 262.536C245.099 262.461 245.159 262.343 245.159 262.177V262.146C245.159 261.745 245.046 261.436 244.818 261.215C244.594 260.996 244.259 260.886 243.813 260.886C243.35 260.886 242.983 260.989 242.716 261.192C242.451 261.394 242.269 261.619 242.167 261.866L240.872 261.572C241.025 261.145 241.249 260.8 241.544 260.538C241.843 260.272 242.185 260.081 242.573 259.961C242.96 259.838 243.367 259.778 243.795 259.778C244.077 259.778 244.377 259.811 244.694 259.878C245.013 259.943 245.312 260.062 245.588 260.235C245.868 260.41 246.097 260.659 246.275 260.982C246.453 261.303 246.543 261.72 246.543 262.233V266.905H245.197V265.943H245.141C245.051 266.12 244.918 266.294 244.74 266.465C244.562 266.636 244.332 266.778 244.053 266.891C243.773 267.004 243.438 267.061 243.048 267.061ZM243.348 265.962C243.729 265.962 244.055 265.887 244.325 265.737C244.598 265.587 244.806 265.392 244.947 265.15C245.091 264.907 245.163 264.645 245.163 264.367V263.46C245.114 263.509 245.019 263.555 244.879 263.598C244.74 263.637 244.581 263.672 244.403 263.703C244.225 263.731 244.052 263.756 243.882 263.78C243.714 263.803 243.572 263.82 243.458 263.836C243.191 263.869 242.947 263.927 242.725 264.006C242.507 264.085 242.331 264.199 242.199 264.349C242.07 264.496 242.006 264.691 242.006 264.935C242.006 265.274 242.132 265.531 242.384 265.704C242.636 265.876 242.957 265.962 243.348 265.962ZM251.685 259.869V260.969H247.817V259.869H251.685ZM248.854 258.183H250.232V264.839C250.232 265.105 250.271 265.304 250.352 265.439C250.432 265.57 250.535 265.661 250.661 265.71C250.79 265.754 250.929 265.778 251.081 265.778C251.191 265.778 251.288 265.77 251.371 265.754C251.454 265.74 251.518 265.728 251.565 265.718L251.814 266.85C251.734 266.88 251.62 266.911 251.471 266.942C251.325 266.975 251.141 266.993 250.919 266.996C250.557 267.002 250.219 266.938 249.904 266.804C249.592 266.67 249.338 266.462 249.144 266.181C248.951 265.9 248.854 265.547 248.854 265.123V258.183Z" fill="#A3A3A3"/>
<path d="M147.522 305.857H38.6815C32.5244 305.857 27.5331 310.816 27.5331 316.933V425.799C27.5331 431.916 32.5244 436.875 38.6815 436.875H147.522C153.679 436.875 158.671 431.916 158.671 425.799V316.933C158.671 310.816 153.679 305.857 147.522 305.857Z" fill="#F5F5F5"/>
<path d="M62.0457 320.855H57.1219C50.7853 320.855 45.6484 325.959 45.6484 332.254V337.146C45.6484 343.441 50.7853 348.544 57.1219 348.544H62.0457C68.3824 348.544 73.5193 343.441 73.5193 337.146V332.254C73.5193 325.959 68.3824 320.855 62.0457 320.855Z" fill="#F5F5F5"/>
<mask id="mask3_577_16761" style="mask-type:luminance" maskUnits="userSpaceOnUse" x="49" y="324" width="22" height="22">
<path d="M70.153 324.201H49.0176V345.199H70.153V324.201Z" fill="white"/>
</mask>
<g mask="url(#mask3_577_16761)">
<path opacity="0.3" d="M67.4218 335.487C66.8932 335.487 66.5411 335.137 66.5411 334.612C66.5411 334.088 66.8932 333.738 67.4218 333.738H68.2142C67.7739 329.625 64.5158 326.301 60.377 325.951V326.738C60.377 327.263 60.0249 327.613 59.4963 327.613C58.9677 327.613 58.6156 327.263 58.6156 326.738V325.951C54.4768 326.389 51.1304 329.625 50.7773 333.738H51.5708C52.0984 333.738 52.4506 334.088 52.4506 334.612C52.4506 335.137 52.0984 335.487 51.5708 335.487H50.7773C51.2177 339.6 54.4768 342.924 58.6156 343.274V342.487C58.6156 341.962 58.9677 341.611 59.4963 341.611C60.0249 341.611 60.377 341.962 60.377 342.487V343.274C64.5158 342.836 67.8622 339.6 68.2142 335.487H67.4218Z" fill="#8CB817"/>
<path d="M63.8993 333.738H60.9932C60.8168 333.475 60.6412 333.301 60.3764 333.125V329.363C60.3764 328.838 60.0243 328.488 59.4956 328.488C58.967 328.488 58.615 328.838 58.615 329.363V333.125C58.3511 333.301 58.1746 333.475 57.999 333.738H57.7342C57.2065 333.738 56.8535 334.088 56.8535 334.612C56.8535 335.137 57.2065 335.487 57.7342 335.487H57.999C58.1746 335.75 58.3511 335.924 58.615 336.1V336.362C58.615 336.887 58.967 337.237 59.4956 337.237C60.0243 337.237 60.3764 336.887 60.3764 336.362V336.1C60.6412 335.924 60.8168 335.75 60.9932 335.487H63.8993C64.4279 335.487 64.78 335.137 64.78 334.612C64.78 334.088 64.4279 333.738 63.8993 333.738Z" fill="#8CB817"/>
</g>
<path d="M54.5568 395.885C53.1159 395.885 51.8328 395.638 50.7069 395.146C49.5874 394.647 48.703 393.964 48.0526 393.094C47.4098 392.219 47.0781 391.209 47.0586 390.065H51.2662C51.2922 390.544 51.4501 390.966 51.7391 391.33C52.0354 391.688 52.4275 391.966 52.9161 392.165C53.4057 392.362 53.9557 392.462 54.567 392.462C55.2034 392.462 55.7664 392.35 56.2551 392.126C56.7446 391.902 57.1274 391.593 57.4033 391.196C57.6802 390.799 57.8186 390.343 57.8186 389.825C57.8186 389.302 57.6709 388.837 57.3745 388.435C57.0855 388.026 56.6676 387.707 56.1203 387.476C55.5797 387.246 54.9368 387.131 54.1898 387.131H52.3476V384.082H54.1898C54.8206 384.082 55.3771 383.974 55.8593 383.757C56.3489 383.54 56.7279 383.239 56.9983 382.855C57.2686 382.466 57.4033 382.012 57.4033 381.494C57.4033 381.002 57.2844 380.57 57.0466 380.2C56.8152 379.823 56.4873 379.529 56.0627 379.317C55.6438 379.108 55.1551 379.001 54.5958 379.001C54.0291 379.001 53.5117 379.103 53.0415 379.309C52.5724 379.506 52.1961 379.791 51.9128 380.162C51.6294 380.533 51.4789 380.967 51.4594 381.465H47.4544C47.4739 380.334 47.7991 379.338 48.4289 378.474C49.0597 377.612 49.9089 376.938 50.9773 376.451C52.0512 375.959 53.2635 375.714 54.6153 375.714C55.9791 375.714 57.172 375.959 58.1948 376.451C59.2178 376.944 60.012 377.609 60.5788 378.446C61.151 379.276 61.4344 380.21 61.4278 381.245C61.4344 382.344 61.0897 383.262 60.3948 383.996C59.7064 384.731 58.809 385.198 57.7025 385.397V385.549C59.1564 385.735 60.2629 386.236 61.0228 387.054C61.7883 387.867 62.1674 388.883 62.1608 390.104C62.1674 391.221 61.8422 392.216 61.1863 393.085C60.537 393.954 59.6395 394.638 58.494 395.137C57.3495 395.635 56.0367 395.885 54.5568 395.885ZM67.906 392.932L67.8 393.986C67.7164 394.829 67.5557 395.67 67.317 396.508C67.0856 397.351 66.8413 398.115 66.584 398.799C66.3331 399.483 66.1306 400.019 65.9763 400.41H63.3129C63.4095 400.032 63.5414 399.505 63.7087 398.828C63.8758 398.156 64.0329 397.403 64.1815 396.565C64.3292 395.727 64.4221 394.874 64.4612 394.005L64.5094 392.932H67.906ZM70.4571 395.616L78.6493 379.51V379.375H69.1062V375.981H82.9732V379.423L74.7705 395.616H70.4571Z" fill="#737373"/>
<path d="M48.1117 407.002V416.383H46.6875V407.002H48.1117ZM50.1862 416.383V407.002H53.5521C54.287 407.002 54.8955 407.134 55.3777 407.4C55.8607 407.666 56.2212 408.03 56.4619 408.49C56.7015 408.949 56.8214 409.465 56.8214 410.039C56.8214 410.616 56.6996 411.135 56.4572 411.596C56.2166 412.054 55.8542 412.417 55.3684 412.686C54.8862 412.952 54.2787 413.084 53.5475 413.084H51.2333V411.885H53.4183C53.8829 411.885 54.2591 411.806 54.548 411.647C54.8369 411.485 55.0488 411.264 55.1844 410.987C55.3191 410.709 55.387 410.393 55.387 410.039C55.387 409.685 55.3191 409.37 55.1844 409.094C55.0488 408.821 54.8351 408.605 54.5434 408.449C54.2544 408.293 53.8736 408.216 53.3997 408.216H51.6113V416.383H50.1862ZM58.4908 416.383V407.002H59.9159V411.481H60.0311L63.9916 407.002H65.7846L61.9766 411.225L65.7986 416.383H64.0836L61.0317 412.191L59.9159 413.465V416.383H58.4908ZM70.5487 416.383V407.002H73.9142C74.6455 407.002 75.2531 407.127 75.7351 407.377C76.2215 407.628 76.5841 407.975 76.8238 408.417C77.0634 408.857 77.1828 409.366 77.1828 409.943C77.1828 410.517 77.0617 411.022 76.8185 411.458C76.5788 411.892 76.2171 412.23 75.7307 412.471C75.2487 412.712 74.6412 412.833 73.9098 412.833H71.3607V411.615H73.7808C74.2417 411.615 74.6166 411.549 74.9054 411.418C75.1978 411.285 75.4111 411.095 75.5472 410.845C75.6815 410.595 75.7491 410.294 75.7491 409.943C75.7491 409.588 75.6807 409.281 75.5419 409.022C75.4067 408.763 75.1925 408.564 74.901 408.427C74.6122 408.286 74.232 408.216 73.7621 408.216H71.9738V416.383H70.5487ZM75.2092 412.151L77.5437 416.383H75.9203L73.633 412.151H75.2092ZM80.8676 416.538C80.419 416.538 80.0125 416.457 79.649 416.291C79.2873 416.123 79.0002 415.88 78.7869 415.563C78.5779 415.246 78.4743 414.856 78.4743 414.394C78.4743 413.998 78.5516 413.671 78.7043 413.414C78.8589 413.158 79.0661 412.954 79.3268 412.805C79.5884 412.655 79.8808 412.543 80.203 412.467C80.5252 412.389 80.8544 412.331 81.1898 412.292C81.6148 412.243 81.958 412.203 82.2232 412.173C82.4866 412.139 82.6788 412.086 82.7991 412.013C82.9185 411.939 82.9791 411.82 82.9791 411.656V411.623C82.9791 411.223 82.865 410.914 82.6376 410.693C82.4137 410.474 82.0783 410.364 81.6323 410.364C81.1688 410.364 80.8027 410.466 80.5349 410.671C80.2706 410.872 80.088 411.097 79.987 411.344L78.6903 411.051C78.8448 410.623 79.0687 410.278 79.3646 410.016C79.6622 409.75 80.0055 409.558 80.3918 409.439C80.7789 409.316 81.1872 409.255 81.6148 409.255C81.8966 409.255 82.1968 409.289 82.5129 409.356C82.8325 409.421 83.1301 409.539 83.4075 409.713C83.6867 409.888 83.9168 410.137 84.095 410.46C84.2723 410.781 84.3619 411.197 84.3619 411.71V416.383H83.0151V415.421H82.9607C82.8711 415.598 82.7377 415.771 82.5594 415.943C82.3803 416.114 82.1521 416.257 81.872 416.369C81.5919 416.482 81.2574 416.538 80.8676 416.538ZM81.1661 415.44C81.5472 415.44 81.8738 415.364 82.1442 415.215C82.4181 415.066 82.6253 414.87 82.7666 414.628C82.9115 414.384 82.9835 414.123 82.9835 413.845V412.938C82.9343 412.987 82.8386 413.033 82.6973 413.076C82.5594 413.115 82.4014 413.15 82.2232 413.181C82.0441 413.208 81.8711 413.234 81.7017 413.259C81.5322 413.28 81.3918 413.298 81.2767 413.313C81.0098 413.348 80.7649 413.404 80.5436 413.484C80.3259 413.563 80.1512 413.678 80.0186 413.827C79.8904 413.973 79.8246 414.168 79.8246 414.413C79.8246 414.752 79.951 415.008 80.203 415.182C80.455 415.354 80.7763 415.44 81.1661 415.44ZM89.5032 409.347V410.446H85.6349V409.347H89.5032ZM86.6727 407.661H88.0519V414.317C88.0519 414.583 88.0914 414.782 88.1713 414.917C88.2512 415.048 88.3548 415.139 88.4795 415.188C88.6085 415.232 88.749 415.255 88.9 415.255C89.0107 415.255 89.1072 415.248 89.1906 415.233C89.2732 415.218 89.3372 415.206 89.3838 415.197L89.6331 416.328C89.5532 416.358 89.4391 416.389 89.2916 416.42C89.1441 416.453 88.9589 416.472 88.7385 416.474C88.3759 416.48 88.0379 416.417 87.7236 416.282C87.4101 416.147 87.1573 415.94 86.9633 415.659C86.7692 415.378 86.6727 415.025 86.6727 414.602V407.661ZM93.0896 416.538C92.641 416.538 92.2354 416.457 91.8728 416.291C91.5093 416.123 91.2222 415.88 91.0106 415.563C90.8017 415.246 90.6963 414.856 90.6963 414.394C90.6963 413.998 90.7736 413.671 90.9272 413.414C91.0809 413.158 91.2881 412.954 91.5497 412.805C91.8105 412.655 92.1028 412.543 92.425 412.467C92.749 412.389 93.0773 412.331 93.4118 412.292C93.8368 412.243 94.18 412.203 94.4452 412.173C94.7086 412.139 94.9009 412.086 95.0211 412.013C95.1405 411.939 95.2011 411.82 95.2011 411.656V411.623C95.2011 411.223 95.087 410.914 94.8596 410.693C94.6357 410.474 94.3003 410.364 93.8552 410.364C93.3908 410.364 93.0247 410.466 92.7569 410.671C92.4935 410.872 92.31 411.097 92.209 411.344L90.9132 411.051C91.0668 410.623 91.2907 410.278 91.5866 410.016C91.8851 409.75 92.2275 409.558 92.6147 409.439C93.0018 409.316 93.4092 409.255 93.8368 409.255C94.1186 409.255 94.4189 409.289 94.7349 409.356C95.0554 409.421 95.353 409.539 95.6296 409.713C95.9096 409.888 96.1388 410.137 96.317 410.46C96.4952 410.781 96.5848 411.197 96.5848 411.71V416.383H95.238V415.421H95.1827C95.094 415.598 94.9597 415.771 94.7815 415.943C94.6032 416.114 94.3741 416.257 94.0949 416.369C93.8148 416.482 93.4794 416.538 93.0896 416.538ZM93.389 415.44C93.7709 415.44 94.0958 415.364 94.3662 415.215C94.6401 415.066 94.8473 414.87 94.9887 414.628C95.1335 414.384 95.2064 414.123 95.2064 413.845V412.938C95.1563 412.987 95.0606 413.033 94.9202 413.076C94.7814 413.115 94.6234 413.15 94.4452 413.181C94.267 413.208 94.0931 413.234 93.9237 413.259C93.7551 413.28 93.6138 413.298 93.4996 413.313C93.2327 413.348 92.9887 413.404 92.7665 413.484C92.5479 413.563 92.3732 413.678 92.2415 413.827C92.1125 413.973 92.0475 414.168 92.0475 414.413C92.0475 414.752 92.1739 415.008 92.425 415.182C92.677 415.354 92.9983 415.44 93.389 415.44ZM102.593 411.825V413.012H98.4065V411.825H102.593ZM104.43 416.383V409.347H105.763V410.464H105.836C105.965 410.086 106.192 409.788 106.519 409.572C106.847 409.351 107.219 409.242 107.635 409.242C107.721 409.242 107.823 409.245 107.938 409.251C108.058 409.258 108.152 409.265 108.219 409.273V410.584C108.165 410.569 108.067 410.552 107.925 410.533C107.783 410.512 107.642 410.501 107.5 410.501C107.175 410.501 106.885 410.569 106.629 410.707C106.377 410.842 106.178 411.029 106.03 411.271C105.882 411.509 105.809 411.78 105.809 412.086V416.383H104.43ZM111.41 416.538C110.961 416.538 110.557 416.457 110.193 416.291C109.83 416.123 109.543 415.88 109.331 415.563C109.122 415.246 109.017 414.856 109.017 414.394C109.017 413.998 109.094 413.671 109.248 413.414C109.401 413.158 109.609 412.954 109.871 412.805C110.132 412.655 110.423 412.543 110.747 412.467C111.069 412.389 111.398 412.331 111.733 412.292C112.157 412.243 112.502 412.203 112.765 412.173C113.031 412.139 113.223 412.086 113.342 412.013C113.463 411.939 113.521 411.82 113.521 411.656V411.623C113.521 411.223 113.408 410.914 113.181 410.693C112.957 410.474 112.621 410.364 112.175 410.364C111.712 410.364 111.346 410.466 111.078 410.671C110.815 410.872 110.631 411.097 110.529 411.344L109.234 411.051C109.388 410.623 109.613 410.278 109.908 410.016C110.205 409.75 110.548 409.558 110.935 409.439C111.323 409.316 111.729 409.255 112.157 409.255C112.441 409.255 112.739 409.289 113.056 409.356C113.376 409.421 113.674 409.539 113.951 409.713C114.231 409.888 114.459 410.137 114.637 410.46C114.816 410.781 114.905 411.197 114.905 411.71V416.383H113.559V415.421H113.503C113.414 415.598 113.281 415.771 113.103 415.943C112.924 416.114 112.695 416.257 112.415 416.369C112.136 416.482 111.801 416.538 111.41 416.538ZM111.71 415.44C112.091 415.44 112.417 415.364 112.687 415.215C112.96 415.066 113.168 414.87 113.31 414.628C113.454 414.384 113.527 414.123 113.527 413.845V412.938C113.478 412.987 113.383 413.033 113.241 413.076C113.103 413.115 112.944 413.15 112.765 413.181C112.588 413.208 112.414 413.234 112.245 413.259C112.076 413.28 111.934 413.298 111.821 413.313C111.553 413.348 111.309 413.404 111.088 413.484C110.869 413.563 110.694 413.678 110.562 413.827C110.433 413.973 110.369 414.168 110.369 414.413C110.369 414.752 110.494 415.008 110.747 415.182C110.998 415.354 111.32 415.44 111.71 415.44ZM120.047 409.347V410.446H116.179V409.347H120.047ZM117.217 407.661H118.595V414.317C118.595 414.583 118.635 414.782 118.715 414.917C118.795 415.048 118.897 415.139 119.024 415.188C119.153 415.232 119.293 415.255 119.443 415.255C119.554 415.255 119.65 415.248 119.733 415.233C119.817 415.218 119.881 415.206 119.927 415.197L120.176 416.328C120.096 416.358 119.982 416.389 119.835 416.42C119.687 416.453 119.503 416.472 119.282 416.474C118.919 416.48 118.581 416.417 118.268 416.282C117.954 416.147 117.7 415.94 117.506 415.659C117.313 415.378 117.217 415.025 117.217 414.602V407.661ZM123.634 416.538C123.183 416.538 122.779 416.457 122.415 416.291C122.053 416.123 121.766 415.88 121.553 415.563C121.344 415.246 121.24 414.856 121.24 414.394C121.24 413.998 121.318 413.671 121.47 413.414C121.624 413.158 121.832 412.954 122.093 412.805C122.354 412.655 122.646 412.543 122.969 412.467C123.291 412.389 123.621 412.331 123.956 412.292C124.379 412.243 124.724 412.203 124.988 412.173C125.253 412.139 125.445 412.086 125.564 412.013C125.685 411.939 125.744 411.82 125.744 411.656V411.623C125.744 411.223 125.631 410.914 125.403 410.693C125.179 410.474 124.844 410.364 124.398 410.364C123.934 410.364 123.568 410.466 123.301 410.671C123.037 410.872 122.854 411.097 122.752 411.344L121.456 411.051C121.611 410.623 121.835 410.278 122.13 410.016C122.428 409.75 122.771 409.558 123.158 409.439C123.545 409.316 123.953 409.255 124.379 409.255C124.663 409.255 124.962 409.289 125.279 409.356C125.599 409.421 125.896 409.539 126.174 409.713C126.453 409.888 126.682 410.137 126.86 410.46C127.038 410.781 127.127 411.197 127.127 411.71V416.383H125.781V415.421H125.727C125.637 415.598 125.504 415.771 125.325 415.943C125.146 416.114 124.917 416.257 124.637 416.369C124.358 416.482 124.024 416.538 123.634 416.538ZM123.932 415.44C124.313 415.44 124.64 415.364 124.909 415.215C125.184 415.066 125.391 414.87 125.532 414.628C125.678 414.384 125.749 414.123 125.749 413.845V412.938C125.7 412.987 125.605 413.033 125.463 413.076C125.325 413.115 125.167 413.15 124.988 413.181C124.81 413.208 124.636 413.234 124.468 413.259C124.298 413.28 124.157 413.298 124.043 413.313C123.775 413.348 123.531 413.404 123.31 413.484C123.092 413.563 122.917 413.678 122.784 413.827C122.655 413.973 122.591 414.168 122.591 414.413C122.591 414.752 122.717 415.008 122.969 415.182C123.221 415.354 123.542 415.44 123.932 415.44Z" fill="#A3A3A3"/>
<path d="M297.241 305.857H188.4C182.243 305.857 177.252 310.816 177.252 316.933V425.799C177.252 431.916 182.243 436.875 188.4 436.875H297.241C303.398 436.875 308.389 431.916 308.389 425.799V316.933C308.389 310.816 303.398 305.857 297.241 305.857Z" fill="#F5F5F5"/>
<path d="M211.765 320.855H206.841C200.504 320.855 195.367 325.959 195.367 332.254V337.146C195.367 343.441 200.504 348.544 206.841 348.544H211.765C218.101 348.544 223.238 343.441 223.238 337.146V332.254C223.238 325.959 218.101 320.855 211.765 320.855Z" fill="#F5F5F5"/>
<mask id="mask4_577_16761" style="mask-type:luminance" maskUnits="userSpaceOnUse" x="198" y="324" width="22" height="22">
<path d="M219.87 324.201H198.734V345.199H219.87V324.201Z" fill="white"/>
</mask>
<g mask="url(#mask4_577_16761)">
<path d="M211.064 339.949V338.2H207.542V339.949L206.66 341.698H211.945L211.064 339.949Z" fill="#8CB817"/>
<path opacity="0.3" d="M216.349 327.7H213.706V326.826C213.706 326.301 213.354 325.951 212.825 325.951H205.781C205.252 325.951 204.9 326.301 204.9 326.826V327.7H202.258C201.729 327.7 201.377 328.051 201.377 328.575V332.076C201.377 334 202.963 335.574 204.9 335.574C205.956 336.625 206.485 337.149 207.541 338.2H211.064C212.121 337.149 212.649 336.625 213.706 335.574C215.644 335.574 217.228 334 217.228 332.076V328.575C217.228 328.051 216.876 327.7 216.349 327.7ZM203.139 332.076V329.451H204.9V333.824C203.931 333.824 203.139 333.037 203.139 332.076ZM215.468 332.076C215.468 333.037 214.674 333.824 213.706 333.824V329.451H215.468V332.076ZM213.706 342.574V343.449H204.9V342.574C204.9 342.049 205.252 341.699 205.781 341.699H212.825C213.354 341.699 213.706 342.049 213.706 342.574ZM207.541 332.076C207.013 332.076 206.66 331.725 206.66 331.201V328.575C206.66 328.051 207.013 327.7 207.541 327.7C208.07 327.7 208.423 328.051 208.423 328.575V331.201C208.423 331.725 208.07 332.076 207.541 332.076ZM207.541 335.574C207.013 335.574 206.66 335.225 206.66 334.699V333.824C206.66 333.301 207.013 332.95 207.541 332.95C208.07 332.95 208.423 333.301 208.423 333.824V334.699C208.423 335.225 208.07 335.574 207.541 335.574Z" fill="#8CB817"/>
</g>
<path d="M204.554 395.885C203.537 395.877 202.556 395.709 201.611 395.376C200.672 395.043 199.828 394.503 199.082 393.756C198.336 393.008 197.744 392.018 197.306 390.784C196.875 389.551 196.66 388.035 196.66 386.24C196.666 384.591 196.856 383.118 197.229 381.82C197.608 380.516 198.149 379.411 198.851 378.503C199.558 377.596 200.404 376.905 201.389 376.433C202.373 375.953 203.477 375.714 204.698 375.714C206.017 375.714 207.182 375.97 208.192 376.48C209.202 376.986 210.012 377.672 210.623 378.542C211.241 379.411 211.614 380.385 211.743 381.465H207.622C207.462 380.782 207.124 380.245 206.609 379.855C206.095 379.465 205.458 379.27 204.698 379.27C203.413 379.27 202.434 379.826 201.765 380.939C201.103 382.05 200.765 383.562 200.751 385.473H200.887C201.182 384.89 201.581 384.396 202.083 383.987C202.592 383.571 203.167 383.256 203.811 383.037C204.46 382.814 205.146 382.703 205.866 382.703C207.038 382.703 208.079 382.977 208.993 383.527C209.906 384.07 210.627 384.818 211.153 385.77C211.681 386.722 211.945 387.812 211.945 389.039C211.945 390.369 211.633 391.551 211.009 392.587C210.392 393.622 209.526 394.433 208.414 395.021C207.306 395.603 206.021 395.891 204.554 395.885ZM204.535 392.625C205.177 392.625 205.753 392.471 206.261 392.165C206.77 391.858 207.169 391.442 207.458 390.918C207.748 390.394 207.893 389.806 207.893 389.154C207.893 388.502 207.748 387.917 207.458 387.399C207.175 386.882 206.783 386.47 206.281 386.163C205.779 385.856 205.207 385.703 204.564 385.703C204.081 385.703 203.633 385.792 203.222 385.971C202.816 386.15 202.46 386.4 202.151 386.719C201.849 387.038 201.611 387.41 201.437 387.832C201.263 388.247 201.176 388.691 201.176 389.164C201.176 389.796 201.321 390.375 201.611 390.899C201.906 391.423 202.305 391.842 202.808 392.154C203.316 392.468 203.891 392.625 204.535 392.625ZM221.449 396.048C219.789 396.042 218.361 395.635 217.165 394.829C215.974 394.024 215.058 392.858 214.415 391.33C213.778 389.803 213.462 387.965 213.469 385.819C213.469 383.677 213.786 381.852 214.424 380.344C215.067 378.835 215.984 377.688 217.174 376.902C218.37 376.109 219.795 375.714 221.449 375.714C223.102 375.714 224.525 376.109 225.714 376.902C226.911 377.694 227.831 378.845 228.475 380.354C229.117 381.855 229.436 383.677 229.43 385.819C229.43 387.971 229.109 389.812 228.464 391.34C227.828 392.867 226.914 394.034 225.724 394.839C224.533 395.644 223.109 396.048 221.449 396.048ZM221.449 392.606C222.582 392.606 223.486 392.04 224.161 390.908C224.836 389.777 225.171 388.081 225.165 385.819C225.165 384.329 225.01 383.089 224.701 382.098C224.399 381.107 223.968 380.362 223.408 379.864C222.855 379.366 222.202 379.116 221.449 379.116C220.323 379.116 219.423 379.676 218.747 380.794C218.071 381.913 217.73 383.587 217.724 385.819C217.724 387.326 217.875 388.586 218.178 389.596C218.486 390.598 218.921 391.352 219.481 391.858C220.04 392.357 220.697 392.606 221.449 392.606ZM238.95 396.048C237.29 396.042 235.862 395.635 234.666 394.829C233.475 394.024 232.559 392.858 231.915 391.33C231.278 389.803 230.964 387.965 230.97 385.819C230.97 383.677 231.288 381.852 231.925 380.344C232.568 378.835 233.485 377.688 234.675 376.902C235.871 376.109 237.296 375.714 238.95 375.714C240.603 375.714 242.025 376.109 243.215 376.902C244.412 377.694 245.331 378.845 245.976 380.354C246.618 381.855 246.937 383.677 246.931 385.819C246.931 387.971 246.609 389.812 245.965 391.34C245.329 392.867 244.415 394.034 243.225 394.839C242.035 395.644 240.61 396.048 238.95 396.048ZM238.95 392.606C240.083 392.606 240.985 392.04 241.662 390.908C242.338 389.777 242.672 388.081 242.665 385.819C242.665 384.329 242.511 383.089 242.201 382.098C241.9 381.107 241.469 380.362 240.908 379.864C240.356 379.366 239.703 379.116 238.95 379.116C237.824 379.116 236.923 379.676 236.248 380.794C235.572 381.913 235.231 383.587 235.225 385.819C235.225 387.326 235.376 388.586 235.679 389.596C235.987 390.598 236.422 391.352 236.982 391.858C237.541 392.357 238.198 392.606 238.95 392.606Z" fill="#737373"/>
<path d="M195.939 408.22V407.002H203.247V408.22H200.3V416.383H198.881V408.22H195.939ZM206.707 416.525C206.043 416.525 205.464 416.373 204.968 416.071C204.473 415.769 204.09 415.346 203.816 414.802C203.543 414.258 203.406 413.624 203.406 412.897C203.406 412.167 203.543 411.529 203.816 410.982C204.09 410.436 204.473 410.011 204.968 409.709C205.464 409.407 206.043 409.255 206.707 409.255C207.371 409.255 207.95 409.407 208.445 409.709C208.94 410.011 209.324 410.436 209.598 410.982C209.871 411.529 210.008 412.167 210.008 412.897C210.008 413.624 209.871 414.258 209.598 414.802C209.324 415.346 208.94 415.769 208.445 416.071C207.95 416.373 207.371 416.525 206.707 416.525ZM206.712 415.375C207.141 415.375 207.499 415.262 207.78 415.036C208.064 414.809 208.273 414.508 208.408 414.133C208.546 413.757 208.616 413.344 208.616 412.893C208.616 412.443 208.546 412.031 208.408 411.656C208.273 411.277 208.064 410.973 207.78 410.744C207.499 410.515 207.141 410.401 206.712 410.401C206.277 410.401 205.918 410.515 205.633 410.744C205.349 410.973 205.14 411.277 205.001 411.656C204.866 412.031 204.798 412.443 204.798 412.893C204.798 413.344 204.866 413.757 205.001 414.133C205.14 414.508 205.349 414.809 205.633 415.036C205.918 415.262 206.277 415.375 206.712 415.375ZM214.852 409.347V410.446H210.984V409.347H214.852ZM212.022 407.661H213.4V414.317C213.4 414.583 213.441 414.782 213.521 414.917C213.6 415.048 213.702 415.139 213.829 415.188C213.958 415.232 214.098 415.255 214.248 415.255C214.359 415.255 214.456 415.248 214.539 415.232C214.622 415.218 214.686 415.206 214.733 415.196L214.981 416.328C214.902 416.358 214.787 416.389 214.641 416.42C214.493 416.453 214.308 416.471 214.087 416.474C213.725 416.48 213.386 416.417 213.073 416.282C212.759 416.147 212.506 415.94 212.312 415.659C212.118 415.378 212.022 415.025 212.022 414.602V407.661ZM218.439 416.538C217.99 416.538 217.584 416.457 217.221 416.292C216.859 416.123 216.571 415.88 216.359 415.563C216.149 415.246 216.046 414.856 216.046 414.394C216.046 413.998 216.123 413.67 216.276 413.414C216.43 413.158 216.637 412.954 216.898 412.805C217.16 412.655 217.452 412.543 217.774 412.467C218.096 412.389 218.426 412.331 218.761 412.292C219.186 412.243 219.529 412.203 219.794 412.173C220.058 412.139 220.25 412.086 220.37 412.013C220.49 411.939 220.55 411.82 220.55 411.656V411.623C220.55 411.223 220.436 410.914 220.209 410.693C219.985 410.474 219.65 410.364 219.204 410.364C218.74 410.364 218.374 410.466 218.106 410.671C217.842 410.872 217.659 411.097 217.558 411.344L216.262 411.051C216.416 410.623 216.64 410.278 216.936 410.016C217.233 409.75 217.577 409.558 217.963 409.439C218.35 409.316 218.758 409.255 219.186 409.255C219.468 409.255 219.768 409.289 220.084 409.356C220.404 409.421 220.702 409.539 220.979 409.713C221.258 409.888 221.488 410.137 221.666 410.46C221.844 410.781 221.933 411.197 221.933 411.71V416.383H220.586V415.421H220.532C220.442 415.598 220.309 415.771 220.131 415.943C219.952 416.114 219.723 416.256 219.443 416.369C219.163 416.482 218.829 416.538 218.439 416.538ZM218.738 415.44C219.118 415.44 219.445 415.364 219.715 415.215C219.989 415.066 220.196 414.87 220.338 414.628C220.483 414.384 220.554 414.123 220.554 413.845V412.938C220.506 412.987 220.41 413.033 220.268 413.076C220.131 413.115 219.973 413.15 219.794 413.181C219.616 413.208 219.442 413.234 219.273 413.259C219.103 413.28 218.963 413.298 218.848 413.313C218.581 413.348 218.336 413.404 218.116 413.484C217.897 413.563 217.722 413.677 217.59 413.827C217.462 413.973 217.397 414.168 217.397 414.413C217.397 414.752 217.522 415.008 217.774 415.182C218.026 415.354 218.348 415.44 218.738 415.44ZM225.148 407.002V416.383H223.77V407.002H225.148ZM230.548 416.383V407.002H233.915C234.649 407.002 235.258 407.134 235.74 407.4C236.223 407.666 236.584 408.03 236.824 408.49C237.064 408.949 237.184 409.465 237.184 410.039C237.184 410.616 237.062 411.135 236.82 411.596C236.58 412.054 236.217 412.417 235.732 412.686C235.248 412.952 234.641 413.084 233.91 413.084H231.596V411.885H233.78C234.246 411.885 234.621 411.806 234.91 411.647C235.199 411.485 235.411 411.264 235.547 410.987C235.683 410.709 235.749 410.393 235.749 410.039C235.749 409.685 235.683 409.37 235.547 409.094C235.411 408.821 235.197 408.605 234.906 408.449C234.617 408.293 234.236 408.216 233.762 408.216H231.973V416.383H230.548ZM241.637 416.525C240.973 416.525 240.394 416.373 239.9 416.071C239.404 415.769 239.021 415.346 238.746 414.802C238.473 414.258 238.336 413.624 238.336 412.897C238.336 412.167 238.473 411.529 238.746 410.982C239.021 410.436 239.404 410.011 239.9 409.709C240.394 409.407 240.973 409.255 241.637 409.255C242.301 409.255 242.88 409.407 243.375 409.709C243.87 410.011 244.254 410.436 244.527 410.982C244.802 411.529 244.938 412.167 244.938 412.897C244.938 413.624 244.802 414.258 244.527 414.802C244.254 415.346 243.87 415.769 243.375 416.071C242.88 416.373 242.301 416.525 241.637 416.525ZM241.642 415.375C242.072 415.375 242.429 415.262 242.712 415.036C242.993 414.809 243.202 414.508 243.339 414.133C243.477 413.757 243.546 413.344 243.546 412.893C243.546 412.443 243.477 412.031 243.339 411.656C243.202 411.277 242.993 410.973 242.712 410.744C242.429 410.515 242.072 410.401 241.642 410.401C241.209 410.401 240.849 410.515 240.562 410.744C240.28 410.973 240.069 411.277 239.932 411.656C239.796 412.031 239.728 412.443 239.728 412.893C239.728 413.344 239.796 413.757 239.932 414.133C240.069 414.508 240.28 414.809 240.562 415.036C240.849 415.262 241.209 415.375 241.642 415.375ZM246.476 416.383V409.347H247.856V416.383H246.476ZM247.173 408.262C246.934 408.262 246.727 408.182 246.555 408.023C246.387 407.861 246.302 407.668 246.302 407.446C246.302 407.22 246.387 407.028 246.555 406.869C246.727 406.707 246.934 406.627 247.173 406.627C247.413 406.627 247.618 406.707 247.786 406.869C247.958 407.028 248.045 407.22 248.045 407.446C248.045 407.668 247.958 407.861 247.786 408.023C247.618 408.182 247.413 408.262 247.173 408.262ZM251.088 412.205V416.383H249.71V409.347H251.034V410.492H251.121C251.283 410.119 251.539 409.82 251.886 409.594C252.237 409.369 252.678 409.255 253.209 409.255C253.692 409.255 254.115 409.356 254.477 409.558C254.84 409.757 255.122 410.053 255.321 410.446C255.521 410.84 255.621 411.328 255.621 411.908V416.383H254.243V412.073C254.243 411.563 254.108 411.164 253.841 410.877C253.574 410.587 253.207 410.441 252.74 410.441C252.42 410.441 252.136 410.511 251.886 410.648C251.64 410.785 251.446 410.987 251.302 411.253C251.159 411.514 251.088 411.832 251.088 412.205Z" fill="#A3A3A3"/>
</svg>
