<svg width="354" height="354" viewBox="0 0 354 354" fill="none" xmlns="http://www.w3.org/2000/svg">
<path opacity="0.5" fill-rule="evenodd" clip-rule="evenodd" d="M320.502 217.358C323 206.262 325.703 194.253 330.117 181.013C342.097 145.071 325.615 124.088 299.41 90.7279C298.381 89.4184 297.338 88.0898 296.28 86.7405C282.905 70.5297 273.373 68.3321 258.102 64.8116C242.333 61.1763 220.446 56.1303 181.89 32.786C124.658 -1.86629 103.894 31.6909 84.9579 62.2924C78.7839 72.2699 72.8044 81.9332 65.8188 88.8157C56.2639 100.829 54.3462 113.528 52.2095 127.676C49.8449 143.334 47.2121 160.768 33.6635 181.013C31.7621 183.854 29.4697 186.136 27.2956 188.301C17.4615 198.093 10.046 205.476 52.1678 251.272C71.5042 272.296 90.4644 289.205 108.167 301.87L266.287 299.222C279.469 291.384 291.321 281.964 299.809 270.838C312.084 254.749 315.952 237.566 320.502 217.358Z" fill="#A8CDE2"/>
<g clip-path="url(#clip0_6232_5314)">
<path d="M354 270.738H0V270.915H354V270.738Z" fill="#67A5C8"/>
<path d="M307.124 278.271H283.675V278.448H307.124V278.271Z" fill="#67A5C8"/>
<path d="M221.654 278.188H215.501V278.365H221.654V278.188Z" fill="#67A5C8"/>
<path d="M318.529 282.131H304.942V282.308H318.529V282.131Z" fill="#67A5C8"/>
<path d="M81.1365 284.48H50.558V284.657H81.1365V284.48Z" fill="#67A5C8"/>
<path d="M78.5097 276.75H74.0281V276.927H78.5097V276.75Z" fill="#67A5C8"/>
<path d="M175.903 277.508H132.785V277.685H175.903V277.508Z" fill="#67A5C8"/>
<path d="M167.796 239.162H31.088C30.017 239.16 28.9906 238.733 28.2339 237.975C27.4773 237.217 27.0524 236.19 27.0524 235.119V42.9467C27.0617 41.8819 27.4908 40.8638 28.2464 40.1135C29.002 39.3632 30.0231 38.9413 31.088 38.9395H167.796C168.868 38.9395 169.896 39.3654 170.654 40.1235C171.412 40.8817 171.838 41.9099 171.838 42.9821V235.119C171.838 236.191 171.412 237.22 170.654 237.978C169.896 238.736 168.868 239.162 167.796 239.162ZM31.088 39.0811C30.064 39.0829 29.0825 39.491 28.3591 40.2158C27.6357 40.9405 27.2294 41.9227 27.2294 42.9467V235.119C27.2294 236.143 27.6357 237.125 28.3591 237.85C29.0825 238.575 30.064 238.983 31.088 238.985H167.796C168.82 238.983 169.803 238.575 170.527 237.851C171.252 237.126 171.66 236.144 171.661 235.119V42.9467C171.66 41.9221 171.252 40.9399 170.527 40.2154C169.803 39.4908 168.82 39.0829 167.796 39.0811H31.088Z" fill="#FAB317"/>
<path d="M320.943 239.162H184.228C183.157 239.16 182.13 238.733 181.372 237.976C180.614 237.218 180.188 236.191 180.186 235.119V42.9467C180.197 41.8813 180.628 40.8631 181.384 40.113C182.141 39.3629 183.163 38.9413 184.228 38.9395H320.943C322.007 38.9431 323.026 39.3658 323.78 40.116C324.534 40.8661 324.962 41.8831 324.972 42.9467V235.119C324.972 236.189 324.548 237.215 323.793 237.973C323.038 238.731 322.013 239.158 320.943 239.162ZM184.228 39.0811C183.204 39.0829 182.222 39.4908 181.497 40.2154C180.773 40.9399 180.365 41.9221 180.363 42.9467V235.119C180.365 236.144 180.773 237.126 181.497 237.851C182.222 238.575 183.204 238.983 184.228 238.985H320.943C321.968 238.983 322.95 238.575 323.675 237.851C324.399 237.126 324.807 236.144 324.809 235.119V42.9467C324.807 41.9221 324.399 40.9399 323.675 40.2154C322.95 39.4908 321.968 39.0829 320.943 39.0811H184.228Z" fill="#67A5C8"/>
<path d="M303.654 68.2012H50.3459V173.615H303.654V68.2012Z" fill="#FEDBD7"/>
<path d="M298.698 168.666V73.1641L55.302 73.1641V168.666H298.698Z" fill="#FAFAFA"/>
<path d="M87.3461 168.658L112.31 73.1562H130.718L105.754 168.658H87.3461Z" fill="white"/>
<path d="M110.002 168.658L134.966 73.1562H143.2L118.236 168.658H110.002Z" fill="white"/>
<path d="M150.287 168.658L175.258 73.1562H193.666L168.695 168.658H150.287Z" fill="white"/>
<path d="M196.704 168.658L221.668 73.1562H229.909L204.938 168.658H196.704Z" fill="white"/>
<path d="M120.509 168.666V73.1641H119.249V168.666H120.509Z" fill="#A8CDE2"/>
<path d="M56.5624 168.666L56.5624 73.1641H55.3021L55.3021 168.666H56.5624Z" fill="#A8CDE2"/>
<path d="M119.248 168.666V73.1641H114.292V168.666H119.248Z" fill="#106FA4"/>
<path d="M181.956 168.666V73.1641H180.696V168.666H181.956Z" fill="#A8CDE2"/>
<path d="M180.696 168.666V73.1641H175.74V168.666H180.696Z" fill="#FEDBD7"/>
<path d="M243.432 168.658V73.1562H242.172V168.658H243.432Z" fill="#A8CDE2"/>
<path d="M242.171 168.658V73.1562H237.215V168.658H242.171Z" fill="#106FA4"/>
<path d="M304.915 173.615V68.2012H303.655V173.615H304.915Z" fill="#A8CDE2"/>
<path d="M307.747 60.9656H46.2539C45.9634 60.9637 45.6854 60.8475 45.48 60.6421C45.2746 60.4367 45.1584 60.1586 45.1565 59.8682C45.1565 59.5764 45.2719 59.2966 45.4775 59.0897C45.6831 58.8827 45.9622 58.7655 46.2539 58.7637H307.747C308.038 58.7655 308.317 58.8827 308.523 59.0897C308.729 59.2966 308.844 59.5764 308.844 59.8682C308.842 60.1586 308.726 60.4367 308.521 60.6421C308.315 60.8475 308.037 60.9637 307.747 60.9656Z" fill="#FEDBD7"/>
<g opacity="0.6">
<path d="M100.776 56.6387H47.2795V248.981H100.776V56.6387Z" fill="#F9868F"/>
<path d="M76.2653 250.553H71.7837L73.0439 58.2109H75.0476L76.2653 250.553Z" fill="#ED3768"/>
<path d="M61.4181 250.553H59.2516L59.8605 58.2109H60.8304L61.4181 250.553Z" fill="#ED3768"/>
<path d="M91.1539 250.553H88.9874L89.5963 58.2109H90.5663L91.1539 250.553Z" fill="#ED3768"/>
</g>
<g opacity="0.6">
<path d="M306.083 56.6387H252.586V248.981H306.083V56.6387Z" fill="#F9868F"/>
<path d="M273.55 250.553H269.069L270.329 58.2109H272.332L273.55 250.553Z" fill="#ED3768"/>
<path d="M263.659 250.553H261.5L262.102 58.2109H263.072L263.659 250.553Z" fill="#ED3768"/>
<path d="M286.549 250.553H284.389L284.998 58.2109H285.961L286.549 250.553Z" fill="#ED3768"/>
<path d="M297.565 250.553H295.406L296.008 58.2109H296.978L297.565 250.553Z" fill="#ED3768"/>
</g>
<path d="M230.249 269.535H240.302V211.918H230.249V269.535Z" fill="#106FA4"/>
<path d="M113.698 269.535H234.122V211.918H113.698V269.535Z" fill="#FAB317"/>
<path d="M231.417 269.535H227.792H118.894V270.739H227.792H231.417H235.105V269.535H231.417Z" fill="#A8CDE2"/>
<path opacity="0.5" d="M117.132 238.771H230.688V215.521H117.132V238.771Z" fill="#FEF6D0"/>
<path opacity="0.5" d="M117.213 265.543H230.769V242.292H117.213V265.543Z" fill="#FEF6D0"/>
<path d="M134.343 227.148C134.343 227.653 134.193 228.147 133.913 228.568C133.632 228.988 133.233 229.316 132.766 229.509C132.299 229.702 131.785 229.753 131.289 229.654C130.793 229.556 130.338 229.312 129.98 228.955C129.623 228.598 129.379 228.142 129.281 227.646C129.182 227.151 129.233 226.637 129.426 226.17C129.62 225.703 129.947 225.303 130.367 225.023C130.788 224.742 131.282 224.592 131.787 224.592C132.123 224.592 132.455 224.658 132.766 224.786C133.076 224.915 133.357 225.103 133.595 225.34C133.832 225.578 134.02 225.859 134.149 226.17C134.277 226.48 134.343 226.812 134.343 227.148Z" fill="#A8CDE2"/>
<path d="M218.581 227.148C218.581 227.653 218.431 228.147 218.15 228.568C217.87 228.988 217.47 229.316 217.003 229.509C216.536 229.702 216.022 229.753 215.527 229.654C215.031 229.556 214.575 229.312 214.218 228.955C213.861 228.598 213.617 228.142 213.518 227.646C213.42 227.151 213.47 226.637 213.664 226.17C213.857 225.703 214.185 225.303 214.605 225.023C215.026 224.742 215.52 224.592 216.025 224.592C216.361 224.592 216.693 224.658 217.003 224.786C217.313 224.915 217.595 225.103 217.833 225.34C218.07 225.578 218.258 225.859 218.387 226.17C218.515 226.48 218.581 226.812 218.581 227.148Z" fill="#A8CDE2"/>
<path d="M131.787 256.706C133.199 256.706 134.343 255.561 134.343 254.15C134.343 252.738 133.199 251.594 131.787 251.594C130.376 251.594 129.232 252.738 129.232 254.15C129.232 255.561 130.376 256.706 131.787 256.706Z" fill="#A8CDE2"/>
<path d="M218.581 254.171C218.581 254.677 218.431 255.171 218.15 255.591C217.87 256.011 217.47 256.339 217.003 256.532C216.536 256.726 216.022 256.777 215.527 256.678C215.031 256.579 214.575 256.336 214.218 255.978C213.861 255.621 213.617 255.166 213.518 254.67C213.42 254.174 213.47 253.66 213.664 253.193C213.857 252.726 214.185 252.327 214.605 252.046C215.026 251.765 215.52 251.615 216.025 251.615C216.703 251.615 217.353 251.885 217.833 252.364C218.312 252.843 218.581 253.493 218.581 254.171Z" fill="#A8CDE2"/>
<path d="M176.462 227.148C176.462 227.653 176.312 228.147 176.031 228.568C175.751 228.988 175.351 229.316 174.884 229.509C174.417 229.702 173.904 229.753 173.408 229.654C172.912 229.556 172.457 229.312 172.099 228.955C171.742 228.598 171.498 228.142 171.4 227.646C171.301 227.151 171.352 226.637 171.545 226.17C171.738 225.703 172.066 225.303 172.486 225.023C172.907 224.742 173.401 224.592 173.906 224.592C174.242 224.592 174.574 224.658 174.884 224.786C175.195 224.915 175.476 225.103 175.714 225.34C175.951 225.578 176.139 225.859 176.268 226.17C176.396 226.48 176.462 226.812 176.462 227.148Z" fill="#A8CDE2"/>
<path d="M173.906 256.706C175.318 256.706 176.462 255.561 176.462 254.15C176.462 252.738 175.318 251.594 173.906 251.594C172.495 251.594 171.35 252.738 171.35 254.15C171.35 255.561 172.495 256.706 173.906 256.706Z" fill="#A8CDE2"/>
<path d="M226.673 202.133C226.673 204.728 225.642 207.217 223.807 209.052C221.972 210.887 219.483 211.917 216.888 211.917C214.293 211.917 211.805 210.887 209.97 209.052C208.135 207.217 207.104 204.728 207.104 202.133H226.673Z" fill="#3EB449"/>
<path d="M149.31 200.363C149.31 203.422 148.095 206.356 145.932 208.519C143.769 210.681 140.835 211.897 137.776 211.897C134.718 211.897 131.784 210.681 129.621 208.519C127.458 206.356 126.243 203.422 126.243 200.363H149.31Z" fill="#106FA4"/>
<path d="M198.892 205.129C198.892 206.93 198.176 208.657 196.903 209.93C195.63 211.203 193.903 211.919 192.102 211.919C190.301 211.919 188.574 211.203 187.301 209.93C186.028 208.657 185.312 206.93 185.312 205.129H198.892Z" fill="#3EB449"/>
<path d="M177 302.713C252.815 302.713 314.274 299.124 314.274 294.698C314.274 290.272 252.815 286.684 177 286.684C101.186 286.684 39.7262 290.272 39.7262 294.698C39.7262 299.124 101.186 302.713 177 302.713Z" fill="#F5F5F5"/>
<path d="M246.49 81.6746C244.982 80.1665 242.079 74.453 244.861 71.7626C247.644 69.0722 250.122 71.5148 250.313 72.8246C250.504 74.1344 249.994 85.1721 246.49 81.6746Z" fill="#263238"/>
<path d="M245.852 287.199L239.53 287.256L237.81 272.643L244.125 272.586L245.852 287.199Z" fill="#FF8B7B"/>
<path d="M239.523 286.527L246.419 286.463C246.546 286.465 246.669 286.507 246.771 286.583C246.873 286.66 246.948 286.766 246.985 286.888L248.656 292.488C248.7 292.618 248.713 292.757 248.692 292.894C248.671 293.03 248.618 293.159 248.537 293.27C248.455 293.381 248.348 293.471 248.225 293.532C248.102 293.593 247.965 293.624 247.828 293.621C245.343 293.621 241.732 293.486 238.624 293.515C234.97 293.515 233.342 293.769 229.051 293.812C226.46 293.812 225.511 291.221 226.609 290.98C231.473 289.854 233.986 289.706 238.057 287.036C238.486 286.727 238.995 286.55 239.523 286.527Z" fill="#263238"/>
<path opacity="0.2" d="M237.81 272.65L238.702 280.184L245.017 280.127L244.132 272.594L237.81 272.65Z" fill="black"/>
<path d="M236.91 287.653C237.592 287.641 238.271 287.558 238.935 287.405C238.967 287.401 238.995 287.385 239.017 287.362C239.039 287.339 239.053 287.309 239.055 287.278C239.058 287.247 239.052 287.217 239.036 287.19C239.021 287.163 238.998 287.142 238.97 287.129C238.673 286.98 236.018 285.713 235.289 286.159C235.221 286.202 235.166 286.262 235.129 286.333C235.092 286.403 235.074 286.483 235.076 286.563C235.075 286.699 235.105 286.834 235.164 286.956C235.222 287.079 235.309 287.187 235.416 287.271C235.859 287.558 236.384 287.692 236.91 287.653ZM238.425 287.2C237.059 287.441 236.018 287.391 235.593 287.051C235.52 286.994 235.461 286.919 235.423 286.834C235.385 286.749 235.368 286.656 235.374 286.563C235.37 286.534 235.374 286.504 235.387 286.478C235.399 286.451 235.419 286.429 235.445 286.414C235.841 286.173 237.342 286.74 238.425 287.2Z" fill="#106FA4"/>
<path d="M238.907 287.448C238.94 287.446 238.972 287.434 238.999 287.413C239.02 287.397 239.036 287.375 239.045 287.35C239.054 287.324 239.055 287.297 239.048 287.271C239.048 287.158 238.553 284.439 237.052 284.609C236.655 284.652 236.542 284.857 236.521 285.013C236.415 285.721 238.036 287.094 238.843 287.434L238.907 287.448ZM237.179 284.899C238.085 284.899 238.539 286.379 238.694 287.023C237.859 286.556 236.754 285.48 236.818 285.055C236.818 285.055 236.818 284.935 237.087 284.907L237.179 284.899Z" fill="#106FA4"/>
<path d="M241.385 113.585L240.733 114.293L240.125 114.894C239.721 115.291 239.303 115.666 238.886 116.034C238.055 116.78 237.205 117.488 236.337 118.158C234.584 119.551 232.739 120.824 230.814 121.967C229.844 122.541 228.846 123.086 227.834 123.603C226.821 124.12 225.752 124.566 224.676 125.019C222.469 125.899 220.17 126.529 217.823 126.895L217.299 126.973C216.958 127.017 216.615 127.038 216.272 127.037C215.484 127.029 214.703 126.876 213.971 126.583C213.245 126.292 212.58 125.867 212.01 125.33C211.556 124.898 211.161 124.407 210.835 123.872C210.383 123.095 210.042 122.258 209.822 121.387C209.65 120.712 209.525 120.026 209.447 119.334C209.318 118.137 209.283 116.932 209.341 115.73C209.39 114.583 209.482 113.478 209.61 112.395C209.879 110.222 210.261 108.147 210.728 106.023C211.196 103.899 211.727 101.938 212.413 99.8848L217.065 100.805C216.895 104.784 216.704 108.862 216.831 112.714C216.855 114.502 217.044 116.285 217.398 118.038C217.468 118.362 217.565 118.679 217.688 118.987C217.787 119.227 217.907 119.376 217.9 119.312C217.859 119.204 217.794 119.108 217.709 119.029C217.517 118.843 217.291 118.694 217.044 118.59C216.789 118.483 216.519 118.419 216.244 118.399C216.116 118.399 216.06 118.399 215.982 118.399H216.06L216.208 118.356C217.885 117.926 219.517 117.333 221.079 116.586C222.714 115.798 224.296 114.904 225.816 113.91C227.352 112.891 228.867 111.786 230.326 110.618C231.034 110.037 231.777 109.429 232.45 108.813L233.483 107.878L233.979 107.418L234.411 107.007L241.385 113.585Z" fill="#FF8B7B"/>
<path d="M245.13 111.084C244.89 104.407 239.41 102.085 232.542 106.637C229.514 108.557 226.6 110.649 223.812 112.903L228.252 127.162C228.252 127.162 236.748 124.465 241.661 119.169C244.967 115.572 245.215 113.356 245.13 111.084Z" fill="#263238"/>
<path opacity="0.2" d="M236.769 113.93C236.769 113.93 232.67 119.792 231.218 126.022C233.234 125.163 235.175 124.14 237.024 122.964L236.769 113.93Z" fill="black"/>
<path d="M216.832 102.922L219.211 97.5483L212.477 95.5801C212.477 95.5801 211.323 98.1501 211.982 102.561L216.832 102.922Z" fill="#FF8B7B"/>
<path d="M219.925 91.2461L214.07 91.947L212.477 95.5791L219.21 97.5473L219.925 91.2461Z" fill="#FF8B7B"/>
<path d="M236.811 159.484C236.811 159.484 232.464 195.918 231.982 215.416C231.487 235.672 235.459 276.531 235.459 276.531L246.864 276.29C246.864 276.29 248.238 232.55 249.895 212.506C251.693 190.658 256.224 159.088 256.224 159.088L236.811 159.484Z" fill="#106FA4"/>
<path opacity="0.6" d="M236.811 159.484C236.811 159.484 232.464 195.918 231.982 215.416C231.487 235.672 235.459 276.531 235.459 276.531L246.864 276.29C246.864 276.29 248.238 232.55 249.895 212.506C251.693 190.658 256.224 159.088 256.224 159.088L236.811 159.484Z" fill="white"/>
<path opacity="0.2" d="M250.398 169.8C245.3 181.036 246.666 206.134 249.562 216.896C249.668 215.331 249.782 213.851 249.895 212.485C251.077 198.084 253.435 179.471 254.929 168.447C253.541 166.437 251.991 166.281 250.398 169.8Z" fill="black"/>
<path d="M248.267 276.778L234.857 277.047L233.866 272.594L248.104 272.559L248.267 276.778Z" fill="#106FA4"/>
<path d="M274.024 287.199L267.709 287.256L265.988 272.643L272.304 272.586L274.024 287.199Z" fill="#FF8B7B"/>
<path d="M267.694 286.527L274.597 286.463C274.724 286.466 274.847 286.508 274.949 286.585C275.05 286.661 275.125 286.767 275.164 286.888L276.835 292.488C276.877 292.618 276.888 292.757 276.867 292.892C276.845 293.028 276.792 293.156 276.711 293.267C276.63 293.378 276.524 293.467 276.401 293.529C276.279 293.591 276.143 293.622 276.006 293.621C273.514 293.621 269.91 293.486 266.802 293.515C263.149 293.515 261.513 293.769 257.23 293.812C254.639 293.812 253.69 291.221 254.787 290.98C259.644 289.854 262.158 289.706 266.236 287.036C266.662 286.728 267.169 286.55 267.694 286.527Z" fill="#263238"/>
<path opacity="0.2" d="M265.988 272.65L266.873 280.184L273.196 280.127L272.311 272.594L265.988 272.65Z" fill="black"/>
<path d="M265.088 287.653C265.77 287.64 266.449 287.557 267.113 287.405C267.144 287.4 267.172 287.385 267.193 287.362C267.213 287.338 267.225 287.309 267.227 287.278C267.231 287.248 267.226 287.217 267.212 287.191C267.198 287.164 267.176 287.142 267.149 287.129C266.844 286.98 264.189 285.713 263.467 286.159C263.399 286.201 263.343 286.261 263.305 286.332C263.268 286.403 263.25 286.482 263.255 286.563C263.253 286.698 263.282 286.832 263.34 286.955C263.398 287.077 263.482 287.185 263.587 287.271C264.033 287.557 264.56 287.691 265.088 287.653ZM266.603 287.2C265.237 287.441 264.196 287.391 263.771 287.051C263.698 286.993 263.64 286.918 263.601 286.834C263.561 286.749 263.542 286.656 263.545 286.563C263.541 286.534 263.545 286.504 263.558 286.478C263.57 286.451 263.591 286.429 263.616 286.414C264.012 286.173 265.499 286.74 266.603 287.2Z" fill="#106FA4"/>
<path d="M267.078 287.448C267.1 287.448 267.121 287.442 267.141 287.433C267.16 287.423 267.178 287.409 267.192 287.393C267.206 287.376 267.216 287.357 267.222 287.336C267.228 287.315 267.23 287.293 267.227 287.271C267.227 287.158 266.731 284.439 265.23 284.609C264.834 284.652 264.72 284.857 264.692 285.013C264.593 285.721 266.214 287.094 267.021 287.434L267.078 287.448ZM265.357 284.899C266.257 284.899 266.717 286.379 266.873 287.023C266.037 286.556 264.926 285.48 264.989 285.055C264.989 285.055 264.989 284.935 265.258 284.907L265.357 284.899Z" fill="#106FA4"/>
<path d="M247.941 159.243C247.941 159.243 251.092 198.445 253.393 217.788C255.778 237.909 263.637 276.509 263.637 276.509L275.043 276.268C275.043 276.268 271.914 232.443 270.703 212.364C269.379 190.452 269.039 158.762 269.039 158.762L247.941 159.243Z" fill="#106FA4"/>
<path opacity="0.6" d="M247.941 159.243C247.941 159.243 251.092 198.445 253.393 217.788C255.778 237.909 263.637 276.509 263.637 276.509L275.043 276.268C275.043 276.268 271.914 232.443 270.703 212.364C269.379 190.452 269.039 158.762 269.039 158.762L247.941 159.243Z" fill="white"/>
<path d="M276.445 276.778L263.028 277.047L262.044 272.594L276.282 272.559L276.445 276.778Z" fill="#106FA4"/>
<path d="M236.025 104.891C236.025 104.891 231.359 122.208 236.811 159.484C246.992 159.265 264.09 158.868 269.039 158.776C269.166 153.587 265.336 128.141 269.818 103.609C266.594 103.052 263.333 102.735 260.061 102.66C255.273 102.486 250.479 102.59 245.703 102.972C242.432 103.359 239.196 104 236.025 104.891Z" fill="#263238"/>
<path opacity="0.2" d="M267.864 121.068L262.59 116.699C262.936 120.112 266.023 128.473 267.652 132.707C267.623 128.997 267.659 125.082 267.864 121.068Z" fill="black"/>
<path d="M248.995 114.929L243.239 126.321C243.118 126.56 243.075 126.832 243.118 127.097C243.161 127.362 243.286 127.606 243.477 127.795C243.667 127.984 243.913 128.108 244.178 128.148C244.443 128.189 244.715 128.144 244.953 128.02L248.712 125.953C248.917 125.843 249.148 125.793 249.379 125.808C249.611 125.823 249.834 125.903 250.022 126.038L253.725 128.707C253.938 128.862 254.194 128.944 254.457 128.941C254.72 128.939 254.975 128.852 255.185 128.693C255.395 128.534 255.548 128.312 255.621 128.06C255.695 127.807 255.685 127.538 255.594 127.291L251.268 115.128C251.193 114.896 251.051 114.692 250.861 114.541C250.671 114.389 250.44 114.297 250.197 114.276C249.955 114.255 249.712 114.306 249.498 114.422C249.284 114.538 249.11 114.715 248.995 114.929Z" fill="white"/>
<path d="M258.292 86.4883C257.485 91.1328 256.763 99.6146 260.062 102.624C260.062 102.624 259.099 106.829 250.313 108.288C244.408 106.39 245.704 102.963 245.704 102.963C250.83 101.618 250.61 97.8021 249.64 94.2338L258.292 86.4883Z" fill="#FF8B7B"/>
<path opacity="0.2" d="M254.766 89.6387L249.64 94.1982C249.879 95.0295 250.045 95.8799 250.136 96.7399C252.104 96.4142 254.759 94.1911 254.922 92.1308C255.022 91.2976 254.969 90.453 254.766 89.6387Z" fill="black"/>
<path d="M261.102 80.7744C259.396 86.8066 258.709 90.4245 254.943 92.8954C249.279 96.6053 242.333 92.1874 242.199 85.7517C242.071 79.9744 244.875 71.0748 251.403 69.942C252.837 69.6877 254.312 69.8036 255.688 70.2789C257.065 70.7542 258.297 71.573 259.268 72.6579C260.24 73.7428 260.918 75.0577 261.239 76.4781C261.56 77.8985 261.513 79.3773 261.102 80.7744Z" fill="#FF8B7B"/>
<path d="M257.471 84.4707C256.678 82.545 256.104 76.2013 259.411 74.6437C262.717 73.0861 266.151 76.8881 265.28 78.6864C263.942 81.4759 259.312 88.9311 257.471 84.4707Z" fill="#263238"/>
<path d="M259.446 76.8801C258.632 74.7561 248.925 73.5525 247.566 71.2656C245.952 68.5469 252.572 68.2212 257.124 69.6018C261.124 70.8196 263.793 71.9949 263.326 74.9685C263.064 76.6535 259.446 76.8801 259.446 76.8801Z" fill="#263238"/>
<path d="M261.555 74.6938C261.555 74.6938 263.679 75.2744 264.841 73.7168C264.472 75.2602 262.667 76.8178 261.555 74.6938Z" fill="#263238"/>
<path d="M251.835 68.1443C248.918 65.8787 244.946 68.5408 245.321 71.4932C245.697 74.4455 255.531 76.6899 255.531 76.6899C255.531 76.6899 255.708 71.1533 251.835 68.1443Z" fill="#263238"/>
<path d="M245.328 71.5078C245.774 73.5752 247.282 75.1965 250.334 76.4001C248.568 75.0941 247.229 73.2927 246.489 71.2246L245.328 71.5078Z" fill="#263238"/>
<path d="M251.453 80.4713C251.346 80.974 250.999 81.3209 250.674 81.2501C250.348 81.1793 250.171 80.712 250.277 80.2164C250.383 79.7208 250.737 79.3739 251.063 79.4447C251.389 79.5155 251.566 80.004 251.453 80.4713Z" fill="#263238"/>
<path d="M245.831 79.2522C245.717 79.7478 245.371 80.0947 245.045 80.0239C244.719 79.9531 244.542 79.4929 244.648 78.9973C244.755 78.5017 245.109 78.1548 245.434 78.2185C245.76 78.2822 245.937 78.7566 245.831 79.2522Z" fill="#263238"/>
<path d="M247.566 79.8906C246.642 81.2834 245.529 82.5414 244.26 83.6289C244.968 84.6413 246.546 84.5918 246.546 84.5918L247.566 79.8906Z" fill="#FF5652"/>
<path d="M247.693 86.2833C248.358 86.4484 249.053 86.4503 249.718 86.2888C250.384 86.1273 251.001 85.8072 251.516 85.3558C251.53 85.3419 251.541 85.3254 251.549 85.3072C251.557 85.2889 251.561 85.2694 251.561 85.2496C251.561 85.2298 251.557 85.2102 251.549 85.192C251.541 85.1737 251.53 85.1572 251.516 85.1434C251.487 85.1165 251.449 85.1016 251.41 85.1016C251.371 85.1016 251.333 85.1165 251.304 85.1434C250.82 85.5502 250.248 85.8383 249.634 85.9846C249.019 86.1309 248.379 86.1314 247.764 85.9859C247.724 85.9774 247.683 85.985 247.649 86.0069C247.615 86.0288 247.592 86.0633 247.583 86.1027C247.575 86.1422 247.582 86.1833 247.604 86.2172C247.626 86.251 247.661 86.2748 247.7 86.2833H247.693Z" fill="#263238"/>
<path d="M253.541 79.0267C253.595 79.0375 253.652 79.0334 253.704 79.0146C253.756 78.9959 253.802 78.9632 253.837 78.9203C253.872 78.8773 253.894 78.8256 253.902 78.7707C253.91 78.7159 253.902 78.6599 253.881 78.6089C253.69 78.1729 253.397 77.7887 253.028 77.4883C252.658 77.1878 252.223 76.9798 251.757 76.8814C251.678 76.8712 251.599 76.8922 251.535 76.9398C251.472 76.9874 251.429 77.0579 251.417 77.1363C251.411 77.1749 251.412 77.2143 251.422 77.2523C251.431 77.2902 251.447 77.326 251.47 77.3576C251.493 77.3891 251.522 77.4158 251.556 77.4362C251.589 77.4565 251.626 77.4701 251.665 77.4761C252.032 77.5569 252.375 77.7243 252.664 77.9645C252.954 78.2047 253.181 78.5106 253.329 78.8567C253.348 78.8996 253.378 78.9373 253.415 78.9667C253.452 78.9962 253.495 79.0168 253.541 79.0267Z" fill="#263238"/>
<path d="M243.778 76.7823C243.833 76.7977 243.892 76.7957 243.947 76.7767C244.001 76.7578 244.048 76.7227 244.082 76.6761C244.306 76.3753 244.598 76.1315 244.934 75.9642C245.27 75.797 245.64 75.711 246.015 75.7132C246.094 75.7207 246.173 75.6966 246.234 75.6461C246.295 75.5957 246.333 75.523 246.341 75.4442C246.348 75.3653 246.324 75.2867 246.274 75.2256C246.223 75.1645 246.151 75.126 246.072 75.1185C245.597 75.1044 245.125 75.2052 244.698 75.4122C244.27 75.6193 243.899 75.9266 243.615 76.3079C243.59 76.3382 243.571 76.3733 243.56 76.411C243.549 76.4487 243.546 76.4883 243.55 76.5274C243.555 76.5665 243.567 76.6042 243.587 76.6383C243.607 76.6724 243.633 76.7021 243.665 76.7256C243.697 76.754 243.736 76.7735 243.778 76.7823Z" fill="#263238"/>
<path d="M271.362 108.438C272.65 110.689 273.726 112.87 274.845 115.114C275.964 117.358 276.969 119.617 277.925 121.925C278.881 124.233 279.808 126.576 280.615 129.005C281.454 131.427 282.163 133.892 282.739 136.389L283.171 138.322C283.36 139.23 283.441 140.157 283.412 141.083C283.352 142.805 282.97 144.501 282.286 146.082C281.084 148.746 279.374 151.151 277.252 153.162C275.359 154.989 273.297 156.632 271.093 158.068C270.023 158.776 268.919 159.428 267.807 160.051C266.696 160.674 265.591 161.247 264.352 161.792L262.002 157.679C262.859 156.971 263.8 156.263 264.678 155.498C265.556 154.734 266.413 153.955 267.262 153.176C268.903 151.654 270.425 150.009 271.815 148.255C273.051 146.752 274.01 145.04 274.647 143.2C274.866 142.515 274.952 141.794 274.902 141.076C274.881 140.788 274.826 140.503 274.739 140.227L274.257 138.641C272.827 134.242 271.124 129.936 269.16 125.748C268.19 123.624 267.156 121.5 266.122 119.376C265.089 117.252 263.998 115.128 262.943 113.11L271.362 108.438Z" fill="#FF8B7B"/>
<path d="M270.059 103.642C275.964 104.917 280.07 120.323 280.07 120.323L269.514 129.902C266.158 126.168 263.518 121.848 261.726 117.158C258.929 109.448 263.744 102.269 270.059 103.642Z" fill="#263238"/>
<path d="M263.283 156.949L256.494 157.02L260.742 163.866C260.742 163.866 265.577 162.67 266.009 160.241L263.283 156.949Z" fill="#FF8B7B"/>
<path d="M252.267 161.062L256.012 166.556L260.706 163.866L256.494 157.02L252.267 161.062Z" fill="#FF8B7B"/>
<path d="M262.957 86.2979C262.203 87.6859 260.931 88.7192 259.417 89.1724C257.407 89.76 256.38 87.9688 256.918 86.0643C257.407 84.3509 259.042 81.9791 261.053 82.2269C263.064 82.4747 263.857 84.5916 262.957 86.2979Z" fill="#FF8B7B"/>
<path d="M202.781 203.443L195.232 203.99L195.284 204.696L202.832 204.149L202.781 203.443Z" fill="#3EB449"/>
<path d="M209.564 202.954L205.857 203.223L205.908 203.929L209.615 203.66L209.564 202.954Z" fill="#3EB449"/>
<path d="M241.919 119.596L116.914 128.609C114.313 128.812 111.896 130.033 110.189 132.006C108.482 133.98 107.622 136.547 107.795 139.151L112.043 198.071C112.244 200.676 113.467 203.097 115.443 204.806C117.42 206.515 119.992 207.375 122.6 207.197L129.68 206.687C130.194 206.65 130.702 206.819 131.092 207.156C131.483 207.493 131.723 207.971 131.761 208.486L132.554 219.403C132.567 219.614 132.643 219.817 132.772 219.985C132.901 220.153 133.077 220.279 133.278 220.346C133.479 220.413 133.696 220.418 133.9 220.361C134.104 220.304 134.286 220.187 134.423 220.026L146.275 206.326C146.774 205.752 147.478 205.399 148.236 205.342L247.583 198.184C250.186 197.983 252.604 196.763 254.313 194.789C256.022 192.815 256.883 190.247 256.709 187.642L252.461 128.722C252.26 126.119 251.04 123.701 249.066 121.992C247.092 120.283 244.524 119.422 241.919 119.596Z" fill="#106FA4"/>
<path d="M135.391 155.902L142.145 155.413L142.698 163.06L150.075 162.529L149.523 154.882L156.305 154.387L157.884 176.236L151.102 176.724L150.464 167.888L143.087 168.426L143.724 177.262L136.977 177.751L135.391 155.902Z" fill="white"/>
<path opacity="0.2" d="M117.132 128.856C114.53 129.059 112.113 130.28 110.406 132.254C108.699 134.227 107.839 136.795 108.013 139.398L112.261 198.318C112.462 200.924 113.684 203.344 115.661 205.053C117.638 206.763 120.21 207.622 122.817 207.444L123.858 207.366C125.587 207.241 127.227 206.549 128.522 205.397C129.818 204.245 130.697 202.697 131.023 200.994L145.261 126.824L117.132 128.856Z" fill="black"/>
<path d="M179.074 168.264L166.911 169.142C167.004 169.929 167.335 170.67 167.86 171.266C168.161 171.582 168.531 171.825 168.941 171.975C169.351 172.125 169.79 172.177 170.224 172.129C170.821 172.087 171.396 171.892 171.895 171.563C172.286 171.267 172.62 170.902 172.879 170.487L178.897 170.607C178.243 172.091 177.179 173.358 175.832 174.26C174.595 175.044 172.768 175.516 170.352 175.676C168.662 175.873 166.95 175.692 165.339 175.145C164.048 174.603 162.939 173.701 162.146 172.547C161.237 171.233 160.714 169.69 160.638 168.094C160.512 166.985 160.619 165.862 160.953 164.798C161.287 163.733 161.841 162.751 162.578 161.913C164.051 160.27 166.175 159.348 168.95 159.145C170.787 158.926 172.65 159.145 174.387 159.782C175.717 160.35 176.838 161.317 177.595 162.55C178.461 164.081 178.946 165.798 179.011 167.556L179.074 168.264ZM172.702 165.8C172.616 164.879 172.219 164.015 171.577 163.35C171.253 163.101 170.882 162.921 170.486 162.822C170.089 162.722 169.677 162.705 169.274 162.771C168.871 162.838 168.486 162.986 168.143 163.207C167.8 163.429 167.506 163.718 167.279 164.058C166.901 164.724 166.71 165.48 166.727 166.246L172.702 165.8Z" fill="white"/>
<path d="M180.951 152.611L187.033 152.172L188.611 174.014L182.53 174.453L180.951 152.611Z" fill="white"/>
<path d="M191.111 151.875L197.192 151.436L198.771 173.277L192.697 173.716L191.111 151.875Z" fill="white"/>
<path d="M201.334 165.185C201.219 164.077 201.339 162.957 201.686 161.898C202.032 160.839 202.597 159.865 203.345 159.04C204.86 157.355 207.005 156.411 209.781 156.208C212.943 155.981 215.402 156.727 217.158 158.445C218.617 159.983 219.459 162.003 219.526 164.122C219.592 166.24 218.878 168.309 217.519 169.936C216.018 171.607 213.842 172.551 210.992 172.768C208.777 173.033 206.54 172.507 204.676 171.281C203.685 170.593 202.867 169.684 202.287 168.626C201.707 167.569 201.381 166.39 201.334 165.185ZM207.416 164.732C207.405 165.849 207.788 166.935 208.499 167.798C208.786 168.091 209.133 168.319 209.517 168.465C209.9 168.611 210.311 168.672 210.72 168.644C211.13 168.616 211.528 168.499 211.888 168.301C212.248 168.104 212.56 167.83 212.804 167.5C213.376 166.515 213.591 165.362 213.413 164.236C213.42 163.141 213.041 162.079 212.344 161.234C212.071 160.935 211.733 160.703 211.356 160.556C210.979 160.408 210.573 160.35 210.17 160.385C209.75 160.404 209.339 160.521 208.971 160.724C208.603 160.928 208.286 161.214 208.046 161.56C207.476 162.512 207.262 163.637 207.444 164.732H207.416Z" fill="white"/>
<path d="M221.441 149.678L227.919 149.211L228.28 154.167L227.749 164.256L223.742 164.546L221.795 154.634L221.441 149.678ZM222.857 166.16L228.903 165.722L229.293 171.074L223.239 171.506L222.857 166.16Z" fill="white"/>
<path d="M115.405 109.458C115.373 110.494 115.428 111.531 115.568 112.559C109.152 114.701 102.31 115.243 95.6374 114.137C95.9577 112.926 96.1523 111.686 96.218 110.435C95.9948 111.694 95.5565 112.906 94.9223 114.017C93.6621 113.776 92.9541 113.571 92.9541 113.571C92.9541 113.571 94.2426 106.604 91.9204 101.535C89.5982 96.4657 90.7593 93.6337 92.5151 92.8337C95.7719 82.8226 108.013 84.4014 112.155 88.4653C117.408 93.6196 117.437 108.141 118.371 111.461C117.6 111.794 116.842 112.098 116.084 112.367C115.705 111.44 115.476 110.457 115.405 109.458Z" fill="#263238"/>
<path d="M120.467 125.041L121.104 127.059C121.338 127.767 121.571 128.475 121.812 129.147C122.286 130.563 122.782 131.979 123.313 133.339C123.844 134.698 124.354 136.128 124.906 137.516L125.727 139.64L125.932 140.164L125.982 140.284C125.895 140.208 125.794 140.148 125.685 140.107C125.529 140.051 125.465 140.107 125.564 140.107C125.735 140.107 125.904 140.08 126.067 140.029C126.621 139.854 127.153 139.616 127.653 139.321C128.86 138.618 130.015 137.828 131.108 136.957C132.255 136.065 133.381 135.109 134.485 134.125C135.59 133.141 136.701 132.114 137.77 131.109L139.944 132.949C139.038 134.252 138.082 135.442 137.112 136.652C136.142 137.863 135.052 138.996 133.933 140.121C132.781 141.297 131.528 142.368 130.188 143.322C129.421 143.859 128.597 144.31 127.731 144.667C127.181 144.887 126.605 145.035 126.017 145.106C125.22 145.205 124.41 145.095 123.667 144.787C122.857 144.442 122.168 143.866 121.684 143.13C121.578 142.968 121.479 142.805 121.401 142.656L121.21 142.274L120.955 141.757C120.622 141.049 120.247 140.341 119.957 139.675C119.313 138.259 118.668 136.843 118.081 135.427C117.493 134.011 116.92 132.553 116.374 131.094C116.12 130.386 115.865 129.615 115.624 128.871C115.383 128.128 115.15 127.399 114.916 126.528L120.467 125.041Z" fill="#FFC3BD"/>
<path d="M118.789 118.754C121.232 119.377 122.938 129.416 122.938 129.416L116.212 133.99C116.212 133.99 109.769 123.859 111.646 121.175C113.6 118.386 115.228 117.848 118.789 118.754Z" fill="#106FA4"/>
<path d="M118.789 118.754C121.232 119.377 122.938 129.416 122.938 129.416L116.212 133.99C116.212 133.99 109.769 123.859 111.646 121.175C113.6 118.386 115.228 117.848 118.789 118.754Z" fill="#106FA4"/>
<path opacity="0.4" d="M118.789 118.754C121.232 119.377 122.938 129.416 122.938 129.416L116.212 133.99C116.212 133.99 109.769 123.859 111.646 121.175C113.6 118.386 115.228 117.848 118.789 118.754Z" fill="white"/>
<path opacity="0.3" d="M118.57 120.998L120.446 131.115L116.665 133.678L118.57 120.998Z" fill="black"/>
<path d="M137.657 131.349L139.902 125.939L142.67 131.349C142.67 131.349 140.872 134.039 138.5 133.381L137.657 131.349Z" fill="#FFC3BD"/>
<path d="M142.372 125.381L145.926 126.811L142.67 131.349L139.894 125.94L142.372 125.381Z" fill="#FFC3BD"/>
<path d="M105.585 287.767H111.511L111.908 274.053H105.982L105.585 287.767Z" fill="#FFC3BD"/>
<path d="M65.8516 270.102L71.2961 272.425L78.4256 260.559L72.974 258.236L65.8516 270.102Z" fill="#FFC3BD"/>
<path d="M72.3443 271.618L66.6803 268.135C66.5835 268.073 66.467 268.048 66.3534 268.066C66.2397 268.085 66.1368 268.144 66.0643 268.234L62.6589 272.319C62.5741 272.426 62.5133 272.55 62.4804 272.682C62.4475 272.815 62.4433 272.952 62.4681 273.087C62.4929 273.221 62.5462 273.348 62.6242 273.46C62.7023 273.572 62.8035 273.666 62.9208 273.735C64.9174 274.917 65.9369 275.385 68.4291 276.914C69.9654 277.863 72.1036 279.392 74.2205 280.695C76.3374 281.997 77.7605 279.987 76.9746 279.243C73.5408 275.965 73.6399 274.408 72.9957 272.468C72.8886 272.115 72.6571 271.813 72.3443 271.618Z" fill="#263238"/>
<path d="M111.709 287.08H105.061C104.947 287.079 104.836 287.119 104.748 287.193C104.661 287.267 104.604 287.37 104.587 287.484L103.829 292.751C103.811 292.886 103.822 293.024 103.862 293.154C103.902 293.285 103.969 293.405 104.06 293.507C104.151 293.608 104.263 293.689 104.388 293.743C104.513 293.797 104.649 293.824 104.785 293.82C107.107 293.785 108.226 293.643 111.157 293.643C112.955 293.643 116.679 293.834 119.165 293.834C121.65 293.834 121.777 291.378 120.743 291.151C116.106 290.153 114.279 288.779 112.715 287.469C112.438 287.223 112.08 287.084 111.709 287.08Z" fill="#263238"/>
<path opacity="0.2" d="M111.901 274.061L111.702 281.126H105.776L105.982 274.061H111.901Z" fill="black"/>
<path opacity="0.2" d="M72.9747 258.244L78.4192 260.559L74.7447 266.676L69.3002 264.354L72.9747 258.244Z" fill="black"/>
<path d="M118.789 118.753C118.789 118.753 121.621 119.744 115.957 154.486H91.885C92.2885 144.701 92.3027 138.669 87.637 118.583C91.0029 117.887 94.4151 117.438 97.8463 117.238C101.483 116.975 105.134 116.975 108.771 117.238C113.472 117.663 118.789 118.753 118.789 118.753Z" fill="#106FA4"/>
<path opacity="0.4" d="M118.789 118.753C118.789 118.753 121.621 119.744 115.957 154.486H91.885C92.2885 144.701 92.3027 138.669 87.637 118.583C91.0029 117.887 94.4151 117.438 97.8463 117.238C101.483 116.975 105.134 116.975 108.771 117.238C113.472 117.663 118.789 118.753 118.789 118.753Z" fill="white"/>
<path d="M97.8603 117.231C101.497 116.975 105.148 116.975 108.785 117.231C109.372 117.287 109.974 117.351 110.569 117.422C110.816 117.794 110.975 118.218 111.033 118.661C111.091 119.104 111.046 119.555 110.902 119.978C110.13 121.882 107.362 122.102 105.351 122.102C97.9099 122.102 96.6497 117.754 96.6001 117.57L96.5293 117.308L97.8603 117.231Z" fill="white"/>
<path d="M98.9438 104.941C99.6518 108.481 100.324 114.896 97.8606 117.239C97.8606 117.239 98.8235 120.779 105.351 120.779C112.53 120.779 108.785 117.239 108.785 117.239C104.863 116.305 104.969 113.395 105.649 110.669L98.9438 104.941Z" fill="#FFC3BD"/>
<path d="M99.6588 102.441C98.8163 105.224 99.9845 111.808 101.719 114.357C98.2994 112.396 97.1454 106.42 97.1454 106.42L99.6588 102.441Z" fill="#263238"/>
<path opacity="0.2" d="M101.677 107.277L105.649 110.662C105.474 111.296 105.361 111.946 105.309 112.601C103.815 112.382 101.769 110.739 101.599 109.175C101.511 108.543 101.537 107.9 101.677 107.277Z" fill="black"/>
<path d="M95.701 98.6672C97.0746 104.381 97.5277 106.83 100.969 109.287C106.144 112.976 112.863 110.045 113.224 104.034C113.55 98.6247 111.256 90.1924 105.202 88.8897C103.869 88.5952 102.482 88.6464 101.173 89.0386C99.865 89.4307 98.6786 90.1508 97.7267 91.1303C96.7748 92.1099 96.089 93.3165 95.7345 94.6355C95.38 95.9546 95.3685 97.3424 95.701 98.6672Z" fill="#FFC3BD"/>
<path d="M115.964 154.487C115.964 154.487 120.63 200.096 120.212 218.15C119.808 236.926 112.927 279.746 112.927 279.746H104.926C104.926 279.746 106.194 238.01 105.486 219.566C104.714 199.459 98.3276 154.473 98.3276 154.473L115.964 154.487Z" fill="#106FA4"/>
<path opacity="0.4" d="M115.964 154.487C115.964 154.487 120.63 200.096 120.212 218.15C119.808 236.926 112.927 279.746 112.927 279.746H104.926C104.926 279.746 106.194 238.01 105.486 219.566C104.714 199.459 98.3276 154.473 98.3276 154.473L115.964 154.487Z" fill="black"/>
<path d="M104.261 280.043H113.649L114.343 277.048L103.822 276.68L104.261 280.043Z" fill="#106FA4"/>
<path opacity="0.2" d="M105.592 165.836C111.497 177.716 106.775 199.388 104.686 207.452C103.617 195.345 101.812 180.548 100.403 169.666C101.295 163.549 102.867 160.356 105.592 165.836Z" fill="black"/>
<path d="M109.614 154.486C109.614 154.486 104.162 201.922 100.048 217.123C95.1704 235.198 76.5995 265.975 76.5995 265.975L69.1726 262.817C69.1726 262.817 80.6634 227.871 84.4017 218.348C92.3667 198.028 85.5487 167.747 91.9136 154.486H109.614Z" fill="#106FA4"/>
<path opacity="0.4" d="M109.614 154.486C109.614 154.486 104.162 201.922 100.048 217.123C95.1704 235.198 76.5995 265.975 76.5995 265.975L69.1726 262.817C69.1726 262.817 80.6634 227.871 84.4017 218.348C92.3667 198.028 85.5487 167.747 91.9136 154.486H109.614Z" fill="black"/>
<path d="M68.1455 262.838L77.3637 266.76L79.5797 264.282L68.9455 259.178L68.1455 262.838Z" fill="#106FA4"/>
<path d="M104.785 98.7458C104.87 99.213 105.182 99.5529 105.493 99.4962C105.805 99.4396 105.982 99.0148 105.897 98.5475C105.812 98.0802 105.5 97.7404 105.189 97.79C104.877 97.8395 104.665 98.2714 104.785 98.7458Z" fill="#263238"/>
<path d="M110.066 97.8102C110.144 98.2775 110.463 98.6173 110.774 98.5607C111.086 98.5041 111.27 98.0792 111.185 97.612C111.1 97.1447 110.788 96.8048 110.477 96.8544C110.165 96.904 109.981 97.3358 110.066 97.8102Z" fill="#263238"/>
<path d="M110.343 96.9119L111.412 96.3809C111.412 96.3809 110.987 97.365 110.343 96.9119Z" fill="#263238"/>
<path d="M108.799 98.8652C109.407 99.8645 110.151 100.775 111.008 101.57C110.798 101.782 110.544 101.947 110.265 102.052C109.985 102.157 109.685 102.2 109.387 102.179L108.799 98.8652Z" fill="#ED847E"/>
<path d="M107.255 104.395C107.524 104.394 107.791 104.371 108.055 104.324C108.076 104.323 108.096 104.318 108.114 104.309C108.132 104.3 108.148 104.287 108.16 104.271C108.173 104.256 108.182 104.237 108.187 104.218C108.192 104.198 108.193 104.178 108.189 104.158C108.186 104.138 108.178 104.119 108.166 104.102C108.155 104.086 108.14 104.072 108.122 104.061C108.105 104.051 108.086 104.044 108.066 104.042C108.046 104.04 108.025 104.042 108.006 104.048C107.423 104.164 106.821 104.141 106.248 103.98C105.676 103.818 105.15 103.524 104.714 103.121C104.687 103.095 104.652 103.08 104.615 103.08C104.578 103.08 104.542 103.095 104.515 103.121C104.502 103.133 104.491 103.148 104.483 103.166C104.476 103.183 104.472 103.201 104.472 103.22C104.472 103.238 104.476 103.257 104.483 103.274C104.491 103.291 104.502 103.306 104.515 103.319C105.254 104.02 106.237 104.406 107.255 104.395Z" fill="#263238"/>
<path d="M97.7052 95.3192C97.86 96.8248 98.0963 98.3208 98.4132 99.8008C98.4132 99.8008 101.953 95.3192 102.541 92.9191C102.4 93.864 102.126 94.7842 101.727 95.6519C101.727 95.6519 106.491 94.6112 106.959 91.4677C106.951 92.875 106.794 94.2775 106.491 95.6519C106.491 95.6519 111.037 93.8678 110.619 90.8517C110.201 87.8356 103.22 86.6674 99.9991 87.6869C96.7777 88.7064 93.6271 92.0128 94.5758 96.5582C95.5245 101.104 97.3441 102.81 97.3441 102.81C97.3441 102.81 96.0343 98.2291 97.7052 95.3192Z" fill="#263238"/>
<path d="M95.4532 102.972C95.8902 104.021 96.7253 104.854 97.7754 105.287C99.1914 105.854 100.034 104.643 99.7861 103.241C99.5666 101.974 98.5684 100.161 97.1028 100.19C96.7821 100.204 96.47 100.298 96.1947 100.463C95.9193 100.628 95.6894 100.859 95.5257 101.135C95.362 101.411 95.2697 101.724 95.257 102.044C95.2443 102.365 95.3117 102.684 95.4532 102.972Z" fill="#FFC3BD"/>
<path d="M98.5615 93.1387C97.8535 95.9707 99.3261 102.484 101.181 104.941C97.6411 103.15 96.2251 97.2309 96.2251 97.2309L98.5615 93.1387Z" fill="#263238"/>
<path d="M102.845 97.1311C102.882 97.1201 102.915 97.1019 102.945 97.0775C102.974 97.0532 102.998 97.0233 103.015 96.9895C103.164 96.6701 103.387 96.3906 103.665 96.174C103.944 95.9574 104.269 95.8098 104.615 95.7434C104.688 95.7328 104.755 95.6947 104.801 95.6368C104.847 95.5789 104.869 95.5056 104.863 95.4319C104.86 95.3949 104.849 95.3589 104.831 95.3263C104.813 95.2936 104.789 95.2648 104.76 95.2417C104.731 95.2185 104.698 95.2015 104.662 95.1916C104.626 95.1817 104.588 95.1791 104.552 95.1841C104.112 95.2603 103.698 95.4409 103.343 95.7107C102.988 95.9806 102.703 96.3317 102.513 96.7346C102.488 96.7838 102.479 96.839 102.486 96.8934C102.493 96.9477 102.515 96.999 102.55 97.041C102.585 97.0829 102.632 97.1138 102.684 97.1298C102.737 97.1458 102.793 97.1462 102.845 97.1311Z" fill="#263238"/>
<path d="M111.999 94.9373C112.035 94.9388 112.07 94.9327 112.103 94.9192C112.136 94.9058 112.166 94.8854 112.19 94.8594C112.242 94.8065 112.271 94.7353 112.271 94.6612C112.271 94.5871 112.242 94.5159 112.19 94.4629C111.889 94.1362 111.514 93.8852 111.097 93.7302C110.68 93.5752 110.232 93.5206 109.79 93.5709C109.753 93.5777 109.718 93.5917 109.687 93.6121C109.656 93.6326 109.629 93.659 109.608 93.69C109.587 93.7209 109.572 93.7557 109.564 93.7924C109.557 93.8291 109.557 93.8669 109.564 93.9036C109.579 93.9752 109.622 94.0381 109.682 94.079C109.743 94.1199 109.817 94.1357 109.889 94.1231C110.238 94.0842 110.591 94.128 110.919 94.251C111.248 94.374 111.543 94.5728 111.78 94.8311C111.806 94.864 111.84 94.8907 111.877 94.909C111.915 94.9274 111.957 94.9371 111.999 94.9373Z" fill="#263238"/>
<path d="M90.5753 126.988C89.5912 130.096 88.6496 133.36 87.8495 136.574C87.0442 139.747 86.4553 142.972 86.0866 146.224L86.03 146.819C86.03 147.01 86.03 147.053 86.03 147.223C86.0378 147.557 86.0638 147.89 86.1079 148.221C86.198 148.996 86.328 149.767 86.4972 150.529C86.83 152.108 87.2052 153.736 87.6867 155.35C88.1681 156.965 88.5788 158.607 89.0602 160.236L90.4762 165.121L87.8495 166.204C86.2353 163.117 84.8335 159.974 83.5237 156.731C82.8935 155.103 82.2776 153.46 81.7678 151.726C81.5129 150.862 81.2722 149.977 81.0598 149.014C80.959 148.504 80.888 147.989 80.8474 147.47C80.8474 147.208 80.8474 146.819 80.8474 146.585V145.877C80.9074 144.073 81.0729 142.274 81.343 140.49C81.5766 138.72 81.9236 136.992 82.2988 135.272C83.0355 131.826 83.9812 128.428 85.1308 125.098L90.5753 126.988Z" fill="#FFC3BD"/>
<path d="M87.6514 118.584C85.2442 119.292 82.3485 127.611 82.3485 127.611L91.6941 134.294C91.6941 134.294 95.1067 127.37 94.0942 124.255C93.0393 121.012 90.4056 117.748 87.6514 118.584Z" fill="#106FA4"/>
<path opacity="0.4" d="M87.6514 118.584C85.2442 119.292 82.3485 127.611 82.3485 127.611L91.6941 134.294C91.6941 134.294 95.1067 127.37 94.0942 124.255C93.0393 121.012 90.4056 117.748 87.6514 118.584Z" fill="white"/>
<path d="M74.7372 273.869C74.8524 273.829 74.9571 273.764 75.044 273.678C75.1309 273.592 75.1978 273.488 75.2399 273.374C75.2808 273.3 75.3023 273.217 75.3023 273.133C75.3023 273.049 75.2808 272.966 75.2399 272.892C74.8151 272.269 72.6699 272.319 72.4079 272.326C72.3808 272.327 72.3543 272.335 72.3317 272.35C72.3091 272.365 72.2913 272.386 72.2805 272.411C72.2667 272.433 72.2594 272.459 72.2594 272.485C72.2594 272.512 72.2667 272.537 72.2805 272.56C72.8398 273.119 73.8876 274.032 74.624 273.891L74.7372 273.869ZM72.7478 272.581C73.6044 272.581 74.7514 272.701 74.978 273.034C74.9973 273.066 75.0076 273.103 75.0076 273.14C75.0076 273.178 74.9973 273.214 74.978 273.246C74.9467 273.332 74.8947 273.408 74.8268 273.469C74.7589 273.529 74.677 273.572 74.5886 273.593C74.1992 273.692 73.5195 273.289 72.7478 272.581Z" fill="#106FA4"/>
<path d="M73.3778 272.432C74.0292 272.226 74.723 271.865 74.8717 271.462C74.9087 271.357 74.9092 271.242 74.8732 271.137C74.8373 271.032 74.7669 270.942 74.6735 270.881C74.591 270.812 74.494 270.763 74.3897 270.737C74.2855 270.712 74.1767 270.71 74.0717 270.732C73.2292 270.881 72.3229 272.325 72.2875 272.389C72.2751 272.411 72.2686 272.435 72.2686 272.46C72.2686 272.485 72.2751 272.509 72.2875 272.531C72.3003 272.552 72.3179 272.569 72.3389 272.581C72.3599 272.594 72.3836 272.601 72.4079 272.602C72.7377 272.592 73.0645 272.535 73.3778 272.432ZM74.0292 271.016H74.1212C74.1878 271.002 74.2566 271.003 74.3227 271.019C74.3888 271.035 74.4506 271.065 74.5036 271.108C74.6452 271.221 74.631 271.306 74.6098 271.37C74.4682 271.759 73.392 272.226 72.6769 272.318C73.0023 271.774 73.4698 271.329 74.0292 271.03V271.016Z" fill="#106FA4"/>
<path d="M113.933 288.115C114.432 288.156 114.93 288.029 115.349 287.754C115.446 287.666 115.52 287.555 115.564 287.431C115.609 287.308 115.622 287.175 115.603 287.046C115.598 286.969 115.573 286.895 115.531 286.83C115.489 286.766 115.431 286.713 115.363 286.677C114.655 286.281 112.283 287.485 112.014 287.619C111.988 287.63 111.966 287.648 111.95 287.671C111.934 287.695 111.926 287.722 111.926 287.75C111.926 287.778 111.934 287.806 111.95 287.829C111.966 287.852 111.988 287.87 112.014 287.881C112.644 288.023 113.287 288.102 113.933 288.115ZM114.988 286.89C115.078 286.884 115.168 286.901 115.249 286.939C115.277 286.955 115.301 286.977 115.317 287.005C115.333 287.032 115.342 287.063 115.342 287.095C115.355 287.177 115.347 287.26 115.32 287.338C115.293 287.416 115.247 287.486 115.186 287.541C114.825 287.867 113.848 287.923 112.538 287.704C113.302 287.296 114.131 287.021 114.988 286.89Z" fill="#106FA4"/>
<path d="M112.098 287.909H112.155C112.863 287.59 114.279 286.316 114.152 285.643C114.152 285.48 114.01 285.289 113.621 285.247C113.481 285.231 113.34 285.244 113.206 285.286C113.072 285.327 112.948 285.396 112.842 285.487C112.134 286.11 111.964 287.703 111.957 287.767C111.956 287.792 111.961 287.817 111.972 287.839C111.984 287.861 112 287.88 112.021 287.894C112.044 287.909 112.072 287.914 112.098 287.909ZM113.514 285.509H113.599C113.854 285.509 113.876 285.643 113.876 285.671C113.946 286.075 112.998 287.087 112.275 287.519C112.332 286.846 112.597 286.208 113.033 285.693C113.163 285.575 113.332 285.509 113.507 285.509H113.514Z" fill="#106FA4"/>
<path d="M91.5522 153.078L90.9433 155.202C90.8584 155.365 91.0566 155.535 91.3327 155.535H116.113C116.332 155.535 116.509 155.429 116.523 155.294L116.743 153.17C116.743 153.021 116.566 152.894 116.332 152.894H91.9487C91.8724 152.888 91.7958 152.902 91.7264 152.934C91.6569 152.966 91.5969 153.016 91.5522 153.078Z" fill="#263238"/>
<path d="M94.8232 155.795H94.1648C94.0373 155.795 93.9382 155.732 93.9453 155.647L94.2497 152.815C94.2497 152.737 94.3772 152.666 94.5046 152.666H95.156C95.2905 152.666 95.3825 152.737 95.3755 152.815L95.071 155.647C95.071 155.76 94.9577 155.795 94.8232 155.795Z" fill="#106FA4"/>
<path opacity="0.4" d="M94.8232 155.795H94.1648C94.0373 155.795 93.9382 155.732 93.9453 155.647L94.2497 152.815C94.2497 152.737 94.3772 152.666 94.5046 152.666H95.156C95.2905 152.666 95.3825 152.737 95.3755 152.815L95.071 155.647C95.071 155.76 94.9577 155.795 94.8232 155.795Z" fill="black"/>
<path d="M114.244 155.795H113.593C113.465 155.795 113.366 155.732 113.373 155.647L113.685 152.815C113.685 152.737 113.805 152.666 113.932 152.666H114.584C114.718 152.666 114.817 152.737 114.803 152.815L114.499 155.647C114.492 155.76 114.378 155.795 114.244 155.795Z" fill="#106FA4"/>
<path opacity="0.4" d="M114.244 155.795H113.593C113.465 155.795 113.366 155.732 113.373 155.647L113.685 152.815C113.685 152.737 113.805 152.666 113.932 152.666H114.584C114.718 152.666 114.817 152.737 114.803 152.815L114.499 155.647C114.492 155.76 114.378 155.795 114.244 155.795Z" fill="black"/>
<path d="M104.537 155.795H103.885C103.751 155.795 103.652 155.732 103.666 155.647L103.97 152.815C103.97 152.737 104.091 152.666 104.225 152.666H104.877C105.004 152.666 105.103 152.737 105.096 152.815L104.792 155.647C104.785 155.76 104.664 155.795 104.537 155.795Z" fill="#106FA4"/>
<path opacity="0.4" d="M104.537 155.795H103.885C103.751 155.795 103.652 155.732 103.666 155.647L103.97 152.815C103.97 152.737 104.091 152.666 104.225 152.666H104.877C105.004 152.666 105.103 152.737 105.096 152.815L104.792 155.647C104.785 155.76 104.664 155.795 104.537 155.795Z" fill="black"/>
<path d="M105.026 97.8384L106.095 97.3145C106.095 97.3145 105.67 98.2986 105.026 97.8384Z" fill="#263238"/>
<path d="M90.2781 164.32L95.3544 168.214L89.4709 169.51C89.4709 169.51 86.9717 166.678 87.8355 164.342L90.2781 164.32Z" fill="#FFC3BD"/>
<path d="M96.6007 173.036L91.6164 173.851L88.8977 168.739L95.3547 168.215L96.6007 173.036Z" fill="#FFC3BD"/>
</g>
<defs>
<clipPath id="clip0_6232_5314">
<rect width="354" height="354" fill="white"/>
</clipPath>
</defs>
</svg>