<svg width="22" height="22" viewBox="0 0 22 22" fill="none" xmlns="http://www.w3.org/2000/svg">
<path d="M11.0001 0.166016C5.03091 0.166016 0.166748 5.03018 0.166748 10.9993C0.166748 16.9685 5.03091 21.8327 11.0001 21.8327C16.9692 21.8327 21.8334 16.9685 21.8334 10.9993C21.8334 5.03018 16.9692 0.166016 11.0001 0.166016ZM15.7126 14.8668C15.6583 14.9592 15.5863 15.0398 15.5006 15.104C15.415 15.1683 15.3174 15.2148 15.2136 15.2411C15.1098 15.2673 15.0018 15.2726 14.8959 15.2567C14.79 15.2408 14.6883 15.204 14.5967 15.1485L11.2384 13.1443C10.4042 12.646 9.78675 11.5518 9.78675 10.5877V6.14602C9.78675 5.70185 10.1551 5.33352 10.5992 5.33352C11.0434 5.33352 11.4117 5.70185 11.4117 6.14602V10.5877C11.4117 10.9777 11.7367 11.5518 12.0726 11.7468L15.4309 13.751C15.8209 13.9785 15.9509 14.4768 15.7126 14.8668Z" fill="#003A63"/>
</svg>
