<svg width="68" height="68" viewBox="0 0 68 68" fill="none" xmlns="http://www.w3.org/2000/svg">
<rect x="0.690125" y="0.499512" width="67.1981" height="67.1981" rx="33.599" fill="white"/>
<g clip-path="url(#clip0_2975_20204)">
<g clip-path="url(#clip1_2975_20204)">
<path d="M21.2227 12.9663C29.2865 12.9663 37.3502 12.9663 45.33 12.9663C46.17 13.1343 46.506 13.6383 46.5899 14.5623C46.5899 15.6542 46.5899 16.8302 46.5899 17.9222C46.5899 23.046 46.5899 28.2539 46.5899 33.3777C46.5899 33.6297 46.6739 33.9657 46.422 34.2177C46.254 34.3857 46.002 34.3857 45.834 34.3857C41.2141 34.3857 36.5942 34.3857 31.9744 34.3857C31.8064 34.3857 31.5544 34.3857 31.3864 34.3017C31.3024 34.2177 31.2184 34.1337 31.2184 34.0497C31.2184 33.1257 31.1344 32.2017 31.2184 31.3618C31.3864 31.0258 31.5544 31.2778 31.8064 31.3618C32.6464 31.8658 33.2343 31.8658 33.7383 31.2778C33.9063 31.1098 33.9903 30.9418 34.0743 30.6898C34.4943 29.5978 34.9143 28.5899 35.2503 27.4979C35.4183 27.0779 35.5863 26.6579 35.7543 26.3219C35.8383 26.1539 35.9223 25.9019 36.0903 25.8179C36.2582 25.7339 36.5102 25.8179 36.6782 25.8179C39.1982 25.8179 41.7181 25.8179 44.238 25.8179C44.406 25.8179 44.49 25.8179 44.658 25.8179C45.078 25.7339 45.33 25.5659 45.33 25.146C45.33 24.978 45.33 24.81 45.33 24.726C45.33 22.29 45.33 19.8541 45.33 17.4182C45.33 17.2502 45.33 17.0822 45.33 16.9982C45.246 16.4942 45.078 16.3262 44.574 16.3262C43.986 16.3262 43.482 16.3262 42.8941 16.3262C39.8701 16.3262 36.8462 16.3262 33.9063 16.3262C33.7383 16.3262 33.4863 16.3262 33.3183 16.4102C32.9823 16.5782 32.8983 16.8302 32.8983 17.1662C32.8983 18.0062 32.8983 18.9301 32.8983 19.7701C32.8983 21.4501 32.8983 23.214 32.8983 24.894C32.8983 25.146 32.8983 25.4819 33.0663 25.7339C33.2343 26.1539 32.8983 26.4899 32.8143 26.9099C32.7304 27.1619 32.6464 27.3299 32.5624 27.5819C32.3104 28.2539 31.8064 28.4219 31.2184 28.0859C30.6304 27.7499 30.1264 27.4139 29.6224 26.9939C29.1185 26.6579 28.6145 26.4059 28.0265 26.2379C27.8585 26.2379 27.6905 26.2379 27.5225 26.0699C27.5225 25.8179 27.7745 25.8179 27.9425 25.8179C29.7064 25.23 30.4624 23.298 29.4544 21.7021C28.9505 20.8621 27.6065 20.1061 26.3465 20.6101C24.5826 21.2821 24.0786 23.13 24.8346 24.558C25.1706 25.146 25.6746 25.5659 26.3465 25.8179C26.5145 25.9019 26.6825 25.9019 26.7665 25.9859C26.6825 26.2379 26.5145 26.1539 26.3465 26.2379C25.7586 26.4059 25.1706 26.5739 24.6666 26.9939C23.4066 27.9179 22.9866 29.1778 22.9866 30.6898C22.9866 31.7818 22.9866 32.8737 22.9866 33.9657C22.9866 34.2177 22.9866 34.3857 22.8186 34.5537C22.1467 34.7217 21.3907 34.6377 20.7187 34.6377C20.4667 34.6377 20.2147 34.6377 19.9627 34.5537C19.8787 34.3857 19.8787 34.2177 19.8787 33.9657C19.8787 29.0098 19.8787 24.138 19.8787 19.1821C19.8787 19.0981 19.8787 19.0141 19.8787 18.9301C19.8787 18.0062 19.8787 17.0822 19.8787 16.1582C19.8787 15.7382 19.8787 15.3182 19.8787 14.8983C19.8787 14.4783 19.9627 14.1423 20.2147 13.8063C20.4667 13.1343 20.8027 13.0503 21.2227 12.9663Z" fill="#4FAAF6"/>
<path d="M12.9908 44.6339C12.9908 43.9619 12.9908 43.3739 12.9908 42.7019C13.0748 42.6179 13.2428 42.5339 13.4108 42.5339C14.2507 42.5339 15.0067 42.5339 15.8467 42.5339C17.2747 42.5339 18.7026 42.5339 20.0466 42.5339C21.8105 42.4499 23.6585 42.5339 25.4224 42.5339C26.0104 42.5339 26.5984 42.5339 27.1864 42.5339C27.3544 42.5339 27.5224 42.5339 27.6904 42.5339C33.6542 42.5339 39.618 42.5339 45.5818 42.5339C45.8338 42.5339 46.1698 42.5339 46.4218 42.5339C46.6738 42.6179 46.8418 42.6179 47.0938 42.6179C49.0257 42.6179 51.0417 42.6179 52.9736 42.6179C53.6456 42.6179 53.6456 42.7019 53.7296 43.2899C53.7296 43.5419 53.7296 43.8779 53.7296 44.1299C53.7296 45.3898 52.9736 46.3978 51.7137 46.8178C52.2176 46.7338 52.7216 46.5658 53.2256 46.9018C53.1416 47.1538 52.8896 47.0698 52.7216 47.0698C52.3016 47.0698 51.8817 47.0698 51.4617 47.0698C47.7658 47.0698 44.0699 47.0698 40.374 47.0698C40.29 47.0698 40.122 47.0698 40.038 47.0698C39.618 47.0698 39.534 47.1538 39.534 47.5738C39.534 49.0017 39.534 50.4297 39.534 51.8576C39.534 52.1096 39.534 52.3616 39.45 52.5296C39.45 52.6136 39.366 52.6136 39.282 52.5296C39.114 52.3616 39.198 52.1096 39.198 51.8576C39.198 50.4297 39.198 49.0017 39.198 47.6578C39.198 47.0698 39.198 47.0698 38.61 47.0698C35.8381 47.0698 33.0662 47.0698 30.2943 47.0698C29.7063 47.0698 29.7063 47.0698 29.7063 47.6578C29.7063 49.0857 29.7063 50.5137 29.7063 51.8576C29.7063 52.1096 29.7063 52.2776 29.6223 52.5296C29.6223 52.6136 29.5383 52.6136 29.4543 52.6136C29.2863 52.4456 29.2863 52.1936 29.2863 51.9416C29.2863 50.5977 29.2863 49.1697 29.2863 47.8258C29.2863 47.0698 29.2863 47.0698 28.5303 47.0698C24.5824 47.0698 20.6346 47.0698 16.7707 47.0698C16.4347 47.0698 16.0987 47.0698 15.8467 46.9858C14.0828 46.9018 13.3268 46.1458 12.9908 44.6339Z" fill="#E8EEFE"/>
<path d="M15.8467 42.702C14.9227 42.702 13.9988 42.702 12.9908 42.702C12.9908 34.5542 12.9908 26.3225 12.9908 18.1747C13.2428 16.6627 14.3347 15.7388 16.0147 15.7388C17.1907 15.7388 18.3666 15.7388 19.4586 15.7388C19.6266 15.7388 19.8786 15.7388 20.0466 15.9068C20.0466 16.8307 20.0466 17.7547 20.0466 18.7627C19.8786 18.7627 19.7106 18.7627 19.4586 18.7627C18.7866 18.7627 18.1986 18.7627 17.5267 18.7627C16.4347 18.7627 15.9307 19.2667 15.9307 20.3586C15.9307 25.2305 15.9307 30.1024 15.9307 34.9742C15.9307 37.3261 15.9307 39.5941 15.9307 41.946C15.9307 42.198 16.0147 42.45 15.8467 42.702Z" fill="#3C589F"/>
<path d="M55.4935 18.1745C55.4935 26.3222 55.4935 34.554 55.4935 42.7017C55.4095 42.7857 55.2415 42.8697 55.0735 42.8697C54.5696 42.8697 53.9816 42.9537 53.4776 42.7857C53.3096 42.5338 53.3096 42.2818 53.3096 42.0298C53.3096 39.5938 53.3096 37.1579 53.3096 34.722C53.3096 29.4301 53.3096 24.2223 53.3096 18.9304C53.3096 17.5865 52.7216 16.6625 51.5456 16.0745C51.4616 15.9905 51.2937 15.9905 51.2097 15.9065C51.2097 15.7385 51.3777 15.7385 51.4616 15.7385C52.0496 15.7385 52.6376 15.6545 53.3096 15.8225C54.4856 16.0745 55.3255 16.8305 55.4935 18.1745Z" fill="#2A428B"/>
<path d="M39.1977 52.6128C40.0377 52.6128 40.8776 52.6128 41.8016 52.6128C42.2216 52.7808 42.3056 53.0328 42.3056 53.4528C42.3056 53.8728 42.3056 54.2088 42.3056 54.6287C42.3056 55.0487 42.1376 55.3847 41.7176 55.4687C36.0898 55.4687 30.4619 55.4687 24.8341 55.4687C24.4981 55.3007 24.4141 54.9647 24.4141 54.5448C24.4141 54.1248 24.4141 53.7048 24.4141 53.3688C24.4141 52.8648 24.6661 52.6968 25.1701 52.6968C26.5141 52.6968 27.942 52.6968 29.286 52.6968H29.37C29.454 52.6128 29.622 52.5288 29.79 52.5288C30.5459 52.5288 31.3859 52.5288 32.1419 52.5288C32.5619 52.5288 32.9819 52.5288 33.4019 52.5288C33.9898 52.5288 34.4938 52.5288 35.0818 52.5288C35.5018 52.5288 35.9218 52.5288 36.3418 52.5288C37.0978 52.5288 37.9377 52.5288 38.6937 52.5288C38.8617 52.5288 39.0297 52.5288 39.1137 52.6968C39.1137 52.6128 39.1977 52.6128 39.1977 52.6128Z" fill="#E8EEFE"/>
<path d="M46.4218 34.2174C46.4218 27.7496 46.4218 21.2818 46.4218 14.814C46.4218 13.974 46.0858 13.386 45.3298 13.05C46.0018 13.05 46.6738 13.05 47.3458 13.05C48.1018 13.218 48.5217 13.638 48.5217 14.478C48.5217 14.982 48.5217 15.402 48.5217 15.906C48.5217 16.8299 48.5217 17.7539 48.5217 18.6779C48.5217 18.7619 48.5217 18.7619 48.5217 18.8459C48.5217 19.0139 48.5217 19.0979 48.5217 19.2659C48.5217 24.0537 48.5217 28.7576 48.5217 33.5455C48.5217 33.7975 48.5217 34.0494 48.4377 34.3014C48.3537 34.3854 48.2697 34.4694 48.1018 34.4694C47.5978 34.3854 47.0098 34.4694 46.4218 34.2174Z" fill="#1885E9"/>
<path d="M53.4774 42.7014C54.1494 42.7014 54.8214 42.7014 55.4934 42.7014C55.4934 43.3734 55.4934 44.0454 55.4934 44.7174C55.2414 45.6413 54.6534 46.3973 53.7294 46.8173C53.4774 46.9013 53.3094 46.9853 53.0574 46.9853C52.5535 46.9853 52.0495 46.9853 51.4615 46.9853C51.7975 46.7333 52.2175 46.6493 52.4695 46.3973C53.2254 45.7253 53.5614 44.8854 53.4774 43.8774C53.3934 42.8694 53.4774 42.8694 52.4695 42.8694C50.6215 42.8694 48.7736 42.8694 46.9256 42.8694C46.7576 42.8694 46.5896 42.9534 46.4216 42.7854C46.4216 42.7854 46.4216 42.7854 46.5056 42.7014C47.1776 42.5334 47.7656 42.6174 48.4376 42.6174C49.1936 42.6174 49.9495 42.6174 50.6215 42.6174C51.2095 42.6174 51.8815 42.6174 52.4695 42.6174C52.5535 42.6174 52.5535 42.6174 52.6375 42.6174C52.8894 42.5334 53.2254 42.5334 53.4774 42.7014Z" fill="#D2DBFA"/>
<path d="M41.7181 55.4697C42.0541 55.2177 42.3061 54.8817 42.2221 54.4617C42.2221 54.2097 42.2221 53.9577 42.2221 53.7897C42.2221 53.3697 42.1381 52.9497 41.8021 52.6978C42.3061 52.6978 42.8941 52.6978 43.3981 52.6978C43.9021 52.6978 44.2381 53.0337 44.2381 53.4537C44.2381 53.8737 44.2381 54.2937 44.2381 54.7137C44.2381 55.0497 43.9861 55.3017 43.7341 55.4697C42.9781 55.4697 42.3901 55.4697 41.7181 55.4697Z" fill="#D2DBFA"/>
<path d="M46.422 42.7022C40.2062 42.7022 33.9904 42.7022 27.7745 42.7022C27.6065 42.7022 27.3545 42.7022 27.1865 42.7022C27.0186 42.5342 27.0186 42.3662 27.0186 42.1142C27.0186 39.6783 27.0186 37.2424 27.0186 34.7225C27.0186 34.5545 27.0186 34.3025 27.1026 34.1345C27.1865 34.0505 27.3545 33.9665 27.5225 33.9665C28.3625 33.9665 29.2025 33.9665 30.0425 33.9665C30.4625 33.9665 30.9664 33.7985 31.3864 34.0505C32.5624 34.0505 33.8224 34.0505 34.9983 34.0505C38.7782 34.0505 42.5581 34.0505 46.338 34.0505C46.59 34.3865 46.59 34.6385 46.59 34.8065C46.59 37.2424 46.59 39.6783 46.59 42.1142C46.59 42.2822 46.59 42.5342 46.422 42.7022Z" fill="#D2DBFA"/>
<path d="M15.847 42.702C15.847 35.2262 15.847 27.7504 15.847 20.2747C15.847 19.2667 16.435 18.6787 17.359 18.6787C18.283 18.6787 19.123 18.6787 20.0469 18.6787C20.0469 23.7186 20.0469 28.6744 20.0469 33.7143C20.0469 33.8823 20.0469 34.1343 20.0469 34.3023C20.2149 34.4703 20.1309 34.6382 20.1309 34.8902C20.1309 37.3262 20.1309 39.7621 20.1309 42.198C20.1309 42.366 20.1309 42.618 19.9629 42.786C18.619 42.702 17.191 42.702 15.847 42.702Z" fill="#9AD7F8"/>
<path d="M33.0659 25.5655C32.8979 25.3975 32.8139 25.2295 32.8139 24.9775C32.8139 22.2056 32.8139 19.4336 32.8139 16.6617C32.8139 16.3257 32.8979 16.0737 33.3179 15.9057C33.4859 15.8217 33.5699 15.9057 33.7379 15.9057C36.7618 15.9057 39.7857 15.9057 42.8096 15.9057C43.4816 15.9057 43.7336 16.0737 43.7336 16.8297C43.7336 18.5937 43.7336 20.2736 43.7336 22.0376C43.7336 22.8775 43.7336 23.8015 43.7336 24.6415C43.7336 24.8095 43.7336 25.0615 43.6496 25.2295C43.5656 25.6495 43.3976 25.8175 42.8936 25.8175C42.3896 25.8175 41.8856 25.8175 41.2977 25.8175C39.5337 25.8175 37.8538 25.8175 36.0898 25.8175C35.8378 25.7335 35.9218 25.5655 36.0058 25.3975C36.0898 25.1455 36.2578 24.8935 36.0898 24.5575C36.0898 24.3055 36.0898 24.1375 36.1738 23.8855C36.5938 22.3736 36.9298 20.7776 37.3498 19.2656C37.3498 19.0976 37.4338 19.0137 37.4338 18.8457C37.4338 18.5937 37.3498 18.4257 37.0138 18.3417C36.7618 18.2577 36.5938 18.3417 36.4258 18.5937C36.5098 18.6777 36.5098 18.8457 36.4258 19.0137C36.0898 20.2736 35.7538 21.5336 35.5018 22.7935C35.4178 22.9615 35.4178 23.2135 35.2498 23.3815C35.0818 23.4655 34.8298 23.4655 34.6618 23.4655C34.4099 23.5495 34.2419 23.6335 34.0739 23.8015C33.6539 24.1375 33.6539 24.7255 33.4019 25.1455C33.3179 25.3135 33.3179 25.4815 33.0659 25.5655Z" fill="#E8EEFE"/>
<path d="M20.0469 42.7011C20.0469 39.8451 20.0469 37.0732 20.0469 34.2173C20.9709 34.2173 21.8949 34.2173 22.9029 34.2173C23.0708 34.0493 23.2388 34.0493 23.4068 34.0493C24.4988 34.0493 25.5068 34.0493 26.5987 34.0493C26.7667 34.0493 27.0187 34.0493 27.1867 34.2173C27.1867 36.9892 27.1867 39.8451 27.1867 42.6171C26.5987 42.6171 26.0948 42.6171 25.5068 42.6171C23.6588 42.7011 21.8949 42.7011 20.0469 42.7011Z" fill="#F4EA37"/>
<path d="M27.1867 34.2178C25.9267 34.2178 24.6668 34.2178 23.3228 34.2178C23.1548 34.2178 22.9868 34.2178 22.9028 34.2178C22.9028 32.6218 22.8188 31.1099 22.9868 29.5139C23.0708 28.2539 23.6588 27.33 24.7508 26.574C24.9188 26.49 25.0028 26.658 25.1708 26.742C25.5908 27.078 25.9267 27.33 26.3467 27.666C26.9347 28.17 27.5227 28.17 28.1107 27.666C28.5307 27.33 28.9507 26.994 29.2866 26.742C29.4546 26.658 29.5386 26.49 29.7066 26.574C30.2106 26.91 30.7146 27.246 31.3026 27.582C31.8906 28.002 32.3106 27.834 32.6466 27.162C32.7306 26.994 32.8145 26.742 32.8985 26.574C33.3185 26.49 33.5705 26.574 33.8225 26.91C33.8225 27.078 33.8225 27.246 33.7385 27.414C33.3185 28.5899 32.8985 29.7659 32.3946 30.8579C32.3106 31.1099 32.2266 31.3619 31.9746 31.3619C31.8066 31.2779 31.7226 31.1939 31.5546 31.1099C31.3866 30.9419 31.3866 30.6899 31.3866 30.5219C31.3866 30.2699 31.3866 30.1019 31.3026 29.8499C31.2186 29.6819 31.1346 29.5139 30.9666 29.5139C30.7146 29.5139 30.6306 29.5979 30.4626 29.7659C30.2946 30.0179 30.2946 30.2699 30.2946 30.5219C30.2946 31.5299 30.2946 32.6218 30.2946 33.6298C30.2946 33.7978 30.2946 34.0498 30.1266 34.2178C29.1187 34.2178 28.1107 34.2178 27.1867 34.2178Z" fill="#4ED3DD"/>
<path d="M36.0903 25.6502C38.2742 25.6502 40.5422 25.6502 42.7261 25.6502C43.3141 25.6502 43.5661 25.4822 43.5661 24.8102C43.5661 23.1303 43.5661 21.4503 43.5661 19.7704C43.5661 18.7624 43.5661 17.6705 43.5661 16.6625C43.5661 16.0745 43.3141 15.9065 42.8101 15.9065C39.6182 15.9065 36.4263 15.9065 33.3184 15.9065C33.4864 15.8225 33.5704 15.8225 33.7383 15.8225C37.3502 15.8225 41.0461 15.8225 44.658 15.8225C45.246 15.8225 45.582 16.0745 45.582 16.6625C45.582 19.3504 45.582 22.1223 45.582 24.8102C45.582 25.4822 45.246 25.7342 44.574 25.7342C41.8021 25.7342 38.9462 25.7342 36.0903 25.6502Z" fill="#D2DBFA"/>
<path d="M26.2624 25.5653C25.0024 25.0613 24.3304 24.1373 24.3304 22.8774C24.3304 21.6174 25.0864 20.6934 26.2624 20.2734C27.3544 20.6094 27.8583 21.3654 28.1103 22.4574C28.3623 23.6333 27.7743 24.8933 26.6824 25.4813C26.5144 25.4813 26.4304 25.5653 26.2624 25.5653Z" fill="#FBAC6D"/>
<path d="M26.2622 25.5653C26.7662 25.2293 27.2702 24.8933 27.6062 24.3893C28.4461 23.0453 28.0262 21.1134 26.5982 20.4414C26.4302 20.3574 26.3462 20.3574 26.2622 20.1894C27.6902 19.6854 29.2861 20.4414 29.7901 21.9534C30.2941 23.4653 29.5381 25.0613 28.0262 25.5653C27.8582 25.6493 27.6902 25.6493 27.4382 25.7333C27.1862 25.9853 26.9342 25.9013 26.6822 25.7333C26.5982 25.6493 26.4302 25.6493 26.2622 25.5653Z" fill="#FC985B"/>
<path d="M31.8066 31.3621C32.0586 31.0261 32.1426 30.5221 32.3106 30.0181C32.6466 28.9261 32.8985 27.9182 33.2345 26.8262C33.2345 26.8262 33.3185 26.8262 33.3185 26.7422C33.7385 26.9102 34.2425 26.9942 34.5785 27.3302C34.2425 28.5061 33.9065 29.6821 33.5705 30.8581C33.3185 31.698 32.4786 32.202 31.8066 31.3621Z" fill="#4ED3DD"/>
<path d="M26.7667 25.7334C27.0187 25.7334 27.2707 25.7334 27.5227 25.7334C28.2786 25.8174 29.0346 26.0694 29.6226 26.5734C29.1186 26.9934 28.6146 27.4133 28.1106 27.7493C27.4387 28.2533 26.7667 28.2533 26.1787 27.7493C25.6747 27.3294 25.1707 26.9934 24.6667 26.5734C25.2547 26.0694 26.0107 25.9014 26.7667 25.7334Z" fill="#E8EEFE"/>
<path d="M30.7139 34.2174C30.7139 33.1254 30.7139 32.1175 30.7139 31.0255C30.7139 30.9415 30.7139 30.7735 30.7139 30.6895C30.7979 30.4375 30.9659 30.2695 31.2179 30.2695C31.4699 30.2695 31.6379 30.5215 31.6379 30.7735C31.6379 31.1095 31.6379 31.3615 31.6379 31.6975C31.6379 32.5375 31.6379 33.3774 31.6379 34.1334C31.3859 34.2174 31.0499 34.2174 30.7139 34.2174Z" fill="#4ED3DD"/>
<path d="M35.4185 27.4985C34.8305 27.3305 34.3265 27.1625 33.7385 26.9105C33.5705 26.7425 33.6545 26.5745 33.7385 26.4065C33.9065 26.0705 33.9905 25.7345 34.1585 25.3985C34.3265 24.9785 34.4105 24.4745 34.0745 24.0546C33.9905 23.9706 33.9065 23.8026 33.9905 23.7186C34.3265 23.2986 34.7465 23.2986 35.2505 23.2986C35.4185 23.5506 35.2505 23.7186 35.2505 23.9706C35.2505 24.1386 35.1665 24.3906 35.2505 24.5585C35.4185 24.8105 35.7545 24.8945 36.0065 24.6425C36.0905 24.5585 36.1745 24.3906 36.3425 24.3906C36.5105 24.6425 36.3425 24.9785 36.2585 25.2305C36.2585 25.3985 36.1745 25.4825 36.0905 25.6505C36.0905 25.6505 36.0905 25.7345 36.0065 25.7345C35.8385 26.3225 35.5865 26.9105 35.4185 27.4985Z" fill="#FC985B"/>
<path d="M33.9899 23.7188C34.4099 24.3067 34.4939 24.8947 34.1579 25.5667C33.9899 25.9867 33.7379 26.4067 33.7379 26.9107C33.4859 26.7427 33.1499 26.6587 32.8139 26.5747C32.8979 26.2387 33.0659 25.9027 33.1499 25.5667C33.3179 25.1467 33.4859 24.7267 33.6539 24.3907C33.6539 24.0547 33.7379 23.8867 33.9899 23.7188Z" fill="#FBAC6D"/>
<path d="M32.1425 52.6134C31.2186 52.6134 30.2946 52.6134 29.2866 52.6134C29.2866 50.8495 29.2866 49.1695 29.2866 47.4056C29.2866 47.0696 29.3706 46.9016 29.7066 46.9016C32.6465 46.9016 35.6704 46.9016 38.6104 46.9016C39.0303 46.9016 39.0303 47.0696 39.0303 47.4056C39.0303 49.1695 39.0303 50.8495 39.0303 52.6134C38.1064 52.6134 37.1824 52.6134 36.1744 52.6134C36.0064 52.4455 36.0904 52.2775 36.0064 52.1095C36.0064 51.6055 36.0064 51.1015 36.0064 50.5975C36.0064 49.7575 35.5024 49.2535 34.6625 49.2535C34.2425 49.2535 33.8225 49.2535 33.4865 49.2535C32.6465 49.2535 32.2265 49.7575 32.1425 50.5975C32.1425 51.1015 32.1425 51.6055 32.1425 52.1095C32.3105 52.2775 32.3105 52.4455 32.1425 52.6134Z" fill="#D2DBFA"/>
<path d="M53.4778 42.7015C53.2258 42.7015 52.8898 42.7015 52.6378 42.7015C52.4698 42.4495 52.5538 42.1975 52.5538 41.9455C52.5538 34.8057 52.5538 27.6659 52.5538 20.6101C52.5538 20.4421 52.5538 20.1901 52.5538 20.0221C52.3858 19.1822 51.8818 18.8462 51.0419 18.8462C50.3699 18.8462 49.6979 18.8462 48.9419 18.8462C48.7739 18.8462 48.6059 18.8462 48.4379 18.7622C48.4379 17.8382 48.4379 16.9142 48.4379 15.9062C49.3619 15.9062 50.2859 15.9062 51.2938 15.9062C51.9658 16.1582 52.5538 16.4102 52.9738 16.9982C53.3098 17.5022 53.5618 18.0062 53.5618 18.6782C53.4778 26.6579 53.4778 34.6377 53.4778 42.7015Z" fill="#3C589F"/>
<path d="M32.1421 52.6131C32.1421 51.9411 32.1421 51.2691 32.1421 50.5972C32.1421 49.6732 32.7301 49.0852 33.654 49.0852C34.074 49.0852 34.494 49.0852 34.914 49.0852C35.754 49.0852 36.342 49.6732 36.342 50.5132C36.342 51.1851 36.342 51.8571 36.342 52.6131C35.922 52.6131 35.502 52.6131 35.082 52.6131C34.83 52.5291 34.83 52.3611 34.83 52.1091C34.83 51.6891 34.83 51.3531 34.83 50.9332C34.83 50.6812 34.746 50.5132 34.41 50.5132C33.57 50.4292 33.57 50.5132 33.57 51.2691C33.57 51.5211 33.57 51.8571 33.57 52.1091C33.57 52.2771 33.57 52.4451 33.3181 52.5291C32.9821 52.6131 32.5621 52.6131 32.1421 52.6131Z" fill="#BDC7F6"/>
<path d="M33.402 52.6131C33.57 52.0252 33.486 51.5212 33.486 50.9332C33.486 50.3452 33.486 50.3452 34.074 50.3452C34.998 50.3452 34.998 50.3452 34.998 51.2692C34.998 51.6892 34.914 52.1092 35.082 52.6131C34.494 52.6131 33.906 52.6131 33.402 52.6131Z" fill="#D2DBFA"/>
<path d="M50.6217 42.701C49.8657 42.701 49.1097 42.701 48.3538 42.701C48.2698 42.5331 48.2698 42.2811 48.2698 42.1131C48.2698 39.6771 48.2698 37.2412 48.2698 34.8053C48.2698 34.6373 48.2698 34.3853 48.4378 34.2173C48.4378 29.1774 48.4378 24.1376 48.4378 19.0137C48.4378 18.9297 48.4378 18.7617 48.4378 18.6777C48.8578 18.5937 49.2777 18.5937 49.7817 18.6777C50.3697 18.7617 50.6217 19.1817 50.7897 19.6857C50.7897 19.9377 50.7897 20.1897 50.7897 20.4417C50.7897 27.5815 50.7897 34.7213 50.7897 41.9451C50.7897 42.1971 50.8737 42.4491 50.6217 42.701Z" fill="#9AD7F8"/>
<path d="M50.6219 42.702C50.6219 35.2262 50.6219 27.7504 50.6219 20.2747C50.6219 19.8547 50.5379 19.5187 50.2859 19.1827C50.0339 18.8467 49.6979 18.6787 49.2779 18.7627C49.0259 18.7627 48.6899 18.7627 48.4379 18.7627V18.6787C49.3619 18.6787 50.2859 18.6787 51.1258 18.6787C51.9658 18.6787 52.4698 19.0987 52.6378 19.9387C52.5538 20.1067 52.6378 20.2747 52.6378 20.4427C52.6378 27.7504 52.6378 34.9742 52.6378 42.282C52.6378 42.45 52.6378 42.618 52.6378 42.786C51.8818 42.702 51.2938 42.702 50.6219 42.702Z" fill="#73C2F8"/>
<path d="M48.4376 34.2183C48.4376 37.0742 48.4376 39.8461 48.4376 42.702C47.7656 42.702 47.0936 42.702 46.4216 42.702C46.4216 39.8461 46.4216 37.0742 46.4216 34.2183C47.0936 34.2183 47.7656 34.2183 48.4376 34.2183Z" fill="#BDC7F6"/>
<path d="M52.5538 42.7021C52.5538 35.3103 52.5538 27.8345 52.5538 20.4427C52.5538 20.2747 52.4698 20.1067 52.6378 19.9387C52.6378 20.1067 52.6378 20.3587 52.6378 20.5267C52.6378 27.9185 52.6378 35.3103 52.6378 42.7861C52.6378 42.7021 52.5538 42.7021 52.5538 42.7021Z" fill="#76C3F7"/>
<path d="M34.1579 37.9973C34.2418 37.8293 34.4098 37.8293 34.4938 37.8293C38.1057 37.8293 41.7176 37.8293 45.3295 37.8293C45.6655 37.8293 45.9175 37.8293 46.0855 38.1653C46.3375 38.5013 46.0855 39.0053 45.7495 39.0893C45.6655 39.0893 45.4975 39.0893 45.4135 39.0893C41.7176 39.0893 38.0217 39.0893 34.3258 39.0893C34.2418 39.0893 34.1579 39.0893 34.0739 39.0893C34.0739 38.7533 34.0739 38.3333 34.1579 37.9973Z" fill="#3434F4"/>
<path d="M34.1581 37.997C34.3261 38.417 34.3261 38.753 34.0741 39.1729C33.4862 40.1809 32.2262 40.1809 31.5542 39.1729C31.2182 38.8369 31.2182 38.417 31.4702 37.997C31.7222 37.409 32.1422 37.073 32.7302 37.073C33.4022 37.073 33.9061 37.325 34.1581 37.997Z" fill="#E8EEFE"/>
<path d="M31.4706 37.9983C31.3026 38.4183 31.3026 38.7543 31.5546 39.1743C31.0506 39.1743 30.5466 39.1743 29.9586 39.1743C29.6226 39.1743 29.3706 38.9223 29.2866 38.5863C29.2866 38.2503 29.4546 37.9983 29.7906 37.9143C30.2946 37.8303 30.7986 37.9143 31.3026 37.9143C31.4706 37.8303 31.4706 37.9143 31.4706 37.9983Z" fill="#3434F4"/>
<path d="M36.2582 24.3906C36.0062 24.8946 35.7542 25.0626 35.3342 24.8946C34.9983 24.7266 34.9143 24.4746 34.9983 24.0546C35.0823 23.8867 35.0822 23.6347 35.1662 23.4667C35.1662 23.3827 35.1662 23.2987 35.1662 23.2987C35.5862 21.7867 35.9222 20.1908 36.3422 18.6788C36.4262 18.4268 36.5102 18.1748 36.7622 18.0908C37.0142 18.0068 37.2662 18.0068 37.4342 18.1748C37.6862 18.3428 37.6862 18.5948 37.6022 18.9308C37.2662 20.3588 36.8462 21.7867 36.5102 23.2147C36.5102 23.6347 36.4262 24.0546 36.2582 24.3906Z" fill="#3C589F"/>
<path d="M23.6585 39.0898C23.5745 39.0898 23.4905 39.0898 23.4065 39.0898C22.9865 39.0898 22.7345 38.8378 22.6505 38.5018C22.6505 38.1658 22.8185 37.9138 23.2385 37.8298C23.4905 37.7458 23.8265 37.7458 24.0785 37.8298C24.4145 37.9138 24.6665 38.2498 24.6665 38.5858C24.5825 38.9218 24.3305 39.0898 23.9945 39.1738C23.8265 39.0898 23.7425 39.0898 23.6585 39.0898Z" fill="#BABA04"/>
</g>
</g>
<defs>
<clipPath id="clip0_2975_20204">
<rect width="42.5028" height="43.5107" fill="white" transform="translate(12.9915 11.9587)"/>
</clipPath>
<clipPath id="clip1_2975_20204">
<rect width="42.5028" height="43.5107" fill="white" transform="translate(12.9915 11.9587)"/>
</clipPath>
</defs>
</svg>
