<svg width="80" height="80" viewBox="0 0 80 80" fill="none" xmlns="http://www.w3.org/2000/svg">
<rect x="0.774292" y="0.199219" width="78.9917" height="78.9917" rx="39.4958" fill="white"/>
<g clip-path="url(#clip0_2975_20158)">
<g clip-path="url(#clip1_2975_20158)">
<path d="M63.1298 38.9644C64.3147 39.9518 65.1046 41.2354 65.302 42.7165C65.302 42.7165 65.302 42.7165 65.4008 42.8152C65.4008 42.914 65.4008 43.0127 65.4008 43.1115C65.302 43.4077 65.302 43.8026 65.4008 44.0989C65.4008 44.1976 65.4008 44.3951 65.4008 44.4938C65.302 44.4938 65.302 44.5925 65.302 44.6913C64.8083 46.6661 63.7222 48.1472 61.8462 48.9371C61.8462 49.0358 61.7474 49.0358 61.7474 49.0358C60.8588 48.7396 60.6613 48.2459 60.6613 47.061C60.76 46.7648 61.0562 46.5673 61.2537 46.2711C61.4512 45.9749 61.7474 45.9749 62.0436 45.9749C62.8336 45.9749 63.031 45.7774 63.031 44.9875C63.031 44.0001 63.031 42.914 63.031 41.9266C63.031 41.1367 62.8336 40.9392 62.0436 40.9392C61.0562 40.9392 60.0688 40.9392 59.0815 40.9392C58.3903 40.9392 57.6991 41.0379 56.9092 40.8404C56.9092 40.5442 56.9092 40.5442 57.2054 40.5442C57.7978 40.5442 58.2915 40.5442 58.884 40.5442C57.9953 39.9518 57.7978 39.1619 58.1928 37.977C58.2915 37.8783 58.3903 37.8783 58.489 37.7795C60.0688 37.4833 61.5499 37.6808 62.9323 38.5694C62.9323 38.6682 63.031 38.8657 63.1298 38.9644Z" fill="#FEB232"/>
<path d="M15.2401 41.1381C15.3389 41.0394 15.3389 40.8419 15.3389 40.7431C15.6351 40.1507 16.1288 39.8545 16.8199 39.8545C17.5111 39.9532 18.0048 40.2494 18.2023 40.9406C18.301 42.323 17.2149 43.1129 15.8325 42.7179C15.6351 42.7179 15.5363 42.5205 15.4376 42.4217C15.2401 42.2242 15.4376 42.0268 15.2401 41.8293C15.2401 41.6318 15.2401 41.4343 15.2401 41.1381Z" fill="#E8EEFE"/>
<path d="M65.3996 44.1017C65.2021 43.8054 65.2021 43.4105 65.3996 43.1143C65.3996 43.4105 65.3996 43.8054 65.3996 44.1017Z" fill="#FEC056"/>
<path d="M46.541 14.7749C46.2448 15.0711 45.9486 15.0711 45.6523 14.8736V14.7749C45.9486 14.7749 46.2448 14.7749 46.541 14.7749Z" fill="#CAEDFD"/>
<path d="M18.1032 40.9404C17.5108 39.7555 16.4246 39.6568 15.536 40.5455C15.4372 40.6442 15.4372 40.6442 15.3385 40.6442C15.4372 37.682 15.9309 34.7198 17.0171 31.9551C17.0171 31.8564 17.1158 31.7576 17.1158 31.6589C17.412 31.6589 17.3133 31.8564 17.3133 32.0539C17.412 32.5475 17.6095 32.9425 17.807 33.4362C18.3994 34.6211 19.3868 35.1148 20.6704 34.8186C21.7566 34.5223 22.744 33.9299 23.6326 33.3375C25.6074 31.8564 27.286 29.9803 28.8658 28.1043C30.0507 26.6232 31.1368 25.0433 32.0255 23.3648C32.3217 22.7723 32.6179 22.1799 32.7167 21.4887C32.8154 20.4026 32.4204 19.5139 31.6305 18.8227C31.5318 18.724 31.1368 18.6253 31.4331 18.3291C33.1116 17.7366 34.7902 17.3417 36.5675 17.1442C37.9499 16.9467 39.3322 17.0454 40.7146 17.0454C40.9121 17.0454 41.1095 17.1442 41.307 17.1442C41.4057 17.4404 41.2083 17.5391 41.1095 17.7366C40.0234 19.6127 40.0234 21.5875 41.1095 23.4635C42.2944 25.4383 44.0717 26.327 46.3427 26.327C47.0339 26.327 47.7251 26.1295 48.4163 25.7345C50.2923 24.7471 51.4772 23.1673 51.5759 20.995C51.5759 20.8963 51.5759 20.6988 51.7734 20.6001C53.2545 21.4887 54.5381 22.5749 55.8217 23.661C55.8217 23.8585 55.6242 23.9572 55.4268 24.0559C53.8469 25.1421 53.057 26.6232 53.057 28.4005C52.9583 31.7576 55.5255 34.2261 58.4877 34.3249C59.5738 34.3249 60.5612 34.1274 61.4499 33.6337C61.5486 33.5349 61.7461 33.4362 61.8448 33.5349C62.3385 34.9173 62.6348 36.2997 62.8322 37.682C62.931 38.077 62.931 38.4719 62.931 38.8669C61.3511 37.7807 59.6726 37.3858 57.7965 37.8795C57.6978 38.077 57.5003 38.077 57.3028 38.1757C54.8343 39.1631 53.3532 41.5328 53.7482 44.1988C54.0444 46.6673 56.0192 48.6421 58.4877 49.0371C59.2776 49.1358 59.9688 49.1358 60.7587 48.9383C60.9562 48.8396 61.1537 48.8396 61.4499 48.8396H61.5486C61.3511 49.827 60.8574 50.7156 60.3637 51.703C59.2776 53.7766 57.994 55.6526 56.4142 57.2324C56.1179 57.3312 56.0192 57.035 55.9205 56.9362C55.4268 56.245 54.8343 55.5539 54.2419 54.9614C53.1558 53.974 52.0696 53.1841 50.6873 52.9866C49.7986 52.7892 48.91 52.8879 48.0213 52.9866C45.849 53.1841 43.6768 53.4803 41.5045 54.0728C40.4184 54.369 39.3322 54.764 38.3448 55.3564C37.6536 55.8501 37.0612 56.4425 36.765 57.2324C36.37 58.2198 36.5675 59.2072 37.0612 60.1946C37.7524 61.6757 38.7398 62.9593 39.8259 64.1442C40.0234 64.3417 40.2209 64.4404 40.2209 64.7366C38.641 64.8354 37.0612 64.7366 35.5801 64.5392C34.7902 64.243 34.3952 63.5518 33.9015 63.0581C33.7041 62.8606 33.5066 62.5644 33.3091 62.3669C32.223 61.3795 31.3343 60.1946 30.2482 59.2072C30.2482 59.2072 30.1494 59.1085 30.1494 58.911C30.1494 58.7135 30.3469 58.6148 30.5444 58.5161C31.0381 58.2198 31.3343 57.7261 31.6305 57.2324C32.223 55.9488 32.223 54.7639 31.5318 53.5791C31.4331 53.4803 31.4331 53.3816 31.4331 53.2829C31.5318 53.0854 31.7293 52.9866 31.828 52.8879C32.7167 52.3942 33.6053 51.8018 34.5927 51.3081C35.0864 51.0118 35.4814 50.7156 35.6789 50.1232C35.6789 50.0244 35.7776 49.9257 35.8763 49.9257C36.765 49.5308 37.7524 49.2345 38.7398 49.0371C40.5171 48.6421 42.1957 48.3459 43.973 48.4446C45.6516 48.4446 47.3301 48.5434 48.91 49.0371C49.1074 49.1358 49.2062 49.3333 49.4037 49.5308C49.8974 50.0245 50.5885 50.2219 51.181 49.827C51.7734 49.432 51.9709 48.7408 51.6747 48.1484C51.0822 46.9635 50.391 45.7787 49.6999 44.5938C47.4289 40.5455 45.0591 36.5959 42.7881 32.5475C41.702 30.5728 40.5171 28.4992 39.3322 26.5244C38.9373 25.932 38.641 25.2408 38.2461 24.6484C37.9499 24.1547 37.5549 23.7597 36.8637 23.8585C35.9751 23.8585 35.3826 24.7471 35.6789 25.6358C35.7776 25.8333 35.8763 26.0307 35.8763 26.2282C35.8763 26.6232 35.6789 27.0181 35.5801 27.4131C34.2965 30.869 32.3217 33.8312 29.6557 36.2997C29.2608 36.6946 28.9646 37.0896 28.4709 37.287C27.8784 37.1883 27.3847 37.3858 26.891 37.682C25.4099 38.5707 23.8301 39.4593 22.349 40.348C21.7566 40.6442 21.3616 41.0392 21.3616 41.8291C21.3616 41.9278 21.3616 42.0265 21.2629 42.1253C20.7692 42.5202 20.1767 42.8165 19.683 43.1127C19.5843 43.2114 19.4856 43.2114 19.3868 43.1127C18.6956 42.3228 18.3007 41.6316 18.1032 40.9404Z" fill="#746BF8"/>
<path d="M40.4183 64.735C39.4309 63.7476 38.5422 62.6614 37.7523 61.4766C37.2586 60.5879 36.7649 59.6993 36.6662 58.7119C36.5674 57.132 37.3573 56.0459 38.5422 55.256C40.122 54.2686 41.8993 53.8736 43.7754 53.4787C45.2565 53.1824 46.8363 52.985 48.4162 52.8862C49.3048 52.7875 50.1935 52.6888 51.0821 52.8862C52.3657 53.1825 53.4519 53.9724 54.4393 54.861C55.1304 55.5522 55.7229 56.3421 56.3153 57.132C56.4141 57.2308 56.4141 57.3295 56.6115 57.3295C55.7229 58.4156 54.7355 59.2056 53.6494 59.9955C50.5884 62.2665 47.2313 63.7476 43.5779 64.4388C42.4918 64.6362 41.4057 64.8337 40.4183 64.735Z" fill="#817DF8"/>
<path d="M22.0534 57.4289C20.8685 56.3428 19.9799 55.1579 19.19 53.8743C18.6963 53.0844 18.2026 52.2945 17.8076 51.4058C17.8076 50.6159 18.2026 50.1222 18.795 49.7272C19.8811 49.0361 21.066 48.3449 22.2509 47.7525C22.9421 47.4562 23.6333 47.3575 24.3244 47.6537C24.5219 47.7524 24.6206 47.9499 24.7194 48.1474C25.8055 50.0235 26.8917 51.8995 27.9778 53.6768C28.0765 53.7756 28.0765 53.8743 28.0765 53.973C27.5828 54.368 26.9904 54.5655 26.4967 54.9604C25.2131 55.7504 23.8307 56.4415 22.5471 57.2314C22.3496 57.3302 22.2509 57.4289 22.0534 57.4289Z" fill="#FE7185"/>
<path d="M24.3254 47.7557C23.5355 47.5582 22.8443 47.5582 22.1532 47.9532C21.1658 48.5456 20.1784 49.0393 19.191 49.533C18.4011 49.9279 18.0061 50.5204 17.7099 51.3103C16.7225 49.3355 16.0313 47.262 15.6364 45.0897C15.6364 44.991 15.6364 44.8922 15.6364 44.7935C15.8338 44.4973 16.2288 44.3985 16.525 44.201C17.2162 43.8061 17.9074 43.4111 18.5985 43.0162C18.796 42.9174 18.8948 42.8187 19.0922 42.8187C19.6847 42.5225 20.2771 42.1275 20.8695 41.8313C21.067 41.8313 21.1658 42.0288 21.1658 42.2263C22.2519 43.9048 23.2393 45.4847 24.2267 47.1632C24.3254 47.3607 24.4242 47.4595 24.3254 47.7557Z" fill="#FE4155"/>
<path d="M22.0542 57.4312C23.5353 56.5426 25.0164 55.6539 26.4975 54.864C27.2874 55.5552 27.9786 56.2464 28.6698 57.0363C29.0647 57.53 29.5584 57.9249 29.9534 58.3199C30.0521 58.4186 30.2496 58.5174 30.1508 58.8136C29.8546 58.9123 29.4597 58.9123 29.1634 59.0111C27.9786 59.2086 27.3861 59.8997 27.1887 60.8871C27.1887 61.0846 27.2874 61.3808 26.8924 61.2821C25.2139 60.2947 23.7328 59.1098 22.4492 57.7275C22.2517 57.6287 22.1529 57.53 22.0542 57.4312Z" fill="#D2DBFA"/>
<path d="M26.8915 61.3785C27.089 61.3785 27.089 61.181 27.089 61.0823C27.1877 59.8974 27.8789 59.1075 29.0637 58.91C29.36 58.91 29.7549 58.8113 30.0511 58.8113C30.0511 58.8113 30.1499 58.8113 30.1499 58.91C31.8285 60.6873 33.507 62.4646 35.2843 64.242C35.3831 64.3407 35.5806 64.4394 35.6793 64.5382C34.4944 64.3407 33.4083 64.0445 32.2234 63.7483C30.3474 63.1558 28.5701 62.3659 26.8915 61.3785Z" fill="#E8EEFE"/>
<path d="M16.6226 44.2985C16.3264 44.496 16.0302 44.6935 15.734 44.7922C15.5365 44.0023 15.5365 43.2124 15.4377 42.4225C15.6352 42.3238 15.6352 42.62 15.734 42.62C16.1289 43.1137 16.5239 43.6074 16.6226 44.2985Z" fill="#756CF8"/>
<path d="M31.4342 18.2332C31.3354 18.4306 31.5329 18.4306 31.6317 18.5294C32.9153 19.7142 33.1128 21.0966 32.4216 22.6764C31.6317 24.4537 30.4468 26.0336 29.2619 27.6134C28.077 29.0945 26.7934 30.5756 25.4111 31.8592C24.1275 33.0441 22.7451 34.229 20.9678 34.7227C19.9804 35.0189 19.0917 34.9201 18.4006 34.3277C17.9069 33.9327 17.6106 33.2416 17.4132 32.6491C17.3144 32.3529 17.2157 31.958 17.1169 31.6617C17.3144 31.2668 17.6106 30.7731 17.8081 30.2794C20.6716 24.6512 25.0161 20.7016 30.8417 18.4306C31.0392 18.4306 31.2367 18.3319 31.4342 18.2332Z" fill="#817DF8"/>
<path d="M48.6154 25.7343C46.5419 26.8204 43.5797 26.3267 41.9011 24.5494C40.815 23.3645 40.3213 21.9822 40.3213 20.4024C40.3213 19.1187 40.815 18.0326 41.5062 17.0452C42.2961 16.1566 43.1847 15.4654 44.2709 15.0704C44.3696 15.0704 44.4684 14.9717 44.6658 14.9717C44.7646 15.1692 44.7646 15.3666 44.6658 15.4654C44.4684 16.2553 44.6658 17.0452 45.357 17.5389C45.4557 17.6376 45.5545 17.7364 45.5545 17.8351C45.357 18.1313 44.962 18.0326 44.7646 18.1313C43.7772 18.4276 43.086 19.02 42.4936 19.9087C42.2961 20.3036 42.1973 20.5998 42.4936 20.8961C43.5797 22.3771 44.962 23.0683 46.7394 22.8708C46.9368 22.8708 47.1343 22.7721 47.3318 22.8708C47.5293 22.9696 47.5293 23.2658 47.5293 23.4633C47.3318 24.3519 47.7268 24.8456 48.4179 25.2406C48.4179 25.5368 48.6154 25.5368 48.6154 25.7343Z" fill="#1AA8E7"/>
<path d="M48.6147 25.7343C48.4172 25.6356 48.121 25.5368 47.9235 25.3393C47.331 24.9444 47.0348 24.3519 47.2323 23.6608C47.2323 23.4633 47.331 23.2658 47.1336 23.1671C47.1336 23.0683 47.2323 23.0683 47.2323 22.9696C48.2197 22.5746 49.1083 22.0809 49.7995 21.1923C50.1945 20.6986 50.1945 20.4024 49.7995 19.9087C49.2071 19.2175 48.5159 18.5263 47.5285 18.3288C47.0348 18.1313 46.5411 18.0326 45.9487 18.1313C45.7512 18.1313 45.5537 18.1313 45.455 18.0326C44.9613 17.6376 44.5663 17.2427 44.4676 16.5515C44.3688 16.0578 44.5663 15.5641 44.5663 15.1692C44.8625 14.9717 45.2575 14.9717 45.6525 14.9717C45.9487 14.9717 46.2449 14.9717 46.5411 14.9717C49.4046 15.2679 51.5768 17.4402 51.8731 20.4024C51.8731 20.5011 51.8731 20.6986 51.9718 20.7973C51.7743 20.9948 51.8731 21.3898 51.7743 21.686C51.3794 23.562 50.2932 24.9444 48.6147 25.7343Z" fill="#42C2FB"/>
<path d="M62.0429 33.6325C60.9568 34.3237 59.7719 34.6199 58.4883 34.5212C55.9211 34.4225 53.4526 32.2502 53.0576 29.683C52.7614 27.1157 53.7488 25.1409 55.9211 23.7586C56.3161 23.5611 56.6123 23.3636 57.106 23.2649C57.2047 23.4624 57.2047 23.4624 57.106 23.6599C56.9085 24.0548 56.8097 24.4498 56.8097 24.8447C56.8097 25.2397 57.0072 25.5359 57.2047 25.8321C57.3034 26.0296 57.5009 26.1283 57.5009 26.4246C57.4022 26.622 57.2047 26.5233 57.0072 26.622C56.2173 26.8195 55.7236 27.3132 55.6249 28.1031C55.5261 28.893 55.7236 29.4855 56.4148 29.9792C57.106 30.4729 57.7971 30.9666 58.3896 31.4603C58.6858 31.7565 58.8833 31.7565 59.1795 31.4603C59.4757 31.1641 59.7719 30.9666 60.0682 30.7691C60.2656 30.6704 60.3644 30.4729 60.5619 30.5716C60.7593 30.6704 60.8581 30.7691 60.8581 30.9666C61.0555 31.954 61.648 32.4477 62.7341 32.5464C62.8329 32.5464 63.1291 32.5464 63.1291 32.7439C62.8329 33.0401 62.4379 33.2376 62.0429 33.6325Z" fill="#E70054"/>
<path d="M57.5003 26.3258C57.5003 26.3258 57.5003 26.227 57.4015 26.227C56.6116 25.3384 56.4141 24.351 57.1053 23.3636V23.2648C59.6725 22.4749 62.3385 23.4623 63.7209 25.7333C65.1032 27.9056 64.807 30.769 63.1284 32.6451C62.9309 32.4476 62.6347 32.5464 62.3385 32.5464C61.4498 32.3489 60.9561 31.7564 60.7587 30.9665C60.7587 30.769 60.7587 30.6703 60.5612 30.5716V30.4728C60.7587 30.2754 60.9561 30.1766 61.2524 29.9791C62.141 29.3867 62.2398 28.3993 61.8448 27.6094C61.4498 26.8195 60.4624 26.3258 59.6725 26.7207C58.8826 27.0169 58.1914 26.7207 57.5003 26.3258C57.5003 26.4245 57.5003 26.4245 57.5003 26.3258Z" fill="#FE4155"/>
<path d="M61.6476 48.939C58.5867 50.2226 54.7359 48.4453 53.946 44.7919C53.3535 41.8297 55.0321 38.9663 57.7968 38.0776C57.8955 38.0776 57.9943 38.0776 57.9943 38.0776C58.093 38.4726 57.7968 38.7688 57.8955 39.1638C57.9943 39.8549 58.2905 40.1512 58.9817 40.7436C58.3892 40.7436 57.7968 40.7436 57.2044 40.7436C57.0069 40.7436 56.8094 40.6449 56.7107 40.8423C56.3157 41.336 56.217 41.8297 56.217 42.4222C56.217 43.3108 56.217 44.1008 56.217 44.9894C56.217 45.7793 56.5132 46.0755 57.3031 46.0755C57.8955 46.0755 58.488 46.0755 58.9817 46.0755C59.3766 45.9768 59.6729 46.1743 59.8703 46.5692C60.0678 46.8655 60.1666 47.0629 60.4628 47.2604C60.5615 47.3592 60.5615 47.4579 60.5615 47.5566C60.5615 48.1491 60.9565 48.6428 61.6476 48.939Z" fill="#FE9000"/>
<path d="M60.5612 47.1627C60.1662 47.1627 60.0675 46.7678 59.87 46.5703C59.6725 46.2741 59.5738 46.0766 59.1788 46.1753C58.5864 46.1753 58.3889 45.8791 58.3889 45.2867C58.3889 44.4968 58.3889 43.6081 58.3889 42.8182C58.3889 42.522 58.3889 42.127 58.3889 41.8308C58.3889 41.3371 58.5864 41.0409 59.0801 40.9421C60.0675 40.9421 61.1536 40.9421 62.141 40.9421C62.7335 40.9421 63.0297 41.2384 63.0297 41.9295C63.0297 43.1144 63.0297 44.2005 63.0297 45.3854C63.0297 45.9779 62.7335 46.2741 62.2398 46.2741C61.4498 46.1753 61.0549 46.4716 60.7587 47.1627C60.7587 46.9653 60.6599 47.064 60.5612 47.1627Z" fill="#E8EEFE"/>
<path d="M58.9826 40.7437C58.5876 41.0399 58.4889 41.3361 58.4889 41.8298C58.4889 42.9159 58.4889 44.0021 58.4889 45.0882C58.4889 45.5819 58.6864 45.9768 59.1801 46.0756C58.3902 46.1743 57.6002 46.1743 56.8103 46.0756C56.3166 46.0756 56.1191 45.6806 56.1191 45.2857C56.1191 44.1008 56.1191 42.8172 56.1191 41.6323C56.1191 41.2373 56.3166 40.9411 56.7116 40.7437C57.5015 40.7437 58.2914 40.7437 58.9826 40.7437Z" fill="#BDC7F6"/>
<path d="M16.6218 44.2993C16.3256 43.7068 15.9306 43.2131 15.7332 42.6207C16.1281 42.6207 16.6218 42.8182 17.0168 42.6207C17.8067 42.3245 18.1029 41.8308 18.1029 40.9421C18.4979 41.5346 18.8928 42.127 19.189 42.8182C18.3004 43.4106 17.5105 43.9043 16.6218 44.2993Z" fill="#D2DBFA"/>
<path d="M48.9099 49.1339C47.2313 48.7389 45.454 48.5415 43.7754 48.5415C41.0107 48.5415 38.3447 49.0352 35.7775 50.0226C35.0863 48.2452 33.9015 46.6654 33.0128 44.9868C32.7166 44.3944 32.3216 43.9994 32.1241 43.407C32.1241 43.1108 32.3216 43.012 32.4204 42.9133C33.8027 41.8272 35.0863 40.741 36.2712 39.4574C37.6536 37.9763 38.8384 36.3965 39.9246 34.6192C40.0233 34.4217 40.1221 34.2242 40.2208 34.1255C40.4183 34.1255 40.4183 34.323 40.517 34.4217C43.183 38.9637 45.7502 43.5057 48.3174 47.949C48.6137 48.344 49.0086 48.6402 48.9099 49.1339Z" fill="#D2DBFA"/>
<path d="M40.3196 34.1287C40.3196 34.5236 40.0233 34.8198 39.8259 35.2148C38.4435 37.3871 36.7649 39.3619 34.8889 41.1392C34.099 41.8303 33.309 42.4228 32.5191 43.114C32.4204 43.2127 32.3217 43.3114 32.3217 43.4102C32.2229 43.4102 32.1242 43.3114 32.0254 43.2127C31.038 41.6329 30.1494 39.9543 29.2607 38.3745C28.9645 37.8808 28.6683 37.5845 28.3721 37.1896C31.828 34.3261 34.2964 30.8703 35.6788 26.5257C35.6788 26.427 35.7775 26.3282 35.7775 26.2295C35.975 26.2295 36.0738 26.427 36.0738 26.5257C37.4561 28.9942 38.8385 31.3639 40.3196 33.8324C40.2208 33.8324 40.3196 33.9312 40.3196 34.1287Z" fill="#BDC7F6"/>
<path d="M48.9111 49.1362C48.3187 48.05 47.7262 46.9639 47.0351 45.8778C45.8502 43.8042 44.6653 41.8294 43.4804 39.7559C42.4931 37.9786 41.4069 36.2013 40.4195 34.5227C40.3208 34.424 40.3208 34.2265 40.222 34.1277C40.1233 33.4366 40.4195 32.9429 40.9132 32.6467C41.4069 32.2517 42.0981 32.0542 42.6905 32.4492C45.6527 37.4849 48.5162 42.6193 51.4784 47.6551C51.972 48.5437 51.8733 49.4324 51.0834 49.8273C50.2935 50.321 49.5036 50.0248 48.9111 49.2349C49.0099 49.2349 48.9111 49.1362 48.9111 49.1362Z" fill="#E8EEFE"/>
<path d="M32.1239 43.1143C32.2226 43.2131 32.2226 43.2131 32.3214 43.3118C33.4075 45.1879 34.3949 47.0639 35.481 48.8412C35.6785 49.2362 35.7773 49.5324 35.7773 50.0261C35.5798 50.6185 35.2836 51.0135 34.6911 51.3097C33.605 51.9022 32.5189 52.5933 31.334 53.1858C30.8403 53.6795 30.1491 53.9757 29.5567 54.3706C29.1617 54.4694 28.7668 54.4694 28.3718 54.2719C28.1743 54.1732 28.0756 54.1732 27.9768 53.9757C27.1869 52.9883 26.6932 51.8034 26.002 50.7173C25.4096 49.7299 24.9159 48.6438 24.2247 47.7551C24.3235 47.5576 24.3235 47.3601 24.521 47.1627C24.9159 46.5702 25.4096 46.5702 26.002 46.669C26.6932 47.1627 26.792 47.1627 27.5819 46.7677C28.2731 46.3727 28.9642 45.879 29.7541 45.4841C30.4453 45.0891 30.5441 44.9904 30.4453 44.2005C30.7415 43.3118 31.1365 43.0156 32.1239 43.1143Z" fill="#FE4155"/>
<path d="M26.1027 46.7675C26.004 46.7675 26.004 46.8662 25.9053 46.8662C25.0166 46.7675 24.9179 46.8662 24.5229 47.6562C24.5229 47.7549 24.4242 47.7549 24.3254 47.7549C23.8317 46.7675 23.2393 45.8788 22.7456 44.8914C22.1532 43.9041 21.5607 42.9167 20.9683 41.8305C20.8695 40.9419 21.2645 40.3494 22.0544 39.9545C23.6342 39.0658 25.2141 38.1772 26.7939 37.2885C27.2876 36.9923 27.7813 36.8935 28.275 37.091C28.67 37.2885 28.9662 37.5847 29.1637 37.9797C30.1511 39.757 31.1385 41.4356 32.1259 43.2129L32.0271 43.3116C31.1385 43.2129 30.8422 43.7066 30.546 44.3977C29.9536 44.2003 29.5586 44.3978 29.0649 44.694C28.4725 45.0889 27.7813 45.4839 27.0901 45.7801C26.5964 45.9776 26.2015 46.1751 26.1027 46.7675Z" fill="#E70054"/>
<path d="M42.691 32.4487C42.1973 32.3499 41.7036 32.3499 41.2099 32.5474C40.6175 32.8436 40.3213 33.4361 40.2225 34.1272C39.5313 32.9424 38.8402 31.8562 38.2477 30.6714C37.3591 29.1903 36.4704 27.6104 35.5818 26.1293C35.3843 25.7344 35.1868 25.2407 35.2855 24.747C35.483 24.1545 35.9767 23.6608 36.5692 23.6608C37.2603 23.5621 37.754 23.8583 38.149 24.5495C39.4326 26.7218 40.6175 28.894 41.9011 31.0663C42.1973 31.4613 42.4935 31.955 42.691 32.4487Z" fill="#D2DBFA"/>
<path d="M28.0768 53.9731C28.5705 54.3681 29.0642 54.3681 29.6566 54.2694C29.8541 54.4668 29.7554 54.6643 29.7554 54.8618C29.7554 55.8492 30.2491 56.6391 31.1377 57.0341C31.3352 57.1328 31.5327 57.1328 31.6314 57.3303C31.3352 58.0215 30.7427 58.4164 30.1503 58.9101L30.0516 58.8114C28.9654 57.7253 27.978 56.5404 26.8919 55.4542C26.6944 55.2568 26.5957 55.0593 26.4969 54.8618C26.9906 54.5656 27.4843 54.1706 28.0768 53.9731Z" fill="#BDC7F6"/>
<path d="M31.6311 57.3325C30.3474 57.0363 29.4588 56.0489 29.5575 54.6665C29.5575 54.5678 29.5575 54.3703 29.5575 54.2716C30.15 53.9754 30.7424 53.5804 31.3348 53.2842C32.3222 54.5678 32.421 55.9502 31.6311 57.3325Z" fill="#D2DBFA"/>
<path d="M47.2318 23.0714L47.1331 23.1701C45.8494 23.3676 44.5658 23.1701 43.4797 22.3802C42.986 21.9853 42.591 21.5903 42.1961 21.0966C41.9986 20.7016 41.9986 20.4054 42.1961 20.1092C42.7885 19.2205 43.5784 18.6281 44.5658 18.2332C44.6646 18.4306 44.4671 18.5294 44.4671 18.7269C44.0721 19.418 44.1709 20.1092 44.6646 20.7016C45.0595 21.2941 45.7507 21.4916 46.4419 21.3928C46.5406 21.3928 46.7381 21.2941 46.8368 21.3928C46.7381 21.8865 46.8368 22.479 47.2318 23.0714Z" fill="#BDC7F6"/>
<path d="M46.8375 21.2917C45.8501 21.5879 45.0602 21.2917 44.5665 20.6005C43.974 19.9094 44.0728 19.1194 44.6652 18.132C44.9614 18.0333 45.2577 18.0333 45.4551 17.9346C46.2451 17.9346 46.9362 17.9346 47.6274 18.2308C48.3186 18.7245 48.2198 19.4157 48.0224 20.1068C47.9236 20.6993 47.6274 21.2917 46.8375 21.2917Z" fill="#47477F"/>
<path d="M46.8369 21.2941C48.1205 20.6029 48.4168 19.5168 47.6268 18.2332C48.713 18.5294 49.5029 19.3193 50.0953 20.2079C50.2928 20.5042 50.1941 20.8004 49.9966 20.9979C49.3054 21.9853 48.4168 22.6764 47.2319 22.9727C46.6394 22.5777 46.5407 21.9853 46.8369 21.2941Z" fill="#E8EEFE"/>
<path d="M60.5612 30.3759C60.0675 30.7708 59.6726 31.1658 59.2776 31.5607C58.9814 31.8569 58.6852 31.8569 58.4877 31.5607C57.8952 30.9683 57.3028 30.4746 56.6116 30.0796C55.723 29.4872 55.328 28.6973 55.6242 27.9074C55.9204 26.92 56.5129 26.4263 57.599 26.4263C57.6978 26.525 57.6978 26.7225 57.6978 26.8212C57.599 27.4137 57.7965 27.8086 58.2902 28.0061C59.0801 28.4998 59.7713 28.9935 60.1663 29.8822C60.265 30.0796 60.4625 30.1784 60.5612 30.3759Z" fill="#BDC7F6"/>
<path d="M60.5611 30.3765C60.2649 30.2778 60.0674 30.0803 59.87 29.7841C59.5737 29.1917 59.08 28.698 58.4876 28.4017C57.5989 28.0068 57.204 27.4143 57.5002 26.4269C58.3889 26.7232 59.1788 26.7232 60.1662 26.4269C60.9561 26.2295 61.746 26.8219 62.0422 27.6118C62.3384 28.4017 62.0422 29.2904 61.351 29.8828C61.1536 30.0803 60.8573 30.179 60.5611 30.3765Z" fill="#E8EEFE"/>
<path d="M26.1021 46.766C26.0033 46.3711 26.2008 46.0749 26.5958 45.8774C27.5832 45.3837 28.4718 44.7912 29.4592 44.2976C29.8542 44.1001 30.2491 44.0013 30.5453 44.3963C30.8416 44.9887 30.7428 45.1862 30.2491 45.4824C29.2617 46.0749 28.3731 46.6673 27.3857 47.161C26.7932 47.4572 26.3983 47.2597 26.1021 46.766Z" fill="#FE7085"/>
<path d="M29.5578 51.8995C29.1628 51.8995 28.9654 51.702 28.8666 51.4058C28.7679 51.1096 28.7679 50.7147 29.1628 50.5172C29.6565 50.221 30.1502 49.9247 30.6439 49.6285C31.1376 49.3323 31.6313 49.0361 32.125 48.7399C32.6187 48.4436 33.0137 48.5424 33.3099 48.9373C33.5074 49.2336 33.4086 49.7273 32.9149 49.9247C31.9275 50.5172 30.9402 51.1096 29.9528 51.6033C29.854 51.8995 29.6565 51.9983 29.5578 51.8995Z" fill="#FE7085"/>
<path d="M27.9775 49.6299C27.78 49.6299 27.5825 49.5311 27.4838 49.1362C27.3851 48.84 27.4838 48.445 27.78 48.2475C28.8662 47.6551 29.8536 47.0627 30.9397 46.3715C31.3346 46.174 31.6309 46.3715 31.8283 46.6677C32.0258 46.9639 32.0258 47.3589 31.6309 47.5564C31.0384 47.9513 30.3473 48.3463 29.6561 48.7412C29.2611 48.9387 28.8662 49.1362 28.4712 49.4324C28.4712 49.5312 28.2737 49.6299 27.9775 49.6299Z" fill="#FE7085"/>
<path d="M27.9777 40.0519C27.9777 40.3481 27.7802 40.5456 27.5827 40.7431C26.5953 41.3355 25.6079 41.9279 24.5218 42.5204C24.1268 42.7179 23.7319 42.6191 23.5344 42.2242C23.3369 41.9279 23.4357 41.533 23.8306 41.2368C24.818 40.6443 25.9042 40.0519 26.8916 39.4595C27.3853 39.1632 27.9777 39.5582 27.9777 40.0519Z" fill="#FE7085"/>
<path d="M25.5096 44.9893C25.1146 44.9893 24.8184 44.7919 24.7197 44.3969C24.6209 44.0019 24.8184 43.8045 25.1146 43.607C25.7071 43.212 26.2995 42.9158 26.9907 42.5208C27.3856 42.3234 27.7806 42.1259 28.1755 41.8297C28.5705 41.6322 28.9655 41.6322 29.2617 42.0271C29.4592 42.4221 29.3604 42.8171 28.9655 43.0145C27.9781 43.607 26.9907 44.1994 25.9045 44.7919C25.7071 44.8906 25.6083 44.8906 25.5096 44.9893Z" fill="#FE7085"/>
<path d="M47.4292 19.2187C47.4292 19.6137 47.133 19.9099 46.7381 19.9099C46.3431 19.9099 46.0469 19.5149 46.0469 19.2187C46.0469 18.8238 46.3431 18.5276 46.7381 18.5276C47.0343 18.4288 47.4292 18.8238 47.4292 19.2187Z" fill="#5E5E9A"/>
</g>
</g>
<defs>
<clipPath id="clip0_2975_20158">
<rect width="50.061" height="50.2584" fill="white" transform="translate(15.3378 14.478)"/>
</clipPath>
<clipPath id="clip1_2975_20158">
<rect width="50.061" height="50.2584" fill="white" transform="translate(15.3378 14.4775)"/>
</clipPath>
</defs>
</svg>
