<svg width="30" height="30" viewBox="0 0 30 30" fill="none" xmlns="http://www.w3.org/2000/svg">
<path fill-rule="evenodd" clip-rule="evenodd" d="M24.4983 6.3C24.1794 5.98684 23.746 5.81808 23.2993 5.83304C20.0964 5.9281 16.8727 6.55683 15.2476 7.75758C15.1003 7.86628 14.8995 7.86628 14.7522 7.75758C13.1271 6.55683 9.90339 5.9281 6.70055 5.83304C6.25367 5.81729 5.82 5.98617 5.50147 6.3C5.17776 6.61612 4.99476 7.04913 4.99365 7.50158V19.5925C4.99343 20.4994 5.71798 21.2402 6.62467 21.2602C11.6003 21.4011 14.166 22.7761 14.166 23.3315C14.166 23.792 14.5394 24.1653 14.9999 24.1653C15.4604 24.1653 15.8338 23.792 15.8338 23.3315C15.8338 22.7761 18.3995 21.4011 23.3751 21.2585C24.2818 21.2386 25.0064 20.4977 25.0062 19.5908V7.50158C25.005 7.04913 24.822 6.61612 24.4983 6.3ZM7.05994 19.6066C6.83687 19.5968 6.66114 19.413 6.66136 19.1897L6.65135 7.93269C6.65123 7.81871 6.69778 7.70965 6.78017 7.63088C6.86256 7.55212 6.9736 7.51052 7.08746 7.51576C11.7587 7.72839 14.166 9.03588 14.166 9.57288V20.4839C14.166 20.6245 14.095 20.7556 13.9774 20.8325C13.8597 20.9095 13.7112 20.922 13.5824 20.8658C11.4983 20.0688 9.29088 19.6427 7.05994 19.6066ZM22.9282 19.6066C23.1516 19.5973 23.3278 19.4133 23.3276 19.1897L23.3384 7.93519C23.3386 7.82121 23.292 7.71215 23.2096 7.63338C23.1272 7.55462 23.0162 7.51302 22.9023 7.51826C18.2403 7.72923 15.8338 9.03671 15.8338 9.57288V20.4839C15.8338 20.6245 15.9048 20.7556 16.0224 20.8325C16.1401 20.9095 16.2886 20.922 16.4175 20.8658C18.4977 20.0697 20.7011 19.6436 22.9282 19.6066Z" fill="#3EB449"/>
<mask id="mask0_2781_2004" style="mask-type:alpha" maskUnits="userSpaceOnUse" x="4" y="5" width="22" height="20">
<path fill-rule="evenodd" clip-rule="evenodd" d="M24.4983 6.3C24.1794 5.98684 23.746 5.81808 23.2993 5.83304C20.0964 5.9281 16.8727 6.55683 15.2476 7.75758C15.1003 7.86628 14.8995 7.86628 14.7522 7.75758C13.1271 6.55683 9.90339 5.9281 6.70055 5.83304C6.25367 5.81729 5.82 5.98617 5.50147 6.3C5.17776 6.61612 4.99476 7.04913 4.99365 7.50158V19.5925C4.99343 20.4994 5.71798 21.2402 6.62467 21.2602C11.6003 21.4011 14.166 22.7761 14.166 23.3315C14.166 23.792 14.5394 24.1653 14.9999 24.1653C15.4604 24.1653 15.8338 23.792 15.8338 23.3315C15.8338 22.7761 18.3995 21.4011 23.3751 21.2585C24.2818 21.2386 25.0064 20.4977 25.0062 19.5908V7.50158C25.005 7.04913 24.822 6.61612 24.4983 6.3ZM7.05994 19.6066C6.83687 19.5968 6.66114 19.413 6.66136 19.1897L6.65135 7.93269C6.65123 7.81871 6.69778 7.70965 6.78017 7.63088C6.86256 7.55212 6.9736 7.51052 7.08746 7.51576C11.7587 7.72839 14.166 9.03588 14.166 9.57288V20.4839C14.166 20.6245 14.095 20.7556 13.9774 20.8325C13.8597 20.9095 13.7112 20.922 13.5824 20.8658C11.4983 20.0688 9.29088 19.6427 7.05994 19.6066ZM22.9282 19.6066C23.1516 19.5973 23.3278 19.4133 23.3276 19.1897L23.3384 7.93519C23.3386 7.82121 23.292 7.71215 23.2096 7.63338C23.1272 7.55462 23.0162 7.51302 22.9023 7.51826C18.2403 7.72923 15.8338 9.03671 15.8338 9.57288V20.4839C15.8338 20.6245 15.9048 20.7556 16.0224 20.8325C16.1401 20.9095 16.2886 20.922 16.4175 20.8658C18.4977 20.0697 20.7011 19.6436 22.9282 19.6066Z" fill="white"/>
</mask>
<g mask="url(#mask0_2781_2004)">
</g>
</svg>
