<svg width="24" height="25" viewBox="0 0 24 25" fill="none" xmlns="http://www.w3.org/2000/svg">
<path fill-rule="evenodd" clip-rule="evenodd" d="M13.6673 4.61328H6.99646C5.52278 4.61328 4.32812 5.80793 4.32812 7.28161V10.617C4.32812 12.0907 5.52278 13.2854 6.99646 13.2854H7.66354V15.9537L10.6654 13.2854H13.6673C15.141 13.2854 16.3356 12.0907 16.3356 10.617V7.28161C16.3356 5.80793 15.141 4.61328 13.6673 4.61328Z" stroke="#737373" stroke-width="2"/>
<path d="M11.666 15.2855V16.2861C11.666 16.7284 11.8417 17.1526 12.1545 17.4654C12.4672 17.7781 12.8914 17.9539 13.3337 17.9539H15.0014L17.0027 19.9551V17.9539H18.0033C18.4456 17.9539 18.8698 17.7781 19.1826 17.4654C19.4953 17.1526 19.671 16.7284 19.671 16.2861V14.2849C19.671 13.3638 18.9244 12.6172 18.0033 12.6172H17.6698" stroke="#737373" stroke-width="2"/>
</svg>
