<svg width="22" height="22" viewBox="0 0 22 22" fill="none" xmlns="http://www.w3.org/2000/svg">
<path fill-rule="evenodd" clip-rule="evenodd" d="M18.3379 10.4837C18.3369 9.55541 17.5846 8.80312 16.6563 8.80211H13.1586C13.1102 8.80209 13.0646 8.77911 13.0358 8.74017C13.007 8.70122 12.9983 8.65093 13.0125 8.6046C13.3185 7.77891 13.4073 6.88847 13.2705 6.01859C12.8834 4.63906 12.0139 4.25382 11.3847 4.33943C10.702 4.45173 10.2095 5.0545 10.2357 5.74587C10.2357 7.59196 8.5883 9.60989 7.14579 10.1731C7.07743 9.90856 6.8399 9.72295 6.5667 9.72057H4.2736C3.93588 9.72057 3.66211 9.99435 3.66211 10.3321V17.0585C3.66211 17.3962 3.93588 17.67 4.2736 17.67H6.5667C6.90442 17.67 7.17819 17.3962 7.17819 17.0585V16.8573C7.78886 16.9445 8.25094 17.0283 8.6477 17.1003L8.64776 17.1003L8.68369 17.1068C9.4954 17.2793 10.3231 17.3656 11.1529 17.3642H15.1276C16.5071 17.3642 16.6563 16.5081 16.6563 16.1412C16.6565 15.9559 16.6227 15.7721 16.5567 15.5989C17.1705 15.2103 17.4261 14.4435 17.1682 13.7644C17.8317 13.3448 18.0696 12.4908 17.7185 11.7886C18.1109 11.4691 18.3384 10.9898 18.3379 10.4837ZM5.95521 15.9872C5.95521 16.2404 5.74988 16.4458 5.49659 16.4458C5.2433 16.4458 5.03797 16.2404 5.03797 15.9872C5.03797 15.7339 5.2433 15.5285 5.49659 15.5285C5.74988 15.5285 5.95521 15.7339 5.95521 15.9872ZM16.6563 10.9423C16.9095 10.942 17.1146 10.7369 17.115 10.4837C17.1146 10.2306 16.9095 10.0254 16.6563 10.0251H12.0701C11.8648 10.025 11.6731 9.92178 11.56 9.75034C11.4469 9.57891 11.4275 9.36214 11.5082 9.17329C11.8292 8.42054 12.2725 6.98903 12.0928 6.34941C11.9185 5.72018 11.6513 5.53857 11.5516 5.55141C11.507 5.5612 11.4586 5.62724 11.4586 5.74464C11.4586 8.1686 9.31536 10.8897 7.17819 11.4456V15.6221C7.89221 15.7171 8.42445 15.8151 8.86573 15.8963L8.90444 15.9034C9.64344 16.0616 10.3971 16.1409 11.1529 16.14H15.1276C15.2285 16.143 15.3294 16.1347 15.4285 16.1156C15.4158 15.9582 15.2855 15.8363 15.1276 15.8343C14.7899 15.8343 14.5161 15.5605 14.5161 15.2228C14.5161 14.8851 14.7899 14.6113 15.1276 14.6113H15.7391C15.908 14.6113 16.0448 14.4744 16.0448 14.3055C16.0448 14.1367 15.908 13.9998 15.7391 13.9998C15.4014 13.9998 15.1276 13.726 15.1276 13.3883C15.1276 13.0506 15.4014 12.7768 15.7391 12.7768H16.3506C16.5195 12.7768 16.6563 12.6399 16.6563 12.4711C16.6563 12.3022 16.5195 12.1653 16.3506 12.1653C16.0129 12.1653 15.7391 11.8915 15.7391 11.5538C15.7391 11.2161 16.0129 10.9423 16.3506 10.9423H16.6563Z" fill="#737373"/>
<mask id="mask0_4802_4013" style="mask-type:alpha" maskUnits="userSpaceOnUse" x="3" y="4" width="16" height="14">
<path fill-rule="evenodd" clip-rule="evenodd" d="M18.3379 10.4837C18.3369 9.55541 17.5846 8.80312 16.6563 8.80211H13.1586C13.1102 8.80209 13.0646 8.77911 13.0358 8.74017C13.007 8.70122 12.9983 8.65093 13.0125 8.6046C13.3185 7.77891 13.4073 6.88847 13.2705 6.01859C12.8834 4.63906 12.0139 4.25382 11.3847 4.33943C10.702 4.45173 10.2095 5.0545 10.2357 5.74587C10.2357 7.59196 8.5883 9.60989 7.14579 10.1731C7.07743 9.90856 6.8399 9.72295 6.5667 9.72057H4.2736C3.93588 9.72057 3.66211 9.99435 3.66211 10.3321V17.0585C3.66211 17.3962 3.93588 17.67 4.2736 17.67H6.5667C6.90442 17.67 7.17819 17.3962 7.17819 17.0585V16.8573C7.78886 16.9445 8.25094 17.0283 8.6477 17.1003L8.64776 17.1003L8.68369 17.1068C9.4954 17.2793 10.3231 17.3656 11.1529 17.3642H15.1276C16.5071 17.3642 16.6563 16.5081 16.6563 16.1412C16.6565 15.9559 16.6227 15.7721 16.5567 15.5989C17.1705 15.2103 17.4261 14.4435 17.1682 13.7644C17.8317 13.3448 18.0696 12.4908 17.7185 11.7886C18.1109 11.4691 18.3384 10.9898 18.3379 10.4837ZM5.95521 15.9872C5.95521 16.2404 5.74988 16.4458 5.49659 16.4458C5.2433 16.4458 5.03797 16.2404 5.03797 15.9872C5.03797 15.7339 5.2433 15.5285 5.49659 15.5285C5.74988 15.5285 5.95521 15.7339 5.95521 15.9872ZM16.6563 10.9423C16.9095 10.942 17.1146 10.7369 17.115 10.4837C17.1146 10.2306 16.9095 10.0254 16.6563 10.0251H12.0701C11.8648 10.025 11.6731 9.92178 11.56 9.75034C11.4469 9.57891 11.4275 9.36214 11.5082 9.17329C11.8292 8.42054 12.2725 6.98903 12.0928 6.34941C11.9185 5.72018 11.6513 5.53857 11.5516 5.55141C11.507 5.5612 11.4586 5.62724 11.4586 5.74464C11.4586 8.1686 9.31536 10.8897 7.17819 11.4456V15.6221C7.89221 15.7171 8.42445 15.8151 8.86573 15.8963L8.90444 15.9034C9.64344 16.0616 10.3971 16.1409 11.1529 16.14H15.1276C15.2285 16.143 15.3294 16.1347 15.4285 16.1156C15.4158 15.9582 15.2855 15.8363 15.1276 15.8343C14.7899 15.8343 14.5161 15.5605 14.5161 15.2228C14.5161 14.8851 14.7899 14.6113 15.1276 14.6113H15.7391C15.908 14.6113 16.0448 14.4744 16.0448 14.3055C16.0448 14.1367 15.908 13.9998 15.7391 13.9998C15.4014 13.9998 15.1276 13.726 15.1276 13.3883C15.1276 13.0506 15.4014 12.7768 15.7391 12.7768H16.3506C16.5195 12.7768 16.6563 12.6399 16.6563 12.4711C16.6563 12.3022 16.5195 12.1653 16.3506 12.1653C16.0129 12.1653 15.7391 11.8915 15.7391 11.5538C15.7391 11.2161 16.0129 10.9423 16.3506 10.9423H16.6563Z" fill="white"/>
</mask>
<g mask="url(#mask0_4802_4013)">
</g>
</svg>
