<svg width="24" height="25" viewBox="0 0 24 25" fill="none" xmlns="http://www.w3.org/2000/svg">
<path fill-rule="evenodd" clip-rule="evenodd" d="M12.0001 8.61729C13.1974 8.61729 14.1681 7.64664 14.1681 6.44927C14.1681 5.25191 13.1974 4.28125 12.0001 4.28125C10.8027 4.28125 9.83203 5.25191 9.83203 6.44927C9.83203 7.64664 10.8027 8.61729 12.0001 8.61729ZM12.0001 14.4543C13.1974 14.4543 14.1681 13.4836 14.1681 12.2863C14.1681 11.0889 13.1974 10.1182 12.0001 10.1182C10.8027 10.1182 9.83203 11.0889 9.83203 12.2863C9.83203 13.4836 10.8027 14.4543 12.0001 14.4543ZM14.1681 18.1232C14.1681 19.3206 13.1974 20.2913 12.0001 20.2913C10.8027 20.2913 9.83203 19.3206 9.83203 18.1232C9.83203 16.9259 10.8027 15.9552 12.0001 15.9552C13.1974 15.9552 14.1681 16.9259 14.1681 18.1232Z" fill="#737373"/>
<mask id="mask0_4851_46" style="mask-type:alpha" maskUnits="userSpaceOnUse" x="9" y="4" width="6" height="17">
<path fill-rule="evenodd" clip-rule="evenodd" d="M12.0001 8.61729C13.1974 8.61729 14.1681 7.64664 14.1681 6.44927C14.1681 5.25191 13.1974 4.28125 12.0001 4.28125C10.8027 4.28125 9.83203 5.25191 9.83203 6.44927C9.83203 7.64664 10.8027 8.61729 12.0001 8.61729ZM12.0001 14.4543C13.1974 14.4543 14.1681 13.4836 14.1681 12.2863C14.1681 11.0889 13.1974 10.1182 12.0001 10.1182C10.8027 10.1182 9.83203 11.0889 9.83203 12.2863C9.83203 13.4836 10.8027 14.4543 12.0001 14.4543ZM14.1681 18.1232C14.1681 19.3206 13.1974 20.2913 12.0001 20.2913C10.8027 20.2913 9.83203 19.3206 9.83203 18.1232C9.83203 16.9259 10.8027 15.9552 12.0001 15.9552C13.1974 15.9552 14.1681 16.9259 14.1681 18.1232Z" fill="white"/>
</mask>
<g mask="url(#mask0_4851_46)">
</g>
</svg>
