<svg width="179" height="171" viewBox="0 0 179 171" fill="none" xmlns="http://www.w3.org/2000/svg">
<path d="M156.475 39.0331L155.652 37.691C149.041 26.9363 137.14 20.4144 124.527 21.0516C122.748 21.1417 120.98 21.3714 119.237 21.7387C107.635 24.1915 97.5387 32.8565 93.3521 43.9495C90.8922 50.4785 90.2051 57.9902 85.5201 63.1735C79.4432 69.9161 69.1228 70.1262 60.0519 69.8485C50.981 69.5708 40.6535 69.8058 34.605 76.5734C30.8136 80.8133 29.621 86.8404 29.9165 92.5186C30.7246 107.545 41.3299 120.999 54.8365 127.663C68.3432 134.327 84.2029 134.94 98.9805 132.003C119.657 127.887 139.322 116.581 151.142 99.1224C162.961 81.6642 165.933 57.8798 156.475 39.0331Z" fill="#F5F5F5"/>
<path d="M169.02 141.832C169.02 141.885 133.42 141.928 89.5037 141.928C45.5876 141.928 9.98047 141.896 9.98047 141.832C9.98047 141.768 45.5805 141.739 89.5037 141.739C133.427 141.739 169.02 141.782 169.02 141.832Z" fill="#263238"/>
<path d="M112.889 55.5518C113.084 52.2553 113.281 48.9587 113.48 45.6622C113.505 45.2634 113.566 44.8042 113.907 44.5942C114.074 44.5285 114.253 44.5008 114.432 44.5131C114.61 44.5254 114.784 44.5774 114.94 44.6654C120.785 47.0185 125.075 53.5404 125.588 59.8167" fill="#FB8500"/>
<g opacity="0.3">
<path d="M114.875 48.0118C116.245 48.909 117.388 50.1108 118.215 51.5232C119.043 52.9357 119.533 54.5204 119.646 56.1535C119.711 56.5481 119.627 56.9527 119.411 57.2891C119.3 57.4098 119.165 57.506 119.015 57.5716C118.865 57.6371 118.703 57.6707 118.539 57.67C118.21 57.6665 117.884 57.6161 117.57 57.5205C116.784 57.3176 115.954 57.0969 115.37 56.5273C114.837 55.9616 114.531 55.2186 114.512 54.4411C114.498 53.6702 114.577 52.9005 114.747 52.1485L115.744 53.8502L114.676 48.3393C114.659 48.2909 114.653 48.2394 114.658 48.1884C114.663 48.1374 114.679 48.0881 114.705 48.0438C114.765 47.9655 114.936 47.994 114.925 48.0936" fill="white"/>
</g>
<path d="M79.0016 62.5722C75.951 58.9502 74.1969 54.4135 74.0176 49.6814L77.275 51.2158L76.4597 50.2225C81.2131 50.6188 85.6239 52.8555 88.7524 56.4561" fill="#FB8500"/>
<g opacity="0.3">
<path d="M80.8063 61.1339C79.527 60.2042 78.4521 59.0218 77.6481 57.6599C76.8441 56.2981 76.3281 54.7858 76.132 53.2165C76.1071 53.0029 76.132 52.7216 76.3314 52.6504C76.4057 52.6374 76.482 52.6412 76.5547 52.6616C76.6274 52.6819 76.6946 52.7182 76.7514 52.7679L82.629 56.6092C82.3737 56.2427 82.2146 55.8179 82.1662 55.3739L84.6582 57.2001C84.7528 57.2528 84.8362 57.3236 84.9034 57.4085C84.9706 57.4934 85.0203 57.5908 85.0498 57.695C85.0511 57.8121 85.0243 57.9279 84.9716 58.0326C84.919 58.1373 84.842 58.2278 84.7472 58.2966C84.3321 58.6714 83.8268 58.932 83.2808 59.053C82.7349 59.1741 82.1668 59.1514 81.6322 58.9872L82.7002 59.9164C82.3821 60.1219 82.0258 60.2609 81.6526 60.3251C81.2794 60.3894 80.8971 60.3775 80.5286 60.2902C80.4925 60.4658 80.5099 60.6481 80.5784 60.8137C80.6469 60.9793 80.7635 61.1206 80.9131 61.2194" fill="white"/>
</g>
<path d="M145.392 93.6403C145.392 93.6403 149.949 98.3502 152.021 97.9586C152.021 97.9586 144.823 90.301 141.797 83.2344C140.351 79.8927 138.629 76.6775 136.649 73.6224C138.012 71.2728 139.226 68.6135 139.782 65.9257C138.251 67.7008 136.506 69.2792 134.588 70.6249C134.431 70.4042 134.271 70.187 134.107 69.9663C135.717 68.5095 136.79 66.5534 137.154 64.4127L129.96 64.103C130.185 63.7787 130.388 63.4398 130.568 63.0884C127.034 60.0506 123.076 57.543 118.82 55.6444C110.543 50.9345 92.1203 49.3788 83.1491 57.0364C75.1142 61.7213 72.9604 67.7164 66.6307 69.2009L62.8784 68.7915C62.8784 68.7915 61.4188 76.6235 66.2142 80.123L62.6542 79.297C62.6542 79.297 63.3092 82.4156 66.8122 85.8546L64.6264 85.5876C64.6264 85.5876 65.5734 90.4932 68.5994 91.6716C68.5994 91.6716 63.8717 92.2626 62.5474 90.4932C62.5474 90.4932 60.9738 97.8269 68.133 100.593C68.133 100.593 46.6804 103.106 52.7111 129.368C54.1351 135.502 62.5901 139.917 72.3267 142.049L142.459 141.775C146.731 140.38 151.829 126.225 152.017 120.533C152.206 114.84 149.372 103.843 149.372 103.843L152.028 107.378L145.392 93.6403Z" fill="#FB8500"/>
<path d="M65.235 104.584C61.2086 104.342 57.2535 107.471 56.5664 111.447C59.186 109.71 62.1773 108.612 65.2991 108.243C64.0695 109.374 63.2127 110.852 62.842 112.481C62.4714 114.11 62.6044 115.813 63.2236 117.364C63.7426 115.977 64.5378 114.71 65.5609 113.64C66.5841 112.57 67.8139 111.719 69.1759 111.138C68.2456 112.26 67.6205 113.603 67.3611 115.037C67.1016 116.472 67.2166 117.949 67.695 119.326" fill="#FB8500"/>
<path d="M67.6951 119.333C67.6711 119.286 67.652 119.237 67.6382 119.187C67.6061 119.091 67.5492 118.948 67.4922 118.76C67.3355 118.199 67.2376 117.624 67.2003 117.044C67.1456 116.126 67.2381 115.205 67.4744 114.317C67.7836 113.141 68.3462 112.048 69.1227 111.113L69.2046 111.223C67.8558 111.806 66.6382 112.654 65.6247 113.718C64.6112 114.782 63.8225 116.039 63.3056 117.414L63.2273 117.628L63.1419 117.418C62.7116 116.334 62.5124 115.173 62.5572 114.008C62.6019 112.843 62.8896 111.701 63.4018 110.654C63.8528 109.729 64.4763 108.899 65.2387 108.208L65.3099 108.368C62.2031 108.735 59.2243 109.819 56.6093 111.536L56.4526 111.64L56.4882 111.455C56.6464 110.595 56.9472 109.769 57.3782 109.009C57.7602 108.32 58.2398 107.691 58.8022 107.14C59.7007 106.23 60.7869 105.528 61.9849 105.082C62.7511 104.795 63.5566 104.627 64.3736 104.584C64.6584 104.584 64.8756 104.584 65.018 104.584C64.872 104.584 64.662 104.584 64.3772 104.584C63.5683 104.646 62.7729 104.827 62.0169 105.121C60.8393 105.574 59.7741 106.278 58.8948 107.183C58.3469 107.729 57.8805 108.351 57.51 109.03C57.0924 109.778 56.8013 110.59 56.6484 111.433L56.5238 111.351C59.1565 109.614 62.1594 108.516 65.2921 108.147L65.5805 108.115L65.3633 108.307C64.6241 108.984 64.0201 109.794 63.5833 110.696C63.0794 111.722 62.7956 112.841 62.7502 113.983C62.7048 115.124 62.8989 116.263 63.3199 117.325H63.1561C63.7199 115.834 64.5991 114.482 65.7336 113.363C66.7209 112.386 67.8857 111.606 69.1654 111.066L69.436 110.953L69.2473 111.177C68.4766 112.094 67.9143 113.168 67.599 114.324C67.3582 115.201 67.2561 116.11 67.2964 117.019C67.3241 117.594 67.41 118.166 67.5527 118.724C67.599 118.916 67.6488 119.062 67.6738 119.158C67.6866 119.216 67.6938 119.274 67.6951 119.333Z" fill="#263238"/>
<path d="M138.746 115.63C140.919 115.171 143.185 115.474 145.161 116.488C147.137 117.503 148.704 119.168 149.596 121.202" fill="#FB8500"/>
<path d="M149.596 121.202C149.561 121.22 149.287 120.525 148.593 119.561C147.688 118.303 146.497 117.278 145.119 116.571C143.741 115.863 142.214 115.493 140.664 115.492C139.475 115.492 138.749 115.67 138.746 115.63C138.908 115.571 139.076 115.53 139.248 115.506C139.717 115.417 140.194 115.37 140.672 115.363C142.249 115.328 143.81 115.686 145.213 116.406C146.617 117.126 147.819 118.184 148.71 119.486C148.981 119.876 149.219 120.288 149.422 120.718C149.498 120.872 149.557 121.034 149.596 121.202Z" fill="#263238"/>
<g opacity="0.3">
<path d="M114.018 121.547C111.433 121.96 108.144 123.914 106.944 126.232C106.688 126.727 106.923 126.794 106.944 127.35C106.944 127.63 107.023 127.904 107.172 128.141C107.32 128.378 107.533 128.569 107.784 128.692C107.912 128.744 108.049 128.768 108.186 128.764C108.324 128.759 108.459 128.726 108.583 128.666C108.707 128.605 108.816 128.52 108.905 128.415C108.994 128.309 109.06 128.187 109.098 128.055C108.789 129.951 109.203 131.895 110.258 133.501C110.985 133.091 111.571 132.471 111.939 131.721C111.871 133.112 112.089 134.502 112.579 135.806C113.068 137.109 113.82 138.298 114.787 139.301L113.526 134.384C113.074 132.604 112.636 131.091 112.757 129.265C112.886 127.314 114.046 125.669 114.947 124.053C113.708 124.591 112.273 127.026 111.052 128.51C110.979 127.218 111.2 125.927 111.699 124.733C112.198 123.539 112.962 122.474 113.932 121.618" fill="black"/>
</g>
<path d="M113.533 134.441C113.493 134.375 113.459 134.305 113.434 134.231C113.38 134.089 113.277 133.875 113.192 133.601C112.925 132.802 112.763 131.972 112.711 131.131C112.627 129.85 112.778 128.565 113.156 127.339C113.622 125.781 114.453 124.357 115.58 123.185L115.705 123.313C114.665 124.246 113.677 125.236 112.747 126.278C112.146 126.964 111.615 127.708 111.163 128.5L111.024 128.745L110.992 128.468C110.834 127 111.101 125.517 111.761 124.196C112.307 123.076 113.118 122.107 114.124 121.373L114.192 121.494C113.485 121.757 112.836 122.158 112.284 122.672C111.867 123.058 111.508 123.502 111.216 123.989C111.031 124.3 110.871 124.625 110.739 124.961C110.701 125.082 110.656 125.201 110.604 125.317C110.6 125.286 110.6 125.255 110.604 125.225C110.621 125.161 110.643 125.068 110.682 124.95C110.799 124.603 110.951 124.268 111.134 123.95C111.423 123.448 111.782 122.99 112.202 122.59C112.761 122.06 113.419 121.645 114.139 121.369L114.616 121.188L114.203 121.49C113.232 122.222 112.451 123.177 111.928 124.274C111.294 125.568 111.039 127.014 111.191 128.446L111.02 128.411C111.479 127.609 112.016 126.854 112.622 126.157C113.558 125.109 114.552 124.115 115.602 123.181L115.726 123.309C114.615 124.459 113.791 125.854 113.32 127.382C112.938 128.59 112.776 129.858 112.843 131.124C112.884 131.958 113.026 132.784 113.266 133.583C113.345 133.865 113.437 134.071 113.48 134.217C113.503 134.291 113.52 134.366 113.533 134.441Z" fill="#263238"/>
<path d="M71.2939 134.064C72.6922 135.616 74.5322 136.701 76.5663 137.176C76.6769 137.22 76.797 137.234 76.915 137.218C77.0329 137.202 77.1446 137.155 77.2391 137.083C77.4456 136.855 77.2747 136.496 77.1039 136.243L74.8433 132.904C76.4525 134.175 78.3608 135.014 80.3862 135.339C80.7244 135.392 81.1409 135.392 81.3118 135.1C81.3605 134.972 81.3785 134.834 81.3643 134.697C81.3501 134.56 81.3041 134.429 81.2299 134.313C80.8739 133.551 80.5179 132.8 80.0978 132.067" fill="#FB8500"/>
<path d="M80.0982 132.053C80.1417 132.108 80.1787 132.167 80.2085 132.231L80.4933 132.765C80.6215 133.003 80.7675 133.288 80.9383 133.612C81.0285 133.778 81.1211 133.956 81.216 134.146C81.3345 134.346 81.4108 134.567 81.4403 134.797C81.4502 134.935 81.4097 135.072 81.3264 135.182C81.2349 135.291 81.1096 135.366 80.9704 135.396C80.6952 135.438 80.4144 135.424 80.1445 135.356C79.5561 135.255 78.9765 135.109 78.4107 134.918C77.1001 134.481 75.8751 133.82 74.7902 132.964L74.9255 132.839L75.3171 133.42L76.5773 135.285L77.179 136.172C77.2857 136.324 77.3641 136.494 77.4104 136.674C77.4375 136.773 77.4325 136.878 77.3961 136.974C77.3596 137.07 77.2935 137.152 77.2075 137.208C77.0401 137.292 76.8476 137.312 76.6663 137.265C76.499 137.236 76.3495 137.186 76.1929 137.151C75.8831 137.062 75.5877 136.969 75.31 136.862C74.7903 136.667 74.2878 136.429 73.8077 136.15C73.1114 135.75 72.467 135.266 71.8888 134.708C71.6859 134.509 71.5328 134.352 71.4403 134.235C71.3866 134.18 71.3388 134.119 71.2979 134.053C71.3602 134.098 71.4176 134.149 71.4687 134.206C71.572 134.313 71.7286 134.466 71.9387 134.655C72.5293 135.186 73.1777 135.65 73.8717 136.036C74.3498 136.304 74.8486 136.532 75.3634 136.72C75.6411 136.823 75.933 136.912 76.2356 136.998C76.5382 137.083 76.8764 137.2 77.1185 137.065C77.1749 137.027 77.2173 136.972 77.2392 136.908C77.2611 136.843 77.2612 136.774 77.2395 136.709C77.1975 136.552 77.1263 136.405 77.0295 136.275C76.8337 135.986 76.6343 135.691 76.4278 135.392C76.0196 134.787 75.5983 134.165 75.164 133.527L74.7724 132.946L74.4164 132.448L74.9041 132.818C76.4394 134.033 78.2481 134.854 80.1729 135.21C80.4235 135.277 80.6848 135.294 80.9419 135.26C81.0504 135.246 81.1495 135.191 81.2189 135.106C81.2884 135.022 81.323 134.914 81.3157 134.805C81.2911 134.589 81.2233 134.381 81.1163 134.192C81.0238 134.004 80.9348 133.836 80.8529 133.655L80.4364 132.797L80.1801 132.248C80.144 132.187 80.1165 132.121 80.0982 132.053Z" fill="#263238"/>
<g opacity="0.3">
<path d="M80.0766 111.914C80.8634 113.241 82.015 114.315 83.3945 115.007C83.3157 114.276 83.0122 113.587 82.5258 113.035C84.0281 114.466 85.8081 115.574 87.7555 116.289C86.9263 116.658 86.0212 116.825 85.1148 116.776C84.2084 116.727 83.3267 116.463 82.5423 116.006C81.7579 115.549 81.0934 114.912 80.6034 114.148C80.1134 113.384 79.812 112.515 79.7241 111.611" fill="black"/>
</g>
<g opacity="0.3">
<path d="M70.55 88.7132C73.3767 94.1494 82.5188 96.8336 89.6886 96.9511C91.9029 96.9831 95.0286 98.6207 97.2216 98.4071C102.145 97.9336 106.143 95.2814 111.077 94.8471C114.149 94.5872 117.239 94.4911 120.276 93.9749C123.313 93.4587 123.174 93.0992 125.588 91.1803C128.001 89.2615 130.611 87.3604 130.572 84.2775C126.036 89.8311 121.554 91.5506 114.573 93.1775C107.592 94.8044 100.333 94.7688 93.1739 94.4377C85.2956 94.0817 77.0257 93.2131 70.55 88.7097" fill="black"/>
</g>
<path d="M94.8723 47.0185C94.9043 47.0185 94.9328 47.4208 95.0396 48.058C95.1806 48.8874 95.4073 49.6998 95.716 50.4824C96.0318 51.2635 96.4266 52.0102 96.8943 52.711C97.1074 52.9901 97.3058 53.28 97.4889 53.5796C97.4889 53.5796 97.407 53.5191 97.2824 53.3838C97.1051 53.195 96.9398 52.9952 96.7875 52.7857C96.2811 52.097 95.8636 51.347 95.5451 50.5536C95.2259 49.7542 95.0128 48.9164 94.9114 48.0616C94.8779 47.8054 94.8589 47.5475 94.8545 47.2891C94.8473 47.1985 94.8533 47.1074 94.8723 47.0185Z" fill="#FB8500"/>
<path d="M97.1968 46.1321C97.2288 46.1321 97.0864 46.4881 96.9476 47.0826C96.772 47.8502 96.7132 48.6399 96.7731 49.4251C96.8374 50.2091 97.021 50.9786 97.3178 51.707C97.5457 52.2695 97.7415 52.5935 97.713 52.6077C97.6845 52.622 97.6453 52.5401 97.5492 52.3977C97.4153 52.1941 97.2964 51.9812 97.1932 51.7604C96.51 50.2856 96.3774 48.6148 96.8194 47.0506C96.8829 46.8165 96.965 46.5879 97.0651 46.367C97.1398 46.1962 97.1861 46.1107 97.1968 46.1321Z" fill="#FB8500"/>
<path d="M53.626 105.299C53.6683 105.248 53.716 105.201 53.7684 105.16C53.8645 105.075 54.0033 104.94 54.1991 104.804C54.7462 104.37 55.3244 103.976 55.9293 103.626C57.9386 102.487 60.1254 101.696 62.3978 101.284C64.6635 100.871 66.9589 100.643 69.2615 100.6C70.1444 100.579 70.8564 100.572 71.3477 100.572H71.9173C71.9836 100.566 72.0503 100.566 72.1166 100.572C72.0514 100.588 71.9845 100.596 71.9173 100.597L71.3512 100.625L69.2651 100.714C66.9737 100.787 64.6906 101.025 62.4334 101.426C60.1801 101.838 58.0064 102.604 55.9934 103.697C55.389 104.037 54.8053 104.413 54.2454 104.822C53.8503 105.139 53.6367 105.31 53.626 105.299Z" fill="#FB8500"/>
<path d="M104.659 47.6771C104.659 47.7092 104.05 47.5062 103.06 47.2642C102.485 47.1226 101.894 47.0521 101.302 47.0541C100.582 47.0591 99.8765 47.2597 99.2617 47.6344C98.9495 47.8288 98.6775 48.0814 98.4607 48.3784C98.2657 48.6594 98.1289 48.9765 98.0584 49.3112C97.9566 49.8912 97.9821 50.4864 98.1332 51.0556C98.3788 52.0381 98.6423 52.622 98.6067 52.6362C98.5258 52.5103 98.4601 52.3752 98.4109 52.2339C98.2493 51.8616 98.1137 51.4786 98.005 51.0876C97.8314 50.501 97.7924 49.8828 97.8911 49.2791C97.9609 48.9193 98.1039 48.5776 98.3112 48.2752C98.5405 47.9559 98.8294 47.6839 99.162 47.4742C99.8059 47.0841 100.545 46.8795 101.298 46.8832C101.9 46.8891 102.499 46.9753 103.078 47.1396C103.573 47.2713 103.964 47.4066 104.235 47.4956C104.382 47.5417 104.524 47.6025 104.659 47.6771Z" fill="#FB8500"/>
<path d="M158.069 136.891C157.685 134.335 156.432 131.818 154.292 130.362C152.153 128.906 149.073 128.735 147.037 130.333L138.585 141.761L156.578 141.836C157.582 140.906 158.272 138.244 158.069 136.891Z" fill="#FB8500"/>
<g opacity="0.3">
<path d="M146.104 141.597C147.624 140.963 148.746 139.6 149.436 138.105C150.127 136.609 150.43 134.972 150.732 133.352C150.981 132.01 151.216 130.561 150.633 129.322C150.493 129.315 150.354 129.344 150.229 129.406C150.105 129.468 149.998 129.562 149.921 129.678C149.764 129.914 149.65 130.176 149.582 130.451C148.19 134.844 146.044 138.639 142.537 141.611" fill="black"/>
</g>
<g opacity="0.3">
<path d="M92.6612 52.33C94.4412 57.46 94.6655 63.01 94.4732 68.4177C94.3771 71.1162 94.1742 73.8431 93.3305 76.4099C92.4867 78.9766 90.9381 81.3939 88.6384 82.8179C86.4668 84.16 83.7825 84.5124 81.2478 84.1778C78.7131 83.8432 76.3065 82.8713 74.0246 81.725C71.4187 80.4149 68.9089 78.8485 66.8868 76.741C64.8647 74.6335 63.2057 71.6893 62.8711 68.795L66.6233 69.2044C66.6233 69.2044 69.5105 68.8983 73.9997 64.5551C78.9053 59.8132 79.7989 59.2329 83.4728 56.7622C86.3221 54.878 89.4129 53.3871 92.6612 52.33Z" fill="white"/>
</g>
<g opacity="0.3">
<path d="M108.168 83.95C108.878 83.5498 109.699 83.3927 110.506 83.5026C111.314 83.6125 112.063 83.9834 112.64 84.5587C113.211 83.8122 113.984 83.2447 114.867 82.923C115.75 82.6013 116.706 82.5389 117.624 82.7431C116.511 83.1806 115.475 83.7923 114.555 84.5552C113.676 85.3633 113.042 86.5238 113.152 87.7129C112.052 86.528 110.787 85.5077 109.397 84.6833C108.82 84.3273 108.062 84.039 107.521 84.4377" fill="black"/>
</g>
<path d="M120.429 124.057C118.363 125.54 116.84 127.66 116.093 130.092C115.347 132.524 115.418 135.133 116.296 137.521" fill="#FB8500"/>
<path d="M116.296 137.521C116.267 137.478 116.244 137.431 116.228 137.382C116.193 137.286 116.132 137.151 116.072 136.965C115.898 136.451 115.766 135.924 115.676 135.388C115.366 133.612 115.479 131.788 116.008 130.064C116.537 128.34 117.467 126.766 118.72 125.47C119.095 125.082 119.501 124.724 119.934 124.402C120.084 124.285 120.212 124.203 120.29 124.146C120.369 124.089 120.422 124.064 120.426 124.071C120.282 124.209 120.131 124.338 119.973 124.459C119.563 124.806 119.176 125.178 118.813 125.573C117.601 126.874 116.701 128.433 116.179 130.133C115.657 131.832 115.528 133.628 115.801 135.385C115.88 135.916 115.993 136.442 116.139 136.958C116.204 137.142 116.256 137.33 116.296 137.521Z" fill="#263238"/>
<path d="M127.51 111.732C128.966 110.614 130.846 109.44 132.494 110.226C132.951 110.477 133.342 110.831 133.637 111.26C133.932 111.689 134.122 112.181 134.192 112.697C134.32 113.73 134.255 114.778 134 115.787C132.805 121.676 130.207 127.189 126.428 131.86C125.057 133.555 123.106 135.271 120.978 134.805C118.991 134.367 117.863 132.095 117.98 130.063C118.098 128.03 119.123 126.182 120.073 124.367C122.33 120.095 124.523 115.41 127.499 111.718" fill="#FB8500"/>
<path d="M127.51 111.732C127.482 111.779 127.451 111.824 127.418 111.867L127.133 112.248C126.88 112.583 126.514 113.085 126.065 113.743C124.824 115.621 123.688 117.565 122.662 119.568L120.526 123.711C119.771 125.207 118.82 126.752 118.326 128.56C118.06 129.478 118.01 130.446 118.18 131.387C118.359 132.366 118.844 133.263 119.564 133.95C119.938 134.287 120.386 134.53 120.871 134.662C121.368 134.791 121.888 134.804 122.391 134.701C123.421 134.436 124.36 133.898 125.111 133.145C125.879 132.402 126.579 131.59 127.201 130.721C127.841 129.881 128.418 129.012 128.981 128.151C130.974 124.967 132.483 121.505 133.456 117.877C133.669 117.07 133.852 116.284 134.004 115.52C134.165 114.796 134.238 114.054 134.221 113.313C134.178 111.914 133.445 110.643 132.402 110.219C131.922 110.016 131.395 109.953 130.882 110.037C130.449 110.11 130.027 110.241 129.629 110.425C129.077 110.687 128.549 110.997 128.051 111.351L127.66 111.629C127.574 111.689 127.525 111.718 127.525 111.718L127.649 111.615C127.735 111.543 127.859 111.447 128.03 111.323C128.52 110.952 129.045 110.63 129.597 110.361C129.999 110.165 130.427 110.027 130.867 109.952C131.439 109.847 132.029 109.924 132.553 110.173C133.078 110.423 133.511 110.831 133.79 111.34C134.134 111.94 134.326 112.615 134.349 113.306C134.373 114.057 134.305 114.809 134.146 115.545C133.993 116.314 133.815 117.104 133.605 117.916C132.639 121.561 131.133 125.041 129.137 128.24C128.582 129.108 128.002 129.977 127.357 130.824C126.729 131.704 126.022 132.525 125.246 133.277C124.471 134.053 123.501 134.606 122.437 134.876C121.907 134.983 121.359 134.967 120.835 134.829C120.321 134.687 119.847 134.425 119.454 134.064C118.708 133.35 118.21 132.417 118.03 131.401C117.855 130.434 117.907 129.439 118.183 128.496C118.692 126.652 119.653 125.107 120.408 123.619C121.163 122.131 121.91 120.749 122.573 119.486C123.611 117.485 124.766 115.547 126.033 113.683C126.489 113.028 126.866 112.533 127.126 112.205L127.428 111.849C127.454 111.809 127.481 111.77 127.51 111.732Z" fill="#263238"/>
<g opacity="0.3">
<path d="M127.688 116.809V116.827C128.044 115.823 128.803 115.534 129.618 115.239C130.433 114.943 131.419 114.975 132.074 115.545C132.829 116.2 132.925 117.353 132.722 118.332C132.674 118.678 132.533 119.005 132.313 119.276C132.199 119.408 132.046 119.5 131.877 119.539C131.707 119.578 131.529 119.562 131.369 119.493C131.013 119.297 130.903 118.781 130.526 118.624C130.148 118.468 129.65 118.82 129.194 118.934C128.882 118.994 128.559 118.945 128.28 118.795C128 118.644 127.781 118.402 127.66 118.108C127.578 117.901 127.538 117.679 127.543 117.456C127.548 117.232 127.598 117.013 127.688 116.809Z" fill="black"/>
</g>
<g opacity="0.3">
<path d="M129.24 111.796C129.423 111.878 129.576 112.015 129.676 112.188C129.776 112.361 129.819 112.562 129.799 112.761C129.781 113.208 129.684 113.648 129.511 114.06C129.386 114.416 129.176 114.812 128.799 114.826C128.693 114.823 128.589 114.793 128.498 114.739C128.407 114.685 128.332 114.608 128.279 114.516C128.177 114.33 128.12 114.123 128.112 113.911C128.076 113.426 128.152 112.939 128.332 112.487C128.41 112.251 128.556 112.044 128.752 111.892C128.851 111.818 128.972 111.777 129.096 111.777C129.22 111.777 129.341 111.818 129.439 111.892" fill="black"/>
</g>
<g opacity="0.3">
<path d="M133.505 112.672C133.688 112.754 133.84 112.891 133.941 113.064C134.041 113.237 134.084 113.438 134.064 113.637C134.046 114.084 133.948 114.524 133.776 114.936C133.651 115.292 133.437 115.687 133.064 115.702C132.958 115.699 132.854 115.669 132.763 115.615C132.672 115.561 132.596 115.484 132.544 115.392C132.438 115.207 132.381 114.999 132.377 114.787C132.342 114.302 132.416 113.815 132.594 113.363C132.673 113.127 132.82 112.92 133.017 112.768C133.116 112.693 133.237 112.652 133.361 112.652C133.485 112.652 133.606 112.693 133.704 112.768" fill="black"/>
</g>
<g opacity="0.3">
<path d="M131.704 111.042C131.886 111.125 132.038 111.263 132.138 111.437C132.238 111.61 132.282 111.81 132.263 112.01C132.243 112.455 132.146 112.894 131.974 113.306C131.846 113.662 131.636 114.06 131.262 114.071C131.156 114.069 131.053 114.039 130.962 113.984C130.871 113.93 130.795 113.853 130.743 113.761C130.64 113.577 130.584 113.371 130.579 113.16C130.54 112.675 130.615 112.187 130.796 111.736C130.873 111.499 131.021 111.292 131.22 111.141C131.318 111.067 131.438 111.026 131.561 111.026C131.685 111.026 131.805 111.067 131.903 111.141" fill="black"/>
</g>
<g opacity="0.3">
<path d="M130.322 125.595C130.038 127.749 129.452 129.852 128.582 131.843C127.704 133.841 126.361 135.601 124.666 136.976C123.882 137.588 122.964 138.115 121.971 138.14C120.564 138.176 119.283 137.168 118.649 135.912C118.016 134.655 117.937 133.195 118.001 131.793C118.681 132.928 119.447 134.139 120.678 134.641C121.223 134.823 121.8 134.886 122.371 134.825C122.942 134.763 123.493 134.579 123.986 134.285C124.968 133.69 125.827 132.911 126.517 131.992C128.042 130.13 129.296 128.061 130.241 125.848" fill="black"/>
</g>
<path d="M50.5891 112.017C48.8376 111.479 46.6731 111.034 45.3844 112.352C45.0467 112.748 44.8065 113.218 44.6828 113.723C44.5592 114.229 44.5556 114.756 44.6724 115.264C44.913 116.277 45.3404 117.237 45.9327 118.094C49.1149 123.191 53.4763 127.447 58.649 130.504C60.5251 131.608 62.953 132.533 64.7829 131.348C66.4952 130.244 66.7515 127.72 65.9327 125.858C65.1139 123.996 63.5119 122.612 61.9776 121.248C58.3677 118.044 54.6725 114.42 50.5856 111.992" fill="#FB8500"/>
<path d="M50.5892 112.017C50.5892 112.017 50.639 112.038 50.7351 112.092L51.1445 112.334C51.5005 112.551 52.031 112.882 52.6896 113.334C54.5285 114.638 56.289 116.049 57.9619 117.56L61.44 120.671C62.6682 121.8 64.11 122.911 65.2314 124.459C65.8213 125.246 66.2198 126.158 66.3956 127.126C66.5783 128.143 66.435 129.192 65.9862 130.123C65.7425 130.597 65.3914 131.008 64.9609 131.323C64.5184 131.637 64.009 131.844 63.4728 131.928C62.3781 132.051 61.2705 131.874 60.2688 131.415C59.2753 130.982 58.3222 130.462 57.4208 129.86C56.5237 129.29 55.6728 128.678 54.8505 128.062C53.29 126.856 51.826 125.53 50.4717 124.096C49.2397 122.798 48.1024 121.413 47.0683 119.952C46.5877 119.265 46.1427 118.585 45.7333 117.919C45.3254 117.287 44.9966 116.607 44.7543 115.894C44.534 115.239 44.4778 114.539 44.5906 113.858C44.6736 113.283 44.9357 112.749 45.3396 112.331C45.7435 111.914 46.2687 111.635 46.8405 111.533C47.2805 111.451 47.7296 111.43 48.1755 111.469C48.787 111.53 49.3914 111.649 49.9804 111.825C50.1833 111.882 50.3364 111.928 50.4361 111.964L50.5892 112.021L50.4325 111.981L49.9697 111.86C49.3794 111.703 48.7768 111.597 48.1684 111.544C47.7301 111.511 47.2896 111.538 46.8583 111.622C46.3466 111.725 45.875 111.972 45.4984 112.334C44.6689 113.099 44.4304 114.545 44.8789 115.869C45.1225 116.569 45.4501 117.237 45.8544 117.859C46.2673 118.521 46.7135 119.194 47.1929 119.877C49.3763 122.934 52.0028 125.648 54.9858 127.93C55.8046 128.546 56.6518 129.155 57.5454 129.71C58.4333 130.307 59.3734 130.821 60.3542 131.248C61.3198 131.692 62.3875 131.867 63.4443 131.754C63.957 131.676 64.4445 131.479 64.8683 131.18C65.2768 130.884 65.6088 130.495 65.8366 130.045C66.2707 129.15 66.4103 128.14 66.2354 127.161C66.0667 126.22 65.6803 125.331 65.1068 124.566C64.0104 123.042 62.5792 121.928 61.351 120.792L57.8907 117.663C56.2279 116.143 54.482 114.717 52.6611 113.391C52.0132 112.928 51.4934 112.59 51.141 112.362L50.7387 112.106L50.5892 112.017Z" fill="#263238"/>
<g opacity="0.3">
<path d="M52.2054 116.83C51.5183 116.015 50.7102 116.008 49.8416 116.018C48.9729 116.029 48.0616 116.406 47.6486 117.165C47.1716 118.048 47.4848 119.158 48.0046 120.013C48.1679 120.321 48.4147 120.576 48.7166 120.75C48.8684 120.835 49.0435 120.869 49.2161 120.846C49.3886 120.824 49.5493 120.746 49.6742 120.625C49.9412 120.315 49.8665 119.799 50.1584 119.514C50.4503 119.23 51.052 119.39 51.5148 119.34C51.8278 119.287 52.113 119.128 52.3224 118.889C52.5319 118.651 52.6527 118.347 52.6646 118.03C52.6742 117.585 52.5093 117.155 52.2054 116.83Z" fill="black"/>
</g>
<g opacity="0.3">
<path d="M48.9908 112.679C48.8481 112.82 48.7534 113.003 48.7202 113.201C48.687 113.399 48.7169 113.603 48.8056 113.783C48.9753 114.193 49.2163 114.571 49.5176 114.897C49.7562 115.178 50.0979 115.484 50.4468 115.367C50.5451 115.327 50.6316 115.263 50.6977 115.18C50.7638 115.097 50.8074 114.998 50.8242 114.893C50.8562 114.685 50.8379 114.471 50.7708 114.27C50.6313 113.802 50.3879 113.371 50.0588 113.01C49.9032 112.816 49.6921 112.673 49.4535 112.601C49.3343 112.568 49.2076 112.575 49.0926 112.621C48.9777 112.666 48.8807 112.748 48.8163 112.854" fill="black"/>
</g>
<g opacity="0.3">
<path d="M45.3063 114.997C45.1639 115.137 45.0694 115.319 45.0362 115.517C45.003 115.714 45.0327 115.917 45.1211 116.097C45.2906 116.507 45.5316 116.885 45.8331 117.211C46.0752 117.492 46.4134 117.798 46.7659 117.681C46.8638 117.641 46.9499 117.576 47.0159 117.493C47.082 117.41 47.1258 117.312 47.1432 117.207C47.1741 116.998 47.1546 116.785 47.0863 116.584C46.9482 116.116 46.7046 115.685 46.3743 115.324C46.2187 115.13 46.0077 114.987 45.7691 114.915C45.6498 114.882 45.5231 114.889 45.4082 114.935C45.2932 114.98 45.1962 115.062 45.1318 115.168" fill="black"/>
</g>
<g opacity="0.3">
<path d="M46.4239 112.839C46.2816 112.98 46.1871 113.162 46.1539 113.36C46.1206 113.557 46.1504 113.76 46.2388 113.939C46.4082 114.35 46.6493 114.727 46.9508 115.054C47.1929 115.335 47.5311 115.641 47.8835 115.524C47.9817 115.484 48.0679 115.419 48.134 115.336C48.2001 115.253 48.2438 115.155 48.2609 115.05C48.2918 114.841 48.2723 114.627 48.2039 114.427C48.0658 113.958 47.8223 113.527 47.4919 113.167C47.3364 112.972 47.1253 112.829 46.8867 112.757C46.7675 112.725 46.6408 112.732 46.5258 112.777C46.4109 112.823 46.3139 112.905 46.2495 113.01" fill="black"/>
</g>
<g opacity="0.3">
<path d="M52.832 125.983C53.8492 127.897 55.1303 129.659 56.6377 131.216C58.1531 132.784 60.022 133.965 62.088 134.662C63.035 134.965 64.0781 135.136 65.0179 134.812C66.3493 134.352 67.1931 132.96 67.3462 131.561C67.4992 130.162 67.072 128.763 66.5096 127.475C66.271 128.777 65.9791 130.18 64.9966 131.07C64.5544 131.432 64.039 131.694 63.4859 131.838C62.9328 131.982 62.3551 132.004 61.7926 131.903C60.6635 131.691 59.5855 131.264 58.617 130.646C56.5378 129.435 54.6395 127.937 52.978 126.196" fill="black"/>
</g>
<g opacity="0.3">
<path d="M51.5078 124.05C51.4045 124.192 51.3013 124.338 51.2016 124.484C51.6413 123.775 52.2201 123.162 52.9032 122.683C53.5863 122.204 54.3594 121.868 55.1759 121.696C55.9924 121.524 56.8353 121.52 57.6536 121.683C58.4719 121.845 59.2487 122.173 59.9371 122.644C60.6254 123.116 61.2111 123.722 61.6585 124.426C62.106 125.131 62.406 125.918 62.5405 126.742C62.675 127.565 62.6412 128.407 62.441 129.217C62.2409 130.027 61.8786 130.789 61.3761 131.455C57.3738 129.818 53.7507 127.377 50.7317 124.281" fill="white"/>
</g>
<path d="M152.013 120.536C152.016 120.616 152.01 120.696 151.996 120.775C151.971 120.953 151.939 121.177 151.903 121.458C151.821 122.053 151.682 122.907 151.486 123.95C151.002 126.705 150.273 129.41 149.308 132.035C148.753 133.475 148.083 134.868 147.303 136.2C147.122 136.506 146.926 136.791 146.748 137.076L146.478 137.492L146.189 137.88L145.641 138.61C145.452 138.835 145.264 139.045 145.086 139.244C144.908 139.443 144.747 139.646 144.569 139.81L144.078 140.283L143.647 140.693L143.256 141.003L142.711 141.43C142.651 141.483 142.584 141.529 142.512 141.565C142.566 141.505 142.624 141.449 142.686 141.398L143.209 140.949L143.587 140.629L144.003 140.209L144.484 139.732C144.658 139.564 144.811 139.358 144.986 139.158L145.527 138.521L146.065 137.788L146.346 137.403C146.435 137.268 146.52 137.129 146.609 136.987C146.787 136.702 146.965 136.417 147.158 136.115C147.916 134.785 148.571 133.4 149.119 131.971C150.084 129.359 150.833 126.673 151.358 123.939C151.568 122.893 151.714 122.042 151.832 121.447C151.882 121.17 151.924 120.946 151.956 120.771C151.969 120.691 151.988 120.613 152.013 120.536Z" fill="#263238"/>
<path d="M70.1123 98.9411C70.1589 98.877 70.214 98.8195 70.2761 98.7702L70.7709 98.3074C70.9881 98.1045 71.2551 97.8624 71.5755 97.5954C71.8959 97.3284 72.2519 97.0045 72.6648 96.677C73.4801 96.0041 74.4804 95.253 75.6232 94.4342C76.7659 93.6154 78.0582 92.8001 79.4537 91.9884C80.8493 91.1768 82.2199 90.479 83.4801 89.8809C84.7403 89.2828 85.908 88.8129 86.8977 88.432C87.389 88.2362 87.8411 88.076 88.2363 87.9407C88.6314 87.8054 88.9767 87.688 89.258 87.6025L89.9095 87.4032C89.9831 87.3758 90.0595 87.3567 90.1373 87.3462C90.0675 87.3828 89.9949 87.4138 89.9201 87.4388L89.2793 87.6702C89.0017 87.7663 88.6635 87.8873 88.2719 88.0262C87.8803 88.165 87.4317 88.3359 86.944 88.5388C85.965 88.9268 84.808 89.4288 83.5549 90.0233C82.3017 90.6178 80.9561 91.3441 79.5321 92.1415C78.1081 92.939 76.8549 93.7791 75.7051 94.5694C74.5552 95.3598 73.5691 96.1145 72.7325 96.7731C72.3159 97.0935 71.9528 97.4032 71.6289 97.6702C71.3049 97.9372 71.0272 98.165 70.8065 98.3608L70.2867 98.7987C70.2343 98.8528 70.1758 98.9006 70.1123 98.9411Z" fill="#263238"/>
<path d="M60.0908 92.9959C60.0908 92.9959 60.1122 92.9781 60.1549 92.9461L60.3543 92.8108L61.1375 92.3124C61.4757 92.0952 61.8922 91.8354 62.3906 91.5541C62.889 91.2729 63.4586 90.9311 64.0851 90.6036L65.0819 90.0732C65.4379 89.8916 65.7939 89.7172 66.182 89.532C66.9367 89.1511 67.7697 88.7951 68.6384 88.4071C70.3935 87.6666 72.3515 86.9261 74.4519 86.2711C76.5523 85.616 78.5921 85.1426 80.4611 84.7723C81.3974 84.605 82.2874 84.4341 83.1276 84.3238C83.5441 84.2668 83.9499 84.1992 84.338 84.1564L85.4629 84.0318C86.1749 83.9464 86.8264 83.9108 87.396 83.8681C87.9656 83.8254 88.464 83.8004 88.8627 83.7898L89.7883 83.7648H90.0269C90.0551 83.7594 90.0841 83.7594 90.1123 83.7648H90.0304L89.7883 83.7862L88.8663 83.8467C88.464 83.8681 87.9727 83.8966 87.4067 83.9535C86.8407 84.0105 86.1892 84.0496 85.4772 84.1458L84.3558 84.281C83.9677 84.3273 83.5655 84.3985 83.1489 84.459C82.3123 84.573 81.4259 84.751 80.4932 84.9218C78.6349 85.3028 76.6021 85.794 74.5053 86.4313C72.4084 87.0685 70.4575 87.8126 68.706 88.5424C67.8374 88.9233 67.0043 89.2757 66.2496 89.6495C65.8687 89.8346 65.4949 90.0055 65.146 90.18L64.1457 90.6997C63.5049 91.0201 62.9424 91.3476 62.444 91.6218C61.9456 91.8959 61.5184 92.1451 61.1731 92.3516L60.3756 92.8215L60.1656 92.939C60.1193 92.9888 60.0908 92.9995 60.0908 92.9959Z" fill="#263238"/>
<path d="M102.515 81.2622C102.537 81.3156 101.618 81.7036 100.604 82.3836C99.5891 83.0635 98.8736 83.7577 98.8237 83.715C99.7961 82.5679 101.072 81.7179 102.505 81.2622H102.515Z" fill="#263238"/>
<path d="M108.539 83.1952C108.539 83.2308 108.012 82.9923 107.14 82.7716C106.003 82.4748 104.826 82.3666 103.654 82.4512C102.482 82.5002 101.335 82.8052 100.294 83.3448C99.8791 83.5943 99.5223 83.9293 99.2471 84.3273C99.2834 84.1978 99.3451 84.0768 99.4286 83.9713C99.6448 83.6759 99.9155 83.4245 100.226 83.2308C101.002 82.7218 102.252 82.3693 103.64 82.2625C104.832 82.1762 106.029 82.304 107.175 82.6399C107.521 82.7364 107.86 82.8553 108.19 82.9959C108.313 83.0495 108.43 83.1163 108.539 83.1952Z" fill="#263238"/>
<path d="M96.8408 86.1643L97.2573 87.1611C97.3804 87.419 97.4644 87.6937 97.5065 87.9763C97.5266 88.1183 97.516 88.263 97.4755 88.4005C97.435 88.5381 97.3654 88.6653 97.2716 88.7738C97.1113 88.9091 96.911 88.9884 96.7015 88.9993C96.4919 89.0102 96.2846 88.9523 96.111 88.8343C95.7738 88.5846 95.5245 88.2343 95.399 87.8339C95.2495 87.4423 95.1498 87.0294 94.9683 86.652C95.1991 86.4415 95.3732 86.1762 95.4746 85.8807C95.5761 85.5852 95.6015 85.2689 95.5485 84.961C95.5485 84.961 95.9081 86.1002 96.8408 86.1643Z" fill="#F5F5F5"/>
<path d="M91.0273 82.5331C91.3427 81.898 91.787 81.3357 92.3319 80.8821C92.8769 80.4285 93.5105 80.0936 94.1922 79.8987C96.4635 79.3006 98.8202 81.6787 98.8202 81.6787C98.8202 81.6787 96.0754 80.8706 96.1146 82.234C96.1537 83.5975 96.9619 83.5655 96.0505 84.4626C95.1391 85.3597 93.5763 84.4163 93.2025 83.359L92.4691 82.3266L91.0273 82.5331Z" fill="#263238"/>
<path d="M100.433 83.8681C100.433 83.8681 100.433 83.9144 100.45 83.9962C100.462 84.1205 100.462 84.2457 100.45 84.37C100.385 84.8262 100.201 85.2572 99.9164 85.6196C99.7086 85.8947 99.4472 86.1249 99.148 86.2962C98.8488 86.4675 98.518 86.5764 98.1756 86.6164C97.7528 86.6486 97.3284 86.5806 96.9368 86.4179C96.5452 86.2552 96.1976 86.0025 95.9221 85.6801C95.6493 85.3669 95.4574 84.9917 95.3632 84.5872L95.5376 84.5374C95.6447 84.8724 95.6738 85.2275 95.6225 85.5755C95.5713 85.9235 95.4412 86.2552 95.2421 86.5452C94.9729 86.9223 94.5919 87.2053 94.153 87.3542C93.7141 87.503 93.2396 87.5102 92.7964 87.3747C92.703 87.3463 92.6124 87.3094 92.5259 87.2643C92.4689 87.2323 92.4404 87.2145 92.4404 87.2074C92.4404 87.2002 92.5721 87.2572 92.8142 87.3142C93.1563 87.3923 93.5116 87.3923 93.8537 87.3142C94.3666 87.1986 94.816 86.8917 95.1104 86.4562C95.2901 86.185 95.4065 85.8768 95.4508 85.5545C95.4952 85.2322 95.4665 84.904 95.3668 84.5943L95.5412 84.548C95.632 84.9222 95.8115 85.2689 96.0645 85.5591C96.3211 85.8599 96.6441 86.0969 97.008 86.2513C97.3719 86.4058 97.7668 86.4735 98.1613 86.4491C98.4838 86.414 98.7961 86.3154 99.0802 86.159C99.3643 86.0025 99.6147 85.7914 99.8167 85.5377C100.099 85.1965 100.293 84.7903 100.379 84.3558C100.426 84.0568 100.415 83.8681 100.433 83.8681Z" fill="#263238"/>
<path d="M96.0326 80.2333C95.797 80.2686 95.5584 80.2794 95.3206 80.2654C94.7447 80.2593 94.1708 80.3336 93.6154 80.4861C93.0668 80.6462 92.5689 80.9454 92.17 81.3547C91.8745 81.6787 91.7677 81.9386 91.7393 81.9279C91.7861 81.6811 91.9021 81.4526 92.0739 81.2693C92.4622 80.8068 92.9807 80.4719 93.562 80.3081C94.135 80.1492 94.7311 80.0902 95.3242 80.1336C95.5641 80.1298 95.8031 80.1635 96.0326 80.2333Z" fill="white"/>
<path d="M96.7159 89.0799C96.3726 88.5027 96.1136 87.8793 95.947 87.2287C95.7245 86.5957 95.595 85.9338 95.5625 85.2636C95.6159 85.2636 95.8046 86.1251 96.125 87.1753C96.4454 88.2255 96.7658 89.0586 96.7159 89.0799Z" fill="#263238"/>
<path d="M71.3691 93.0707C71.4124 93.0246 71.4601 92.9829 71.5115 92.9461L71.9423 92.6115C72.2983 92.3231 72.8786 91.9279 73.587 91.4651C74.2955 91.0023 75.157 90.4826 76.1431 89.9486C77.1292 89.4146 78.2399 88.8806 79.4361 88.3928C80.6323 87.9051 81.7964 87.5064 82.8679 87.1825C83.9395 86.8585 84.9221 86.6235 85.7515 86.4705C86.581 86.3174 87.2574 86.1857 87.7273 86.1145L88.2685 86.0468C88.3311 86.0397 88.3944 86.0397 88.4571 86.0468C88.3981 86.0722 88.3358 86.089 88.272 86.0967L87.738 86.1963C87.2717 86.2747 86.6024 86.4099 85.78 86.5951C84.9577 86.7802 84 87.0294 82.932 87.3533C81.864 87.6773 80.7106 88.0867 79.518 88.5708C78.3254 89.055 77.2253 89.5926 76.2357 90.1088C75.246 90.625 74.3845 91.1341 73.6689 91.5826C72.9533 92.0312 72.3873 92.4085 71.9993 92.6791L71.5471 92.9817C71.4297 93.0458 71.3727 93.0778 71.3691 93.0707Z" fill="#263238"/>
<path d="M89.2072 77.3881C90.2354 73.0753 87.5728 68.7456 83.26 67.7174C78.9473 66.6891 74.6176 69.3518 73.5893 73.6645C72.5611 77.9773 75.2237 82.307 79.5365 83.3352C83.8492 84.3635 88.1789 81.7008 89.2072 77.3881Z" fill="#F5F5F5"/>
<path d="M89.4325 75.5377C89.4325 79.411 86.8159 82.5544 84.6015 82.5544C82.3872 82.5544 80.6001 79.411 80.6001 75.5377C80.6001 71.6644 82.3801 68.5174 84.6158 68.5174C86.8515 68.5174 89.4325 71.6608 89.4325 75.5377Z" fill="#263238"/>
<path d="M86.3815 72.9424C87.1404 72.9424 87.7556 72.3272 87.7556 71.5683C87.7556 70.8094 87.1404 70.1941 86.3815 70.1941C85.6226 70.1941 85.0073 70.8094 85.0073 71.5683C85.0073 72.3272 85.6226 72.9424 86.3815 72.9424Z" fill="white"/>
<path d="M82.8287 80.6356C82.7486 80.5328 82.6816 80.4204 82.6293 80.301C82.4615 79.9858 82.3175 79.6586 82.1985 79.322C82.0139 78.8242 81.8698 78.3122 81.7678 77.7912C81.6468 77.1524 81.5801 76.5045 81.5684 75.8545C81.5662 75.2032 81.6198 74.5529 81.7286 73.9108C81.82 73.3882 81.9533 72.8739 82.1273 72.3728C82.2387 72.0343 82.3756 71.7046 82.5367 71.3867C82.5851 71.2602 82.6497 71.1405 82.729 71.0307C82.761 71.0307 82.5154 71.5469 82.2519 72.4013C82.099 72.9006 81.9801 73.4097 81.8959 73.925C81.7989 74.5576 81.7513 75.1968 81.7535 75.8367C81.7651 76.4765 81.8258 77.1144 81.9351 77.7449C82.0286 78.2601 82.1583 78.768 82.3231 79.265C82.6044 80.1265 82.8607 80.6214 82.8287 80.6356Z" fill="white"/>
<path d="M79.3649 65.3134C79.3435 65.5732 79.0445 65.7726 78.6529 65.9577C78.2613 66.1428 77.7308 66.3137 77.2075 66.5522C76.6842 66.7908 76.2249 66.9972 75.8333 67.1752C75.4417 67.3532 75.1214 67.46 74.89 67.3212C74.6586 67.1824 74.6301 66.7943 74.89 66.2781C75.2411 65.6268 75.8128 65.1219 76.5026 64.8541C77.1632 64.563 77.9006 64.4955 78.603 64.6619C79.105 64.7972 79.3862 65.0642 79.3649 65.3134Z" fill="#263238"/>
<path d="M41.052 133.708L42.8569 130.881C51.4508 140.323 79.8453 151.551 105.267 126.172C116.186 115.271 115.303 96.8514 115.303 96.8514L113.131 90.0304H115.303C115.303 90.0304 121.597 101.64 115.007 116.841C115.007 116.841 108.243 134.858 87.5349 141.405C54.8684 151.722 41.052 133.708 41.052 133.708Z" fill="#FB8500"/>
<g opacity="0.7">
<path d="M41.052 133.708L42.8569 130.881C51.4508 140.323 79.8453 151.551 105.267 126.172C116.186 115.271 115.303 96.8514 115.303 96.8514L113.131 90.0304H115.303C115.303 90.0304 121.597 101.64 115.007 116.841C115.007 116.841 108.243 134.858 87.5349 141.405C54.8684 151.722 41.052 133.708 41.052 133.708Z" fill="white"/>
</g>
<path d="M40.5651 137.162C46.5919 131.135 46.5919 121.364 40.5651 115.337C34.5383 109.31 24.7669 109.31 18.7401 115.337C12.7133 121.364 12.7133 131.135 18.7401 137.162C24.7669 143.189 34.5383 143.189 40.5651 137.162Z" fill="#FB8500"/>
<g opacity="0.7">
<path d="M40.5651 137.162C46.5919 131.135 46.5919 121.364 40.5651 115.337C34.5383 109.31 24.7669 109.31 18.7401 115.337C12.7133 121.364 12.7133 131.135 18.7401 137.162C24.7669 143.189 34.5383 143.189 40.5651 137.162Z" fill="white"/>
</g>
<path d="M33.3516 111.248C33.3434 111.347 33.3255 111.445 33.2982 111.54C33.2555 111.746 33.1914 112.024 33.1167 112.377C33.074 112.558 33.0277 112.761 32.9778 112.978C32.928 113.195 32.8497 113.43 32.7785 113.69C32.6254 114.196 32.4794 114.78 32.2445 115.403L31.8885 116.385C31.7674 116.741 31.6144 117.072 31.4684 117.435C31.1907 118.165 30.8205 118.916 30.4467 119.71C29.5902 121.415 28.6122 123.055 27.5204 124.619C26.406 126.168 25.1818 127.635 23.8571 129.009C23.227 129.625 22.6432 130.219 22.0451 130.725C21.7532 130.981 21.4755 131.241 21.1942 131.469L20.379 132.12C19.8699 132.548 19.368 132.879 18.955 133.188C18.7378 133.341 18.542 133.487 18.3534 133.612L17.83 133.943L17.118 134.392C17.0369 134.449 16.9497 134.498 16.8582 134.538C16.9338 134.473 17.0135 134.414 17.0967 134.36L17.8087 133.883L18.3213 133.527C18.5064 133.395 18.6987 133.245 18.9123 133.092C19.3324 132.775 19.8272 132.434 20.3363 132.003L21.1408 131.348C21.4221 131.116 21.6926 130.857 21.981 130.597C22.572 130.088 23.1522 129.489 23.761 128.874C25.066 127.504 26.2746 126.046 27.378 124.509C28.4654 122.953 29.4432 121.324 30.3043 119.632C30.6816 118.842 31.0519 118.097 31.3367 117.375C31.4862 117.019 31.6428 116.663 31.7674 116.332C31.892 116.001 32.0095 115.666 32.1234 115.356C32.3655 114.737 32.5222 114.157 32.6824 113.658C32.7571 113.405 32.8354 113.17 32.896 112.946C32.9565 112.722 33.0028 112.53 33.049 112.348C33.1416 111.992 33.2128 111.725 33.2662 111.522C33.2869 111.429 33.3155 111.337 33.3516 111.248Z" fill="#FB8500"/>
<path d="M37.0007 112.822C36.9897 112.926 36.9695 113.03 36.9402 113.131C36.8903 113.348 36.8227 113.64 36.7337 114.011C36.6874 114.203 36.634 114.416 36.577 114.648C36.5201 114.879 36.4382 115.125 36.3563 115.392C36.189 115.922 36.0288 116.542 35.7689 117.193L35.388 118.229C35.2563 118.585 35.0819 118.941 34.9217 119.333C34.6119 120.098 34.2097 120.885 33.7931 121.714C32.8466 123.497 31.7635 125.204 30.5535 126.819C29.3245 128.418 27.9761 129.921 26.5201 131.316C25.8365 131.946 25.1886 132.551 24.5407 133.064C24.2203 133.324 23.9213 133.591 23.6115 133.815L22.7251 134.473C22.1733 134.904 21.6286 135.239 21.1658 135.541C20.703 135.844 20.2936 136.104 19.9554 136.3L19.1722 136.755C19.0833 136.812 18.9905 136.862 18.8945 136.905C18.9764 136.838 19.0633 136.777 19.1544 136.723L19.9163 136.239C20.2509 136.033 20.6567 135.78 21.1089 135.456C21.561 135.132 22.1021 134.794 22.6503 134.36L23.5225 133.708C23.8287 133.48 24.1242 133.21 24.441 132.95C25.0854 132.434 25.7226 131.828 26.4026 131.198C27.8426 129.799 29.1799 128.297 30.404 126.706C31.6071 125.099 32.6877 123.405 33.6365 121.636C34.0566 120.81 34.4624 120.031 34.7793 119.269C34.9395 118.891 35.1353 118.535 35.2492 118.176C35.3631 117.816 35.5162 117.464 35.6408 117.151C35.9078 116.499 36.0751 115.89 36.2531 115.371C36.3385 115.104 36.4275 114.858 36.4916 114.63C36.5557 114.402 36.6091 114.192 36.6589 114C36.7622 113.644 36.8405 113.345 36.901 113.131C36.928 113.026 36.9613 112.923 37.0007 112.822Z" fill="#FB8500"/>
<path d="M40.372 115.595C40.3541 115.699 40.3279 115.801 40.2937 115.901C40.2296 116.118 40.1406 116.406 40.0303 116.777C39.9733 116.965 39.9057 117.175 39.838 117.403C39.7704 117.631 39.6671 117.877 39.571 118.144C39.3717 118.667 39.1687 119.276 38.859 119.924L38.4211 120.945C38.2681 121.301 38.0829 121.657 37.9014 122.035C37.5454 122.79 37.1111 123.566 36.6625 124.388C35.6497 126.146 34.5186 127.832 33.2769 129.436C32.0053 131.023 30.6255 132.521 29.1473 133.918C28.4353 134.548 27.8017 135.153 27.1431 135.67C26.8191 135.93 26.5165 136.193 26.2032 136.424L25.3097 137.087C24.7472 137.517 24.2025 137.855 23.7361 138.155C23.5012 138.308 23.284 138.457 23.0775 138.582L22.5115 138.916L21.7212 139.372C21.6309 139.428 21.5369 139.478 21.4399 139.522C21.5228 139.454 21.6109 139.393 21.7034 139.34L22.4723 138.856L23.0313 138.5C23.2342 138.372 23.4478 138.219 23.6792 138.062C24.1384 137.738 24.676 137.396 25.2313 136.958C25.5161 136.745 25.8116 136.524 26.1178 136.289C26.4239 136.054 26.723 135.791 27.0469 135.527C27.6949 135.011 28.3428 134.402 29.0299 133.776C30.494 132.376 31.8641 130.881 33.131 129.301C34.3775 127.706 35.5168 126.03 36.5415 124.285C36.9936 123.466 37.4386 122.701 37.7946 121.949C37.9761 121.593 38.1506 121.237 38.3215 120.881C38.4923 120.525 38.6241 120.187 38.7665 119.867C39.0655 119.226 39.2755 118.621 39.4785 118.087C39.5817 117.827 39.6778 117.585 39.7597 117.357C39.8416 117.129 39.9057 116.923 39.9697 116.734C40.0943 116.378 40.194 116.086 40.2652 115.872C40.2943 115.778 40.33 115.685 40.372 115.595Z" fill="#FB8500"/>
<path d="M44.4198 130.237C44.2953 130.206 44.1755 130.158 44.0638 130.095C43.8502 129.995 43.5405 129.838 43.1632 129.643C42.4084 129.251 41.3832 128.681 40.2618 128.012C39.1404 127.343 38.1649 126.698 37.4636 126.214C37.1076 125.972 36.8335 125.773 36.6412 125.627C36.5372 125.56 36.4416 125.481 36.3564 125.392C36.4729 125.437 36.5831 125.497 36.684 125.57L37.5348 126.104C38.2468 126.56 39.2472 127.172 40.3579 127.852C41.4686 128.532 42.4939 129.109 43.2272 129.529L44.0994 130.031C44.2158 130.083 44.3237 130.153 44.4198 130.237Z" fill="#FB8500"/>
<path d="M45.0712 126.898C44.7123 126.696 44.3673 126.47 44.0388 126.221C43.4087 125.791 42.533 125.207 41.5468 124.602C40.5607 123.996 39.6316 123.491 38.9623 123.121C38.5919 122.937 38.235 122.728 37.8943 122.494C38.004 122.519 38.1095 122.56 38.2076 122.615C38.4034 122.701 38.681 122.832 39.0228 123.003C39.7063 123.359 40.6426 123.84 41.643 124.445C42.6433 125.05 43.5084 125.655 44.135 126.115C44.4411 126.346 44.6868 126.535 44.847 126.674C45.0072 126.812 45.0819 126.891 45.0712 126.898Z" fill="#FB8500"/>
<path d="M35.5625 140.187C35.5091 140.187 35.3881 137.361 35.292 133.868C35.1958 130.376 35.1567 127.542 35.2065 127.542C35.2563 127.542 35.3774 130.369 35.4771 133.861C35.5768 137.354 35.6123 140.187 35.5625 140.187Z" fill="#FB8500"/>
<path d="M27.9548 141.957C27.8609 140.781 27.8301 139.601 27.8622 138.422C27.83 137.242 27.8609 136.062 27.9548 134.886C28.0465 136.062 28.0774 137.242 28.0473 138.422C28.0773 139.601 28.0464 140.781 27.9548 141.957Z" fill="#FB8500"/>
<path d="M31.6928 141.54C31.643 141.54 31.6145 139.226 31.6358 136.375C31.6572 133.523 31.7106 131.205 31.764 131.205C31.8174 131.205 31.8388 133.519 31.821 136.375C31.8032 139.23 31.7426 141.54 31.6928 141.54Z" fill="#FB8500"/>
<path d="M23.8038 129.005C23.7753 129.048 21.7604 127.749 19.3075 126.1C16.8547 124.452 14.8825 123.081 14.9109 123.028C14.9394 122.975 16.9544 124.285 19.4108 125.933C21.8672 127.581 23.8323 128.963 23.8038 129.005Z" fill="#FB8500"/>
<path d="M21.1159 131.216C21.0091 131.2 20.9056 131.166 20.8097 131.116C20.621 131.042 20.3469 130.921 20.0158 130.76C19.1603 130.342 18.3284 129.878 17.5238 129.368C16.5769 128.77 15.7438 128.176 15.1671 127.734C14.8399 127.511 14.5337 127.258 14.2522 126.98C14.5977 127.173 14.9296 127.389 15.2454 127.628C15.8471 128.044 16.6694 128.617 17.6235 129.212C18.5776 129.806 19.4462 130.298 20.0906 130.636C20.4434 130.809 20.7858 131.003 21.1159 131.216Z" fill="#FB8500"/>
<path d="M30.3791 119.682C30.2049 119.766 30.0238 119.835 29.838 119.888C29.6234 119.967 29.4047 120.035 29.1829 120.091C28.9266 120.162 28.6347 120.244 28.3072 120.312C27.539 120.478 26.7615 120.596 25.9789 120.668C25.0202 120.753 24.0574 120.783 23.0953 120.757C22.1334 120.722 21.1742 120.633 20.2224 120.49C19.4459 120.37 18.6769 120.206 17.9191 119.999C17.5951 119.917 17.3068 119.824 17.054 119.742C16.8012 119.66 16.5805 119.586 16.4096 119.514C16.2242 119.454 16.0443 119.378 15.8721 119.287C16.0624 119.325 16.2494 119.378 16.431 119.447C16.609 119.507 16.8262 119.575 17.0825 119.643C17.3388 119.71 17.6272 119.799 17.9511 119.874C18.599 120.041 19.3751 120.184 20.2473 120.322C21.1918 120.454 22.1424 120.537 23.0953 120.572C24.0453 120.596 24.9959 120.571 25.9433 120.497C26.7234 120.434 27.4994 120.328 28.268 120.18C28.5991 120.123 28.891 120.048 29.1473 119.988C29.4036 119.927 29.6279 119.87 29.8059 119.817C29.992 119.753 30.184 119.708 30.3791 119.682Z" fill="#FB8500"/>
<path d="M32.0843 115.687C31.9167 115.782 31.7417 115.863 31.561 115.929C31.3901 116.008 31.1765 116.086 30.9273 116.175C30.6781 116.264 30.3933 116.367 30.0765 116.46C29.3291 116.689 28.5697 116.877 27.8017 117.022C26.8598 117.195 25.9089 117.313 24.9537 117.378C23.9981 117.435 23.0399 117.435 22.0843 117.378C21.3046 117.328 20.5292 117.226 19.7632 117.072C19.4321 117.015 19.1402 116.937 18.8839 116.869C18.6646 116.815 18.4483 116.75 18.2359 116.673C18.0503 116.619 17.8694 116.55 17.6948 116.467C17.8864 116.495 18.0747 116.541 18.2573 116.606C18.4317 116.659 18.6525 116.713 18.9088 116.766C19.1651 116.819 19.457 116.894 19.7845 116.944C20.549 117.076 21.3204 117.164 22.095 117.207C23.0441 117.25 23.9948 117.242 24.943 117.183C25.8906 117.111 26.834 116.992 27.7696 116.827C28.6276 116.659 29.4001 116.492 30.0338 116.307C30.3542 116.221 30.639 116.129 30.8917 116.047C31.1445 115.965 31.3581 115.901 31.5325 115.833C31.7115 115.768 31.8963 115.719 32.0843 115.687Z" fill="#FB8500"/>
<path d="M33.1381 112.17C32.9895 112.253 32.8318 112.319 32.6682 112.366C32.362 112.483 31.9099 112.636 31.351 112.807C29.8875 113.258 28.3914 113.595 26.876 113.815C25.3594 114.036 23.8262 114.123 22.2943 114.075C21.7069 114.05 21.2263 114.014 20.9059 113.975C20.7353 113.965 20.566 113.939 20.4004 113.897C20.5709 113.881 20.7425 113.881 20.913 113.897C21.237 113.914 21.7105 113.929 22.2979 113.936C23.8187 113.949 25.3383 113.848 26.844 113.633C28.3516 113.41 29.8438 113.092 31.3118 112.683C31.8743 112.526 32.33 112.394 32.6432 112.298C32.8043 112.242 32.9698 112.199 33.1381 112.17Z" fill="#FB8500"/>
<path d="M39.3752 127.353C38.7639 128.158 38.1041 128.925 37.3994 129.65C36.74 130.416 36.035 131.143 35.2883 131.825C35.9001 131.019 36.5599 130.251 37.2641 129.525C37.9229 128.759 38.628 128.034 39.3752 127.353Z" fill="#FB8500"/>
<path d="M42.3371 129.105C42.2987 129.212 42.2447 129.313 42.1769 129.404C42.063 129.593 41.885 129.853 41.6536 130.169C40.4387 131.815 38.8863 133.181 37.1004 134.178C36.7444 134.367 36.4774 134.509 36.278 134.598C36.1786 134.653 36.0719 134.694 35.9612 134.719C35.9612 134.694 36.3741 134.47 37.0292 134.064C37.8884 133.539 38.7028 132.943 39.4642 132.284C40.217 131.613 40.9125 130.881 41.5433 130.095C42.0381 129.482 42.3122 129.08 42.3371 129.105Z" fill="#FB8500"/>
<path d="M43.2379 130.686C43.172 131.386 42.9603 132.064 42.6163 132.677C42.2724 133.29 41.8038 133.825 41.2407 134.246C41.688 133.723 42.095 133.167 42.4582 132.583C42.7644 131.971 43.025 131.336 43.2379 130.686Z" fill="#FB8500"/>
<path d="M46.2246 133.957C46.1168 134.531 45.8547 135.064 45.4663 135.499C45.125 135.972 44.6592 136.342 44.1206 136.567C44.5464 136.197 44.9483 135.801 45.3239 135.381C45.6514 134.924 45.9521 134.449 46.2246 133.957Z" fill="#FB8500"/>
<path d="M51.052 136.912C51.0688 137.527 50.9081 138.134 50.5892 138.66C50.3221 139.214 49.8974 139.678 49.3682 139.991C49.7662 139.55 50.1237 139.073 50.4362 138.567C50.6896 138.035 50.8957 137.481 51.052 136.912Z" fill="#FB8500"/>
<path d="M56.5807 139.568C56.7126 140.146 56.6513 140.751 56.4062 141.291C56.2175 141.851 55.8529 142.336 55.3667 142.672C56.1092 141.804 56.5369 140.71 56.5807 139.568Z" fill="#FB8500"/>
<path d="M61.6857 144.121C61.6323 144.103 61.846 143.409 61.8958 142.54C61.9456 141.672 61.821 140.956 61.8744 140.945C62.215 141.99 62.1476 143.124 61.6857 144.121Z" fill="#FB8500"/>
<path d="M65.8687 144.427C65.8188 144.406 66.0752 143.786 66.1428 142.978C66.2104 142.17 66.0716 141.519 66.1428 141.508C66.3189 141.983 66.387 142.492 66.342 142.997C66.2971 143.502 66.1403 143.99 65.8829 144.427H65.8687Z" fill="#FB8500"/>
<path d="M71.7212 144.388C71.6678 144.388 71.7533 143.779 71.6571 143.05C71.561 142.32 71.3332 141.761 71.383 141.739C71.6533 142.118 71.8124 142.564 71.8423 143.028C71.9314 143.484 71.8895 143.955 71.7212 144.388Z" fill="#FB8500"/>
<path d="M75.7656 144.032C75.7087 144.032 75.7087 143.459 75.5164 142.793C75.3242 142.127 75.0358 141.633 75.0821 141.604C75.3671 141.934 75.576 142.322 75.6941 142.742C75.8123 143.162 75.8367 143.602 75.7656 144.032Z" fill="#FB8500"/>
<path d="M80.5109 142.989C80.4539 142.989 80.4824 142.43 80.2724 141.793C80.0623 141.156 79.7241 140.725 79.7704 140.682C80.0859 140.967 80.3205 141.331 80.4505 141.736C80.5806 142.141 80.6014 142.573 80.5109 142.989Z" fill="#FB8500"/>
<path d="M86.3529 141.8C86.296 141.8 86.2889 141.177 86.029 140.469C85.7691 139.76 85.3775 139.276 85.4202 139.24C85.7721 139.559 86.0409 139.959 86.2035 140.405C86.366 140.851 86.4173 141.33 86.3529 141.8Z" fill="#FB8500"/>
<path d="M91.2801 139.878C91.2267 139.878 91.0309 139.247 90.6108 138.543C90.1907 137.838 89.7244 137.354 89.7635 137.314C90.5784 137.943 91.1211 138.861 91.2801 139.878Z" fill="#FB8500"/>
<path d="M96.7871 136.99C96.7337 136.99 96.5664 136.321 96.1178 135.602C95.6693 134.883 95.1424 134.427 95.178 134.384C95.6222 134.673 95.9969 135.056 96.2752 135.507C96.5534 135.957 96.7282 136.464 96.7871 136.99Z" fill="#FB8500"/>
<path d="M102.166 133.135C101.932 132.72 101.669 132.321 101.38 131.942C101.047 131.601 100.69 131.285 100.312 130.995C100.795 131.131 101.222 131.421 101.525 131.821C101.874 132.179 102.099 132.639 102.166 133.135Z" fill="#FB8500"/>
<path d="M106.773 129.201C106.727 129.233 106.3 128.66 105.652 128.076C105.004 127.492 104.399 127.111 104.427 127.062C104.936 127.251 105.397 127.55 105.776 127.937C106.197 128.281 106.537 128.712 106.773 129.201Z" fill="#FB8500"/>
<path d="M110.899 124.071C110.853 124.1 110.497 123.523 109.87 123.003C109.244 122.483 108.621 122.22 108.642 122.167C109.138 122.294 109.598 122.532 109.989 122.862C110.38 123.192 110.691 123.607 110.899 124.075V124.071Z" fill="#FB8500"/>
<path d="M114.576 117.966C114.161 117.633 113.727 117.324 113.277 117.04C112.797 116.812 112.305 116.612 111.803 116.439C112.355 116.435 112.897 116.588 113.366 116.88C113.865 117.118 114.286 117.495 114.576 117.966Z" fill="#FB8500"/>
<path d="M116.812 111.369C115.851 110.812 114.746 110.552 113.637 110.621C114.186 110.462 114.766 110.448 115.323 110.579C115.879 110.71 116.392 110.982 116.812 111.369Z" fill="#FB8500"/>
<path d="M117.806 104.285C117.788 104.338 117.207 104.135 116.463 104.057C115.719 103.979 115.111 104.057 115.104 103.986C116.009 103.73 116.978 103.837 117.806 104.285Z" fill="#FB8500"/>
<path d="M117.439 97.1896C117.104 97.2322 116.766 97.2465 116.428 97.2323C116.094 97.2755 115.757 97.2921 115.42 97.2822C116.058 97.001 116.778 96.968 117.439 97.1896Z" fill="#FB8500"/>
<path d="M115.986 92.316C115.635 92.2429 115.277 92.2106 114.918 92.2198C114.571 92.2876 114.231 92.3938 113.907 92.5367C113.907 92.5189 113.971 92.4156 114.142 92.3017C114.369 92.1549 114.628 92.0635 114.897 92.0347C115.166 92.0045 115.438 92.0387 115.691 92.1344C115.897 92.2092 115.997 92.2946 115.986 92.316Z" fill="#FB8500"/>
<g opacity="0.3">
<path d="M91.8427 116.264C93.5693 119.543 97.5957 121.227 101.277 120.778C104.958 120.33 108.237 118.041 110.533 115.121C112.224 112.964 113.477 110.169 112.779 107.521C110.953 111.317 107.758 114.282 103.837 115.82C99.9151 117.359 95.5566 117.357 91.6362 115.816" fill="black"/>
</g>
<path d="M113.387 88.0511C112.56 86.7763 112.257 85.2314 112.541 83.7385C112.825 82.2456 113.674 80.9198 114.911 80.0375C115.894 79.3255 117.079 78.9446 118.008 78.1756C118.576 77.6773 119.039 77.0704 119.369 76.3905C119.7 75.7106 119.89 74.9716 119.931 74.2169C119.999 72.7028 119.664 71.1977 118.959 69.8559L119.948 69.3682L120.034 69.475C120.691 70.3379 121.149 71.3357 121.374 72.3967C121.599 73.4576 121.586 74.5553 121.336 75.6108C121.086 76.6662 120.606 77.6531 119.929 78.5004C119.252 79.3477 118.395 80.0344 117.421 80.511C116.68 80.8511 115.983 81.2803 115.345 81.789C114.11 82.857 114.616 84.071 114.616 84.071" fill="#FB8500"/>
<g opacity="0.7">
<path d="M113.387 88.0511C112.56 86.7763 112.257 85.2314 112.541 83.7385C112.825 82.2456 113.674 80.9198 114.911 80.0375C115.894 79.3255 117.079 78.9446 118.008 78.1756C118.576 77.6773 119.039 77.0704 119.369 76.3905C119.7 75.7106 119.89 74.9716 119.931 74.2169C119.999 72.7028 119.664 71.1977 118.959 69.8559L119.948 69.3682L120.034 69.475C120.691 70.3379 121.149 71.3357 121.374 72.3967C121.599 73.4576 121.586 74.5553 121.336 75.6108C121.086 76.6662 120.606 77.6531 119.929 78.5004C119.252 79.3477 118.395 80.0344 117.421 80.511C116.68 80.8511 115.983 81.2803 115.345 81.789C114.11 82.857 114.616 84.071 114.616 84.071" fill="white"/>
</g>
<path d="M114.776 84.1351C114.373 84.0552 113.962 84.0194 113.551 84.0283C113.144 84.0939 112.745 84.205 112.362 84.3594C112.686 84.0651 113.096 83.8841 113.532 83.8437C113.967 83.8032 114.404 83.9055 114.776 84.1351Z" fill="#FB8500"/>
<path d="M115.709 81.4188C115.659 81.4366 115.502 81.1269 115.21 80.835C114.918 80.5431 114.612 80.3793 114.63 80.3294C114.648 80.2796 115.018 80.3757 115.342 80.7032C115.666 81.0308 115.755 81.4046 115.709 81.4188Z" fill="#FB8500"/>
<path d="M119.201 79.354C119.151 79.3718 119.023 79.0265 118.742 78.6883C118.461 78.3501 118.158 78.1507 118.183 78.1044C118.208 78.0582 118.582 78.197 118.895 78.5744C119.208 78.9517 119.251 79.3469 119.201 79.354Z" fill="#FB8500"/>
<path d="M121.54 74.9254C121.268 74.9064 120.998 74.8647 120.732 74.8008C120.459 74.7946 120.188 74.7648 119.92 74.7118C120.187 74.6115 120.475 74.5785 120.757 74.6158C121.04 74.6531 121.309 74.7594 121.54 74.9254Z" fill="#FB8500"/>
<path d="M120.746 70.6462C120.746 70.6996 120.443 70.6818 120.112 70.7815C119.781 70.8812 119.536 71.0414 119.5 71.0022C119.464 70.9631 119.678 70.7103 120.059 70.6035C120.44 70.4967 120.76 70.6 120.746 70.6462Z" fill="#FB8500"/>
<path d="M87.7949 97.0009C89.0552 96.1821 90.7248 96.4527 92.1559 96.9262C93.587 97.3996 95.0217 98.0547 96.5205 97.9123C98.1545 97.7592 99.5536 96.6698 100.632 95.4381C101.965 93.9151 102.957 92.1248 103.541 90.1871C104.132 88.2148 104.434 85.8973 106.132 84.7296C107.831 83.5619 110.187 84.1493 111.647 85.5306C113.107 86.9119 113.811 88.9055 114.274 90.8706C115.342 95.3989 115.36 100.23 113.893 104.648C112.427 109.066 109.411 113.024 105.317 115.239C101.223 117.453 96.0612 117.77 91.896 115.698" fill="#FB8500"/>
<path d="M91.896 115.687C91.9615 115.71 92.0257 115.736 92.0883 115.766L92.6436 116.008C92.8928 116.104 93.2026 116.218 93.5692 116.364C93.9359 116.51 94.3702 116.609 94.8651 116.72C96.0644 116.979 97.2914 117.088 98.5176 117.044C99.2826 117.013 100.044 116.925 100.796 116.78C101.639 116.626 102.467 116.398 103.27 116.097C105.12 115.406 106.825 114.376 108.297 113.06C109.992 111.56 111.401 109.767 112.459 107.766C113.625 105.556 114.39 103.156 114.716 100.678C115.067 98.0176 115.009 95.3189 114.545 92.6755C114.331 91.3344 113.996 90.0154 113.544 88.7346C113.12 87.4884 112.394 86.3667 111.43 85.4701C110.478 84.6297 109.242 84.184 107.973 84.2241C107.366 84.2503 106.775 84.4343 106.261 84.7581C105.764 85.0861 105.349 85.5247 105.05 86.0397C104.438 87.0507 104.174 88.2042 103.875 89.2935C103.613 90.368 103.236 91.4111 102.75 92.405C102.294 93.3322 101.736 94.2061 101.088 95.0109C100.502 95.7659 99.8116 96.4335 99.0374 96.9938C98.3309 97.51 97.508 97.8439 96.6415 97.9657C95.8674 98.0363 95.087 97.9528 94.3453 97.72C92.9605 97.3106 91.8284 96.7838 90.828 96.6236C90.0706 96.4554 89.2835 96.475 88.5354 96.6805C88.3436 96.7406 88.1577 96.8181 87.98 96.9119C87.859 96.9796 87.7949 97.008 87.7949 97.008L87.9694 96.8977C88.1442 96.7949 88.3291 96.7102 88.5212 96.6449C89.275 96.4205 90.073 96.3886 90.8423 96.5524C91.8533 96.7054 92.9996 97.2252 94.3738 97.6204C95.1026 97.8441 95.8684 97.9216 96.6273 97.8482C97.473 97.7249 98.2752 97.3948 98.9626 96.887C99.7244 96.3313 100.403 95.6695 100.978 94.9219C101.614 94.1218 102.162 93.2552 102.612 92.3373C103.091 91.3513 103.462 90.3165 103.719 89.2508C104.014 88.165 104.274 86.9973 104.904 85.9507C105.215 85.4119 105.648 84.9535 106.168 84.6121C106.702 84.2708 107.315 84.0757 107.948 84.0461C108.594 84.016 109.239 84.1165 109.846 84.3416C110.465 84.5643 111.039 84.8999 111.537 85.3312C112.522 86.2475 113.266 87.3935 113.701 88.667C114.158 89.9602 114.497 91.2924 114.712 92.647C115.182 95.3078 115.239 98.0253 114.879 100.703C114.549 103.202 113.775 105.622 112.594 107.848C111.525 109.869 110.098 111.678 108.382 113.188C106.892 114.504 105.169 115.531 103.302 116.214C102.493 116.512 101.659 116.739 100.81 116.891C100.052 117.031 99.2846 117.114 98.5141 117.14C97.2793 117.177 96.0449 117.057 94.8402 116.784C94.3453 116.677 93.9181 116.535 93.5443 116.428C93.1705 116.321 92.8679 116.175 92.6223 116.072L92.074 115.812C91.9566 115.723 91.896 115.687 91.896 115.687Z" fill="#263238"/>
<path d="M107.218 88.9055C107.036 88.7548 106.89 88.565 106.791 88.3501C106.522 87.8418 106.387 87.2732 106.399 86.6983C106.406 86.1244 106.557 85.5614 106.837 85.0607C106.94 84.8464 107.093 84.6597 107.282 84.516C107.307 84.5374 107.136 84.7438 106.955 85.1212C106.719 85.6153 106.592 86.1546 106.584 86.7021C106.576 87.2496 106.687 87.7924 106.908 88.2932C107.083 88.6741 107.246 88.8877 107.218 88.9055Z" fill="#263238"/>
<path d="M109.379 88.5922C109.216 88.4243 109.088 88.2259 109.002 88.0084C108.763 87.4931 108.623 86.9376 108.589 86.3708C108.553 85.8045 108.626 85.2367 108.803 84.6976C108.86 84.4704 108.963 84.2573 109.105 84.071C108.839 84.8033 108.726 85.5824 108.773 86.36C108.821 87.1377 109.027 87.8974 109.379 88.5922Z" fill="#263238"/>
<path d="M111.109 89.2081C110.884 88.6681 110.791 88.0823 110.839 87.4993C110.823 86.9144 110.945 86.3339 111.195 85.8047C111.248 85.8225 111.045 86.563 111.024 87.5028C111.002 88.4427 111.163 89.2081 111.109 89.2081Z" fill="#263238"/>
<path d="M140.832 93.6581C137.574 95.6446 133.242 95.2672 129.867 93.4836C126.492 91.7001 123.936 88.7132 121.803 85.5804C121.198 84.6904 120.586 83.747 119.646 83.2095C117.798 82.1415 115.246 83.1739 114.185 84.9895C113.124 86.8051 113.323 89.1333 114.142 91.0771C114.142 91.0771 116.314 101.6 127.635 108.144" fill="#FB8500"/>
<path d="M127.635 108.154C127.6 108.143 127.568 108.126 127.538 108.105L127.261 107.941C127.012 107.788 126.659 107.567 126.193 107.289C125.968 107.14 125.698 106.997 125.431 106.798L124.559 106.161C124.249 105.922 123.893 105.698 123.558 105.403L122.49 104.488C120.728 102.909 119.162 101.126 117.823 99.1761C117.015 98.0023 116.301 96.7667 115.687 95.4808C114.997 94.0819 114.453 92.6158 114.064 91.1056V91.1234C113.522 89.8843 113.296 88.5303 113.405 87.1824C113.474 86.4786 113.675 85.7939 113.996 85.1639C114.415 84.3693 115.057 83.7145 115.843 83.2806C116.63 82.8466 117.526 82.6523 118.421 82.7218C118.943 82.7837 119.443 82.9639 119.884 83.2486C120.307 83.5366 120.681 83.8885 120.995 84.2917C121.312 84.6833 121.59 85.0963 121.86 85.4986C122.131 85.9008 122.412 86.296 122.69 86.6805C123.252 87.453 123.829 88.1899 124.423 88.877C125.539 90.191 126.81 91.3649 128.208 92.3729C129.429 93.2502 130.784 93.9246 132.22 94.3701C134.293 95.045 136.516 95.1142 138.628 94.5694C138.804 94.5261 138.978 94.4726 139.148 94.4092C139.308 94.3523 139.461 94.306 139.596 94.249C139.867 94.128 140.102 94.0354 140.28 93.9429L140.689 93.7257C140.735 93.6992 140.782 93.6766 140.831 93.6581C140.79 93.6901 140.746 93.7187 140.7 93.7435L140.297 93.9749C140.119 94.0746 139.888 94.1707 139.617 94.2989C139.479 94.3594 139.329 94.4092 139.169 94.4698C138.998 94.5373 138.823 94.5944 138.646 94.6406C136.518 95.2196 134.269 95.1689 132.17 94.4947C130.719 94.0537 129.349 93.3791 128.115 92.4975C126.703 91.4872 125.419 90.3085 124.292 88.9874C123.69 88.2967 123.11 87.5634 122.544 86.7873C122.262 86.3992 121.985 86.0005 121.711 85.5982C121.437 85.196 121.162 84.7866 120.853 84.4056C120.549 84.019 120.189 83.6805 119.785 83.4017C119.367 83.1328 118.893 82.9635 118.4 82.9069C117.376 82.8136 116.354 83.0957 115.523 83.7008C114.966 84.1081 114.503 84.6323 114.169 85.2367C113.834 85.8411 113.636 86.5112 113.587 87.2002C113.481 88.5173 113.701 89.8402 114.228 91.0522V91.07C114.612 92.5698 115.148 94.0263 115.83 95.4167C116.445 96.6974 117.159 97.9282 117.966 99.0978C119.292 101.043 120.846 102.824 122.594 104.402L123.662 105.324C123.993 105.623 124.345 105.848 124.648 106.09L125.513 106.738C125.776 106.94 126.043 107.094 126.267 107.236L127.311 107.912L127.578 108.09C127.598 108.11 127.617 108.131 127.635 108.154Z" fill="#263238"/>
<path d="M117.204 89.1689C116.934 88.3086 116.555 87.4866 116.076 86.7232C115.243 85.4772 114.182 84.8222 114.224 84.7723C114.473 84.8755 114.702 85.0186 114.904 85.196C115.933 86.0086 116.687 87.1187 117.062 88.375C117.155 88.6294 117.203 88.898 117.204 89.1689Z" fill="#263238"/>
<path d="M119.404 87.7414C119.264 86.838 119.005 85.957 118.635 85.1212C118.208 84.3132 117.678 83.5641 117.058 82.8926C117.292 83.0344 117.502 83.2122 117.681 83.4195C118.136 83.8995 118.515 84.4471 118.803 85.0429C119.089 85.6379 119.283 86.2728 119.379 86.9261C119.434 87.1944 119.443 87.4702 119.404 87.7414Z" fill="#263238"/>
<g opacity="0.3">
<path d="M112.045 108.635C112.932 107.279 109.279 106.958 107.67 107.147C105.313 107.418 103.141 108.554 101.576 110.337C100.01 112.119 99.1624 114.419 99.1973 116.791C99.1973 116.791 106.232 117.542 112.045 108.635Z" fill="white"/>
</g>
<g opacity="0.3">
<path d="M118.044 102.579C119.895 105.41 122.639 107.541 125.841 108.631C126.176 108.777 126.546 108.829 126.909 108.781C127.087 108.755 127.252 108.666 127.373 108.532C127.493 108.397 127.564 108.225 127.571 108.044C123.765 105.974 120.503 103.033 118.051 99.4609C117.864 100.557 118.021 101.683 118.5 102.686" fill="black"/>
</g>
<path d="M113.146 78.5561C116.281 75.4211 116.281 70.3382 113.146 67.2031C110.011 64.0681 104.928 64.068 101.793 67.2031C98.6582 70.3382 98.6582 75.4211 101.793 78.5561C104.928 81.6912 110.011 81.6912 113.146 78.5561Z" fill="#F5F5F5"/>
<path d="M115.488 73.2166C115.488 77.0934 113.452 80.3366 111.184 80.3366C108.916 80.3366 107.076 77.1931 107.076 73.3198C107.076 69.4465 108.916 66.303 111.184 66.303C113.452 66.303 115.488 69.3433 115.488 73.2166Z" fill="#263238"/>
<path d="M109.187 76.5452C109.12 76.4658 109.064 76.377 109.023 76.2817C108.894 76.0301 108.783 75.7695 108.692 75.5021C108.072 73.7153 108.124 71.7639 108.838 70.0126C108.943 69.7501 109.069 69.4966 109.215 69.2543C109.26 69.1607 109.319 69.0743 109.39 68.998C109.418 68.998 109.204 69.3967 108.962 70.066C108.65 70.9303 108.477 71.8387 108.45 72.7573C108.426 73.6746 108.546 74.5899 108.806 75.47C109.023 76.1358 109.219 76.5309 109.187 76.5452Z" fill="white"/>
<path d="M112.209 70.1941C112.968 70.1941 113.583 69.5789 113.583 68.82C113.583 68.061 112.968 67.4458 112.209 67.4458C111.45 67.4458 110.835 68.061 110.835 68.82C110.835 69.5789 111.45 70.1941 112.209 70.1941Z" fill="white"/>
<path d="M112.669 62.9709C112.515 63.1809 112.127 63.1774 111.64 63.099C111.152 63.0207 110.54 62.8783 109.877 62.7715C109.215 62.6647 108.617 62.6006 108.137 62.533C107.656 62.4654 107.286 62.3692 107.19 62.1272C107.094 61.8851 107.325 61.5398 107.866 61.2514C108.184 61.0887 108.527 60.9793 108.881 60.9274C109.312 60.86 109.752 60.86 110.184 60.9274C110.962 61.0455 111.686 61.3954 112.263 61.9314C112.69 62.3728 112.814 62.768 112.669 62.9709Z" fill="#263238"/>
<path d="M109.03 82.9033C108.411 81.6301 108.274 80.1752 108.646 78.8089C109.019 77.4427 109.874 76.258 111.054 75.4749C112.234 74.6918 113.658 74.3637 115.061 74.5513C116.465 74.739 117.752 75.4298 118.685 76.4953" fill="#FB8500"/>
<path d="M118.692 76.4953C118.692 76.4953 118.521 76.3351 118.204 76.061C117.752 75.6768 117.243 75.3646 116.695 75.1354C115.886 74.7932 115.014 74.6258 114.135 74.6441C113.056 74.6341 111.997 74.9471 111.097 75.5427C110.196 76.1383 109.494 76.9895 109.08 77.987C108.723 78.7892 108.538 79.6577 108.539 80.5359C108.539 81.1287 108.629 81.7181 108.806 82.2839C108.934 82.6826 109.034 82.8962 109.016 82.9033C108.983 82.8582 108.955 82.8092 108.934 82.7574C108.859 82.6122 108.794 82.4623 108.738 82.3088C108.529 81.7384 108.418 81.1364 108.411 80.5288C108.387 79.6283 108.562 78.7337 108.923 77.9086C109.341 76.8785 110.06 75.9984 110.986 75.3836C111.912 74.7687 113.002 74.4477 114.114 74.4626C115.014 74.4521 115.906 74.6379 116.727 75.0072C117.28 75.2502 117.788 75.5848 118.229 75.9969C118.35 76.1075 118.463 76.2265 118.568 76.3529C118.615 76.395 118.657 76.4428 118.692 76.4953Z" fill="#263238"/>
<path d="M93.0885 52.5045C93.0316 52.5344 92.9703 52.5548 92.9069 52.565L92.3765 52.7074C92.1451 52.7644 91.8638 52.8462 91.5399 52.9459L91.0237 53.099L90.4469 53.2948C88.3544 54.0261 86.3468 54.9809 84.459 56.1428C82.5689 57.3087 80.7609 58.6028 79.0478 60.0161C78.3892 60.5572 77.8588 60.9986 77.4992 61.3119L77.0756 61.6679C76.9795 61.7498 76.9261 61.789 76.9189 61.7818C76.9576 61.7309 77.0018 61.6843 77.0507 61.643L77.4494 61.2621C77.8054 60.9346 78.3145 60.4789 78.9624 59.92C80.6593 58.4779 82.4649 57.1687 84.3629 56.004C86.2613 54.8256 88.2928 53.8768 90.4149 53.1773L90.9952 52.9886L91.5221 52.8498C91.8496 52.7572 92.1308 52.686 92.3658 52.6398L92.9069 52.533C92.9661 52.5162 93.027 52.5066 93.0885 52.5045Z" fill="#263238"/>
<path d="M18.0777 85.7476C18.014 85.6145 17.9651 85.4748 17.9318 85.3311C17.8891 85.1958 17.8428 85.0249 17.8001 84.8291C17.7573 84.6333 17.7004 84.4019 17.6648 84.1527C17.5672 83.5641 17.5124 82.9692 17.501 82.3727C17.4921 81.6401 17.5421 80.9079 17.6505 80.1833C17.7691 79.4588 17.9441 78.7446 18.1739 78.0473C18.3706 77.4812 18.6085 76.9303 18.8859 76.399C18.9962 76.1676 19.1208 75.9718 19.2205 75.7938C19.3202 75.6158 19.4163 75.4734 19.4982 75.3559C19.5741 75.228 19.6637 75.1087 19.7652 74.9999C19.7937 75.0177 19.4412 75.5411 19.0033 76.4524C18.7505 76.9863 18.5317 77.5356 18.3483 78.0971C18.1305 78.7881 17.9615 79.4935 17.8428 80.2082C17.738 80.9238 17.6845 81.6459 17.6826 82.3691C17.6858 82.9645 17.7274 83.5591 17.8072 84.1491C17.9353 85.1353 18.1133 85.7405 18.0777 85.7476Z" fill="#263238"/>
<path d="M21.5453 85.8545C21.4848 85.7205 21.4372 85.581 21.4029 85.438C21.3483 85.2725 21.3043 85.1036 21.2712 84.9325C21.2285 84.7367 21.168 84.5124 21.1359 84.2596C21.0371 83.6711 20.9812 83.0762 20.9686 82.4796C20.9406 81.0094 21.1695 79.5457 21.645 78.1542C21.8409 77.5867 22.0789 77.0345 22.357 76.5024C22.4638 76.271 22.5884 76.0752 22.6881 75.9007C22.7732 75.7502 22.8659 75.604 22.9657 75.4629C23.0427 75.3356 23.1321 75.2163 23.2327 75.1069C23.2648 75.1282 22.9088 75.648 22.4745 76.5629C22.2176 77.0954 21.9975 77.645 21.8159 78.2076C21.598 78.8971 21.4303 79.6015 21.3139 80.3151C21.2062 81.0316 21.1514 81.7551 21.1502 82.4796C21.1531 83.075 21.1947 83.6696 21.2748 84.2596C21.4029 85.2422 21.5809 85.8438 21.5453 85.8545Z" fill="#263238"/>
<path d="M148.186 49C148.252 49.1322 148.301 49.2722 148.332 49.4165C148.385 49.5813 148.429 49.7489 148.464 49.9185C148.506 50.1178 148.567 50.3421 148.599 50.5949C148.698 51.1834 148.754 51.7783 148.766 52.3749C148.793 53.845 148.565 55.3087 148.09 56.7003C147.895 57.267 147.657 57.818 147.378 58.3486C147.267 58.58 147.146 58.7758 147.043 58.9538C146.96 59.1054 146.867 59.2516 146.765 59.3916C146.691 59.5198 146.603 59.6392 146.502 59.7476C146.47 59.7298 146.826 59.2065 147.26 58.2952C147.513 57.7608 147.733 57.2115 147.919 56.6504C148.137 55.9598 148.305 55.2543 148.421 54.5394C148.528 53.8241 148.583 53.1018 148.585 52.3784C148.58 51.7831 148.538 51.1887 148.46 50.5984C148.332 49.6266 148.154 49.0214 148.186 49Z" fill="#263238"/>
<path d="M155.103 12.5978C155.25 12.6125 155.395 12.6454 155.534 12.6957C155.701 12.7385 155.867 12.7904 156.029 12.8512C156.22 12.921 156.442 12.9891 156.673 13.0964C157.224 13.3256 157.758 13.5946 158.27 13.9014C159.529 14.6603 160.647 15.6326 161.573 16.7748C161.949 17.2415 162.289 17.7362 162.59 18.2544C162.727 18.471 162.829 18.6776 162.924 18.8597C163.009 19.0109 163.083 19.1673 163.148 19.3278C163.217 19.4588 163.271 19.5971 163.309 19.7402C163.277 19.7579 163.023 19.1781 162.482 18.3255C162.164 17.8274 161.816 17.349 161.44 16.893C160.971 16.3409 160.463 15.8236 159.919 15.3451C159.371 14.8735 158.788 14.443 158.176 14.0571C157.669 13.7447 157.144 13.4638 156.603 13.2158C155.711 12.8074 155.104 12.6363 155.103 12.5978Z" fill="#263238"/>
<path d="M150.503 49.6265C150.568 49.7591 150.617 49.8989 150.649 50.043C150.702 50.2078 150.746 50.3753 150.781 50.5449C150.824 50.7443 150.881 50.9686 150.916 51.2213C151.015 51.8098 151.071 52.4047 151.084 53.0013C151.091 53.7339 151.041 54.466 150.934 55.1907C150.816 55.9157 150.64 56.63 150.407 57.3267C150.211 57.8943 149.973 58.4465 149.695 58.9786C149.585 59.2064 149.464 59.4022 149.361 59.5802C149.275 59.7372 149.182 59.8893 149.079 60.0359C149.005 60.1641 148.917 60.2835 148.816 60.3919C148.784 60.3741 149.14 59.8508 149.574 58.9394C149.828 58.4056 150.048 57.8562 150.233 57.2947C150.451 56.6041 150.619 55.8985 150.735 55.1836C150.843 54.4683 150.897 53.7461 150.899 53.0227C150.894 52.4274 150.852 51.8329 150.774 51.2427C150.646 50.2388 150.468 49.6336 150.503 49.6265Z" fill="#263238"/>
<path d="M156.867 10.9685C157.014 10.9841 157.158 11.017 157.297 11.0665C157.465 11.1092 157.63 11.1611 157.792 11.2219C157.984 11.2918 158.204 11.3628 158.437 11.4671C158.988 11.6963 159.522 11.9654 160.033 12.2722C160.658 12.6557 161.251 13.0874 161.808 13.5633C162.359 14.0488 162.87 14.578 163.336 15.1456C163.713 15.6133 164.054 16.1085 164.357 16.6271C164.491 16.8417 164.592 17.0484 164.688 17.2305C164.776 17.3862 164.855 17.5466 164.924 17.711C164.993 17.842 165.048 17.9803 165.086 18.1234C165.054 18.1411 164.8 17.5613 164.259 16.7088C163.942 16.2098 163.594 15.7314 163.217 15.2763C162.748 14.7241 162.24 14.2068 161.696 13.7283C161.147 13.2566 160.565 12.8261 159.953 12.4403C159.446 12.1277 158.921 11.8467 158.379 11.5991C157.461 11.1736 156.854 11.0025 156.867 10.9685Z" fill="#263238"/>
<path d="M63.7006 53.3266C65.9549 50.3155 66.9985 46.5688 66.6255 42.8259C66.2526 39.083 64.4901 35.6159 61.686 33.1089C58.8819 30.6019 55.2398 29.2371 51.4787 29.2839C47.7176 29.3307 44.1106 30.7857 41.3698 33.3617C38.6289 35.9377 36.9532 39.4476 36.6735 43.1986C36.3938 46.9496 37.5303 50.6691 39.8588 53.6232C42.1872 56.5773 45.5385 58.5511 49.2511 59.1553C52.9636 59.7594 56.7678 58.9499 59.9128 56.8866L65.0819 59.1756L63.7006 53.3266Z" fill="#FAFAFA"/>
<path d="M51.6501 29.3393C51.5624 29.3315 51.4743 29.3315 51.3867 29.3393L50.6212 29.3642C50.4504 29.3642 50.2653 29.3642 50.0552 29.3891L49.3788 29.4817L48.5885 29.5956L47.7056 29.8163C46.1886 30.1985 44.7451 30.8288 43.4336 31.6818C41.4882 32.9189 39.8518 34.5848 38.6498 36.552C37.4477 38.5193 36.7119 40.7355 36.4987 43.031C36.4398 43.72 36.4255 44.4121 36.456 45.103C36.4809 45.459 36.456 45.815 36.5237 46.171C36.5913 46.527 36.6305 46.883 36.6874 47.239C36.9522 48.7052 37.4321 50.1243 38.1114 51.4504C38.8383 52.839 39.7642 54.1139 40.8597 55.2347C42.0258 56.3826 43.3624 57.3433 44.822 58.0827C46.332 58.8583 47.9677 59.3597 49.6529 59.5637C50.0794 59.6308 50.51 59.6676 50.9417 59.674C51.3751 59.7073 51.8102 59.7156 52.2446 59.699C53.1222 59.6626 53.9952 59.5518 54.8541 59.3679C56.708 58.9664 58.4699 58.2201 60.0481 57.1678L59.8915 57.1856L65.1817 59.3216L65.4949 59.4498L65.4059 59.1222L63.868 53.4476L63.8431 53.5864C65.2774 51.684 66.2434 49.4704 66.6626 47.125C66.8664 46.034 66.9357 44.9221 66.8691 43.8142C66.8585 43.2783 66.8073 42.744 66.716 42.2158C66.6768 41.9559 66.6341 41.6996 66.595 41.4433C66.5558 41.187 66.4704 40.9413 66.4098 40.6921C65.5265 37.216 63.4356 34.1673 60.5109 32.0912C59.4301 31.315 58.2478 30.691 56.9972 30.2364L56.2069 29.9552L55.4557 29.7629L54.7687 29.592C54.5479 29.5493 54.3343 29.528 54.135 29.4959C53.7363 29.4461 53.3838 29.3784 53.067 29.3606L52.2873 29.3357H51.8139C51.7607 29.3279 51.7068 29.3279 51.6537 29.3357C51.7063 29.3475 51.7599 29.3546 51.8139 29.3571L52.2873 29.3927L53.0563 29.4461C53.3625 29.471 53.7113 29.5458 54.1065 29.6063C56.9765 30.1017 59.6409 31.4197 61.7763 33.4002C63.9117 35.3808 65.4261 37.9386 66.1357 40.7633C66.1927 41.009 66.2674 41.251 66.3137 41.5002C66.36 41.7494 66.3885 42.0058 66.4277 42.2585C66.5137 42.7752 66.5601 43.2976 66.5665 43.8214C66.6272 44.9083 66.5555 45.9985 66.3529 47.0681C65.9338 49.3638 64.9801 51.5285 63.569 53.3871L63.5227 53.4512L63.544 53.5295C64.0424 55.3558 64.5551 57.2461 65.0855 59.1863L65.3098 58.987L60.0232 56.851L59.9413 56.8189L59.863 56.8652C58.3182 57.8863 56.5966 58.6106 54.7865 59.0012C53.9475 59.1812 53.0948 59.2896 52.2375 59.3252C51.8125 59.34 51.3871 59.3317 50.963 59.3002C50.5422 59.2933 50.1223 59.2576 49.7063 59.1934C48.0589 58.9955 46.4595 58.5073 44.9822 57.7516C43.5483 57.0341 42.2335 56.0999 41.084 54.982C40.01 53.8855 39.0999 52.6397 38.382 51.2831C37.7087 49.9871 37.2289 48.5994 36.958 47.1642C36.9046 46.8082 36.8512 46.4522 36.7978 46.1211C36.7444 45.79 36.7515 45.4091 36.7266 45.0816C36.5977 42.4722 37.1571 39.8749 38.3486 37.5499C39.5402 35.2249 41.322 33.254 43.5155 31.8348C44.8066 30.9794 46.2276 30.3386 47.7234 29.9374L48.5956 29.706L49.3788 29.5778L50.0481 29.4674C50.2546 29.4425 50.4432 29.439 50.6106 29.4247L51.376 29.3678C51.4679 29.3641 51.5594 29.3546 51.6501 29.3393Z" fill="#263238"/>
<path d="M52.2685 44.863C52.2485 44.8429 52.2372 44.8157 52.2372 44.7874C52.2372 44.759 52.2485 44.7318 52.2685 44.7118L56.2232 40.7576C56.4733 40.5072 56.473 40.1015 56.2226 39.8514C55.9722 39.6013 55.5665 39.6016 55.3164 39.852L51.3622 43.8046C51.3421 43.8247 51.315 43.8359 51.2866 43.8359C51.2582 43.8359 51.2311 43.8247 51.211 43.8046L47.2568 39.852C47.0067 39.6019 46.6012 39.6018 46.351 39.8518C46.1009 40.1019 46.1008 40.5074 46.3508 40.7576L50.3047 44.7118C50.3247 44.7318 50.336 44.759 50.336 44.7874C50.336 44.8157 50.3247 44.8429 50.3047 44.863L46.3508 48.8176C46.1891 48.9795 46.1259 49.2153 46.1852 49.4363C46.2445 49.6573 46.4172 49.8299 46.6382 49.8891C46.8592 49.9482 47.095 49.885 47.2568 49.7232L51.211 45.7685C51.2311 45.7484 51.2582 45.7371 51.2866 45.7371C51.315 45.7371 51.3421 45.7484 51.3622 45.7685L55.3164 49.7232C55.5665 49.9733 55.972 49.9734 56.2222 49.7234C56.4723 49.4733 56.4724 49.0678 56.2224 48.8176L52.2685 44.863Z" fill="#FB8500"/>
<mask id="mask0_3544_45121" style="mask-type:alpha" maskUnits="userSpaceOnUse" x="46" y="39" width="11" height="11">
<path d="M52.2685 44.863C52.2485 44.8429 52.2372 44.8157 52.2372 44.7874C52.2372 44.759 52.2485 44.7318 52.2685 44.7118L56.2232 40.7576C56.4733 40.5072 56.473 40.1015 56.2226 39.8514C55.9722 39.6013 55.5665 39.6016 55.3164 39.852L51.3622 43.8046C51.3421 43.8247 51.315 43.8359 51.2866 43.8359C51.2582 43.8359 51.2311 43.8247 51.211 43.8046L47.2568 39.852C47.0067 39.6019 46.6012 39.6018 46.351 39.8518C46.1009 40.1019 46.1008 40.5074 46.3508 40.7576L50.3047 44.7118C50.3247 44.7318 50.336 44.759 50.336 44.7874C50.336 44.8157 50.3247 44.8429 50.3047 44.863L46.3508 48.8176C46.1891 48.9795 46.1259 49.2153 46.1852 49.4363C46.2445 49.6573 46.4172 49.8299 46.6382 49.8891C46.8592 49.9482 47.095 49.885 47.2568 49.7232L51.211 45.7685C51.2311 45.7484 51.2582 45.7371 51.2866 45.7371C51.315 45.7371 51.3421 45.7484 51.3622 45.7685L55.3164 49.7232C55.5665 49.9733 55.972 49.9734 56.2222 49.7234C56.4723 49.4733 56.4724 49.0678 56.2224 48.8176L52.2685 44.863Z" fill="white"/>
</mask>
<g mask="url(#mask0_3544_45121)">
</g>
</svg>
