<svg width="24" height="24" viewBox="0 0 24 24" fill="none" xmlns="http://www.w3.org/2000/svg">
<path d="M19.2493 5.03142C19.1578 4.95506 19.0315 4.93581 18.9214 4.98147L4.19219 11.0653C4.07176 11.1155 3.99385 11.2338 3.99526 11.3643C3.99667 11.4947 4.07711 11.6113 4.1986 11.6589L8.25361 13.2337C8.35323 13.2725 8.46567 13.2591 8.55332 13.1978L13.9327 9.37206C14.0693 9.27328 14.2591 9.29736 14.3667 9.42712C14.4744 9.55689 14.4629 9.74788 14.3406 9.86388L9.85781 14.1834C9.7952 14.2437 9.75983 14.327 9.75983 14.4139V18.7257C9.76025 18.87 9.8571 18.9962 9.99637 19.0339C10.1356 19.0716 10.2829 19.0115 10.356 18.8871L12.3842 15.4129C12.4282 15.338 12.5238 15.3116 12.6 15.3534L16.331 17.4027C16.4196 17.4515 16.526 17.4556 16.6181 17.4137C16.7102 17.3718 16.777 17.2889 16.7985 17.1901L19.3601 5.34266C19.3825 5.22649 19.3401 5.1073 19.2493 5.03142Z" fill="white"/>
<mask id="mask0_4334_7648" style="mask-type:alpha" maskUnits="userSpaceOnUse" x="3" y="4" width="17" height="16">
<path d="M19.2493 5.03142C19.1578 4.95506 19.0315 4.93581 18.9214 4.98147L4.19219 11.0653C4.07176 11.1155 3.99385 11.2338 3.99526 11.3643C3.99667 11.4947 4.07711 11.6113 4.1986 11.6589L8.25361 13.2337C8.35323 13.2725 8.46567 13.2591 8.55332 13.1978L13.9327 9.37206C14.0693 9.27328 14.2591 9.29736 14.3667 9.42712C14.4744 9.55689 14.4629 9.74788 14.3406 9.86388L9.85781 14.1834C9.7952 14.2437 9.75983 14.327 9.75983 14.4139V18.7257C9.76025 18.87 9.8571 18.9962 9.99637 19.0339C10.1356 19.0716 10.2829 19.0115 10.356 18.8871L12.3842 15.4129C12.4282 15.338 12.5238 15.3116 12.6 15.3534L16.331 17.4027C16.4196 17.4515 16.526 17.4556 16.6181 17.4137C16.7102 17.3718 16.777 17.2889 16.7985 17.1901L19.3601 5.34266C19.3825 5.22649 19.3401 5.1073 19.2493 5.03142Z" fill="white"/>
</mask>
<g mask="url(#mask0_4334_7648)">
</g>
</svg>
