<svg width="40" height="41" viewBox="0 0 40 41" fill="none" xmlns="http://www.w3.org/2000/svg">
<g clip-path="url(#clip0_4061_23880)">
<path fill-rule="evenodd" clip-rule="evenodd" d="M19.4437 20.9031C21.5161 20.9031 23.1961 19.2231 23.1961 17.1508C23.1961 15.0784 21.5161 13.3984 19.4437 13.3984C17.3714 13.3984 15.6914 15.0784 15.6914 17.1508C15.6914 19.2231 17.3714 20.9031 19.4437 20.9031Z" stroke="#2C97EB" stroke-width="1.5"/>
<path d="M23.9508 24.2391C21.3951 21.9177 17.4941 21.9177 14.9385 24.2391" stroke="#2C97EB" stroke-width="1.5"/>
<path d="M23.1966 17.2745C22.5189 17.4698 21.8171 17.5686 21.1119 17.568C19.2301 17.5708 17.4165 16.8637 16.0332 15.5879" stroke="#2C97EB" stroke-width="1.5"/>
<path fill-rule="evenodd" clip-rule="evenodd" d="M27.227 34.2449C29.2993 34.2449 30.9793 32.5649 30.9793 30.4926C30.9793 28.4202 29.2993 26.7402 27.227 26.7402C25.1546 26.7402 23.4746 28.4202 23.4746 30.4926C23.4746 32.5649 25.1546 34.2449 27.227 34.2449Z" stroke="#2C97EB" stroke-width="1.5"/>
<path d="M32.5075 38.4149C31.2378 36.7886 29.2896 35.8379 27.2264 35.8379C25.1631 35.8379 23.2149 36.7886 21.9453 38.4149" stroke="#2C97EB" stroke-width="1.5"/>
<path d="M30.9788 30.6163C28.4603 31.3415 25.7458 30.7024 23.8154 28.9297" stroke="#2C97EB" stroke-width="1.5"/>
<path fill-rule="evenodd" clip-rule="evenodd" d="M12.7738 34.2449C14.8462 34.2449 16.5262 32.5649 16.5262 30.4926C16.5262 28.4202 14.8462 26.7402 12.7738 26.7402C10.7015 26.7402 9.02148 28.4202 9.02148 30.4926C9.02148 32.5649 10.7015 34.2449 12.7738 34.2449Z" stroke="#2C97EB" stroke-width="1.5"/>
<path d="M18.0534 38.4149C16.7837 36.7886 14.8355 35.8379 12.7723 35.8379C10.709 35.8379 8.76085 36.7886 7.49121 38.4149" stroke="#2C97EB" stroke-width="1.5"/>
<path d="M16.5257 30.6163C14.0071 31.3415 11.2927 30.7024 9.3623 28.9297" stroke="#2C97EB" stroke-width="1.5"/>
</g>
<defs>
<clipPath id="clip0_4061_23880">
<rect width="40" height="40" fill="white" transform="translate(0 0.90625)"/>
</clipPath>
</defs>
</svg>
