<svg width="43" height="30" viewBox="0 0 43 30" fill="none" xmlns="http://www.w3.org/2000/svg">
<path d="M25.1445 8.95312C25.1445 8.67187 25.2464 8.3825 25.4502 8.085C25.6539 7.7875 25.8795 7.5925 26.127 7.5C27.0333 7.1875 27.9395 6.95312 28.8458 6.79688C29.752 6.64062 30.7058 6.5625 31.707 6.5625C32.332 6.5625 32.9495 6.60188 33.5595 6.68063C34.1695 6.75938 34.7708 6.86062 35.3633 6.98438C35.6445 7.04688 35.887 7.20312 36.0908 7.45312C36.2945 7.70312 36.3958 7.98438 36.3945 8.29688C36.3945 8.82812 36.2227 9.21875 35.8789 9.46875C35.5352 9.71875 35.0977 9.78125 34.5664 9.65625C34.1289 9.5625 33.6683 9.49187 33.1845 9.44437C32.7008 9.39687 32.2083 9.37375 31.707 9.375C30.8945 9.375 30.0977 9.45312 29.3164 9.60938C28.5352 9.76562 27.7852 9.96875 27.0664 10.2188C26.5039 10.4375 26.0433 10.4219 25.6845 10.1719C25.3258 9.92188 25.1458 9.51562 25.1445 8.95312ZM25.1445 19.2656C25.1445 18.9844 25.2464 18.695 25.4502 18.3975C25.6539 18.1 25.8802 17.905 26.1289 17.8125C27.0352 17.5 27.9414 17.2656 28.8477 17.1094C29.7539 16.9531 30.707 16.875 31.707 16.875C32.332 16.875 32.9495 16.9144 33.5595 16.9931C34.1695 17.0719 34.7708 17.1731 35.3633 17.2969C35.6445 17.3594 35.887 17.5156 36.0908 17.7656C36.2945 18.0156 36.3958 18.2969 36.3945 18.6094C36.3945 19.1406 36.2227 19.5312 35.8789 19.7812C35.5352 20.0312 35.0977 20.0938 34.5664 19.9688C34.1289 19.875 33.6683 19.8044 33.1845 19.7569C32.7008 19.7094 32.2083 19.6863 31.707 19.6875C30.8945 19.6875 30.0977 19.7581 29.3164 19.8994C28.5352 20.0406 27.7852 20.2356 27.0664 20.4844C26.5039 20.7031 26.0427 20.695 25.6827 20.46C25.3227 20.225 25.1433 19.8275 25.1445 19.2675V19.2656ZM25.1445 14.1094C25.1445 13.8281 25.2464 13.5388 25.4502 13.2413C25.6539 12.9438 25.8802 12.7487 26.1289 12.6562C27.0352 12.3438 27.9414 12.1094 28.8477 11.9531C29.7539 11.7969 30.707 11.7188 31.707 11.7188C32.332 11.7188 32.9495 11.7581 33.5595 11.8369C34.1695 11.9156 34.7708 12.0169 35.3633 12.1406C35.6445 12.2031 35.887 12.3594 36.0908 12.6094C36.2945 12.8594 36.3958 13.1406 36.3945 13.4531C36.3945 13.9844 36.2227 14.375 35.8789 14.625C35.5352 14.875 35.0977 14.9375 34.5664 14.8125C34.1289 14.7187 33.6683 14.6481 33.1845 14.6006C32.7008 14.5531 32.2083 14.53 31.707 14.5312C30.8945 14.5312 30.0977 14.6094 29.3164 14.7656C28.5352 14.9219 27.7852 15.125 27.0664 15.375C26.5039 15.5938 26.0433 15.5781 25.6845 15.3281C25.3258 15.0781 25.1458 14.6719 25.1445 14.1094ZM11.082 22.5C12.5508 22.5 13.9808 22.6644 15.372 22.9931C16.7633 23.3219 18.1458 23.8137 19.5195 24.4687V6C18.2383 5.25 16.8789 4.6875 15.4414 4.3125C14.0039 3.9375 12.5508 3.75 11.082 3.75C9.95703 3.75 8.83953 3.85938 7.72953 4.07813C6.61953 4.29688 5.54953 4.625 4.51953 5.0625V23.625C5.61328 23.25 6.69953 22.9688 7.77828 22.7812C8.85703 22.5938 9.95828 22.5 11.082 22.5ZM23.2695 24.4687C24.6445 23.8125 26.027 23.32 27.417 22.9912C28.807 22.6625 30.237 22.4988 31.707 22.5C32.832 22.5 33.9339 22.5938 35.0127 22.7812C36.0914 22.9688 37.177 23.25 38.2695 23.625V5.0625C37.2383 4.625 36.1677 4.29688 35.0577 4.07813C33.9477 3.85938 32.8308 3.75 31.707 3.75C30.2383 3.75 28.7852 3.9375 27.3477 4.3125C25.9102 4.6875 24.5508 5.25 23.2695 6V24.4687ZM21.3945 29.0156C20.957 29.0156 20.5427 28.9606 20.1514 28.8506C19.7602 28.7406 19.3933 28.5925 19.0508 28.4062C17.832 27.6875 16.5508 27.1488 15.207 26.79C13.8633 26.4312 12.4883 26.2512 11.082 26.25C9.76953 26.25 8.48016 26.4219 7.21391 26.7656C5.94766 27.1094 4.73703 27.5937 3.58203 28.2187C2.92578 28.5625 2.29328 28.5469 1.68453 28.1719C1.07578 27.7969 0.770781 27.25 0.769531 26.5312V3.9375C0.769531 3.59375 0.855781 3.26562 1.02828 2.95312C1.20078 2.64062 1.45828 2.40625 1.80078 2.25C3.23828 1.5 4.73828 0.9375 6.30078 0.5625C7.86328 0.1875 9.45703 0 11.082 0C12.8945 0 14.6683 0.234375 16.4033 0.703125C18.1383 1.17188 19.802 1.875 21.3945 2.8125C22.9883 1.875 24.6527 1.17188 26.3877 0.703125C28.1227 0.234375 29.8958 0 31.707 0C33.332 0 34.9258 0.1875 36.4883 0.5625C38.0508 0.9375 39.5508 1.5 40.9883 2.25C41.332 2.40625 41.5902 2.64062 41.7627 2.95312C41.9352 3.26562 42.0208 3.59375 42.0195 3.9375V26.5312C42.0195 27.25 41.7152 27.7969 41.1064 28.1719C40.4977 28.5469 39.8645 28.5625 39.207 28.2187C38.0508 27.5937 36.8402 27.1094 35.5752 26.7656C34.3102 26.4219 33.0208 26.25 31.707 26.25C30.3008 26.25 28.9258 26.43 27.582 26.79C26.2383 27.15 24.957 27.6887 23.7383 28.4062C23.3945 28.5938 23.027 28.7425 22.6358 28.8525C22.2445 28.9625 21.8308 29.0169 21.3945 29.0156Z" fill="#3EB449"/>
</svg>
