<svg width="41" height="41" viewBox="0 0 41 41" fill="none" xmlns="http://www.w3.org/2000/svg">
<g clip-path="url(#clip0_2886_22061)">
<path d="M20.167 23.5137H26.004" stroke="#F9B400" stroke-width="2"/>
<path d="M20.167 28.5156H26.004" stroke="#F9B400" stroke-width="2"/>
<path d="M16.831 23.0957C17.0613 23.0957 17.2479 23.2824 17.2479 23.5126C17.2479 23.7429 17.0613 23.9296 16.831 23.9296C16.6007 23.9296 16.4141 23.7429 16.4141 23.5126C16.4141 23.2824 16.6007 23.0957 16.831 23.0957" stroke="#F9B400" stroke-width="2"/>
<path d="M20.167 18.5098H26.004" stroke="#F9B400" stroke-width="2"/>
<path d="M16.831 18.0938C17.0613 18.0938 17.2479 18.2804 17.2479 18.5107C17.2479 18.7409 17.0613 18.9276 16.831 18.9276C16.6007 18.9276 16.4141 18.7409 16.4141 18.5107C16.4141 18.2804 16.6007 18.0938 16.831 18.0938" stroke="#F9B400" stroke-width="2"/>
<path d="M16.831 28.0996C17.0613 28.0996 17.2479 28.2863 17.2479 28.5165C17.2479 28.7468 17.0613 28.9335 16.831 28.9335C16.6007 28.9335 16.4141 28.7468 16.4141 28.5165C16.4141 28.2863 16.6007 28.0996 16.831 28.0996" stroke="#F9B400" stroke-width="2"/>
<path fill-rule="evenodd" clip-rule="evenodd" d="M25.1697 12.6732H29.3389C30.26 12.6732 31.0066 13.4198 31.0066 14.3409V31.8518C31.0066 32.7729 30.26 33.5195 29.3389 33.5195H12.6618C11.7408 33.5195 10.9941 32.7729 10.9941 31.8518V14.3409C10.9941 13.4198 11.7408 12.6732 12.6618 12.6732H16.8311C16.8311 10.3706 18.6978 8.50391 21.0004 8.50391C23.303 8.50391 25.1697 10.3706 25.1697 12.6732Z" stroke="#F9B400" stroke-width="2"/>
<path d="M20.9999 11.8398C21.2302 11.8398 21.4169 12.0265 21.4169 12.2568C21.4169 12.487 21.2302 12.6737 20.9999 12.6737C20.7697 12.6737 20.583 12.487 20.583 12.2568C20.583 12.0265 20.7697 11.8398 20.9999 11.8398" stroke="#F9B400" stroke-width="2"/>
</g>
<defs>
<clipPath id="clip0_2886_22061">
<rect width="40" height="40" fill="white" transform="translate(0.789062 0.90625)"/>
</clipPath>
</defs>
</svg>
