<svg width="21" height="20" viewBox="0 0 21 20" fill="none" xmlns="http://www.w3.org/2000/svg">
<path d="M9.18984 11.801L7.01484 9.62598C6.83151 9.44264 6.60651 9.35098 6.33984 9.35098C6.07318 9.35098 5.83984 9.45098 5.63984 9.65098C5.45651 9.83431 5.36484 10.0676 5.36484 10.351C5.36484 10.6343 5.45651 10.8676 5.63984 11.051L8.48984 13.901C8.67318 14.0843 8.90651 14.176 9.18984 14.176C9.47318 14.176 9.70651 14.0843 9.88984 13.901L15.5648 8.22598C15.7482 8.04264 15.8398 7.81764 15.8398 7.55098C15.8398 7.28431 15.7398 7.05098 15.5398 6.85098C15.3565 6.66764 15.1232 6.57598 14.8398 6.57598C14.5565 6.57598 14.3232 6.66764 14.1398 6.85098L9.18984 11.801ZM10.5898 20.001C9.20651 20.001 7.90651 19.7383 6.68984 19.213C5.47318 18.6876 4.41484 17.9753 3.51484 17.076C2.61484 16.176 1.90251 15.1176 1.37784 13.901C0.853177 12.6843 0.59051 11.3843 0.589844 10.001C0.589844 8.61764 0.852511 7.31764 1.37784 6.10098C1.90318 4.88431 2.61551 3.82598 3.51484 2.92598C4.41484 2.02598 5.47318 1.31364 6.68984 0.788977C7.90651 0.26431 9.20651 0.00164323 10.5898 0.000976562C11.9732 0.000976562 13.2732 0.263643 14.4898 0.788977C15.7065 1.31431 16.7648 2.02664 17.6648 2.92598C18.5648 3.82598 19.2775 4.88431 19.8028 6.10098C20.3282 7.31764 20.5905 8.61764 20.5898 10.001C20.5898 11.3843 20.3272 12.6843 19.8018 13.901C19.2765 15.1176 18.5642 16.176 17.6648 17.076C16.7648 17.976 15.7065 18.6886 14.4898 19.214C13.2732 19.7393 11.9732 20.0016 10.5898 20.001Z" fill="#3EB449"/>
</svg>
