<svg width="58" height="58" viewBox="0 0 58 58" fill="none" xmlns="http://www.w3.org/2000/svg">
<g clip-path="url(#clip0_3202_38356)">
<rect width="58" height="58" rx="29" fill="#ECF9CA"/>
<path fill-rule="evenodd" clip-rule="evenodd" d="M27.792 32.2237V28.1934H30.2087V32.2237H27.792Z" fill="#8CB817"/>
<path fill-rule="evenodd" clip-rule="evenodd" d="M31.7733 36.7052L28.146 33.078L29.8548 31.3691L33.4821 34.9964L31.7733 36.7052Z" fill="#8CB817"/>
<path fill-rule="evenodd" clip-rule="evenodd" d="M24.5186 34.9964L28.1458 31.3691L29.8547 33.078L26.2274 36.7052L24.5186 34.9964Z" fill="#8CB817"/>
<path fill-rule="evenodd" clip-rule="evenodd" d="M24.1646 14.0876C24.1646 11.4169 26.3295 9.25195 29.0001 9.25195C31.6708 9.25195 33.8357 11.4169 33.8357 14.0876C33.8357 16.7582 31.6708 18.9232 29.0001 18.9232C26.3295 18.9232 24.1646 16.7582 24.1646 14.0876ZM29.0001 11.6686C27.6642 11.6686 26.5812 12.7516 26.5812 14.0876C26.5812 15.4235 27.6642 16.5065 29.0001 16.5065C30.3361 16.5065 31.4191 15.4235 31.4191 14.0876C31.4191 12.7516 30.3361 11.6686 29.0001 11.6686Z" fill="#8CB817"/>
<path fill-rule="evenodd" clip-rule="evenodd" d="M20.5747 24.6716C21.5568 20.8202 25.0254 18.125 29.0001 18.125C32.9747 18.125 36.4434 20.8202 37.4255 24.6716L37.8097 26.1785H20.1904L20.5747 24.6716ZM23.5163 23.7618H34.4839C33.3956 21.8099 31.3169 20.5417 29.0001 20.5417C26.6833 20.5417 24.6045 21.8099 23.5163 23.7618Z" fill="#8CB817"/>
<path fill-rule="evenodd" clip-rule="evenodd" d="M12.8799 36.6579C12.8799 33.9872 15.0449 31.8223 17.7155 31.8223C20.3861 31.8223 22.5511 33.9872 22.5511 36.6579C22.5511 39.3285 20.3861 41.4935 17.7155 41.4935C15.0449 41.4935 12.8799 39.3285 12.8799 36.6579ZM17.7155 34.2389C16.3795 34.2389 15.2965 35.3219 15.2965 36.6579C15.2965 37.9938 16.3795 39.0768 17.7155 39.0768C19.0514 39.0768 20.1344 37.9938 20.1344 36.6579C20.1344 35.3219 19.0514 34.2389 17.7155 34.2389Z" fill="#8CB817"/>
<path fill-rule="evenodd" clip-rule="evenodd" d="M9.29002 47.2399C10.2721 43.3885 13.7408 40.6934 17.7154 40.6934C21.6901 40.6934 25.1587 43.3885 26.1408 47.2399L26.5251 48.7468H8.90576L9.29002 47.2399ZM12.2316 46.3301H23.1992C22.111 44.3783 20.0322 43.11 17.7154 43.11C15.3986 43.11 13.3199 44.3783 12.2316 46.3301Z" fill="#8CB817"/>
<path fill-rule="evenodd" clip-rule="evenodd" d="M35.4497 36.6579C35.4497 33.9872 37.6147 31.8223 40.2853 31.8223C42.9559 31.8223 45.1209 33.9872 45.1209 36.6579C45.1209 39.3285 42.9559 41.4935 40.2853 41.4935C37.6147 41.4935 35.4497 39.3285 35.4497 36.6579ZM40.2853 34.2389C38.9494 34.2389 37.8664 35.3219 37.8664 36.6579C37.8664 37.9938 38.9494 39.0768 40.2853 39.0768C41.6212 39.0768 42.7042 37.9938 42.7042 36.6579C42.7042 35.3219 41.6212 34.2389 40.2853 34.2389Z" fill="#8CB817"/>
<path fill-rule="evenodd" clip-rule="evenodd" d="M31.8598 47.2399C32.8419 43.3885 36.3106 40.6934 40.2852 40.6934C44.2599 40.6934 47.7285 43.3885 48.7106 47.2399L49.0949 48.7468H31.4756L31.8598 47.2399ZM34.8014 46.3301H45.7691C44.6808 44.3783 42.6021 43.11 40.2852 43.11C37.9684 43.11 35.8897 44.3783 34.8014 46.3301Z" fill="#8CB817"/>
</g>
<defs>
<clipPath id="clip0_3202_38356">
<rect width="58" height="58" rx="29" fill="white"/>
</clipPath>
</defs>
</svg>
