<svg width="58" height="58" viewBox="0 0 58 58" fill="none" xmlns="http://www.w3.org/2000/svg">
<g clip-path="url(#clip0_3202_38350)">
<rect width="58" height="58" rx="29" fill="#ECF9CA"/>
<path fill-rule="evenodd" clip-rule="evenodd" d="M9.25244 28.9996C9.25244 18.0933 18.0938 9.25195 29.0001 9.25195C39.9065 9.25195 48.7478 18.0933 48.7478 28.9996C48.7478 39.906 39.9065 48.7473 29.0001 48.7473C18.0938 48.7473 9.25244 39.906 9.25244 28.9996ZM29.0001 11.6686C19.4285 11.6686 11.6691 19.428 11.6691 28.9996C11.6691 38.5713 19.4285 46.3307 29.0001 46.3307C38.5718 46.3307 46.3312 38.5713 46.3312 28.9996C46.3312 19.428 38.5718 11.6686 29.0001 11.6686Z" fill="#8CB817"/>
<path fill-rule="evenodd" clip-rule="evenodd" d="M20.9404 23.761C20.9404 19.3097 24.5489 15.7012 29.0003 15.7012C33.4516 15.7012 37.0601 19.3097 37.0601 23.761C37.0601 28.2123 33.4516 31.8208 29.0003 31.8208C24.5489 31.8208 20.9404 28.2123 20.9404 23.761ZM29.0003 18.1178C25.8836 18.1178 23.3571 20.6444 23.3571 23.761C23.3571 26.8776 25.8836 29.4042 29.0003 29.4042C32.1169 29.4042 34.6434 26.8776 34.6434 23.761C34.6434 20.6444 32.1169 18.1178 29.0003 18.1178Z" fill="#8CB817"/>
<path fill-rule="evenodd" clip-rule="evenodd" d="M17.7241 38.9625C19.7863 34.6027 24.1772 31.8223 29.0002 31.8223C33.8232 31.8223 38.214 34.6027 40.2762 38.9625L38.0916 39.9959C36.4289 36.4807 32.8888 34.2389 29.0002 34.2389C25.1116 34.2389 21.5714 36.4807 19.9087 39.9959L17.7241 38.9625Z" fill="#8CB817"/>
</g>
<defs>
<clipPath id="clip0_3202_38350">
<rect width="58" height="58" rx="29" fill="white"/>
</clipPath>
</defs>
</svg>
