<svg width="250" height="274" viewBox="0 0 250 274" fill="none" xmlns="http://www.w3.org/2000/svg">
<path d="M250 209.555H0V209.692H250V209.555Z" fill="#EBEBEB"/>
<path d="M224.95 218.375H208.39V218.512H224.95V218.375Z" fill="#EBEBEB"/>
<path d="M147.61 214.141H133.93V214.278H147.61V214.141Z" fill="#EBEBEB"/>
<path d="M207.89 213.289H198.295V213.426H207.89V213.289Z" fill="#EBEBEB"/>
<path d="M34.805 214.211H26.23V214.348H34.805V214.211Z" fill="#EBEBEB"/>
<path d="M55.4449 214.211H39.2549V214.348H55.4449V214.211Z" fill="#EBEBEB"/>
<path d="M112.575 216.523H82.3899V216.66H112.575V216.523Z" fill="#EBEBEB"/>
<path d="M118.5 185.115H21.955C21.1987 185.114 20.4738 184.783 19.9394 184.197C19.4051 183.61 19.105 182.815 19.105 181.986V33.2423C19.1116 32.4181 19.4146 31.6301 19.9482 31.0493C20.4818 30.4686 21.203 30.142 21.955 30.1406H118.5C119.257 30.1406 119.983 30.4703 120.519 31.0571C121.054 31.6439 121.355 32.4398 121.355 33.2697V181.986C121.355 182.816 121.054 183.612 120.519 184.199C119.983 184.785 119.257 185.115 118.5 185.115ZM21.955 30.2502C21.2318 30.2517 20.5387 30.5676 20.0278 31.1285C19.5169 31.6895 19.23 32.4497 19.23 33.2423V181.986C19.23 182.779 19.5169 183.539 20.0278 184.1C20.5387 184.661 21.2318 184.977 21.955 184.978H118.5C119.224 184.977 119.917 184.661 120.429 184.1C120.941 183.539 121.229 182.779 121.23 181.986V33.2423C121.229 32.4492 120.941 31.689 120.429 31.1282C119.917 30.5674 119.224 30.2517 118.5 30.2502H21.955Z" fill="#EBEBEB"/>
<path d="M226.655 185.115H130.105C129.348 185.114 128.623 184.783 128.088 184.197C127.553 183.61 127.251 182.815 127.25 181.986V33.2423C127.258 32.4176 127.562 31.6296 128.096 31.049C128.631 30.4684 129.353 30.142 130.105 30.1406H226.655C227.406 30.1435 228.126 30.4707 228.659 31.0513C229.191 31.6318 229.493 32.4191 229.5 33.2423V181.986C229.5 182.814 229.201 183.608 228.667 184.195C228.134 184.781 227.41 185.112 226.655 185.115ZM130.105 30.2502C129.381 30.2517 128.688 30.5674 128.176 31.1282C127.664 31.689 127.376 32.4492 127.375 33.2423V181.986C127.376 182.779 127.664 183.539 128.176 184.1C128.688 184.661 129.381 184.977 130.105 184.978H226.655C227.379 184.977 228.072 184.661 228.584 184.1C229.096 183.539 229.384 182.779 229.385 181.986V33.2423C229.384 32.4492 229.096 31.689 228.584 31.1282C228.072 30.5674 227.379 30.2517 226.655 30.2502H130.105Z" fill="#EBEBEB"/>
<path d="M40.6501 130.438H32.175V207.059H40.6501V130.438Z" fill="#053D38"/>
<path d="M114.745 207.055H33.3501V209.554H114.745V207.055Z" fill="#053D38"/>
<path d="M40.6499 207.055H115.92L115.92 130.433H40.6499L40.6499 207.055Z" fill="#FAFAFA"/>
<path d="M50.0899 174.906H106.485C107.91 174.906 109.065 173.64 109.065 172.079V160.461C109.065 158.899 107.91 157.633 106.485 157.633H50.0899C48.665 157.633 47.5099 158.899 47.5099 160.461V172.079C47.5099 173.64 48.665 174.906 50.0899 174.906Z" fill="#F0F0F0"/>
<path d="M50.0899 197.141H106.485C107.91 197.141 109.065 195.875 109.065 194.313V182.695C109.065 181.134 107.91 179.868 106.485 179.868H50.0899C48.665 179.868 47.5099 181.134 47.5099 182.695V194.313C47.5099 195.875 48.665 197.141 50.0899 197.141Z" fill="#F0F0F0"/>
<path d="M89.1901 160.115H67.3851C66.9337 160.113 66.5013 159.916 66.1827 159.565C65.864 159.215 65.6851 158.741 65.6851 158.246C65.6864 157.752 65.8659 157.279 66.1844 156.93C66.503 156.581 66.9346 156.384 67.3851 156.383H89.1901C89.6405 156.384 90.0722 156.581 90.3907 156.93C90.7092 157.279 90.8887 157.752 90.8901 158.246C90.8901 158.741 90.7111 159.215 90.3924 159.565C90.0738 159.916 89.6414 160.113 89.1901 160.115Z" fill="#FAFAFA"/>
<path d="M50.0899 152.672H106.485C107.91 152.672 109.065 151.406 109.065 149.844V138.227C109.065 136.665 107.91 135.399 106.485 135.399H50.0899C48.665 135.399 47.5099 136.665 47.5099 138.227V149.844C47.5099 151.406 48.665 152.672 50.0899 152.672Z" fill="#F0F0F0"/>
<path d="M89.1901 137.883H67.3851C66.9346 137.881 66.503 137.684 66.1844 137.335C65.8659 136.986 65.6864 136.513 65.6851 136.019C65.6864 135.526 65.8659 135.053 66.1844 134.704C66.503 134.354 66.9346 134.158 67.3851 134.156H89.1901C89.6405 134.158 90.0722 134.354 90.3907 134.704C90.7092 135.053 90.8887 135.526 90.8901 136.019C90.8887 136.513 90.7092 136.986 90.3907 137.335C90.0722 137.684 89.6405 137.881 89.1901 137.883Z" fill="#FAFAFA"/>
<path d="M89.1901 182.344H67.3851C66.9346 182.342 66.503 182.145 66.1844 181.796C65.8659 181.447 65.6864 180.974 65.6851 180.48C65.6864 179.987 65.8659 179.514 66.1844 179.165C66.503 178.815 66.9346 178.619 67.3851 178.617H89.1901C89.6405 178.619 90.0722 178.815 90.3907 179.165C90.7092 179.514 90.8887 179.987 90.8901 180.48C90.8887 180.974 90.7092 181.447 90.3907 181.796C90.0722 182.145 89.6405 182.342 89.1901 182.344Z" fill="#FAFAFA"/>
<path d="M117.47 126.539H40.655V130.435H117.47V126.539Z" fill="#053D38"/>
<path d="M30.515 130.43H40.655V126.533H30.515V130.43Z" fill="#053D38"/>
<path d="M209.625 39.1797H34.28V103.734H209.625V39.1797Z" fill="#053D38"/>
<path d="M212.09 39.1797H35.4299V103.734H212.09V39.1797Z" fill="#A3CCAB"/>
<path d="M149.59 103.734H34.28V106.94H149.59V103.734Z" fill="#053D38"/>
<path d="M208.635 99.7733V43.1484L38.895 43.1484V99.7733L208.635 99.7733Z" fill="#FAFAFA"/>
<path d="M60.3501 99.7733L89.8851 43.1484H103.83L74.2951 99.7733H60.3501Z" fill="white"/>
<path d="M77.29 99.7733L106.825 43.1484H112.26L82.725 99.7733H77.29Z" fill="white"/>
<path d="M163.835 99.7733L193.365 43.1484H198.8L169.27 99.7733H163.835Z" fill="white"/>
<path d="M208.635 99.7733V43.1484H208.195V99.7733H208.635Z" fill="#EBEBEB"/>
<path opacity="0.5" d="M212.91 47.7399H37.565L37.25 44.6875H212.59L212.91 47.7399Z" fill="#053D38"/>
<path opacity="0.5" d="M212.91 51.5445H37.565L37.25 48.4922H212.59L212.91 51.5445Z" fill="#053D38"/>
<path opacity="0.5" d="M212.91 55.357H37.565L37.25 52.3047H212.59L212.91 55.357Z" fill="#053D38"/>
<path opacity="0.5" d="M212.91 59.1539H37.565L37.25 56.1016H212.59L212.91 59.1539Z" fill="#053D38"/>
<path opacity="0.5" d="M212.91 62.9664H37.565L37.25 59.9141H212.59L212.91 62.9664Z" fill="#053D38"/>
<path opacity="0.5" d="M212.91 66.7711H37.565L37.25 63.7188H212.59L212.91 66.7711Z" fill="#053D38"/>
<path opacity="0.5" d="M212.91 70.5758H37.565L37.25 67.5234H212.59L212.91 70.5758Z" fill="#053D38"/>
<path opacity="0.5" d="M212.91 74.3883H37.565L37.25 71.3359H212.59L212.91 74.3883Z" fill="#053D38"/>
<path opacity="0.5" d="M212.91 78.193H37.565L37.25 75.1406H212.59L212.91 78.193Z" fill="#053D38"/>
<path opacity="0.5" d="M212.91 81.9977H37.565L37.25 78.9453H212.59L212.91 81.9977Z" fill="#053D38"/>
<path opacity="0.5" d="M212.91 85.8024H37.565L37.25 82.75H212.59L212.91 85.8024Z" fill="#053D38"/>
<path opacity="0.5" d="M212.91 89.6071H37.565L37.25 86.5547H212.59L212.91 89.6071Z" fill="#053D38"/>
<path opacity="0.5" d="M212.91 93.4172H37.565L37.25 90.3594H212.59L212.91 93.4172Z" fill="#053D38"/>
<path opacity="0.5" d="M212.91 97.2242H37.565L37.25 94.1719H212.59L212.91 97.2242Z" fill="#053D38"/>
<path d="M204.085 178.613H174.915L172.135 125.67C172.112 125.364 172.148 125.055 172.241 124.764C172.334 124.473 172.481 124.208 172.674 123.984C172.867 123.76 173.101 123.583 173.36 123.465C173.62 123.347 173.899 123.29 174.18 123.298H199C199.584 123.304 200.145 123.553 200.569 123.992C200.994 124.432 201.251 125.032 201.29 125.67L204.085 178.613Z" fill="#053D38"/>
<path d="M207.025 178.613H177.86L175.08 125.67C175.057 125.364 175.093 125.056 175.185 124.765C175.278 124.475 175.425 124.209 175.618 123.986C175.81 123.762 176.043 123.585 176.302 123.466C176.561 123.348 176.84 123.29 177.12 123.297H201.955C202.539 123.304 203.1 123.552 203.524 123.992C203.949 124.432 204.206 125.031 204.245 125.67L207.025 178.613Z" fill="#053D38"/>
<path d="M178.445 172.016H198.75V178.592H176.275V174.361C176.281 173.736 176.513 173.138 176.92 172.699C177.326 172.26 177.874 172.014 178.445 172.016Z" fill="#053D38"/>
<path d="M194.275 172.016H220.125C220.699 172.016 221.25 172.266 221.656 172.711C222.062 173.156 222.29 173.759 222.29 174.388V178.619H192.105V174.388C192.105 174.076 192.161 173.767 192.27 173.479C192.379 173.191 192.539 172.929 192.741 172.709C192.942 172.488 193.182 172.314 193.445 172.195C193.708 172.076 193.99 172.015 194.275 172.016Z" fill="#053D38"/>
<path d="M176.915 178.617H174.915V209.557H176.915V178.617Z" fill="#053D38"/>
<path d="M191.595 178.617H189.595V209.557H191.595V178.617Z" fill="#053D38"/>
<path d="M207.155 178.617H205.155V209.557H207.155V178.617Z" fill="#053D38"/>
<path d="M221.83 178.617H219.83V209.557H221.83V178.617Z" fill="#053D38"/>
<path d="M166.75 178.612H137.585L134.8 125.67C134.781 125.364 134.821 125.057 134.915 124.769C135.01 124.481 135.158 124.217 135.35 123.994C135.542 123.771 135.774 123.594 136.031 123.474C136.288 123.354 136.565 123.294 136.845 123.297H161.68C162.264 123.305 162.823 123.554 163.248 123.993C163.672 124.433 163.93 125.031 163.97 125.67L166.75 178.612Z" fill="#E6E6E6"/>
<path d="M169.695 178.612H140.525L137.745 125.67C137.726 125.364 137.764 125.057 137.859 124.768C137.953 124.479 138.101 124.215 138.293 123.992C138.485 123.769 138.718 123.592 138.975 123.473C139.233 123.353 139.51 123.293 139.79 123.297H164.62C165.205 123.304 165.766 123.552 166.191 123.992C166.616 124.431 166.875 125.031 166.915 125.67L169.695 178.612Z" fill="#F5F5F5"/>
<path d="M141.11 172.016H161.415V178.592H138.945V174.361C138.952 173.737 139.183 173.14 139.588 172.701C139.993 172.262 140.54 172.016 141.11 172.016Z" fill="#E6E6E6"/>
<path d="M156.94 172.016H182.79C183.364 172.016 183.915 172.266 184.321 172.711C184.727 173.156 184.955 173.759 184.955 174.388V178.619H154.775V174.388C154.775 173.759 155.003 173.156 155.409 172.711C155.815 172.266 156.366 172.016 156.94 172.016Z" fill="#053D38"/>
<path d="M139.585 178.617H137.585V209.557H139.585V178.617Z" fill="#E6E6E6"/>
<path d="M154.26 178.617H152.26V209.557H154.26V178.617Z" fill="#053D38"/>
<path d="M169.82 178.617H167.82V209.557H169.82V178.617Z" fill="#E6E6E6"/>
<path d="M184.495 178.617H182.495V209.557H184.495V178.617Z" fill="#053D38"/>
<path d="M125 234.305C178.541 234.305 221.945 231.528 221.945 228.102C221.945 224.676 178.541 221.898 125 221.898C71.4587 221.898 28.0549 224.676 28.0549 228.102C28.0549 231.528 71.4587 234.305 125 234.305Z" fill="#053D38"/>
<path d="M143.295 220.534L139.5 219.092L141.53 209.086L145.325 210.527L143.295 220.534Z" fill="#B55B52"/>
<path d="M174.83 223.601H170.815L169.78 213.414H173.795L174.83 223.601Z" fill="#B55B52"/>
<path d="M170.5 223.094H175.095C175.174 223.094 175.251 223.124 175.313 223.179C175.375 223.234 175.418 223.31 175.435 223.395L176.23 227.308C176.248 227.403 176.246 227.502 176.225 227.596C176.203 227.69 176.163 227.778 176.106 227.853C176.049 227.928 175.978 227.987 175.897 228.028C175.816 228.068 175.728 228.088 175.64 228.086C174.065 228.059 172.92 227.955 170.935 227.955C169.715 227.955 166.335 228.097 164.65 228.097C162.965 228.097 162.745 226.272 163.435 226.102C166.525 225.362 168.855 224.343 169.845 223.362C170.027 223.189 170.259 223.094 170.5 223.094Z" fill="#263238"/>
<path d="M139.555 218.652L143.695 220.224C143.77 220.253 143.835 220.308 143.878 220.382C143.92 220.456 143.939 220.543 143.93 220.63L143.51 224.608C143.503 224.706 143.476 224.8 143.43 224.884C143.384 224.968 143.321 225.04 143.246 225.093C143.171 225.146 143.086 225.179 142.997 225.19C142.909 225.201 142.819 225.19 142.735 225.156C141.235 224.559 139.12 223.644 137.235 222.931C135.04 222.099 133.995 221.918 131.42 220.942C129.865 220.35 130.305 218.509 131.01 218.547C134.22 218.739 135.425 219.402 138.535 218.641C138.869 218.542 139.222 218.546 139.555 218.652Z" fill="#263238"/>
<path d="M163.325 91.9233C162.185 93.2605 161.075 94.477 159.905 95.6991C158.735 96.9211 157.555 98.0938 156.33 99.2556C153.847 101.64 151.19 103.797 148.385 105.706C147.633 106.205 146.859 106.662 146.065 107.076C145.66 107.295 145.225 107.498 144.79 107.695L144.105 107.969C143.865 108.056 143.605 108.139 143.345 108.215C141.292 108.8 139.128 108.722 137.115 107.991C135.312 107.322 133.654 106.253 132.245 104.851C131.586 104.207 130.972 103.509 130.41 102.763C130.13 102.396 129.865 102.012 129.615 101.623C129.365 101.234 129.145 100.856 128.88 100.374L131.64 98.0774L132.43 98.7679C132.71 99.009 132.995 99.2337 133.28 99.4583C133.843 99.895 134.427 100.298 135.03 100.664C136.115 101.34 137.299 101.802 138.53 102.028C139.543 102.197 140.578 102.067 141.53 101.65L141.885 101.486L142.285 101.283C142.56 101.13 142.835 100.982 143.125 100.795C143.695 100.45 144.27 100.028 144.855 99.6008C146.02 98.735 147.18 97.7541 148.32 96.7183C149.46 95.6826 150.59 94.6085 151.71 93.4961C152.83 92.3837 153.93 91.2493 155.025 90.104C156.12 88.9587 157.225 87.7695 158.25 86.6406L163.325 91.9233Z" fill="#263238"/>
<path d="M131.665 98.422L129.165 94.1641L126.665 99.4797C126.665 99.4797 129.565 102.828 131 101.299L131.665 98.422Z" fill="#B55B52"/>
<path d="M126.14 93.4375L124.795 97.1803L126.625 99.4819L129.145 94.1663L126.14 93.4375Z" fill="#B55B52"/>
<path opacity="0.2" d="M141.53 209.094L140.485 214.25L144.28 215.692L145.325 210.53L141.53 209.094Z" fill="black"/>
<path opacity="0.2" d="M173.795 213.422H169.78L170.315 218.672H174.33L173.795 213.422Z" fill="black"/>
<path d="M179.935 91.7519C175.83 106.975 176.265 123.136 175.725 126.418C172.605 125.964 159.225 123.815 152.8 122.867C151.8 105.233 155.68 93.4178 157.44 88.1735C157.784 87.1435 158.398 86.2478 159.205 85.5986C160.012 84.9494 160.975 84.5755 161.975 84.5238H162.03C162.62 84.4964 163.255 84.4799 163.915 84.4854C164.28 84.4854 164.65 84.4854 165.025 84.4854C168.061 84.741 171.081 85.1875 174.07 85.8225C174.635 85.9376 175.21 86.0692 175.765 86.2062C176.32 86.3432 176.765 86.4747 177.265 86.6117H177.33C177.815 86.7506 178.269 86.9959 178.666 87.3327C179.062 87.6696 179.392 88.0909 179.635 88.5713C179.879 89.0518 180.031 89.5813 180.082 90.128C180.134 90.6746 180.084 91.2271 179.935 91.7519Z" fill="#263238"/>
<path d="M169.05 96.7578L169 97.5469L173.71 98.4018L173.86 97.7552L169.05 96.7578Z" fill="white"/>
<path opacity="0.3" d="M165.025 84.5156C163.945 85.7541 162.675 96.0784 164.25 100.873C166.91 96.0346 172.25 87.3433 174.065 85.8527C171.077 85.2177 168.059 84.7713 165.025 84.5156Z" fill="white"/>
<path d="M174.545 74.5547C173.585 77.6564 172.295 83.4159 174.07 85.8435C173.4 86.5669 170.62 87.1751 168.07 86.7477C165.975 86.397 164.975 85.3996 165.03 84.5118C168.38 84.1392 168.62 81.4869 168.36 78.9277L174.545 74.5547Z" fill="#B55B52"/>
<path opacity="0.2" d="M172 76.3359L168.36 78.9061C168.427 79.504 168.447 80.1072 168.42 80.709C169.685 80.709 171.57 79.4541 171.88 78.0512C172.013 77.4918 172.053 76.911 172 76.3359Z" fill="black"/>
<path d="M165.84 72.3681C165.28 70.9762 165.07 68.2636 166.125 64.7673C166.985 61.9177 169.71 62.8384 171.595 63.337C173.48 63.8357 172.785 66.6251 171.415 68.6581C169.945 70.8227 165.84 72.3681 165.84 72.3681Z" fill="#263238"/>
<path d="M176.76 70.1677C175.61 74.3489 175.135 76.8588 172.71 78.5302C169.07 81.0455 164.71 77.8726 164.71 73.4009C164.71 69.3731 166.575 63.2136 170.71 62.5067C171.625 62.3438 172.562 62.4403 173.433 62.7868C174.304 63.1333 175.08 63.7183 175.686 64.4862C176.293 65.2541 176.71 66.1794 176.898 67.1738C177.086 68.1683 177.038 69.199 176.76 70.1677Z" fill="#B55B52"/>
<path d="M174.175 74.5207C173.505 73.1891 173.235 69.6873 173.875 66.9254C174.375 64.8321 177.485 64.3553 179.21 65.3253C181.265 66.4815 180.88 68.7503 179.335 70.6025C177.665 72.6082 174.175 74.5207 174.175 74.5207Z" fill="#263238"/>
<path d="M178.8 66.6112C180.34 66.5126 181.36 64.2713 180.11 63.1972C178.64 61.9368 176.61 63.1972 174.76 60.4079C173.025 57.7884 168.72 57.3336 167.1 59.6845C166.17 61.0381 167 61.5806 164.505 63.2246C163.05 64.1836 163.505 65.8111 163.88 66.6112C163.84 66.0084 164.07 64.4576 165.425 64.1233C166.56 63.8438 167.23 64.9179 168.01 63.9534C168.01 63.9534 170.65 66.6112 175.65 67.0332C178.435 67.2688 178.8 66.6112 178.8 66.6112Z" fill="#263238"/>
<path d="M177.5 75.2908C176.785 76.0602 175.822 76.4895 174.82 76.4854C173.495 76.4854 173.205 75.0606 173.885 73.9044C174.5 72.8632 175.93 71.6137 177.115 72.1946C178.3 72.7755 178.37 74.3373 177.5 75.2908Z" fill="#B55B52"/>
<path d="M139.365 212.749L145.79 215.182C145.79 215.182 152.08 188.012 154.05 174.476C154.65 170.355 155.99 164.656 157.61 158.584C159.655 150.912 162.11 142.648 164.155 136.177C166.28 129.359 167.875 124.543 167.875 124.543L153.875 122.477C153.875 122.477 144.53 157.324 142.875 170.629C141.2 184.45 139.365 212.749 139.365 212.749Z" fill="#263238"/>
<path opacity="0.2" d="M157.61 158.568C159.655 150.896 162.11 142.632 164.155 136.16L162.9 132.609C159.145 136.906 157.385 150.891 157.61 158.568Z" fill="black"/>
<path d="M161.435 123.578C161.435 123.578 160.745 161.27 161.69 174.115C162.72 188.182 168.46 217.659 168.46 217.659H175.815C175.815 217.659 174.79 190.62 173.285 176.959C171.57 161.396 175.165 125.606 175.165 125.606L161.435 123.578Z" fill="#263238"/>
<path d="M167.58 217.826H176.24V214.993L166.995 214.812L167.58 217.826Z" fill="#263238"/>
<path d="M138.505 212.606L146.16 215.511L147.015 212.804L138.855 209.094L138.505 212.606Z" fill="#263238"/>
<path d="M170.635 69.8381C170.56 70.1834 170.335 70.419 170.135 70.3861C169.935 70.3532 169.82 70.0135 169.895 69.6682C169.97 69.323 170.195 69.0874 170.395 69.1202C170.595 69.1531 170.71 69.4929 170.635 69.8381Z" fill="#263238"/>
<path d="M167.075 68.9217C167 69.267 166.775 69.5081 166.575 69.4697C166.375 69.4314 166.265 69.0916 166.34 68.7464C166.415 68.4011 166.64 68.1655 166.84 68.1984C167.04 68.2312 167.15 68.5765 167.075 68.9217Z" fill="#263238"/>
<path d="M168.17 69.3828C167.567 70.3413 166.847 71.2043 166.03 71.9475C166.209 72.1712 166.431 72.3494 166.68 72.4695C166.928 72.5897 167.198 72.6491 167.47 72.6434L168.17 69.3828Z" fill="#A02724"/>
<path d="M168.6 73.918C168.958 73.9587 169.319 73.92 169.663 73.8041C170.006 73.6883 170.325 73.4978 170.6 73.2439C170.619 73.225 170.629 73.1988 170.63 73.1711C170.631 73.1433 170.622 73.1163 170.605 73.096C170.588 73.0756 170.564 73.0636 170.538 73.0626C170.513 73.0615 170.489 73.0716 170.47 73.0905C170.158 73.3708 169.791 73.5665 169.397 73.6618C169.004 73.757 168.595 73.749 168.205 73.6385C168.193 73.6352 168.18 73.6346 168.168 73.6367C168.155 73.6388 168.144 73.6435 168.133 73.6506C168.122 73.6578 168.113 73.6672 168.106 73.6782C168.098 73.6893 168.093 73.7019 168.09 73.7152C168.085 73.742 168.09 73.7697 168.103 73.7931C168.116 73.8164 168.136 73.8335 168.16 73.8412C168.325 73.8741 168.465 73.9015 168.6 73.918Z" fill="#263238"/>
<path d="M172 68.8585C172.031 68.8691 172.064 68.8691 172.095 68.8585C172.118 68.8479 172.139 68.8322 172.156 68.8125C172.173 68.7928 172.187 68.7694 172.196 68.7438C172.205 68.7182 172.209 68.6909 172.208 68.6635C172.207 68.6361 172.201 68.6093 172.19 68.5845C172.075 68.2794 171.894 68.009 171.663 67.7963C171.433 67.5837 171.159 67.4349 170.865 67.3625C170.84 67.3578 170.815 67.3584 170.791 67.3644C170.766 67.3704 170.743 67.3816 170.723 67.3974C170.702 67.4132 170.685 67.4332 170.671 67.4564C170.658 67.4795 170.649 67.5054 170.645 67.5324C170.638 67.5875 170.65 67.6435 170.68 67.6886C170.71 67.7336 170.755 67.7641 170.805 67.7735C171.037 67.8345 171.252 67.9554 171.433 68.126C171.614 68.2966 171.755 68.512 171.845 68.7544C171.86 68.7849 171.883 68.8105 171.91 68.8288C171.937 68.847 171.968 68.8573 172 68.8585Z" fill="#263238"/>
<path d="M165.825 67.1803C165.857 67.1843 165.889 67.1794 165.919 67.166C165.949 67.1525 165.975 67.1311 165.995 67.1036C166.14 66.8954 166.328 66.7281 166.544 66.6156C166.759 66.5031 166.996 66.4487 167.235 66.4569C167.26 66.4599 167.285 66.4575 167.309 66.4497C167.332 66.4419 167.354 66.4289 167.374 66.4115C167.393 66.3941 167.408 66.3727 167.42 66.3485C167.431 66.3243 167.438 66.2978 167.44 66.2706C167.444 66.2164 167.43 66.1625 167.399 66.1197C167.368 66.0769 167.324 66.0486 167.275 66.0404C166.972 66.0284 166.672 66.0957 166.398 66.2367C166.124 66.3778 165.885 66.5886 165.7 66.8515C165.684 66.8726 165.671 66.8971 165.664 66.9235C165.656 66.9499 165.654 66.9776 165.656 67.0052C165.658 67.0327 165.665 67.0595 165.677 67.0839C165.689 67.1083 165.705 67.1299 165.725 67.1474C165.755 67.1681 165.79 67.1795 165.825 67.1803Z" fill="#263238"/>
<path d="M169.165 223.868C169.519 223.857 169.871 223.804 170.215 223.709C170.234 223.704 170.251 223.693 170.264 223.677C170.278 223.662 170.287 223.642 170.29 223.621C170.291 223.601 170.288 223.581 170.28 223.563C170.272 223.544 170.26 223.529 170.245 223.517C170.1 223.418 168.805 222.547 168.36 222.794C168.311 222.822 168.269 222.865 168.24 222.917C168.211 222.969 168.196 223.029 168.195 223.09C168.186 223.192 168.199 223.295 168.234 223.39C168.269 223.486 168.324 223.571 168.395 223.638C168.621 223.807 168.892 223.888 169.165 223.868ZM169.94 223.561C169.26 223.709 168.735 223.682 168.515 223.479C168.467 223.434 168.429 223.376 168.407 223.311C168.384 223.246 168.376 223.175 168.385 223.106C168.383 223.081 168.388 223.056 168.399 223.034C168.409 223.012 168.425 222.993 168.445 222.98C168.675 222.849 169.415 223.227 169.94 223.583V223.561Z" fill="#053D38"/>
<path d="M170.195 223.708C170.211 223.713 170.229 223.713 170.245 223.708C170.259 223.698 170.271 223.684 170.278 223.667C170.286 223.651 170.29 223.633 170.29 223.615C170.29 223.56 170.19 222.288 169.72 221.872C169.665 221.819 169.601 221.78 169.531 221.757C169.461 221.734 169.387 221.729 169.315 221.74C169.244 221.74 169.176 221.767 169.121 221.816C169.066 221.865 169.029 221.933 169.015 222.009C168.93 222.502 169.735 223.467 170.15 223.713L170.195 223.708ZM169.385 221.938C169.465 221.937 169.542 221.971 169.6 222.031C169.883 222.426 170.048 222.905 170.075 223.406C169.665 223.061 169.15 222.31 169.2 222.047C169.2 222.02 169.2 221.954 169.34 221.938H169.385Z" fill="#053D38"/>
<path d="M139 219.052C139.017 219.052 139.034 219.047 139.049 219.037C139.064 219.028 139.077 219.014 139.085 218.997C139.096 218.979 139.101 218.958 139.101 218.936C139.101 218.915 139.096 218.894 139.085 218.876C138.945 218.717 137.685 217.287 137.135 217.397C137.084 217.407 137.037 217.431 136.996 217.466C136.956 217.501 136.925 217.547 136.905 217.599C136.865 217.684 136.844 217.778 136.844 217.873C136.844 217.969 136.865 218.063 136.905 218.147C137.195 218.695 138.335 218.958 138.985 219.057L139 219.052ZM137.19 217.599C137.51 217.599 138.23 218.257 138.73 218.799C137.845 218.635 137.23 218.356 137.075 218.043C137.048 217.989 137.034 217.927 137.034 217.865C137.034 217.803 137.048 217.742 137.075 217.687C137.08 217.664 137.092 217.644 137.108 217.629C137.124 217.613 137.144 217.603 137.165 217.599H137.19Z" fill="#053D38"/>
<path d="M139 219.051H139.025C139.041 219.045 139.056 219.035 139.068 219.022C139.08 219.009 139.089 218.992 139.095 218.974C139.095 218.925 139.355 217.769 139.01 217.15C138.961 217.06 138.897 216.983 138.821 216.921C138.744 216.86 138.657 216.817 138.565 216.793C138.31 216.728 138.195 216.837 138.145 216.941C137.925 217.385 138.55 218.624 138.935 219.024C138.943 219.033 138.953 219.04 138.965 219.045C138.976 219.05 138.988 219.052 139 219.051ZM138.425 217.002H138.52C138.588 217.018 138.652 217.05 138.708 217.096C138.764 217.141 138.81 217.198 138.845 217.265C139.017 217.731 139.052 218.244 138.945 218.733C138.575 218.251 138.18 217.308 138.31 217.045C138.323 217.027 138.341 217.013 138.362 217.005C138.382 216.998 138.404 216.996 138.425 217.002Z" fill="#053D38"/>
<path d="M178.75 87.4844C179.285 88.2735 179.75 88.9749 180.2 89.7367C180.65 90.4984 181.1 91.2382 181.54 91.9999C182.41 93.5233 183.228 95.0924 183.995 96.7072C184.777 98.3406 185.479 100.018 186.1 101.732C186.77 103.535 187.282 105.403 187.63 107.311C187.72 107.815 187.79 108.336 187.845 108.862C187.845 108.9 187.845 109.065 187.875 109.169C187.905 109.273 187.875 109.41 187.875 109.514C187.875 109.739 187.875 109.952 187.875 110.15C187.85 110.518 187.803 110.884 187.735 111.246C187.499 112.362 187.128 113.438 186.63 114.446C185.81 116.125 184.851 117.717 183.765 119.203C182.73 120.638 181.655 121.986 180.535 123.274C179.415 124.562 178.265 125.79 177.01 126.979L174.43 124.441C176.115 121.625 177.855 118.764 179.325 115.915C180.044 114.571 180.672 113.172 181.205 111.728C181.405 111.186 181.543 110.619 181.615 110.04C181.624 109.976 181.624 109.912 181.615 109.848C181.55 109.525 181.485 109.196 181.395 108.856C181.006 107.407 180.516 105.993 179.93 104.626C179.315 103.201 178.64 101.76 177.9 100.34C177.16 98.9211 176.4 97.5128 175.585 96.1099C175.185 95.4158 174.777 94.7216 174.36 94.0275L173.125 92.0163L178.75 87.4844Z" fill="#263238"/>
<path d="M175.5 123.961L171.5 125.298L175.09 129.474C175.09 129.474 178.145 127.479 177.36 125.588L175.5 123.961Z" fill="#B55B52"/>
<path d="M169.875 128.472L172.775 131.661L175.11 129.475L171.52 125.305L169.875 128.472Z" fill="#B55B52"/>
<path opacity="0.3" d="M160.87 124.34C160.87 124.34 161.635 118.63 162.96 115.852C163.235 118.285 164.165 124.68 164.165 124.68L160.87 124.34Z" fill="white"/>
<path d="M44.4162 67.5753L43.9163 67.5859L44.1487 80.7355L44.6486 80.7249L44.4162 67.5753Z" fill="#053D38"/>
<path d="M44.7231 84.9425L44.2231 84.9531L44.3231 90.6074L44.823 90.5968L44.7231 84.9425Z" fill="#053D38"/>
<path d="M143.06 54.1953H45.425L47.995 200.391H145.63L143.06 54.1953Z" fill="#053D38"/>
<path opacity="0.8" d="M137.69 59.0078H51.425L53.8251 195.224H140.085L137.69 59.0078Z" fill="white"/>
<path d="M137.675 58.3203H51.415L54.92 194.531H141.185L137.675 58.3203Z" fill="white"/>
<path opacity="0.2" d="M76.4399 86.2123L81.0649 71.1094C83.9222 72.241 86.405 74.2842 88.1935 76.9759C89.9819 79.6676 90.9942 82.8845 91.0999 86.2123C91.2094 89.9514 90.0867 93.6088 87.9372 96.515C85.7878 99.4212 82.7554 101.382 79.3949 102.038L76.4399 86.2123Z" fill="#053D38"/>
<path d="M76.44 86.2103L79.395 102.037C78.5561 102.196 77.7064 102.277 76.855 102.278C72.9402 102.234 69.1908 100.541 66.3841 97.55C63.5774 94.5586 61.9288 90.498 61.78 86.2103C61.7244 84.1224 62.0519 82.0434 62.7429 80.0967C63.4339 78.15 64.4745 76.3751 65.8029 74.8773C67.1313 73.3794 68.7205 72.1891 70.4764 71.3768C72.2323 70.5645 74.1191 70.1468 76.025 70.1484C77.7435 70.1504 79.4487 70.4785 81.065 71.1184L76.44 86.2103Z" fill="#053D38"/>
<path opacity="0.2" d="M113 86.2103L112.635 70.1484C116.541 70.18 120.284 71.8669 123.08 74.8558C128.93 81.092 129.195 91.3506 123.665 97.5813C118.135 103.812 108.78 103.818 102.93 97.5813C100.748 95.2607 99.2531 92.2745 98.6399 89.0106L113 86.2103Z" fill="#053D38"/>
<path d="M113 86.2085L98.635 88.9978C98.1652 86.621 98.21 84.1565 98.7658 81.802C99.3216 79.4475 100.373 77.2685 101.836 75.4395C103.298 73.6106 105.131 72.1827 107.188 71.2702C109.245 70.3577 111.468 69.986 113.68 70.185L113 86.2085Z" fill="#053D38"/>
<path d="M131.03 181.973H63.595L62.71 147.755L63.245 147.75L64.11 181.386H131.015L131.03 181.973Z" fill="#053D38"/>
<path d="M131 181.016C131.16 181.017 131.313 181.086 131.426 181.209C131.54 181.332 131.606 181.498 131.61 181.673C131.613 181.759 131.6 181.844 131.571 181.925C131.543 182.005 131.5 182.077 131.446 182.139C131.391 182.2 131.326 182.249 131.253 182.282C131.181 182.315 131.103 182.332 131.025 182.331C130.864 182.331 130.71 182.262 130.595 182.139C130.48 182.016 130.414 181.849 130.41 181.673C130.409 181.587 130.423 181.502 130.452 181.422C130.481 181.343 130.524 181.27 130.579 181.209C130.634 181.148 130.7 181.099 130.772 181.066C130.844 181.033 130.922 181.016 131 181.016Z" fill="#053D38"/>
<path d="M63.58 147.777C63.5735 147.602 63.5054 147.436 63.3898 147.314C63.2742 147.193 63.1202 147.125 62.96 147.125C62.8819 147.126 62.8047 147.144 62.7329 147.177C62.6612 147.211 62.5964 147.261 62.5423 147.322C62.4883 147.384 62.4461 147.457 62.4182 147.537C62.3903 147.617 62.3773 147.703 62.38 147.788C62.3839 147.963 62.4506 148.13 62.5657 148.252C62.6807 148.374 62.8349 148.442 62.995 148.44C63.0735 148.44 63.1513 148.423 63.2236 148.389C63.2959 148.356 63.3613 148.307 63.4159 148.245C63.4705 148.183 63.5131 148.11 63.5413 148.029C63.5695 147.949 63.5827 147.863 63.58 147.777Z" fill="#053D38"/>
<path d="M65.9648 179.716L65.5798 179.305L73.5448 170.323H78.3048L80.4848 167.868H87.3398L101.665 151.713H105.045L109.95 156.941H113L121.96 146.836H130.125L130.135 147.417H122.195L113.235 157.522H109.74L104.835 152.294H101.895L87.5698 168.449H80.7148L78.5398 170.91H73.7748L65.9648 179.716Z" fill="#053D38"/>
<path d="M66.2299 179.949C66.1456 180.043 66.0378 180.107 65.9203 180.133C65.8027 180.159 65.6806 180.147 65.5696 180.097C65.4586 180.047 65.3637 179.962 65.2968 179.853C65.23 179.743 65.1943 179.615 65.1943 179.483C65.1943 179.352 65.23 179.223 65.2968 179.114C65.3637 179.005 65.4586 178.92 65.5696 178.87C65.6806 178.82 65.8027 178.807 65.9203 178.834C66.0378 178.86 66.1456 178.924 66.2299 179.018C66.3417 179.142 66.4043 179.309 66.4043 179.483C66.4043 179.658 66.3417 179.825 66.2299 179.949Z" fill="#053D38"/>
<path d="M130.115 147.784C130.193 147.784 130.27 147.767 130.342 147.734C130.414 147.7 130.479 147.652 130.534 147.59C130.588 147.529 130.631 147.456 130.66 147.377C130.688 147.297 130.702 147.212 130.7 147.126C130.696 146.951 130.63 146.785 130.516 146.662C130.402 146.54 130.25 146.47 130.09 146.469C130.012 146.469 129.934 146.486 129.862 146.519C129.789 146.552 129.724 146.601 129.669 146.662C129.614 146.723 129.571 146.796 129.542 146.876C129.513 146.955 129.499 147.041 129.5 147.126C129.505 147.302 129.572 147.468 129.687 147.591C129.801 147.713 129.955 147.783 130.115 147.784Z" fill="#053D38"/>
<g opacity="0.2">
<path d="M65.8799 176.473L65.4949 176.062L74.9999 165.337H82.8049L88.0949 170.982H94.0099L99.1749 165.151H105.815L107.98 162.713H114.385L118.79 157.742H120.95L131.005 168.467L130.64 168.878L120.74 158.329H119.02L114.615 163.299H108.215L106.05 165.738H99.4049L94.2399 171.563H87.8899L82.5949 165.924H75.2349L65.8799 176.473Z" fill="#053D38"/>
<path d="M66.145 176.704C66.061 176.799 65.9532 176.863 65.8354 176.89C65.7177 176.917 65.5953 176.905 65.4839 176.855C65.3724 176.806 65.2771 176.721 65.2099 176.611C65.1428 176.502 65.1069 176.373 65.1069 176.241C65.1069 176.109 65.1428 175.981 65.2099 175.871C65.2771 175.762 65.3724 175.677 65.4839 175.627C65.5953 175.577 65.7177 175.565 65.8354 175.592C65.9532 175.619 66.061 175.684 66.145 175.778C66.2007 175.839 66.245 175.911 66.2752 175.99C66.3055 176.07 66.321 176.155 66.321 176.241C66.321 176.327 66.3055 176.413 66.2752 176.492C66.245 176.572 66.2007 176.644 66.145 176.704Z" fill="#053D38"/>
<path d="M130.385 169.118C130.469 169.208 130.575 169.269 130.69 169.293C130.805 169.317 130.924 169.303 131.032 169.253C131.14 169.204 131.232 169.12 131.297 169.013C131.362 168.906 131.396 168.781 131.396 168.652C131.396 168.524 131.362 168.398 131.297 168.291C131.232 168.184 131.14 168.101 131.032 168.051C130.924 168.001 130.805 167.987 130.69 168.012C130.575 168.036 130.469 168.096 130.385 168.186C130.273 168.31 130.21 168.478 130.21 168.652C130.21 168.826 130.273 168.994 130.385 169.118Z" fill="#053D38"/>
</g>
<path d="M69.4151 120H62.2651L62.0601 112.164H69.2101L69.4151 120Z" fill="#053D38"/>
<path d="M106.23 117.503H73.625L73.55 114.664H106.155L106.23 117.503Z" fill="#E0E0E0"/>
<path d="M128.445 117.503H110.305L110.23 114.664H128.37L128.445 117.503Z" fill="#E0E0E0"/>
<path d="M92.6999 129.862H73.9399L73.8699 127.023H92.6249L92.6999 129.862Z" fill="#E0E0E0"/>
<path d="M120.395 129.862H96.775L96.7 127.023H120.325L120.395 129.862Z" fill="#E0E0E0"/>
<path opacity="0.2" d="M69.7299 132.36H62.5799L62.3799 124.523H69.5299L69.7299 132.36Z" fill="#053D38"/>
<path d="M129.625 100.641L171.045 126.221L170.525 127.224L129.38 101.117L129.625 100.641Z" fill="#E0E0E0"/>
</svg>
