<svg width="30" height="30" viewBox="0 0 30 30" fill="none" xmlns="http://www.w3.org/2000/svg">
<path d="M15.9375 2.44248V11.0153C15.9375 11.0775 15.9622 11.1371 16.0061 11.1811C16.0501 11.225 16.1097 11.2497 16.1719 11.2497H24.7447C24.7679 11.2497 24.7905 11.2429 24.8098 11.23C24.8291 11.2172 24.8441 11.1989 24.853 11.1776C24.8619 11.1562 24.8643 11.1327 24.8598 11.1099C24.8553 11.0872 24.8443 11.0663 24.8279 11.0499L16.1373 2.35927C16.1209 2.34295 16.1 2.33185 16.0773 2.32739C16.0545 2.32293 16.031 2.3253 16.0096 2.3342C15.9883 2.3431 15.97 2.35814 15.9572 2.37741C15.9443 2.39668 15.9375 2.41932 15.9375 2.44248Z" fill="#EE2D24"/>
<path d="M14.5312 13.125C14.4069 13.125 14.2877 13.0756 14.1998 12.9877C14.1119 12.8998 14.0625 12.7806 14.0625 12.6562V1.875H5.39062C5.20414 1.875 5.0253 1.94908 4.89344 2.08094C4.76158 2.2128 4.6875 2.39164 4.6875 2.57812V27.4219C4.6875 27.6084 4.76158 27.7872 4.89344 27.9191C5.0253 28.0509 5.20414 28.125 5.39062 28.125H24.6094C24.7959 28.125 24.9747 28.0509 25.1066 27.9191C25.2384 27.7872 25.3125 27.6084 25.3125 27.4219V13.125H14.5312ZM20.625 22.5H9.375V20.625H20.625V22.5ZM20.625 17.8125H9.375V15.9375H20.625V17.8125Z" fill="#EE2D24"/>
</svg>
