<svg width="40" height="40" viewBox="0 0 40 40" fill="none" xmlns="http://www.w3.org/2000/svg">
<path fill-rule="evenodd" clip-rule="evenodd" d="M33.3415 19.9999C33.3415 27.3683 27.3683 33.3415 19.9999 33.3415C12.6348 33.3336 6.66617 27.365 6.6582 19.9999C6.6582 12.6315 12.6315 6.6582 19.9999 6.6582C27.3683 6.6582 33.3415 12.6315 33.3415 19.9999ZM24.6972 21.4719C25.0748 21.3198 25.3295 20.9623 25.3499 20.5558C25.3299 20.1489 25.0751 19.7908 24.6972 19.6385L17.9319 16.2553C17.5836 16.0426 17.1452 16.0439 16.7981 16.2586C16.451 16.4732 16.254 16.8648 16.2887 17.2715V23.8378C16.2684 24.2418 16.4622 24.6266 16.799 24.8507C16.9621 24.9509 17.1501 25.0033 17.3415 25.0019C17.5472 24.9993 17.7494 24.9487 17.9319 24.854L24.6972 21.4719Z" fill="#3EB449"/>
<mask id="mask0_579_22664" style="mask-type:alpha" maskUnits="userSpaceOnUse" x="6" y="6" width="28" height="28">
<path fill-rule="evenodd" clip-rule="evenodd" d="M33.3415 19.9999C33.3415 27.3683 27.3683 33.3415 19.9999 33.3415C12.6348 33.3336 6.66617 27.365 6.6582 19.9999C6.6582 12.6315 12.6315 6.6582 19.9999 6.6582C27.3683 6.6582 33.3415 12.6315 33.3415 19.9999ZM24.6972 21.4719C25.0748 21.3198 25.3295 20.9623 25.3499 20.5558C25.3299 20.1489 25.0751 19.7908 24.6972 19.6385L17.9319 16.2553C17.5836 16.0426 17.1452 16.0439 16.7981 16.2586C16.451 16.4732 16.254 16.8648 16.2887 17.2715V23.8378C16.2684 24.2418 16.4622 24.6266 16.799 24.8507C16.9621 24.9509 17.1501 25.0033 17.3415 25.0019C17.5472 24.9993 17.7494 24.9487 17.9319 24.854L24.6972 21.4719Z" fill="white"/>
</mask>
<g mask="url(#mask0_579_22664)">
</g>
</svg>
