<svg width="28" height="29" viewBox="0 0 28 29" fill="none" xmlns="http://www.w3.org/2000/svg">
<path d="M22.4585 6.1532C22.3518 6.0641 22.2044 6.04165 22.076 6.09492L4.89189 13.1927C4.75138 13.2513 4.66049 13.3893 4.66213 13.5415C4.66377 13.6937 4.75762 13.8297 4.89936 13.8853L9.63021 15.7225C9.74644 15.7678 9.87761 15.7521 9.97987 15.6806L16.2558 11.2173C16.4152 11.102 16.6366 11.1301 16.7622 11.2815C16.8878 11.4329 16.8744 11.6557 16.7317 11.7911L11.5018 16.8305C11.4287 16.9009 11.3875 16.998 11.3875 17.0994V22.1299C11.388 22.2982 11.501 22.4454 11.6634 22.4894C11.8259 22.5334 11.9977 22.4633 12.083 22.3182L14.4492 18.265C14.5006 18.1776 14.6121 18.1468 14.701 18.1955L19.0538 20.5863C19.1572 20.6433 19.2813 20.6481 19.3888 20.5992C19.4962 20.5503 19.5742 20.4536 19.5992 20.3383L22.5877 6.51631C22.6139 6.38077 22.5644 6.24173 22.4585 6.1532Z" fill="#106FA4"/>
<mask id="mask0_4802_7851" style="mask-type:alpha" maskUnits="userSpaceOnUse" x="4" y="6" width="19" height="17">
<path d="M22.4585 6.1532C22.3518 6.0641 22.2044 6.04165 22.076 6.09492L4.89189 13.1927C4.75138 13.2513 4.66049 13.3893 4.66213 13.5415C4.66377 13.6937 4.75762 13.8297 4.89936 13.8853L9.63021 15.7225C9.74644 15.7678 9.87761 15.7521 9.97987 15.6806L16.2558 11.2173C16.4152 11.102 16.6366 11.1301 16.7622 11.2815C16.8878 11.4329 16.8744 11.6557 16.7317 11.7911L11.5018 16.8305C11.4287 16.9009 11.3875 16.998 11.3875 17.0994V22.1299C11.388 22.2982 11.501 22.4454 11.6634 22.4894C11.8259 22.5334 11.9977 22.4633 12.083 22.3182L14.4492 18.265C14.5006 18.1776 14.6121 18.1468 14.701 18.1955L19.0538 20.5863C19.1572 20.6433 19.2813 20.6481 19.3888 20.5992C19.4962 20.5503 19.5742 20.4536 19.5992 20.3383L22.5877 6.51631C22.6139 6.38077 22.5644 6.24173 22.4585 6.1532Z" fill="white"/>
</mask>
<g mask="url(#mask0_4802_7851)">
</g>
</svg>
