<svg width="550" height="550" viewBox="0 0 550 550" fill="none" xmlns="http://www.w3.org/2000/svg">
<path d="M550 420.64H0V420.915H550V420.64Z" fill="#EBEBEB"/>
<path d="M494.89 438.339H458.458V438.614H494.89V438.339Z" fill="#EBEBEB"/>
<path d="M364.342 441.331H354.783V441.606H364.342V441.331Z" fill="#EBEBEB"/>
<path d="M457.358 428.131H436.249V428.406H457.358V428.131Z" fill="#EBEBEB"/>
<path d="M105.215 429.979H57.7061V430.254H105.215V429.979Z" fill="#EBEBEB"/>
<path d="M121.979 429.979H115.016V430.254H121.979V429.979Z" fill="#EBEBEB"/>
<path d="M247.665 434.621H144.617V434.896H247.665V434.621Z" fill="#EBEBEB"/>
<path d="M260.7 371.58H48.3013C46.6373 371.577 45.0426 370.914 43.867 369.736C42.6915 368.559 42.0312 366.963 42.0313 365.299V66.726C42.0457 65.0716 42.7124 63.4898 43.8863 62.324C45.0603 61.1583 46.6468 60.5028 48.3013 60.5H260.7C262.366 60.5 263.964 61.1617 265.142 62.3397C266.32 63.5176 266.981 65.1152 266.981 66.781V365.299C266.981 366.965 266.32 368.562 265.142 369.74C263.964 370.918 262.366 371.58 260.7 371.58ZM48.3013 60.72C46.7103 60.7229 45.1854 61.357 44.0615 62.483C42.9375 63.609 42.3062 65.135 42.3063 66.726V365.299C42.3062 366.89 42.9375 368.416 44.0615 369.542C45.1854 370.668 46.7103 371.302 48.3013 371.305H260.7C262.292 371.302 263.818 370.668 264.944 369.543C266.07 368.417 266.703 366.891 266.706 365.299V66.726C266.703 65.134 266.07 63.608 264.944 62.4823C263.818 61.3566 262.292 60.7229 260.7 60.72H48.3013Z" fill="#EBEBEB"/>
<path d="M498.641 371.58H286.231C284.566 371.577 282.97 370.914 281.793 369.737C280.616 368.56 279.953 366.964 279.95 365.299V66.726C279.968 65.0706 280.637 63.4888 281.812 62.3234C282.988 61.1579 284.576 60.5028 286.231 60.5H498.641C500.294 60.5057 501.877 61.1625 503.049 62.3279C504.221 63.4933 504.886 65.0735 504.9 66.726V365.299C504.9 366.961 504.241 368.555 503.068 369.733C501.895 370.91 500.303 371.574 498.641 371.58ZM286.231 60.72C284.639 60.7229 283.113 61.3566 281.988 62.4823C280.862 63.608 280.228 65.134 280.225 66.726V365.299C280.228 366.891 280.862 368.417 281.988 369.543C283.113 370.668 284.639 371.302 286.231 371.305H498.641C500.233 371.302 501.759 370.668 502.885 369.543C504.011 368.417 504.644 366.891 504.647 365.299V66.726C504.644 65.134 504.011 63.608 502.885 62.4823C501.759 61.3566 500.233 60.7229 498.641 60.72H286.231Z" fill="#EBEBEB"/>
<path d="M297.836 419.452H446.666V201.234L297.836 201.234V419.452Z" fill="#F0F0F0"/>
<path d="M303.094 248.413L441.408 248.413V208.109H303.094V248.413Z" fill="#E0E0E0"/>
<path d="M433.554 248.413H441.408V214.632H433.554V248.413Z" fill="#EBEBEB"/>
<path d="M395.56 248.413H403.414V214.632H395.56V248.413Z" fill="#EBEBEB"/>
<path d="M346.699 247.066L354.438 248.4L360.177 215.11L352.437 213.776L346.699 247.066Z" fill="#EBEBEB"/>
<path d="M423.819 248.413H431.673V219.087H423.819V248.413Z" fill="#EBEBEB"/>
<path d="M405.757 248.413H413.611V219.087H405.757V248.413Z" fill="#EBEBEB"/>
<path d="M360.173 248.413H368.027V219.087H360.173V248.413Z" fill="#EBEBEB"/>
<path d="M378.896 246.696L386.562 248.4L392.925 219.773L385.258 218.069L378.896 246.696Z" fill="#EBEBEB"/>
<path d="M417.021 248.413H420.948V212.96H417.021V248.413Z" fill="#EBEBEB"/>
<path d="M370.293 248.413H374.22V212.96H370.293V248.413Z" fill="#EBEBEB"/>
<path d="M441.408 254.793H303.094V295.097H441.408V254.793Z" fill="#E0E0E0"/>
<path d="M310.948 261.316H303.094V295.097H310.948V261.316Z" fill="#EBEBEB"/>
<path d="M348.942 261.316H341.088V295.097H348.942V261.316Z" fill="#EBEBEB"/>
<path d="M392.085 260.454L384.345 261.788L390.083 295.078L397.823 293.744L392.085 260.454Z" fill="#EBEBEB"/>
<path d="M320.683 265.771H312.829V295.097H320.683V265.771Z" fill="#EBEBEB"/>
<path d="M338.745 265.771H330.891V295.097H338.745V265.771Z" fill="#EBEBEB"/>
<path d="M384.329 265.771H376.475V295.097H384.329V265.771Z" fill="#EBEBEB"/>
<path d="M359.279 264.741L351.612 266.445L357.975 295.073L365.642 293.369L359.279 264.741Z" fill="#EBEBEB"/>
<path d="M327.481 259.644H323.554V295.097H327.481V259.644Z" fill="#EBEBEB"/>
<path d="M374.209 259.644H370.282V295.097H374.209V259.644Z" fill="#EBEBEB"/>
<path d="M433.554 295.097H441.408V261.316H433.554V295.097Z" fill="#EBEBEB"/>
<path d="M423.819 295.097H431.673V265.771H423.819V295.097Z" fill="#EBEBEB"/>
<path d="M405.757 295.097H413.611V265.771H405.757V295.097Z" fill="#EBEBEB"/>
<path d="M417.021 295.097H420.948V259.644H417.021V295.097Z" fill="#EBEBEB"/>
<path d="M303.094 341.781H441.408V301.477H303.094V341.781Z" fill="#E0E0E0"/>
<path d="M354.167 341.781H362.021V308H354.167V341.781Z" fill="#EBEBEB"/>
<path d="M305.307 340.43L313.047 341.764L318.785 308.474L311.045 307.139L305.307 340.43Z" fill="#EBEBEB"/>
<path d="M382.426 341.781H390.28V312.455H382.426V341.781Z" fill="#EBEBEB"/>
<path d="M364.364 341.781H372.218V312.455H364.364V341.781Z" fill="#EBEBEB"/>
<path d="M318.78 341.781H326.634V312.455H318.78V341.781Z" fill="#EBEBEB"/>
<path d="M337.501 340.06L345.168 341.764L351.53 313.136L343.863 311.432L337.501 340.06Z" fill="#EBEBEB"/>
<path d="M375.628 341.781H379.555V306.328H375.628V341.781Z" fill="#EBEBEB"/>
<path d="M328.9 341.781H332.827V306.328H328.9V341.781Z" fill="#EBEBEB"/>
<path d="M395.71 340.431L403.45 341.766L409.188 308.476L401.449 307.141L395.71 340.431Z" fill="#EBEBEB"/>
<path d="M409.178 341.781H417.032V312.455H409.178V341.781Z" fill="#EBEBEB"/>
<path d="M427.907 340.064L435.574 341.768L441.937 313.14L434.27 311.436L427.907 340.064Z" fill="#EBEBEB"/>
<path d="M419.287 341.781H423.214V306.328H419.287V341.781Z" fill="#EBEBEB"/>
<path d="M472.34 201.245H446.666V420.024H472.34V201.245Z" fill="#E0E0E0"/>
<path d="M114.862 154.264C114.862 154.264 113.575 145.772 119.768 140.316C125.961 134.86 125.422 131.626 123.651 131.208C121.88 130.79 120.252 136.235 117.524 137.731C117.524 137.731 117.436 129.965 120.208 127.105C122.98 124.245 124.421 116.875 121.792 116.743C119.163 116.611 118.888 121.143 118.338 124.311C117.788 127.479 114.862 132.011 114.862 132.011C114.862 132.011 114.29 125.059 112.497 122.199C110.704 119.339 115.478 112.794 113.597 109.934C111.716 107.074 108.493 112.53 108.757 118.657C109.021 124.784 113.157 131.329 112.167 137.731C112.167 137.731 110.363 133.232 108.746 132.825C107.129 132.418 105.446 129.437 104.346 128.337C103.246 127.237 101.893 131.054 104.346 134.596C106.799 138.138 113.069 147.609 112.112 155.276L114.862 154.264Z" fill="#E6E6E6"/>
<path d="M118.569 150.403L120.593 163.141C120.741 164.066 120.687 165.011 120.434 165.913C120.18 166.814 119.735 167.65 119.127 168.362C118.519 169.075 117.764 169.646 116.914 170.038C116.064 170.43 115.138 170.633 114.202 170.632H112.002C111.065 170.635 110.138 170.433 109.287 170.042C108.435 169.651 107.678 169.079 107.07 168.367C106.461 167.654 106.014 166.818 105.76 165.916C105.506 165.013 105.452 164.067 105.6 163.141L107.624 150.403H118.569Z" fill="#E6E6E6"/>
<path d="M87.8568 173.305L231.341 173.305V165.935L87.8568 165.935V173.305Z" fill="#E0E0E0"/>
<path d="M218.416 165.935H224.741V138.765H218.416V165.935Z" fill="#EBEBEB"/>
<path d="M187.858 165.935H194.183V138.765H187.858V165.935Z" fill="#EBEBEB"/>
<path d="M148.534 164.861L154.767 165.936L159.382 139.16L153.149 138.086L148.534 164.861Z" fill="#EBEBEB"/>
<path d="M210.584 165.935H216.909V142.34H210.584V165.935Z" fill="#EBEBEB"/>
<path d="M196.053 165.935H202.378V142.34H196.053V165.935Z" fill="#EBEBEB"/>
<path d="M159.379 165.935H165.704V142.34H159.379V165.935Z" fill="#EBEBEB"/>
<path d="M174.439 164.551L180.613 165.923L185.732 142.89L179.558 141.518L174.439 164.551Z" fill="#EBEBEB"/>
<path d="M205.128 165.924H208.285V137.401H205.128V165.924Z" fill="#EBEBEB"/>
<path d="M167.53 165.924H170.687V137.401H167.53V165.924Z" fill="#EBEBEB"/>
<path d="M231.352 220.968H87.8682V228.338H231.352V220.968Z" fill="#E0E0E0"/>
<path d="M100.793 193.798H94.4678V220.968H100.793V193.798Z" fill="#EBEBEB"/>
<path d="M131.362 193.798H125.037V220.968H131.362V193.798Z" fill="#EBEBEB"/>
<path d="M166.066 193.113L159.833 194.188L164.448 220.963L170.681 219.888L166.066 193.113Z" fill="#EBEBEB"/>
<path d="M108.625 197.373H102.3V220.968H108.625V197.373Z" fill="#EBEBEB"/>
<path d="M123.156 197.373H116.831V220.968H123.156V197.373Z" fill="#EBEBEB"/>
<path d="M159.83 197.373H153.505V220.968H159.83V197.373Z" fill="#EBEBEB"/>
<path d="M139.673 196.549L133.499 197.921L138.618 220.954L144.792 219.582L139.673 196.549Z" fill="#EBEBEB"/>
<path d="M114.081 192.445H110.924V220.968H114.081V192.445Z" fill="#EBEBEB"/>
<path d="M151.679 192.445H148.522V220.968H151.679V192.445Z" fill="#EBEBEB"/>
<path d="M217.58 199.463H186.78V220.726H217.58V199.463Z" fill="#EBEBEB"/>
<path d="M380.237 154.066C392.102 154.066 401.72 144.447 401.72 132.583C401.72 120.718 392.102 111.1 380.237 111.1C368.372 111.1 358.754 120.718 358.754 132.583C358.754 144.447 368.372 154.066 380.237 154.066Z" fill="#E0E0E0"/>
<path d="M380.237 150.854C390.328 150.854 398.508 142.673 398.508 132.583C398.508 122.492 390.328 114.312 380.237 114.312C370.146 114.312 361.966 122.492 361.966 132.583C361.966 142.673 370.146 150.854 380.237 150.854Z" fill="#F0F0F0"/>
<path d="M379.379 120.054V132.825L370.909 128.029" fill="#F0F0F0"/>
<path d="M379.379 133.925C379.191 133.922 379.006 133.873 378.84 133.782L370.37 128.986C370.117 128.843 369.93 128.605 369.852 128.324C369.774 128.044 369.81 127.744 369.952 127.49C370.023 127.363 370.119 127.251 370.233 127.162C370.347 127.072 370.478 127.006 370.619 126.967C370.759 126.928 370.905 126.917 371.049 126.935C371.194 126.953 371.333 127 371.459 127.072L378.279 130.933V120.054C378.279 119.762 378.395 119.483 378.601 119.276C378.808 119.07 379.088 118.954 379.379 118.954C379.671 118.954 379.951 119.07 380.157 119.276C380.363 119.483 380.479 119.762 380.479 120.054V132.825C380.479 133.117 380.363 133.397 380.157 133.603C379.951 133.809 379.671 133.925 379.379 133.925Z" fill="#E0E0E0"/>
<path d="M275 470.316C392.79 470.316 488.279 464.741 488.279 457.864C488.279 450.987 392.79 445.412 275 445.412C157.209 445.412 61.7207 450.987 61.7207 457.864C61.7207 464.741 157.209 470.316 275 470.316Z" fill="#F5F5F5"/>
<path d="M464.761 140.448H245.839V347.732H464.761V140.448Z" fill="#053D38"/>
<path opacity="0.7" d="M464.761 140.448H245.839V347.732H464.761V140.448Z" fill="white"/>
<path d="M464.761 140.448H245.839V150.997H464.761V140.448Z" fill="#053D38"/>
<path opacity="0.2" d="M464.76 151.008H457.522V347.93H464.76V151.008Z" fill="black"/>
<path opacity="0.6" d="M461.549 155.672H460.889C459.868 155.672 459.041 156.499 459.041 157.52V181.258C459.041 182.278 459.868 183.106 460.889 183.106H461.549C462.57 183.106 463.397 182.278 463.397 181.258V157.52C463.397 156.499 462.57 155.672 461.549 155.672Z" fill="white"/>
<path opacity="0.2" d="M452.738 287.1H250.338C250.193 287.097 250.055 287.038 249.952 286.936C249.85 286.833 249.791 286.695 249.788 286.55C249.788 286.404 249.846 286.264 249.949 286.161C250.052 286.058 250.192 286 250.338 286H452.738C452.884 286 453.024 286.058 453.127 286.161C453.23 286.264 453.288 286.404 453.288 286.55C453.288 286.696 453.23 286.836 453.127 286.939C453.024 287.042 452.884 287.1 452.738 287.1Z" fill="black"/>
<path opacity="0.2" d="M452.738 239.8H250.338C250.193 239.797 250.055 239.739 249.952 239.636C249.85 239.533 249.791 239.395 249.788 239.25C249.788 239.104 249.846 238.964 249.949 238.861C250.052 238.758 250.192 238.7 250.338 238.7H452.738C452.884 238.7 453.024 238.758 453.127 238.861C453.23 238.964 453.288 239.104 453.288 239.25C453.288 239.396 453.23 239.536 453.127 239.639C453.024 239.742 452.884 239.8 452.738 239.8Z" fill="black"/>
<path d="M452.749 155.661H250.393V186.604H452.749V155.661Z" fill="#053D38"/>
<path opacity="0.6" d="M462.241 145.728C462.241 146.252 462.086 146.765 461.795 147.201C461.503 147.637 461.089 147.977 460.605 148.177C460.121 148.378 459.588 148.43 459.073 148.328C458.559 148.226 458.087 147.973 457.716 147.603C457.345 147.232 457.093 146.76 456.99 146.245C456.888 145.731 456.941 145.198 457.141 144.714C457.342 144.229 457.682 143.815 458.118 143.524C458.554 143.233 459.066 143.077 459.59 143.077C460.294 143.077 460.968 143.356 461.465 143.854C461.962 144.351 462.241 145.025 462.241 145.728Z" fill="white"/>
<path opacity="0.6" d="M452.892 145.728C452.892 146.252 452.736 146.765 452.445 147.201C452.154 147.637 451.74 147.977 451.255 148.177C450.771 148.378 450.238 148.43 449.724 148.328C449.209 148.226 448.737 147.973 448.366 147.603C447.996 147.232 447.743 146.76 447.641 146.245C447.538 145.731 447.591 145.198 447.792 144.714C447.992 144.229 448.332 143.815 448.768 143.524C449.204 143.233 449.717 143.077 450.241 143.077C450.944 143.077 451.618 143.356 452.115 143.854C452.613 144.351 452.892 145.025 452.892 145.728Z" fill="white"/>
<path opacity="0.6" d="M443.542 145.728C443.542 146.252 443.387 146.765 443.095 147.201C442.804 147.637 442.39 147.977 441.906 148.177C441.421 148.378 440.888 148.43 440.374 148.328C439.86 148.226 439.387 147.973 439.017 147.603C438.646 147.232 438.393 146.76 438.291 146.245C438.189 145.731 438.241 145.198 438.442 144.714C438.643 144.229 438.982 143.815 439.418 143.524C439.854 143.233 440.367 143.077 440.891 143.077C441.594 143.077 442.269 143.356 442.766 143.854C443.263 144.351 443.542 145.025 443.542 145.728Z" fill="white"/>
<path opacity="0.4" d="M259.061 207.328C257.78 207.328 256.527 206.948 255.461 206.236C254.396 205.524 253.566 204.512 253.075 203.329C252.585 202.145 252.457 200.842 252.707 199.585C252.957 198.328 253.574 197.174 254.48 196.268C255.386 195.362 256.54 194.745 257.797 194.495C259.054 194.245 260.357 194.373 261.54 194.863C262.724 195.354 263.736 196.184 264.448 197.25C265.16 198.315 265.54 199.568 265.54 200.849C265.537 202.567 264.854 204.213 263.639 205.427C262.425 206.642 260.778 207.325 259.061 207.328Z" fill="black"/>
<path d="M259.852 198.385V203.302H258.752V199.298H257.773V198.385H259.852Z" fill="white"/>
<path opacity="0.4" d="M443.993 194.568H271.634C270.941 194.568 270.38 195.13 270.38 195.822V196.603C270.38 197.296 270.941 197.857 271.634 197.857H443.993C444.685 197.857 445.247 197.296 445.247 196.603V195.822C445.247 195.13 444.685 194.568 443.993 194.568Z" fill="black"/>
<path opacity="0.4" d="M443.993 203.115H271.634C270.941 203.115 270.38 203.677 270.38 204.369V205.15C270.38 205.843 270.941 206.404 271.634 206.404H443.993C444.685 206.404 445.247 205.843 445.247 205.15V204.369C445.247 203.677 444.685 203.115 443.993 203.115Z" fill="black"/>
<path opacity="0.4" d="M384.373 211.651H271.634C270.941 211.651 270.38 212.213 270.38 212.905V213.686C270.38 214.379 270.941 214.94 271.634 214.94H384.373C385.065 214.94 385.627 214.379 385.627 213.686V212.905C385.627 212.213 385.065 211.651 384.373 211.651Z" fill="black"/>
<path opacity="0.2" d="M273.394 231.044C275.052 231.044 276.397 229.7 276.397 228.041C276.397 226.383 275.052 225.038 273.394 225.038C271.735 225.038 270.391 226.383 270.391 228.041C270.391 229.7 271.735 231.044 273.394 231.044Z" fill="black"/>
<path d="M275.462 228.042C275.464 228.454 275.344 228.857 275.116 229.201C274.888 229.544 274.564 229.813 274.183 229.971C273.803 230.13 273.384 230.172 272.98 230.092C272.576 230.012 272.204 229.814 271.913 229.523C271.621 229.231 271.423 228.86 271.343 228.456C271.263 228.051 271.305 227.632 271.464 227.252C271.623 226.872 271.891 226.547 272.235 226.319C272.578 226.092 272.982 225.971 273.394 225.974C273.942 225.974 274.468 226.192 274.856 226.579C275.244 226.967 275.462 227.493 275.462 228.042Z" fill="white"/>
<path opacity="0.4" d="M312.312 226.402H283.206C282.514 226.402 281.952 226.964 281.952 227.656V228.437C281.952 229.13 282.514 229.691 283.206 229.691H312.312C313.005 229.691 313.566 229.13 313.566 228.437V227.656C313.566 226.964 313.005 226.402 312.312 226.402Z" fill="black"/>
<path opacity="0.2" d="M337.414 227.976C337.414 228.57 337.238 229.15 336.908 229.644C336.578 230.138 336.109 230.523 335.56 230.75C335.012 230.977 334.408 231.037 333.825 230.921C333.243 230.805 332.708 230.519 332.288 230.099C331.868 229.679 331.582 229.144 331.466 228.562C331.35 227.979 331.41 227.375 331.637 226.826C331.864 226.278 332.249 225.809 332.743 225.479C333.237 225.149 333.817 224.973 334.411 224.973C335.208 224.973 335.971 225.289 336.535 225.852C337.098 226.415 337.414 227.179 337.414 227.976Z" fill="black"/>
<path d="M336.49 227.975C336.492 228.387 336.372 228.79 336.145 229.133C335.918 229.477 335.594 229.745 335.214 229.904C334.835 230.063 334.416 230.106 334.012 230.027C333.608 229.948 333.237 229.751 332.945 229.46C332.653 229.17 332.454 228.799 332.373 228.396C332.292 227.992 332.332 227.574 332.489 227.193C332.646 226.813 332.913 226.487 333.255 226.258C333.597 226.029 333.999 225.907 334.411 225.907C334.961 225.907 335.488 226.125 335.877 226.512C336.267 226.9 336.487 227.426 336.49 227.975Z" fill="#053D38"/>
<path opacity="0.4" d="M373.351 226.336H344.234C343.541 226.336 342.979 226.897 342.979 227.59V228.371C342.979 229.064 343.541 229.625 344.234 229.625H373.351C374.043 229.625 374.604 229.064 374.604 228.371V227.59C374.604 226.897 374.043 226.336 373.351 226.336Z" fill="black"/>
<path opacity="0.2" d="M398.442 227.909C398.442 228.503 398.265 229.084 397.935 229.578C397.605 230.071 397.136 230.456 396.588 230.684C396.039 230.911 395.435 230.97 394.853 230.855C394.27 230.739 393.735 230.453 393.315 230.033C392.895 229.613 392.609 229.078 392.493 228.495C392.377 227.913 392.437 227.309 392.664 226.76C392.891 226.211 393.276 225.742 393.77 225.412C394.264 225.082 394.845 224.906 395.439 224.906C396.235 224.906 396.999 225.223 397.562 225.786C398.125 226.349 398.442 227.113 398.442 227.909Z" fill="black"/>
<path d="M397.517 227.909C397.517 228.32 397.395 228.722 397.167 229.064C396.939 229.406 396.614 229.672 396.234 229.83C395.854 229.987 395.436 230.028 395.033 229.948C394.629 229.868 394.259 229.67 393.968 229.379C393.678 229.088 393.48 228.718 393.399 228.315C393.319 227.911 393.36 227.493 393.518 227.113C393.675 226.734 393.941 226.409 394.283 226.18C394.625 225.952 395.027 225.83 395.438 225.83C395.99 225.83 396.519 226.049 396.908 226.439C397.298 226.829 397.517 227.358 397.517 227.909Z" fill="white"/>
<path opacity="0.4" d="M434.368 226.259H405.262C404.569 226.259 404.008 226.82 404.008 227.513V228.294C404.008 228.986 404.569 229.548 405.262 229.548H434.368C435.06 229.548 435.622 228.986 435.622 228.294V227.513C435.622 226.82 435.06 226.259 434.368 226.259Z" fill="black"/>
<path opacity="0.4" d="M259.061 262.13C262.639 262.13 265.54 259.229 265.54 255.651C265.54 252.073 262.639 249.172 259.061 249.172C255.483 249.172 252.582 252.073 252.582 255.651C252.582 259.229 255.483 262.13 259.061 262.13Z" fill="black"/>
<path d="M260.931 257.224V258.148H257.224V257.4L259.116 255.607C259.556 255.189 259.633 254.936 259.633 254.705C259.633 254.474 259.369 254.089 258.841 254.089C258.645 254.082 258.45 254.124 258.273 254.21C258.097 254.296 257.944 254.425 257.829 254.584L257.004 254.045C257.229 253.745 257.524 253.505 257.863 253.345C258.203 253.186 258.576 253.113 258.951 253.132C260.051 253.132 260.777 253.693 260.777 254.584C260.771 254.889 260.693 255.188 260.549 255.458C260.406 255.727 260.201 255.959 259.952 256.135L258.852 257.235L260.931 257.224Z" fill="white"/>
<path opacity="0.4" d="M443.993 249.403H271.634C270.941 249.403 270.38 249.965 270.38 250.657V251.438C270.38 252.131 270.941 252.692 271.634 252.692H443.993C444.685 252.692 445.247 252.131 445.247 251.438V250.657C445.247 249.965 444.685 249.403 443.993 249.403Z" fill="black"/>
<path opacity="0.4" d="M304.392 257.939H271.634C270.941 257.939 270.38 258.501 270.38 259.193V259.974C270.38 260.667 270.941 261.228 271.634 261.228H304.392C305.084 261.228 305.646 260.667 305.646 259.974V259.193C305.646 258.501 305.084 257.939 304.392 257.939Z" fill="black"/>
<path opacity="0.2" d="M273.394 277.2C275.052 277.2 276.397 275.856 276.397 274.197C276.397 272.539 275.052 271.194 273.394 271.194C271.735 271.194 270.391 272.539 270.391 274.197C270.391 275.856 271.735 277.2 273.394 277.2Z" fill="black"/>
<path d="M273.393 276.276C274.542 276.276 275.472 275.345 275.472 274.197C275.472 273.049 274.542 272.118 273.393 272.118C272.245 272.118 271.314 273.049 271.314 274.197C271.314 275.345 272.245 276.276 273.393 276.276Z" fill="white"/>
<path opacity="0.4" d="M312.312 272.559H283.206C282.514 272.559 281.952 273.12 281.952 273.813V274.594C281.952 275.286 282.514 275.848 283.206 275.848H312.312C313.005 275.848 313.566 275.286 313.566 274.594V273.813C313.566 273.12 313.005 272.559 312.312 272.559Z" fill="black"/>
<path opacity="0.2" d="M334.411 277.134C336.07 277.134 337.414 275.789 337.414 274.131C337.414 272.472 336.07 271.128 334.411 271.128C332.753 271.128 331.408 272.472 331.408 274.131C331.408 275.789 332.753 277.134 334.411 277.134Z" fill="black"/>
<path d="M334.411 276.211C335.559 276.211 336.49 275.28 336.49 274.132C336.49 272.984 335.559 272.053 334.411 272.053C333.263 272.053 332.332 272.984 332.332 274.132C332.332 275.28 333.263 276.211 334.411 276.211Z" fill="white"/>
<path opacity="0.4" d="M373.351 272.481H344.234C343.541 272.481 342.979 273.043 342.979 273.735V274.516C342.979 275.209 343.541 275.77 344.234 275.77H373.351C374.043 275.77 374.604 275.209 374.604 274.516V273.735C374.604 273.043 374.043 272.481 373.351 272.481Z" fill="black"/>
<path opacity="0.2" d="M398.442 274.065C398.442 274.659 398.265 275.24 397.935 275.734C397.605 276.228 397.136 276.613 396.588 276.84C396.039 277.067 395.435 277.127 394.853 277.011C394.27 276.895 393.735 276.609 393.315 276.189C392.895 275.769 392.609 275.234 392.493 274.651C392.377 274.069 392.437 273.465 392.664 272.916C392.891 272.368 393.276 271.899 393.77 271.569C394.264 271.239 394.845 271.063 395.439 271.062C396.235 271.062 396.999 271.379 397.562 271.942C398.125 272.505 398.442 273.269 398.442 274.065Z" fill="black"/>
<path d="M397.517 274.065C397.517 274.477 397.395 274.878 397.167 275.22C396.939 275.562 396.614 275.829 396.234 275.986C395.854 276.143 395.436 276.185 395.033 276.104C394.629 276.024 394.259 275.826 393.968 275.535C393.678 275.245 393.48 274.874 393.399 274.471C393.319 274.068 393.36 273.65 393.518 273.27C393.675 272.89 393.941 272.565 394.283 272.337C394.625 272.108 395.027 271.986 395.438 271.986C395.99 271.986 396.519 272.205 396.908 272.595C397.298 272.985 397.517 273.514 397.517 274.065Z" fill="#053D38"/>
<path opacity="0.4" d="M434.368 272.415H405.262C404.569 272.415 404.008 272.976 404.008 273.669V274.45C404.008 275.143 404.569 275.704 405.262 275.704H434.368C435.06 275.704 435.622 275.143 435.622 274.45V273.669C435.622 272.976 435.06 272.415 434.368 272.415Z" fill="black"/>
<path opacity="0.4" d="M259.061 309.716C257.78 309.716 256.527 309.336 255.461 308.624C254.396 307.912 253.566 306.9 253.075 305.716C252.585 304.532 252.457 303.23 252.707 301.973C252.957 300.716 253.574 299.562 254.48 298.655C255.386 297.749 256.54 297.132 257.797 296.882C259.054 296.632 260.357 296.761 261.54 297.251C262.724 297.741 263.736 298.572 264.448 299.637C265.16 300.703 265.54 301.955 265.54 303.237C265.54 304.955 264.857 306.603 263.642 307.818C262.427 309.033 260.779 309.716 259.061 309.716Z" fill="black"/>
<path d="M260.886 304.15C260.886 304.975 260.248 305.734 258.851 305.734C258.189 305.75 257.538 305.566 256.981 305.206L257.421 304.337C257.83 304.625 258.319 304.778 258.818 304.777C259.39 304.777 259.742 304.546 259.742 304.15C259.742 303.754 259.467 303.545 258.818 303.545H258.301V302.797L259.313 301.697H257.223V300.784H260.699V301.521L259.599 302.786C259.946 302.811 260.27 302.965 260.509 303.217C260.747 303.47 260.882 303.803 260.886 304.15Z" fill="white"/>
<path opacity="0.4" d="M443.993 296.945H271.634C270.941 296.945 270.38 297.507 270.38 298.199V298.98C270.38 299.673 270.941 300.234 271.634 300.234H443.993C444.685 300.234 445.247 299.673 445.247 298.98V298.199C445.247 297.507 444.685 296.945 443.993 296.945Z" fill="black"/>
<path opacity="0.4" d="M443.993 305.481H271.634C270.941 305.481 270.38 306.043 270.38 306.735V307.516C270.38 308.209 270.941 308.77 271.634 308.77H443.993C444.685 308.77 445.247 308.209 445.247 307.516V306.735C445.247 306.043 444.685 305.481 443.993 305.481Z" fill="black"/>
<path opacity="0.4" d="M357.973 314.028H271.634C270.941 314.028 270.38 314.59 270.38 315.282V316.063C270.38 316.756 270.941 317.317 271.634 317.317H357.973C358.665 317.317 359.227 316.756 359.227 316.063V315.282C359.227 314.59 358.665 314.028 357.973 314.028Z" fill="black"/>
<path opacity="0.4" d="M336.974 327.624H331.848C331.605 327.624 331.408 327.821 331.408 328.064V333.19C331.408 333.433 331.605 333.63 331.848 333.63H336.974C337.217 333.63 337.414 333.433 337.414 333.19V328.064C337.414 327.821 337.217 327.624 336.974 327.624Z" fill="black"/>
<path d="M336.699 332.916V328.351H332.134V332.916H336.699Z" fill="white"/>
<path opacity="0.4" d="M373.351 328.988H344.234C343.541 328.988 342.979 329.55 342.979 330.242V331.023C342.979 331.716 343.541 332.277 344.234 332.277H373.351C374.043 332.277 374.604 331.716 374.604 331.023V330.242C374.604 329.55 374.043 328.988 373.351 328.988Z" fill="black"/>
<path d="M334.168 331.947C334.134 331.948 334.099 331.942 334.067 331.928C334.035 331.915 334.006 331.895 333.981 331.87L332.881 330.836C332.83 330.783 332.802 330.712 332.802 330.638C332.802 330.565 332.83 330.494 332.881 330.44C332.907 330.414 332.938 330.393 332.972 330.378C333.006 330.364 333.042 330.356 333.079 330.356C333.116 330.356 333.153 330.364 333.187 330.378C333.221 330.393 333.252 330.414 333.277 330.44L334.212 331.287L335.807 329.395C335.854 329.339 335.921 329.303 335.995 329.295C336.068 329.288 336.141 329.31 336.198 329.357C336.255 329.404 336.291 329.471 336.298 329.544C336.305 329.617 336.283 329.691 336.236 329.747L334.399 331.848C334.351 331.902 334.284 331.938 334.212 331.947H334.168Z" fill="#053D38"/>
<path opacity="0.4" d="M398.002 327.559H392.876C392.633 327.559 392.436 327.756 392.436 327.999V333.125C392.436 333.368 392.633 333.565 392.876 333.565H398.002C398.245 333.565 398.442 333.368 398.442 333.125V327.999C398.442 327.756 398.245 327.559 398.002 327.559Z" fill="black"/>
<path d="M397.716 332.849V328.284H393.151V332.849H397.716Z" fill="white"/>
<path opacity="0.4" d="M434.368 328.911H405.262C404.569 328.911 404.008 329.473 404.008 330.165V330.946C404.008 331.639 404.569 332.2 405.262 332.2H434.368C435.06 332.2 435.622 331.639 435.622 330.946V330.165C435.622 329.473 435.06 328.911 434.368 328.911Z" fill="black"/>
<path d="M395.197 331.881C395.127 331.877 395.062 331.85 395.01 331.804L393.91 330.759C393.878 330.736 393.851 330.707 393.831 330.673C393.811 330.639 393.799 330.601 393.795 330.562C393.791 330.523 393.796 330.483 393.809 330.446C393.821 330.409 393.842 330.375 393.869 330.346C393.896 330.318 393.929 330.295 393.965 330.28C394.002 330.265 394.041 330.259 394.08 330.26C394.12 330.262 394.158 330.272 394.193 330.29C394.228 330.307 394.259 330.332 394.284 330.363L395.208 331.21L396.814 329.318C396.835 329.286 396.863 329.258 396.896 329.238C396.929 329.217 396.965 329.204 397.004 329.198C397.042 329.193 397.081 329.195 397.118 329.206C397.156 329.217 397.19 329.235 397.22 329.26C397.249 329.285 397.273 329.316 397.29 329.351C397.307 329.386 397.316 329.424 397.318 329.462C397.319 329.501 397.312 329.54 397.297 329.575C397.282 329.611 397.26 329.644 397.232 329.67L395.45 331.782C395.397 331.836 395.327 331.871 395.252 331.881H395.197Z" fill="#053D38"/>
<path opacity="0.4" d="M275.946 327.69H270.82C270.577 327.69 270.38 327.887 270.38 328.13V333.256C270.38 333.499 270.577 333.696 270.82 333.696H275.946C276.189 333.696 276.386 333.499 276.386 333.256V328.13C276.386 327.887 276.189 327.69 275.946 327.69Z" fill="black"/>
<path d="M275.671 332.981V328.416H271.106V332.981H275.671Z" fill="white"/>
<path opacity="0.4" d="M312.312 329.055H283.206C282.514 329.055 281.952 329.616 281.952 330.309V331.09C281.952 331.782 282.514 332.344 283.206 332.344H312.312C313.005 332.344 313.566 331.782 313.566 331.09V330.309C313.566 329.616 313.005 329.055 312.312 329.055Z" fill="black"/>
<path d="M260.095 170.148C260.046 169.306 260.252 168.469 260.685 167.744C261.118 167.02 261.758 166.443 262.523 166.087C263.288 165.731 264.143 165.613 264.975 165.748C265.808 165.883 266.581 166.265 267.195 166.844C267.808 167.424 268.233 168.174 268.415 168.998C268.597 169.822 268.527 170.682 268.215 171.465C267.903 172.249 267.362 172.921 266.664 173.394C265.965 173.868 265.141 174.12 264.297 174.119C263.756 174.151 263.215 174.071 262.706 173.886C262.197 173.701 261.732 173.413 261.338 173.041C260.945 172.669 260.631 172.221 260.418 171.723C260.204 171.226 260.094 170.69 260.095 170.148ZM266.695 170.148C266.686 169.674 266.538 169.213 266.268 168.822C265.998 168.432 265.619 168.13 265.178 167.954C264.737 167.779 264.254 167.737 263.789 167.835C263.325 167.933 262.9 168.166 262.567 168.504C262.235 168.843 262.01 169.272 261.92 169.738C261.831 170.204 261.881 170.686 262.065 171.124C262.248 171.562 262.557 171.935 262.952 172.198C263.347 172.461 263.811 172.601 264.286 172.601C264.609 172.611 264.931 172.553 265.231 172.433C265.531 172.313 265.803 172.132 266.03 171.902C266.257 171.671 266.434 171.397 266.55 171.095C266.667 170.794 266.72 170.471 266.706 170.148H266.695Z" fill="white"/>
<path d="M275.748 170.61V173.987H274.043V170.874C274.043 169.917 273.603 169.477 272.844 169.477C272.085 169.477 271.425 169.983 271.425 171.072V173.987H269.72V168.08H271.348V168.773C271.601 168.514 271.907 168.31 272.244 168.175C272.581 168.041 272.943 167.978 273.306 167.992C273.648 167.97 273.99 168.023 274.309 168.149C274.628 168.276 274.914 168.471 275.148 168.722C275.382 168.972 275.557 169.272 275.661 169.598C275.764 169.925 275.794 170.271 275.748 170.61Z" fill="white"/>
<path d="M277.299 165.848H279.004V173.988H277.299V165.848Z" fill="white"/>
<path d="M280.39 166.31C280.392 166.172 280.423 166.036 280.481 165.912C280.539 165.787 280.622 165.676 280.726 165.585C280.83 165.495 280.951 165.428 281.083 165.388C281.215 165.348 281.353 165.336 281.49 165.353C281.624 165.332 281.761 165.341 281.892 165.378C282.023 165.414 282.144 165.479 282.248 165.566C282.353 165.653 282.437 165.762 282.496 165.885C282.554 166.007 282.586 166.141 282.59 166.277C282.526 166.51 282.388 166.715 282.196 166.862C282.004 167.009 281.77 167.088 281.528 167.088C281.287 167.088 281.052 167.009 280.86 166.862C280.668 166.715 280.53 166.51 280.467 166.277L280.39 166.31ZM280.599 168.081H282.315V173.988H280.599V168.081Z" fill="white"/>
<path d="M289.938 170.61V173.987H288.2V170.874C288.2 169.917 287.76 169.477 287.001 169.477C286.242 169.477 285.593 169.983 285.593 171.072V173.987H283.877V168.08H285.516V168.773C285.767 168.513 286.07 168.309 286.406 168.174C286.741 168.039 287.102 167.977 287.463 167.992C287.807 167.966 288.153 168.017 288.475 168.142C288.796 168.266 289.086 168.461 289.323 168.712C289.561 168.963 289.739 169.263 289.845 169.591C289.951 169.92 289.983 170.268 289.938 170.61Z" fill="white"/>
<path d="M297.297 171.523H292.831C292.922 171.889 293.142 172.211 293.452 172.427C293.761 172.643 294.138 172.74 294.514 172.7C294.786 172.71 295.058 172.666 295.313 172.569C295.568 172.473 295.801 172.327 295.999 172.139L296.912 173.118C296.599 173.446 296.219 173.702 295.797 173.867C295.375 174.033 294.922 174.103 294.47 174.075C294.045 174.116 293.617 174.069 293.212 173.935C292.807 173.801 292.434 173.585 292.117 173.299C291.8 173.014 291.547 172.665 291.372 172.276C291.198 171.887 291.106 171.465 291.104 171.039C291.099 170.628 291.178 170.22 291.336 169.841C291.495 169.462 291.729 169.119 292.024 168.834C292.32 168.549 292.671 168.327 293.056 168.182C293.44 168.037 293.85 167.972 294.261 167.992C294.669 167.971 295.077 168.037 295.459 168.184C295.841 168.331 296.187 168.556 296.476 168.845C296.766 169.134 296.991 169.481 297.138 169.863C297.285 170.244 297.35 170.653 297.33 171.061C297.33 171.193 297.308 171.38 297.297 171.523ZM292.809 170.522H295.713C295.653 170.18 295.475 169.87 295.209 169.647C294.943 169.424 294.608 169.302 294.261 169.302C293.914 169.302 293.578 169.424 293.312 169.647C293.047 169.87 292.868 170.18 292.809 170.522Z" fill="white"/>
<path d="M303.281 167.751H300.828V166.31H307.516V167.751H305.063V173.988H303.281V167.751Z" fill="white"/>
<path d="M313.5 171.524H309.034C309.125 171.89 309.345 172.211 309.655 172.428C309.964 172.644 310.341 172.741 310.717 172.701C310.989 172.711 311.261 172.666 311.516 172.57C311.771 172.474 312.004 172.327 312.202 172.14L313.115 173.119C312.802 173.447 312.422 173.702 312 173.868C311.578 174.033 311.125 174.104 310.673 174.076C310.248 174.117 309.82 174.069 309.415 173.936C309.01 173.802 308.637 173.586 308.32 173.3C308.004 173.014 307.75 172.666 307.575 172.277C307.401 171.887 307.309 171.466 307.307 171.04C307.302 170.63 307.381 170.223 307.538 169.845C307.696 169.466 307.929 169.124 308.224 168.839C308.518 168.553 308.868 168.331 309.251 168.186C309.634 168.04 310.043 167.975 310.453 167.993C310.862 167.97 311.272 168.035 311.655 168.181C312.038 168.327 312.385 168.552 312.676 168.842C312.966 169.131 313.193 169.478 313.34 169.861C313.488 170.243 313.553 170.652 313.533 171.062C313.5 171.194 313.5 171.381 313.5 171.524ZM309.012 170.523H311.916C311.856 170.181 311.678 169.871 311.412 169.648C311.147 169.425 310.811 169.302 310.464 169.302C310.117 169.302 309.781 169.425 309.516 169.648C309.25 169.871 309.072 170.181 309.012 170.523Z" fill="white"/>
<path d="M314.094 173.437L314.666 172.216C315.291 172.579 316 172.772 316.723 172.777C317.515 172.777 317.823 172.568 317.823 172.249C317.823 171.281 314.248 172.249 314.248 169.906C314.248 168.806 315.26 167.992 316.987 167.992C317.773 167.977 318.551 168.154 319.253 168.509L318.681 169.73C318.166 169.434 317.581 169.282 316.987 169.29C316.217 169.29 315.887 169.532 315.887 169.84C315.887 170.852 319.451 169.84 319.451 172.205C319.451 173.305 318.428 174.075 316.668 174.075C315.768 174.094 314.88 173.874 314.094 173.437Z" fill="white"/>
<path d="M324.302 173.701C323.884 173.963 323.398 174.094 322.905 174.075C322.614 174.117 322.317 174.092 322.038 174.002C321.758 173.911 321.502 173.759 321.29 173.555C321.078 173.352 320.915 173.103 320.814 172.827C320.713 172.551 320.675 172.256 320.705 171.963V169.532H319.792V168.212H320.705V166.782H322.41V168.212H323.884V169.532H322.41V171.941C322.396 172.043 322.406 172.146 322.437 172.243C322.469 172.341 322.522 172.43 322.593 172.504C322.664 172.578 322.751 172.635 322.846 172.671C322.942 172.706 323.045 172.72 323.147 172.711C323.396 172.714 323.639 172.637 323.84 172.491L324.302 173.701Z" fill="white"/>
<path d="M440.973 177.424C444.38 174.017 444.38 168.494 440.973 165.088C437.566 161.681 432.043 161.681 428.637 165.088C425.23 168.494 425.23 174.017 428.637 177.424C432.043 180.83 437.566 180.831 440.973 177.424Z" fill="white"/>
<path opacity="0.2" d="M442.53 167.2L434.83 171.27V162.547C436.415 162.55 437.97 162.984 439.326 163.804C440.683 164.624 441.79 165.798 442.53 167.2Z" fill="black"/>
<path d="M418.429 439.758C418.429 439.758 423.181 417.285 414.524 405.119C405.867 392.953 422.345 404.976 424.248 416.372C424.248 416.372 427.086 396 418.682 381.678C410.278 367.356 425.997 379.104 427.339 393.877C427.339 393.877 429.913 375.705 426.052 365.486C422.191 355.267 428.901 361.845 431.486 368.247C434.071 374.649 430.683 390.5 430.683 390.5C430.683 390.5 437.415 361.185 443.795 363.517C450.175 365.849 434.258 385.055 432.058 395.043C432.058 395.043 439.571 381.601 445.258 384.406C450.945 387.211 436.458 388.597 429.77 408.606L427.449 418C427.449 418 434.368 404.734 438.889 408.925C443.41 413.116 425.48 420.332 421.289 440.44L418.429 439.758Z" fill="#263238"/>
<path d="M419.364 441.1C419.364 441.1 420.354 412.775 434.357 400.785C448.36 388.795 425.029 398.288 419.364 411.367C419.364 411.367 422.026 386.122 436.348 371.459C450.67 356.796 428.351 366.212 422.356 383.493C422.356 383.493 424.688 360.965 432.355 349.888C440.022 338.811 430.023 344.663 425.029 351.56C420.035 358.457 419.364 378.4 419.364 378.4C419.364 378.4 420.024 341.286 411.664 342.188C403.304 343.09 416.658 370.788 416.328 383.438C416.328 383.438 411.323 365.101 403.667 366.751C396.011 368.401 412.995 374.451 414.997 400.389V412.346C414.997 412.346 410.663 394.394 403.997 398.046C397.331 401.698 416.658 415.712 415.657 441.034L419.364 441.1Z" fill="#263238"/>
<path opacity="0.2" d="M419.364 441.1C419.364 441.1 420.354 412.775 434.357 400.785C448.36 388.795 425.029 398.288 419.364 411.367C419.364 411.367 422.026 386.122 436.348 371.459C450.67 356.796 428.351 366.212 422.356 383.493C422.356 383.493 424.688 360.965 432.355 349.888C440.022 338.811 430.023 344.663 425.029 351.56C420.035 358.457 419.364 378.4 419.364 378.4C419.364 378.4 420.024 341.286 411.664 342.188C403.304 343.09 416.658 370.788 416.328 383.438C416.328 383.438 411.323 365.101 403.667 366.751C396.011 368.401 412.995 374.451 414.997 400.389V412.346C414.997 412.346 410.663 394.394 403.997 398.046C397.331 401.698 416.658 415.712 415.657 441.034L419.364 441.1Z" fill="white"/>
<path d="M426.272 460.999H409.31C406.101 460.999 403.024 459.724 400.754 457.455C398.485 455.186 397.21 452.108 397.21 448.899V446.622H438.361V448.899C438.361 452.106 437.088 455.182 434.821 457.451C432.554 459.72 429.48 460.996 426.272 460.999Z" fill="#053D38"/>
<path d="M396.462 451.188H439.12C441.678 451.188 443.751 449.114 443.751 446.557V442.949C443.751 440.391 441.678 438.317 439.12 438.317H396.462C393.904 438.317 391.831 440.391 391.831 442.949V446.557C391.831 449.114 393.904 451.188 396.462 451.188Z" fill="#053D38"/>
<path opacity="0.2" d="M396.462 451.188H439.12C441.678 451.188 443.751 449.114 443.751 446.557V442.949C443.751 440.391 441.678 438.317 439.12 438.317H396.462C393.904 438.317 391.831 440.391 391.831 442.949V446.557C391.831 449.114 393.904 451.188 396.462 451.188Z" fill="white"/>
<path d="M188.881 306.317C188.728 306.635 188.661 306.988 188.689 307.34C188.716 307.692 188.837 308.03 189.039 308.32C189.24 308.61 189.515 308.841 189.835 308.99C190.156 309.139 190.51 309.199 190.861 309.166H242.957C243.823 309.124 244.659 308.833 245.363 308.328C246.068 307.822 246.611 307.124 246.928 306.317L257.928 274.527C258.038 274.231 258.094 273.918 258.093 273.603C258.092 273.332 258.033 273.064 257.922 272.816C257.811 272.569 257.649 272.347 257.447 272.166C257.245 271.985 257.007 271.848 256.749 271.764C256.491 271.68 256.218 271.65 255.948 271.678H203.885C203.019 271.72 202.184 272.011 201.479 272.516C200.775 273.022 200.231 273.72 199.914 274.527L188.881 306.317Z" fill="#263238"/>
<path d="M243.354 307.571C243.778 307.552 244.188 307.409 244.534 307.161C244.88 306.913 245.146 306.571 245.301 306.174L256.301 274.384C256.347 274.258 256.369 274.123 256.367 273.988C256.367 273.548 256.048 273.273 255.542 273.273H203.501C203.076 273.293 202.666 273.436 202.32 273.684C201.975 273.932 201.708 274.274 201.554 274.67L190.554 306.46C190.497 306.589 190.473 306.729 190.483 306.869C190.492 307.009 190.535 307.144 190.609 307.263C190.691 307.37 190.798 307.453 190.921 307.507C191.044 307.561 191.179 307.583 191.313 307.571H243.354Z" fill="#053D38"/>
<path opacity="0.8" d="M243.354 307.571C243.778 307.552 244.188 307.409 244.534 307.161C244.88 306.913 245.146 306.571 245.301 306.174L256.301 274.384C256.347 274.258 256.369 274.123 256.367 273.988C256.367 273.548 256.048 273.273 255.542 273.273H203.501C203.076 273.293 202.666 273.436 202.32 273.684C201.975 273.932 201.708 274.274 201.554 274.67L190.554 306.46C190.497 306.589 190.473 306.729 190.483 306.869C190.492 307.009 190.535 307.144 190.609 307.263C190.691 307.37 190.798 307.453 190.921 307.507C191.044 307.561 191.179 307.583 191.313 307.571H243.354Z" fill="white"/>
<path d="M166.584 306.812V308.275L176.902 310.926H242.715C243.202 310.926 243.669 310.733 244.014 310.388C244.358 310.044 244.552 309.577 244.552 309.089V306.812H166.584Z" fill="#263238"/>
<path opacity="0.2" d="M221.65 306.812V308.275L231.979 310.926H176.902L166.584 308.275V306.812H221.65Z" fill="white"/>
<g opacity="0.2">
<path d="M253.022 280.742H200.365L202.411 275H255.068L253.022 280.742Z" fill="#053D38"/>
</g>
<g opacity="0.1">
<path d="M250.382 288.134H197.725C197.571 288.134 197.494 288.013 197.549 287.848C197.579 287.771 197.63 287.703 197.696 287.653C197.762 287.602 197.84 287.571 197.923 287.562H250.591C250.734 287.562 250.811 287.694 250.756 287.848C250.73 287.928 250.68 287.998 250.613 288.049C250.546 288.1 250.466 288.13 250.382 288.134Z" fill="black"/>
</g>
<g opacity="0.1">
<path d="M247.5 296.197H194.843C194.689 296.197 194.612 296.065 194.667 295.911C194.698 295.832 194.75 295.763 194.818 295.713C194.887 295.662 194.968 295.632 195.052 295.625H247.709C247.863 295.625 247.94 295.746 247.885 295.911C247.854 295.99 247.802 296.059 247.734 296.109C247.666 296.16 247.585 296.19 247.5 296.197Z" fill="black"/>
</g>
<g opacity="0.1">
<path d="M244.629 304.26H191.972C191.818 304.26 191.741 304.128 191.796 303.974C191.822 303.893 191.871 303.821 191.938 303.768C192.004 303.716 192.085 303.684 192.17 303.677H244.827C244.981 303.677 245.058 303.809 245.003 303.974C244.974 304.052 244.924 304.12 244.858 304.171C244.791 304.222 244.712 304.252 244.629 304.26Z" fill="black"/>
</g>
<path d="M227.117 460.867H232.848L243.155 317.383H235.543L227.117 460.867Z" fill="#263238"/>
<path opacity="0.2" d="M227.106 460.867H232.848L242.649 324.511L243.155 317.614H235.543L235.136 324.511L227.106 460.867Z" fill="white"/>
<path opacity="0.2" d="M235.137 324.17H242.65L243.156 317.614H235.544L235.137 324.17Z" fill="black"/>
<path d="M185.02 460.867H190.751L191.686 317.383H184.085L185.02 460.867Z" fill="#263238"/>
<path opacity="0.3" d="M184.074 317.614L184.228 340.758L185.009 460.867H190.751L191.543 340.758L191.686 317.614H184.074Z" fill="white"/>
<path opacity="0.2" d="M184.074 317.614L184.228 341.022H191.543L191.686 317.614H184.074Z" fill="black"/>
<path d="M124.124 460.867H129.855L140.162 317.383H132.55L124.124 460.867Z" fill="#263238"/>
<path opacity="0.3" d="M124.124 460.867H129.855L139.667 324.511L140.162 317.614H132.55L132.143 324.511L124.124 460.867Z" fill="white"/>
<path opacity="0.2" d="M132.144 324.17H139.668L140.163 317.614H132.551L132.144 324.17Z" fill="black"/>
<path d="M292.733 460.867H298.464L290.038 317.383H282.426L292.733 460.867Z" fill="#263238"/>
<path opacity="0.3" d="M282.426 317.614L282.932 324.511L292.733 460.867H298.464L290.445 324.511L290.038 317.614H282.426Z" fill="white"/>
<path opacity="0.2" d="M290.038 317.614H282.426L282.932 324.17H290.445L290.038 317.614Z" fill="black"/>
<path d="M293.689 320.98H128.887C128.575 320.98 128.266 320.919 127.978 320.8C127.689 320.68 127.427 320.505 127.207 320.284C126.986 320.064 126.811 319.802 126.692 319.514C126.572 319.225 126.511 318.916 126.511 318.604V313.797H296.087V318.604C296.087 318.918 296.025 319.229 295.904 319.519C295.783 319.808 295.606 320.071 295.383 320.292C295.16 320.513 294.896 320.688 294.605 320.806C294.314 320.924 294.003 320.983 293.689 320.98Z" fill="#053D38"/>
<path opacity="0.2" d="M126.522 317.383H296.065V313.786H126.522V317.383Z" fill="black"/>
<path d="M122.969 314.721H299.618C300.155 314.721 300.67 314.508 301.05 314.128C301.429 313.748 301.642 313.234 301.642 312.697C301.642 312.16 301.429 311.645 301.05 311.266C300.67 310.886 300.155 310.673 299.618 310.673H122.969C122.433 310.673 121.918 310.886 121.538 311.266C121.159 311.645 120.945 312.16 120.945 312.697C120.945 313.234 121.159 313.748 121.538 314.128C121.918 314.508 122.433 314.721 122.969 314.721Z" fill="#053D38"/>
<path d="M293.975 305.58C294.052 307.327 293.733 309.068 293.04 310.673H252.791V309.716H253.605V301.4H252.791V300.443H293.04C293.729 302.065 294.048 303.82 293.975 305.58Z" fill="#263238"/>
<path opacity="0.2" d="M293.975 305.58C294.052 307.327 293.733 309.068 293.04 310.673H252.791V309.716H253.605V301.4H252.791V300.443H293.04C293.729 302.065 294.048 303.82 293.975 305.58Z" fill="white"/>
<path opacity="0.2" d="M272.438 305.58C272.515 307.327 272.195 309.068 271.503 310.673H252.803V309.716H253.617V301.4H252.803V300.443H271.503C272.191 302.065 272.511 303.82 272.438 305.58Z" fill="black"/>
<path opacity="0.8" d="M270.457 305.58C270.521 306.999 270.261 308.413 269.698 309.716H253.605V301.4H269.698C270.257 302.721 270.516 304.148 270.457 305.58Z" fill="white"/>
<path opacity="0.6" d="M287.419 305.581C287.497 307.327 287.177 309.068 286.484 310.674H278.993C279.686 309.068 280.006 307.327 279.928 305.581C279.996 303.831 279.677 302.088 278.993 300.477H286.484C287.168 302.088 287.487 303.831 287.419 305.581Z" fill="white"/>
<path d="M297.561 295.383C297.638 297.13 297.319 298.871 296.626 300.476H256.377V299.519H257.191V291.236H256.377V290.279H296.626C297.308 291.892 297.627 293.634 297.561 295.383Z" fill="#053D38"/>
<path opacity="0.2" d="M276.024 295.383C276.101 297.13 275.781 298.871 275.089 300.476H256.389V299.519H257.203V291.236H256.389V290.279H275.089C275.771 291.892 276.09 293.634 276.024 295.383Z" fill="black"/>
<path opacity="0.8" d="M274.043 295.383C274.107 296.802 273.847 298.216 273.284 299.519H257.191V291.236H273.284C273.838 292.546 274.097 293.962 274.043 295.383Z" fill="white"/>
<path opacity="0.2" d="M291.005 295.383C291.082 297.13 290.763 298.871 290.07 300.476H282.579C283.272 298.871 283.591 297.13 283.514 295.383C283.58 293.634 283.261 291.892 282.579 290.279H290.07C290.752 291.892 291.071 293.634 291.005 295.383Z" fill="black"/>
<path d="M162.525 436.337L158.983 452.727L150.59 452.584L154.099 436.337H162.525Z" fill="#EBB376"/>
<path opacity="0.2" d="M162.536 436.337L160.776 444.444L152.46 443.883L154.099 436.337H162.536Z" fill="black"/>
<path d="M160.248 452.309H160.424C160.424 452.309 160.611 452.375 160.633 452.397C160.643 452.401 160.654 452.404 160.666 452.404C160.677 452.404 160.689 452.401 160.699 452.397C161.413 452.626 162.151 452.774 162.899 452.837C163.452 452.938 164.022 452.824 164.494 452.518C164.649 452.386 164.761 452.21 164.816 452.015C164.871 451.819 164.866 451.611 164.802 451.418C164.786 451.292 164.74 451.172 164.667 451.068C164.594 450.965 164.497 450.881 164.384 450.824C163.58 450.691 162.756 450.842 162.052 451.253C162.55 450.736 162.843 450.055 162.877 449.339C162.846 449.17 162.76 449.016 162.633 448.9C162.506 448.785 162.344 448.715 162.173 448.701C162.01 448.671 161.843 448.676 161.683 448.714C161.522 448.752 161.37 448.822 161.238 448.921C160.358 449.68 160.215 452.056 160.215 452.221L160.248 452.309ZM161.15 451.825L160.985 451.924C160.932 451.015 161.179 450.115 161.689 449.361C161.746 449.306 161.813 449.265 161.887 449.238C161.961 449.212 162.04 449.201 162.118 449.207H162.217C162.492 449.207 162.558 449.394 162.558 449.515C162.378 450.427 161.879 451.246 161.15 451.825ZM161.271 452.243C162.283 451.682 163.724 451.077 164.263 451.319C164.317 451.346 164.364 451.386 164.398 451.436C164.433 451.486 164.454 451.544 164.461 451.605C164.491 451.726 164.49 451.854 164.457 451.975C164.425 452.097 164.361 452.208 164.274 452.298C163.9 452.65 162.8 452.628 161.271 452.243Z" fill="#053D38"/>
<path d="M160.05 451.286L150.645 450.703C150.567 450.694 150.488 450.701 150.412 450.722C150.336 450.744 150.266 450.78 150.205 450.829C150.143 450.878 150.092 450.939 150.054 451.008C150.017 451.077 149.993 451.153 149.985 451.231L149.061 458.656C149.04 459.046 149.171 459.429 149.428 459.723C149.685 460.016 150.047 460.198 150.436 460.229C153.736 460.372 155.298 460.284 159.434 460.504C163.109 460.895 166.806 461.027 170.5 460.9C174.009 460.559 173.58 457.094 172.062 456.929C168.476 456.522 163.724 453.882 161.469 451.88C161.074 451.531 160.575 451.322 160.05 451.286Z" fill="#263238"/>
<path d="M211.662 436.337L208.12 452.727L199.716 452.584L203.236 436.337H211.662Z" fill="#EBB376"/>
<path opacity="0.2" d="M211.662 436.337L209.902 444.444L201.586 443.883L203.225 436.337H211.662Z" fill="black"/>
<path d="M209.375 452.309H209.551C209.551 452.309 209.738 452.375 209.771 452.397C209.781 452.402 209.792 452.404 209.804 452.404C209.815 452.404 209.826 452.402 209.837 452.397C210.551 452.625 211.289 452.773 212.037 452.837C212.593 452.941 213.168 452.827 213.643 452.518C213.796 452.385 213.905 452.209 213.958 452.013C214.011 451.817 214.005 451.61 213.94 451.418C213.927 451.291 213.882 451.17 213.809 451.066C213.736 450.962 213.637 450.878 213.522 450.824C212.718 450.691 211.893 450.843 211.19 451.253C211.686 450.734 211.982 450.056 212.026 449.339C211.991 449.17 211.902 449.016 211.774 448.902C211.645 448.787 211.482 448.716 211.311 448.701C211.148 448.672 210.981 448.677 210.82 448.715C210.66 448.753 210.508 448.823 210.376 448.921C209.496 449.68 209.353 452.056 209.353 452.221L209.375 452.309ZM210.277 451.825L210.112 451.924C210.064 451.016 210.311 450.117 210.816 449.361C210.873 449.307 210.94 449.266 211.014 449.239C211.088 449.213 211.166 449.202 211.245 449.207H211.344C211.619 449.207 211.685 449.394 211.696 449.515C211.506 450.426 211.004 451.243 210.277 451.825ZM210.398 452.243C211.41 451.682 212.851 451.077 213.39 451.319C213.444 451.346 213.49 451.387 213.525 451.437C213.56 451.487 213.581 451.544 213.588 451.605C213.619 451.726 213.62 451.853 213.589 451.974C213.558 452.095 213.497 452.207 213.412 452.298C212.983 452.65 211.883 452.628 210.398 452.243Z" fill="#053D38"/>
<path d="M209.176 451.286L199.771 450.703C199.693 450.694 199.614 450.701 199.538 450.722C199.462 450.744 199.392 450.78 199.33 450.829C199.269 450.878 199.218 450.939 199.18 451.008C199.143 451.077 199.119 451.153 199.111 451.231L198.187 458.656C198.165 459.046 198.297 459.429 198.554 459.723C198.811 460.016 199.173 460.198 199.562 460.229C202.862 460.372 204.424 460.284 208.56 460.504C212.232 460.884 215.926 461.005 219.615 460.867C223.124 460.526 222.695 457.061 221.188 456.896C217.591 456.489 212.839 453.849 210.595 451.847C210.196 451.51 209.697 451.313 209.176 451.286Z" fill="#263238"/>
<path d="M177.584 405.141C174.387 417.47 170.299 429.551 165.352 441.287L150.018 440.121C150.018 440.121 156.31 415.547 158.587 393.041C159.995 379.148 159.874 367.653 155.804 366.762C153.241 366.19 147.257 366.212 139.579 366.388V337.788C161.117 342.188 182.545 350.548 184.173 357.236C186.45 366.663 182.468 386.595 177.584 405.141Z" fill="#053D38"/>
<path opacity="0.4" d="M177.584 405.141C174.387 417.47 170.299 429.551 165.352 441.287L150.018 440.121C150.018 440.121 156.31 415.547 158.587 393.041C159.995 379.148 159.874 367.653 155.804 366.762C153.241 366.19 147.257 366.212 139.579 366.388V337.788C161.117 342.188 182.545 350.548 184.173 357.236C186.45 366.663 182.468 386.595 177.584 405.141Z" fill="white"/>
<path opacity="0.2" d="M177.584 405.141C171.864 401.511 165.165 397.254 158.587 393.041C159.995 379.148 159.874 367.653 155.804 366.762C153.241 366.19 147.257 366.212 139.579 366.388V337.788C161.117 342.188 182.545 350.548 184.173 357.236C186.45 366.663 182.468 386.595 177.584 405.141Z" fill="black"/>
<path d="M169.202 334.982L170.555 324.125L126.665 316.898C126.665 316.898 112.31 345.399 119.339 359.281C125.774 372.063 194.37 364.451 204.93 366.75C215.49 369.049 199.1 440.109 199.1 440.109L214.5 441.286C214.5 441.286 238.194 377.354 233.321 357.246C231.176 348.479 195.008 336.863 169.202 334.982Z" fill="#053D38"/>
<path opacity="0.6" d="M169.202 334.982L170.555 324.125L126.665 316.898C126.665 316.898 112.31 345.399 119.339 359.281C125.774 372.063 194.37 364.451 204.93 366.75C215.49 369.049 199.1 440.109 199.1 440.109L214.5 441.286C214.5 441.286 238.194 377.354 233.321 357.246C231.176 348.479 195.008 336.863 169.202 334.982Z" fill="white"/>
<path d="M193.347 246.664C192.973 247.313 193.017 248.05 193.446 248.292C193.875 248.534 194.546 248.204 194.887 247.544C195.228 246.884 195.217 246.169 194.799 245.916C194.381 245.663 193.754 246.037 193.347 246.664Z" fill="#263238"/>
<path d="M192.654 243.155C192.564 243.111 192.488 243.042 192.434 242.957C192.392 242.848 192.393 242.728 192.436 242.62C192.479 242.512 192.561 242.424 192.665 242.374C193.305 242.082 194.006 241.947 194.708 241.982C195.41 242.016 196.094 242.219 196.702 242.572C196.798 242.633 196.867 242.729 196.894 242.84C196.92 242.951 196.903 243.068 196.845 243.166C196.779 243.262 196.677 243.329 196.562 243.351C196.447 243.374 196.328 243.351 196.229 243.287C195.747 243.016 195.207 242.864 194.654 242.843C194.102 242.822 193.552 242.932 193.05 243.166C192.988 243.195 192.92 243.209 192.851 243.207C192.782 243.206 192.715 243.187 192.654 243.155Z" fill="#263238"/>
<path d="M193.963 245.828C193.602 248.274 193.576 250.757 193.886 253.209C193.255 253.269 192.619 253.191 192.021 252.983C191.423 252.774 190.877 252.438 190.421 251.999L193.963 245.828Z" fill="#DE5753"/>
<path d="M190.025 255.024C189.761 255.343 189.497 255.651 189.211 255.937C187.608 257.62 185.527 258.772 183.249 259.237C182.673 259.357 182.088 259.435 181.5 259.468C179.956 259.571 178.408 259.328 176.97 258.758C175.531 258.187 174.238 257.302 173.184 256.168C172.239 255.135 171.51 253.923 171.039 252.604C168.993 247.104 171.039 242.704 174.02 235.103C174.678 233.307 175.785 231.708 177.235 230.46C178.685 229.212 180.43 228.356 182.305 227.974C184.179 227.591 186.12 227.694 187.944 228.274C189.767 228.854 191.411 229.891 192.72 231.286C198.682 237.512 194.7 249.051 190.025 255.024Z" fill="#E4897B"/>
<path opacity="0.2" d="M183.249 259.215C182.672 259.335 182.087 259.412 181.5 259.446C179.955 259.549 178.407 259.306 176.969 258.735C175.53 258.164 174.237 257.28 173.184 256.146C173.924 255.402 174.755 254.755 175.659 254.221C178.613 255.127 181.247 256.86 183.249 259.215Z" fill="black"/>
<path d="M158.466 259.501C159.214 264.891 170.984 266.904 170.984 266.904C170.984 266.904 176.792 269.544 177.034 267.245C174.625 264.462 174.361 262.031 175.197 259.908C175.749 258.621 176.553 257.458 177.562 256.487C178.105 255.928 178.678 255.4 179.278 254.903L175.681 240.163C173.096 245.762 164.252 258.709 158.466 259.501Z" fill="#E4897B"/>
<path d="M192.049 227.062C192.049 227.062 194.568 226.743 196.449 231.462C198.077 235.411 194.249 236.269 194.414 240.471C194.579 244.673 190.751 246.994 190.751 246.994C190.751 246.994 187.517 249.777 184.778 248.27C184.778 248.27 181.192 250.03 180.246 253.099C179.3 256.168 173.745 250.624 168.74 251.471C168.74 251.471 165.363 248.303 165.605 240.625C165.798 237.29 166.615 234.022 168.014 230.989C168.679 229.384 169.656 227.926 170.889 226.703C172.122 225.479 173.587 224.513 175.197 223.861C180.961 221.287 190.982 223.223 192.049 227.062Z" fill="#263238"/>
<path d="M184.129 245.982C183.959 246.743 183.96 247.532 184.131 248.293C184.302 249.054 184.639 249.767 185.119 250.382C186.34 251.713 188.298 250.019 189.101 247.687C189.783 245.608 190.025 242.352 188.232 241.989C186.439 241.626 184.514 243.738 184.129 245.982Z" fill="#E4897B"/>
<path d="M175.681 261.47C172.441 258.606 168.441 256.742 164.164 256.102C162.296 255.872 160.404 256.276 158.792 257.249C157.181 258.223 155.942 259.709 155.276 261.47L175.01 265.463L175.681 261.47Z" fill="#053D38"/>
<path d="M172.326 303.116L180.367 304.315C182.197 303.744 184.074 303.343 185.977 303.116C188.045 302.941 190.124 302.941 192.192 303.116C192.192 303.116 195.8 304.48 195.8 308C195.8 308 187.308 310.277 184.052 308.913L172.326 308V303.116Z" fill="#E4897B"/>
<path opacity="0.2" d="M172.326 303.116L180.367 304.315C182.197 303.744 184.074 303.343 185.977 303.116C188.045 302.941 190.124 302.941 192.192 303.116C192.192 303.116 195.8 304.48 195.8 308C195.8 308 187.308 310.277 184.052 308.913L172.326 308V303.116Z" fill="black"/>
<path d="M185.394 264C183.759 268.576 182.292 272.976 180.994 277.2C180.158 279.818 179.399 282.381 178.706 284.9C178.112 286.979 177.606 288.992 177.067 290.95C176.825 291.885 176.583 292.82 176.352 293.744C175.087 298.804 174.064 303.435 173.261 307.505C171.924 313.912 170.933 320.385 170.291 326.898L125.191 321.255C126.753 313.5 127.974 306.735 129.679 299.431C130.614 295.427 131.692 291.269 133.067 286.704C134.035 283.404 135.157 279.939 136.499 276.155C141.02 263.164 145.2 259.567 145.2 259.567C162.514 256.718 185.394 264 185.394 264Z" fill="#053D38"/>
<path d="M200.398 303.952L208.439 305.162C210.268 304.585 212.146 304.18 214.049 303.952C216.118 303.783 218.196 303.783 220.264 303.952C220.264 303.952 223.905 305.316 223.905 308.803C223.905 308.803 215.413 311.08 212.146 309.716L200.398 308.803V303.952Z" fill="#E4897B"/>
<path d="M148.39 440.836L166.65 442.046L169.334 434.159L149.215 433.213L148.39 440.836Z" fill="#053D38"/>
<path opacity="0.2" d="M148.39 440.836L166.65 442.046L169.334 434.159L149.215 433.213L148.39 440.836Z" fill="white"/>
<path d="M197.516 440.836L215.776 442.046L218.46 434.159L198.341 433.213L197.516 440.836Z" fill="#053D38"/>
<path opacity="0.2" d="M197.516 440.836L215.776 442.046L218.46 434.159L198.341 433.213L197.516 440.836Z" fill="white"/>
<path d="M125.048 321.838L145.387 324.511L146.047 321.508L125.675 318.549L125.048 321.838Z" fill="black"/>
<path d="M147.741 321.53L147.488 324.511L166.287 327.096V324.148L147.741 321.53Z" fill="black"/>
<path d="M167.453 324.312V327.095L170.181 327.459V324.764L167.453 324.312Z" fill="black"/>
<path opacity="0.2" d="M180.983 277.2C180.147 279.818 179.388 282.381 178.695 284.9C178.101 286.979 177.595 288.992 177.056 290.95C175.648 283.25 178.156 274.043 178.156 274.043L180.983 277.2Z" fill="black"/>
<path d="M184.03 266.596C187.704 267.333 189.607 292.853 190.421 296.23C191.136 299.178 208.439 305.162 208.439 305.162V309.309C208.439 309.309 189.299 308 184.8 306.152C180.301 304.304 177.584 279.103 177.584 279.103L184.03 266.596Z" fill="#E4897B"/>
<g opacity="0.2">
<path d="M185.394 264C183.759 268.576 182.292 272.976 180.994 277.2C180.158 279.818 179.399 282.381 178.706 284.9C178.112 286.979 177.606 288.992 177.067 290.95C176.825 291.885 176.583 292.82 176.352 293.744C175.087 298.804 174.064 303.435 173.261 307.505C171.924 313.912 170.933 320.385 170.291 326.898L125.191 321.255C126.753 313.5 127.974 306.735 129.679 299.431C130.614 295.427 131.692 291.269 133.067 286.704C134.035 283.404 135.157 279.939 136.499 276.155C141.02 263.164 145.2 259.567 145.2 259.567C162.514 256.718 185.394 264 185.394 264Z" fill="white"/>
</g>
<path d="M185.394 264C188.76 265.1 190.421 287.1 190.421 287.1L178.2 288.717L175.67 279.675C175.67 279.675 176.682 275.407 178.134 270.93C180.246 264.44 185.394 264 185.394 264Z" fill="#053D38"/>
<path d="M106.557 457.116C106.557 456.35 106.33 455.601 105.904 454.964C105.478 454.327 104.873 453.831 104.165 453.538C103.457 453.245 102.677 453.169 101.926 453.319C101.175 453.47 100.485 453.84 99.9437 454.382C99.4026 454.925 99.0347 455.616 98.8865 456.367C98.7384 457.119 98.8166 457.898 99.1114 458.606C99.4061 459.313 99.9041 459.917 100.542 460.341C101.181 460.765 101.93 460.99 102.696 460.988C103.204 460.988 103.707 460.888 104.177 460.693C104.646 460.498 105.072 460.213 105.431 459.853C105.789 459.494 106.073 459.067 106.267 458.597C106.46 458.127 106.559 457.624 106.557 457.116Z" fill="#263238"/>
<path opacity="0.2" d="M106.557 457.116C106.557 456.35 106.33 455.601 105.904 454.964C105.478 454.327 104.873 453.831 104.165 453.538C103.457 453.245 102.677 453.169 101.926 453.319C101.175 453.47 100.485 453.84 99.9437 454.382C99.4026 454.925 99.0347 455.616 98.8865 456.367C98.7384 457.119 98.8166 457.898 99.1114 458.606C99.4061 459.313 99.9041 459.917 100.542 460.341C101.181 460.765 101.93 460.99 102.696 460.988C103.204 460.988 103.707 460.888 104.177 460.693C104.646 460.498 105.072 460.213 105.431 459.853C105.789 459.494 106.073 459.067 106.267 458.597C106.46 458.127 106.559 457.624 106.557 457.116Z" fill="white"/>
<path d="M199.628 457.116C199.628 456.35 199.401 455.602 198.975 454.965C198.55 454.328 197.945 453.832 197.238 453.539C196.53 453.246 195.752 453.169 195 453.319C194.249 453.468 193.559 453.837 193.018 454.378C192.476 454.92 192.108 455.61 191.958 456.361C191.809 457.112 191.885 457.89 192.179 458.598C192.472 459.305 192.968 459.91 193.605 460.336C194.241 460.761 194.99 460.988 195.756 460.988C196.265 460.99 196.769 460.89 197.239 460.696C197.71 460.502 198.137 460.217 198.497 459.857C198.857 459.497 199.142 459.07 199.336 458.6C199.53 458.129 199.629 457.625 199.628 457.116Z" fill="#263238"/>
<path opacity="0.2" d="M199.628 457.116C199.628 456.35 199.401 455.602 198.975 454.965C198.55 454.328 197.945 453.832 197.238 453.539C196.53 453.246 195.752 453.169 195 453.319C194.249 453.468 193.559 453.837 193.018 454.378C192.476 454.92 192.108 455.61 191.958 456.361C191.809 457.112 191.885 457.89 192.179 458.598C192.472 459.305 192.968 459.91 193.605 460.336C194.241 460.761 194.99 460.988 195.756 460.988C196.265 460.99 196.769 460.89 197.239 460.696C197.71 460.502 198.137 460.217 198.497 459.857C198.857 459.497 199.142 459.07 199.336 458.6C199.53 458.129 199.629 457.625 199.628 457.116Z" fill="white"/>
<path opacity="0.2" d="M104.621 457.116C104.621 456.732 104.507 456.358 104.294 456.039C104.081 455.72 103.778 455.472 103.423 455.326C103.069 455.18 102.679 455.142 102.303 455.218C101.927 455.293 101.582 455.479 101.312 455.751C101.042 456.022 100.858 456.368 100.785 456.745C100.711 457.121 100.751 457.511 100.9 457.864C101.048 458.218 101.298 458.519 101.617 458.731C101.937 458.942 102.313 459.054 102.696 459.052C102.95 459.052 103.201 459.002 103.435 458.904C103.67 458.807 103.882 458.664 104.061 458.484C104.24 458.304 104.382 458.091 104.478 457.856C104.574 457.621 104.622 457.369 104.621 457.116Z" fill="white"/>
<path opacity="0.2" d="M195.756 459.052C196.826 459.052 197.692 458.185 197.692 457.116C197.692 456.046 196.826 455.18 195.756 455.18C194.687 455.18 193.82 456.046 193.82 457.116C193.82 458.185 194.687 459.052 195.756 459.052Z" fill="white"/>
<path d="M152.427 440.154V398.562H146.025V440.154C121.121 440.792 105.985 449.504 102.949 451.407C102.776 451.518 102.634 451.671 102.535 451.852C102.437 452.032 102.387 452.235 102.388 452.441V455.895C102.388 456.218 102.516 456.529 102.745 456.758C102.974 456.987 103.285 457.116 103.609 457.116C103.831 457.123 104.051 457.069 104.244 456.96C104.438 456.852 104.599 456.693 104.709 456.5L106.183 453.904C119.086 449.79 132.517 447.567 146.058 447.304V454.145C146.061 454.564 146.229 454.964 146.526 455.258C146.822 455.553 147.224 455.719 147.642 455.719H150.876C151.294 455.719 151.695 455.553 151.992 455.258C152.289 454.964 152.457 454.564 152.46 454.145V447.304C166 447.567 179.431 449.79 192.335 453.904L193.809 456.5C193.919 456.693 194.079 456.852 194.273 456.96C194.467 457.069 194.687 457.123 194.909 457.116C195.233 457.116 195.543 456.987 195.772 456.758C196.001 456.529 196.13 456.218 196.13 455.895V452.441C196.131 452.235 196.08 452.032 195.982 451.852C195.884 451.671 195.742 451.518 195.569 451.407C192.5 449.504 177.331 440.792 152.427 440.154Z" fill="#263238"/>
<path opacity="0.2" d="M152.427 440.154V398.562H146.025V440.154C121.121 440.792 105.985 449.504 102.949 451.407C102.776 451.518 102.634 451.671 102.535 451.852C102.437 452.032 102.387 452.235 102.388 452.441V455.895C102.388 456.218 102.516 456.529 102.745 456.758C102.974 456.987 103.285 457.116 103.609 457.116C103.831 457.123 104.051 457.069 104.244 456.96C104.438 456.852 104.599 456.693 104.709 456.5L106.183 453.904C119.086 449.79 132.517 447.567 146.058 447.304V454.145C146.061 454.564 146.229 454.964 146.526 455.258C146.822 455.553 147.224 455.719 147.642 455.719H150.876C151.294 455.719 151.695 455.553 151.992 455.258C152.289 454.964 152.457 454.564 152.46 454.145V447.304C166 447.567 179.431 449.79 192.335 453.904L193.809 456.5C193.919 456.693 194.079 456.852 194.273 456.96C194.467 457.069 194.687 457.123 194.909 457.116C195.233 457.116 195.543 456.987 195.772 456.758C196.001 456.529 196.13 456.218 196.13 455.895V452.441C196.131 452.235 196.08 452.032 195.982 451.852C195.884 451.671 195.742 451.518 195.569 451.407C192.5 449.504 177.331 440.792 152.427 440.154Z" fill="black"/>
<path d="M150.48 453.255H147.972C147.504 453.255 147.125 453.634 147.125 454.102V460.141C147.125 460.609 147.504 460.988 147.972 460.988H150.48C150.948 460.988 151.327 460.609 151.327 460.141V454.102C151.327 453.634 150.948 453.255 150.48 453.255Z" fill="#263238"/>
<path opacity="0.2" d="M150.48 453.255H147.972C147.504 453.255 147.125 453.634 147.125 454.102V460.141C147.125 460.609 147.504 460.988 147.972 460.988H150.48C150.948 460.988 151.327 460.609 151.327 460.141V454.102C151.327 453.634 150.948 453.255 150.48 453.255Z" fill="white"/>
<path d="M107.305 357.621H191.158C193.465 357.621 195.679 358.538 197.31 360.17C198.942 361.801 199.859 364.014 199.859 366.322V371.58H98.5928V366.3C98.5986 363.994 99.5194 361.785 101.153 360.158C102.786 358.531 104.999 357.618 107.305 357.621Z" fill="#053D38"/>
<path d="M134.706 323.059H190.454C191.137 323.037 191.816 323.175 192.437 323.461C193.058 323.747 193.603 324.174 194.03 324.708C194.457 325.242 194.754 325.868 194.897 326.536C195.04 327.205 195.025 327.897 194.854 328.559L184.8 371.591H182.501L190.993 333.839C191.141 333.183 191.138 332.501 190.985 331.846C190.832 331.191 190.533 330.579 190.109 330.056C189.686 329.533 189.15 329.113 188.541 328.827C187.932 328.541 187.266 328.397 186.593 328.405H135.85L134.706 323.059Z" fill="#263238"/>
<path d="M155.804 373.098V409.486C155.801 410.045 155.578 410.58 155.182 410.976C154.787 411.371 154.251 411.595 153.692 411.598H144.771C144.493 411.599 144.218 411.546 143.961 411.44C143.704 411.334 143.471 411.179 143.275 410.982C143.078 410.786 142.923 410.553 142.817 410.296C142.711 410.039 142.658 409.763 142.659 409.486V373.098H155.804Z" fill="#263238"/>
<path opacity="0.2" d="M155.815 373.098H142.659V388.212H155.815V373.098Z" fill="black"/>
<path d="M202.62 369.346V373.746C202.62 374.33 202.388 374.89 201.976 375.302C201.563 375.715 201.003 375.946 200.42 375.946H98.1199C97.5364 375.946 96.9769 375.715 96.5643 375.302C96.1517 374.89 95.9199 374.33 95.9199 373.746V369.346C95.9199 368.763 96.1517 368.203 96.5643 367.791C96.9769 367.378 97.5364 367.146 98.1199 367.146H200.42C201.003 367.146 201.563 367.378 201.976 367.791C202.388 368.203 202.62 368.763 202.62 369.346Z" fill="#263238"/>
<path d="M155.54 371.591H95.8322C95.8322 371.591 76.8682 340.043 76.8682 287.914V268.763C76.8682 264.97 78.3748 261.333 81.0565 258.651C83.7383 255.97 87.3756 254.463 91.1682 254.463H116.468C120.189 254.444 123.769 255.883 126.442 258.472C129.115 261.06 130.668 264.593 130.768 268.312C131.417 295.218 135.377 353.386 155.54 371.591Z" fill="#263238"/>
<path opacity="0.2" d="M142.406 371.591H98.5384C97.7064 371.593 96.8899 371.366 96.178 370.935C95.4661 370.504 94.8861 369.887 94.5014 369.149C90.1894 360.822 76.9014 331.584 76.9014 287.914V268.763C76.9014 264.97 78.408 261.333 81.0897 258.651C83.7715 255.97 87.4088 254.463 91.2014 254.463H113.08C116.796 254.461 120.367 255.906 123.036 258.491C125.705 261.076 127.263 264.598 127.38 268.312C128.04 292.303 131.263 341.286 146.322 364.441C146.806 365.136 147.086 365.953 147.131 366.798C147.176 367.644 146.984 368.485 146.577 369.228C146.171 369.971 145.565 370.585 144.828 371.003C144.091 371.42 143.253 371.624 142.406 371.591Z" fill="white"/>
<path opacity="0.2" d="M202.62 369.347V373.747C202.62 374.331 202.388 374.89 201.976 375.303C201.563 375.715 201.003 375.947 200.42 375.947H154.55C153.754 375.944 152.992 375.627 152.43 375.064C151.867 374.502 151.55 373.74 151.547 372.944V370.161C151.547 369.365 151.863 368.601 152.426 368.038C152.99 367.475 153.753 367.158 154.55 367.158H200.409C200.698 367.157 200.984 367.212 201.252 367.321C201.519 367.431 201.762 367.592 201.968 367.795C202.173 367.998 202.336 368.24 202.448 368.506C202.56 368.773 202.618 369.058 202.62 369.347Z" fill="black"/>
</svg>
