<svg width="48" height="49" viewBox="0 0 48 49" fill="none" xmlns="http://www.w3.org/2000/svg">
<rect y="0.420227" width="48" height="48" rx="24" fill="#FEDBD7"/>
<g clip-path="url(#clip0_806_8745)">
<path d="M27.0295 10.4233C27.2095 10.5433 27.2695 10.7233 27.2695 10.9033C27.2695 11.3232 27.2695 11.7432 27.2695 12.1631C27.3895 12.2831 27.3295 12.4031 27.3295 12.5231C27.3295 14.5028 27.3295 16.4826 27.3295 18.5223C27.3295 19.0623 27.1495 19.2423 26.5496 19.3022C25.1698 19.3022 23.7899 19.3022 22.4101 19.3022C22.1101 19.3022 21.8702 19.3622 21.6902 19.7222C21.5102 20.0821 21.2702 20.4421 21.0903 20.8021C20.8503 21.222 20.4903 21.222 20.2504 20.8021C20.0104 20.4421 19.8304 20.0821 19.5904 19.7222C19.4705 19.4822 19.2905 19.3622 18.9905 19.3622C17.6107 19.3622 16.1709 19.3622 14.791 19.3622C14.6711 19.3622 14.4311 19.4222 14.3711 19.2423C14.4911 19.1223 14.6111 19.1823 14.731 19.1823C15.031 19.1823 15.271 19.1823 15.5709 19.1823C15.7509 19.1823 15.8709 19.1823 15.8109 18.9423C15.7509 18.7023 15.8109 18.4623 15.8109 18.2224C15.8109 18.1024 15.8109 18.0424 15.8709 17.9824C15.9309 17.9224 16.0509 17.9224 16.1709 17.9224C16.9508 17.9224 17.6707 17.9224 18.4506 17.9224C19.0505 17.9224 19.6504 17.9224 20.1904 17.9224C21.9302 17.9224 23.6699 17.9224 25.4697 17.9224C25.5897 17.9224 25.7097 17.9224 25.7697 17.8024C25.8297 17.6824 25.7097 17.5625 25.6497 17.5025C24.8098 16.3626 24.0299 15.2227 23.19 14.0829C23.01 13.7229 22.7701 13.423 22.5301 13.123C22.2901 12.823 22.2301 12.823 22.0501 13.123C21.5702 13.8429 21.0303 14.5628 20.4903 15.2827C20.4303 15.2227 20.3704 15.4027 20.2504 15.5227C20.0704 15.5227 20.0104 15.3427 19.8904 15.2227C19.5305 14.7428 19.1705 14.2029 18.8105 13.7229C18.5706 13.423 18.5106 13.423 18.2706 13.7229C17.6107 14.6828 16.8908 15.6427 16.2309 16.6026C16.1709 16.6626 16.1109 17.0225 15.8709 16.7226C15.8709 15.6427 15.8109 14.6228 15.8709 13.543C15.9309 13.423 16.0509 13.423 16.1709 13.483C16.3508 13.483 16.4708 13.483 16.6508 13.423C17.3707 13.063 17.3707 12.2831 16.7108 11.8032C16.5308 11.6832 16.3508 11.6832 16.1709 11.6832C16.0509 11.6832 15.9909 11.6832 15.9309 11.6232C15.8709 11.3232 15.8709 11.0233 15.8709 10.7233C15.8709 10.5433 15.9909 10.4833 16.1109 10.4233C19.7704 10.4233 23.43 10.4233 27.0295 10.4233Z" fill="#26A5FD"/>
<path d="M15.9911 17.8624C16.051 18.2824 15.9311 18.7023 16.051 19.1223C15.5111 19.1223 14.9712 19.1223 14.4312 19.1223C14.2513 19.1823 14.1913 19.0623 14.1313 18.9423C14.0713 18.8223 14.0713 18.6423 14.0713 18.4623C14.0713 17.5625 14.0713 16.6626 14.0713 15.7627C14.0713 15.6427 14.0713 15.4627 14.1913 15.3427C14.1913 13.9029 14.1913 12.4031 14.1913 10.9633C14.1913 10.7233 14.1913 10.5433 14.4312 10.4233C15.0312 10.4233 15.5711 10.4233 16.171 10.4233C15.9311 10.6033 15.9911 10.8433 15.9911 11.0833C15.9911 11.2632 15.9911 11.4432 15.9911 11.6232C15.9911 11.7432 15.9311 11.7432 15.8711 11.8032C15.3311 12.2231 15.2711 12.823 15.8111 13.303C15.8711 13.363 15.9911 13.423 15.9911 13.483C15.9911 14.5628 15.9911 15.7027 15.9911 16.7826C16.051 16.9625 15.8711 17.0825 15.8111 17.2025C15.7511 17.2625 15.7511 17.3225 15.6911 17.3825C15.5711 17.6225 15.5711 17.6824 15.8111 17.7424C15.8711 17.8024 15.9311 17.8024 15.9911 17.8624Z" fill="#0592FB"/>
<path d="M14.1914 15.3428C14.1914 16.4226 14.1914 17.5025 14.1914 18.6423C14.1914 18.8823 14.1914 19.0623 14.4313 19.1823C14.5513 19.2423 14.6713 19.2423 14.7913 19.2423C16.2311 19.2423 17.7309 19.2423 19.1707 19.2423C19.4107 19.2423 19.5907 19.3023 19.7107 19.5422C19.9506 19.9622 20.1906 20.3821 20.4306 20.8021C20.6706 21.162 20.8505 21.162 21.0905 20.8021C21.3305 20.3821 21.6304 19.9622 21.8104 19.4822C21.9304 19.3023 21.9904 19.2423 22.1704 19.2423C23.6702 19.2423 25.11 19.2423 26.6098 19.2423C27.1498 19.2423 27.2697 19.1823 27.2697 18.5824C27.2697 16.5426 27.2697 14.5629 27.2697 12.5231C27.2697 12.4031 27.2697 12.2831 27.2697 12.1631C27.8097 12.2831 28.2896 12.4631 28.7696 12.6431C28.8295 12.7031 28.9495 12.7031 29.0095 12.7031C29.1295 12.8231 29.1295 12.9431 29.1295 13.063C29.1295 13.543 29.1295 14.0229 29.1295 14.5029C29.1295 14.6228 29.1295 14.6828 29.1295 14.8028C29.1895 14.9828 29.2495 15.1028 29.4295 15.1028C29.6094 15.1028 29.7294 14.9828 29.7894 14.8028C29.8494 14.6228 29.7894 14.3829 29.7894 14.1429C29.7894 13.8429 29.7894 13.603 29.7894 13.303C29.7894 13.183 29.8494 13.003 30.0294 13.123C30.8693 13.603 31.6492 14.0829 32.3691 14.6228C33.569 15.5827 34.6488 16.6626 35.4887 17.9224C35.4887 17.9824 35.5487 17.9824 35.6087 18.0424C35.7887 18.3424 35.7287 18.6423 35.6687 19.0023C35.6687 19.1223 35.4887 19.1223 35.3687 19.1223C35.0688 19.1223 34.7688 19.1223 34.4688 19.1223C34.3489 19.1223 34.2289 19.1223 34.1689 19.1223C33.9289 19.1223 33.7489 19.3023 33.7489 19.4822C33.7489 19.6622 33.8689 19.7822 34.1689 19.8422C34.4089 19.8422 34.5888 19.8422 34.8288 19.8422C35.0688 19.8422 35.2488 19.8422 35.4887 19.8422C35.8487 19.8422 36.2686 19.9022 36.5686 19.6022C37.0485 20.6821 37.4685 21.762 37.7084 22.9018C37.8284 23.5617 37.9484 24.1617 38.0084 24.8216C38.0684 25.3615 38.0684 25.9014 38.0684 26.5014C38.0084 27.7612 37.8284 28.9611 37.4085 30.1609C37.2285 30.2209 37.0485 30.2209 36.9285 30.2209C35.1888 30.2209 33.449 30.2209 31.7092 30.2209C31.5892 30.2209 31.4692 30.2209 31.3492 30.1609C31.2292 30.0409 31.2292 29.861 31.2292 29.681C31.2292 27.3413 31.2292 25.0616 31.2292 22.7218C31.2292 22.6019 31.2292 22.4819 31.2292 22.3619C31.2292 22.0619 31.0493 21.9419 30.8093 21.822C30.3294 21.702 30.3294 21.702 30.2694 21.162C30.1494 20.6821 30.0294 20.6221 29.3695 20.6221C29.0695 20.6221 28.7696 20.6221 28.4696 20.6221C28.1696 20.6221 27.9297 20.7421 27.8697 21.0421C27.8097 21.162 27.8097 21.222 27.8097 21.342C27.8097 21.642 27.7497 21.702 27.4497 21.702C27.1498 21.702 27.0898 21.642 27.0898 21.342C27.0898 21.282 27.0898 21.162 27.0898 21.102C26.9698 20.6821 26.8498 20.6221 26.4298 20.6221C26.3698 20.6221 26.2499 20.6221 26.1899 20.6221C25.8899 20.6221 25.5899 20.6221 25.29 20.6221C24.93 20.6221 24.6901 20.8021 24.6901 21.222C24.6901 21.402 24.75 21.582 24.5701 21.702C24.5101 21.762 24.3901 21.762 24.2701 21.762C23.1902 21.762 22.1104 21.762 21.0305 21.762C20.9705 21.762 20.9105 21.762 20.8505 21.762C20.7305 21.762 20.6706 21.642 20.6106 21.582C20.3706 21.282 20.0706 21.162 19.7107 21.162C19.5307 21.162 19.2907 21.162 19.1107 21.162C18.9908 21.162 18.8708 21.162 18.7508 21.0421C18.6308 20.5021 18.6308 20.5021 18.0309 20.5021C16.1111 20.5021 14.1314 20.5021 12.2116 20.5021C11.7916 20.5021 11.3717 20.5021 10.9518 20.5021C10.8318 20.5021 10.6518 20.5021 10.5918 20.3821C11.0717 19.3023 11.6117 18.2824 12.3316 17.3825C12.8715 16.6626 13.4714 15.9427 14.1914 15.3428Z" fill="#C3E1FE"/>
<path d="M20.4305 39.8197C19.5906 39.6397 18.8707 39.3997 18.0908 39.0398C16.2911 38.2599 14.7912 37.18 13.4114 35.8002C12.2715 34.6003 11.3717 33.2805 10.7117 31.7807C10.4718 31.2407 10.2918 30.7008 10.1118 30.1609C10.1718 30.0409 10.2918 30.0409 10.4118 30.0409C12.2715 30.0409 14.1313 30.0409 15.9911 30.0409C16.0511 30.0409 16.1111 30.0409 16.1711 30.0409C16.2311 30.0409 16.2911 30.1009 16.351 30.1609C16.651 30.4608 17.011 30.5808 17.4309 30.5808C17.8509 30.5808 18.2708 30.5808 18.6908 30.5808C18.7507 30.5808 18.8707 30.5808 18.9307 30.5808C19.5906 30.5808 20.2506 30.5808 20.9105 30.5808C21.0905 30.7008 21.0905 30.8808 21.0905 31.0608C21.2104 31.7207 21.6304 32.2006 22.2303 32.5006C22.4103 32.5606 22.5303 32.5606 22.7103 32.6206C22.7703 32.6806 22.8902 32.6806 22.8902 32.7406C22.8902 32.8006 22.9502 32.8605 22.9502 32.9205C22.9502 34.0004 22.9502 35.0803 22.9502 36.1601C22.9502 36.4001 22.8302 36.4601 22.6503 36.4601C22.3503 36.4601 22.1103 36.4601 21.8104 36.4601C21.2104 36.4601 21.0305 36.6401 20.9105 37.18C20.7905 37.8999 20.6105 38.6198 20.4905 39.3397C20.5505 39.5197 20.5505 39.6997 20.4305 39.8197Z" fill="#FEE4C1"/>
<path d="M31.3489 30.1609C33.3286 30.1609 35.3684 30.1609 37.3481 30.1609C36.8082 31.9007 35.9683 33.5205 34.8284 34.9003C33.4486 36.6401 31.7688 37.9599 29.789 38.8598C28.9492 39.2798 28.0493 39.5797 27.0894 39.7597C26.9694 39.6997 26.9694 39.5197 26.9094 39.3997C26.7894 38.6798 26.6094 37.9599 26.4895 37.18C26.3695 36.6401 26.1895 36.4601 25.5896 36.4601C25.2896 36.4601 24.9896 36.4601 24.7497 36.4601C24.5697 36.4601 24.4497 36.4001 24.4497 36.2201C24.4497 35.6802 24.4497 35.2003 24.4497 34.6603C24.4497 34.6003 24.4497 34.5403 24.5097 34.5403C24.6897 34.4204 24.8697 34.4804 25.0496 34.4804C25.1696 34.4804 25.2896 34.4804 25.4096 34.4804C25.7695 34.5403 26.0095 34.4204 26.1295 34.0604C26.1895 34.0604 26.1895 34.0004 26.2495 34.0004C27.0294 34.0004 27.8093 34.0004 28.5892 34.0004C28.6492 34.0004 28.7092 34.0004 28.7692 34.0604C28.8892 34.4804 29.1891 34.4804 29.5491 34.4804C30.9289 34.4804 32.3087 34.4804 33.6886 34.4804C34.1085 34.4804 34.1685 34.4204 34.2285 34.0004C34.2285 33.7005 34.2285 33.4005 34.2285 33.1005C34.2285 32.7406 34.1685 32.6806 33.7486 32.6806C32.6087 32.6806 31.4088 32.6806 30.269 32.6806C30.209 32.6806 30.089 32.6806 30.029 32.6806C29.789 32.6806 29.5491 32.6806 29.3091 32.6806C29.0691 32.6806 28.8892 32.7406 28.8892 32.9805C28.8892 33.0405 28.8292 33.0405 28.8292 33.1005C28.7692 33.1605 28.7092 33.1605 28.6492 33.1605C27.8693 33.1605 27.1494 33.1605 26.3695 33.1605C26.3095 33.1605 26.2495 33.1605 26.2495 33.1605C26.1295 32.8006 25.8295 32.6806 25.4696 32.6806C25.3496 32.5606 25.4696 32.5006 25.5896 32.4406C26.0695 32.0807 26.3095 31.6007 26.4295 31.0608C26.4895 30.7008 26.5494 30.7008 26.8494 30.7008C27.9893 30.7008 29.1291 30.7008 30.329 30.7008C30.6289 30.5808 31.0489 30.5808 31.3489 30.1609Z" fill="#FEE4C1"/>
<path d="M16.2309 30.1609C14.1912 30.1609 12.1514 30.1609 10.1117 30.1609C9.87171 29.441 9.69173 28.6611 9.57174 27.8812C9.45176 26.9813 9.39177 26.1414 9.45176 25.3015C9.51175 23.9817 9.69173 22.6618 10.1717 21.462C10.2917 21.582 10.2917 21.7619 10.2917 21.8819C10.2917 23.0818 10.2917 24.3416 10.2917 25.5415C10.2917 25.7214 10.2917 25.9014 10.4116 26.0214C10.5316 26.0814 10.6516 26.0814 10.8316 26.0814C11.9714 26.0814 13.1113 25.9614 14.1912 26.0214C14.6711 26.0214 15.1511 26.0214 15.691 26.0214C15.811 26.0214 15.991 26.0214 16.1109 26.0814C16.2309 26.2014 16.1709 26.3814 16.1709 26.5014C16.1709 27.4612 16.1709 28.4211 16.1709 29.321C16.1709 29.621 16.2909 29.8609 16.2309 30.1609Z" fill="#C3E1FE"/>
<path d="M24.4501 34.5404C24.4501 35.0803 24.4501 35.6203 24.4501 36.1602C24.4501 36.4002 24.5101 36.4602 24.7501 36.4602C25.05 36.4602 25.41 36.4602 25.7099 36.4602C26.1299 36.4602 26.4299 36.7001 26.4898 37.1201C26.6698 38.02 26.8498 38.9198 27.0298 39.8197C26.5498 39.9997 26.0699 39.9997 25.59 40.1197C25.47 39.9997 25.47 39.8797 25.47 39.7597C25.35 39.2798 25.29 38.7999 25.17 38.3199C25.17 38.1999 25.11 38.02 24.93 38.02C24.6901 38.02 24.5701 38.0799 24.5701 38.3199C24.5701 38.8599 24.5701 39.3998 24.5701 39.9397C24.5701 40.0597 24.6301 40.2397 24.3901 40.2397C24.3301 40.1197 24.3301 39.9997 24.3301 39.8197C24.3301 39.3398 24.3301 38.8599 24.3301 38.3799C24.3301 38.1399 24.2101 38.02 24.0302 38.0799C23.8502 38.0799 23.6702 38.0799 23.4302 38.0799C23.1903 38.0799 23.1303 38.1399 23.1303 38.3799C23.1303 38.8599 23.1303 39.3398 23.1303 39.8197C23.1303 39.9397 23.1303 40.1197 23.0703 40.2397C22.8903 40.2997 22.8903 40.1197 22.8903 39.9997C22.8903 39.5798 22.8903 39.1598 22.8903 38.7999C22.8903 38.6799 22.8903 38.4999 22.8903 38.3799C22.8903 38.1999 22.8903 38.0799 22.6503 38.0799C22.4703 38.0799 22.3504 38.0799 22.2904 38.3199C22.1704 38.7999 22.1104 39.2798 21.9904 39.8197C21.9904 39.9397 21.9304 40.1197 21.8104 40.2397C21.3305 40.1797 20.8505 40.1197 20.3706 39.9397C20.5506 39.0398 20.7306 38.1399 20.9105 37.2401C20.9705 36.8201 21.2705 36.5801 21.6904 36.5801C21.9904 36.5801 22.3504 36.5801 22.6503 36.5801C22.8903 36.5801 22.9503 36.5201 22.9503 36.2802C22.9503 35.1403 22.9503 34.0005 22.9503 32.8606C23.0103 32.8606 23.0103 32.8606 23.0703 32.9206C23.1303 33.0406 23.1303 33.2206 23.1303 33.3405C23.1303 34.2404 23.1303 35.1403 23.1303 36.0402C23.1303 36.4002 23.1303 36.4002 23.4902 36.4002C23.6702 36.4002 23.7902 36.4002 23.9702 36.4002C24.2701 36.4002 24.3301 36.3402 24.3301 36.0402C24.3301 35.6802 24.3301 35.3203 24.3301 35.0203C24.3301 34.9003 24.3301 34.7804 24.3901 34.6604C24.3901 34.5404 24.4501 34.5404 24.4501 34.5404Z" fill="#9EABEC"/>
<path d="M10.4114 26.1414C10.2314 26.0814 10.2314 25.9014 10.2314 25.7214C10.2314 24.4016 10.2314 23.0818 10.2314 21.7619C10.2314 21.6419 10.2314 21.5219 10.2314 21.462C10.2314 21.222 10.2314 20.982 10.2314 20.802C10.2314 20.5621 10.2914 20.4421 10.5914 20.4421C11.1313 20.4421 11.6713 20.4421 12.2112 20.4421C12.1512 20.742 12.2712 21.042 12.0912 21.342C12.0312 21.342 12.0312 21.342 11.9712 21.342C11.8512 21.282 11.6713 21.222 11.5513 21.282C11.3113 21.402 11.0713 21.6419 11.1313 21.8819C11.1913 22.1819 11.4313 22.3618 11.7313 22.3618C11.8512 22.3618 11.9112 22.3018 12.0312 22.3018C12.0912 22.3018 12.1512 22.3018 12.1512 22.3618C12.2112 22.7818 12.2112 23.2017 12.1512 23.6217C12.0312 23.9816 11.7913 24.2216 11.5513 24.5216C11.4913 24.7016 11.3713 24.8215 11.2513 25.0015C11.1313 25.1815 11.1913 25.2415 11.3713 25.2415C11.4913 25.2415 11.6713 25.2415 11.7913 25.2415C11.9112 25.2415 12.0312 25.2415 12.0912 25.3615C12.2112 26.1414 12.2112 26.1414 11.4313 26.1414C11.1313 26.1414 10.7714 26.2014 10.4114 26.1414Z" fill="#81B723"/>
<path d="M36.5089 13.7831C36.5089 14.0831 36.5089 14.3831 36.5089 14.6831C36.5089 15.0431 36.3289 15.2231 36.0889 15.2231C35.7889 15.2231 35.6689 15.0431 35.6689 14.6831C35.6689 14.2631 35.6689 13.7831 35.6689 13.3631C35.6689 13.1831 35.6089 13.1231 35.4289 13.1231C35.0089 13.1231 34.5889 13.1231 34.1689 13.1231C33.8089 13.1231 33.6289 12.9431 33.6289 12.7031C33.6289 12.4631 33.8089 12.2831 34.1689 12.2831C34.7689 12.2831 35.3689 12.2831 35.9689 12.2831C36.3289 12.2831 36.5089 12.4631 36.5089 12.8231C36.5089 13.1231 36.5089 13.4831 36.5089 13.7831Z" fill="#FD646F"/>
<path d="M36.5089 19.6025C36.3889 19.8425 36.2089 19.9625 35.9689 19.9625C35.3689 19.9625 34.7689 19.9625 34.1689 19.9625C33.8689 19.9625 33.6289 19.7825 33.6289 19.5425C33.6289 19.3025 33.8089 19.1225 34.1689 19.1225C34.5889 19.1225 35.0089 19.1225 35.4289 19.1225C35.6089 19.1225 35.6689 19.0625 35.6689 18.8825C35.6689 18.6425 35.6689 18.4025 35.6689 18.1025C35.6689 17.9225 35.6689 17.6825 35.6689 17.5025C35.6689 17.2025 35.8489 17.0225 36.0889 17.0225C36.3289 17.0225 36.5089 17.2025 36.5089 17.5025C36.5089 18.2225 36.5089 18.9425 36.5089 19.6025Z" fill="#FD646F"/>
<path d="M30.0293 13.1831C29.8493 13.1231 29.8493 13.2431 29.8493 13.3631C29.8493 13.7831 29.8493 14.2631 29.8493 14.6831C29.8493 15.0431 29.7293 15.2231 29.4293 15.2231C29.1293 15.2231 29.0093 15.0431 29.0093 14.6831C29.0093 14.0231 29.0093 13.3631 29.0093 12.7031C29.0693 12.4031 29.2493 12.2831 29.5493 12.2831C30.1493 12.2831 30.7493 12.2831 31.3493 12.2831C31.6493 12.2831 31.8293 12.4631 31.8893 12.7031C31.8893 13.0031 31.7093 13.1231 31.3493 13.1231C30.9293 13.1831 30.5093 13.1831 30.0293 13.1831Z" fill="#FD646F"/>
<path d="M23.0103 40.12C23.0103 39.46 23.0103 38.8 23.0103 38.14C23.0103 37.9 23.0703 37.84 23.3103 37.84C23.6103 37.84 23.8503 37.84 24.1503 37.84C24.3903 37.84 24.4503 37.9 24.4503 38.14C24.4503 38.8 24.4503 39.46 24.4503 40.12C24.4503 40.12 24.4503 40.12 24.4503 40.18C23.9703 40.18 23.4903 40.18 23.0103 40.12C23.0103 40.18 23.0103 40.18 23.0103 40.12Z" fill="#8C9BDA"/>
<path d="M24.3901 40.18C24.5101 40 24.4501 39.88 24.4501 39.76C24.4501 39.22 24.4501 38.68 24.4501 38.08C24.4501 37.9 24.5101 37.84 24.6901 37.84C25.1701 37.84 25.1701 37.84 25.2301 38.26C25.3501 38.86 25.4701 39.46 25.5301 40C25.1701 40.12 24.8101 40.12 24.3901 40.18Z" fill="#FDE4C1"/>
<path d="M23.0101 40.1199C23.0101 40.1799 23.0101 40.1799 23.0101 40.1199C22.6501 40.1199 22.2301 40.0599 21.8101 40.0599C21.9301 39.3999 22.0501 38.7399 22.1701 38.0799C22.1701 37.9599 22.2901 37.8399 22.4101 37.8999C23.0101 37.8999 22.8901 37.8399 22.8901 38.3799C22.8901 38.8599 22.8901 39.3999 22.8901 39.8799C22.9501 39.9399 22.9501 40.0599 23.0101 40.1199Z" fill="#FDE4C1"/>
<path d="M23.3102 13.8429C24.1501 15.0428 25.05 16.2426 25.8899 17.4425C25.9498 17.5025 26.0098 17.6225 25.9499 17.6825C25.8899 17.8025 25.7699 17.8025 25.6499 17.8025C24.0901 17.8025 22.5303 17.8025 20.9705 17.8025C20.7305 17.8025 20.5505 17.8025 20.3105 17.8025C20.3105 17.6825 20.3705 17.5625 20.4305 17.5025C21.2704 16.3626 22.1103 15.1628 22.9502 14.0229C23.0702 13.9629 23.0702 13.783 23.3102 13.8429Z" fill="#FEFEFE"/>
<path d="M15.9911 17.863C15.8111 17.803 15.5711 17.923 15.5111 17.743C15.4511 17.563 15.6311 17.443 15.6911 17.323C15.7511 17.143 15.8711 17.023 15.9911 16.843C16.6511 15.943 17.2511 15.043 17.9111 14.203C18.0311 14.023 18.2111 13.783 18.3311 13.603C18.5111 13.423 18.6311 13.423 18.7511 13.603C19.1711 14.143 19.5311 14.743 19.9511 15.283C20.0111 15.343 20.0711 15.523 20.1911 15.523C20.2511 15.583 20.1911 15.643 20.1311 15.703C19.6511 16.423 19.1111 17.083 18.6311 17.803C18.5711 17.863 18.5111 17.923 18.5111 17.923C17.6711 17.863 16.8311 17.863 15.9911 17.863Z" fill="#D7EBFD"/>
<path d="M18.5107 17.8624C18.8107 17.3225 19.2307 16.8425 19.5906 16.3026C19.7706 16.0026 20.0106 15.7627 20.1905 15.4627C20.8505 14.5628 21.4504 13.6629 22.1103 12.763C22.2903 12.5231 22.4103 12.5231 22.5302 12.763C22.7702 13.123 23.0102 13.483 23.2502 13.8429C22.9502 13.9029 22.8902 14.2029 22.7702 14.3828C21.9303 15.5227 21.1504 16.6626 20.3105 17.8624C19.7706 17.8624 19.1107 17.8624 18.5107 17.8624Z" fill="#F4F7F8"/>
<path d="M15.991 13.4832C15.331 13.0632 15.211 12.4632 15.571 11.9832C15.691 11.8032 15.871 11.7432 15.991 11.6232C16.291 11.5632 16.531 11.5032 16.831 11.7432C16.591 11.9832 16.291 12.1632 16.291 12.5232C16.291 12.8232 16.411 13.0032 16.591 13.2432C16.651 13.3032 16.711 13.3632 16.771 13.4232C16.471 13.6032 16.231 13.5432 15.991 13.4832Z" fill="#F4F7F8"/>
<path d="M16.7711 13.4232C16.1111 13.0632 16.0511 12.2832 16.5911 11.8032C16.6511 11.7432 16.7711 11.6832 16.8311 11.6832C17.1911 11.8632 17.3711 12.1632 17.3111 12.5232C17.3111 13.0032 17.1311 13.3032 16.7711 13.4232Z" fill="#FEFEFE"/>
<path d="M31.3492 30.1609C31.2292 30.5808 31.0492 30.7008 30.6293 30.7008C29.3694 30.7008 28.1096 30.7008 26.8498 30.7008C26.5498 30.7008 26.3698 30.7008 26.3098 31.0608C26.1898 30.8208 26.0099 30.8208 25.7699 30.8208C24.81 30.8208 23.8501 30.8208 22.8902 30.8208C22.4103 30.8208 21.8704 30.8208 21.3904 30.8208C21.2704 30.8208 21.1505 30.8208 21.0905 30.7608C20.3706 30.7608 19.7106 30.7608 18.9907 30.7608C19.0507 30.5808 19.1707 30.6408 19.2907 30.6408C19.6506 30.6408 20.0106 30.6408 20.3706 30.6408C20.7305 30.6408 20.7305 30.6408 20.7305 30.2809C20.7305 29.561 20.7305 28.841 20.7305 28.1211C20.7305 26.0814 20.7305 24.1016 20.7305 22.0619C20.7305 22.0019 20.7305 21.8819 20.7905 21.8219C22.0503 21.8219 23.3102 21.8219 24.57 21.8219C24.75 21.7019 24.93 21.7619 25.11 21.7619C25.3499 21.7619 25.5299 21.7619 25.7699 21.7619C26.0698 21.7619 26.3698 21.7619 26.6698 21.7619C26.9097 21.7619 27.0897 21.7019 27.0297 21.462C27.0297 21.402 27.0297 21.342 27.0897 21.282C27.1497 21.402 27.1497 21.5219 27.1497 21.6419C27.1497 21.8219 27.2097 21.8819 27.3897 21.8819C27.6297 21.8819 27.7496 21.8219 27.6896 21.5819C27.6896 21.462 27.6297 21.342 27.7496 21.222C27.9296 21.402 27.8096 21.5819 27.8696 21.7619C28.1696 21.9419 28.5295 21.8219 28.8295 21.8219C29.1295 21.8219 29.4894 21.7619 29.7894 21.7619C30.0294 21.7619 30.2093 21.7019 30.1493 21.462C30.1493 21.402 30.1493 21.342 30.2093 21.282L30.2693 21.342C30.2093 21.7619 30.3893 21.8819 30.8093 21.9419C31.1692 21.9419 31.2892 22.1819 31.2892 22.6018C31.2892 25.0615 31.2892 27.5212 31.2892 29.9809C31.3492 29.8609 31.3492 30.0409 31.3492 30.1609Z" fill="#9EABEC"/>
<path d="M20.7302 21.702C20.7902 21.822 20.7902 22.0019 20.7902 22.1819C20.7902 24.8816 20.7902 27.5812 20.7902 30.2809C20.7902 30.5209 20.7302 30.6409 20.4303 30.6409C19.9503 30.6409 19.4104 30.5809 18.9305 30.7009C18.8705 30.7009 18.7505 30.7009 18.6905 30.7009C18.1505 30.5209 17.8506 30.2209 17.8506 29.621C17.8506 29.261 17.8506 28.9011 17.8506 28.5411C17.8506 28.4211 17.8506 28.3012 17.9106 28.1812C17.9706 28.1212 18.0906 28.1812 18.1505 28.1812C18.6305 28.2412 19.1104 27.9412 19.1104 27.4613C19.1704 26.3814 19.1104 25.2415 19.1104 24.1617C19.1104 23.6217 18.6305 23.3218 18.1505 23.4418C18.0906 23.4418 18.0306 23.5017 17.9106 23.4418C17.8506 23.3218 17.8506 23.2018 17.8506 23.1418C17.8506 22.7818 17.8506 22.4219 17.8506 22.0619C17.8506 21.582 18.2105 21.162 18.6905 21.0421H18.7505C18.9904 21.0421 19.2904 21.0421 19.5304 21.0421C20.0703 21.0421 20.4903 21.222 20.7302 21.702Z" fill="#7A8BCA"/>
<path d="M12.0912 23.6817C12.0912 23.2017 12.0912 22.7818 12.0912 22.3018C12.0912 22.2418 12.0912 22.2419 12.0912 22.1819C12.2712 21.8819 12.1512 21.5819 12.0312 21.282C12.1512 21.162 12.0912 20.982 12.0912 20.802C12.0912 20.682 12.0912 20.5021 12.2112 20.3821C14.311 20.3821 16.4107 20.3821 18.4505 20.3821C18.6904 20.3821 18.7504 20.5021 18.7504 20.682C18.7504 20.802 18.7504 20.922 18.7504 20.982C18.2105 21.102 17.7305 21.042 17.1906 21.042C16.6507 21.042 16.2307 21.402 16.1707 21.9419C16.1707 22.0619 16.1707 22.1819 16.1107 22.3018C16.0508 22.4218 15.9908 22.3618 15.9308 22.3018C15.8708 22.2418 15.7508 22.1219 15.6908 22.0019C15.5708 21.8819 15.4508 21.8819 15.3908 22.0019C15.0909 22.4218 14.7909 22.8418 14.4909 23.3217C14.371 23.4417 14.311 23.6217 14.131 23.6817C13.891 23.5617 13.831 23.3217 13.651 23.0817C13.5311 22.9018 13.4111 22.7218 13.2911 22.5418C13.1111 22.3018 13.0511 22.3018 12.9311 22.5418C12.7512 22.8418 12.5112 23.0817 12.3312 23.3817C12.2112 23.5617 12.2112 23.6817 12.0912 23.6817Z" fill="#8AC627"/>
<path d="M29.0093 18.4625C29.0093 18.1625 29.0093 17.8025 29.0093 17.5025C29.0093 17.2025 29.1893 17.0225 29.4293 17.0225C29.6693 17.0225 29.8493 17.2025 29.8493 17.5025C29.8493 17.9225 29.8493 18.3425 29.8493 18.7625C29.8493 19.0625 29.9093 19.0625 30.1493 19.0625C30.5693 19.0625 30.9293 19.0625 31.3493 19.0625C31.6493 19.0625 31.8293 19.2425 31.8293 19.4825C31.8293 19.7225 31.6493 19.9025 31.3493 19.9025C30.7493 19.9025 30.0893 19.9025 29.4893 19.9025C29.1293 19.9025 29.0093 19.7225 29.0093 19.4225C29.0093 19.1225 29.0093 18.8225 29.0093 18.4625Z" fill="#FD646F"/>
<path d="M30.2696 21.1021C30.2696 21.7021 30.2696 21.7021 29.6696 21.7021C29.1296 21.7021 28.5896 21.8221 28.0496 21.7621C27.9296 21.7621 27.8696 21.8221 27.8096 21.7021C28.0496 21.5821 28.2896 21.6421 28.5296 21.6421C28.8896 21.6421 28.8896 21.6421 28.8896 21.2821C28.8896 20.9821 29.0096 20.6821 29.3696 20.6221C29.5496 20.6221 29.7296 20.6221 29.9096 20.6221C30.0896 20.6821 30.2696 20.8621 30.2696 21.1021Z" fill="#7A8BCA"/>
<path d="M27.0898 21.1021C27.0298 21.7021 27.0298 21.7021 26.4298 21.7021C26.1898 21.7021 25.9498 21.7021 25.7098 21.7021C25.4698 21.2221 25.6498 20.7421 26.1298 20.6221C26.3098 20.6221 26.4898 20.6221 26.6698 20.6221C26.9098 20.6821 27.0898 20.8621 27.0898 21.1021Z" fill="#596CA8"/>
<path d="M26.1298 20.6221C25.6498 20.8621 25.7098 21.2821 25.7098 21.7021C25.2898 21.7021 24.9298 21.7021 24.5098 21.7021C24.5098 21.5221 24.5098 21.3421 24.5098 21.1621C24.5098 20.8021 24.7498 20.5621 25.1098 20.5621C25.4698 20.6221 25.8298 20.6221 26.1298 20.6221Z" fill="#465A94"/>
<path d="M29.3695 20.6221C29.0695 20.8021 28.9495 21.1021 28.9495 21.4621C28.9495 21.7021 28.8895 21.7621 28.6495 21.7621C28.3495 21.7621 28.0495 21.7621 27.7495 21.7621C27.7495 21.5221 27.7495 21.3421 27.7495 21.1021C27.8695 20.7421 27.9895 20.6221 28.3495 20.6221C28.7095 20.6221 29.0095 20.6221 29.3695 20.6221Z" fill="#596CA9"/>
<path d="M16.111 22.4819C16.111 22.3019 16.111 22.1219 16.111 21.8819C16.231 21.402 16.6509 21.0421 17.1309 21.0421C17.6708 21.0421 18.2107 21.0421 18.7507 21.0421C18.4507 21.162 18.1507 21.342 18.0307 21.642C17.9708 21.762 17.9708 21.9419 17.9708 22.0619C17.9708 22.4819 17.9708 22.9018 17.9708 23.3218C17.5508 23.7417 17.6108 24.2817 17.6108 24.7616C17.6108 25.3615 17.6108 26.0214 17.6108 26.6214C17.6108 27.1613 17.6108 27.6412 17.9708 28.0612C17.9708 28.4211 18.0307 28.7811 17.9708 29.1411C17.9108 29.801 18.1507 30.2209 18.7507 30.5209C18.2107 30.5209 17.7308 30.5209 17.1909 30.5209C16.7709 30.5209 16.5309 30.2809 16.291 29.9809C16.171 29.741 16.171 29.501 16.171 29.201C16.171 28.1212 16.171 27.0413 16.171 25.9614C16.051 25.7215 16.111 25.4215 16.111 25.1215C16.111 25.0616 16.111 25.0616 16.111 25.0016C16.111 24.1617 16.111 23.3818 16.111 22.5419C15.991 22.6619 15.991 22.5419 16.111 22.4819Z" fill="#596CA8"/>
<path d="M21.0303 30.6409C21.6303 30.6409 22.2903 30.6409 22.8903 30.6409C22.9503 30.7009 22.9503 30.7609 22.9503 30.8809C23.0103 31.6009 23.3703 32.1409 24.0303 32.5009C24.0903 32.5609 24.2703 32.5609 24.2103 32.7409C23.8503 32.8609 23.4903 32.8009 23.0703 32.8009C22.9503 32.8009 22.8303 32.8009 22.7103 32.7409C21.8103 32.6209 21.0303 31.7209 21.0303 30.6409Z" fill="#596CA8"/>
<path d="M22.77 32.6806C23.19 32.6806 23.55 32.6806 23.97 32.6806C24.09 32.6806 24.15 32.7406 24.21 32.6206C24.57 32.6206 24.93 32.5006 25.35 32.5006C25.47 32.5006 25.53 32.5006 25.65 32.5006C26.07 32.5006 26.13 32.5606 26.13 32.9806C26.25 33.3406 26.25 33.7006 26.13 34.1206C26.13 34.5406 26.07 34.6006 25.65 34.6006C25.29 34.6006 24.87 34.6006 24.51 34.6006H24.45C24.33 34.4806 24.33 34.3606 24.33 34.2406C24.33 33.8806 24.33 33.5206 24.33 33.2206C24.33 32.9806 24.21 32.9206 24.03 32.9206C23.79 32.9206 23.61 32.9206 23.37 32.9206C23.25 32.9206 23.13 32.9206 23.07 32.8606C22.89 32.7406 22.83 32.7406 22.77 32.6806Z" fill="#596CA8"/>
<path d="M29.969 32.5006C31.289 32.5006 32.609 32.5006 33.929 32.5006C34.169 32.5006 34.289 32.6206 34.289 32.8606C34.289 33.2206 34.289 33.5806 34.289 33.9406C34.169 34.0606 34.049 34.0606 33.929 34.0606C32.789 34.0606 31.709 34.0606 30.569 34.0606C30.029 34.0606 29.909 33.9406 29.909 33.4006C29.909 33.1006 29.849 32.8006 29.969 32.5006Z" fill="#596CA8"/>
<path d="M25.3503 32.5009C24.9903 32.6209 24.6303 32.8009 24.2103 32.6209C23.3103 32.2609 22.8303 31.6009 22.8903 30.6409C23.9703 30.6409 24.9903 30.6409 26.0703 30.6409C26.3703 30.6409 26.3103 30.8209 26.3103 31.0009C26.2503 31.6609 25.8903 32.1409 25.3503 32.5009Z" fill="#7A8BCA"/>
<path d="M29.9695 32.5006C29.9695 32.8606 29.9695 33.1605 29.9695 33.5205C29.9695 33.8804 30.0295 33.9404 30.3894 33.9404C31.6493 33.9404 32.9691 33.9404 34.2289 33.9404C34.2289 34.4804 34.2289 34.5404 33.689 34.5404C32.1892 34.5404 30.6894 34.5404 29.1896 34.5404C28.7696 34.5404 28.7096 34.4804 28.7096 34.0604C28.5896 33.7005 28.5896 33.3405 28.7096 32.9206C28.7096 32.5006 28.7696 32.4406 29.1896 32.4406C29.4895 32.5006 29.7295 32.5006 29.9695 32.5006Z" fill="#465A93"/>
<path d="M28.7699 32.9805C28.7699 33.3405 28.7699 33.7005 28.7699 34.1205C27.8699 34.1205 26.9699 34.1205 26.1299 34.1205C26.1299 33.7605 26.1299 33.4005 26.1299 32.9805C26.9699 32.9805 27.8699 32.9805 28.7699 32.9805Z" fill="#7A8BCA"/>
<path d="M16.1109 25.3015C16.1109 25.6015 16.1109 25.8414 16.1109 26.1414C14.3111 26.1414 12.5114 26.1414 10.7716 26.1414C10.6516 26.1414 10.5316 26.2014 10.4116 26.0814C10.8916 26.0814 11.3715 26.0814 11.8514 26.0814C12.0314 26.0814 12.1514 26.0814 12.0914 25.8414C12.0314 25.6615 12.0914 25.4815 12.0914 25.2415C12.3914 25.0615 12.7513 25.1815 13.1113 25.1815C14.0112 25.1815 14.9111 25.1815 15.8709 25.1815C15.9309 25.2415 15.9909 25.2415 16.1109 25.3015Z" fill="#8AC627"/>
<path d="M23.0103 32.7406C23.3703 32.7406 23.7903 32.7406 24.1503 32.7406C24.3903 32.7406 24.4503 32.8006 24.4503 33.0406C24.4503 33.5206 24.4503 34.0606 24.4503 34.5406C24.4503 35.0806 24.4503 35.6206 24.4503 36.1606C24.4503 36.3406 24.3903 36.4006 24.2103 36.4006C23.9103 36.4006 23.6103 36.4006 23.3103 36.4006C23.0703 36.4006 23.0703 36.3406 23.0703 36.1006C23.0103 35.0206 23.0103 33.8806 23.0103 32.7406Z" fill="#8D9CDA"/>
<path d="M13.0517 25.3018C12.7517 25.3018 12.3917 25.3018 12.0917 25.3018C11.8517 25.3018 11.6117 25.3018 11.3117 25.3018C11.2517 25.3018 11.1317 25.3018 11.0717 25.2418C11.0117 25.1218 11.0717 25.0618 11.1317 25.0018C11.4317 24.5818 11.7317 24.1618 12.0317 23.6818C12.3317 23.3218 12.5717 22.9618 12.8717 22.5418C12.9917 22.3618 13.1117 22.3018 13.2917 22.5418C13.5917 22.9618 13.8317 23.3218 14.1317 23.7418C14.1917 23.8018 14.1917 23.8618 14.1317 23.9218C13.8317 24.3418 13.5317 24.8218 13.1717 25.2418C13.1117 25.2418 13.1117 25.2418 13.0517 25.3018Z" fill="#D7EBFD"/>
<path d="M11.9717 22.362C11.6717 22.542 11.3717 22.542 11.1917 22.302C10.9517 22.062 10.9517 21.762 11.1317 21.462C11.3117 21.222 11.6117 21.102 11.9117 21.282V21.342C11.6117 21.882 11.6117 21.942 11.9717 22.362Z" fill="#F3F7F7"/>
<path d="M11.9714 22.362C11.4914 22.242 11.4914 21.582 11.9114 21.282H11.9714C12.3314 21.642 12.3314 21.882 12.0314 22.302C12.0314 22.302 12.0314 22.362 11.9714 22.362Z" fill="#FDFEFD"/>
<path d="M27.9296 29.021C27.3896 29.381 26.8497 29.681 26.1898 29.741C24.8699 29.9209 23.7301 29.501 22.8902 28.4811C22.2903 27.8212 22.0503 27.0413 22.0503 26.2014C22.0503 24.4016 23.3701 22.9018 25.1099 22.6618C27.0897 22.3619 28.9494 23.7417 29.2494 25.7214C29.3094 26.3214 29.2494 26.8613 29.0694 27.4612C29.0094 27.8812 28.7695 28.1811 28.5295 28.4811C28.3495 28.6611 28.2295 28.9011 27.9296 29.021Z" fill="#7A8BCA"/>
<path d="M27.9297 29.0212C28.4097 28.5412 28.8297 28.0012 29.0697 27.4012C29.6697 27.7012 29.7897 28.3612 29.4897 28.9012C29.1297 29.3812 28.4697 29.4412 27.9297 29.0212Z" fill="#596CA8"/>
<path d="M29.9694 23.6218C29.6694 23.7418 29.3694 23.6818 29.2494 23.5018C29.0694 23.2618 29.0694 22.9618 29.3094 22.7818C29.4894 22.5418 29.7894 22.5418 30.0294 22.6618C29.9094 22.7818 29.7894 22.9018 29.7294 23.0818C29.6694 23.3218 29.8494 23.4418 29.9694 23.6218Z" fill="#F3F6F8"/>
<path d="M29.9694 23.6218C29.7294 23.5618 29.6094 23.3818 29.6094 23.1418C29.6094 22.9018 29.7294 22.7218 29.9694 22.6618C30.3894 22.9018 30.3894 23.3218 29.9694 23.6218Z" fill="#FEFEFE"/>
<path d="M17.9707 28.1812C17.6707 28.0012 17.4907 27.7012 17.4907 27.3413C17.4907 26.3214 17.4907 25.3015 17.4907 24.2216C17.4907 23.8617 17.6107 23.5617 17.9707 23.3817C18.5706 23.0218 19.2905 23.5017 19.2905 24.2216C19.2905 25.2415 19.2905 26.2614 19.2905 27.3413C19.2305 28.0012 18.5106 28.4811 17.9707 28.1812Z" fill="#9EABEC"/>
<path d="M13.0513 25.3019C13.3513 24.8219 13.7113 24.4019 14.0113 23.9219C14.0713 23.8619 14.0713 23.8019 14.0713 23.7419C14.4913 23.2619 14.8513 22.7219 15.2113 22.1819C15.2713 22.1219 15.2713 22.0619 15.3313 22.0019C15.4513 21.8219 15.5713 21.8219 15.6913 22.0019C15.8113 22.1819 15.9313 22.3019 16.0513 22.4819C16.0513 22.6019 16.0513 22.6619 16.0513 22.7819C15.7513 23.3819 15.2713 23.9219 14.8513 24.5219C14.7313 24.7619 14.5513 24.9419 14.3713 25.1819C14.4913 25.2419 14.5513 25.2419 14.6713 25.2419C15.0313 25.2419 15.3313 25.2419 15.6913 25.2419C15.8113 25.2419 15.9313 25.2419 15.9913 25.3019V25.3619C15.0913 25.3019 14.0713 25.3619 13.0513 25.3019Z" fill="#F4F7F8"/>
<path d="M16.051 25.2418C15.451 25.2418 14.911 25.2418 14.311 25.2418C14.371 25.0018 14.551 24.8218 14.671 24.6418C15.091 24.0418 15.511 23.4418 15.931 22.9018C15.991 22.8418 15.991 22.8418 16.051 22.7818C16.111 23.5618 16.111 24.4018 16.051 25.2418Z" fill="#FEFEFE"/>
<path d="M26.3098 24.2216C27.2098 24.6416 27.7498 25.3016 27.6898 26.2616C27.6298 27.1616 27.1498 27.8216 26.3098 28.1216C25.5298 27.7616 25.0498 27.1016 25.0498 26.2016C25.0498 25.3016 25.4698 24.6416 26.3098 24.2216Z" fill="#596CA8"/>
<path d="M26.3099 24.2217C26.3099 24.3417 26.1899 24.3417 26.1299 24.4017C25.0499 25.0617 24.7499 26.3217 25.4099 27.3417C25.5899 27.5817 25.7699 27.8217 26.0699 28.0017C26.1299 28.0617 26.2499 28.0617 26.2499 28.1817C24.9899 28.6017 23.8499 27.7617 23.5499 26.7417C23.2499 25.6017 23.9699 24.3417 25.1699 24.1617C25.6499 24.0417 25.9499 24.1017 26.3099 24.2217Z" fill="#465A93"/>
</g>
<defs>
<clipPath id="clip0_806_8745">
<rect width="29.0964" height="30.3563" fill="white" transform="translate(9.45166 10.4233)"/>
</clipPath>
</defs>
</svg>
