<svg width="48" height="48" viewBox="0 0 48 48" fill="none" xmlns="http://www.w3.org/2000/svg">
<rect width="48" height="48" rx="24" fill="#E9F6FD"/>
<g clip-path="url(#clip0_806_5814)">
<path d="M37.8269 24.7867C38.5467 25.3865 39.0266 26.1663 39.1466 27.0661C39.1466 27.0661 39.1466 27.0661 39.2066 27.1261C39.2066 27.1861 39.2066 27.246 39.2066 27.306C39.1466 27.486 39.1466 27.7259 39.2066 27.9059C39.2066 27.9659 39.2066 28.0858 39.2066 28.1458C39.1466 28.1458 39.1466 28.2058 39.1466 28.2658C38.8467 29.4655 38.1868 30.3653 37.0471 30.8452C37.0471 30.9051 36.9871 30.9051 36.9871 30.9051C36.4473 30.7252 36.3273 30.4253 36.3273 29.7054C36.3873 29.5255 36.5672 29.4055 36.6872 29.2256C36.8072 29.0456 36.9871 29.0456 37.1671 29.0456C37.647 29.0456 37.7669 28.9256 37.7669 28.4458C37.7669 27.8459 37.7669 27.1861 37.7669 26.5862C37.7669 26.1063 37.647 25.9864 37.1671 25.9864C36.5672 25.9864 35.9674 25.9864 35.3675 25.9864C34.9476 25.9864 34.5277 26.0463 34.0479 25.9264C34.0479 25.7464 34.0479 25.7464 34.2278 25.7464C34.5877 25.7464 34.8876 25.7464 35.2476 25.7464C34.7077 25.3865 34.5877 24.9066 34.8277 24.1868C34.8876 24.1268 34.9476 24.1268 35.0076 24.0668C35.9674 23.8869 36.8672 24.0068 37.707 24.5467C37.707 24.6067 37.7669 24.7267 37.8269 24.7867Z" fill="#FEB232"/>
<path d="M8.73389 26.1065C8.79389 26.0465 8.79389 25.9265 8.79389 25.8665C8.97389 25.5065 9.27389 25.3265 9.69389 25.3265C10.1139 25.3865 10.4139 25.5665 10.5339 25.9865C10.5939 26.8265 9.93389 27.3065 9.09389 27.0665C8.97389 27.0665 8.91389 26.9465 8.85389 26.8865C8.73389 26.7665 8.85389 26.6465 8.73389 26.5265C8.73389 26.4065 8.73389 26.2865 8.73389 26.1065Z" fill="#E8EEFE"/>
<path d="M39.2062 27.906C39.0862 27.726 39.0862 27.486 39.2062 27.306C39.2062 27.486 39.2062 27.726 39.2062 27.906Z" fill="#FEC056"/>
<path d="M27.7495 10.0903C27.5695 10.2703 27.3895 10.2703 27.2095 10.1503V10.0903C27.3895 10.0903 27.5695 10.0903 27.7495 10.0903Z" fill="#CAEDFD"/>
<path d="M10.4735 25.9864C10.1136 25.2665 9.45378 25.2065 8.91392 25.7464C8.85393 25.8064 8.85393 25.8064 8.79395 25.8064C8.85393 24.0068 9.15386 22.2073 9.81369 20.5277C9.81369 20.4677 9.87368 20.4077 9.87368 20.3477C10.0536 20.3477 9.99365 20.4677 9.99365 20.5877C10.0536 20.8876 10.1736 21.1276 10.2936 21.4275C10.6535 22.1473 11.2533 22.4472 12.0331 22.2673C12.693 22.0873 13.2928 21.7274 13.8327 21.3675C15.0324 20.4677 16.0522 19.328 17.0119 18.1883C17.7317 17.2885 18.3916 16.3287 18.9314 15.309C19.1114 14.9491 19.2914 14.5892 19.3513 14.1693C19.4113 13.5094 19.1714 12.9696 18.6915 12.5497C18.6315 12.4897 18.3916 12.4297 18.5715 12.2497C19.5913 11.8898 20.611 11.6499 21.6908 11.5299C22.5306 11.41 23.3704 11.4699 24.2101 11.4699C24.3301 11.4699 24.4501 11.5299 24.5701 11.5299C24.63 11.7099 24.5101 11.7699 24.4501 11.8898C23.7902 13.0296 23.7902 14.2293 24.4501 15.369C25.1699 16.5687 26.2496 17.1085 27.6293 17.1085C28.0492 17.1085 28.4691 16.9886 28.889 16.7486C30.0287 16.1488 30.7485 15.189 30.8085 13.8693C30.8085 13.8094 30.8085 13.6894 30.9285 13.6294C31.8283 14.1693 32.6081 14.8291 33.3879 15.4889C33.3879 15.6089 33.2679 15.6689 33.1479 15.7289C32.1882 16.3887 31.7083 17.2885 31.7083 18.3682C31.6483 20.4077 33.2079 21.9074 35.0075 21.9673C35.6673 21.9673 36.2672 21.8474 36.807 21.5475C36.867 21.4875 36.987 21.4275 37.047 21.4875C37.3469 22.3273 37.5269 23.1671 37.6468 24.0068C37.7068 24.2468 37.7068 24.4867 37.7068 24.7267C36.7471 24.0668 35.7273 23.8269 34.5876 24.1268C34.5276 24.2468 34.4076 24.2468 34.2877 24.3068C32.788 24.9066 31.8883 26.3463 32.1282 27.9659C32.3081 29.4655 33.5079 30.6652 35.0075 30.9051C35.4874 30.9651 35.9073 30.9651 36.3871 30.8452C36.5071 30.7852 36.6271 30.7852 36.807 30.7852H36.867C36.7471 31.385 36.4471 31.9249 36.1472 32.5247C35.4874 33.7844 34.7076 34.9242 33.7478 35.8839C33.5678 35.9439 33.5079 35.7639 33.4479 35.704C33.1479 35.2841 32.788 34.8642 32.4281 34.5043C31.7683 33.9044 31.1084 33.4245 30.2687 33.3046C29.7288 33.1846 29.1889 33.2446 28.649 33.3046C27.3294 33.4245 26.0097 33.6045 24.69 33.9644C24.0302 34.1443 23.3704 34.3843 22.7705 34.7442C22.3506 35.0441 21.9907 35.404 21.8107 35.8839C21.5708 36.4838 21.6908 37.0836 21.9907 37.6835C22.4106 38.5832 23.0104 39.3631 23.6703 40.0829C23.7902 40.2028 23.9102 40.2628 23.9102 40.4428C22.9505 40.5028 21.9907 40.4428 21.0909 40.3228C20.611 40.1429 20.3711 39.723 20.0712 39.423C19.9512 39.3031 19.8312 39.1231 19.7113 39.0031C19.0514 38.4033 18.5115 37.6835 17.8517 37.0836C17.8517 37.0836 17.7917 37.0236 17.7917 36.9037C17.7917 36.7837 17.9117 36.7237 18.0317 36.6637C18.3316 36.4838 18.5115 36.1838 18.6915 35.8839C19.0514 35.1041 19.0514 34.3843 18.6315 33.6645C18.5715 33.6045 18.5715 33.5445 18.5715 33.4845C18.6315 33.3645 18.7515 33.3046 18.8115 33.2446C19.3513 32.9446 19.8912 32.5847 20.4911 32.2848C20.791 32.1048 21.0309 31.9249 21.1509 31.565C21.1509 31.505 21.2109 31.445 21.2709 31.445C21.8107 31.2051 22.4106 31.0251 23.0104 30.9051C24.0902 30.6652 25.1099 30.4852 26.1897 30.5452C27.2094 30.5452 28.2292 30.6052 29.1889 30.9051C29.3089 30.9651 29.3689 31.0851 29.4888 31.2051C29.7888 31.505 30.2087 31.625 30.5686 31.385C30.9285 31.1451 31.0485 30.7252 30.8685 30.3653C30.5086 29.6455 30.0887 28.9256 29.6688 28.2058C28.2891 25.7464 26.8495 23.347 25.4698 20.8876C24.81 19.6879 24.0902 18.4282 23.3704 17.2285C23.1304 16.8686 22.9505 16.4487 22.7105 16.0888C22.5306 15.7889 22.2906 15.5489 21.8707 15.6089C21.3309 15.6089 20.9709 16.1488 21.1509 16.6887C21.2109 16.8086 21.2709 16.9286 21.2709 17.0486C21.2709 17.2885 21.1509 17.5284 21.0909 17.7684C20.3111 19.8679 19.1114 21.6674 17.4918 23.1671C17.2519 23.407 17.0719 23.6469 16.772 23.7669C16.4121 23.7069 16.1121 23.8269 15.8122 24.0068C14.9124 24.5467 13.9527 25.0866 13.0529 25.6264C12.693 25.8064 12.453 26.0463 12.453 26.5262C12.453 26.5862 12.453 26.6462 12.3931 26.7062C12.0931 26.9461 11.7332 27.1261 11.4333 27.306C11.3733 27.366 11.3133 27.366 11.2533 27.306C10.8334 26.8261 10.5935 26.4063 10.4735 25.9864Z" fill="#746BF8"/>
<path d="M24.0301 40.4428C23.4302 39.8429 22.8904 39.1831 22.4105 38.4633C22.1106 37.9234 21.8106 37.3835 21.7507 36.7837C21.6907 35.8239 22.1706 35.1641 22.8904 34.6842C23.8501 34.0843 24.9299 33.8444 26.0696 33.6045C26.9694 33.4245 27.9291 33.3045 28.8889 33.2446C29.4288 33.1846 29.9686 33.1246 30.5085 33.2446C31.2883 33.4245 31.9481 33.9044 32.548 34.4443C32.9679 34.8642 33.3278 35.344 33.6877 35.8239C33.7477 35.8839 33.7477 35.9439 33.8677 35.9439C33.3278 36.6037 32.7279 37.0836 32.0681 37.5635C30.2086 38.9432 28.1691 39.8429 25.9496 40.2628C25.2898 40.3828 24.6299 40.5028 24.0301 40.4428Z" fill="#817DF8"/>
<path d="M12.8728 36.0039C12.153 35.3441 11.6131 34.6242 11.1332 33.8444C10.8333 33.3645 10.5334 32.8847 10.2935 32.3448C10.2935 31.8649 10.5334 31.565 10.8933 31.325C11.5531 30.9051 12.273 30.4852 12.9928 30.1253C13.4127 29.9454 13.8326 29.8854 14.2525 30.0654C14.3725 30.1253 14.4324 30.2453 14.4924 30.3653C15.1523 31.505 15.8121 32.6447 16.4719 33.7245C16.5319 33.7844 16.5319 33.8444 16.5319 33.9044C16.232 34.1443 15.8721 34.2643 15.5722 34.5043C14.7923 34.9841 13.9526 35.404 13.1727 35.8839C13.0528 35.9439 12.9928 36.0039 12.8728 36.0039Z" fill="#FE7185"/>
<path d="M14.2523 30.1253C13.7724 30.0054 13.3526 30.0054 12.9327 30.2453C12.3328 30.6052 11.733 30.9051 11.1331 31.2051C10.6532 31.445 10.4133 31.8049 10.2333 32.2848C9.63347 31.0851 9.21357 29.8254 8.97363 28.5057C8.97363 28.4457 8.97363 28.3858 8.97363 28.3258C9.0936 28.1458 9.33354 28.0858 9.5135 27.9659C9.9334 27.7259 10.3533 27.486 10.7732 27.246C10.8932 27.1861 10.9531 27.1261 11.0731 27.1261C11.433 26.9461 11.7929 26.7062 12.1528 26.5262C12.2728 26.5262 12.3328 26.6462 12.3328 26.7662C12.9926 27.7859 13.5925 28.7457 14.1923 29.7654C14.2523 29.8854 14.3123 29.9454 14.2523 30.1253Z" fill="#FE4155"/>
<path d="M12.873 36.0039C13.7728 35.464 14.6726 34.9242 15.5724 34.4443C16.0523 34.8642 16.4722 35.2841 16.8921 35.7639C17.132 36.0639 17.4319 36.3038 17.6719 36.5438C17.7318 36.6037 17.8518 36.6637 17.7918 36.8437C17.6119 36.9037 17.3719 36.9037 17.192 36.9637C16.4722 37.0836 16.1122 37.5035 15.9923 38.1034C15.9923 38.2233 16.0523 38.4033 15.8123 38.3433C14.7926 37.7435 13.8928 37.0236 13.113 36.1838C12.993 36.1239 12.933 36.0639 12.873 36.0039Z" fill="#D2DBFA"/>
<path d="M15.812 38.4033C15.932 38.4033 15.932 38.2833 15.932 38.2233C15.992 37.5035 16.4119 37.0236 17.1317 36.9037C17.3116 36.9037 17.5516 36.8437 17.7315 36.8437C17.7315 36.8437 17.7915 36.8437 17.7915 36.9037C18.8113 37.9834 19.831 39.0631 20.9108 40.1429C20.9707 40.2028 21.0907 40.2628 21.1507 40.3228C20.4309 40.2028 19.771 40.0229 19.0512 39.8429C17.9115 39.483 16.8318 39.0031 15.812 38.4033Z" fill="#E8EEFE"/>
<path d="M9.574 28.0261C9.394 28.1461 9.214 28.2661 9.034 28.3261C8.914 27.8461 8.914 27.3661 8.854 26.8861C8.974 26.8261 8.974 27.0061 9.034 27.0061C9.274 27.3061 9.514 27.6061 9.574 28.0261Z" fill="#756CF8"/>
<path d="M18.5714 12.1898C18.5114 12.3097 18.6314 12.3097 18.6914 12.3697C19.4712 13.0895 19.5911 13.9293 19.1712 14.8891C18.6914 15.9688 17.9715 16.9286 17.2517 17.8884C16.5319 18.7881 15.7521 19.6879 14.9123 20.4677C14.1325 21.1875 13.2927 21.9074 12.213 22.2073C11.6131 22.3872 11.0732 22.3273 10.6533 21.9673C10.3534 21.7274 10.1735 21.3075 10.0535 20.9476C9.99351 20.7676 9.93352 20.5277 9.87354 20.3477C9.99351 20.1078 10.1735 19.8079 10.2934 19.508C12.033 16.0888 14.6724 13.6894 18.2115 12.3097C18.3314 12.3097 18.4514 12.2497 18.5714 12.1898Z" fill="#817DF8"/>
<path d="M29.009 16.7486C27.7493 17.4085 25.9497 17.1085 24.93 16.0288C24.2701 15.309 23.9702 14.4692 23.9702 13.5094C23.9702 12.7296 24.2701 12.0698 24.69 11.4699C25.1699 10.9301 25.7098 10.5102 26.3696 10.2702C26.4296 10.2702 26.4896 10.2102 26.6096 10.2102C26.6696 10.3302 26.6696 10.4502 26.6096 10.5102C26.4896 10.99 26.6096 11.4699 27.0295 11.7699C27.0894 11.8298 27.1494 11.8898 27.1494 11.9498C27.0295 12.1298 26.7895 12.0698 26.6695 12.1298C26.0697 12.3097 25.6498 12.6696 25.2899 13.2095C25.1699 13.4494 25.1099 13.6294 25.2899 13.8093C25.9497 14.7091 26.7895 15.129 27.8693 15.0091C27.9892 15.0091 28.1092 14.9491 28.2292 15.0091C28.3491 15.069 28.3491 15.249 28.3491 15.369C28.2292 15.9088 28.4691 16.2088 28.889 16.4487C28.889 16.6287 29.009 16.6287 29.009 16.7486Z" fill="#1AA8E7"/>
<path d="M29.0088 16.7486C28.8889 16.6886 28.7089 16.6287 28.5889 16.5087C28.229 16.2687 28.0491 15.9088 28.169 15.4889C28.169 15.369 28.229 15.249 28.1091 15.189C28.1091 15.129 28.169 15.129 28.169 15.069C28.7689 14.8291 29.3088 14.5292 29.7287 13.9893C29.9686 13.6894 29.9686 13.5094 29.7287 13.2095C29.3687 12.7896 28.9488 12.3697 28.349 12.2497C28.0491 12.1298 27.7491 12.0698 27.3892 12.1298C27.2693 12.1298 27.1493 12.1298 27.0893 12.0698C26.7894 11.8298 26.5494 11.5899 26.4895 11.17C26.4295 10.8701 26.5494 10.5701 26.5494 10.3302C26.7294 10.2102 26.9693 10.2102 27.2093 10.2102C27.3892 10.2102 27.5692 10.2102 27.7491 10.2102C29.4887 10.3902 30.8084 11.7099 30.9883 13.5094C30.9883 13.5694 30.9883 13.6894 31.0483 13.7494C30.9284 13.8693 30.9883 14.1093 30.9284 14.2892C30.6884 15.4289 30.0286 16.2687 29.0088 16.7486Z" fill="#42C2FB"/>
<path d="M37.1667 21.5474C36.5068 21.9673 35.787 22.1473 35.0072 22.0873C33.4476 22.0273 31.9479 20.7076 31.708 19.148C31.528 17.5884 32.1279 16.3887 33.4476 15.5489C33.6875 15.4289 33.8675 15.309 34.1674 15.249C34.2274 15.369 34.2274 15.369 34.1674 15.4889C34.0474 15.7289 33.9874 15.9688 33.9874 16.2088C33.9874 16.4487 34.1074 16.6287 34.2274 16.8086C34.2874 16.9286 34.4073 16.9886 34.4073 17.1685C34.3473 17.2885 34.2274 17.2285 34.1074 17.2885C33.6275 17.4085 33.3276 17.7084 33.2676 18.1883C33.2076 18.6682 33.3276 19.0281 33.7475 19.328C34.1674 19.6279 34.5873 19.9278 34.9472 20.2278C35.1272 20.4077 35.2471 20.4077 35.4271 20.2278C35.607 20.0478 35.787 19.9278 35.9669 19.8079C36.0869 19.7479 36.1469 19.6279 36.2669 19.6879C36.3868 19.7479 36.4468 19.8079 36.4468 19.9278C36.5668 20.5277 36.9267 20.8276 37.5865 20.8876C37.6465 20.8876 37.8265 20.8876 37.8265 21.0076C37.6465 21.1875 37.4066 21.3075 37.1667 21.5474Z" fill="#E70054"/>
<path d="M34.4078 17.1085C34.4078 17.1085 34.4078 17.0486 34.3478 17.0486C33.8679 16.5087 33.7479 15.9088 34.1678 15.309V15.249C35.7275 14.7691 37.3471 15.369 38.1869 16.7486C39.0266 18.0683 38.8467 19.8079 37.8269 20.9476C37.707 20.8276 37.527 20.8876 37.3471 20.8876C36.8072 20.7676 36.5073 20.4077 36.3873 19.9278C36.3873 19.8079 36.3873 19.7479 36.2673 19.6879V19.6279C36.3873 19.508 36.5073 19.448 36.6872 19.328C37.2271 18.9681 37.2871 18.3682 37.0471 17.8884C36.8072 17.4085 36.2073 17.1085 35.7275 17.3485C35.2476 17.5284 34.8277 17.3485 34.4078 17.1085C34.4078 17.1685 34.4078 17.1685 34.4078 17.1085Z" fill="#FE4155"/>
<path d="M36.9267 30.8452C35.0672 31.625 32.7278 30.5452 32.2479 28.3258C31.888 26.5262 32.9077 24.7866 34.5873 24.2468C34.6473 24.2468 34.7073 24.2468 34.7073 24.2468C34.7673 24.4867 34.5873 24.6667 34.6473 24.9066C34.7073 25.3265 34.8872 25.5065 35.3071 25.8664C34.9472 25.8664 34.5873 25.8664 34.2274 25.8664C34.1074 25.8664 33.9875 25.8064 33.9275 25.9264C33.6875 26.2263 33.6275 26.5262 33.6275 26.8861C33.6275 27.426 33.6275 27.9059 33.6275 28.4457C33.6275 28.9256 33.8075 29.1056 34.2874 29.1056C34.6473 29.1056 35.0072 29.1056 35.3071 29.1056C35.5471 29.0456 35.727 29.1656 35.847 29.4055C35.967 29.5855 36.027 29.7054 36.2069 29.8254C36.2669 29.8854 36.2669 29.9454 36.2669 30.0054C36.2669 30.3653 36.5068 30.6652 36.9267 30.8452Z" fill="#FE9000"/>
<path d="M36.2669 29.7654C36.027 29.7654 35.967 29.5255 35.847 29.4055C35.7271 29.2256 35.6671 29.1056 35.4271 29.1656C35.0672 29.1656 34.9473 28.9856 34.9473 28.6257C34.9473 28.1458 34.9473 27.606 34.9473 27.1261C34.9473 26.9461 34.9473 26.7062 34.9473 26.5262C34.9473 26.2263 35.0672 26.0463 35.3672 25.9864C35.967 25.9864 36.6269 25.9864 37.2267 25.9864C37.5866 25.9864 37.7666 26.1663 37.7666 26.5862C37.7666 27.306 37.7666 27.9659 37.7666 28.6857C37.7666 29.0456 37.5866 29.2256 37.2867 29.2256C36.8068 29.1656 36.5669 29.3455 36.3869 29.7654C36.3869 29.6455 36.3269 29.7054 36.2669 29.7654Z" fill="#E8EEFE"/>
<path d="M35.3074 25.8664C35.0675 26.0463 35.0075 26.2263 35.0075 26.5262C35.0075 27.1861 35.0075 27.8459 35.0075 28.5057C35.0075 28.8057 35.1275 29.0456 35.4274 29.1056C34.9475 29.1656 34.4676 29.1656 33.9878 29.1056C33.6878 29.1056 33.5679 28.8656 33.5679 28.6257C33.5679 27.9059 33.5679 27.1261 33.5679 26.4062C33.5679 26.1663 33.6878 25.9863 33.9278 25.8664C34.4077 25.8664 34.8875 25.8664 35.3074 25.8664Z" fill="#BDC7F6"/>
<path d="M9.57369 28.0264C9.39369 27.6664 9.15369 27.3664 9.03369 27.0064C9.27369 27.0064 9.57369 27.1264 9.81369 27.0064C10.2937 26.8264 10.4737 26.5264 10.4737 25.9864C10.7137 26.3464 10.9537 26.7064 11.1337 27.1264C10.5937 27.4864 10.1137 27.7864 9.57369 28.0264Z" fill="#D2DBFA"/>
<path d="M29.1887 30.9651C28.1689 30.7252 27.0892 30.6052 26.0695 30.6052C24.3899 30.6052 22.7703 30.9051 21.2107 31.505C20.7908 30.4253 20.0709 29.4655 19.5311 28.4458C19.3511 28.0858 19.1112 27.8459 18.9912 27.486C18.9912 27.306 19.1112 27.2461 19.1712 27.1861C20.011 26.5262 20.7908 25.8664 21.5106 25.0866C22.3504 24.1868 23.0702 23.227 23.73 22.1473C23.79 22.0273 23.85 21.9074 23.91 21.8474C24.03 21.8474 24.03 21.9674 24.09 22.0273C25.7096 24.7867 27.2692 27.546 28.8288 30.2453C29.0087 30.4853 29.2487 30.6652 29.1887 30.9651Z" fill="#D2DBFA"/>
<path d="M23.9701 21.8474C23.9701 22.0873 23.7902 22.2673 23.6702 22.5072C22.8304 23.8269 21.8107 25.0266 20.6709 26.1063C20.1911 26.5262 19.7112 26.8861 19.2313 27.306C19.1713 27.366 19.1113 27.426 19.1113 27.486C19.0513 27.486 18.9914 27.426 18.9314 27.366C18.3315 26.4062 17.7916 25.3865 17.2518 24.4267C17.0718 24.1268 16.8919 23.9469 16.7119 23.7069C18.8114 21.9673 20.311 19.8679 21.1508 17.2285C21.1508 17.1685 21.2108 17.1085 21.2108 17.0486C21.3308 17.0486 21.3908 17.1685 21.3908 17.2285C22.2306 18.7281 23.0703 20.1678 23.9701 21.6674C23.9101 21.6674 23.9701 21.7274 23.9701 21.8474Z" fill="#BDC7F6"/>
<path d="M29.1886 30.9651C28.8287 30.3053 28.4688 29.6455 28.0489 28.9856C27.3291 27.7259 26.6093 26.5262 25.8894 25.2665C25.2896 24.1868 24.6298 23.1071 24.0299 22.0873C23.9699 22.0273 23.9699 21.9074 23.9099 21.8474C23.8499 21.4275 24.0299 21.1276 24.3298 20.9476C24.6298 20.7077 25.0496 20.5877 25.4096 20.8276C27.2091 23.8869 28.9487 27.0061 30.7482 30.0653C31.0482 30.6052 30.9882 31.1451 30.5083 31.385C30.0284 31.6849 29.5485 31.505 29.1886 31.0251C29.2486 31.0251 29.1886 30.9651 29.1886 30.9651Z" fill="#E8EEFE"/>
<path d="M18.9912 27.306C19.0512 27.366 19.0512 27.366 19.1112 27.426C19.771 28.5657 20.3709 29.7054 21.0307 30.7852C21.1507 31.0251 21.2107 31.2051 21.2107 31.505C21.0907 31.8649 20.9107 32.1048 20.5508 32.2848C19.891 32.6447 19.2311 33.0646 18.5113 33.4245C18.2114 33.7244 17.7915 33.9044 17.4316 34.1443C17.1916 34.2043 16.9517 34.2043 16.7118 34.0843C16.5918 34.0244 16.5318 34.0244 16.4718 33.9044C15.9919 33.3045 15.692 32.5847 15.2721 31.9249C14.9122 31.325 14.6123 30.6652 14.1924 30.1253C14.2524 30.0054 14.2524 29.8854 14.3723 29.7654C14.6123 29.4055 14.9122 29.4055 15.2721 29.4655C15.692 29.7654 15.752 29.7654 16.2319 29.5255C16.6518 29.2855 17.0717 28.9856 17.5516 28.7457C17.9715 28.5057 18.0314 28.4457 17.9715 27.9659C18.1514 27.426 18.3913 27.246 18.9912 27.306Z" fill="#FE4155"/>
<path d="M15.3324 29.5255C15.2724 29.5255 15.2724 29.5855 15.2124 29.5855C14.6726 29.5255 14.6126 29.5855 14.3726 30.0654C14.3726 30.1253 14.3126 30.1253 14.2527 30.1253C13.9527 29.5255 13.5928 28.9856 13.2929 28.3858C12.933 27.7859 12.5731 27.1861 12.2132 26.5262C12.1532 25.9864 12.3931 25.6264 12.873 25.3865C13.8328 24.8466 14.7925 24.3068 15.7523 23.7669C16.0522 23.5869 16.3521 23.527 16.6521 23.6469C16.892 23.7669 17.072 23.9469 17.1919 24.1868C17.7918 25.2665 18.3916 26.2863 18.9915 27.366L18.9315 27.426C18.3916 27.366 18.2117 27.6659 18.0317 28.0858C17.6718 27.9659 17.4319 28.0858 17.1319 28.2658C16.772 28.5057 16.3521 28.7457 15.9322 28.9256C15.6323 29.0456 15.3924 29.1656 15.3324 29.5255Z" fill="#E70054"/>
<path d="M25.4099 20.8276C25.1099 20.7676 24.81 20.7676 24.5101 20.8876C24.1502 21.0676 23.9702 21.4275 23.9102 21.8474C23.4903 21.1275 23.0704 20.4677 22.7105 19.7479C22.1707 18.8481 21.6308 17.8883 21.0909 16.9886C20.971 16.7486 20.851 16.4487 20.911 16.1488C21.0309 15.7889 21.3309 15.4889 21.6908 15.4889C22.1107 15.429 22.4106 15.6089 22.6505 16.0288C23.4304 17.3485 24.1502 18.6682 24.93 19.9878C25.1099 20.2278 25.2899 20.5277 25.4099 20.8276Z" fill="#D2DBFA"/>
<path d="M16.532 33.9044C16.832 34.1443 17.1319 34.1443 17.4918 34.0844C17.6118 34.2043 17.5518 34.3243 17.5518 34.4443C17.5518 35.0441 17.8517 35.524 18.3916 35.7639C18.5115 35.8239 18.6315 35.8239 18.6915 35.9439C18.5115 36.3638 18.1516 36.6037 17.7917 36.9037L17.7317 36.8437C17.0719 36.1838 16.472 35.464 15.8122 34.8042C15.6922 34.6842 15.6323 34.5642 15.5723 34.4443C15.8722 34.2643 16.1721 34.0244 16.532 33.9044Z" fill="#BDC7F6"/>
<path d="M18.6915 35.9439C17.9117 35.7639 17.3718 35.1641 17.4318 34.3243C17.4318 34.2643 17.4318 34.1443 17.4318 34.0843C17.7917 33.9044 18.1516 33.6645 18.5115 33.4845C19.1114 34.2643 19.1714 35.1041 18.6915 35.9439Z" fill="#D2DBFA"/>
<path d="M28.1692 15.129L28.1093 15.189C27.3294 15.309 26.5496 15.189 25.8898 14.7091C25.5899 14.4692 25.3499 14.2293 25.11 13.9293C24.99 13.6894 24.99 13.5094 25.11 13.3295C25.4699 12.7896 25.9498 12.4297 26.5496 12.1898C26.6096 12.3097 26.4897 12.3697 26.4897 12.4897C26.2497 12.9096 26.3097 13.3295 26.6096 13.6894C26.8496 14.0493 27.2695 14.1693 27.6894 14.1093C27.7493 14.1093 27.8693 14.0493 27.9293 14.1093C27.8693 14.4092 27.9293 14.7691 28.1692 15.129Z" fill="#BDC7F6"/>
<path d="M27.9295 14.0498C27.3295 14.2298 26.8495 14.0498 26.5495 13.6298C26.1895 13.2098 26.2495 12.7298 26.6095 12.1298C26.7895 12.0698 26.9695 12.0698 27.0895 12.0098C27.5695 12.0098 27.9895 12.0098 28.4095 12.1898C28.8295 12.4898 28.7695 12.9098 28.6495 13.3298C28.5895 13.6898 28.4095 14.0498 27.9295 14.0498Z" fill="#47477F"/>
<path d="M27.9293 14.0493C28.7091 13.6294 28.8891 12.9696 28.4092 12.1898C29.069 12.3697 29.5489 12.8496 29.9088 13.3895C30.0288 13.5694 29.9688 13.7494 29.8488 13.8693C29.4289 14.4692 28.8891 14.8891 28.1693 15.069C27.8093 14.8291 27.7494 14.4692 27.9293 14.0493Z" fill="#E8EEFE"/>
<path d="M36.2673 19.5679C35.9674 19.8079 35.7275 20.0478 35.4875 20.2878C35.3076 20.4677 35.1276 20.4677 35.0076 20.2878C34.6477 19.9279 34.2878 19.6279 33.8679 19.388C33.3281 19.0281 33.0881 18.5482 33.2681 18.0683C33.448 17.4685 33.8079 17.1685 34.4678 17.1685C34.5278 17.2285 34.5278 17.3485 34.5278 17.4085C34.4678 17.7684 34.5877 18.0083 34.8877 18.1283C35.3675 18.4282 35.7874 18.7281 36.0274 19.268C36.0874 19.388 36.2073 19.448 36.2673 19.5679Z" fill="#BDC7F6"/>
<path d="M36.2673 19.5679C36.0873 19.508 35.9673 19.388 35.8474 19.208C35.6674 18.8481 35.3675 18.5482 35.0076 18.3682C34.4677 18.1283 34.2278 17.7684 34.4077 17.1685C34.9476 17.3485 35.4275 17.3485 36.0273 17.1685C36.5072 17.0486 36.9871 17.4085 37.167 17.8884C37.347 18.3682 37.167 18.9081 36.7471 19.268C36.6272 19.388 36.4472 19.448 36.2673 19.5679Z" fill="#E8EEFE"/>
<path d="M15.3322 29.5255C15.2722 29.2855 15.3922 29.1056 15.6321 28.9856C16.232 28.6857 16.7718 28.3258 17.3717 28.0258C17.6116 27.9059 17.8516 27.8459 18.0315 28.0858C18.2115 28.4457 18.1515 28.5657 17.8516 28.7457C17.2517 29.1056 16.7118 29.4655 16.112 29.7654C15.7521 29.9454 15.5121 29.8254 15.3322 29.5255Z" fill="#FE7085"/>
<path d="M17.4317 32.6447C17.1918 32.6447 17.0718 32.5247 17.0118 32.3448C16.9519 32.1648 16.9519 31.9249 17.1918 31.8049C17.4917 31.625 17.7916 31.445 18.0916 31.265C18.3915 31.0851 18.6914 30.9051 18.9914 30.7252C19.2913 30.5452 19.5312 30.6052 19.7112 30.8451C19.8311 31.0251 19.7712 31.325 19.4712 31.445C18.8714 31.8049 18.2715 32.1648 17.6717 32.4647C17.6117 32.6447 17.4917 32.7047 17.4317 32.6447Z" fill="#FE7085"/>
<path d="M16.4718 31.265C16.3519 31.265 16.2319 31.2051 16.1719 30.9651C16.1119 30.7852 16.1719 30.5452 16.3519 30.4253C17.0117 30.0653 17.6116 29.7054 18.2714 29.2855C18.5113 29.1656 18.6913 29.2855 18.8113 29.4655C18.9312 29.6454 18.9312 29.8854 18.6913 30.0054C18.3314 30.2453 17.9115 30.4852 17.4916 30.7252C17.2516 30.8452 17.0117 30.9651 16.7718 31.1451C16.7718 31.2051 16.6518 31.265 16.4718 31.265Z" fill="#FE7085"/>
<path d="M16.4722 25.4465C16.4722 25.6264 16.3522 25.7464 16.2323 25.8664C15.6324 26.2263 15.0326 26.5862 14.3727 26.9461C14.1328 27.0661 13.8928 27.0061 13.7729 26.7662C13.6529 26.5862 13.7129 26.3463 13.9528 26.1663C14.5527 25.8064 15.2125 25.4465 15.8124 25.0866C16.1123 24.9066 16.4722 25.1466 16.4722 25.4465Z" fill="#FE7085"/>
<path d="M14.9725 28.4457C14.7326 28.4457 14.5526 28.3258 14.4927 28.0858C14.4327 27.8459 14.5526 27.7259 14.7326 27.606C15.0925 27.366 15.4524 27.1861 15.8723 26.9461C16.1123 26.8261 16.3522 26.7062 16.5921 26.5262C16.8321 26.4063 17.072 26.4063 17.252 26.6462C17.3719 26.8861 17.312 27.1261 17.072 27.246C16.4722 27.606 15.8723 27.9659 15.2125 28.3258C15.0925 28.3858 15.0325 28.3858 14.9725 28.4457Z" fill="#FE7085"/>
<path d="M28.2892 12.7897C28.2892 13.0297 28.1092 13.2097 27.8692 13.2097C27.6292 13.2097 27.4492 12.9697 27.4492 12.7897C27.4492 12.5497 27.6292 12.3697 27.8692 12.3697C28.0492 12.3097 28.2892 12.5497 28.2892 12.7897Z" fill="#5E5E9A"/>
</g>
<defs>
<clipPath id="clip0_806_5814">
<rect width="30.4125" height="30.5325" fill="white" transform="translate(8.79395 9.91032)"/>
</clipPath>
</defs>
</svg>
