<svg width="49" height="50" viewBox="0 0 49 50" fill="none" xmlns="http://www.w3.org/2000/svg">
<rect x="0.620605" y="0.420227" width="48" height="48" rx="24" fill="#E5E5E5"/>
<g clip-path="url(#clip0_741_26627)">
<path d="M25.1486 6.97753C24.3166 10.9295 23.8206 15.0415 23.1646 19.0415C17.6446 18.1295 12.1406 17.2015 6.62061 16.2735C7.32461 12.1135 8.02861 7.93753 8.73261 3.77753C14.3006 4.73753 19.6606 5.60153 25.1486 6.97753Z" fill="#0B0C0C"/>
<path d="M12.9726 13.8735C12.9406 14.0495 12.9086 14.2415 12.8766 14.4175C12.8286 14.6895 12.7806 14.9455 12.7486 15.2175C12.7486 15.2495 12.7326 15.2815 12.7326 15.3135C12.7326 15.3455 12.7166 15.3615 12.7006 15.3775C12.6846 15.3935 12.6526 15.3775 12.6366 15.3775C12.6046 15.3775 12.5726 15.3615 12.5406 15.3615C12.2686 15.3135 11.9966 15.2655 11.7406 15.2335C11.6126 15.2175 11.4846 15.1855 11.3726 15.1695C11.3246 15.1535 11.2606 15.1535 11.2126 15.1375C11.1486 15.1215 11.1806 15.0255 11.1806 14.9775C11.1966 14.8655 11.2126 14.7535 11.2446 14.6415C11.2926 14.3695 11.3406 14.0815 11.3886 13.8095C11.4046 13.7455 11.4046 13.6815 11.4206 13.6175C11.4366 13.5375 11.5006 13.5695 11.5646 13.5695C11.8206 13.6175 12.0606 13.6495 12.3166 13.6975C12.5246 13.7295 12.7326 13.7615 12.9406 13.8095C12.9406 13.8095 12.9726 13.8255 12.9726 13.8735C12.9566 13.9695 13.1006 13.9855 13.1166 13.8895C13.1326 13.7775 13.0686 13.6815 12.9566 13.6655C12.9406 13.6655 12.9246 13.6655 12.8926 13.6495C12.7806 13.6335 12.6686 13.6175 12.5726 13.6015C12.2846 13.5535 11.9966 13.5055 11.7086 13.4575C11.6446 13.4415 11.5646 13.4255 11.5006 13.4255C11.4046 13.4095 11.3086 13.4575 11.2766 13.5535C11.2606 13.5855 11.2606 13.6015 11.2606 13.6335C11.2126 13.8735 11.1806 14.1295 11.1326 14.3695C11.1006 14.5935 11.0526 14.8175 11.0206 15.0415C11.0046 15.1055 11.0206 15.1855 11.0686 15.2335C11.1006 15.2655 11.1486 15.2815 11.1966 15.2975C11.2926 15.3135 11.3726 15.3295 11.4686 15.3455C11.7566 15.3935 12.0446 15.4415 12.3486 15.4895C12.4446 15.5055 12.5246 15.5215 12.6206 15.5375C12.6686 15.5375 12.7006 15.5535 12.7486 15.5375C12.8286 15.5055 12.8766 15.4415 12.8766 15.3775C12.9086 15.1535 12.9566 14.9455 12.9886 14.7215C13.0366 14.4655 13.0686 14.2255 13.1166 13.9695C13.1166 13.9535 13.1166 13.9375 13.1166 13.9215C13.1166 13.8095 12.9886 13.7775 12.9726 13.8735Z" fill="white"/>
<path d="M11.9327 12.3695C11.9327 12.3375 11.9487 12.3055 11.9487 12.2735C11.9647 12.1935 11.9807 12.1135 11.9967 12.0335C12.0127 11.9215 12.0287 11.7935 12.0607 11.6815C12.0927 11.5375 12.1087 11.3935 12.1407 11.2495C12.1727 11.0895 12.3647 9.90549 12.3967 9.76149C12.4287 9.60149 12.4447 9.44149 12.4767 9.28149C12.5087 9.13749 12.5247 8.97749 12.5567 8.83349C12.5727 8.70549 12.6047 8.57749 12.6207 8.44949C12.6367 8.35349 12.6367 8.38549 12.6527 8.28949C12.6527 8.24149 12.6687 8.20949 12.6687 8.16149C12.6687 8.11349 12.6527 8.08149 12.6047 8.06549C12.5567 8.06549 12.5247 8.08149 12.5087 8.12949C12.5087 8.16149 12.4927 8.19349 12.4927 8.22549C12.4767 8.30549 12.4927 8.27349 12.4767 8.35349C12.4607 8.46549 12.4447 8.59349 12.4127 8.70549C12.3807 8.84949 12.3647 8.99349 12.3327 9.13749C12.3007 9.29749 12.2847 9.45749 12.2527 9.61749C12.2207 9.77749 12.2047 9.93749 12.1727 10.0975C12.1407 10.2415 11.9487 11.4095 11.9327 11.5695C11.9167 11.6975 11.8847 11.8255 11.8687 11.9535C11.8527 12.0495 11.8367 12.1295 11.8207 12.2255C11.8207 12.2735 11.8047 12.3055 11.8047 12.3535C11.8047 12.4015 11.8207 12.4335 11.8687 12.4495C11.8847 12.4335 11.9327 12.4175 11.9327 12.3695Z" fill="white"/>
<path d="M12.4447 12.4655C12.4447 12.4175 12.4607 12.3695 12.4607 12.3215C12.4767 12.1935 12.5087 12.0655 12.5247 11.9535C12.5567 11.7615 12.5887 11.5855 12.6207 11.3935C12.6527 11.1695 12.8607 9.9215 12.9087 9.6975C12.9567 9.4575 12.9887 9.2015 13.0367 8.9615C13.0847 8.7055 13.1167 8.4655 13.1647 8.2095C13.1967 7.9695 13.2447 7.7455 13.2767 7.5055C13.3087 7.3135 13.3407 7.1055 13.3727 6.9135C13.3887 6.7695 13.4207 6.6255 13.4367 6.4815C13.4527 6.4175 13.4527 6.3535 13.4687 6.2735C13.4687 6.2735 13.4687 6.2735 13.4687 6.2575C13.4687 6.2095 13.4527 6.1775 13.4047 6.1615C13.3567 6.1615 13.3247 6.1775 13.3087 6.2255C13.3087 6.2735 13.2927 6.3215 13.2927 6.3695C13.2767 6.4975 13.2447 6.6255 13.2287 6.7375C13.1967 6.9295 13.1647 7.1055 13.1327 7.2975C13.1007 7.5215 13.0527 7.7455 13.0207 7.9695C12.9727 8.2095 12.9407 8.4655 12.8927 8.7055C12.8447 8.9615 12.8127 9.2015 12.7647 9.4575C12.7327 9.6975 12.6847 9.9215 12.6527 10.1615C12.6207 10.3535 12.4127 11.5695 12.3807 11.7775C12.3647 11.9215 12.3327 12.0655 12.3167 12.2095C12.3007 12.2735 12.3007 12.3375 12.2847 12.4175C12.2847 12.4175 12.2847 12.4175 12.2847 12.4335C12.2847 12.4815 12.3007 12.5135 12.3487 12.5295C12.3967 12.5295 12.4447 12.4975 12.4447 12.4655Z" fill="white"/>
<path d="M12.9569 12.5455C12.9569 12.5135 12.9729 12.4655 12.9729 12.4335C12.9889 12.3215 13.0049 12.2255 13.0209 12.1135C13.0529 11.9535 13.0689 11.8095 13.1009 11.6495C13.1329 11.4575 13.3409 10.2575 13.3729 10.0655C13.4049 9.85751 13.4369 9.64951 13.4689 9.44151C13.5009 9.23351 13.5329 9.02551 13.5809 8.81751C13.6129 8.62551 13.6449 8.43351 13.6769 8.24151C13.7089 8.08151 13.7249 7.90551 13.7569 7.74551C13.7729 7.63351 13.7889 7.50551 13.8209 7.39351C13.8369 7.34551 13.8369 7.28151 13.8529 7.23351C13.8529 7.18551 13.8369 7.15351 13.7889 7.13751C13.7409 7.13751 13.7089 7.15351 13.6929 7.20151C13.6929 7.23351 13.6769 7.28151 13.6769 7.31351C13.6609 7.42551 13.6449 7.52151 13.6289 7.63351C13.5969 7.79351 13.5809 7.93751 13.5489 8.09751C13.5169 8.28951 13.4849 8.48151 13.4529 8.65751C13.4209 8.86551 13.3889 9.07351 13.3569 9.28151C13.3249 9.48951 13.2929 9.69751 13.2449 9.90551C13.2129 10.0975 13.0049 11.3135 12.9729 11.5055C12.9409 11.6655 12.9249 11.8415 12.8929 12.0015C12.8769 12.1135 12.8609 12.2415 12.8289 12.3535C12.8129 12.4015 12.8129 12.4655 12.7969 12.5135C12.7969 12.5615 12.8129 12.5935 12.8609 12.6095C12.9089 12.6095 12.9569 12.5935 12.9569 12.5455Z" fill="white"/>
<path d="M11.7245 14.9295C11.5805 14.5295 11.9325 14.4335 12.0765 14.3855C11.8685 14.2415 11.4685 13.8895 11.2925 13.3135C11.2285 13.1055 11.2445 12.9135 11.2445 12.9135C11.2445 12.9135 11.3565 13.3615 11.7085 13.7295C11.9485 14.0015 12.4445 14.2735 12.5245 14.3695C12.5725 14.4175 12.5725 14.5935 12.5725 14.5935C12.5725 14.5935 12.2365 14.6255 12.0285 14.7215C11.8205 14.8175 11.7405 14.9455 11.7245 14.9295C11.7405 14.9455 11.7405 14.9295 11.7245 14.9295Z" fill="white"/>
<path d="M11.2926 12.7695C11.2926 12.7695 11.4046 13.2175 11.7566 13.5855C11.9966 13.8575 12.4926 14.1295 12.5726 14.2255C12.6206 14.2735 12.6206 14.4495 12.6206 14.4495C12.6206 14.4495 12.6206 14.4495 12.6046 14.4495C12.6046 14.4015 12.5886 14.3375 12.5726 14.3055C12.4926 14.2095 11.9966 13.9375 11.7566 13.6655C11.4846 13.3775 11.3566 13.0415 11.3086 12.8975C11.2766 12.8335 11.2926 12.7695 11.2926 12.7695Z" fill="white"/>
<path d="M16.7324 14.4975C16.7004 14.6735 16.6684 14.8655 16.6364 15.0415C16.5884 15.3135 16.5404 15.5695 16.5084 15.8415C16.5084 15.8735 16.4924 15.9055 16.4924 15.9375C16.4924 15.9695 16.4764 15.9855 16.4604 16.0015C16.4444 16.0175 16.4124 16.0015 16.3964 16.0015C16.3644 16.0015 16.3324 15.9855 16.3004 15.9855C16.0284 15.9375 15.7564 15.8895 15.5004 15.8575C15.3724 15.8415 15.2444 15.8095 15.1324 15.7935C15.0844 15.7775 15.0204 15.7775 14.9724 15.7615C14.9084 15.7455 14.9404 15.6495 14.9404 15.6015C14.9564 15.4895 14.9724 15.3775 15.0044 15.2655C15.0524 14.9935 15.1004 14.7055 15.1484 14.4335C15.1644 14.3695 15.1644 14.3055 15.1804 14.2415C15.1964 14.1615 15.2604 14.1935 15.3244 14.1935C15.5804 14.2415 15.8204 14.2735 16.0764 14.3215C16.2844 14.3535 16.4924 14.3855 16.7004 14.4335C16.7004 14.4335 16.7324 14.4655 16.7324 14.4975C16.7164 14.5935 16.8604 14.6095 16.8764 14.5135C16.8924 14.4015 16.8284 14.3055 16.7164 14.2895C16.7004 14.2895 16.6844 14.2895 16.6524 14.2735C16.5404 14.2575 16.4284 14.2415 16.3324 14.2255C16.0444 14.1775 15.7564 14.1295 15.4684 14.0815C15.4044 14.0655 15.3244 14.0495 15.2604 14.0495C15.1644 14.0335 15.0684 14.0815 15.0364 14.1775C15.0204 14.2095 15.0204 14.2255 15.0204 14.2575C14.9724 14.4975 14.9404 14.7535 14.8924 14.9935C14.8604 15.2175 14.8124 15.4415 14.7804 15.6655C14.7644 15.7295 14.7804 15.8095 14.8284 15.8575C14.8604 15.8895 14.9084 15.9055 14.9564 15.9215C15.0524 15.9375 15.1324 15.9535 15.2284 15.9695C15.5164 16.0175 15.8044 16.0655 16.1084 16.1135C16.2044 16.1295 16.2844 16.1455 16.3804 16.1615C16.4284 16.1615 16.4604 16.1775 16.5084 16.1615C16.5884 16.1295 16.6364 16.0655 16.6364 16.0015C16.6684 15.7775 16.7164 15.5695 16.7484 15.3455C16.7964 15.0895 16.8284 14.8495 16.8764 14.5935C16.8764 14.5775 16.8764 14.5615 16.8764 14.5455C16.8764 14.4335 16.7484 14.4175 16.7324 14.4975Z" fill="white"/>
<path d="M15.6925 13.0095C15.6925 12.9775 15.7085 12.9455 15.7085 12.9135C15.7245 12.8335 15.7405 12.7535 15.7565 12.6735C15.7725 12.5615 15.7885 12.4335 15.8205 12.3215C15.8525 12.1775 15.8685 12.0335 15.9005 11.8895C15.9325 11.7295 16.1245 10.5455 16.1565 10.4015C16.1885 10.2415 16.2045 10.0815 16.2365 9.92151C16.2685 9.77751 16.2845 9.61751 16.3165 9.47351C16.3325 9.34551 16.3645 9.2175 16.3805 9.0895C16.3965 8.99351 16.3965 9.02551 16.4125 8.92951C16.4125 8.8815 16.4285 8.84951 16.4285 8.80151C16.4285 8.75351 16.4125 8.72151 16.3645 8.70551C16.3165 8.70551 16.2845 8.72151 16.2685 8.76951C16.2685 8.80151 16.2525 8.83351 16.2525 8.86551C16.2365 8.94551 16.2525 8.91351 16.2365 8.99351C16.2205 9.10551 16.2045 9.23351 16.1725 9.34551C16.1405 9.48951 16.1245 9.6335 16.0925 9.7775C16.0605 9.9375 16.0445 10.0975 16.0125 10.2575C15.9805 10.4175 15.9645 10.5775 15.9325 10.7375C15.9005 10.8815 15.7085 12.0495 15.6925 12.2095C15.6765 12.3375 15.6445 12.4655 15.6285 12.5935C15.6125 12.6895 15.5965 12.7695 15.5805 12.8655C15.5805 12.9135 15.5645 12.9455 15.5645 12.9935C15.5645 13.0415 15.5805 13.0735 15.6285 13.0895C15.6445 13.0735 15.6925 13.0415 15.6925 13.0095Z" fill="white"/>
<path d="M16.2044 13.0895C16.2044 13.0415 16.2204 12.9935 16.2204 12.9455C16.2364 12.8175 16.2684 12.6895 16.2844 12.5775C16.3164 12.3855 16.3484 12.2095 16.3804 12.0175C16.4124 11.7935 16.6204 10.5455 16.6684 10.3215C16.7164 10.0815 16.7484 9.82552 16.7964 9.58552C16.8444 9.32952 16.8764 9.08952 16.9244 8.83352C16.9564 8.59352 17.0044 8.36952 17.0364 8.12952C17.0684 7.93752 17.1004 7.72952 17.1324 7.53752C17.1484 7.39352 17.1804 7.24952 17.1964 7.10552C17.2124 7.04152 17.2124 6.97752 17.2284 6.89752C17.2284 6.89752 17.2284 6.89752 17.2284 6.88152C17.2284 6.83352 17.2124 6.80152 17.1644 6.78552C17.1164 6.78552 17.0844 6.80152 17.0684 6.84952C17.0684 6.89752 17.0524 6.94552 17.0524 6.99352C17.0364 7.12152 17.0044 7.24952 16.9884 7.36152C16.9564 7.55352 16.9244 7.72952 16.8924 7.92152C16.8604 8.14552 16.8124 8.36952 16.7804 8.59352C16.7324 8.83352 16.7004 9.08952 16.6524 9.32952C16.6044 9.58552 16.5724 9.82552 16.5244 10.0815C16.4924 10.3215 16.4444 10.5455 16.4124 10.7855C16.3804 10.9775 16.1724 12.1935 16.1404 12.4015C16.1244 12.5455 16.0924 12.6895 16.0764 12.8335C16.0604 12.8975 16.0604 12.9615 16.0444 13.0415C16.0444 13.0415 16.0444 13.0415 16.0444 13.0575C16.0444 13.1055 16.0604 13.1375 16.1084 13.1535C16.1564 13.1535 16.2044 13.1375 16.2044 13.0895Z" fill="white"/>
<path d="M16.7166 13.1695C16.7166 13.1375 16.7326 13.0895 16.7326 13.0575C16.7486 12.9455 16.7646 12.8495 16.7806 12.7375C16.8126 12.5775 16.8286 12.4335 16.8606 12.2735C16.8926 12.0815 17.1006 10.8815 17.1326 10.6895C17.1646 10.4815 17.1966 10.2735 17.2286 10.0655C17.2606 9.85754 17.2926 9.64954 17.3406 9.44154C17.3726 9.24954 17.4046 9.05754 17.4366 8.86554C17.4686 8.70554 17.4846 8.52954 17.5166 8.36954C17.5326 8.25754 17.5486 8.12954 17.5806 8.01754C17.5966 7.96954 17.5966 7.90554 17.6126 7.85754C17.6126 7.80954 17.5966 7.77754 17.5486 7.76154C17.5006 7.76154 17.4686 7.77754 17.4526 7.82554C17.4526 7.85754 17.4366 7.90554 17.4366 7.93754C17.4206 8.04954 17.4046 8.14554 17.3886 8.25754C17.3566 8.41754 17.3406 8.56154 17.3086 8.72154C17.2766 8.91354 17.2446 9.10554 17.2126 9.28154C17.1806 9.48954 17.1486 9.69754 17.1166 9.90554C17.0846 10.1135 17.0526 10.3215 17.0046 10.5295C16.9726 10.7215 16.7646 11.9375 16.7326 12.1295C16.7006 12.2895 16.6846 12.4655 16.6526 12.6255C16.6366 12.7375 16.6206 12.8655 16.5886 12.9775C16.5726 13.0255 16.5726 13.0895 16.5566 13.1375C16.5566 13.1855 16.5726 13.2175 16.6206 13.2335C16.6686 13.2495 16.7166 13.2175 16.7166 13.1695Z" fill="white"/>
<path d="M15.4842 15.5695C15.3402 15.1695 15.6922 15.0735 15.8362 15.0255C15.6282 14.8815 15.2282 14.5295 15.0522 13.9535C14.9882 13.7455 15.0042 13.5535 15.0042 13.5535C15.0042 13.5535 15.1162 14.0015 15.4682 14.3695C15.7082 14.6415 16.2042 14.9135 16.2842 15.0095C16.3322 15.0575 16.3322 15.2335 16.3322 15.2335C16.3322 15.2335 15.9962 15.2655 15.7882 15.3615C15.5802 15.4415 15.5002 15.5695 15.4842 15.5695C15.5002 15.5695 15.5002 15.5695 15.4842 15.5695Z" fill="white"/>
<path d="M15.0523 13.4095C15.0523 13.4095 15.1643 13.8575 15.5163 14.2255C15.7563 14.4975 16.2523 14.7695 16.3323 14.8655C16.3803 14.9135 16.3803 15.0895 16.3803 15.0895C16.3803 15.0895 16.3803 15.0895 16.3643 15.0895C16.3643 15.0415 16.3483 14.9775 16.3323 14.9455C16.2523 14.8495 15.7563 14.5775 15.5163 14.3055C15.2443 14.0175 15.1163 13.6815 15.0683 13.5375C15.0363 13.4575 15.0523 13.4095 15.0523 13.4095Z" fill="white"/>
<path d="M20.4927 15.1375C20.4607 15.3135 20.4287 15.5055 20.3967 15.6815C20.3487 15.9535 20.3007 16.2095 20.2687 16.4815C20.2687 16.5135 20.2527 16.5455 20.2527 16.5775C20.2527 16.6095 20.2367 16.6255 20.2207 16.6415C20.2047 16.6575 20.1727 16.6415 20.1567 16.6415C20.1247 16.6415 20.0927 16.6255 20.0607 16.6255C19.7887 16.5775 19.5167 16.5295 19.2607 16.4975C19.1327 16.4815 19.0047 16.4495 18.8927 16.4335C18.8447 16.4175 18.7807 16.4175 18.7327 16.4015C18.6687 16.3855 18.7007 16.2895 18.7007 16.2415C18.7167 16.1295 18.7327 16.0175 18.7647 15.9055C18.8127 15.6335 18.8607 15.3455 18.9087 15.0735C18.9247 15.0095 18.9247 14.9455 18.9407 14.8815C18.9567 14.8015 19.0207 14.8335 19.0847 14.8335C19.3407 14.8815 19.5807 14.9135 19.8367 14.9615C20.0447 14.9935 20.2527 15.0255 20.4607 15.0735C20.4607 15.0735 20.4927 15.0895 20.4927 15.1375C20.4767 15.2335 20.6207 15.2495 20.6367 15.1535C20.6527 15.0415 20.5887 14.9455 20.4767 14.9295C20.4607 14.9295 20.4447 14.9295 20.4127 14.9135C20.3007 14.8975 20.1887 14.8815 20.0927 14.8655C19.8047 14.8175 19.5167 14.7695 19.2287 14.7215C19.1647 14.7055 19.0847 14.6895 19.0207 14.6895C18.9247 14.6735 18.8287 14.7215 18.7967 14.8175C18.7807 14.8495 18.7807 14.8655 18.7807 14.8975C18.7327 15.1375 18.7007 15.3935 18.6527 15.6335C18.6207 15.8575 18.5727 16.0815 18.5407 16.3055C18.5247 16.3695 18.5407 16.4495 18.5887 16.4975C18.6207 16.5295 18.6687 16.5455 18.7167 16.5615C18.8127 16.5775 18.8927 16.5935 18.9887 16.6095C19.2767 16.6575 19.5647 16.7055 19.8687 16.7535C19.9647 16.7695 20.0447 16.7855 20.1407 16.8015C20.1887 16.8015 20.2207 16.8175 20.2687 16.8015C20.3487 16.7695 20.3967 16.7055 20.3967 16.6415C20.4287 16.4175 20.4767 16.2095 20.5087 15.9855C20.5567 15.7295 20.5887 15.4895 20.6367 15.2335C20.6367 15.2175 20.6367 15.2015 20.6367 15.1855C20.6367 15.0735 20.5087 15.0415 20.4927 15.1375Z" fill="white"/>
<path d="M19.4527 13.6335C19.4527 13.6015 19.4687 13.5695 19.4687 13.5375C19.4847 13.4575 19.5007 13.3775 19.5167 13.2975C19.5327 13.1855 19.5487 13.0575 19.5807 12.9455C19.6127 12.8015 19.6287 12.6575 19.6607 12.5135C19.6927 12.3535 19.8847 11.1695 19.9167 11.0255C19.9487 10.8655 19.9647 10.7055 19.9967 10.5455C20.0287 10.4015 20.0447 10.2415 20.0767 10.0975C20.0927 9.96947 20.1247 9.84147 20.1407 9.71347C20.1567 9.61747 20.1567 9.64947 20.1727 9.55347C20.1727 9.50547 20.1887 9.47347 20.1887 9.42547C20.1887 9.37747 20.1727 9.34547 20.1247 9.32947C20.0767 9.32947 20.0447 9.34547 20.0287 9.39347C20.0287 9.42547 20.0127 9.45747 20.0127 9.48947C19.9967 9.56947 20.0127 9.53747 19.9967 9.61747C19.9807 9.72947 19.9647 9.85747 19.9327 9.96947C19.9007 10.1135 19.8847 10.2575 19.8527 10.4015C19.8207 10.5615 19.8047 10.7215 19.7727 10.8815C19.7407 11.0415 19.7247 11.2015 19.6927 11.3615C19.6607 11.5055 19.4687 12.6735 19.4527 12.8335C19.4367 12.9615 19.4047 13.0895 19.3887 13.2175C19.3727 13.3135 19.3567 13.3935 19.3407 13.4895C19.3407 13.5375 19.3247 13.5695 19.3247 13.6175C19.3247 13.6655 19.3407 13.6975 19.3887 13.7135C19.4047 13.6975 19.4527 13.6815 19.4527 13.6335Z" fill="white"/>
<path d="M19.9647 13.7295C19.9647 13.6815 19.9807 13.6335 19.9807 13.5855C19.9967 13.4575 20.0287 13.3295 20.0447 13.2175C20.0767 13.0255 20.1087 12.8495 20.1407 12.6575C20.1727 12.4335 20.3807 11.1855 20.4287 10.9615C20.4767 10.7215 20.5087 10.4655 20.5567 10.2255C20.6047 9.96948 20.6367 9.72948 20.6847 9.47348C20.7167 9.23348 20.7647 9.00948 20.7967 8.76948C20.8287 8.57748 20.8607 8.36948 20.8927 8.17748C20.9087 8.03348 20.9407 7.88948 20.9567 7.74548C20.9727 7.68148 20.9727 7.61748 20.9887 7.53748C20.9887 7.53748 20.9887 7.53748 20.9887 7.52148C20.9887 7.47348 20.9727 7.44148 20.9247 7.42548C20.8767 7.42548 20.8447 7.44148 20.8287 7.48948C20.8287 7.53748 20.8127 7.58548 20.8127 7.63348C20.7967 7.76148 20.7647 7.88948 20.7487 8.00148C20.7167 8.19348 20.6847 8.36948 20.6527 8.56148C20.6207 8.78548 20.5727 9.00948 20.5407 9.23348C20.4927 9.47348 20.4607 9.72948 20.4127 9.96948C20.3647 10.2255 20.3327 10.4655 20.2847 10.7215C20.2527 10.9615 20.2047 11.1855 20.1727 11.4255C20.1407 11.6175 19.9327 12.8335 19.9007 13.0415C19.8847 13.1855 19.8527 13.3295 19.8367 13.4735C19.8207 13.5375 19.8207 13.6015 19.8047 13.6815C19.8047 13.6815 19.8047 13.6815 19.8047 13.6975C19.8047 13.7455 19.8207 13.7775 19.8687 13.7935C19.9167 13.7935 19.9647 13.7615 19.9647 13.7295Z" fill="white"/>
<path d="M20.4769 13.8095C20.4769 13.7775 20.4929 13.7295 20.4929 13.6975C20.5089 13.5855 20.5249 13.4895 20.5409 13.3775C20.5729 13.2175 20.5889 13.0735 20.6209 12.9135C20.6529 12.7215 20.8609 11.5215 20.8929 11.3295C20.9249 11.1215 20.9569 10.9135 20.9889 10.7055C21.0209 10.4975 21.0529 10.2895 21.1009 10.0815C21.1329 9.88949 21.1649 9.69749 21.1969 9.50549C21.2289 9.34549 21.2449 9.16949 21.2769 9.00949C21.2929 8.89749 21.3089 8.76949 21.3409 8.65749C21.3569 8.60949 21.3569 8.54549 21.3729 8.49749C21.3729 8.44949 21.3569 8.41749 21.3089 8.40149C21.2609 8.40149 21.2289 8.41749 21.2129 8.46549C21.2129 8.49749 21.1969 8.54549 21.1969 8.57749C21.1809 8.68949 21.1649 8.78549 21.1489 8.89749C21.1169 9.05749 21.1009 9.20149 21.0689 9.36149C21.0369 9.55349 21.0049 9.74549 20.9729 9.92149C20.9409 10.1295 20.9089 10.3375 20.8769 10.5455C20.8449 10.7535 20.8129 10.9615 20.7649 11.1695C20.7329 11.3615 20.5249 12.5775 20.4929 12.7695C20.4609 12.9295 20.4449 13.1055 20.4129 13.2655C20.3969 13.3775 20.3809 13.5055 20.3489 13.6175C20.3329 13.6655 20.3329 13.7295 20.3169 13.7775C20.3169 13.8255 20.3329 13.8575 20.3809 13.8735C20.4289 13.8735 20.4769 13.8575 20.4769 13.8095Z" fill="white"/>
<path d="M9.42082 12.8175L9.83682 10.3855L10.2528 7.95352C10.2528 7.92152 10.2368 7.90552 10.2208 7.90552C10.1888 7.90552 10.1728 7.92152 10.1728 7.93752C10.1728 7.96952 10.1568 8.01752 10.1568 8.04952L9.74082 10.3695L9.35682 12.6735C9.35682 12.7055 9.34082 12.7535 9.34082 12.7855C9.34082 12.8175 9.35682 12.8335 9.37282 12.8335C9.38882 12.8495 9.42082 12.8335 9.42082 12.8175Z" fill="white"/>
<path d="M9.21281 12.2575L9.53281 10.3215L9.85281 8.38552C9.85281 8.35352 9.83681 8.33752 9.82081 8.33752C9.80481 8.33752 9.77281 8.35352 9.77281 8.36952C9.77281 8.40152 9.75681 8.43352 9.75681 8.46552L9.45281 10.2895L9.14881 12.1135C9.14881 12.1455 9.13281 12.1775 9.13281 12.2095C9.13281 12.2255 9.14881 12.2575 9.16481 12.2575C9.18081 12.3055 9.19681 12.2895 9.21281 12.2575Z" fill="white"/>
<path d="M10.2528 9.13749C10.2528 9.16949 10.2368 9.18549 10.2368 9.21749C10.2208 9.26549 10.2368 9.24949 10.2208 9.31349L10.0288 10.4175L9.8528 11.5215C9.8368 11.5695 9.8528 11.5535 9.8368 11.6175C9.8368 11.6495 9.8208 11.6655 9.8208 11.6975C9.8208 11.7135 9.8368 11.7455 9.8528 11.7455C9.8848 11.7455 9.9008 11.7295 9.9008 11.7135L9.9168 11.6655C9.9168 11.6175 9.9168 11.6495 9.9328 11.6015L10.1248 10.4495L10.3168 9.29749C10.3168 9.24949 10.3168 9.28149 10.3328 9.23349L10.3488 9.18549C10.3488 9.15349 10.3328 9.13749 10.3168 9.13749C10.2848 9.10549 10.2528 9.12149 10.2528 9.13749Z" fill="white"/>
<path d="M20.0449 16.1936C20.0289 16.1616 20.0289 16.1296 19.9969 16.0976C19.9809 16.0816 19.965 16.0656 19.949 16.0336L19.9329 16.0176C19.9009 15.9856 19.8689 15.9536 19.8209 15.9056C19.8049 15.8896 19.7889 15.8736 19.7729 15.8576C19.7889 15.8576 19.8049 15.8416 19.8209 15.8416C19.8529 15.8736 19.8849 15.9056 19.9329 15.9536L19.949 15.9696C19.965 15.9856 19.9809 16.0016 19.9969 16.0336C20.0289 16.0656 20.0449 16.1296 20.0449 16.1936Z" fill="white"/>
<path d="M20.0128 15.5535C20.0128 15.5215 19.9968 15.4735 19.9648 15.4415C19.9488 15.4255 19.9328 15.4095 19.9168 15.4095C19.9008 15.4095 19.8688 15.4095 19.8528 15.4255C19.8048 15.4415 19.7408 15.4735 19.6928 15.5055C19.6768 15.5215 19.6448 15.5375 19.6288 15.5375C19.5968 15.5535 19.5648 15.5695 19.5328 15.5855H19.5168C19.5168 15.5855 19.5008 15.5855 19.5008 15.6015C19.4848 15.5855 19.4848 15.5855 19.4688 15.5695L19.4528 15.5535C19.4368 15.5375 19.4208 15.5055 19.4048 15.4895C19.3728 15.4415 19.3408 15.4095 19.3088 15.3615C19.2768 15.3135 19.2608 15.2815 19.2288 15.2335C19.2288 15.2175 19.2128 15.2175 19.2128 15.2015C19.1808 15.1535 19.1648 15.1055 19.1168 15.0735C19.1008 15.0575 19.0848 15.0575 19.0688 15.0575C19.0688 15.0415 19.0688 15.0255 19.0688 15.0095C19.0688 14.9935 19.0688 14.9935 19.0688 14.9935C19.0688 14.9935 19.0848 14.9935 19.1008 15.0095C19.1328 15.0415 19.1648 15.0895 19.1968 15.1215C19.1968 15.1375 19.2128 15.1375 19.2128 15.1535C19.2448 15.2015 19.2608 15.2495 19.2928 15.2815C19.3248 15.3295 19.3568 15.3615 19.3888 15.4095C19.4048 15.4255 19.4208 15.4575 19.4368 15.4735L19.4528 15.4895C19.4688 15.5055 19.4688 15.5215 19.4848 15.5375L19.5008 15.5535H19.5168C19.5168 15.5535 19.5328 15.5375 19.5488 15.5375H19.5648C19.5968 15.5215 19.6288 15.5055 19.6608 15.4895C19.6768 15.4735 19.7088 15.4575 19.7248 15.4575C19.7728 15.4255 19.8208 15.3935 19.8688 15.3775C19.8848 15.3775 19.9008 15.3615 19.9168 15.3615C19.9328 15.3615 19.9488 15.3775 19.9488 15.3935C19.9648 15.4255 19.9808 15.4575 19.9808 15.5055C20.0128 15.5055 20.0128 15.5215 20.0128 15.5535Z" fill="white"/>
<path d="M19.3408 15.7136L19.3248 15.6976C19.3088 15.6816 19.3088 15.6656 19.2928 15.6496C19.2768 15.6016 19.2448 15.5696 19.2288 15.5216C19.1968 15.4576 19.1648 15.4096 19.1488 15.3456C19.1328 15.2976 19.1168 15.2496 19.1008 15.2016C19.0848 15.1696 19.0688 15.1216 19.0848 15.0896C19.0848 15.0576 19.1328 15.0576 19.1488 15.0896C19.1968 15.1216 19.2128 15.1696 19.2448 15.2176C19.2768 15.2656 19.3088 15.3296 19.3408 15.3776C19.3728 15.4256 19.4048 15.4576 19.4368 15.5056C19.4528 15.5216 19.4688 15.5536 19.4848 15.5696C19.5008 15.5856 19.5168 15.6176 19.5328 15.6336C19.5488 15.6176 19.5648 15.6176 19.5808 15.6176C19.6128 15.6016 19.6448 15.5856 19.6768 15.5696C19.7568 15.5376 19.8208 15.4896 19.9008 15.4576C19.9168 15.4576 19.9328 15.4416 19.9488 15.4416C19.9648 15.4416 19.9808 15.4576 19.9968 15.4736C20.0128 15.5056 20.0288 15.5536 20.0288 15.5856C20.0448 15.6496 20.0608 15.7296 19.9968 15.7616C19.9648 15.7936 19.9168 15.8096 19.8848 15.8416C19.8528 15.8576 19.8048 15.8736 19.7728 15.9056C19.7888 15.9056 19.7888 15.9216 19.8048 15.9216C19.8208 15.9376 19.8368 15.9536 19.8528 15.9696C19.8848 16.0016 19.9168 16.0336 19.9648 16.0816C19.9808 16.1136 20.0128 16.1296 20.0288 16.1616C20.0768 16.2256 20.0928 16.3216 20.0768 16.3856C20.0768 16.4016 20.0768 16.4336 20.0608 16.4496C20.0608 16.4656 20.0448 16.4976 20.0288 16.5136C19.9968 16.5296 19.9648 16.4816 19.9328 16.4656C19.9008 16.4336 19.8688 16.4016 19.8368 16.3696C19.7728 16.3056 19.7248 16.2256 19.6608 16.1456C19.6288 16.1136 19.6128 16.0656 19.5808 16.0336C19.5808 16.0176 19.5648 16.0176 19.5648 16.0016C19.5488 15.9856 19.4368 16.0656 19.4208 16.0816C19.3728 16.1136 19.3408 16.1616 19.2928 16.1776C19.2448 16.1936 19.2128 16.1296 19.1968 16.0976C19.1808 16.0496 19.1648 16.0016 19.1488 15.9536C19.1488 15.9376 19.1488 15.9056 19.1648 15.8896C19.1968 15.8576 19.2288 15.8256 19.2608 15.7936C19.2928 15.7456 19.3088 15.7296 19.3408 15.7136Z" fill="white"/>
<path d="M13.3404 40.3215C13.0204 40.6415 12.6844 40.9775 12.3644 41.2975C11.8844 41.7775 11.4044 42.2575 10.9244 42.7375C10.8604 42.8015 10.8124 42.8495 10.7484 42.9135C10.7004 42.9615 10.6524 43.0095 10.5884 42.9935C10.5244 42.9935 10.4924 42.9455 10.4444 42.8975C10.3804 42.8335 10.3164 42.7695 10.2684 42.7215C9.78838 42.2415 9.30838 41.7615 8.81238 41.2655C8.58838 41.0415 8.36438 40.8175 8.14038 40.5935C8.04438 40.4975 7.91638 40.4015 7.83638 40.2895C7.72438 40.1455 7.93238 40.0015 8.02838 39.9055C8.23638 39.6975 8.42838 39.5055 8.63638 39.2975C9.13238 38.8015 9.64438 38.2895 10.1404 37.7935C10.2524 37.6815 10.3644 37.5535 10.4924 37.4415C10.6364 37.3135 10.7484 37.4575 10.8444 37.5695C11.2924 38.0175 11.7564 38.4815 12.2044 38.9295C12.5884 39.3135 12.9564 39.6815 13.3404 40.0655C13.4044 40.1455 13.4204 40.2415 13.3404 40.3215C13.1804 40.4815 13.4364 40.7375 13.5804 40.5615C13.7724 40.3535 13.7724 40.0495 13.5804 39.8415C13.5484 39.8095 13.5164 39.7775 13.4684 39.7295C13.2764 39.5375 13.0844 39.3455 12.8764 39.1375C12.3484 38.6095 11.8364 38.0975 11.3084 37.5695C11.1804 37.4415 11.0684 37.3135 10.9404 37.2015C10.7644 37.0415 10.4924 36.9935 10.3004 37.1375C10.2524 37.1695 10.2044 37.2175 10.1564 37.2655C9.70838 37.7135 9.26038 38.1615 8.81238 38.6095C8.41238 39.0095 7.99638 39.4095 7.59638 39.8255C7.46838 39.9535 7.40438 40.1135 7.43638 40.2895C7.45238 40.4175 7.53238 40.5135 7.61238 40.5935C7.77238 40.7535 7.93238 40.9135 8.09238 41.0735C8.62038 41.6015 9.14838 42.1295 9.67638 42.6575C9.83638 42.8175 10.0124 42.9935 10.1724 43.1535C10.2524 43.2335 10.3324 43.2975 10.4284 43.3295C10.6204 43.3775 10.8124 43.3135 10.9404 43.1855C11.3404 42.7855 11.7244 42.4015 12.1244 42.0015C12.5724 41.5535 13.0364 41.0895 13.4844 40.6415C13.5164 40.6095 13.5324 40.5935 13.5644 40.5615C13.7564 40.4015 13.5004 40.1615 13.3404 40.3215Z" fill="black"/>
<path d="M9.27637 40.8655C9.58037 39.7455 10.5244 40.0975 10.9084 40.2255C10.7004 39.5855 10.3484 38.1775 10.8764 36.6095C11.0684 36.0495 11.3884 35.6495 11.3884 35.6495C11.3884 35.6495 10.9564 36.8175 11.1164 38.1935C11.2284 39.1695 11.8684 40.5615 11.9004 40.8975C11.9164 41.0735 11.6444 41.4575 11.6444 41.4575C11.6444 41.4575 10.8604 41.0095 10.2204 40.8815C9.64437 40.7535 9.27637 40.9135 9.27637 40.9135V40.8655Z" fill="black"/>
<path d="M11.7082 35.3775C11.7082 35.3775 11.2762 36.5455 11.4362 37.9215C11.5482 38.8975 12.1882 40.2895 12.2202 40.6255C12.2362 40.8015 11.9642 41.1855 11.9642 41.1855C11.9642 41.1855 11.9482 41.1695 11.9162 41.1535C11.9802 41.0255 12.0602 40.8815 12.0442 40.7855C12.0122 40.4495 11.3722 39.0575 11.2602 38.0815C11.1322 37.0095 11.3722 36.0655 11.4842 35.6975C11.5962 35.5055 11.7082 35.3775 11.7082 35.3775Z" fill="black"/>
<path d="M33.7727 21.2975C33.7567 21.2975 33.7407 21.2815 33.7407 21.2815C33.6767 21.2335 33.6127 21.2015 33.9327 20.0815C34.1087 19.5055 34.3007 18.8815 34.3807 18.6575L34.4447 18.4815L34.5407 18.6415C34.6207 18.7855 35.6127 19.3775 35.7727 19.3775H35.9967L35.7887 19.5695C34.1407 21.1535 33.8687 21.3135 33.7727 21.2975ZM34.5087 18.8495C34.3007 19.4575 33.9167 20.7055 33.8687 21.0735C34.0287 20.9615 34.4607 20.6095 35.6127 19.5055C35.2927 19.3935 34.7487 19.0415 34.5087 18.8495Z" fill="black"/>
<path d="M35.7409 19.5535C35.4529 19.5055 34.4929 18.8975 34.3969 18.7375C34.3809 18.7055 34.3809 18.6735 34.3809 18.6575C34.3969 18.5935 34.9409 17.6495 36.7809 14.4175C37.8849 12.5135 39.0049 10.5295 39.5649 9.55351L39.6129 9.47351L39.6929 9.53751C39.9489 9.72951 40.7169 10.2095 41.0369 10.3375L41.1329 10.3695L41.0849 10.4495C39.9169 12.5775 36.5409 18.5935 35.8689 19.5215C35.8529 19.5375 35.8209 19.5695 35.7729 19.5695C35.7569 19.5535 35.7409 19.5535 35.7409 19.5535ZM34.5569 18.6575C34.7009 18.8175 35.5489 19.3295 35.7409 19.3775C36.4449 18.3695 39.6769 12.5935 40.8769 10.4335C40.5569 10.2735 39.9489 9.92151 39.6609 9.71351C39.1009 10.7215 37.9969 12.6415 36.9249 14.4975C35.8369 16.4015 34.7009 18.3855 34.5569 18.6575Z" fill="black"/>
<path d="M41.0848 10.5135C41.0528 10.5135 41.0208 10.4975 40.9728 10.4815C40.6528 10.3535 39.8528 9.85753 39.5968 9.66553C39.5328 9.61753 39.5008 9.58553 39.5008 9.56953C39.4848 9.53753 39.4368 9.45753 39.5968 9.15353C39.6768 8.99353 39.7728 8.83353 39.8528 8.73753C39.9328 8.64153 40.0768 8.70553 40.1728 8.76953C40.1888 8.78553 40.2208 8.80153 40.2368 8.80153C40.2368 8.78553 40.2528 8.76953 40.2528 8.75353C40.2848 8.67353 40.3328 8.57753 40.4448 8.54553C40.4768 8.54553 40.5248 8.54553 40.6528 8.59353C40.8448 8.67353 41.1488 8.81753 41.3408 8.94553C41.5648 9.08953 41.6128 9.15353 41.6128 9.21753C41.6128 9.31353 41.5328 9.44153 41.4688 9.52153C41.5488 9.56953 41.7088 9.63353 41.6448 9.77753C41.6128 9.85753 41.5328 10.0175 41.4368 10.1775C41.2768 10.4495 41.1968 10.5135 41.1488 10.5295C41.1488 10.5135 41.1168 10.5135 41.0848 10.5135ZM39.6448 9.47353C39.6448 9.47353 39.6608 9.48953 39.6928 9.52153C39.9488 9.71353 40.7168 10.1935 41.0368 10.3215C41.0688 10.3375 41.1008 10.3375 41.1168 10.3535C41.1968 10.2895 41.3728 9.98553 41.5008 9.72953C41.4848 9.71353 41.4368 9.69753 41.4048 9.68153C41.3408 9.64953 41.2928 9.63353 41.2768 9.56953C41.2768 9.53753 41.2768 9.50553 41.2928 9.48953C41.3568 9.40953 41.4368 9.29753 41.4528 9.24953C41.4368 9.23353 41.3888 9.18553 41.2608 9.10553C41.0688 8.99353 40.7808 8.83353 40.5888 8.76953C40.5248 8.73753 40.4928 8.73753 40.4768 8.73753C40.4448 8.75353 40.4288 8.80153 40.3968 8.84953C40.3648 8.91353 40.3488 8.96153 40.3008 8.99353C40.2368 9.02553 40.1568 8.99353 40.0768 8.94553C40.0448 8.92953 39.9808 8.89753 39.9648 8.88153C39.7888 9.04153 39.6288 9.37753 39.6448 9.47353Z" fill="black"/>
<path d="M39.9485 15.6495C39.9005 15.6495 39.8685 15.6335 39.8205 15.6175C39.5165 15.4735 39.1965 15.2175 39.3085 14.7855C39.4845 14.1295 40.6045 12.0175 41.4205 10.4655C41.7725 9.80951 42.0925 9.20151 42.1725 9.02551C42.0445 8.92951 41.6925 8.72151 41.5965 8.70551C41.5485 8.73751 41.4525 8.91351 41.4045 8.97751C41.3885 9.00951 41.3725 9.04151 41.3565 9.05751L41.3085 9.12151L41.2285 9.07351C41.0365 8.96151 40.7485 8.80151 40.5565 8.73751L40.5245 8.72151L40.5085 8.68951C40.5085 8.67351 40.4925 8.65751 40.5085 8.64151C40.5245 8.51351 40.8765 7.96951 40.9405 7.88951C40.9725 7.85751 41.0365 7.77751 41.5645 7.98551C41.8685 8.09751 42.1885 8.25751 42.4285 8.41751C42.7965 8.65751 42.9405 8.84951 42.8605 9.00951C42.7005 9.34551 42.3965 9.92151 42.0445 10.5615C41.6605 11.2655 41.2285 12.0655 40.9245 12.7215C40.8765 12.8175 40.7965 12.9775 40.7005 13.1535C40.4125 13.6815 39.9965 14.4975 39.9645 14.7695C39.9485 14.9455 40.0285 15.0095 40.1405 15.0895C40.2205 15.1535 40.3005 15.2175 40.3165 15.3295C40.3325 15.4255 40.2845 15.5215 40.2045 15.5855C40.1405 15.6495 40.0445 15.6655 39.9485 15.6495ZM41.6125 8.51351C41.8045 8.54551 42.2845 8.88151 42.3165 8.91351C42.3965 8.97751 42.3965 8.97751 41.5645 10.5295C40.7965 11.9695 39.6285 14.1615 39.4685 14.8015C39.4045 15.0575 39.5485 15.2655 39.8845 15.4255C39.9645 15.4735 40.0605 15.4575 40.1085 15.4255C40.1405 15.4095 40.1565 15.3615 40.1565 15.3295C40.1565 15.2815 40.1085 15.2495 40.0445 15.1855C39.9325 15.0895 39.7885 14.9775 39.8045 14.7215C39.8365 14.4015 40.2525 13.6175 40.5565 13.0415C40.6525 12.8655 40.7325 12.7055 40.7805 12.6095C41.0845 11.9535 41.5325 11.1535 41.9165 10.4495C42.2685 9.79351 42.5725 9.23351 42.7325 8.89751C42.7325 8.88151 42.7325 8.84951 42.6845 8.80151C42.4125 8.46551 41.2765 7.96951 41.0845 8.00151C41.0045 8.11351 40.7965 8.44951 40.7325 8.59351C40.8925 8.65751 41.1165 8.76951 41.2765 8.86551C41.4045 8.64151 41.4845 8.51351 41.5805 8.49751C41.5805 8.51351 41.5965 8.51351 41.6125 8.51351Z" fill="black"/>
<path fill-rule="evenodd" clip-rule="evenodd" d="M39.9007 9.96949C38.3487 12.5455 35.2287 17.6975 34.8927 18.4495C34.8767 18.4975 34.8927 18.5295 34.9407 18.5615C34.9887 18.5775 35.0367 18.5615 35.0527 18.5135C35.3887 17.7615 38.4927 12.6255 40.0447 10.0495C40.0607 10.0175 40.0607 9.96949 40.0127 9.93749C39.9807 9.92149 39.9167 9.93749 39.9007 9.96949Z" fill="black"/>
<path fill-rule="evenodd" clip-rule="evenodd" d="M35.3728 18.8335C37.0208 15.9695 38.6688 13.1215 40.3328 10.2575C40.3488 10.2255 40.3488 10.1775 40.3008 10.1455C40.2688 10.1295 40.2208 10.1295 40.1888 10.1775C38.5408 13.0415 36.8928 15.8895 35.2288 18.7535C35.2128 18.7855 35.2128 18.8335 35.2608 18.8655C35.3088 18.8815 35.3568 18.8655 35.3728 18.8335Z" fill="black"/>
<path fill-rule="evenodd" clip-rule="evenodd" d="M35.7885 19.0095C36.0285 18.6735 39.9005 11.6335 40.6685 10.5135C40.7005 10.4815 40.6845 10.4335 40.6525 10.4015C40.6205 10.3695 40.5725 10.3855 40.5405 10.4175C39.7565 11.5375 35.8845 18.5935 35.6605 18.9135C35.6285 18.9455 35.6445 18.9935 35.6765 19.0255C35.7085 19.0575 35.7565 19.0575 35.7885 19.0095Z" fill="black"/>
<path fill-rule="evenodd" clip-rule="evenodd" d="M34.6049 20.5935C34.5089 20.4335 33.9969 20.1295 33.9809 20.1775C33.9329 20.3855 33.7089 21.2335 33.7249 21.2655C33.7409 21.2975 34.6049 20.5935 34.6049 20.5935Z" fill="black"/>
<path d="M27.9808 35.0575C27.8368 34.8015 27.6928 34.5455 27.5168 34.3055C26.9408 33.5375 26.3328 32.7855 25.6448 31.9055C27.2928 31.5375 28.8928 32.0495 30.3168 31.2175C28.9568 30.5615 27.4848 30.8015 25.7888 30.6095C26.4608 29.7135 27.0208 29.0575 27.5008 28.3375C27.8208 27.8575 28.6688 27.2495 28.1088 26.8015C27.5968 26.4015 27.1328 27.3775 26.7008 27.7935C26.1888 28.2735 25.8848 28.9775 25.1488 29.3775C25.0848 29.0095 25.0368 28.7695 25.0208 28.5295C24.9568 27.7455 24.9248 26.9615 24.8768 26.1775C24.8448 25.8575 24.6688 25.6175 24.3168 25.6175C23.9648 25.6175 23.7728 25.9055 23.7568 26.1935C23.7248 26.8335 23.7888 27.4735 23.8048 28.1135C23.8208 28.6575 24.0288 29.2175 23.6448 29.8895C23.0048 29.1535 22.4768 28.5295 21.9168 27.9375C21.5648 27.5695 21.1968 26.8495 20.6368 27.2655C19.9968 27.7455 20.7328 28.1935 21.0208 28.6095C21.2768 28.9775 21.5968 29.2815 21.8688 29.6335C22.1088 29.9695 22.5248 30.1935 22.5888 30.7855C21.7408 30.8335 20.9568 30.8655 20.1888 30.9295C19.6768 30.9775 18.8928 30.8495 18.9248 31.5855C18.9568 32.3535 19.7408 32.0655 20.2368 32.0655C21.1168 32.0655 22.0128 32.0015 23.1808 31.9375C22.2848 33.1055 21.5648 33.9695 20.9248 34.8815C20.5888 35.3295 19.7888 35.8735 20.3488 36.3375C21.0688 36.9455 21.4048 35.9695 21.7728 35.5535C22.4768 34.7695 23.1008 33.9055 23.7408 33.0895C23.9968 33.6495 23.9968 34.1295 23.9968 34.5935C23.9968 35.2815 23.9808 35.9695 24.0288 36.6575C24.0608 37.1215 24.0448 37.8575 24.5728 37.8735C25.2768 37.9055 25.0208 37.1375 25.0688 36.7215C25.1488 36.1455 25.1168 35.5375 25.1648 34.9615C25.2128 34.5135 25.0208 34.0015 25.4368 33.4415C25.5968 33.6815 25.7088 33.8735 25.8368 34.0015C26.3488 34.5295 26.8768 35.0575 27.4048 35.5535C27.5488 35.6975 27.7568 35.7135 27.9488 35.6015C28.1728 35.4095 28.0768 35.2175 27.9808 35.0575Z" fill="#020202"/>
<path d="M9.02045 23.0095C8.76445 22.7535 8.46045 22.5775 8.14045 22.4335C7.82045 22.2895 7.50045 22.1295 7.16445 22.0175C6.79645 21.9055 6.70045 21.6975 6.70045 21.3455C6.71645 20.5135 6.66845 19.6975 6.65245 18.8655C6.65245 18.5775 6.58845 18.2735 6.26845 18.1615C5.96445 18.0495 5.72445 18.2095 5.50045 18.4175C5.40445 18.5135 5.29245 18.6095 5.21245 18.7215C4.74845 19.3135 4.22045 19.8735 3.82045 20.5135C3.51645 20.9935 3.16445 21.0575 2.70045 20.9295C2.26845 20.8015 1.80445 20.8015 1.37245 20.8495C0.620451 20.9455 0.396451 21.5215 0.876451 22.1135C1.14845 22.4335 1.48445 22.7055 1.88445 22.8815C2.20445 23.0255 2.28445 23.1855 2.14045 23.5375C1.86845 24.2415 1.62845 24.9615 1.38845 25.6655C1.30845 25.9055 1.21245 26.1775 1.45245 26.3855C1.69245 26.5935 1.96445 26.4495 2.18845 26.3375C2.54045 26.1615 2.89245 25.9535 3.22845 25.7455C3.51645 25.5695 3.78845 25.3935 4.12445 25.1695C4.34845 25.5215 4.54045 25.8255 4.71645 26.1295C4.90845 26.4495 5.14845 26.7535 5.43645 26.9935C5.62845 27.1535 5.82045 27.3775 6.10845 27.2655C6.38045 27.1535 6.44445 26.8975 6.47645 26.6255C6.52445 26.0815 6.58845 25.5375 6.62045 25.0095C6.65245 24.3215 6.63645 24.3215 7.35645 24.2415C7.85245 24.1775 8.34845 24.1135 8.81245 23.9375C9.34045 23.7455 9.40445 23.3935 9.02045 23.0095ZM6.92445 23.8415C6.36445 23.9215 6.34845 23.9215 6.30045 24.4815C6.23645 25.1695 6.17245 25.8415 6.09245 26.5295C6.07645 26.6415 6.10845 26.7695 5.91645 26.8495C5.61245 26.6255 5.38845 26.3055 5.14845 25.9855C4.92445 25.6815 4.71645 25.3615 4.50845 25.0575C4.20445 24.6415 4.15645 24.6255 3.72445 24.9135C3.10045 25.3295 2.50845 25.7935 1.66045 26.1615C1.96445 25.2975 2.20445 24.5615 2.47645 23.8095C2.50845 23.7135 2.55645 23.6335 2.58845 23.5535C2.86045 22.9135 2.86045 22.9135 2.25245 22.5775C1.88445 22.3695 1.50045 22.1775 1.22845 21.8415C0.972451 21.5375 1.05245 21.3615 1.43645 21.2655C1.91645 21.1535 2.38045 21.2495 2.84445 21.3135C3.38845 21.3935 3.78845 21.2495 4.12445 20.7855C4.54045 20.2095 5.00445 19.6815 5.45245 19.1375C5.62845 18.9295 5.78845 18.6895 6.07645 18.5935C6.25245 18.8175 6.20445 19.0575 6.20445 19.2815C6.22045 19.9855 6.23645 20.7055 6.20445 21.4095C6.18845 21.8255 6.34845 22.0655 6.71645 22.2255C7.14845 22.4175 7.56445 22.6255 7.98045 22.8495C8.25245 22.9935 8.54045 23.1055 8.74845 23.4575C8.14045 23.7135 7.53245 23.7455 6.92445 23.8415Z" fill="#020202"/>
<path d="M48.2207 39.9375C44.3487 42.1615 40.5087 44.5935 36.6687 46.8975C35.0847 44.2895 33.5167 41.6655 31.9487 39.0575C35.9487 36.6575 39.9327 34.2575 43.9327 31.8575C45.5007 34.5295 47.0687 37.0575 48.2207 39.9375Z" fill="#0B0C0C" stroke="black" stroke-width="0.266667" stroke-miterlimit="10"/>
<path d="M37.1807 40.4655C37.0047 40.5615 36.8287 40.6736 36.6687 40.7696C36.4127 40.9296 36.1567 41.0735 35.9007 41.2336C35.8687 41.2496 35.8367 41.2656 35.8047 41.2976C35.7727 41.3136 35.7567 41.3296 35.7247 41.3135C35.6927 41.2975 35.6927 41.2815 35.6767 41.2655C35.6607 41.2335 35.6447 41.2016 35.6127 41.1696C35.4527 40.9136 35.3087 40.6576 35.1487 40.4016C35.0847 40.2896 35.0047 40.1616 34.9407 40.0496C34.9087 40.0016 34.8767 39.9536 34.8447 39.8896C34.8127 39.8256 34.9087 39.7775 34.9727 39.7455C35.0847 39.6815 35.1807 39.6176 35.2927 39.5536C35.5647 39.3936 35.8207 39.2336 36.0927 39.0736C36.1567 39.0416 36.2207 38.9936 36.2687 38.9616C36.3487 38.9296 36.3647 38.9936 36.3967 39.0576C36.5407 39.2976 36.6847 39.5376 36.8287 39.7776C36.9567 39.9856 37.0687 40.1775 37.1967 40.3855C37.2287 40.4015 37.2287 40.4335 37.1807 40.4655C37.1007 40.5135 37.1807 40.6576 37.2607 40.5936C37.3567 40.5296 37.4047 40.4016 37.3407 40.2896C37.3247 40.2736 37.3247 40.2575 37.3087 40.2255C37.2447 40.1295 37.1807 40.0176 37.1167 39.9216C36.9567 39.6496 36.7807 39.3616 36.6207 39.0896C36.5887 39.0256 36.5407 38.9616 36.5087 38.8976C36.4447 38.8016 36.3487 38.7696 36.2367 38.8016C36.2047 38.8176 36.1887 38.8336 36.1567 38.8336C35.9167 38.9776 35.6767 39.1215 35.4527 39.2655C35.2447 39.3935 35.0207 39.5216 34.8127 39.6496C34.7487 39.6976 34.7007 39.7455 34.7007 39.8255C34.7007 39.8735 34.7167 39.9216 34.7487 39.9696C34.7967 40.0496 34.8447 40.1455 34.9087 40.2255C35.0847 40.4975 35.2447 40.7856 35.4207 41.0576C35.4687 41.1376 35.5327 41.2336 35.5807 41.3135C35.6127 41.3616 35.6287 41.3936 35.6767 41.4096C35.7567 41.4576 35.8367 41.4416 35.9167 41.4096C36.1247 41.2816 36.3327 41.1535 36.5407 41.0255C36.7807 40.8815 37.0207 40.7376 37.2607 40.5936C37.2767 40.5776 37.2927 40.5776 37.3087 40.5616C37.3567 40.5456 37.2767 40.4175 37.1807 40.4655Z" fill="white"/>
<path d="M37.7087 38.5296C37.7407 38.5136 37.7727 38.4976 37.7887 38.4816C37.8687 38.4336 37.9487 38.3856 38.0127 38.3376C38.1247 38.2736 38.2367 38.1936 38.3487 38.1296C38.4927 38.0496 38.6207 37.9695 38.7647 37.8735C38.9087 37.7775 40.0447 37.1056 40.2047 37.0096C40.3647 36.9136 40.5087 36.8176 40.6687 36.7376C40.8127 36.6576 40.9567 36.5616 41.1007 36.4816C41.2287 36.4016 41.3407 36.3376 41.4687 36.2576C41.5487 36.2096 41.5327 36.2256 41.6127 36.1616C41.6607 36.1296 41.6927 36.1136 41.7407 36.0816C41.7727 36.0656 41.7887 36.0016 41.7727 35.9696C41.7407 35.9376 41.6927 35.9216 41.6607 35.9376C41.6287 35.9536 41.5967 35.9695 41.5807 35.9855C41.5007 36.0335 41.5487 36.0016 41.4687 36.0496C41.3567 36.1136 41.2447 36.1936 41.1327 36.2576C40.9887 36.3376 40.8607 36.4175 40.7167 36.5135C40.5727 36.6095 40.4127 36.6895 40.2687 36.7855C40.1087 36.8815 39.9647 36.9776 39.8047 37.0576C39.6607 37.1376 38.5407 37.8255 38.3967 37.9055C38.2687 37.9855 38.1567 38.0496 38.0287 38.1296C37.9487 38.1776 37.8527 38.2416 37.7727 38.2896C37.7247 38.3216 37.6927 38.3376 37.6447 38.3696C37.6127 38.3856 37.5967 38.4496 37.6127 38.4816C37.6127 38.5296 37.6607 38.5456 37.7087 38.5296Z" fill="white"/>
<path d="M37.9966 39.0095C38.0446 38.9775 38.0926 38.9615 38.1246 38.9295C38.2526 38.8495 38.3646 38.7855 38.4926 38.7055C38.6686 38.5935 38.8446 38.4975 39.0206 38.3855C39.2446 38.2575 40.4286 37.5375 40.6526 37.4095C40.8926 37.2655 41.1326 37.1215 41.3566 36.9775C41.5966 36.8335 41.8366 36.6895 42.0766 36.5455C42.3006 36.4175 42.5246 36.2735 42.7486 36.1455C42.9406 36.0335 43.1326 35.9215 43.3086 35.8095C43.4526 35.7295 43.5806 35.6495 43.7246 35.5695C43.7886 35.5375 43.8526 35.4895 43.9166 35.4575C43.9166 35.4575 43.9166 35.4575 43.9326 35.4575C43.9646 35.4415 43.9806 35.3775 43.9646 35.3455C43.9486 35.3135 43.8846 35.2975 43.8526 35.3135C43.8046 35.3455 43.7566 35.3615 43.7246 35.3935C43.5966 35.4735 43.4846 35.5375 43.3566 35.6175C43.1806 35.7295 43.0046 35.8255 42.8286 35.9375C42.6046 36.0655 42.3966 36.1935 42.1726 36.3215C41.9326 36.4655 41.6926 36.6095 41.4686 36.7535C41.2286 36.8975 40.9886 37.0415 40.7486 37.1855C40.5246 37.3135 40.3006 37.4575 40.0766 37.5855C39.8846 37.6975 38.7166 38.4015 38.5246 38.5135C38.3806 38.5935 38.2526 38.6735 38.1086 38.7535C38.0446 38.7855 37.9806 38.8335 37.9166 38.8655C37.9166 38.8655 37.9166 38.8655 37.9006 38.8655C37.8686 38.8815 37.8526 38.9455 37.8686 38.9775C37.9006 39.0255 37.9646 39.0415 37.9966 39.0095Z" fill="white"/>
<path d="M38.3009 39.5055C38.3329 39.4895 38.3809 39.4575 38.4129 39.4415C38.5089 39.3775 38.6209 39.3135 38.7169 39.2655C38.8609 39.1695 39.0209 39.0895 39.1649 38.9935C39.3409 38.8815 40.5089 38.1935 40.6849 38.0815C40.8769 37.9695 41.0849 37.8415 41.2769 37.7295C41.4849 37.6015 41.6769 37.4895 41.8849 37.3615C42.0769 37.2495 42.2529 37.1375 42.4449 37.0255C42.6049 36.9295 42.7649 36.8335 42.9249 36.7375C43.0369 36.6735 43.1489 36.5935 43.2609 36.5295C43.3089 36.4975 43.3729 36.4655 43.4209 36.4335C43.4529 36.4175 43.4689 36.3535 43.4529 36.3215C43.4209 36.2895 43.3729 36.2735 43.3409 36.2895C43.3089 36.3055 43.2609 36.3375 43.2289 36.3535C43.1329 36.4175 43.0209 36.4815 42.9249 36.5295C42.7809 36.6255 42.6209 36.7055 42.4769 36.8015C42.3009 36.9135 42.1089 37.0255 41.9329 37.1215C41.7409 37.2335 41.5329 37.3615 41.3409 37.4735C41.1329 37.6015 40.9409 37.7135 40.7329 37.8415C40.5409 37.9535 39.3889 38.6575 39.1969 38.7695C39.0369 38.8655 38.8769 38.9615 38.7169 39.0575C38.6049 39.1215 38.4929 39.2015 38.3809 39.2655C38.3329 39.2975 38.2689 39.3295 38.2209 39.3615C38.1889 39.3775 38.1729 39.4415 38.1889 39.4735C38.2049 39.5215 38.2529 39.5375 38.3009 39.5055Z" fill="white"/>
<path d="M35.4048 40.1935C35.6288 39.7775 35.9648 40.0175 36.1088 40.0975C36.0928 39.8255 36.0928 39.2335 36.4448 38.6735C36.5728 38.4655 36.7488 38.3375 36.7488 38.3375C36.7488 38.3375 36.4608 38.7535 36.3968 39.3135C36.3488 39.7135 36.4608 40.3215 36.4448 40.4495C36.4288 40.5135 36.2848 40.6415 36.2848 40.6415C36.2848 40.6415 36.0128 40.3855 35.7728 40.2735C35.5648 40.1775 35.4048 40.1935 35.4048 40.1935Z" fill="white"/>
<path d="M36.8926 38.2735C36.8926 38.2735 36.6046 38.6895 36.5406 39.2495C36.4926 39.6495 36.6046 40.2575 36.5886 40.3855C36.5726 40.4495 36.4286 40.5775 36.4286 40.5775C36.4286 40.5775 36.4286 40.5775 36.4126 40.5615C36.4446 40.5135 36.4926 40.4655 36.4926 40.4335C36.5086 40.3055 36.3966 39.6815 36.4446 39.2975C36.5086 38.8655 36.6846 38.5135 36.7646 38.3855C36.8446 38.3055 36.8926 38.2735 36.8926 38.2735Z" fill="white"/>
<path d="M39.3565 44.0655C39.1805 44.1615 39.0045 44.2735 38.8445 44.3695C38.5885 44.5295 38.3325 44.6735 38.0765 44.8335C38.0445 44.8495 38.0125 44.8655 37.9805 44.8975C37.9485 44.9135 37.9325 44.9295 37.9005 44.9135C37.8685 44.8975 37.8685 44.8815 37.8525 44.8655C37.8365 44.8335 37.8205 44.8015 37.7885 44.7695C37.6285 44.5135 37.4845 44.2575 37.3245 44.0015C37.2605 43.8895 37.1805 43.7615 37.1165 43.6495C37.0845 43.6015 37.0525 43.5535 37.0205 43.4895C36.9885 43.4255 37.0845 43.3775 37.1485 43.3455C37.2605 43.2815 37.3565 43.2175 37.4685 43.1535C37.7405 42.9935 37.9965 42.8335 38.2685 42.6735C38.3325 42.6415 38.3965 42.5935 38.4445 42.5615C38.5245 42.5295 38.5405 42.5935 38.5725 42.6575C38.7165 42.8975 38.8605 43.1375 39.0045 43.3775C39.1325 43.5855 39.2445 43.7775 39.3725 43.9855C39.3885 44.0015 39.3885 44.0335 39.3565 44.0655C39.2765 44.1135 39.3565 44.2575 39.4365 44.1935C39.5325 44.1295 39.5805 44.0015 39.5165 43.8895C39.5005 43.8735 39.5005 43.8575 39.4845 43.8255C39.4205 43.7295 39.3565 43.6175 39.2925 43.5215C39.1325 43.2495 38.9565 42.9615 38.7965 42.6895C38.7645 42.6255 38.7165 42.5615 38.6845 42.4975C38.6205 42.4015 38.5245 42.3695 38.4125 42.4015C38.3805 42.4175 38.3645 42.4335 38.3325 42.4335C38.0925 42.5775 37.8525 42.7215 37.6285 42.8655C37.4205 42.9935 37.1965 43.1215 36.9885 43.2495C36.9245 43.2975 36.8765 43.3455 36.8765 43.4255C36.8765 43.4735 36.8925 43.5215 36.9245 43.5695C36.9725 43.6495 37.0205 43.7455 37.0845 43.8255C37.2605 44.0975 37.4205 44.3855 37.5965 44.6575C37.6445 44.7375 37.7085 44.8335 37.7565 44.9135C37.7885 44.9615 37.8045 44.9935 37.8525 45.0095C37.9325 45.0575 38.0125 45.0415 38.0925 45.0095C38.3005 44.8815 38.5085 44.7535 38.7165 44.6255C38.9565 44.4815 39.1965 44.3375 39.4365 44.1935C39.4525 44.1775 39.4685 44.1775 39.4845 44.1615C39.5165 44.1455 39.4365 44.0175 39.3565 44.0655Z" fill="white"/>
<path d="M39.8684 42.1295C39.9004 42.1135 39.9324 42.0975 39.9484 42.0815C40.0284 42.0335 40.1084 41.9855 40.1724 41.9375C40.2844 41.8735 40.3964 41.7935 40.5084 41.7295C40.6524 41.6495 40.7804 41.5695 40.9244 41.4735C41.0684 41.3775 42.2044 40.7055 42.3644 40.6095C42.5244 40.5135 42.6684 40.4175 42.8284 40.3375C42.9724 40.2575 43.1164 40.1615 43.2604 40.0815C43.3884 40.0015 43.5004 39.9375 43.6284 39.8575C43.7084 39.8095 43.6924 39.8255 43.7724 39.7615C43.8204 39.7295 43.8524 39.7135 43.9004 39.6815C43.9324 39.6655 43.9484 39.6015 43.9324 39.5695C43.9004 39.5375 43.8524 39.5215 43.8204 39.5375C43.7884 39.5535 43.7564 39.5695 43.7404 39.5855C43.6604 39.6335 43.7084 39.6015 43.6284 39.6495C43.5164 39.7135 43.4044 39.7935 43.2924 39.8575C43.1484 39.9375 43.0204 40.0175 42.8764 40.1135C42.7324 40.2095 42.5724 40.2895 42.4284 40.3855C42.2684 40.4815 42.1244 40.5775 41.9644 40.6575C41.8204 40.7375 40.7004 41.4255 40.5564 41.5055C40.4284 41.5855 40.3164 41.6495 40.1884 41.7295C40.1084 41.7775 40.0124 41.8415 39.9324 41.8895C39.8844 41.9215 39.8524 41.9375 39.8044 41.9695C39.7724 41.9855 39.7564 42.0495 39.7724 42.0815C39.7724 42.1295 39.8364 42.1455 39.8684 42.1295Z" fill="white"/>
<path d="M40.1724 42.6256C40.2204 42.5936 40.2684 42.5776 40.3004 42.5456C40.4284 42.4656 40.5404 42.4016 40.6684 42.3216C40.8444 42.2096 41.0204 42.1136 41.1964 42.0016C41.4204 41.8736 42.6044 41.1536 42.8284 41.0256C43.0684 40.8816 43.3084 40.7376 43.5324 40.5936C43.7724 40.4496 44.0124 40.3056 44.2524 40.1616C44.4764 40.0336 44.7004 39.8896 44.9244 39.7616C45.1164 39.6496 45.3084 39.5376 45.4844 39.4256C45.6284 39.3456 45.7564 39.2656 45.9004 39.1856C45.9644 39.1536 46.0284 39.1056 46.0924 39.0736C46.0924 39.0736 46.0924 39.0736 46.1084 39.0736C46.1404 39.0576 46.1564 38.9936 46.1404 38.9616C46.1244 38.9296 46.0604 38.9136 46.0284 38.9296C45.9804 38.9616 45.9324 38.9776 45.9004 39.0096C45.7724 39.0896 45.6604 39.1536 45.5324 39.2336C45.3564 39.3456 45.1804 39.4416 45.0044 39.5536C44.7804 39.6816 44.5724 39.8096 44.3484 39.9376C44.1084 40.0816 43.8684 40.2256 43.6444 40.3696C43.4044 40.5136 43.1644 40.6576 42.9244 40.8016C42.7004 40.9296 42.4764 41.0736 42.2524 41.2016C42.0604 41.3136 40.8924 42.0176 40.7004 42.1296C40.5564 42.2096 40.4284 42.2896 40.2844 42.3696C40.2204 42.4016 40.1564 42.4496 40.0924 42.4816C40.0924 42.4816 40.0924 42.4816 40.0764 42.4816C40.0444 42.4976 40.0284 42.5616 40.0444 42.5936C40.0764 42.6256 40.1244 42.6416 40.1724 42.6256Z" fill="white"/>
<path d="M40.4606 43.1056C40.4926 43.0896 40.5406 43.0576 40.5726 43.0416C40.6686 42.9776 40.7806 42.9136 40.8766 42.8656C41.0206 42.7696 41.1806 42.6896 41.3246 42.5936C41.5006 42.4816 42.6686 41.7936 42.8446 41.6816C43.0366 41.5696 43.2446 41.4416 43.4366 41.3296C43.6446 41.2016 43.8366 41.0896 44.0446 40.9616C44.2366 40.8496 44.4126 40.7376 44.6046 40.6256C44.7646 40.5296 44.9246 40.4336 45.0846 40.3376C45.1966 40.2736 45.3086 40.1936 45.4206 40.1296C45.4686 40.0976 45.5326 40.0656 45.5806 40.0336C45.6126 40.0176 45.6286 39.9536 45.6126 39.9216C45.5806 39.8896 45.5326 39.8736 45.5006 39.8896C45.4686 39.9056 45.4206 39.9376 45.3886 39.9536C45.2926 40.0176 45.1806 40.0816 45.0846 40.1296C44.9406 40.2256 44.7806 40.3056 44.6366 40.4016C44.4606 40.5136 44.2686 40.6256 44.0926 40.7216C43.9006 40.8336 43.6926 40.9616 43.5006 41.0736C43.2926 41.2016 43.1006 41.3136 42.8926 41.4416C42.7006 41.5536 41.5486 42.2576 41.3566 42.3696C41.1966 42.4656 41.0366 42.5616 40.8766 42.6576C40.7646 42.7216 40.6526 42.8016 40.5406 42.8656C40.4926 42.8976 40.4286 42.9296 40.3806 42.9616C40.3486 42.9776 40.3326 43.0416 40.3486 43.0736C40.3646 43.1216 40.4126 43.1376 40.4606 43.1056Z" fill="white"/>
<path d="M37.5806 43.7936C37.8046 43.3776 38.1406 43.6176 38.2846 43.6976C38.2686 43.4256 38.2686 42.8336 38.6206 42.2736C38.7486 42.0656 38.9246 41.9376 38.9246 41.9376C38.9246 41.9376 38.6366 42.3536 38.5726 42.9136C38.5246 43.3136 38.6366 43.9216 38.6206 44.0496C38.6046 44.1136 38.4606 44.2416 38.4606 44.2416C38.4606 44.2416 38.1886 43.9856 37.9486 43.8736C37.7406 43.7776 37.5806 43.8096 37.5806 43.7936Z" fill="white"/>
<path d="M39.0684 41.8735C39.0684 41.8735 38.7804 42.2895 38.7164 42.8495C38.6684 43.2495 38.7804 43.8575 38.7644 43.9855C38.7484 44.0495 38.6044 44.1775 38.6044 44.1775C38.6044 44.1775 38.6044 44.1775 38.5884 44.1615C38.6204 44.1135 38.6684 44.0655 38.6684 44.0335C38.6844 43.9055 38.5724 43.2815 38.6204 42.8975C38.6844 42.4655 38.8604 42.1135 38.9404 41.9855C39.0204 41.9055 39.0684 41.8735 39.0684 41.8735Z" fill="white"/>
</g>
<defs>
<clipPath id="clip0_741_26627">
<rect width="48" height="48" fill="white" transform="translate(0.620605 1.6015)"/>
</clipPath>
</defs>
</svg>
