<svg width="49" height="49" viewBox="0 0 49 49" fill="none" xmlns="http://www.w3.org/2000/svg">
<rect x="0.620605" y="0.806763" width="48" height="48" rx="24" fill="#FEDBD7"/>
<g clip-path="url(#clip0_806_4250)">
<path d="M16.2222 40.5063C16.2222 34.867 16.2222 29.1677 16.2222 23.5283C16.2222 23.2284 16.2822 23.1684 16.5821 23.1684C18.022 23.1684 19.4018 23.1684 20.8416 23.1684C21.1416 23.1684 21.2016 23.2884 21.2016 23.5283C21.2016 29.1677 21.2016 34.867 21.2016 40.5063C21.0816 40.6263 20.9616 40.6263 20.7816 40.6263C19.4018 40.6263 18.022 40.6263 16.6421 40.6263C16.4621 40.6263 16.3422 40.6263 16.2222 40.5063Z" fill="#FEE252"/>
<path d="M27.3808 32.1673C27.3808 34.927 27.3808 37.7466 27.3808 40.5063C27.2608 40.6263 27.1408 40.6263 26.9608 40.6263C25.581 40.6263 24.2012 40.6263 22.8213 40.6263C22.7013 40.6263 22.5214 40.6263 22.4014 40.5063C22.4014 35.7069 22.4014 30.8475 22.4014 26.048C22.4014 25.6281 22.4014 25.6281 22.8213 25.6281C23.3613 25.6281 23.9012 25.6281 24.4411 25.6281C24.5611 25.7481 24.5011 25.8681 24.4411 25.988C24.0812 27.7878 24.5611 29.4076 25.761 30.7875C26.1209 31.2074 26.6009 31.5674 27.0808 31.8673C27.2008 31.9873 27.3808 31.9873 27.3808 32.1673Z" fill="#FEAFA9"/>
<path d="M27.3806 32.1673C26.6007 31.7473 25.8808 31.2074 25.4009 30.4875C24.381 29.0476 24.081 27.5478 24.441 25.808C24.441 25.748 24.441 25.688 24.441 25.6281C24.7409 24.7882 25.1009 24.0082 25.7008 23.3483C26.5407 22.4484 27.5006 21.9085 28.7005 21.6685C28.8205 21.6685 28.8805 21.6085 29.0004 21.5485C28.5805 21.5485 28.2205 21.5485 27.8006 21.5485C27.0207 21.5485 26.1808 21.5485 25.4009 21.5485C25.1609 21.5485 25.1009 21.4885 25.1009 21.2486C25.1009 21.0086 25.1009 20.8286 25.1009 20.5887C25.1009 20.3487 25.1609 20.2887 25.4009 20.2887C27.8606 20.2887 30.3803 20.2887 32.84 20.2887C33.1399 20.2887 33.5599 20.1687 33.6799 20.3487C33.8599 20.5287 33.7399 20.9486 33.7399 21.2486C33.7399 21.4885 33.6799 21.5485 33.4399 21.5485C32.48 21.5485 31.5201 21.5485 30.5003 21.5485C31.4002 21.7285 32.1801 22.0285 32.9 22.5084C35.3597 24.1882 36.0796 27.6078 34.3998 30.1275C34.3398 30.1875 34.2798 30.3075 34.2198 30.3675C34.0398 30.7274 33.7399 31.0274 33.4399 31.3274C33.3199 31.4474 33.1999 31.6273 32.96 31.6273C31.8801 32.3473 30.7402 32.7072 29.4204 32.6472C28.8205 32.7072 28.1005 32.4672 27.3806 32.1673Z" fill="#6E82B6"/>
<path d="M10.0425 40.5063C10.0425 39.6664 10.0425 38.7665 10.0425 37.9266C10.0425 35.5869 10.0425 33.2472 10.0425 30.9074C10.0425 30.6675 10.1025 30.6075 10.3424 30.6075C11.7823 30.6075 13.2221 30.6075 14.6619 30.6075C14.9019 30.6075 14.9619 30.6675 14.9619 30.9074C14.9619 34.0871 14.9619 37.3267 14.9619 40.5063C14.8419 40.6263 14.7219 40.6263 14.5419 40.6263C13.1621 40.6263 11.7823 40.6263 10.4024 40.6263C10.2825 40.6263 10.1625 40.6263 10.0425 40.5063Z" fill="#97C969"/>
<path d="M10.0425 40.5063C11.6623 40.5063 13.3421 40.5063 14.9619 40.5063C15.3818 40.5063 15.8018 40.5063 16.2217 40.5063C17.9015 40.5063 19.5214 40.5063 21.2012 40.5063C21.6211 40.5063 22.0411 40.5063 22.461 40.5063C24.1408 40.5063 25.7606 40.5063 27.4404 40.5063C27.8604 40.5063 28.2803 40.5063 28.7003 40.5063C28.8202 40.3863 28.9402 40.3863 29.1202 40.3863C30.5 40.3863 31.8799 40.3863 33.2597 40.3863C33.3797 40.3863 33.5597 40.3863 33.6797 40.5063C35.8994 40.5063 38.0591 40.5063 40.2789 40.5063C40.5189 40.5063 40.6388 40.5663 40.6388 40.8663C40.6388 41.1062 40.6388 41.2862 40.6388 41.5262C40.6388 41.7662 40.5788 41.7662 40.3389 41.7662C30.3801 41.7662 20.4212 41.7662 10.4024 41.7662C10.1625 41.7662 10.1025 41.7062 10.1025 41.4662C10.0425 41.1662 10.0425 40.8663 10.0425 40.5063Z" fill="#6E82B6"/>
<path d="M11.5425 20.0487C10.7626 19.2688 10.2826 18.3689 10.1027 17.2891C9.8027 15.4893 10.3426 13.9295 11.6625 12.6696C12.6224 11.7697 13.8222 11.2898 15.1421 11.2898C15.2621 11.4098 15.2621 11.5297 15.2621 11.6497C15.2621 13.2095 15.2621 14.7694 15.2621 16.3292C15.2621 16.5091 15.1421 16.6291 15.0221 16.7491C13.9422 17.829 12.9223 18.8489 11.8425 19.9287C11.7825 19.9887 11.6625 20.0487 11.5425 20.0487Z" fill="#80D5FA"/>
<path d="M33.5606 40.5069C31.8806 40.5069 30.2606 40.5069 28.5806 40.5069C28.5806 38.9469 28.5806 37.3869 28.5806 35.8869C28.5806 35.6469 28.6406 35.5869 28.8806 35.5869C30.3206 35.5869 31.7606 35.5869 33.2606 35.5869C33.5006 35.5869 33.5606 35.6469 33.5606 35.8869C33.5606 37.4469 33.5606 39.0069 33.5606 40.5069Z" fill="#7FD5FA"/>
<path d="M15.2021 16.4492C15.2021 14.7094 15.2021 13.0296 15.2021 11.2898C17.9618 11.2298 20.4215 13.6895 20.3615 16.4492C20.3015 16.5092 20.1816 16.5691 20.0616 16.5691C18.5617 16.5691 17.0619 16.5691 15.5621 16.5691C15.5021 16.5691 15.4421 16.5691 15.3821 16.5691C15.2621 16.5092 15.2021 16.4492 15.2021 16.4492Z" fill="#FEAFA9"/>
<path d="M15.2022 16.4492C15.3822 16.5092 15.4421 16.5691 15.5621 16.6291C16.582 17.649 17.6019 18.6689 18.6818 19.7488C18.7418 19.8088 18.8617 19.8688 18.8617 20.0487C18.1418 20.8286 17.1819 21.3086 16.1621 21.4886C14.4823 21.7885 13.0424 21.3086 11.7826 20.2287C11.7226 20.1687 11.6626 20.1087 11.6626 20.0487C12.7425 18.8489 13.9423 17.649 15.2022 16.4492Z" fill="#97C969"/>
<path d="M34.9996 31.0874C35.0596 31.0874 35.1196 31.0874 35.1796 31.0274C35.2996 30.8475 35.3596 30.9075 35.4796 31.0274L35.5396 31.0874C37.0994 32.6472 38.7192 34.2671 40.279 35.8269C40.459 36.0068 40.459 36.1268 40.279 36.3068C39.7991 36.7268 39.3791 37.2067 38.9592 37.6267C38.8392 37.7466 38.7792 37.7466 38.6592 37.6267C37.0394 36.0068 35.4196 34.387 33.7998 32.7672C33.5598 32.5273 33.9198 32.4673 33.8598 32.2873C34.1597 31.8673 34.5797 31.4474 34.9996 31.0874Z" fill="#6E82B6"/>
<path d="M29.4803 12.1897C30.8602 12.1897 32.18 12.1897 33.5599 12.1897C33.7998 12.1897 33.8598 12.2497 33.8598 12.4896C33.7998 12.7896 33.9798 13.2095 33.7998 13.3895C33.6199 13.5695 33.1999 13.4495 32.8999 13.4495C30.4402 13.4495 27.9805 13.4495 25.5208 13.4495C25.2808 13.4495 25.1609 13.3895 25.2209 13.1496C25.2209 12.9696 25.2209 12.7296 25.2209 12.5496C25.2209 12.3097 25.2808 12.1897 25.5808 12.1897C26.7807 12.1897 28.1605 12.1897 29.4803 12.1897Z" fill="#6E82B6"/>
<path d="M29.5403 14.8893C30.8601 14.8893 32.18 14.8893 33.5598 14.8893C33.7998 14.8893 33.9198 14.9493 33.8598 15.1893C33.8598 15.3693 33.8598 15.6093 33.8598 15.7892C33.8598 16.0292 33.7998 16.0892 33.5598 16.0892C31.1001 16.0892 28.5804 16.0892 26.1207 16.0892C25.8807 16.0892 25.6408 16.0892 25.4608 16.0892C25.2808 16.0892 25.2208 16.0292 25.2208 15.8492C25.2208 15.5493 25.1008 15.1293 25.2808 14.9493C25.4608 14.7694 25.8807 14.8893 26.1807 14.8893C27.2606 14.8893 28.4004 14.8893 29.5403 14.8893Z" fill="#6E82B6"/>
<path d="M29.4806 18.8489C28.1007 18.8489 26.7809 18.8489 25.401 18.8489C25.1611 18.8489 25.1011 18.7889 25.1011 18.5489C25.1011 18.3689 25.1011 18.129 25.1011 17.949C25.1011 17.709 25.1611 17.589 25.461 17.589C27.3808 17.589 29.3006 17.589 31.2203 17.589C32.0003 17.589 32.7802 17.589 33.5601 17.589C33.74 17.589 33.8 17.649 33.8 17.829C33.74 18.129 33.92 18.5489 33.74 18.7889C33.5601 18.9689 33.1401 18.8489 32.8402 18.8489C31.7003 18.8489 30.6204 18.8489 29.4806 18.8489Z" fill="#6E82B6"/>
<path d="M18.8017 20.0487C17.6019 18.8489 16.402 17.649 15.2021 16.4492C16.8819 16.4492 18.5617 16.4492 20.3015 16.4492C20.3015 17.829 19.8216 19.0289 18.8017 20.0487Z" fill="#FEE252"/>
<path d="M23.9013 12.3698C23.9013 12.6698 23.9013 12.9098 23.9013 13.2098C23.9013 13.3898 23.8413 13.4498 23.7213 13.4498C23.1813 13.4498 22.5813 13.4498 22.0413 13.4498C21.8613 13.4498 21.8613 13.3898 21.8613 13.2098C21.8613 12.6698 21.8613 12.0698 21.8613 11.5298C21.8613 11.3498 21.9213 11.2898 22.1013 11.2898C22.6413 11.2898 23.1813 11.2898 23.7213 11.2898C23.9013 11.2898 23.9613 11.3498 23.9613 11.5298C23.9013 11.8298 23.9013 12.0698 23.9013 12.3698Z" fill="#7FD5FA"/>
<path d="M23.9013 15.1294C23.8413 15.4294 24.0213 15.8494 23.8413 16.0294C23.6013 16.2094 23.1813 16.0894 22.8813 16.0894C22.6413 16.0894 22.3413 16.0894 22.1013 16.0894C21.9213 16.0894 21.8613 16.0294 21.8613 15.8494C21.8613 15.3094 21.8613 14.7694 21.8613 14.2294C21.8613 14.0494 21.9213 13.9894 22.1013 13.9894C22.6413 13.9894 23.1813 13.9894 23.7213 13.9894C23.9613 13.9894 23.9613 14.0494 23.9613 14.2894C23.9013 14.5294 23.9013 14.8294 23.9013 15.1294Z" fill="#FEAFA9"/>
<path d="M22.8812 16.7491C23.1212 16.7491 23.4212 16.7491 23.6612 16.7491C23.8412 16.7491 23.9012 16.8091 23.9012 16.9291C23.9012 17.4691 23.9012 18.0691 23.9012 18.6091C23.9012 18.7891 23.8412 18.7891 23.6612 18.7891C23.1212 18.7891 22.5212 18.7891 21.9812 18.7891C21.8012 18.7891 21.7412 18.7291 21.7412 18.5491C21.7412 18.0091 21.7412 17.4691 21.7412 16.9291C21.7412 16.7491 21.8012 16.6891 21.9812 16.6891C22.3412 16.7491 22.5812 16.7491 22.8812 16.7491Z" fill="#FEE252"/>
<path d="M21.8012 20.5288C21.8012 20.2288 21.8012 19.9888 21.8012 19.6888C21.8012 19.5088 21.8612 19.4488 21.9812 19.4488C22.5212 19.4488 23.1212 19.4488 23.6612 19.4488C23.8412 19.4488 23.8412 19.5088 23.8412 19.6888C23.8412 20.2288 23.8412 20.8288 23.8412 21.3688C23.8412 21.5488 23.7812 21.6088 23.6012 21.6088C23.0612 21.6088 22.5212 21.6088 21.9812 21.6088C21.8012 21.6088 21.7412 21.5488 21.7412 21.3688C21.8012 21.0688 21.8012 20.7688 21.8012 20.5288Z" fill="#97C969"/>
<path d="M35.0001 31.0875C34.7601 31.5075 34.4001 31.7475 34.1001 32.0475C33.9801 32.1675 33.9201 32.2875 33.7401 32.2875C33.5601 32.1075 33.3201 31.8675 33.1401 31.6875C33.6201 31.3275 34.0401 30.9075 34.4001 30.4275C34.5801 30.6675 34.7601 30.8475 35.0001 31.0875Z" fill="#466089"/>
<path d="M34.1599 27.1279C34.1599 29.5276 32.1801 31.4474 29.7804 31.4474C27.3807 31.4474 25.4609 29.4676 25.4609 27.1279C25.4609 24.7282 27.4407 22.8084 29.8404 22.8084C32.2401 22.8084 34.1599 24.7882 34.1599 27.1279Z" fill="#7FD5FA"/>
</g>
<defs>
<clipPath id="clip0_806_4250">
<rect width="33.596" height="31.5562" fill="white" transform="translate(7.82275 10.2099)"/>
</clipPath>
</defs>
</svg>
