<svg width="48" height="49" viewBox="0 0 48 49" fill="none" xmlns="http://www.w3.org/2000/svg">
<rect y="0.613525" width="48" height="48" rx="24" fill="#FEDBD7"/>
<g clip-path="url(#clip0_806_4276)">
<path d="M15.6016 40.313C15.6016 34.6737 15.6016 28.9744 15.6016 23.3351C15.6016 23.0351 15.6616 22.9751 15.9615 22.9751C17.4013 22.9751 18.7812 22.9751 20.221 22.9751C20.521 22.9751 20.581 23.0951 20.581 23.3351C20.581 28.9744 20.581 34.6737 20.581 40.313C20.461 40.433 20.341 40.433 20.161 40.433C18.7812 40.433 17.4013 40.433 16.0215 40.433C15.8415 40.433 15.7215 40.433 15.6016 40.313Z" fill="#FEE252"/>
<path d="M26.7602 31.974C26.7602 34.7337 26.7602 37.5534 26.7602 40.313C26.6402 40.433 26.5202 40.433 26.3402 40.433C24.9604 40.433 23.5805 40.433 22.2007 40.433C22.0807 40.433 21.9007 40.433 21.7808 40.313C21.7808 35.5136 21.7808 30.6542 21.7808 25.8548C21.7808 25.4348 21.7808 25.4348 22.2007 25.4348C22.7406 25.4348 23.2806 25.4348 23.8205 25.4348C23.9405 25.5548 23.8805 25.6748 23.8205 25.7948C23.4606 27.5946 23.9405 29.2144 25.1404 30.5942C25.5003 31.0142 25.9803 31.3741 26.4602 31.6741C26.5802 31.7941 26.7602 31.7941 26.7602 31.974Z" fill="#FEAFA9"/>
<path d="M26.76 31.974C25.9801 31.5541 25.2602 31.0142 24.7803 30.2942C23.7604 28.8544 23.4604 27.3546 23.8204 25.6148C23.8204 25.5548 23.8204 25.4948 23.8204 25.4348C24.1203 24.5949 24.4803 23.815 25.0802 23.1551C25.9201 22.2552 26.88 21.7153 28.0799 21.4753C28.1999 21.4753 28.2598 21.4153 28.3798 21.3553C27.9599 21.3553 27.5999 21.3553 27.18 21.3553C26.4001 21.3553 25.5602 21.3553 24.7803 21.3553C24.5403 21.3553 24.4803 21.2953 24.4803 21.0553C24.4803 20.8154 24.4803 20.6354 24.4803 20.3954C24.4803 20.1554 24.5403 20.0955 24.7803 20.0955C27.24 20.0955 29.7597 20.0955 32.2194 20.0955C32.5193 20.0955 32.9393 19.9755 33.0593 20.1554C33.2393 20.3354 33.1193 20.7554 33.1193 21.0553C33.1193 21.2953 33.0593 21.3553 32.8193 21.3553C31.8594 21.3553 30.8995 21.3553 29.8797 21.3553C30.7795 21.5353 31.5595 21.8352 32.2794 22.3152C34.7391 23.995 35.459 27.4146 33.7792 29.9343C33.7192 29.9943 33.6592 30.1143 33.5992 30.1743C33.4192 30.5342 33.1193 30.8342 32.8193 31.1341C32.6993 31.2541 32.5793 31.4341 32.3394 31.4341C31.2595 32.154 30.1196 32.514 28.7998 32.454C28.1999 32.514 27.4799 32.274 26.76 31.974Z" fill="#6E82B6"/>
<path d="M9.42188 40.3131C9.42188 39.4732 9.42188 38.5733 9.42188 37.7334C9.42188 35.3937 9.42188 33.0539 9.42188 30.7142C9.42188 30.4742 9.48187 30.4142 9.72184 30.4142C11.1617 30.4142 12.6015 30.4142 14.0413 30.4142C14.2813 30.4142 14.3413 30.4742 14.3413 30.7142C14.3413 33.8938 14.3413 37.1334 14.3413 40.3131C14.2213 40.4331 14.1013 40.4331 13.9213 40.4331C12.5415 40.4331 11.1617 40.4331 9.78183 40.4331C9.66185 40.4331 9.54186 40.4331 9.42188 40.3131Z" fill="#97C969"/>
<path d="M9.42188 40.313C11.0417 40.313 12.7215 40.313 14.3413 40.313C14.7612 40.313 15.1812 40.313 15.6011 40.313C17.2809 40.313 18.9007 40.313 20.5805 40.313C21.0005 40.313 21.4204 40.313 21.8404 40.313C23.5202 40.313 25.14 40.313 26.8198 40.313C27.2398 40.313 27.6597 40.313 28.0797 40.313C28.1996 40.1931 28.3196 40.1931 28.4996 40.1931C29.8794 40.1931 31.2593 40.1931 32.6391 40.1931C32.7591 40.1931 32.9391 40.1931 33.0591 40.313C35.2788 40.313 37.4385 40.313 39.6583 40.313C39.8983 40.313 40.0182 40.373 40.0182 40.673C40.0182 40.913 40.0182 41.0929 40.0182 41.3329C40.0182 41.5729 39.9582 41.5729 39.7183 41.5729C29.7595 41.5729 19.8006 41.5729 9.78183 41.5729C9.54186 41.5729 9.48187 41.5129 9.48187 41.2729C9.42187 40.973 9.42188 40.673 9.42188 40.313Z" fill="#6E82B6"/>
<path d="M10.9219 19.8555C10.142 19.0756 9.66204 18.1757 9.48206 17.0958C9.1821 15.2961 9.72203 13.7362 11.0419 12.4764C12.0018 11.5765 13.2016 11.0966 14.5215 11.0966C14.6414 11.2165 14.6414 11.3365 14.6414 11.4565C14.6414 13.0163 14.6414 14.5761 14.6414 16.136C14.6414 16.3159 14.5215 16.4359 14.4015 16.5559C13.3216 17.6358 12.3017 18.6557 11.2219 19.7355C11.1619 19.7955 11.0419 19.8555 10.9219 19.8555Z" fill="#80D5FA"/>
<path d="M32.94 40.3137C31.26 40.3137 29.64 40.3137 27.96 40.3137C27.96 38.7537 27.96 37.1937 27.96 35.6937C27.96 35.4537 28.02 35.3937 28.26 35.3937C29.7 35.3937 31.14 35.3937 32.64 35.3937C32.88 35.3937 32.94 35.4537 32.94 35.6937C32.94 37.2537 32.94 38.8137 32.94 40.3137Z" fill="#7FD5FA"/>
<path d="M14.5815 16.2559C14.5815 14.5161 14.5815 12.8363 14.5815 11.0965C17.3412 11.0365 19.8009 13.4962 19.7409 16.2559C19.6809 16.3159 19.561 16.3759 19.441 16.3759C17.9411 16.3759 16.4413 16.3759 14.9415 16.3759C14.8815 16.3759 14.8215 16.3759 14.7615 16.3759C14.6415 16.3159 14.5815 16.2559 14.5815 16.2559Z" fill="#FEAFA9"/>
<path d="M14.5816 16.2559C14.7615 16.3159 14.8215 16.3759 14.9415 16.4359C15.9614 17.4558 16.9813 18.4757 18.0612 19.5555C18.1212 19.6155 18.2411 19.6755 18.2411 19.8555C17.5212 20.6354 16.5613 21.1153 15.5415 21.2953C13.8617 21.5953 12.4218 21.1153 11.162 20.0355C11.102 19.9755 11.042 19.9155 11.042 19.8555C12.1219 18.6556 13.3217 17.4558 14.5816 16.2559Z" fill="#97C969"/>
<path d="M34.379 30.8942C34.439 30.8942 34.499 30.8942 34.559 30.8342C34.679 30.6542 34.739 30.7142 34.859 30.8342L34.919 30.8942C36.4788 32.454 38.0986 34.0738 39.6584 35.6336C39.8384 35.8136 39.8384 35.9336 39.6584 36.1135C39.1784 36.5335 38.7585 37.0134 38.3385 37.4334C38.2186 37.5534 38.1586 37.5534 38.0386 37.4334C36.4188 35.8136 34.799 34.1938 33.1792 32.574C32.9392 32.334 33.2991 32.274 33.2392 32.094C33.5391 31.6741 33.9591 31.2541 34.379 30.8942Z" fill="#6E82B6"/>
<path d="M28.8597 11.9964C30.2396 11.9964 31.5594 11.9964 32.9393 11.9964C33.1792 11.9964 33.2392 12.0564 33.2392 12.2964C33.1792 12.5963 33.3592 13.0163 33.1792 13.1963C32.9993 13.3762 32.5793 13.2562 32.2793 13.2562C29.8196 13.2562 27.3599 13.2562 24.9002 13.2562C24.6602 13.2562 24.5403 13.1963 24.6002 12.9563C24.6002 12.7763 24.6002 12.5363 24.6002 12.3564C24.6002 12.1164 24.6602 11.9964 24.9602 11.9964C26.1601 11.9964 27.5399 11.9964 28.8597 11.9964Z" fill="#6E82B6"/>
<path d="M28.9197 14.6961C30.2395 14.6961 31.5594 14.6961 32.9392 14.6961C33.1792 14.6961 33.2992 14.7561 33.2392 14.9961C33.2392 15.176 33.2392 15.416 33.2392 15.596C33.2392 15.836 33.1792 15.896 32.9392 15.896C30.4795 15.896 27.9598 15.896 25.5001 15.896C25.2601 15.896 25.0202 15.896 24.8402 15.896C24.6602 15.896 24.6002 15.836 24.6002 15.656C24.6002 15.356 24.4802 14.9361 24.6602 14.7561C24.8402 14.5761 25.2601 14.6961 25.5601 14.6961C26.64 14.6961 27.7798 14.6961 28.9197 14.6961Z" fill="#6E82B6"/>
<path d="M28.8599 18.6557C27.4801 18.6557 26.1603 18.6557 24.7804 18.6557C24.5405 18.6557 24.4805 18.5957 24.4805 18.3557C24.4805 18.1757 24.4805 17.9357 24.4805 17.7558C24.4805 17.5158 24.5405 17.3958 24.8404 17.3958C26.7602 17.3958 28.68 17.3958 30.5997 17.3958C31.3796 17.3958 32.1596 17.3958 32.9395 17.3958C33.1194 17.3958 33.1794 17.4558 33.1794 17.6358C33.1194 17.9357 33.2994 18.3557 33.1194 18.5957C32.9395 18.7756 32.5195 18.6557 32.2195 18.6557C31.0797 18.6557 29.9998 18.6557 28.8599 18.6557Z" fill="#6E82B6"/>
<path d="M18.1811 19.8555C16.9813 18.6556 15.7814 17.4558 14.5815 16.2559C16.2613 16.2559 17.9411 16.2559 19.6809 16.2559C19.6809 17.6358 19.201 18.8356 18.1811 19.8555Z" fill="#FEE252"/>
<path d="M23.2807 12.1766C23.2807 12.4766 23.2807 12.7166 23.2807 13.0166C23.2807 13.1966 23.2207 13.2566 23.1007 13.2566C22.5607 13.2566 21.9607 13.2566 21.4207 13.2566C21.2407 13.2566 21.2407 13.1966 21.2407 13.0166C21.2407 12.4766 21.2407 11.8766 21.2407 11.3366C21.2407 11.1566 21.3007 11.0966 21.4807 11.0966C22.0207 11.0966 22.5607 11.0966 23.1007 11.0966C23.2807 11.0966 23.3407 11.1566 23.3407 11.3366C23.2807 11.6366 23.2807 11.8766 23.2807 12.1766Z" fill="#7FD5FA"/>
<path d="M23.2807 14.9362C23.2207 15.2362 23.4007 15.6562 23.2207 15.8362C22.9807 16.0162 22.5607 15.8962 22.2607 15.8962C22.0207 15.8962 21.7207 15.8962 21.4807 15.8962C21.3007 15.8962 21.2407 15.8362 21.2407 15.6562C21.2407 15.1162 21.2407 14.5762 21.2407 14.0362C21.2407 13.8562 21.3007 13.7962 21.4807 13.7962C22.0207 13.7962 22.5607 13.7962 23.1007 13.7962C23.3407 13.7962 23.3407 13.8562 23.3407 14.0962C23.2807 14.3362 23.2807 14.6362 23.2807 14.9362Z" fill="#FEAFA9"/>
<path d="M22.2606 16.5559C22.5006 16.5559 22.8006 16.5559 23.0406 16.5559C23.2206 16.5559 23.2806 16.6159 23.2806 16.7359C23.2806 17.2759 23.2806 17.8759 23.2806 18.4159C23.2806 18.5959 23.2206 18.5959 23.0406 18.5959C22.5006 18.5959 21.9006 18.5959 21.3606 18.5959C21.1806 18.5959 21.1206 18.5359 21.1206 18.3559C21.1206 17.8159 21.1206 17.2759 21.1206 16.7359C21.1206 16.5559 21.1806 16.4959 21.3606 16.4959C21.7206 16.5559 21.9606 16.5559 22.2606 16.5559Z" fill="#FEE252"/>
<path d="M21.1806 20.3356C21.1806 20.0356 21.1806 19.7956 21.1806 19.4956C21.1806 19.3156 21.2406 19.2556 21.3606 19.2556C21.9006 19.2556 22.5006 19.2556 23.0406 19.2556C23.2206 19.2556 23.2206 19.3156 23.2206 19.4956C23.2206 20.0356 23.2206 20.6356 23.2206 21.1756C23.2206 21.3556 23.1606 21.4156 22.9806 21.4156C22.4406 21.4156 21.9006 21.4156 21.3606 21.4156C21.1806 21.4156 21.1206 21.3556 21.1206 21.1756C21.1806 20.8756 21.1806 20.5756 21.1806 20.3356Z" fill="#97C969"/>
<path d="M34.3795 30.8943C34.1395 31.3143 33.7795 31.5543 33.4795 31.8543C33.3595 31.9743 33.2995 32.0943 33.1195 32.0943C32.9395 31.9143 32.6995 31.6743 32.5195 31.4943C32.9995 31.1343 33.4195 30.7143 33.7795 30.2343C33.9595 30.4743 34.1395 30.6543 34.3795 30.8943Z" fill="#466089"/>
<path d="M33.5393 26.9347C33.5393 29.3344 31.5595 31.2541 29.1598 31.2541C26.7601 31.2541 24.8403 29.2744 24.8403 26.9347C24.8403 24.5349 26.8201 22.6152 29.2198 22.6152C31.6195 22.6152 33.5393 24.5949 33.5393 26.9347Z" fill="#7FD5FA"/>
</g>
<defs>
<clipPath id="clip0_806_4276">
<rect width="33.596" height="31.5562" fill="white" transform="translate(7.20215 10.0167)"/>
</clipPath>
</defs>
</svg>
