<svg width="49" height="49" viewBox="0 0 49 49" fill="none" xmlns="http://www.w3.org/2000/svg">
<rect x="0.0800781" y="0.806763" width="48" height="48" rx="24" fill="#FEF6D0"/>
<g clip-path="url(#clip0_806_9682)">
<path d="M14.7812 11.1652C20.5405 11.1652 26.2997 11.1652 31.999 11.1652C32.599 11.2851 32.8389 11.6451 32.8989 12.305C32.8989 13.0849 32.8989 13.9248 32.8989 14.7047C32.8989 18.3643 32.8989 22.0838 32.8989 25.7434C32.8989 25.9233 32.9589 26.1633 32.7789 26.3433C32.659 26.4633 32.479 26.4633 32.359 26.4633C29.0594 26.4633 25.7598 26.4633 22.4602 26.4633C22.3402 26.4633 22.1603 26.4633 22.0403 26.4033C21.9803 26.3433 21.9203 26.2833 21.9203 26.2233C21.9203 25.5634 21.8603 24.9035 21.9203 24.3035C22.0403 24.0636 22.1603 24.2435 22.3402 24.3035C22.9402 24.6635 23.3601 24.6635 23.7201 24.2435C23.8401 24.1236 23.9 24.0036 23.96 23.8236C24.26 23.0437 24.56 22.3238 24.7999 21.5439C24.9199 21.2439 25.0399 20.944 25.1599 20.704C25.2199 20.584 25.2799 20.404 25.3999 20.344C25.5198 20.284 25.6998 20.344 25.8198 20.344C27.6196 20.344 29.4194 20.344 31.2191 20.344C31.3391 20.344 31.3991 20.344 31.5191 20.344C31.8191 20.284 31.999 20.1641 31.999 19.8641C31.999 19.7441 31.999 19.6241 31.999 19.5641C31.999 17.8243 31.999 16.0846 31.999 14.3448C31.999 14.2248 31.999 14.1048 31.999 14.0448C31.9391 13.6849 31.8191 13.5649 31.4591 13.5649C31.0392 13.5649 30.6792 13.5649 30.2593 13.5649C28.0995 13.5649 25.9398 13.5649 23.8401 13.5649C23.7201 13.5649 23.5401 13.5649 23.4201 13.6249C23.1801 13.7448 23.1201 13.9248 23.1201 14.1648C23.1201 14.7647 23.1201 15.4246 23.1201 16.0246C23.1201 17.2244 23.1201 18.4843 23.1201 19.6841C23.1201 19.8641 23.1201 20.1041 23.2401 20.284C23.3601 20.584 23.1201 20.824 23.0601 21.1239C23.0002 21.3039 22.9402 21.4239 22.8802 21.6039C22.7002 22.0838 22.3402 22.2038 21.9203 21.9638C21.5003 21.7239 21.1404 21.4839 20.7804 21.1839C20.4205 20.944 20.0605 20.764 19.6406 20.644C19.5206 20.644 19.4006 20.644 19.2806 20.524C19.2806 20.344 19.4606 20.344 19.5806 20.344C20.8404 19.9241 21.3804 18.5443 20.6604 17.4044C20.3005 16.8045 19.3406 16.2645 18.4407 16.6245C17.1809 17.1044 16.8209 18.4243 17.3609 19.4441C17.6008 19.8641 17.9608 20.1641 18.4407 20.344C18.5607 20.404 18.6807 20.404 18.7407 20.464C18.6807 20.644 18.5607 20.584 18.4407 20.644C18.0208 20.764 17.6008 20.884 17.2409 21.1839C16.341 21.8438 16.041 22.7437 16.041 23.8236C16.041 24.6035 16.041 25.3834 16.041 26.1633C16.041 26.3433 16.041 26.4633 15.921 26.5833C15.4411 26.7032 14.9012 26.6432 14.4212 26.6432C14.2412 26.6432 14.0613 26.6432 13.8813 26.5833C13.8213 26.4633 13.8213 26.3433 13.8213 26.1633C13.8213 22.6237 13.8213 19.1442 13.8213 15.6046C13.8213 15.5446 13.8213 15.4846 13.8213 15.4246C13.8213 14.7647 13.8213 14.1048 13.8213 13.4449C13.8213 13.1449 13.8213 12.845 13.8213 12.545C13.8213 12.245 13.8813 12.0051 14.0613 11.7651C14.2412 11.2851 14.4812 11.2252 14.7812 11.1652Z" fill="#4FAAF6"/>
<path d="M8.90186 33.7824C8.90186 33.3024 8.90186 32.8825 8.90186 32.4025C8.96185 32.3425 9.08183 32.2826 9.20182 32.2826C9.80174 32.2826 10.3417 32.2826 10.9416 32.2826C11.9615 32.2826 12.9814 32.2826 13.9412 32.2826C15.2011 32.2226 16.5209 32.2826 17.7808 32.2826C18.2007 32.2826 18.6207 32.2826 19.0406 32.2826C19.1606 32.2826 19.2806 32.2826 19.4006 32.2826C23.66 32.2826 27.9195 32.2826 32.179 32.2826C32.359 32.2826 32.5989 32.2826 32.7789 32.2826C32.9589 32.3425 33.0789 32.3425 33.2588 32.3425C34.6387 32.3425 36.0785 32.3425 37.4583 32.3425C37.9383 32.3425 37.9383 32.4025 37.9983 32.8225C37.9983 33.0025 37.9983 33.2424 37.9983 33.4224C37.9983 34.3223 37.4583 35.0422 36.5584 35.3422C36.9184 35.2822 37.2784 35.1622 37.6383 35.4022C37.5783 35.5821 37.3983 35.5222 37.2784 35.5222C36.9784 35.5222 36.6784 35.5222 36.3785 35.5222C33.7388 35.5222 31.0991 35.5222 28.4594 35.5222C28.3994 35.5222 28.2795 35.5222 28.2195 35.5222C27.9195 35.5222 27.8595 35.5821 27.8595 35.8821C27.8595 36.902 27.8595 37.9219 27.8595 38.9417C27.8595 39.1217 27.8595 39.3017 27.7995 39.4217C27.7995 39.4817 27.7395 39.4817 27.6795 39.4217C27.5596 39.3017 27.6195 39.1217 27.6195 38.9417C27.6195 37.9219 27.6195 36.902 27.6195 35.9421C27.6195 35.5222 27.6195 35.5222 27.1996 35.5222C25.2198 35.5222 23.2401 35.5222 21.2603 35.5222C20.8404 35.5222 20.8404 35.5222 20.8404 35.9421C20.8404 36.962 20.8404 37.9818 20.8404 38.9417C20.8404 39.1217 20.8404 39.2417 20.7804 39.4217C20.7804 39.4817 20.7204 39.4817 20.6604 39.4817C20.5404 39.3617 20.5404 39.1817 20.5404 39.0017C20.5404 38.0418 20.5404 37.022 20.5404 36.0621C20.5404 35.5222 20.5404 35.5222 20.0005 35.5222C17.1808 35.5222 14.3612 35.5222 11.6015 35.5222C11.3616 35.5222 11.1216 35.5222 10.9416 35.4622C9.68176 35.4022 9.14183 34.8622 8.90186 33.7824Z" fill="#E8EEFE"/>
<path d="M10.9416 32.4025C10.2817 32.4025 9.62177 32.4025 8.90186 32.4025C8.90186 26.5833 8.90186 20.704 8.90186 14.8847C9.08183 13.8048 9.86174 13.1449 11.0616 13.1449C11.9015 13.1449 12.7414 13.1449 13.5213 13.1449C13.6413 13.1449 13.8212 13.1449 13.9412 13.2649C13.9412 13.9248 13.9412 14.5848 13.9412 15.3047C13.8212 15.3047 13.7013 15.3047 13.5213 15.3047C13.0413 15.3047 12.6214 15.3047 12.1415 15.3047C11.3616 15.3047 11.0016 15.6646 11.0016 16.4445C11.0016 19.9241 11.0016 23.4037 11.0016 26.8832C11.0016 28.563 11.0016 30.1828 11.0016 31.8626C11.0016 32.0426 11.0616 32.2226 10.9416 32.4025Z" fill="#3C589F"/>
<path d="M39.2579 14.8847C39.2579 20.704 39.2579 26.5833 39.2579 32.4025C39.1979 32.4625 39.0779 32.5225 38.9579 32.5225C38.5979 32.5225 38.178 32.5825 37.818 32.4625C37.6981 32.2826 37.6981 32.1026 37.6981 31.9226C37.6981 30.1828 37.6981 28.443 37.6981 26.7032C37.6981 22.9237 37.6981 19.2042 37.6981 15.4246C37.6981 14.4647 37.2781 13.8048 36.4382 13.3849C36.3782 13.3249 36.2582 13.3249 36.1982 13.2649C36.1982 13.1449 36.3182 13.1449 36.3782 13.1449C36.7982 13.1449 37.2181 13.0849 37.6981 13.2049C38.538 13.3849 39.1379 13.9248 39.2579 14.8847Z" fill="#2A428B"/>
<path d="M27.6197 39.4817C28.2197 39.4817 28.8196 39.4817 29.4795 39.4817C29.7795 39.6016 29.8395 39.7816 29.8395 40.0816C29.8395 40.3815 29.8395 40.6215 29.8395 40.9215C29.8395 41.2214 29.7195 41.4614 29.4195 41.5214C25.4 41.5214 21.3805 41.5214 17.361 41.5214C17.121 41.4014 17.061 41.1614 17.061 40.8615C17.061 40.5615 17.061 40.2616 17.061 40.0216C17.061 39.6616 17.241 39.5416 17.601 39.5416C18.5608 39.5416 19.5807 39.5416 20.5406 39.5416H20.6006C20.6606 39.4817 20.7806 39.4217 20.9006 39.4217C21.4405 39.4217 22.0404 39.4217 22.5804 39.4217C22.8803 39.4217 23.1803 39.4217 23.4802 39.4217C23.9002 39.4217 24.2601 39.4217 24.6801 39.4217C24.9801 39.4217 25.28 39.4217 25.58 39.4217C26.1199 39.4217 26.7198 39.4217 27.2598 39.4217C27.3798 39.4217 27.4997 39.4217 27.5597 39.5416C27.5597 39.4817 27.6197 39.4817 27.6197 39.4817Z" fill="#E8EEFE"/>
<path d="M32.7789 26.3433C32.7789 21.7239 32.7789 17.1044 32.7789 12.485C32.7789 11.8851 32.539 11.4651 31.999 11.2252C32.479 11.2252 32.9589 11.2252 33.4388 11.2252C33.9788 11.3451 34.2787 11.6451 34.2787 12.245C34.2787 12.605 34.2787 12.905 34.2787 13.2649C34.2787 13.9248 34.2787 14.5847 34.2787 15.2447C34.2787 15.3047 34.2787 15.3047 34.2787 15.3646C34.2787 15.4846 34.2787 15.5446 34.2787 15.6646C34.2787 19.0842 34.2787 22.4438 34.2787 25.8634C34.2787 26.0433 34.2787 26.2233 34.2187 26.4033C34.1588 26.4633 34.0988 26.5233 33.9788 26.5233C33.6188 26.4633 33.1989 26.5233 32.7789 26.3433Z" fill="#1885E9"/>
<path d="M37.8182 32.4025C38.2981 32.4025 38.7781 32.4025 39.258 32.4025C39.258 32.8825 39.258 33.3624 39.258 33.8424C39.078 34.5023 38.6581 35.0422 37.9982 35.3422C37.8182 35.4022 37.6982 35.4622 37.5182 35.4622C37.1583 35.4622 36.7983 35.4622 36.3784 35.4622C36.6183 35.2822 36.9183 35.2222 37.0983 35.0422C37.6382 34.5623 37.8782 33.9623 37.8182 33.2424C37.7582 32.5225 37.8182 32.5225 37.0983 32.5225C35.7784 32.5225 34.4586 32.5225 33.1388 32.5225C33.0188 32.5225 32.8988 32.5825 32.7788 32.4625C32.7788 32.4625 32.7788 32.4625 32.8388 32.4025C33.3187 32.2825 33.7387 32.3425 34.2186 32.3425C34.7586 32.3425 35.2985 32.3425 35.7784 32.3425C36.1984 32.3425 36.6783 32.3425 37.0983 32.3425C37.1583 32.3425 37.1583 32.3425 37.2183 32.3425C37.3982 32.2825 37.6382 32.2825 37.8182 32.4025Z" fill="#D2DBFA"/>
<path d="M29.4194 41.5217C29.6594 41.3417 29.8394 41.1017 29.7794 40.8017C29.7794 40.6217 29.7794 40.4417 29.7794 40.3217C29.7794 40.0217 29.7194 39.7217 29.4794 39.5417C29.8394 39.5417 30.2594 39.5417 30.6194 39.5417C30.9794 39.5417 31.2194 39.7817 31.2194 40.0817C31.2194 40.3817 31.2194 40.6817 31.2194 40.9817C31.2194 41.2217 31.0394 41.4017 30.8594 41.5217C30.3194 41.5217 29.8994 41.5217 29.4194 41.5217Z" fill="#D2DBFA"/>
<path d="M32.7787 32.4026C28.3392 32.4026 23.8998 32.4026 19.4603 32.4026C19.3404 32.4026 19.1604 32.4026 19.0404 32.4026C18.9204 32.2826 18.9204 32.1626 18.9204 31.9826C18.9204 30.2428 18.9204 28.503 18.9204 26.7033C18.9204 26.5833 18.9204 26.4033 18.9804 26.2833C19.0404 26.2233 19.1604 26.1633 19.2804 26.1633C19.8803 26.1633 20.4802 26.1633 21.0801 26.1633C21.3801 26.1633 21.7401 26.0433 22.04 26.2233C22.8799 26.2233 23.7798 26.2233 24.6197 26.2233C27.3194 26.2233 30.019 26.2233 32.7187 26.2233C32.8987 26.4633 32.8987 26.6433 32.8987 26.7633C32.8987 28.503 32.8987 30.2428 32.8987 31.9826C32.8987 32.1026 32.8987 32.2826 32.7787 32.4026Z" fill="#D2DBFA"/>
<path d="M10.9414 32.4025C10.9414 27.0632 10.9414 21.7239 10.9414 16.3845C10.9414 15.6646 11.3614 15.2447 12.0213 15.2447C12.6812 15.2447 13.2811 15.2447 13.941 15.2447C13.941 18.8442 13.941 22.3838 13.941 25.9833C13.941 26.1033 13.941 26.2833 13.941 26.4033C14.061 26.5233 14.001 26.6433 14.001 26.8232C14.001 28.563 14.001 30.3028 14.001 32.0426C14.001 32.1626 14.001 32.3425 13.881 32.4625C12.9212 32.4025 11.9013 32.4025 10.9414 32.4025Z" fill="#9AD7F8"/>
<path d="M23.24 20.1641C23.1201 20.0441 23.0601 19.9241 23.0601 19.7441C23.0601 17.7644 23.0601 15.7846 23.0601 13.8048C23.0601 13.5649 23.1201 13.3849 23.42 13.2649C23.54 13.2049 23.6 13.2649 23.72 13.2649C25.8797 13.2649 28.0394 13.2649 30.1992 13.2649C30.6791 13.2649 30.8591 13.3849 30.8591 13.9248C30.8591 15.1847 30.8591 16.3845 30.8591 17.6444C30.8591 18.2443 30.8591 18.9042 30.8591 19.5041C30.8591 19.6241 30.8591 19.8041 30.7991 19.9241C30.7391 20.2241 30.6191 20.344 30.2592 20.344C29.8992 20.344 29.5393 20.344 29.1193 20.344C27.8595 20.344 26.6596 20.344 25.3998 20.344C25.2198 20.284 25.2798 20.1641 25.3398 20.0441C25.3998 19.8641 25.5198 19.6841 25.3998 19.4442C25.3998 19.2642 25.3998 19.1442 25.4598 18.9642C25.7597 17.8843 25.9997 16.7445 26.2997 15.6646C26.2997 15.5446 26.3597 15.4846 26.3597 15.3647C26.3597 15.1847 26.2997 15.0647 26.0597 15.0047C25.8797 14.9447 25.7597 15.0047 25.6397 15.1847C25.6997 15.2447 25.6997 15.3647 25.6397 15.4846C25.3998 16.3845 25.1598 17.2844 24.9798 18.1843C24.9198 18.3043 24.9198 18.4843 24.7998 18.6043C24.6799 18.6642 24.4999 18.6642 24.3799 18.6642C24.1999 18.7242 24.0799 18.7842 23.9599 18.9042C23.66 19.1442 23.66 19.5641 23.48 19.8641C23.42 19.9841 23.42 20.1041 23.24 20.1641Z" fill="#E8EEFE"/>
<path d="M13.9414 32.4025C13.9414 30.3628 13.9414 28.383 13.9414 26.3433C14.6013 26.3433 15.2612 26.3433 15.9812 26.3433C16.1011 26.2233 16.2211 26.2233 16.3411 26.2233C17.121 26.2233 17.8409 26.2233 18.6208 26.2233C18.7408 26.2233 18.9208 26.2233 19.0408 26.3433C19.0408 28.323 19.0408 30.3628 19.0408 32.3425C18.6208 32.3425 18.2609 32.3425 17.8409 32.3425C16.5211 32.4025 15.2612 32.4025 13.9414 32.4025Z" fill="#F4EA37"/>
<path d="M19.0404 26.3433C18.1406 26.3433 17.2407 26.3433 16.2808 26.3433C16.1608 26.3433 16.0408 26.3433 15.9808 26.3433C15.9808 25.2034 15.9208 24.1236 16.0408 22.9837C16.1008 22.0838 16.5208 21.4239 17.3007 20.884C17.4206 20.824 17.4806 20.944 17.6006 21.004C17.9006 21.2439 18.1406 21.4239 18.4405 21.6639C18.8605 22.0238 19.2804 22.0238 19.7004 21.6639C20.0003 21.4239 20.3003 21.1839 20.5403 21.004C20.6602 20.944 20.7202 20.824 20.8402 20.884C21.2002 21.1239 21.5601 21.3639 21.9801 21.6039C22.4 21.9038 22.7 21.7839 22.94 21.3039C23 21.1839 23.0599 21.004 23.1199 20.884C23.4199 20.824 23.5999 20.884 23.7799 21.1239C23.7799 21.2439 23.7799 21.3639 23.7199 21.4839C23.4199 22.3238 23.1199 23.1637 22.76 23.9436C22.7 24.1236 22.64 24.3036 22.46 24.3036C22.34 24.2436 22.28 24.1836 22.1601 24.1236C22.0401 24.0036 22.0401 23.8236 22.0401 23.7036C22.0401 23.5236 22.0401 23.4037 21.9801 23.2237C21.9201 23.1037 21.8601 22.9837 21.7401 22.9837C21.5601 22.9837 21.5001 23.0437 21.3802 23.1637C21.2602 23.3437 21.2602 23.5236 21.2602 23.7036C21.2602 24.4235 21.2602 25.2034 21.2602 25.9234C21.2602 26.0433 21.2602 26.2233 21.1402 26.3433C20.4203 26.3433 19.7004 26.3433 19.0404 26.3433Z" fill="#4ED3DD"/>
<path d="M25.3997 20.2241C26.9595 20.2241 28.5793 20.2241 30.1391 20.2241C30.559 20.2241 30.739 20.1041 30.739 19.6241C30.739 18.4243 30.739 17.2244 30.739 16.0246C30.739 15.3047 30.739 14.5248 30.739 13.8049C30.739 13.3849 30.559 13.2649 30.1991 13.2649C27.9194 13.2649 25.6396 13.2649 23.4199 13.2649C23.5399 13.2049 23.5999 13.2049 23.7199 13.2049C26.2996 13.2049 28.9392 13.2049 31.5189 13.2049C31.9389 13.2049 32.1788 13.3849 32.1788 13.8049C32.1788 15.7246 32.1788 17.7044 32.1788 19.6241C32.1788 20.1041 31.9389 20.2841 31.4589 20.2841C29.4792 20.2841 27.4394 20.284 25.3997 20.2241Z" fill="#D2DBFA"/>
<path d="M18.381 20.1645C17.481 19.8045 17.001 19.1445 17.001 18.2445C17.001 17.3445 17.541 16.6845 18.381 16.3845C19.161 16.6245 19.521 17.1645 19.701 17.9445C19.881 18.7845 19.461 19.6845 18.681 20.1045C18.561 20.1045 18.501 20.1645 18.381 20.1645Z" fill="#FBAC6D"/>
<path d="M18.3809 20.1645C18.7409 19.9245 19.1009 19.6845 19.3409 19.3245C19.9409 18.3645 19.6409 16.9845 18.6209 16.5045C18.5009 16.4445 18.4409 16.4445 18.3809 16.3245C19.4009 15.9645 20.5409 16.5045 20.9009 17.5845C21.2609 18.6645 20.7209 19.8045 19.6409 20.1645C19.5209 20.2245 19.4009 20.2245 19.2209 20.2845C19.0409 20.4645 18.8609 20.4045 18.6809 20.2845C18.6209 20.2245 18.5009 20.2245 18.3809 20.1645Z" fill="#FC985B"/>
<path d="M22.3403 24.3039C22.5203 24.0639 22.5803 23.7039 22.7003 23.3439C22.9403 22.5639 23.1203 21.8439 23.3603 21.0639C23.3603 21.0639 23.4203 21.0639 23.4203 21.0039C23.7203 21.1239 24.0803 21.1839 24.3203 21.4239C24.0803 22.2639 23.8403 23.1039 23.6003 23.9439C23.4203 24.5439 22.8203 24.9039 22.3403 24.3039Z" fill="#4ED3DD"/>
<path d="M18.7407 20.284C18.9207 20.284 19.1007 20.284 19.2807 20.284C19.8207 20.344 20.3607 20.524 20.7807 20.884C20.4207 21.184 20.0607 21.484 19.7007 21.724C19.2207 22.084 18.7407 22.084 18.3207 21.724C17.9607 21.424 17.6007 21.184 17.2407 20.884C17.6607 20.524 18.2007 20.404 18.7407 20.284Z" fill="#E8EEFE"/>
<path d="M21.5601 26.3437C21.5601 25.5637 21.5601 24.8437 21.5601 24.0637C21.5601 24.0037 21.5601 23.8837 21.5601 23.8237C21.6201 23.6437 21.7401 23.5237 21.9201 23.5237C22.1001 23.5237 22.2201 23.7037 22.2201 23.8837C22.2201 24.1237 22.2201 24.3037 22.2201 24.5437C22.2201 25.1437 22.2201 25.7437 22.2201 26.2837C22.0401 26.3437 21.8001 26.3437 21.5601 26.3437Z" fill="#4ED3DD"/>
<path d="M24.9202 21.5443C24.5002 21.4243 24.1402 21.3043 23.7202 21.1243C23.6002 21.0043 23.6602 20.8843 23.7202 20.7643C23.8402 20.5243 23.9002 20.2843 24.0202 20.0443C24.1402 19.7443 24.2002 19.3843 23.9602 19.0843C23.9002 19.0243 23.8402 18.9043 23.9002 18.8443C24.1402 18.5443 24.4402 18.5443 24.8002 18.5443C24.9202 18.7243 24.8002 18.8443 24.8002 19.0243C24.8002 19.1443 24.7402 19.3243 24.8002 19.4443C24.9202 19.6243 25.1602 19.6843 25.3402 19.5043C25.4002 19.4443 25.4602 19.3243 25.5802 19.3243C25.7002 19.5043 25.5802 19.7443 25.5202 19.9243C25.5202 20.0443 25.4602 20.1043 25.4002 20.2243C25.4002 20.2243 25.4002 20.2843 25.3402 20.2843C25.2202 20.7043 25.0402 21.1243 24.9202 21.5443Z" fill="#FC985B"/>
<path d="M23.9001 18.8442C24.2001 19.2642 24.2601 19.6842 24.0201 20.1642C23.9001 20.4642 23.7201 20.7642 23.7201 21.1242C23.5401 21.0042 23.3001 20.9442 23.0601 20.8842C23.1201 20.6442 23.2401 20.4042 23.3001 20.1642C23.4201 19.8642 23.5401 19.5642 23.6601 19.3242C23.6601 19.0842 23.7201 18.9642 23.9001 18.8442Z" fill="#FBAC6D"/>
<path d="M22.5803 39.4817C21.9204 39.4817 21.2604 39.4817 20.5405 39.4817C20.5405 38.2218 20.5405 37.022 20.5405 35.7621C20.5405 35.5221 20.6005 35.4022 20.8405 35.4022C22.9402 35.4022 25.1 35.4022 27.1997 35.4022C27.4997 35.4022 27.4997 35.5221 27.4997 35.7621C27.4997 37.022 27.4997 38.2218 27.4997 39.4817C26.8397 39.4817 26.1798 39.4817 25.4599 39.4817C25.3399 39.3617 25.3999 39.2417 25.3399 39.1217C25.3399 38.7617 25.3399 38.4018 25.3399 38.0418C25.3399 37.4419 24.98 37.082 24.3801 37.082C24.0801 37.082 23.7801 37.082 23.5402 37.082C22.9402 37.082 22.6403 37.4419 22.5803 38.0418C22.5803 38.4018 22.5803 38.7617 22.5803 39.1217C22.7003 39.2417 22.7003 39.3617 22.5803 39.4817Z" fill="#D2DBFA"/>
<path d="M37.8183 32.4025C37.6383 32.4025 37.3984 32.4025 37.2184 32.4025C37.0984 32.2225 37.1584 32.0426 37.1584 31.8626C37.1584 26.7632 37.1584 21.6639 37.1584 16.6245C37.1584 16.5045 37.1584 16.3245 37.1584 16.2045C37.0384 15.6046 36.6784 15.3646 36.0785 15.3646C35.5986 15.3646 35.1186 15.3646 34.5787 15.3646C34.4587 15.3646 34.3387 15.3646 34.2188 15.3046C34.2188 14.6447 34.2188 13.9848 34.2188 13.2649C34.8787 13.2649 35.5386 13.2649 36.2585 13.2649C36.7384 13.4449 37.1584 13.6248 37.4583 14.0448C37.6983 14.4048 37.8783 14.7647 37.8783 15.2446C37.8183 20.9439 37.8183 26.6432 37.8183 32.4025Z" fill="#3C589F"/>
<path d="M22.5801 39.482C22.5801 39.002 22.5801 38.522 22.5801 38.042C22.5801 37.382 23.0001 36.962 23.6601 36.962C23.9601 36.962 24.2601 36.962 24.5601 36.962C25.1601 36.962 25.5801 37.382 25.5801 37.982C25.5801 38.462 25.5801 38.942 25.5801 39.482C25.2801 39.482 24.9801 39.482 24.6801 39.482C24.5001 39.422 24.5001 39.302 24.5001 39.122C24.5001 38.822 24.5001 38.582 24.5001 38.282C24.5001 38.102 24.4401 37.982 24.2001 37.982C23.6001 37.922 23.6001 37.982 23.6001 38.522C23.6001 38.702 23.6001 38.942 23.6001 39.122C23.6001 39.242 23.6001 39.362 23.4201 39.422C23.1801 39.482 22.8801 39.482 22.5801 39.482Z" fill="#BDC7F6"/>
<path d="M23.48 39.4819C23.6 39.0619 23.54 38.7019 23.54 38.2819C23.54 37.8619 23.54 37.8619 23.96 37.8619C24.62 37.8619 24.62 37.8619 24.62 38.5219C24.62 38.8219 24.56 39.1219 24.68 39.4819C24.26 39.4819 23.84 39.4819 23.48 39.4819Z" fill="#D2DBFA"/>
<path d="M35.7784 32.4025C35.2385 32.4025 34.6986 32.4025 34.1586 32.4025C34.0986 32.2826 34.0986 32.1026 34.0986 31.9826C34.0986 30.2428 34.0986 28.503 34.0986 26.7632C34.0986 26.6433 34.0986 26.4633 34.2186 26.3433C34.2186 22.7437 34.2186 19.1442 34.2186 15.4846C34.2186 15.4246 34.2186 15.3047 34.2186 15.2447C34.5186 15.1847 34.8185 15.1847 35.1785 15.2447C35.5984 15.3047 35.7784 15.6046 35.8984 15.9646C35.8984 16.1446 35.8984 16.3245 35.8984 16.5045C35.8984 21.6039 35.8984 26.7033 35.8984 31.8626C35.8984 32.0426 35.9584 32.2226 35.7784 32.4025Z" fill="#9AD7F8"/>
<path d="M35.7786 32.4025C35.7786 27.0632 35.7786 21.7239 35.7786 16.3845C35.7786 16.0846 35.7186 15.8446 35.5386 15.6046C35.3586 15.3646 35.1186 15.2447 34.8187 15.3047C34.6387 15.3047 34.3987 15.3047 34.2188 15.3047V15.2447C34.8787 15.2447 35.5386 15.2447 36.1385 15.2447C36.7384 15.2447 37.0984 15.5446 37.2184 16.1445C37.1584 16.2645 37.2184 16.3845 37.2184 16.5045C37.2184 21.7239 37.2184 26.8832 37.2184 32.1026C37.2184 32.2226 37.2184 32.3425 37.2184 32.4625C36.6784 32.4025 36.2585 32.4025 35.7786 32.4025Z" fill="#73C2F8"/>
<path d="M34.2186 26.3433C34.2186 28.383 34.2186 30.3628 34.2186 32.4025C33.7387 32.4025 33.2587 32.4025 32.7788 32.4025C32.7788 30.3628 32.7788 28.383 32.7788 26.3433C33.2587 26.3433 33.7387 26.3433 34.2186 26.3433Z" fill="#BDC7F6"/>
<path d="M37.1586 32.4026C37.1586 27.1232 37.1586 21.7839 37.1586 16.5045C37.1586 16.3845 37.0986 16.2645 37.2185 16.1446C37.2185 16.2645 37.2185 16.4445 37.2185 16.5645C37.2185 21.8439 37.2185 27.1232 37.2185 32.4625C37.2185 32.4026 37.1586 32.4026 37.1586 32.4026Z" fill="#76C3F7"/>
<path d="M24.02 29.043C24.0799 28.923 24.1999 28.923 24.2599 28.923C26.8396 28.923 29.4193 28.923 31.999 28.923C32.2389 28.923 32.4189 28.923 32.5389 29.1629C32.7189 29.4029 32.5389 29.7629 32.2989 29.8229C32.2389 29.8229 32.119 29.8229 32.059 29.8229C29.4193 29.8229 26.7796 29.8229 24.1399 29.8229C24.0799 29.8229 24.02 29.8229 23.96 29.8229C23.96 29.5829 23.96 29.2829 24.02 29.043Z" fill="#3434F4"/>
<path d="M24.0205 29.043C24.1405 29.343 24.1405 29.583 23.9605 29.883C23.5405 30.603 22.6405 30.603 22.1605 29.883C21.9205 29.643 21.9205 29.343 22.1005 29.043C22.2805 28.623 22.5805 28.383 23.0005 28.383C23.4805 28.383 23.8405 28.563 24.0205 29.043Z" fill="#E8EEFE"/>
<path d="M22.1005 29.043C21.9805 29.343 21.9805 29.583 22.1605 29.883C21.8005 29.883 21.4405 29.883 21.0205 29.883C20.7805 29.883 20.6005 29.703 20.5405 29.463C20.5405 29.223 20.6605 29.043 20.9005 28.983C21.2605 28.923 21.6205 28.983 21.9805 28.983C22.1005 28.923 22.1005 28.983 22.1005 29.043Z" fill="#3434F4"/>
<path d="M25.5197 19.3242C25.3397 19.6841 25.1597 19.8041 24.8598 19.6841C24.6198 19.5641 24.5598 19.3842 24.6198 19.0842C24.6798 18.9642 24.6798 18.7842 24.7398 18.6642C24.7398 18.6042 24.7398 18.5443 24.7398 18.5443C25.0397 17.4644 25.2797 16.3245 25.5797 15.2447C25.6397 15.0647 25.6996 14.8847 25.8796 14.8247C26.0596 14.7647 26.2396 14.7647 26.3596 14.8847C26.5395 15.0047 26.5395 15.1847 26.4796 15.4246C26.2396 16.4445 25.9396 17.4644 25.6996 18.4843C25.6996 18.7842 25.6397 19.0842 25.5197 19.3242Z" fill="#3C589F"/>
<path d="M16.5208 29.823C16.4608 29.823 16.4008 29.823 16.3408 29.823C16.0408 29.823 15.8608 29.643 15.8008 29.403C15.8008 29.163 15.9208 28.983 16.2208 28.923C16.4008 28.863 16.6408 28.863 16.8208 28.923C17.0608 28.983 17.2408 29.223 17.2408 29.463C17.1808 29.703 17.0008 29.823 16.7608 29.883C16.6408 29.823 16.5808 29.823 16.5208 29.823Z" fill="#BABA04"/>
</g>
<defs>
<clipPath id="clip0_806_9682">
<rect width="30.3563" height="31.0762" fill="white" transform="translate(8.90186 10.4453)"/>
</clipPath>
</defs>
</svg>
