<svg width="49" height="50" viewBox="0 0 49 50" fill="none" xmlns="http://www.w3.org/2000/svg">
<rect x="0.620605" width="48" height="48" rx="24" fill="#E3FBDA"/>
<g clip-path="url(#clip0_806_4168)">
<path d="M24.8271 1.97112C26.1152 2.40858 27.4397 2.70023 28.7521 3.06479C30.8544 3.64808 32.9688 4.20706 35.0711 4.7782C35.703 4.94833 35.8731 5.21567 35.7759 5.88403C35.8002 6.13922 35.6301 6.28504 35.4478 6.3701C35.059 6.56453 34.658 6.71036 34.2083 6.66175C33.5278 6.84403 32.8352 7.0263 32.1547 7.22074C32.0332 7.25719 31.8752 7.24504 31.8023 7.39086C31.7658 7.42732 31.7294 7.45162 31.6807 7.47592C29.5056 8.08352 27.3061 8.64251 25.1309 9.23795C24.7785 9.33517 24.4139 9.33517 24.0494 9.2501C21.8499 8.65466 19.6504 8.07137 17.4509 7.47592C17.4023 7.46377 17.3658 7.43947 17.3294 7.40301C17.0134 7.14782 16.6002 7.13567 16.2235 7.0263C15.4944 6.80757 14.7653 6.62529 14.024 6.44301C13.5987 6.33365 13.3071 6.09061 13.2828 5.64099C13.2585 5.23998 13.5258 4.94833 14.0362 4.81466C17.2807 3.93972 20.5375 3.06479 23.782 2.1777C23.9521 2.12909 24.1466 2.12909 24.2802 1.99542C24.4625 1.97112 24.6448 1.97112 24.8271 1.97112Z" fill="#464F5E"/>
<path d="M47.0772 44.6C47.4661 44.6243 47.697 44.8673 47.8914 45.1711C47.8914 45.8759 47.8914 46.5686 47.8914 47.2734C47.697 47.565 47.4783 47.8324 47.0772 47.8324C46.9436 47.881 46.8099 47.8567 46.6762 47.8567C43.2251 47.8567 39.7861 47.8567 36.335 47.8567C35.7881 47.8567 35.7395 47.8202 35.7274 47.2734C35.7152 46.5564 35.7152 45.8516 35.7274 45.1347C35.7274 44.9524 35.7274 44.7701 35.8489 44.6121C36.0433 44.4542 36.2742 44.4785 36.5051 44.4785C39.8347 44.4785 43.1522 44.4785 46.4818 44.4785C46.6762 44.4785 46.8828 44.4663 47.0772 44.6Z" fill="#ECC000"/>
<path d="M2.03027 44.6C2.03027 38.366 2.03027 32.12 2.03027 25.886C2.03027 25.6916 2.04243 25.4972 2.05458 25.2906C2.21255 25.1812 2.38268 25.1569 2.57711 25.1569C6.12546 25.1569 9.68597 25.1326 13.2343 25.1691C13.7933 25.2055 14.3766 25.0354 14.9234 25.2906C15.0693 25.4972 15.045 25.7281 15.045 25.9468C15.045 31.9134 15.045 37.8678 15.045 43.8344C15.045 44.6 14.9842 44.6486 14.2065 44.6607C13.9391 44.6607 13.6596 44.6243 13.3923 44.7093C13.3315 44.7215 13.2708 44.7336 13.21 44.7336C12.8455 44.7822 12.4809 44.7579 12.1163 44.7579C9.00546 44.7579 5.90673 44.7579 2.79584 44.7579C2.54065 44.7701 2.24901 44.843 2.03027 44.6Z" fill="#85B3CB"/>
<path d="M31.7534 7.36656C31.7655 7.36656 31.7898 7.36656 31.802 7.37871C31.8141 9.15289 31.8263 10.9271 31.8263 12.7012C31.8263 12.8957 31.8506 13.1023 31.8263 13.2967C31.7655 13.7706 31.8384 14.1109 32.4339 14.1352C32.6405 14.1473 32.8349 14.281 32.9807 14.439C34.4389 15.8972 35.885 17.3676 37.3433 18.8258C37.1002 19.0567 36.7964 18.9838 36.5169 18.9838C31.8871 18.9838 27.2572 18.9838 22.6273 18.9838C19.2612 18.9838 15.883 18.9838 12.5169 18.9838C12.2496 18.9838 11.9701 19.0445 11.7271 18.8501C12.9179 17.4162 14.1088 15.9701 15.2997 14.5483C15.6521 14.1352 16.1382 14.038 16.6607 14.038C17.3534 14.038 17.2805 14.1352 17.2805 13.3939C17.2805 11.559 17.2805 9.72403 17.2805 7.88909C17.2805 7.71897 17.2926 7.56099 17.3048 7.39087C17.3169 7.37871 17.3291 7.37871 17.3534 7.37871C17.5357 7.5853 17.4992 7.84049 17.4992 8.07137C17.4992 9.78479 17.4992 11.4982 17.4992 13.2116C17.4992 13.8314 17.5235 13.8678 18.1311 13.8678C22.4086 13.8678 26.686 13.8678 30.9757 13.8678C31.5833 13.8678 31.6076 13.8435 31.6076 13.2116C31.6076 11.4982 31.6076 9.78479 31.6076 8.07137C31.6076 7.81618 31.5711 7.56099 31.7534 7.36656Z" fill="#4396D4"/>
<path d="M13.2707 44.6243C13.295 44.6121 13.3314 44.6121 13.3557 44.6C16.017 44.4299 18.6904 44.4663 21.3517 44.4906C23.4783 44.4663 25.6048 44.4663 27.7314 44.4906C30.3805 44.4906 33.0297 44.442 35.6788 44.5271C35.7395 44.5514 35.7881 44.5757 35.8246 44.6243C35.8246 45.5357 35.8367 46.4471 35.8124 47.3585C35.8003 47.7109 35.8975 47.8202 36.2621 47.8202C39.6889 47.8081 43.1157 47.8081 46.5547 47.8081C46.7248 47.8081 46.8828 47.8202 47.0529 47.8324C46.895 47.9539 46.7005 47.8931 46.5183 47.9053C43.1157 47.9053 39.7132 47.9053 36.3107 47.9053C36.0312 47.9053 35.8367 47.9418 35.7031 48.2334C35.5694 48.5129 35.3142 48.6466 34.9618 48.6466C28.0109 48.6344 21.0479 48.6344 14.097 48.6466C13.7446 48.6466 13.4894 48.5129 13.3557 48.2334C13.2221 47.9296 13.0276 47.9053 12.7481 47.9053C9.34561 47.9174 5.94307 47.9053 2.54054 47.9053C2.35826 47.9053 2.17599 47.9539 2.00586 47.8324C2.22459 47.6015 2.51624 47.6744 2.78358 47.6744C5.95523 47.6744 9.11472 47.6744 12.2864 47.6744C13.0762 47.6744 13.0762 47.6744 13.0762 46.8602C13.0762 46.3134 13.0762 45.7666 13.0762 45.2197C13.1127 45.0131 13.0884 44.7944 13.2707 44.6243Z" fill="#F7E7AA"/>
<path d="M11.7272 18.838C20.0512 18.838 28.3753 18.838 36.6993 18.838C36.9059 18.838 37.1246 18.8258 37.3312 18.8258C37.3555 18.8623 37.3798 18.8987 37.4041 18.923C37.4892 19.5914 37.4406 20.2719 37.5135 20.9402C37.6107 21.8516 37.1489 22.2648 36.2132 22.2405C36.0796 22.2405 35.9459 22.2283 35.8122 22.204C35.5206 22.1554 35.2411 22.1554 34.9494 22.1554C28.0107 22.1554 21.0841 22.1554 14.1454 22.1554C13.8537 22.1554 13.5742 22.1554 13.2826 22.204C13.2097 22.2162 13.1368 22.2283 13.0639 22.2283C11.8608 22.3012 11.3505 21.7058 11.6056 20.5271C11.7272 19.9924 11.5813 19.4456 11.6907 18.9109C11.7029 18.8987 11.715 18.8744 11.7272 18.838Z" fill="#2B5781"/>
<path d="M11.6906 18.923C11.6906 19.6278 11.6906 20.3326 11.6906 21.0374C11.6906 21.8152 11.9701 22.0947 12.7478 22.0947C12.9179 22.0947 13.0759 22.0947 13.246 22.0947C13.3676 22.204 13.3797 22.362 13.3797 22.5078C13.3919 23.2856 13.3919 24.0754 13.3797 24.8531C13.3797 24.999 13.3554 25.1569 13.246 25.2785C9.51541 25.2785 5.78478 25.2785 2.04199 25.2785C2.69819 23.9539 3.34225 22.6172 4.02275 21.3048C4.32655 20.7215 4.86123 20.4542 5.51744 20.4663C7.40098 20.4785 9.27237 20.4542 11.1559 20.4785C11.5326 20.4785 11.6541 20.3812 11.6298 20.0045C11.6298 19.6521 11.5812 19.2754 11.6906 18.923Z" fill="#4396D4"/>
<path d="M13.2706 44.6243C13.2706 45.5357 13.2584 46.4471 13.2827 47.3585C13.2949 47.7109 13.1855 47.8202 12.8331 47.8202C9.40625 47.8081 5.96727 47.8081 2.54043 47.8081C2.37031 47.8081 2.21233 47.8202 2.0422 47.8324C1.44676 47.723 1.22803 47.4678 1.22803 46.8845C1.22803 46.4471 1.22803 46.0096 1.22803 45.56C1.22803 44.9767 1.43461 44.7336 2.0422 44.6C4.35107 44.6 6.64777 44.6121 8.95663 44.6121C10.3906 44.6243 11.8366 44.6243 13.2706 44.6243Z" fill="#ECC000"/>
<path d="M35.8364 44.6243C35.8121 44.6121 35.7756 44.6 35.7513 44.6C35.3382 44.5514 34.9372 44.5635 34.524 44.5757C34.1959 44.5878 34.0865 44.442 34.0744 44.1504C34.0622 44.0045 34.0622 43.8466 34.0622 43.7007C34.0622 37.8314 34.0622 31.962 34.0622 26.1048C34.0622 25.8374 34.0136 25.558 34.1716 25.3028C34.5483 25.0476 34.9615 25.1934 35.3625 25.1569C35.5326 25.1448 35.6906 25.1569 35.8607 25.1691C39.1174 25.1448 42.362 25.1691 45.6187 25.1569C45.9103 25.1569 46.1898 25.1569 46.4815 25.1569C46.6759 25.1569 46.8703 25.1812 47.0405 25.3028C47.0526 25.4972 47.0648 25.6916 47.0648 25.8982C47.0648 32.1321 47.0648 38.3782 47.0648 44.6121C44.7316 44.6121 42.3984 44.6243 40.0531 44.6243C38.6556 44.6243 37.246 44.6243 35.8364 44.6243Z" fill="#85B3CB"/>
<path d="M47.0529 25.2906C43.3223 25.2906 39.5795 25.2906 35.8488 25.2906C35.7273 25.1691 35.7152 25.0233 35.7152 24.8653C35.703 24.0876 35.703 23.2977 35.7152 22.52C35.7152 22.3742 35.7273 22.2162 35.8488 22.1068C37.3071 22.1068 37.4407 21.961 37.4043 20.5028C37.3921 19.9802 37.4043 19.4456 37.4043 18.923C37.5137 19.2997 37.4529 19.6764 37.4407 20.0531C37.4286 20.3934 37.5258 20.4906 37.8782 20.4906C39.7374 20.4785 41.6088 20.4906 43.4681 20.4785C44.2701 20.4663 44.8169 20.8066 45.1693 21.5235C45.8012 22.7752 46.421 24.039 47.0529 25.2906Z" fill="#4396D4"/>
<path d="M34.2081 6.6496C34.4633 6.57669 34.7306 6.49163 34.9858 6.43087C35.3261 6.34581 35.6056 6.19998 35.7757 5.88403C35.8851 6.89264 35.8122 7.90125 35.8122 8.92201C35.8122 9.45669 35.8365 9.91846 36.3225 10.2952C36.6628 10.5504 36.6263 11.0364 36.3469 11.3524C36.0795 11.6562 35.6663 11.7291 35.3261 11.4982C34.6213 11.0243 34.2446 10.3681 34.2203 9.51745C34.196 8.55745 34.2081 7.6096 34.2081 6.6496Z" fill="#ECC001"/>
<path d="M31.7535 7.36656C31.7535 9.44454 31.7535 11.5225 31.7656 13.6126C31.7656 13.9164 31.7049 14.038 31.3646 14.038C26.8198 14.0258 22.2871 14.0258 17.7423 14.038C17.4142 14.038 17.3413 13.9164 17.3413 13.6126C17.3535 11.5347 17.3535 9.45669 17.3535 7.36656C18.1555 7.45163 18.8968 7.73112 19.6745 7.9377C21.1449 8.31441 22.6152 8.72758 24.0856 9.12859C24.5231 9.25011 24.9484 9.16504 25.3737 9.04352C27.4395 8.48454 29.5054 7.92555 31.5712 7.37872C31.6319 7.35441 31.6927 7.36656 31.7535 7.36656Z" fill="#393F4B"/>
<path d="M34.2081 25.3149C34.2081 31.5245 34.2081 37.7342 34.2081 43.9559C34.2081 44.5392 34.2081 44.5271 34.8036 44.5392C35.1195 44.5514 35.4355 44.4663 35.7393 44.6C33.0658 44.6 30.4046 44.6 27.7312 44.6C27.5367 44.3812 27.5853 44.1139 27.5853 43.8587C27.5853 41.1002 27.5853 38.3418 27.5853 35.5833C27.5853 35.4131 27.5853 35.2552 27.5853 35.085C27.5489 34.5868 27.318 34.3195 26.8198 34.3073C25.3008 34.2709 23.7818 34.2709 22.275 34.3073C21.7524 34.3195 21.5094 34.599 21.5094 35.1823C21.4972 36.604 21.5094 38.038 21.5094 39.4597C21.5094 40.9423 21.5094 42.4369 21.5094 43.9195C21.5094 44.1504 21.558 44.4056 21.3636 44.6121C18.6902 44.6121 16.0289 44.6121 13.3555 44.6121C13.6957 44.4663 14.0481 44.5392 14.3884 44.5514C14.7772 44.5635 14.9109 44.4663 14.9109 44.0531C14.8866 41.9387 14.8988 39.8364 14.8988 37.722C14.8988 33.5904 14.8988 29.4587 14.8988 25.3271C15.0567 25.1448 15.2876 25.1691 15.4942 25.1691C21.5337 25.1691 27.5732 25.1691 33.6127 25.1691C33.8193 25.1569 34.0501 25.1326 34.2081 25.3149Z" fill="#A0C7D2"/>
<path d="M34.2082 25.3149C32.276 25.3149 30.356 25.3028 28.4239 25.3028C23.9155 25.3028 19.4072 25.3149 14.8988 25.3149C14.352 25.3028 13.8051 25.3028 13.2583 25.2906C13.2583 24.2334 13.2583 23.164 13.2583 22.1068C13.4041 21.9731 13.5743 22.0339 13.7322 22.0339C20.9505 22.0339 28.1565 22.0339 35.3748 22.0339C35.5327 22.0339 35.715 21.9731 35.8487 22.1068C35.8487 23.164 35.8487 24.2334 35.8487 25.2906C35.3018 25.3028 34.755 25.3028 34.2082 25.3149Z" fill="#317FBB"/>
<path d="M10.0624 30.1514C10.0624 29.884 10.0503 29.6045 10.0624 29.3372C10.0989 28.8633 10.4392 28.5109 10.8645 28.5109C11.2776 28.5109 11.6543 28.8633 11.6665 29.3372C11.6908 29.8597 11.6908 30.3944 11.6665 30.9291C11.6422 31.403 11.2776 31.7433 10.8523 31.7433C10.4148 31.7433 10.0746 31.403 10.0503 30.9291C10.0503 30.6618 10.0624 30.4066 10.0624 30.1514Z" fill="#464F5E"/>
<path d="M11.6906 34.9635C11.6906 35.2309 11.7149 35.5104 11.6906 35.7777C11.6542 36.2273 11.3018 36.5554 10.9008 36.5676C10.4754 36.5797 10.0987 36.2395 10.0866 35.7655C10.0623 35.2187 10.0623 34.6719 10.0866 34.1372C10.1109 33.6754 10.4633 33.3595 10.8765 33.3473C11.2653 33.3352 11.6542 33.6754 11.6906 34.1129C11.7149 34.3924 11.6906 34.684 11.6906 34.9635Z" fill="#464F5E"/>
<path d="M6.86636 39.8C6.86636 40.0673 6.89067 40.3468 6.86636 40.6142C6.82991 41.0638 6.4775 41.3919 6.06434 41.3919C5.63902 41.404 5.27447 41.0516 5.25016 40.5777C5.22586 40.0552 5.22586 39.5205 5.25016 38.9858C5.27447 38.4997 5.61472 38.1595 6.04003 38.1595C6.4532 38.1473 6.82991 38.4997 6.86636 38.9736C6.87852 39.2531 6.86636 39.5205 6.86636 39.8Z" fill="#464F5E"/>
<path d="M11.6906 39.8C11.6906 40.0673 11.7149 40.3468 11.6906 40.6141C11.6541 41.0638 11.3017 41.3919 10.8886 41.404C10.4632 41.4162 10.0865 41.0638 10.0744 40.5898C10.0501 40.043 10.0501 39.4962 10.0744 38.9615C10.0987 38.4997 10.4511 38.1838 10.8643 38.1716C11.2531 38.1595 11.642 38.4997 11.6784 38.9372C11.7149 39.2167 11.6906 39.5083 11.6906 39.8Z" fill="#464F5E"/>
<path d="M6.86636 30.1271C6.86636 30.3944 6.89067 30.6739 6.86636 30.9412C6.82991 31.4152 6.4532 31.7554 6.02788 31.7311C5.61472 31.719 5.26231 31.3787 5.25016 30.9291C5.22586 30.3823 5.22586 29.8354 5.25016 29.3007C5.27447 28.8511 5.62687 28.523 6.02788 28.4987C6.44105 28.4866 6.81776 28.839 6.85421 29.3007C6.87852 29.5802 6.86636 29.8597 6.86636 30.1271Z" fill="#464F5E"/>
<path d="M6.86642 34.9635C6.86642 35.2309 6.89072 35.5104 6.86642 35.7777C6.82996 36.2273 6.47756 36.5554 6.07655 36.5676C5.65123 36.5797 5.27452 36.2395 5.26237 35.7655C5.23806 35.2187 5.23806 34.6719 5.26237 34.1372C5.28667 33.6876 5.63908 33.3595 6.05224 33.3473C6.4411 33.3352 6.82996 33.6754 6.86642 34.1129C6.87857 34.3924 6.85427 34.684 6.86642 34.9635C6.85427 34.9635 6.85427 34.9635 6.86642 34.9635Z" fill="#464F5E"/>
<path d="M21.3637 44.6C21.3637 41.3919 21.3516 38.1959 21.3516 34.9878C21.3516 34.4896 21.6797 34.1615 22.1779 34.1493C23.7576 34.1372 25.3374 34.1372 26.9171 34.1493C27.4154 34.1493 27.7435 34.4896 27.7435 34.9878C27.7435 38.1959 27.7435 41.3919 27.7313 44.6C25.6169 44.6 23.4903 44.6 21.3637 44.6Z" fill="#567580"/>
<path d="M39.0328 30.1392C39.0328 30.4066 39.045 30.6861 39.0328 30.9534C38.9964 31.403 38.6561 31.7311 38.2429 31.7311C37.8298 31.7433 37.4531 31.4152 37.4288 30.9656C37.3923 30.4066 37.4045 29.8476 37.4288 29.2886C37.4531 28.839 37.8298 28.4987 38.2186 28.4987C38.644 28.4987 38.9964 28.839 39.0328 29.3129C39.0571 29.5924 39.0328 29.8719 39.0328 30.1392Z" fill="#464F5E"/>
<path d="M43.8688 39.7757C43.8688 40.043 43.881 40.3225 43.8688 40.5898C43.8323 41.0638 43.4678 41.404 43.0425 41.3919C42.6293 41.3797 42.2769 41.0516 42.2526 40.602C42.2283 40.0552 42.2283 39.5083 42.2526 38.9736C42.2769 38.4997 42.6536 38.1595 43.0789 38.1716C43.5164 38.1838 43.8445 38.524 43.8688 39.0101C43.881 39.2653 43.8688 39.5205 43.8688 39.7757Z" fill="#464F5E"/>
<path d="M43.8692 30.1392C43.8692 30.4066 43.8935 30.6861 43.8692 30.9534C43.8328 31.403 43.4804 31.7311 43.0672 31.7311C42.6541 31.7311 42.2895 31.4152 42.2652 30.9656C42.2287 30.4066 42.2409 29.8476 42.2652 29.2886C42.2895 28.8511 42.6662 28.5109 43.0672 28.4987C43.4925 28.4987 43.8449 28.839 43.8814 29.3129C43.8814 29.6045 43.8692 29.8719 43.8692 30.1392Z" fill="#464F5E"/>
<path d="M37.4165 34.9514C37.4165 34.684 37.4044 34.4045 37.4165 34.1372C37.453 33.6876 37.8054 33.3473 38.2064 33.3352C38.6317 33.323 39.0084 33.6754 39.0327 34.1372C39.057 34.684 39.057 35.2309 39.0327 35.7656C39.0084 36.2152 38.656 36.5433 38.2429 36.5554C37.8175 36.5676 37.453 36.2273 37.4165 35.7534C37.4044 35.4982 37.4165 35.2309 37.4165 34.9514Z" fill="#464F5E"/>
<path d="M43.8689 34.9757C43.8689 35.243 43.8932 35.5225 43.8689 35.7898C43.8324 36.2395 43.48 36.5676 43.0668 36.5676C42.6537 36.5676 42.2891 36.2395 42.2648 35.802C42.2405 35.243 42.2405 34.684 42.2648 34.125C42.2891 33.6876 42.6658 33.3473 43.0668 33.3473C43.4921 33.3473 43.8446 33.6997 43.881 34.1736C43.881 34.4288 43.8689 34.7083 43.8689 34.9757Z" fill="#464F5E"/>
<path d="M39.0446 39.7757C39.0446 40.043 39.0567 40.3225 39.0446 40.5898C39.0081 41.0638 38.6557 41.404 38.2183 41.3919C37.8172 41.3797 37.4405 41.0395 37.4284 40.602C37.4041 40.0552 37.4041 39.5083 37.4284 38.9736C37.4527 38.4997 37.8416 38.1595 38.2547 38.1716C38.6922 38.1838 39.0081 38.524 39.0446 39.0101C39.0567 39.2653 39.0446 39.5205 39.0446 39.7757Z" fill="#464F5E"/>
<path d="M22.9194 29.3858C22.9194 29.6531 22.9315 29.9326 22.9194 30.2C22.8951 30.601 22.5305 30.9412 22.1417 30.9412C21.7528 30.9412 21.3761 30.6131 21.3639 30.2C21.3396 29.6288 21.3396 29.0456 21.3639 28.4744C21.3761 28.0248 21.692 27.7453 22.1295 27.7453C22.5913 27.7331 22.8951 28.0126 22.9315 28.4866C22.9315 28.5109 22.9315 28.5473 22.9315 28.5716C22.9315 28.839 22.9315 29.1185 22.9194 29.3858Z" fill="#464F5E"/>
<path d="M27.7557 29.3493C27.7557 29.641 27.7679 29.9205 27.7557 30.2121C27.7314 30.6131 27.3547 30.9412 26.9659 30.9412C26.577 30.9412 26.2125 30.601 26.1881 30.2C26.1638 29.6288 26.1638 29.0456 26.1881 28.4744C26.2003 28.0248 26.5163 27.7453 26.9537 27.7453C27.4155 27.7331 27.7193 28.0126 27.7557 28.4866C27.7679 28.7661 27.7557 29.0577 27.7557 29.3493Z" fill="#464F5E"/>
</g>
<defs>
<clipPath id="clip0_806_4168">
<rect width="48" height="48" fill="white" transform="translate(0.620605 1.18124)"/>
</clipPath>
</defs>
</svg>
