<svg width="49" height="49" viewBox="0 0 49 49" fill="none" xmlns="http://www.w3.org/2000/svg">
<rect x="0.540039" y="0.613525" width="48" height="48" rx="24" fill="#FEF6D0"/>
<g clip-path="url(#clip0_806_8207)">
<path d="M25.2552 8.00281C25.3752 8.00281 25.4951 8.00281 25.6151 8.00281C25.6751 8.0628 25.7351 8.0628 25.8551 8.00281C25.9151 8.00281 25.9751 8.00281 26.0951 8.00281C26.8749 8.0628 27.7148 8.12279 28.4947 8.30276C29.6945 8.60272 30.8943 8.96266 32.0342 9.44259C32.1541 9.50258 32.3341 9.56257 32.3941 9.74254C32.3941 9.80253 32.3941 9.86253 32.3341 9.86253C31.7942 10.3425 31.7342 10.9424 31.7942 11.6023C31.7942 13.342 31.7942 15.1417 31.7942 16.8815C31.7942 17.0614 31.7942 17.2414 31.7342 17.4214C31.6142 17.6613 31.4942 17.4814 31.3743 17.4214C31.0143 17.0614 30.6544 16.7015 30.2944 16.3415C29.7545 15.8016 29.2146 15.6816 28.4947 15.9816C27.5348 16.5815 27.4149 17.6014 28.1947 18.4412C29.7545 20.001 31.3143 21.6207 32.934 23.1205C33.354 23.5405 33.6539 24.0804 33.6539 24.6803C33.6539 26.1201 33.7139 27.6198 33.6539 29.0596C33.5939 29.1796 33.6539 29.3596 33.4139 29.2996C33.294 29.1796 33.354 28.9996 33.354 28.8796C33.354 28.2797 33.354 27.6798 33.354 27.0799C33.354 26.36 33.054 25.8201 32.3341 25.5801C31.7942 25.4002 31.2543 25.6401 30.8943 26.24C30.7144 26.3 30.7144 26.54 30.4744 26.42C30.3544 26.1201 30.4144 25.8201 30.4144 25.5202C30.4744 24.8003 30.1144 24.3803 29.5145 24.0804C28.6747 23.8404 27.8948 24.4403 27.8348 25.3402C27.8348 25.6401 27.8948 25.8801 27.7748 26.1801C27.5948 26.3 27.5348 26.1201 27.5348 26.0001C27.3549 25.5801 26.9949 25.3402 26.575 25.2802C26.455 25.2202 26.335 25.2202 26.275 25.1002C26.215 24.9802 26.275 24.8003 26.335 24.6803C26.515 24.0804 26.575 23.4205 26.575 22.7606C26.575 20.9608 26.575 19.1611 26.575 17.3614C26.575 16.8215 26.395 16.4015 25.9151 16.1616C25.4352 15.9816 25.0152 16.1016 24.7153 16.4615C24.6553 16.5215 24.5953 16.7015 24.4153 16.6415C24.2953 16.5815 24.2953 16.4015 24.2953 16.2816C24.2953 15.6217 24.2953 15.0217 24.2953 14.3618C24.2953 14.3019 24.2953 14.2419 24.2953 14.1819C24.2353 13.522 23.8754 13.102 23.2155 12.9821C22.6756 12.8621 22.1357 13.162 21.8357 13.642C21.7757 13.7619 21.7757 13.9419 21.5957 13.8819C21.4758 13.582 21.5357 13.282 21.5357 12.9221C21.5357 12.2022 21.2358 11.7822 20.5759 11.5423C19.616 11.4223 18.8961 12.0222 18.8362 13.042C18.8362 13.222 18.8961 13.522 18.7162 13.642C18.6562 13.642 18.5962 13.582 18.5962 13.522C18.3562 13.102 18.0563 12.8621 17.6363 12.8021C16.7365 12.7421 16.1366 13.282 16.1366 14.1819C16.1366 16.1016 16.1366 18.0213 16.1366 19.941C16.1366 20.121 16.1366 20.3009 16.0766 20.4809C15.9566 20.7209 15.8366 20.5409 15.7166 20.4209C15.3567 20.061 14.9367 19.701 14.5768 19.2811C14.0969 18.7412 13.497 18.6212 12.8371 18.9212C11.8772 19.4611 11.6972 20.5409 12.4171 21.3208C12.7771 21.7407 13.197 22.1007 13.557 22.5206C13.6769 22.6406 13.8569 22.7606 13.7369 23.0005C13.377 23.4205 13.257 23.8404 13.317 24.3803C13.317 24.5603 13.317 24.6803 13.257 24.8603C13.077 24.9802 13.017 24.8003 13.017 24.6803C12.8371 24.3203 12.5371 24.0804 12.1772 24.0204C11.2773 23.8404 10.5574 24.4403 10.5574 25.4002C10.5574 26.42 10.5574 27.4999 10.5574 28.5197C10.5574 29.4196 10.5574 30.3194 10.5574 31.2193C10.5574 31.3993 10.5574 31.5792 10.4974 31.6992C10.3174 31.9392 10.2575 31.7592 10.1375 31.6392C9.77753 31.3393 9.41758 30.9793 9.11763 30.6194C8.57771 30.0795 7.9778 29.8995 7.3179 30.2594C7.13793 30.2594 7.07794 30.4994 6.89796 30.3794C6.658 29.7795 6.59801 29.1196 6.53802 28.5197C6.53802 28.2797 6.53802 28.0398 6.47803 27.7998C6.47803 27.4999 6.47803 27.2599 6.47803 26.9599C6.53802 26.78 6.53802 26.6 6.47803 26.48C6.47803 26.24 6.47803 26.0001 6.47803 25.7601C6.53802 25.6401 6.53802 25.4602 6.47803 25.3402C6.47803 25.1002 6.47803 24.9202 6.47803 24.6803C6.53802 23.9004 6.59801 23.1805 6.77798 22.4006C7.43788 19.4611 8.69769 16.8215 10.6174 14.5418C12.2372 12.6221 14.1569 11.1223 16.3765 9.98251C18.1763 9.08264 20.096 8.42274 22.1357 8.18278C22.4956 8.12279 22.7956 8.18278 23.1555 8.12279C23.2755 8.12279 23.3355 8.12279 23.4555 8.12279C23.5154 8.18278 23.5754 8.18278 23.5754 8.12279C23.6954 8.12279 23.8154 8.12279 23.9354 8.12279C24.1154 8.18278 24.2953 8.18278 24.4153 8.12279C24.5353 8.12279 24.7153 8.12279 24.8352 8.12279C24.9552 8.0628 25.0752 8.0628 25.2552 8.00281Z" fill="#634085"/>
<path d="M42.1127 21.5607C42.4127 22.5806 42.5326 23.5404 42.6526 24.5603C42.6526 24.6203 42.6526 24.6803 42.7126 24.7402C42.7126 24.8002 42.7126 24.8602 42.7126 24.9802C42.6526 25.0402 42.6526 25.1002 42.7126 25.2202C42.7126 25.3402 42.7126 25.5201 42.7126 25.6401C42.6526 25.7601 42.6526 25.9401 42.7126 26.06C42.7126 26.18 42.7126 26.3 42.7126 26.42C42.6526 26.54 42.6526 26.7199 42.7126 26.8399C42.7126 26.9599 42.7126 27.0199 42.7126 27.1399C42.6526 27.1999 42.7126 27.2599 42.6526 27.3199C42.6526 27.3798 42.6526 27.4398 42.7126 27.4998C42.7126 27.6198 42.7126 27.6798 42.7126 27.7998C42.5326 28.1597 42.5926 28.5197 42.5326 28.9396C42.2327 30.7393 41.7528 32.4791 40.9129 34.1588C40.7329 34.0988 40.7329 33.9189 40.7329 33.7389C40.7329 30.7393 40.7329 27.7998 40.7329 24.8002C40.7329 24.2603 40.9129 23.7204 41.1528 23.1805C41.3928 22.7605 41.6928 22.3406 41.8127 21.8607C41.9327 21.6807 41.9927 21.5607 42.1127 21.5607Z" fill="#634085"/>
<path d="M14.1567 41.1178C13.4968 40.6379 12.8369 40.2179 12.297 39.618C12.177 39.4381 12.237 39.2581 12.237 39.0781C12.237 38.4782 12.057 37.9383 11.5771 37.5183C10.5573 36.5585 9.59742 35.5386 8.63756 34.5788C8.45759 34.3988 8.33761 34.2188 8.15764 34.0389C7.91767 33.6189 7.55773 33.379 7.25777 33.019C6.89783 32.6591 6.59787 32.3591 6.35791 31.8792C6.35791 31.6392 6.35791 31.3393 6.35791 31.0993C6.47789 30.7994 6.47789 30.4394 6.89783 30.3194C7.01781 30.2594 7.0778 30.1395 7.25777 30.1395C7.37776 30.2594 7.31776 30.3794 7.31776 30.4994C7.25777 31.0393 7.37776 31.4593 7.79769 31.8792C9.77739 33.7989 11.6971 35.7786 13.6768 37.6983C14.2167 38.2382 14.4567 38.7782 14.4567 39.558C14.4567 39.978 14.4567 40.3979 14.4567 40.8178C14.3367 40.8778 14.3967 41.0578 14.1567 41.1178Z" fill="#F8A48D"/>
<path d="M24.3555 8.00281C24.1755 8.12281 23.9955 8.12281 23.8755 8.00281C23.9955 8.00281 24.1755 8.00281 24.3555 8.00281Z" fill="#705190"/>
<path d="M25.2554 8.00281C25.0754 8.12281 24.8954 8.12281 24.7754 8.00281C24.9554 8.00281 25.0754 8.00281 25.2554 8.00281Z" fill="#6E4E8F"/>
<path d="M42.7126 26.0601C42.5926 25.9401 42.5926 25.7601 42.7126 25.6401C42.7126 25.7601 42.7126 25.8801 42.7126 26.0601Z" fill="#6D4D8D"/>
<path d="M42.7126 26.84C42.5926 26.72 42.5926 26.54 42.7126 26.42C42.7126 26.54 42.7126 26.66 42.7126 26.84Z" fill="#705090"/>
<path d="M42.6528 27.3199C42.6528 27.2599 42.6528 27.1399 42.7128 27.0799C42.7128 27.1999 42.7128 27.2599 42.6528 27.3199C42.7128 27.3199 42.7128 27.3199 42.6528 27.3199Z" fill="#A490B9"/>
<path d="M42.7126 25.1602C42.5926 25.1002 42.5926 25.0402 42.7126 24.9202C42.7126 25.0402 42.7126 25.1002 42.7126 25.1602Z" fill="#AF9DC0"/>
<path d="M25.8552 8.00281C25.7952 8.12281 25.7352 8.06281 25.6152 8.00281C25.6752 8.00281 25.7352 8.00281 25.8552 8.00281Z" fill="#B6A6C6"/>
<path d="M23.4554 8.00281C23.3954 8.06281 23.3354 8.06281 23.3354 8.00281C23.3954 8.00281 23.4554 8.00281 23.4554 8.00281Z" fill="#B09FC2"/>
<path d="M42.6528 27.3199C42.7128 27.3799 42.7128 27.4399 42.7128 27.4399C42.6528 27.4399 42.6528 27.3799 42.6528 27.3199Z" fill="#BEAFCC"/>
<path d="M42.1127 21.5607C41.8127 22.5806 41.0329 23.3605 40.9129 24.3803C40.9129 24.5003 40.8529 24.6203 40.8529 24.7403C40.8529 27.7398 40.8529 30.7393 40.8529 33.7389C40.8529 33.8589 40.8529 33.9789 40.9129 34.0388C40.073 35.7786 38.9932 37.3383 37.6734 38.7181C36.9535 39.438 36.2336 40.1579 35.3937 40.6978C35.2737 40.5179 35.2737 40.3379 35.2737 40.1579C35.2737 39.2581 35.2737 38.2982 35.2737 37.3983C35.7537 34.8787 35.3937 32.3591 35.5137 29.7795C35.5137 29.4795 35.4537 29.2396 35.3337 28.9396C35.3337 27.6798 35.3337 26.42 35.3337 25.1602C35.3337 24.5003 35.1537 23.9604 34.6738 23.5404C32.6941 21.5607 30.7744 19.641 28.7947 17.6613C28.4348 17.3014 28.1948 16.8215 28.2548 16.2815C28.2548 16.1016 28.3148 15.9216 28.4348 15.7416C29.1547 15.4417 29.8146 15.5616 30.3545 16.1616C30.7744 16.5815 31.1943 17.0014 31.6143 17.4214C31.9742 17.7213 32.3942 17.7213 32.8141 17.7213C33.174 17.7213 33.534 17.6613 33.8939 17.7813C34.9138 18.0213 35.5737 18.6212 35.9336 19.581C35.9936 19.821 36.1736 20.001 36.4735 19.941C36.7735 19.881 36.8335 19.701 36.8335 19.4011C36.8335 18.9211 36.8335 18.4412 36.8335 17.9613C36.8335 17.5413 36.8935 17.4814 37.3134 17.4814C37.6734 17.4814 38.0333 17.4814 38.4532 17.4214C38.9932 17.3014 39.4131 17.0614 39.7131 16.5815C39.773 16.4615 39.833 16.3415 40.013 16.2815C40.193 16.3415 40.133 16.5215 40.193 16.7015C40.193 16.8215 40.193 16.9414 40.253 17.1214C40.4929 17.0014 40.4929 16.8215 40.4929 16.5815C40.4929 15.8016 40.4929 15.0817 40.4929 14.3018C40.4929 14.1219 40.4929 13.8819 40.5529 13.7019C40.6729 13.282 40.9129 12.922 41.3928 12.8021C42.0527 12.982 42.4126 13.342 42.4126 14.0019C42.4126 15.9816 42.4126 17.9613 42.4126 19.941C42.2927 20.6009 42.1727 21.0808 42.1127 21.5607Z" fill="#B36E59"/>
<path d="M14.157 41.1178L14.217 41.0578C14.217 40.3379 14.277 39.618 14.157 38.8981C14.0971 38.5382 13.9171 38.1782 13.6171 37.9383C11.6974 36.0185 9.77771 34.0988 7.858 32.1791C7.25809 31.5792 7.01813 30.9793 7.1981 30.1994C7.858 29.8395 8.45791 29.9595 8.99783 30.4994C9.47776 30.9193 9.89769 31.3992 10.3776 31.8792C10.7376 32.1791 11.1575 32.1791 11.5774 32.1791C11.9974 32.1791 12.4173 32.1791 12.8372 32.2991C13.0172 32.3591 13.1372 32.3591 13.2572 32.4791C13.3172 32.5991 13.3172 32.779 13.3172 32.899C13.3172 33.3789 13.3172 33.8589 13.3172 34.3388C13.3172 34.4588 13.3172 34.6388 13.3772 34.7587C13.4372 34.9387 13.6171 35.0587 13.7971 35.0587C14.0371 35.0587 14.157 34.8787 14.157 34.6987C14.157 34.5188 14.157 34.2788 14.157 34.0388C14.157 33.8589 14.157 33.6789 14.217 33.4989C14.337 33.319 14.397 33.4389 14.457 33.4989C14.577 33.6189 14.577 33.7989 14.697 33.9189C14.757 34.0388 14.8169 34.0988 14.9369 34.0988C15.0569 34.0388 14.9969 33.9189 14.9969 33.7989C14.8769 33.4389 14.697 33.139 14.457 32.899C14.397 32.779 14.277 32.719 14.217 32.5391C14.157 32.2391 14.337 32.1191 14.637 32.1191C15.4169 32.1191 16.1967 32.1191 16.9166 32.1191C17.2766 32.1191 17.3366 32.2391 17.3366 32.5991C17.3366 33.199 17.3366 33.7989 17.3366 34.3988C17.3366 34.8187 17.5165 35.0587 17.7565 35.0587C18.0565 35.0587 18.1764 34.8187 18.1764 34.3988C18.1764 32.6591 18.1764 30.8593 18.1764 29.1196C18.1764 28.6997 18.0565 28.4597 17.7565 28.4597C17.4565 28.4597 17.3366 28.6997 17.3366 29.1196C17.3366 29.6595 17.3366 30.1994 17.3366 30.7393C17.3366 31.1593 17.2166 31.2793 16.7966 31.2793C16.0768 31.2793 15.3569 31.2793 14.637 31.2793C14.217 31.2793 14.157 31.1593 14.0971 30.7393C14.0971 30.2594 14.0971 29.7795 14.0971 29.2996C14.0971 28.9396 14.0371 28.5797 13.7371 28.3397C13.6771 28.2197 13.6771 28.0398 13.6771 27.9198C13.6771 26.7199 13.6771 25.5801 13.6771 24.3803C13.6771 23.6604 13.9771 23.0605 14.697 22.7605C14.757 22.7605 14.8769 22.7006 14.9369 22.7605C15.4768 22.9405 15.8368 23.3005 15.9568 23.8404C15.9568 23.9004 15.9568 24.0204 15.9568 24.0804C15.9568 25.9401 15.9568 27.7998 15.9568 29.6595C15.9568 29.7195 15.9568 29.7795 15.9568 29.7795C15.9568 29.8995 15.8968 30.1394 16.0768 30.1394C16.2567 30.1394 16.3167 30.0195 16.3767 29.8395C16.4367 29.6595 16.4367 29.4795 16.4367 29.2996C16.4367 28.0997 16.4367 26.8999 16.4367 25.7001C16.4367 24.9202 16.7367 24.4403 17.5165 24.1403C18.1764 24.2003 18.7164 24.7402 18.7763 25.4601C18.7763 25.8201 18.7763 26.18 18.7763 26.54C18.7763 27.0199 18.7763 27.4998 18.7763 27.9798C18.7763 28.9996 18.7763 29.9595 18.7763 30.9793C18.7763 31.0993 18.7763 31.1593 18.7763 31.2793C18.7763 31.3392 18.7763 31.4592 18.8363 31.4592C18.8963 31.4592 18.9563 31.3992 18.9563 31.3393C19.0163 31.2193 19.0163 31.0393 19.0163 30.9193C19.0163 30.1994 19.0163 29.4795 19.0163 28.8196C19.0163 28.3997 19.0763 28.0397 19.3163 27.6798C19.4962 27.4998 19.6762 27.3199 19.9162 27.2599C20.5761 27.3199 20.936 27.7998 20.996 28.4597C20.996 29.4195 20.996 30.3794 20.996 31.2793C20.996 31.3992 20.996 31.5192 20.996 31.6392C21.176 31.6392 21.236 31.4592 21.4159 31.5192C21.5959 31.5792 21.5359 31.6992 21.4759 31.8192C21.356 32.4791 21.6559 33.019 22.0758 33.4389C23.9956 35.3586 25.9153 37.2784 27.835 39.1381C28.3749 39.678 28.6149 40.2179 28.5549 40.9378C28.5549 41.7777 28.5549 42.6175 28.5549 43.4574C28.5549 43.6374 28.5549 43.7574 28.4349 43.8774C27.835 44.0573 27.1751 44.1773 26.5152 44.2373C26.3952 44.1173 26.4552 43.9373 26.4552 43.7574C26.4552 42.6775 26.4552 41.6577 26.4552 40.5779C26.4552 39.918 26.2752 39.318 25.7353 38.8381C25.4953 38.5982 25.1954 38.3582 25.0154 38.0582C23.6956 36.7384 22.3158 35.4186 20.996 33.9789V33.9189C20.996 34.3388 20.996 34.7587 20.936 35.2387C20.816 36.0185 20.5161 36.7384 20.0961 37.3983C19.7362 37.9982 19.5562 38.6581 19.5562 39.378C19.5562 40.6978 19.5562 41.9576 19.5562 43.2774C19.5562 43.4574 19.5562 43.6374 19.4962 43.7574C18.8963 43.6374 18.2964 43.4574 17.7565 43.2175C16.6767 42.5576 15.3569 41.9576 14.157 41.1178Z" fill="#FECABD"/>
<path d="M28.7346 43.8774C28.7346 42.7975 28.7346 41.7177 28.7346 40.6379C28.7346 40.098 28.5546 39.678 28.1947 39.2581C26.275 37.3384 24.2953 35.3587 22.3756 33.439C21.7756 32.8391 21.4757 32.2391 21.7157 31.3993C22.0756 31.0393 22.4955 31.1593 22.9155 31.2193C23.2154 31.2793 23.3954 31.3993 23.6354 31.6392C24.1153 32.0592 24.5352 32.5391 24.9552 33.019C25.1951 33.319 25.5551 33.439 25.975 33.379C26.215 33.379 26.5149 33.379 26.8149 33.379C27.6548 33.379 28.3746 33.7389 28.9146 34.3988C29.0945 34.6388 29.0945 34.9387 29.2145 35.1787C29.3345 35.3587 29.4545 35.4787 29.6944 35.4787C30.3543 35.5386 30.9543 35.5386 31.6142 35.4787C31.8541 35.4187 32.0941 35.3587 32.0341 35.0587C32.0341 34.8188 31.7941 34.6388 31.4942 34.6988C31.1942 34.6988 30.9543 34.6988 30.6543 34.6988C30.1144 34.6988 30.0544 34.6388 30.0544 34.0989C30.0544 32.7791 30.0544 31.3993 30.0544 30.0795C30.0544 29.8395 30.0544 29.6595 30.0544 29.4196C30.0544 29.1796 29.9344 28.9996 29.6944 28.9396C29.4545 28.8797 29.2745 28.9996 29.1545 29.2396C29.0945 29.3596 29.0945 29.5396 29.0945 29.7195C29.0945 30.9793 29.0945 32.1792 29.0945 33.439C29.0945 33.5589 29.0945 33.6189 29.0945 33.7389C29.0945 33.8589 29.0945 33.9789 28.9746 34.0389C28.8546 34.0989 28.7946 34.0389 28.6746 33.9189C28.0147 33.319 27.2348 33.199 26.3949 33.139C26.275 33.139 26.215 33.139 26.095 33.139C25.6151 33.139 25.5551 33.079 25.5551 32.5991C25.5551 31.2193 25.5551 29.7795 25.5551 28.3997C25.5551 27.7998 25.5551 27.1999 25.5551 26.6C25.5551 25.8801 26.035 25.3402 26.6949 25.3402C27.2948 25.4002 27.5348 25.8801 27.7747 26.3C27.9547 26.54 27.8947 26.84 27.8947 27.0799C27.8947 28.3997 27.8947 29.7195 27.8947 31.0393C27.8947 31.1593 27.8347 31.3993 28.0147 31.3993C28.1947 31.3993 28.2547 31.2193 28.3147 31.0393C28.3746 30.8594 28.3147 30.7394 28.3147 30.5594C28.3147 28.9396 28.3147 27.3199 28.3147 25.7001C28.3147 25.2802 28.3746 24.8603 28.6146 24.5003C28.8546 24.2004 29.0945 23.9604 29.5145 24.0804C30.1144 24.2604 30.4743 24.6803 30.5343 25.2802C30.5343 25.7001 30.5343 26.0601 30.5343 26.48C30.6543 26.66 30.6543 26.84 30.6543 27.0199C30.6543 28.2797 30.6543 29.4796 30.6543 30.7394C30.6543 30.8594 30.6543 30.9793 30.6543 31.0393C30.6543 31.1593 30.5943 31.3993 30.7743 31.3993C30.9543 31.3993 31.0142 31.2193 31.0742 31.0393C31.1342 30.8594 31.1342 30.6794 31.1342 30.4994C31.1342 29.2996 31.1342 28.0998 31.1342 26.9C31.1342 26.54 31.1942 26.1801 31.4942 25.8201C31.6741 25.5802 31.9141 25.4002 32.2741 25.4002C32.9939 25.5802 33.4139 26.0601 33.4139 26.78C33.4139 27.6198 33.4139 28.3997 33.4139 29.2396C33.5339 29.3596 33.5339 29.5396 33.5339 29.7195C33.5339 30.5594 33.5339 31.3993 33.5339 32.2391C33.5339 32.3591 33.5339 32.4191 33.5339 32.5391C33.5339 32.5991 33.5339 32.6591 33.5939 32.6591C33.6538 32.6591 33.6538 32.6591 33.7138 32.5991C33.7738 32.4791 33.7738 32.2991 33.7738 32.1792C33.7738 31.4593 33.7738 30.7394 33.7738 30.0795C33.7738 29.7795 33.7738 29.5396 33.8938 29.2396C34.0738 28.8197 34.3137 28.5197 34.7937 28.5197C35.0336 28.5197 35.2736 28.6397 35.3936 28.8797C35.5736 29.1796 35.6935 29.4796 35.6935 29.8395C35.6935 31.6392 35.6935 33.499 35.6935 35.2987C35.6935 36.0186 35.6335 36.7385 35.3936 37.3984C35.3936 37.7583 35.2136 38.1183 35.0336 38.3582C34.4937 39.1381 34.3137 40.038 34.3137 40.9378C34.3137 41.1178 34.3737 41.3578 34.2538 41.5377C34.1938 41.5977 34.0738 41.7177 33.9538 41.7777C32.334 42.6776 30.6543 43.3975 28.8546 43.8174C28.7946 43.8774 28.7946 43.8774 28.7346 43.8774Z" fill="#FEDCCD"/>
<path d="M24.8353 33.079C24.3554 32.5991 23.9355 32.1192 23.4555 31.6992C22.9156 31.2193 22.3157 31.1593 21.7158 31.4593C21.4758 31.5193 21.3559 31.6992 21.1759 31.8192C21.0559 31.7592 21.1159 31.6392 21.1159 31.5793C21.1159 30.4994 21.1159 29.4196 21.1159 28.3997C21.1159 27.7998 20.756 27.3799 20.216 27.3199C20.0361 27.2599 19.7961 27.4399 19.6161 27.3799C19.3162 27.1399 19.0762 26.84 18.8962 26.54C18.8962 26.3001 18.8962 26.0601 18.8962 25.8201C18.8962 24.9203 18.6563 24.5003 17.7564 24.2004C17.4565 24.3204 17.1565 24.3204 16.8565 24.3804C16.4966 24.3204 16.3166 23.9604 16.0767 23.7804C15.8967 23.3005 15.5967 23.0006 15.1768 22.7606C14.9368 22.6406 14.7569 22.4606 14.5769 22.2807C14.097 21.8007 13.557 21.2608 13.0771 20.7809C12.5972 20.301 12.5372 19.5211 12.8372 19.0412C13.4971 18.7412 14.097 18.8612 14.6369 19.3411C15.1168 19.821 15.5367 20.241 16.0167 20.7209C16.3766 21.0209 16.7966 21.0209 17.2765 21.0209C17.7564 21.0209 18.1763 20.9609 18.5963 21.0809C19.1362 21.2608 19.5561 21.5008 19.9161 21.9207C20.0361 22.2207 20.0961 22.4606 19.9761 22.7606C19.8561 23.1205 19.8561 23.1205 20.216 23.1205C21.0559 23.1805 21.9558 23.1205 22.7956 23.1205C23.0956 23.1205 23.2756 22.9406 23.2756 22.7606C23.2756 22.5206 23.0956 22.3407 22.7956 22.3407C22.3757 22.2807 21.8958 22.3407 21.4758 22.3407C21.0559 22.3407 20.9959 22.2807 20.9359 21.8607C20.9359 21.5008 20.9359 21.1408 20.9359 20.7809C20.9359 20.4809 21.0559 20.361 21.3559 20.361C21.7158 20.361 22.0158 20.361 22.3757 20.361C22.4357 20.361 22.4957 20.361 22.5557 20.361C22.9156 20.361 23.1556 20.181 23.1556 19.941C23.1556 19.7011 22.9156 19.5211 22.5557 19.5211C22.1957 19.5211 21.7758 19.5211 21.4159 19.5211C21.1159 19.5211 20.9959 19.4011 20.9959 19.1011C20.9959 18.6812 20.9959 18.3213 20.9959 17.9013C20.9959 17.6014 21.1159 17.4814 21.4159 17.4814C21.8358 17.4814 22.1957 17.4814 22.6157 17.4814C22.7357 17.4814 22.8556 17.4814 22.9756 17.4814C23.1556 17.4214 23.3356 17.3014 23.3356 17.1214C23.3356 16.8815 23.2156 16.7615 23.0356 16.7015C22.8556 16.6415 22.6157 16.7015 22.4357 16.5815C22.3157 15.6817 22.2557 14.8418 22.4357 14.0019C22.5557 13.582 22.8556 13.282 23.3356 13.162C24.0555 13.282 24.4154 13.702 24.4754 14.3619C24.5354 15.0218 24.4154 15.6817 24.5354 16.2816C24.7154 17.5414 24.6554 18.8612 24.6554 20.121C24.6554 20.181 24.6554 20.361 24.7753 20.361C24.8953 20.361 24.8953 20.241 24.9553 20.181C24.9553 20.061 24.9553 19.941 24.9553 19.821C24.9553 19.1011 24.9553 18.3813 24.9553 17.6014C24.9553 17.2414 25.0153 16.9415 25.1953 16.6415C25.3753 16.3416 25.6752 16.1616 26.0352 16.2816C26.5151 16.4615 26.815 16.8215 26.815 17.3614C26.815 19.4611 26.815 21.5608 26.815 23.6005C26.815 24.2004 26.6351 24.8003 26.4551 25.3402C26.3951 25.4002 26.2751 25.4602 26.1551 25.4602C25.4952 25.7002 25.1353 26.1201 25.1353 26.84C25.1353 27.6799 25.1353 28.4597 25.1353 29.2996C25.1353 30.4394 25.1353 31.5793 25.1353 32.7191C25.0153 32.7791 25.0753 32.959 24.8353 33.079Z" fill="#E1B786"/>
<path d="M20.0361 23.1205C19.9161 23.1805 19.7962 23.1805 19.6762 23.0605C19.5562 22.9405 19.6162 22.8206 19.7362 22.7006C19.9161 22.4606 19.8561 22.1607 19.7362 21.9207C19.7962 21.3808 19.4962 21.0808 19.0163 20.8409C18.5363 20.6009 17.9964 20.6009 17.5165 20.6009C16.5566 20.6009 16.5566 20.6009 16.5566 19.641C16.5566 17.9613 16.5566 16.3415 16.5566 14.6618C16.5566 14.3018 16.6166 14.0019 16.6766 13.7019C16.7966 13.162 17.2765 12.8021 17.7565 12.8021C18.2364 12.9221 18.5963 13.162 18.7763 13.7019C19.0163 13.9419 19.0163 14.2419 19.0163 14.5418C19.0163 15.8616 19.0163 17.1814 19.0163 18.4412C19.0163 18.5612 18.8963 18.8012 19.1363 18.8612C19.3162 18.8612 19.3762 18.6212 19.4362 18.4412C19.4362 18.2612 19.4362 18.0813 19.4362 17.9613C19.4362 16.3415 19.4362 14.6618 19.4362 13.042C19.4362 12.5021 19.6162 12.0822 20.0361 11.7222C20.2161 11.6023 20.3961 11.4823 20.636 11.5423C21.2359 11.6622 21.6559 12.2022 21.7159 12.8021C21.7159 13.162 21.7159 13.582 21.7159 13.9419L21.7759 14.0019C21.8358 14.7818 21.8958 15.5617 21.7759 16.3415C21.6559 16.4615 21.4759 16.4615 21.3559 16.4615C21.1759 16.4615 20.936 16.4615 20.696 16.4615C20.2761 16.4615 20.1561 16.6415 20.1561 17.0614C20.1561 17.7213 20.1561 18.3212 20.1561 18.9811C20.1561 19.881 20.1561 20.7809 20.1561 21.6807C19.9761 22.1607 19.9761 22.6406 20.0361 23.1205Z" fill="#E1B786"/>
<path d="M35.3339 28.8797C35.1539 28.7597 35.034 28.6397 34.854 28.5797C34.4341 28.5197 34.0741 28.5797 33.7742 28.8797C33.7142 28.9397 33.6542 29.0596 33.5342 29.0596C33.5342 27.7398 33.5342 26.42 33.5342 25.1002C33.5342 24.2604 33.2942 23.6605 32.6943 23.0605C31.1346 21.5608 29.6348 20.001 28.075 18.5012C27.2351 17.7214 27.4151 16.3416 28.435 15.8616C28.255 16.6415 28.435 17.3014 29.0349 17.8413C31.0146 19.761 32.9343 21.6808 34.854 23.6005C35.2739 24.0204 35.4539 24.5003 35.4539 25.1002C35.4539 26.2401 35.4539 27.3799 35.4539 28.5197C35.3939 28.6397 35.4539 28.7597 35.3339 28.8797Z" fill="#A45E4D"/>
<path d="M12.2373 23.9604C12.7773 24.0803 12.9572 24.5003 13.1972 24.8602C13.3172 25.1002 13.3172 25.3402 13.3172 25.5801C13.3172 26.6 13.3172 27.5598 13.3172 28.5797C13.3172 29.4795 13.3172 30.3794 13.3172 31.3392C13.3172 31.5192 13.3172 31.6392 13.2572 31.7592C13.1972 31.8192 13.0772 31.8192 12.9572 31.8192C12.4773 31.6992 11.9974 31.7592 11.4575 31.6992C11.0375 31.6992 10.9775 31.6392 10.9775 31.2193C10.9775 29.1796 10.9775 27.1999 10.9775 25.1602C10.9775 24.6803 11.2175 24.2603 11.6374 24.0204C11.8174 23.9004 12.0574 23.9004 12.2373 23.9604Z" fill="#FECABD"/>
<path d="M24.8354 33.079C24.9554 32.959 24.8954 32.8391 24.8954 32.6591C24.8954 30.6794 24.8954 28.6397 24.8954 26.66C24.8954 25.8201 25.4953 25.2202 26.3352 25.2202C26.4552 25.2202 26.5752 25.2202 26.6352 25.2802C25.9153 25.5202 25.6153 26.0601 25.6153 26.84C25.6153 28.7597 25.6153 30.6794 25.6153 32.5991C25.6153 32.8991 25.6753 33.019 26.0353 33.019C26.8751 33.019 27.715 33.019 28.4949 33.559C28.6749 33.6789 28.7948 33.7989 28.9748 33.9189C29.0948 33.8589 29.0348 33.7389 29.0348 33.6189C29.0348 32.2392 29.0348 30.8594 29.0348 29.5396C29.0348 29.4196 28.9748 29.2996 29.0948 29.1796C29.2148 29.2996 29.2148 29.4796 29.2148 29.6595C29.2148 31.3993 29.2148 33.139 29.2148 34.8188C29.2148 34.9987 29.2148 35.1787 29.0948 35.2987C28.7349 34.1589 28.015 33.6189 26.7552 33.6189C26.5752 33.6189 26.3352 33.6189 26.0953 33.6189C25.5553 33.559 25.1354 33.439 24.8354 33.079Z" fill="#FECABD"/>
<path d="M35.8136 19.6411C35.4537 18.6812 34.7938 18.0813 33.8339 17.9013C33.354 17.8413 32.8141 17.8413 32.3341 17.9013C31.9742 17.9013 31.7942 17.8413 31.6143 17.5414C31.6143 15.5017 31.6143 13.522 31.6143 11.4823C31.6143 10.7624 31.7342 10.2225 32.3341 9.80255C32.6341 9.74256 32.9341 9.56259 33.234 9.68257C33.234 9.86254 33.114 9.86254 32.994 9.98253C32.5741 10.2225 32.3941 10.5824 32.3941 11.0624C32.3941 12.9821 32.3941 14.9618 32.3941 16.8815C32.3941 17.3014 32.4541 17.3014 32.8141 17.3014C33.174 17.3014 33.594 17.3014 33.9539 17.3614C34.5538 17.4814 35.0937 17.7813 35.5737 18.2013C35.6336 18.0213 35.6336 17.8413 35.6336 17.6614C35.6336 17.0615 35.6336 16.4615 35.6336 15.8616C35.6336 15.7417 35.5737 15.5017 35.8136 15.5617C35.8736 15.7417 35.8736 15.8616 35.8736 16.0416C35.8736 17.1214 35.8736 18.1413 35.8736 19.1611C35.9336 19.2811 35.9936 19.5211 35.8136 19.6411Z" fill="#A45E4D"/>
<path d="M17.6362 12.7421C16.9163 12.9821 16.5564 13.462 16.5564 14.3619C16.5564 16.2816 16.5564 18.2613 16.5564 20.181C16.5564 20.421 16.6764 20.5409 16.9163 20.5409C17.2763 20.5409 17.6362 20.5409 17.9962 20.5409C18.5961 20.5409 19.136 20.7809 19.6159 21.2008C19.8559 21.3808 19.7959 21.7408 19.6759 21.9807C19.196 21.3808 18.5361 21.0809 17.7562 21.0809C17.3963 21.0809 16.9763 21.0809 16.6164 21.0809C16.2564 21.0809 16.0765 20.9609 15.8965 20.7209C15.8965 18.5612 15.8965 16.4016 15.8965 14.1819C15.8965 13.342 16.6164 12.6821 17.4562 12.7421C17.5762 12.6821 17.6362 12.7421 17.6362 12.7421Z" fill="#E1A670"/>
<path d="M12.2372 23.9604C11.6373 24.0204 11.0973 24.5003 11.0973 25.1602C11.0973 27.1999 11.0973 29.2996 11.0973 31.3393C11.0973 31.5793 11.1573 31.6392 11.3973 31.6392C11.9972 31.6392 12.5971 31.6392 13.197 31.7592C13.317 31.9392 13.317 32.1192 13.197 32.2991C12.4771 31.9992 11.7572 32.0592 11.0973 32.1192C10.7374 32.1192 10.5574 31.9992 10.3774 31.7592C10.3774 29.5996 10.3774 27.4999 10.3774 25.3402C10.4374 24.3204 11.3373 23.6605 12.2372 23.9604Z" fill="#F8A48E"/>
<path d="M20.516 11.5423C19.7961 11.6622 19.4361 12.3221 19.4361 12.8621C19.4361 14.6618 19.4361 16.4015 19.4361 18.2013C19.4361 18.5012 19.4361 18.8012 19.0762 18.9211C18.8962 19.0411 18.7762 18.9811 18.7762 18.7412C18.7762 17.7213 18.7762 16.7015 18.7762 15.6816C18.7762 14.9617 18.8962 14.3018 18.6562 13.582C18.8362 13.462 18.7162 13.222 18.7162 12.982C18.7762 12.0222 19.4361 11.4223 20.336 11.4823C20.396 11.4823 20.456 11.5423 20.516 11.5423Z" fill="#E1A670"/>
<path d="M29.5144 24.0204C28.7946 24.0204 28.3746 24.7403 28.3746 25.4602C28.3746 27.2599 28.3746 28.9996 28.3746 30.7993C28.3746 31.0393 28.3146 31.2193 28.1347 31.3993C28.0147 31.4592 27.8947 31.5192 27.8347 31.5192C27.7147 31.4592 27.7747 31.3393 27.7747 31.2193C27.7747 29.7795 27.7747 28.3397 27.7747 26.8999C27.7747 26.66 27.7147 26.42 27.7747 26.18C27.7747 25.8201 27.7747 25.5201 27.7747 25.1602C27.7747 24.5603 28.5546 23.7204 29.5144 24.0204Z" fill="#FECABD"/>
<path d="M12.7772 18.9211C12.5972 19.701 12.7772 20.3609 13.4371 20.9608C14.037 21.5008 14.6369 22.0407 15.1768 22.7006C15.1168 22.7006 15.0568 22.7006 14.9369 22.7006C14.5169 22.7006 14.217 22.8805 13.797 23.0005C13.797 22.8206 13.6771 22.7606 13.5571 22.7006C13.1371 22.2806 12.7172 21.8607 12.3573 21.4408C11.5774 20.6609 11.8173 19.4011 12.7772 18.9211Z" fill="#E1A670"/>
<path d="M32.2143 25.4601C31.4345 25.7601 31.1945 26.3 31.1945 27.0799C31.2545 28.2797 31.1945 29.5395 31.1945 30.7393C31.1945 31.0393 31.1345 31.3393 30.8346 31.5192C30.5946 31.6392 30.4746 31.5792 30.4746 31.3393C30.4746 29.7195 30.4746 28.0997 30.4746 26.48C30.7146 26.0001 31.0145 25.5801 31.6144 25.4601C31.8544 25.4001 32.0344 25.3402 32.2143 25.4601Z" fill="#FECABD"/>
<path d="M13.7969 23.0005C14.1568 22.7606 14.4568 22.5206 14.9367 22.7006C14.2168 23.0605 13.9168 23.6005 13.9168 24.4403C13.9168 25.7001 13.9168 26.9 13.9168 28.1598C13.6769 28.2797 13.4969 28.4597 13.2569 28.5797C13.2569 27.5599 13.2569 26.54 13.2569 25.4602C13.2569 25.2802 13.137 25.0402 13.2569 24.8603C13.2569 24.5603 13.2569 24.2604 13.2569 23.9604C13.2569 23.6005 13.4369 23.2405 13.7969 23.0005Z" fill="#F8A48D"/>
<path d="M21.5957 16.4021C21.5957 15.6221 21.5957 14.7821 21.5957 14.0021C21.8357 13.4621 22.1957 13.1021 22.7357 12.9821C22.9157 12.9221 23.0357 12.9221 23.2157 12.9821C23.0957 13.1021 22.9157 13.1021 22.7957 13.2221C22.4957 13.4621 22.2557 13.8221 22.2557 14.2421C22.2557 14.9621 22.2557 15.6821 22.2557 16.4021C22.0157 16.5221 21.7757 16.5221 21.5957 16.4021Z" fill="#E1A670"/>
<path d="M25.9152 16.1016C25.3153 16.1016 24.9554 16.5815 24.8954 17.2414C24.8954 18.0813 24.8954 18.9812 24.8954 19.821C24.8954 20.001 24.8954 20.181 24.7754 20.301C24.7154 20.361 24.5954 20.4209 24.4755 20.4209C24.3555 20.361 24.4155 20.241 24.4155 20.181C24.4155 19.3411 24.4155 18.5012 24.4155 17.7214C24.3555 16.5815 24.3555 15.3817 24.3555 14.2419C24.4755 14.6618 24.4155 15.0218 24.4155 15.4417C24.4155 15.8616 24.4155 16.3416 24.4155 16.8215C24.7754 16.1616 25.2553 15.8616 25.9152 16.1016Z" fill="#E1A670"/>
<path d="M33.4738 28.9996C33.8938 28.4597 34.3137 28.3997 34.8536 28.5797C34.2537 28.5197 33.8938 29.0596 33.8338 29.8395C33.8338 30.6793 33.8338 31.4592 33.8338 32.2991C33.8338 32.4791 33.8338 32.659 33.6538 32.779C33.5938 32.839 33.5338 32.899 33.4139 32.839C33.2939 32.779 33.3539 32.719 33.3539 32.5991C33.3539 32.1791 33.3539 31.7592 33.3539 31.3392C33.3539 30.6194 33.3539 29.8995 33.3539 29.1796C33.4738 29.2396 33.4139 29.1196 33.4738 28.9996Z" fill="#FECABD"/>
<path d="M19.7363 43.6974C19.7363 42.1376 19.7363 40.5779 19.7363 39.0781C19.7363 38.5382 19.9163 37.9383 20.2163 37.4583C20.9361 36.3785 21.2961 35.1787 21.2361 33.7989C21.2961 33.9189 21.4161 33.9789 21.4761 34.0988C22.6759 35.2987 23.8757 36.4985 25.0755 37.6983C25.1955 37.8183 25.2555 37.8783 25.3755 37.9983C25.4355 38.5982 25.4355 39.2581 25.4355 39.858C25.4355 41.1778 25.4355 42.4976 25.4355 43.8174C25.4355 43.9973 25.4955 44.1773 25.3155 44.3573C23.5158 44.4173 21.776 44.2373 20.0363 43.8174C19.8563 43.7574 19.7963 43.7574 19.7363 43.6974Z" fill="#E1B786"/>
<path d="M25.2554 44.3573C25.2554 42.3176 25.2554 40.2779 25.2554 38.2383C25.2554 38.1783 25.2554 38.0583 25.3154 37.9983C25.6153 38.2982 25.9153 38.5982 26.2152 38.8982C26.6352 39.2581 26.8151 39.738 26.8151 40.3379C26.8151 41.6577 26.8151 42.9775 26.8151 44.2373C26.2752 44.2973 25.7953 44.2973 25.2554 44.3573Z" fill="#634086"/>
<path d="M8.15771 34.0389C8.33769 34.0389 8.39768 34.1589 8.45767 34.2788C9.47751 35.2987 10.4974 36.3185 11.5172 37.3384C12.1171 37.8783 12.3571 38.4782 12.2971 39.3181C12.2971 39.4381 12.2971 39.4981 12.2971 39.618C11.0373 38.5382 9.95744 37.2184 9.05758 35.7786C8.75762 35.2387 8.45767 34.6388 8.15771 34.0389Z" fill="#634086"/>
<path d="M34.1938 41.5378C34.1938 40.9978 34.1938 40.4579 34.2538 39.978C34.3138 39.4981 34.4338 39.0781 34.7338 38.7182C34.9737 38.2982 35.2137 37.8783 35.3937 37.4584C35.5136 37.5784 35.4537 37.6983 35.4537 37.8183C35.4537 38.7782 35.4537 39.798 35.4537 40.7579C35.0337 41.0578 34.6138 41.2978 34.1938 41.5378Z" fill="#A55E4D"/>
<path d="M35.8139 15.4417C35.6939 15.5616 35.7539 15.7416 35.7539 15.8616C35.7539 16.7015 35.7539 17.5413 35.7539 18.4412C35.5139 18.2612 35.3939 18.0813 35.154 17.9613C34.6141 17.6013 34.0741 17.4214 33.4142 17.3614C33.1143 17.3614 32.8743 17.3614 32.5744 17.3614C32.3344 17.3614 32.2744 17.3014 32.2744 17.0014C32.2744 14.9617 32.2744 12.8621 32.2744 10.8224C32.2744 10.4024 32.5144 10.0425 32.8743 9.80251C32.9943 9.74252 33.1143 9.74252 33.2343 9.62254C33.7142 9.68253 34.0142 9.9225 34.2541 10.3424C34.3141 10.4624 34.3741 10.5224 34.4341 10.5824C34.6141 10.7624 34.5541 10.9423 34.5541 11.1223C34.5541 12.4421 34.5541 13.7619 34.5541 15.0817C34.5541 15.2017 34.5541 15.2617 34.5541 15.3817C34.5541 15.5017 34.4941 15.6816 34.6741 15.7416C34.854 15.7416 34.914 15.5616 34.974 15.4417C35.034 15.2617 35.034 15.0817 35.034 14.9617C35.034 13.462 35.034 11.9622 35.034 10.4024C35.034 9.56255 35.154 8.84266 35.9339 8.36273C36.6538 8.36273 37.2537 8.96264 37.3137 9.68253C37.3137 10.1025 37.2537 10.5224 37.3736 10.8824C37.2537 10.9423 37.3137 11.0023 37.3137 11.0623C37.2537 11.7222 37.3137 12.4421 37.2537 13.102C37.2537 13.162 37.2537 13.222 37.1937 13.282C37.0137 13.462 36.8337 13.402 36.6538 13.402C36.0538 13.402 35.8739 13.5819 35.8739 14.1819C35.8739 14.4818 35.8739 14.7818 35.8739 15.0817C35.9339 15.2017 35.9339 15.3817 35.8139 15.4417Z" fill="#B36E59"/>
<path d="M38.8734 9.86255C39.5933 10.0425 40.0133 10.5224 40.0133 11.2423C40.0133 11.9622 40.0133 12.6221 40.0133 13.342C40.0133 13.462 39.9533 13.582 40.0732 13.702C40.1932 14.0019 40.1332 14.3019 40.0133 14.6018C39.8333 14.6618 39.7733 14.4818 39.7133 14.3619C39.3534 13.8219 38.8134 13.522 38.2135 13.462C38.0336 13.462 37.9136 13.402 37.8536 13.282C37.7936 12.5021 37.7936 11.7823 37.8536 11.0024C37.8536 10.3425 38.3335 9.92254 38.8734 9.86255Z" fill="#B36E59"/>
<path d="M35.8137 8.36273C35.8737 8.42272 35.9937 8.42272 35.8137 8.5427C35.2138 8.84266 35.0339 9.38258 35.0339 10.0425C35.0339 11.7822 35.0339 13.522 35.0339 15.2017C35.0339 15.5017 34.9739 15.6816 34.7339 15.8616C34.6739 15.9216 34.5539 15.9816 34.4939 15.9216C34.374 15.8616 34.4339 15.7416 34.4339 15.6816C34.4339 14.7818 34.4339 13.8219 34.4339 12.922C34.4339 12.1422 34.4339 11.3623 34.4339 10.6424C34.4339 10.2824 34.4339 9.98249 34.4339 9.62254C34.4939 9.02263 34.9739 8.5427 35.5738 8.48271C35.6338 8.42272 35.7537 8.42272 35.8137 8.36273Z" fill="#A45E4D"/>
<path d="M38.8732 9.86252C38.1532 10.1625 37.8532 10.6425 37.9132 11.4225C37.9132 12.0225 37.9132 12.6825 37.9132 13.2825C37.6732 13.4025 37.4332 13.4025 37.1932 13.2825C37.1932 12.5025 37.1332 11.7225 37.2532 10.9425C37.3132 10.2225 38.2132 9.62252 38.8732 9.86252Z" fill="#A55E4D"/>
<path d="M39.9531 14.5418C40.0731 14.2419 39.9531 13.9419 40.0731 13.642C40.2531 13.1021 40.673 12.8621 41.2729 12.9221C40.553 13.282 40.4331 13.9419 40.493 14.7218C40.493 15.3817 40.493 16.0416 40.493 16.7615C40.493 16.8815 40.493 17.0015 40.4331 17.1214C40.3731 17.3014 40.2531 17.3614 40.0731 17.3614C39.9531 17.3014 40.0131 17.1814 40.0131 17.0615C39.9531 16.8815 40.0731 16.6415 39.9531 16.4615C40.0731 15.7417 40.0731 15.1417 39.9531 14.5418Z" fill="#A45E4D"/>
<path d="M39.9529 14.5418C40.2528 15.1418 40.1928 15.8017 39.9529 16.4016C39.4729 17.3014 38.693 17.6614 37.6732 17.6614C36.8933 17.6614 36.8933 17.6614 36.8933 18.4413C36.8933 18.8012 36.8933 19.1611 36.8933 19.5211C36.8933 19.881 36.7133 20.121 36.3534 20.121C35.9935 20.121 35.8135 19.941 35.8135 19.6411C35.8135 18.2613 35.8135 16.8215 35.8135 15.4417C35.8135 14.9618 35.8135 14.4219 35.8135 13.9419C35.8135 13.462 35.9934 13.282 36.4734 13.222C36.7133 13.222 36.9533 13.222 37.1933 13.222C37.4332 13.222 37.6732 13.222 37.9132 13.222C38.2731 13.342 38.633 13.282 38.993 13.522C39.4129 13.762 39.7129 14.1219 39.9529 14.5418Z" fill="#634085"/>
<path d="M13.2568 28.5797C13.3768 28.3397 13.5568 28.0998 13.9167 28.1598C14.2767 28.2798 14.3367 28.5197 14.3367 28.8797C14.3367 29.4796 14.3367 30.0795 14.3367 30.6794C14.3367 30.9194 14.3967 31.0393 14.6366 31.0393C15.4165 31.0393 16.1964 31.0393 17.0363 31.0393C17.2162 31.0393 17.3362 30.9793 17.3362 30.7394C17.3362 30.1395 17.3362 29.4796 17.3362 28.8797C17.3362 28.4597 17.5162 28.2198 17.8761 28.2198C18.1761 28.2198 18.4161 28.4597 18.4161 28.8797C18.4161 30.7394 18.4161 32.5991 18.4161 34.4588C18.4161 34.8788 18.2361 35.1187 17.8761 35.1187C17.5762 35.1187 17.3362 34.8788 17.3362 34.4588C17.3362 33.7989 17.3362 33.139 17.3362 32.4191C17.3362 32.1192 17.2762 32.0592 16.9763 32.0592C16.2564 32.0592 15.4765 32.0592 14.7566 32.0592C14.3967 32.0592 14.2767 32.1792 14.3967 32.5391C14.5166 32.7791 14.5166 33.079 14.3967 33.319C14.3967 33.6789 14.3967 34.0989 14.3967 34.4588C14.3967 34.8188 14.2167 35.0587 13.9167 35.0587C13.6168 35.0587 13.3768 34.8188 13.3168 34.3988C13.3168 33.7989 13.3168 33.199 13.3168 32.5991C13.3168 32.4791 13.3168 32.4191 13.3168 32.2991C13.3168 32.1192 13.3168 31.9392 13.3168 31.7592C13.2568 30.7394 13.2568 29.6595 13.2568 28.5797Z" fill="#78CFB0"/>
<path d="M16.7365 24.2603C17.0364 24.1404 17.3964 24.0804 17.7563 24.1404C17.4564 24.3203 17.1564 24.4403 16.9765 24.7403C16.8565 24.9802 16.7365 25.2802 16.7365 25.5201C16.7365 26.8399 16.7365 28.1597 16.7365 29.4795C16.7365 29.7795 16.6765 30.0795 16.3765 30.1994C16.1366 30.3194 16.0166 30.2594 16.0166 30.0195C16.0166 28.9396 16.0166 27.8598 16.0166 26.78C16.0166 25.8201 16.0166 24.8602 16.0166 23.9004C16.3166 24.2003 16.1366 24.5003 16.1366 24.8003C16.2566 24.5603 16.4365 24.3203 16.7365 24.2603Z" fill="#F8A58E"/>
<path d="M19.556 27.2599C19.736 27.1999 19.9759 27.0799 20.2159 27.2599C19.676 27.4999 19.376 27.9198 19.376 28.6397C19.376 29.4196 19.376 30.2595 19.376 31.0393C19.376 31.1593 19.376 31.2793 19.316 31.3993C19.1961 31.5193 19.1361 31.6392 18.9561 31.6392C18.7761 31.6392 18.8961 31.3993 18.8961 31.2793C18.8961 30.1995 18.8961 29.0596 18.8961 27.9198C19.0161 27.6199 19.1361 27.2599 19.556 27.2599Z" fill="#F8A58E"/>
<path d="M14.3369 33.3191C14.3369 33.0791 14.3369 32.7791 14.3369 32.5391C14.6969 32.8391 14.9369 33.2591 15.1169 33.7391C15.1769 33.8591 15.1169 34.0391 14.9969 34.0991C14.8769 34.1591 14.6969 34.1591 14.6369 33.9791C14.5769 33.6791 14.5169 33.4991 14.3369 33.3191Z" fill="#F7A58E"/>
<path d="M19.5564 27.26C19.1964 27.38 19.0164 27.68 18.8364 27.98C18.8364 27.5 18.8364 27.02 18.8364 26.48C19.1364 26.66 19.3764 26.96 19.5564 27.26Z" fill="#E1A670"/>
<path d="M16.7366 24.2604C16.4966 24.4404 16.3166 24.6804 16.1366 24.9204C16.0166 24.5604 16.1966 24.2004 16.0166 23.9004C16.0166 23.8404 16.0166 23.7804 16.0166 23.7204C16.2566 23.7204 16.3166 23.9604 16.4366 24.0204C16.5566 24.0804 16.6166 24.2004 16.7366 24.2604Z" fill="#E3A874"/>
<path d="M29.0347 35.1787C29.0347 33.139 29.0347 31.0993 29.0347 29.0596C29.1546 28.7597 29.3946 28.6397 29.6946 28.6997C30.0545 28.7597 30.1145 29.0596 30.1145 29.3596C30.1145 30.9194 30.1145 32.4791 30.1145 34.0989C30.1145 34.3988 30.1745 34.5188 30.5344 34.5188C30.8344 34.5188 31.1343 34.5188 31.4343 34.4588C31.7942 34.4588 32.0942 34.6388 32.0942 34.9387C32.1542 35.2987 31.9742 35.4787 31.5543 35.5387C30.8944 35.5986 30.2945 35.5986 29.6346 35.5387C29.3346 35.5986 29.0947 35.4787 29.0347 35.1787Z" fill="#DC636E"/>
<path d="M21.5957 16.4016C21.8357 16.4016 22.0756 16.4016 22.3156 16.4016C22.4956 16.4016 22.6155 16.4016 22.7955 16.4016C23.1555 16.4016 23.3954 16.6415 23.3954 16.9415C23.3954 17.2414 23.1555 17.4814 22.7955 17.4814C22.2556 17.4814 21.7757 17.4814 21.2957 17.4814C21.1158 17.4814 20.9958 17.5414 20.9958 17.7813C20.9958 18.2013 20.9958 18.6812 20.9958 19.1011C20.9958 19.2811 21.0558 19.3411 21.2357 19.3411C21.7157 19.3411 22.1356 19.3411 22.6155 19.3411C22.9755 19.3411 23.1555 19.5211 23.2154 19.821C23.2154 20.121 23.0355 20.361 22.6755 20.4209C22.1956 20.4209 21.7757 20.4209 21.2957 20.4209C21.0558 20.4209 20.9958 20.4809 20.9958 20.7209C20.9958 21.1408 20.9958 21.5008 20.9958 21.9207C20.9958 22.1607 21.0558 22.2207 21.2957 22.2207C21.7757 22.2207 22.2556 22.2207 22.7355 22.2207C23.1555 22.2207 23.3954 22.4006 23.3954 22.7606C23.3954 23.1205 23.1555 23.3005 22.6755 23.3005C21.9556 23.3005 21.2357 23.3005 20.5159 23.3005C20.3359 23.3005 20.1559 23.3005 20.0359 23.2405C19.9159 23.0605 19.856 22.8806 19.856 22.7006C19.856 20.8409 19.856 19.0412 19.856 17.1814C19.856 16.7015 20.0359 16.5215 20.5758 16.5215C20.8758 16.4016 21.2357 16.4016 21.5957 16.4016Z" fill="#61A1F8"/>
<path d="M22.2556 18.0814C22.2556 18.3214 22.2556 18.6214 22.0756 18.8614C21.9556 18.9814 21.8356 19.1014 21.6556 19.0414C21.4756 18.9814 21.5956 18.8014 21.5356 18.6814C21.5356 18.3814 21.5356 18.0814 21.5356 17.7814C21.5356 17.4814 21.6556 17.4214 21.8956 17.4214C22.1356 17.4214 22.3156 17.4814 22.2556 17.7814C22.2556 17.9014 22.2556 18.0214 22.2556 18.0814Z" fill="#E1A770"/>
<path d="M38.0336 14.3618C38.6336 14.3618 39.0536 14.8418 39.1136 15.3818C39.1136 15.9818 38.6336 16.4618 37.9736 16.5818C36.8936 16.7018 36.8936 16.7018 36.8936 15.6218C36.8936 15.2018 36.8936 14.7818 36.8936 14.3618C37.1336 14.2418 37.2536 14.3618 37.2536 14.6018C37.2536 14.9018 37.2536 15.2618 37.2536 15.5618C37.2536 15.6218 37.2536 15.7418 37.3136 15.7418C37.3736 15.7418 37.4936 15.6818 37.4936 15.6218C37.6736 15.4418 37.6736 15.2618 37.6736 15.0818C37.6736 14.9018 37.6736 14.7218 37.6736 14.5418C37.8536 14.4818 37.8536 14.3018 38.0336 14.3618Z" fill="#B36D59"/>
<path d="M38.0336 14.3618C37.8536 14.3618 37.9136 14.5418 37.8536 14.6618C37.8536 14.8418 37.8536 15.0218 37.8536 15.2018C37.8536 15.4418 37.7936 15.6218 37.6136 15.8018C37.4936 15.9218 37.3736 15.9818 37.2536 15.9818C37.0736 15.9218 37.1936 15.7418 37.1936 15.6218C37.1936 15.3218 37.1936 14.9618 37.1936 14.6618C37.1936 14.4818 37.1336 14.3618 36.8936 14.3618C37.2536 14.3018 37.6736 14.3018 38.0336 14.3618Z" fill="#A45E4E"/>
</g>
<defs>
<clipPath id="clip0_806_8207">
<rect width="38.0342" height="37.1344" fill="white" transform="translate(5.51807 7.2229)"/>
</clipPath>
</defs>
</svg>
