<svg width="49" height="49" viewBox="0 0 49 49" fill="none" xmlns="http://www.w3.org/2000/svg">
<rect x="0.0800781" y="0.613525" width="48" height="48" rx="24" fill="#E3FBDA"/>
<g clip-path="url(#clip0_806_5859)">
<path d="M30.6783 11.2738C30.8583 11.3938 31.0982 11.3938 31.2782 11.5137C31.998 11.8737 32.3579 12.4735 32.3579 13.3133C32.3579 13.9731 32.3579 14.6929 32.3579 15.3528C32.2979 15.3528 32.2979 15.3528 32.2379 15.3528C28.2789 15.3528 24.2599 15.3528 20.3009 15.3528C16.8218 15.3528 13.3427 15.3528 9.80361 15.3528C9.68364 15.3528 9.50368 15.3528 9.32373 15.2328C9.32373 14.453 9.32373 13.6132 9.32373 12.8334C9.4437 12.1136 10.1035 11.3338 11.0033 11.2738C17.6016 11.2738 24.14 11.2738 30.6783 11.2738Z" fill="#CBCFD9"/>
<path d="M9.32373 15.2328C9.4437 15.2328 9.50368 15.2328 9.62365 15.2328C17.0618 15.2328 24.4999 15.2328 31.938 15.2328C32.058 15.2328 32.1779 15.1728 32.2979 15.2928C32.1179 15.4127 31.938 15.4127 31.758 15.4127C28.6988 15.4127 25.6396 15.4127 22.6403 15.4127C20.7808 15.4127 18.8613 15.4127 17.0018 15.4127C16.9418 15.4127 16.8218 15.4127 16.7618 15.4127C16.5219 15.4127 16.4019 15.4727 16.4619 15.7126C16.4619 15.8326 16.4619 15.8926 16.4619 16.0126C16.4619 19.7916 16.4619 23.5707 16.4619 27.2897C16.4619 27.4697 16.5219 27.6496 16.4019 27.8296C16.282 27.9495 16.162 27.8896 15.982 27.8896C13.8826 27.8896 11.8431 27.8896 9.74362 27.8896C9.62365 27.8896 9.4437 27.8896 9.32373 27.7696C9.32373 23.6306 9.32373 19.4317 9.32373 15.2328Z" fill="#4D87A8"/>
<path d="M9.32366 27.8296C11.6631 27.8296 14.0025 27.8296 16.3419 27.8296C16.4618 27.7097 16.5818 27.7696 16.7018 27.7696C19.941 27.7696 23.1801 27.7696 26.3593 27.7696C26.4793 27.7696 26.5993 27.7696 26.7192 27.8296C26.8392 27.8896 26.7792 28.0096 26.7192 28.0696C26.5993 28.1295 26.4793 28.1895 26.3593 28.2495C25.1596 28.8494 23.9 29.3892 22.7003 29.9291C22.2204 30.169 21.7405 30.409 21.2606 30.5889C21.1407 30.6489 20.9607 30.7089 20.8407 30.8289C20.3009 31.1288 20.3009 31.7286 20.7807 32.0885C21.5605 32.5684 22.3403 33.1083 23.1202 33.5882C23.4201 33.7681 23.72 34.008 24.0799 34.188C24.1399 34.248 24.2599 34.308 24.2599 34.4279C22.7602 34.4279 21.3206 34.4279 19.821 34.4279C17.0617 34.4279 14.2424 34.4279 11.4831 34.4279C10.3434 34.4279 9.68357 33.9481 9.32366 32.8683C9.32366 32.8683 9.32366 32.8683 9.26367 32.8084C9.32366 31.1288 9.32366 29.4492 9.32366 27.8296Z" fill="#295474"/>
<path d="M24.2598 34.308C23.9599 34.008 23.54 33.8281 23.1801 33.5881C22.4003 33.0483 21.5605 32.5684 20.7807 32.0285C20.5408 31.8486 20.3608 31.6086 20.3608 31.3087C20.3608 30.9488 20.5408 30.7089 20.9007 30.5889C22.7602 29.6891 24.6797 28.8493 26.5393 27.9496C26.6592 27.8896 26.7192 27.8296 26.8392 27.7696C26.8992 27.6497 27.0191 27.5897 27.0791 27.5897C27.559 27.3497 28.0389 27.1698 28.5188 26.9298C29.0586 26.6299 29.5985 26.6299 30.1983 26.9298C30.7982 27.2298 31.3381 27.4697 31.9379 27.7696C32.0579 27.8896 32.2378 27.8896 32.3578 28.0096C32.7777 28.2495 33.2576 28.4295 33.6775 28.6694C34.9971 29.2692 36.3168 29.9291 37.6964 30.5289C37.9964 30.6489 38.2363 30.8288 38.4163 31.1288C38.4163 31.3087 38.4163 31.4287 38.4163 31.6086C38.3563 31.9086 38.1763 32.0285 37.9364 32.1485C37.6964 32.3285 37.3965 32.5084 37.1566 32.6284C37.0966 32.6884 36.9766 32.7484 36.9166 32.7484C36.1968 33.2282 35.417 33.7081 34.6972 34.188C34.6372 34.248 34.5172 34.308 34.4573 34.3679C34.3373 34.308 34.3373 34.188 34.3973 34.068C34.4573 33.6481 34.2173 33.4082 33.8574 33.2282C33.4975 32.9883 33.0776 32.8683 32.6577 32.8083C31.7579 32.5684 30.8582 32.5084 29.9584 32.4484C28.8187 32.4484 27.679 32.4484 26.5393 32.7484C26.0594 32.8683 25.5195 32.9883 25.0996 33.2282C24.7397 33.4082 24.4998 33.6481 24.5598 34.068C24.5598 34.188 24.5598 34.308 24.4998 34.3679C24.3198 34.3679 24.3198 34.3679 24.2598 34.308Z" fill="#88909F"/>
<path d="M38.417 36.5877C38.297 36.7677 38.177 37.0077 37.997 37.1277C37.517 37.4277 36.917 37.3677 36.617 36.8877C36.257 36.4077 36.437 35.8077 36.977 35.4477C37.097 35.3277 37.217 35.3277 37.337 35.2677C37.397 35.2677 37.517 35.2677 37.577 35.2677C37.697 35.2677 37.757 35.3277 37.877 35.3277C38.177 35.5077 38.417 35.6877 38.477 36.0477C38.417 36.2877 38.417 36.4677 38.417 36.5877Z" fill="#F4AA01"/>
<path d="M11.0037 11.2738C10.7637 11.3938 10.4637 11.4538 10.2237 11.5738C9.86373 11.8738 9.56373 12.2338 9.44373 12.6538C9.44373 12.7138 9.44373 12.8338 9.32373 12.8338C9.32373 12.3538 9.32373 11.8738 9.32373 11.3938C9.32373 11.2738 9.32373 11.2738 9.50373 11.2738C9.98373 11.2738 10.5237 11.2738 11.0037 11.2738Z" fill="#FEFEFE"/>
<path d="M24.3798 34.3679C24.3798 34.2479 24.3798 34.128 24.3798 34.008C24.3198 33.5881 24.5598 33.3482 24.9197 33.1682C25.6995 32.7483 26.5992 32.5684 27.439 32.4484C28.3388 32.3284 29.2986 32.3284 30.1983 32.3284C31.338 32.3884 32.4778 32.5084 33.5575 32.9883C33.6774 33.0482 33.8574 33.1082 33.9774 33.2282C34.2173 33.4082 34.3973 33.6481 34.3373 34.008C34.3373 34.128 34.3373 34.188 34.3373 34.3079C34.3373 35.7476 34.3373 37.1872 34.3373 38.6268C34.2773 38.6268 34.2173 38.6268 34.2173 38.5668C33.7374 38.027 33.0776 37.847 32.4178 37.7271C31.0381 37.4271 29.6585 37.3072 28.2188 37.4271C27.3191 37.4871 26.4193 37.6071 25.5195 37.907C25.0996 38.027 24.7397 38.2069 24.4998 38.5069C24.4398 38.5668 24.3798 38.6268 24.3198 38.5668C24.3798 37.2472 24.3798 35.8075 24.3798 34.3679Z" fill="#79808E"/>
<path d="M24.3797 38.6269C24.6197 38.2669 24.9796 38.087 25.3995 37.907C26.2993 37.5471 27.259 37.4272 28.2188 37.3672C28.8186 37.3072 29.4185 37.3072 29.9583 37.3072C31.158 37.3672 32.2977 37.4871 33.4374 37.907C33.7973 38.087 34.1573 38.2669 34.3972 38.5669C34.5172 38.9268 34.2772 39.1667 34.0373 39.3467C33.6774 39.5866 33.2575 39.7666 32.8376 39.8865C31.338 40.2464 29.8384 40.3664 28.3387 40.2464C27.319 40.1865 26.2993 40.0665 25.3395 39.6466C25.0996 39.5866 24.9196 39.4666 24.7397 39.3467C24.4397 39.2267 24.3198 38.9868 24.3797 38.6269Z" fill="#88909F"/>
<path d="M37.8762 32.1485C37.8762 33.2282 37.8762 34.248 37.8762 35.3277C37.8762 35.3877 37.8762 35.4477 37.8162 35.4477C37.6962 35.4477 37.6362 35.4477 37.5163 35.3877C37.3963 35.3277 37.3363 35.3277 37.2164 35.3877C37.0964 35.4477 36.9764 35.4477 36.8564 35.5076C36.8564 34.7278 36.8564 33.948 36.8564 33.2282C36.8564 33.1083 36.8564 32.9883 36.8564 32.8083C37.2164 32.5684 37.5763 32.3285 37.8762 32.1485Z" fill="#FBC00A"/>
<path d="M31.9378 27.8296C31.338 27.5297 30.7381 27.2897 30.1383 26.9898C29.5984 26.7499 29.1185 26.7499 28.5787 26.9898C27.9788 27.2897 27.379 27.5297 26.7791 27.8296C26.6592 27.7096 26.5392 27.7696 26.4792 27.7696C23.1201 27.7696 19.7009 27.7696 16.3418 27.7696C16.3418 23.7506 16.3418 19.6717 16.3418 15.6527C16.3418 15.2928 16.3418 15.2928 16.7017 15.2928C21.8004 15.2928 26.8391 15.2928 31.9378 15.2928C32.0578 15.2928 32.1778 15.2928 32.2977 15.2928H32.3577C32.3577 19.4317 32.3577 23.5707 32.3577 27.7096V27.7696C32.2378 27.9496 32.0578 27.8296 31.9378 27.8296Z" fill="#346D91"/>
<path d="M31.938 27.8296C32.058 27.7096 32.238 27.8296 32.358 27.7696C32.358 27.8296 32.358 27.9496 32.358 28.0096C32.238 28.0096 32.058 27.9496 31.938 27.8296Z" fill="#2E5979"/>
<path d="M28.8789 13.7932C28.399 13.7932 27.9192 13.7932 27.4393 13.7932C27.1394 13.7932 26.8994 13.6132 26.8994 13.3133C26.8994 13.0134 27.0194 12.8934 27.3793 12.7734C27.5592 12.7134 27.7392 12.7134 27.8592 12.7134C28.639 12.7134 29.3588 12.7134 30.1386 12.7134C30.2586 12.7134 30.3785 12.7134 30.4985 12.7734C30.7384 12.8934 30.9184 13.0733 30.8584 13.3133C30.7984 13.5532 30.6185 13.7332 30.3785 13.7332C29.8987 13.7932 29.3588 13.7932 28.8789 13.7932Z" fill="#8991A0"/>
<path d="M16.5822 13.7934C16.4622 13.7934 16.4022 13.7934 16.2822 13.7934C16.0422 13.7334 15.8622 13.6134 15.8622 13.3734C15.8022 13.1334 15.9822 12.8934 16.2222 12.8334C16.4622 12.7734 16.7022 12.7734 16.9422 12.8334C17.2422 12.8934 17.3622 13.0734 17.3622 13.3734C17.3622 13.6134 17.1222 13.7934 16.8822 13.7934C16.7622 13.7934 16.7022 13.7934 16.5822 13.7934Z" fill="#31B691"/>
<path d="M14.0628 13.7934C13.9428 13.7934 13.8828 13.7934 13.7628 13.7934C13.5228 13.7334 13.3428 13.5534 13.3428 13.3134C13.3428 13.0734 13.4628 12.8934 13.7028 12.8334C13.9428 12.7734 14.1828 12.7734 14.4228 12.8334C14.7228 12.8334 14.8428 13.0734 14.8428 13.3134C14.8428 13.5534 14.6628 13.7334 14.4228 13.7934C14.3028 13.7934 14.1828 13.7934 14.0628 13.7934Z" fill="#F9A016"/>
<path d="M11.6032 13.7935C11.4832 13.7935 11.4232 13.7935 11.3032 13.7935C11.0032 13.7335 10.8832 13.5535 10.8232 13.3135C10.8232 13.0735 10.9432 12.8335 11.1832 12.7735C11.4232 12.7135 11.6632 12.7135 11.8432 12.7735C12.1432 12.8335 12.3232 13.0135 12.3232 13.3135C12.3232 13.5535 12.0832 13.7935 11.8432 13.7935C11.7232 13.7935 11.6632 13.7935 11.6032 13.7935Z" fill="#D82A36"/>
<path d="M12.8633 22.3113C12.3833 22.3113 11.8433 22.3113 11.3633 22.3113C11.0633 22.3113 10.8833 22.1313 10.8833 21.8313C10.8833 21.5313 11.0633 21.3513 11.3633 21.3513C11.8433 21.3513 12.3833 21.3513 12.8633 21.3513C12.9833 21.6513 12.9833 21.9513 12.8633 22.3113Z" fill="#1C3B4F"/>
<path d="M12.863 18.292C13.343 18.292 13.823 18.292 14.303 18.292C14.663 18.292 14.843 18.472 14.843 18.772C14.843 19.072 14.603 19.252 14.303 19.252C13.823 19.252 13.343 19.252 12.863 19.252C12.683 18.952 12.683 18.652 12.863 18.292Z" fill="#1C3B4F"/>
<path d="M12.863 24.3505C13.343 24.3505 13.823 24.3505 14.303 24.3505C14.663 24.3505 14.843 24.5305 14.843 24.8305C14.843 25.1305 14.663 25.3105 14.303 25.3105C13.823 25.3105 13.343 25.3105 12.863 25.3105C12.683 25.0105 12.683 24.6505 12.863 24.3505Z" fill="#1C3B4F"/>
<path d="M12.8629 24.3506C12.8629 24.6506 12.8629 25.0106 12.8629 25.3106C12.7429 25.6706 12.5629 25.8506 12.3229 25.7906C12.0829 25.7906 11.9029 25.6106 11.8429 25.2506C11.7229 24.9506 11.7229 24.5906 11.8429 24.2906C11.9029 23.9306 12.0829 23.7506 12.3829 23.8106C12.6229 23.8106 12.8029 23.9906 12.8629 24.3506Z" fill="#37CAA0"/>
<path d="M12.8629 18.2922C12.8629 18.5922 12.8629 18.9522 12.8629 19.2522C12.7429 19.6722 12.5629 19.7922 12.3229 19.7922C12.0829 19.7922 11.9029 19.6122 11.8429 19.3122C11.7229 19.0122 11.7229 18.6522 11.8429 18.3522C11.9029 17.9922 12.0829 17.8722 12.3229 17.8722C12.6229 17.8122 12.8029 17.9922 12.8629 18.2922Z" fill="#37CAA0"/>
<path d="M12.8628 22.3114C12.8628 22.0114 12.8628 21.6514 12.8628 21.3514C12.9228 20.9914 13.0428 20.8114 13.4028 20.8114C13.7028 20.8114 13.8228 20.9914 13.8228 21.3514C13.8228 21.6514 13.8228 21.8914 13.8228 22.1914C13.8228 22.5514 13.7028 22.7314 13.4028 22.7914C13.1028 22.8514 12.8628 22.6114 12.8628 22.3114Z" fill="#37CAA0"/>
<path d="M11.8433 18.292C11.8433 18.592 11.8433 18.952 11.8433 19.252C11.6633 19.252 11.5433 19.252 11.3633 19.252C11.0633 19.252 10.8833 19.072 10.8833 18.772C10.8833 18.472 11.0633 18.292 11.3633 18.292C11.4833 18.292 11.6633 18.292 11.8433 18.292Z" fill="#1C3B4F"/>
<path d="M11.8433 24.3505C11.8433 24.6505 11.8433 25.0105 11.8433 25.3105C11.6633 25.3105 11.5433 25.3105 11.3633 25.3105C11.0633 25.3105 10.8833 25.1305 10.8833 24.8305C10.8833 24.5305 11.0633 24.3505 11.3633 24.3505C11.4833 24.3505 11.6633 24.3505 11.8433 24.3505Z" fill="#1C3B4F"/>
<path d="M14.2423 21.2913C14.6623 21.2913 14.8423 21.4713 14.8423 21.7713C14.8423 22.0713 14.6023 22.2513 14.2423 22.2513C13.8823 22.2513 13.8823 22.2513 13.8823 21.8913C13.8823 21.8313 13.8823 21.7113 13.8823 21.6513C13.8823 21.2913 13.8823 21.2913 14.2423 21.2913Z" fill="#1C3C4F"/>
<path d="M18.3814 31.7288C18.3814 31.9088 18.3814 32.1488 18.3814 32.3288C18.3814 32.6288 18.1414 32.8688 17.9014 32.8688C17.6614 32.8688 17.4214 32.6288 17.4214 32.3288C17.4214 31.9088 17.4214 31.4888 17.4214 31.0688C17.4214 30.9488 17.4814 30.8888 17.6014 30.8888C17.8414 30.8888 18.0214 30.8888 18.2614 30.8888C18.4414 30.8888 18.4414 30.9488 18.4414 31.0688C18.3814 31.3088 18.3814 31.4888 18.3814 31.7288Z" fill="#1C3B4F"/>
<path d="M14.3028 31.8488C14.0628 31.7888 13.8228 31.6688 13.8228 31.3688C13.8228 31.0688 14.0028 30.8888 14.3028 30.8288C14.6628 30.7088 14.9628 30.7088 15.3228 30.8288C15.7428 30.9488 15.9228 31.2488 15.7428 31.5488C15.6828 31.7288 15.5028 31.7888 15.3228 31.8488C15.0228 31.9688 14.6628 31.9688 14.3028 31.8488Z" fill="#37CAA0"/>
<path d="M11.3631 31.309C11.1231 31.309 10.9431 31.189 10.8831 30.949C10.8231 30.769 10.8231 30.529 11.0031 30.409C11.1831 30.289 12.5031 30.229 12.6231 30.409C12.7431 30.529 12.8631 30.709 12.8031 30.889C12.7431 31.129 12.5631 31.249 12.3231 31.309C12.0231 31.489 11.6631 31.489 11.3631 31.309Z" fill="#37CAA0"/>
<path d="M17.8418 29.8691C18.0218 29.8691 18.1418 29.8691 18.3218 29.8691C18.6218 29.8691 18.8618 30.1091 18.8618 30.3491C18.8618 30.5891 18.6218 30.8291 18.3818 30.8291C18.0218 30.8291 17.7218 30.8291 17.3618 30.8291C17.0618 30.8291 16.8818 30.6491 16.8818 30.3491C16.8818 30.0491 17.0618 29.8691 17.3618 29.8691C17.5418 29.8691 17.6618 29.8691 17.8418 29.8691Z" fill="#37CAA0"/>
<path d="M11.3632 31.3087C11.6632 31.3087 12.0232 31.3087 12.3232 31.3087C12.3232 31.6087 12.3232 31.9087 12.3232 32.2687C12.3232 32.6287 12.1432 32.8687 11.8432 32.8687C11.6032 32.8687 11.3032 32.5687 11.3632 32.2687C11.3032 31.9687 11.2432 31.6687 11.3632 31.3087Z" fill="#1C3B4F"/>
<path d="M15.3222 30.8292C14.9622 30.8292 14.6622 30.8292 14.3022 30.8292C14.3022 30.5292 14.3022 30.2292 14.3022 29.9292C14.3022 29.5692 14.5422 29.3292 14.8422 29.3292C15.1422 29.3292 15.3222 29.5692 15.3222 29.9292C15.3222 30.2292 15.3222 30.5292 15.3222 30.8292Z" fill="#1C3B4F"/>
<path d="M14.3022 31.8486C14.6622 31.8486 14.9622 31.8486 15.3222 31.8486C15.3222 32.0286 15.3222 32.1486 15.3222 32.3286C15.3222 32.6286 15.0822 32.8686 14.7822 32.8686C14.5422 32.8686 14.3022 32.6286 14.3022 32.3286C14.3022 32.1486 14.3022 32.0286 14.3022 31.8486Z" fill="#1C3B4F"/>
<path d="M11.7832 30.2892C11.5432 30.2292 11.3032 30.4692 11.3032 30.0492C11.3032 29.5692 11.4832 29.3292 11.7832 29.3292C12.0232 29.3292 12.2632 29.5092 12.3232 29.8092C12.3832 30.2892 12.3832 30.2892 11.7832 30.2892Z" fill="#1C3B4F"/>
<path d="M17.8418 29.8092C17.7218 29.8092 17.6618 29.8092 17.5418 29.8092C17.4818 29.8092 17.3618 29.8692 17.3618 29.7492C17.3618 29.6892 17.4218 29.6292 17.4218 29.5692C17.6618 29.2692 18.0218 29.3292 18.2018 29.5692C18.2618 29.6292 18.3218 29.6892 18.2618 29.7492C18.2018 29.8092 18.1418 29.8092 18.0818 29.8092C18.0218 29.8092 17.9618 29.8092 17.8418 29.8092Z" fill="#1D4052"/>
<path d="M37.2764 35.3877C37.3964 35.3277 37.4564 35.3277 37.5764 35.3877C37.4564 35.3877 37.3964 35.3877 37.2764 35.3877Z" fill="#FBC930"/>
<path d="M22.8201 21.5912C22.8201 22.8509 22.8201 24.0506 22.8201 25.3102C22.8201 25.6102 22.7001 25.7301 22.4602 25.7901C22.2203 25.8501 22.0403 25.7301 21.9203 25.5502C21.8604 25.4302 21.8604 25.3702 21.8604 25.2502C21.8604 22.7909 21.8604 20.2715 21.8604 17.8121C21.8604 17.4522 22.0403 17.2723 22.3402 17.2723C22.6402 17.2723 22.8201 17.4522 22.8201 17.8121C22.8801 19.0718 22.8201 20.3315 22.8201 21.5912Z" fill="#3FD9B0"/>
<path d="M23.8398 21.5312C23.8398 20.4515 23.8398 19.4318 23.8398 18.352C23.8398 18.1121 23.8998 17.9321 24.1398 17.8122C24.3197 17.7522 24.4997 17.7522 24.6796 17.8722C24.7996 17.9921 24.8596 18.1721 24.8596 18.352C24.8596 20.4515 24.8596 22.6109 24.8596 24.7104C24.8596 25.0703 24.6196 25.3103 24.3197 25.3103C24.0198 25.3103 23.8398 25.0703 23.8398 24.7104C23.8398 23.6307 23.8398 22.6109 23.8398 21.5312Z" fill="#3FD9B0"/>
<path d="M26.8992 21.5312C26.8992 22.0711 26.8992 22.6709 26.8992 23.2108C26.8992 23.5707 26.6593 23.8106 26.4193 23.8106C26.1194 23.8106 25.9395 23.5707 25.9395 23.2108C25.9395 22.1311 25.9395 20.9913 25.9395 19.9116C25.9395 19.5517 26.1794 19.3118 26.4193 19.3118C26.7193 19.3118 26.9592 19.5517 26.9592 19.9116C26.8992 20.4515 26.8992 20.9913 26.8992 21.5312Z" fill="#3FD9B0"/>
<path d="M20.8405 21.5312C20.8405 22.0711 20.8405 22.6109 20.8405 23.1508C20.8405 23.5107 20.6606 23.7506 20.3607 23.7506C20.0607 23.7506 19.8208 23.5107 19.8208 23.1508C19.8208 22.6109 19.8208 22.0711 19.8208 21.5912C19.8208 21.0513 19.8208 20.4515 19.8208 19.9116C19.8208 19.4317 20.1807 19.1918 20.5406 19.3118C20.7806 19.4317 20.8405 19.6117 20.8405 19.8516C20.8405 20.4515 20.8405 20.9913 20.8405 21.5312Z" fill="#3FD9B0"/>
<path d="M28.8787 21.5312C28.8787 21.9511 28.8787 22.371 28.8787 22.7309C28.8787 23.0308 28.6388 23.2707 28.3988 23.2707C28.0989 23.2707 27.9189 23.0308 27.9189 22.7309C27.9189 21.8911 27.9189 21.1113 27.9189 20.2715C27.9189 19.9716 28.0989 19.7316 28.3988 19.7316C28.6388 19.7316 28.8787 19.9716 28.8787 20.2715C28.8787 20.7514 28.8787 21.1713 28.8787 21.5312Z" fill="#3FD9B0"/>
<path d="M17.8413 21.5312C17.8413 21.2913 17.8413 21.0513 17.8413 20.8114C17.8413 20.5115 18.0213 20.2715 18.3212 20.2715C18.6211 20.2715 18.861 20.4515 18.861 20.7514C18.861 21.2313 18.861 21.7712 18.861 22.251C18.861 22.551 18.6211 22.7309 18.3212 22.7309C18.0213 22.7309 17.8413 22.491 17.8413 22.1911C17.8413 22.0111 17.8413 21.7712 17.8413 21.5312Z" fill="#3FD9B0"/>
<path d="M30.9184 21.5914C30.9184 21.7714 30.9184 21.9514 30.7384 22.1314C30.6184 22.2514 30.4984 22.2514 30.3784 22.2514C30.0184 22.2514 29.8984 22.0114 29.8984 21.4114C29.8984 20.9914 30.0184 20.7514 30.3784 20.7514C30.7384 20.8114 30.9184 21.0514 30.9184 21.5914Z" fill="#3FD9B0"/>
</g>
<defs>
<clipPath id="clip0_806_5859">
<rect width="29.5125" height="29.0326" fill="white" transform="translate(9.32373 11.2738)"/>
</clipPath>
</defs>
</svg>
