<svg width="48" height="49" viewBox="0 0 48 49" fill="none" xmlns="http://www.w3.org/2000/svg">
<rect y="0.806763" width="48" height="48" rx="24" fill="#E3FBDA"/>
<g clip-path="url(#clip0_806_8028)">
<path d="M35.8781 34.0518C36.8379 34.0518 37.7377 34.0518 38.6976 34.0518C39.1175 34.0518 39.2975 34.3518 39.5374 34.6517C39.5374 36.6313 39.5374 38.671 39.5374 40.6506C39.4774 40.9505 39.2375 41.1905 38.9375 41.2505C34.0784 41.2505 29.2193 41.2505 24.3602 41.2505C24.3002 41.1305 24.2402 41.0105 24.2402 40.8906C24.2402 39.9307 24.2402 38.9109 24.2402 37.9511C24.2402 37.8311 24.2402 37.7711 24.3002 37.6512C24.3602 37.5312 24.4802 37.5312 24.5402 37.5312C24.9601 37.3512 25.1401 37.1113 25.1401 36.6913C25.1401 35.9715 25.1401 35.2516 25.1401 34.4717C25.1401 34.3518 25.1401 34.1718 25.2001 34.0518C25.7999 34.0518 26.3998 34.0518 26.9997 34.0518C27.1197 34.1718 27.0597 34.3518 27.0597 34.4717C27.0597 35.1916 27.0597 35.9115 27.0597 36.6313C27.0597 36.9313 27.1197 37.1712 27.4196 37.3512C27.6596 37.5312 27.9595 37.5312 28.2595 37.4112C28.5594 37.2312 28.6794 36.9913 28.6794 36.6913C28.6794 35.9715 28.6794 35.2516 28.6794 34.4717C28.6794 34.3518 28.6794 34.1718 28.7394 34.0518C29.3393 34.0518 29.9392 34.0518 30.5391 34.0518C30.6591 34.1718 30.5991 34.3518 30.5991 34.4717C30.5991 35.1916 30.5991 35.9115 30.5991 36.6313C30.5991 36.9313 30.6591 37.1712 30.959 37.3512C31.199 37.5312 31.4989 37.5312 31.7988 37.4112C32.0988 37.2312 32.2188 36.9913 32.2188 36.6913C32.2188 35.9715 32.2188 35.2516 32.2188 34.4717C32.2188 34.3518 32.2188 34.1718 32.2788 34.0518C32.8786 34.0518 33.4785 34.0518 34.0784 34.0518C34.1984 34.1718 34.1384 34.3518 34.1384 34.4717C34.1384 35.1916 34.1384 35.9115 34.1384 36.6313C34.1384 36.9313 34.1984 37.1712 34.4983 37.3512C34.7383 37.5312 35.0382 37.5312 35.3382 37.4112C35.6381 37.2312 35.7581 36.9913 35.7581 36.6913C35.7581 35.9715 35.7581 35.2516 35.7581 34.4717C35.8181 34.3518 35.7581 34.1718 35.8781 34.0518Z" fill="#FE9833"/>
<path d="M24.3003 37.6512C24.3003 38.8509 24.3003 40.0507 24.3003 41.2505C19.4411 41.2505 14.582 41.2505 9.78293 41.2505C9.42299 41.1905 9.18304 40.9505 9.12305 40.5906C9.12305 38.611 9.12305 36.6913 9.12305 34.7117C9.363 34.2318 9.72294 34.0518 10.2628 34.0518C11.1027 34.1118 11.8825 34.0518 12.7224 34.0518C12.8424 34.1718 12.7824 34.3518 12.7824 34.4717C12.7824 35.1916 12.7824 35.9115 12.7824 36.6313C12.7824 36.9313 12.8424 37.1712 13.1423 37.3512C13.3823 37.5312 13.6822 37.5312 13.9822 37.4112C14.2821 37.2312 14.4021 36.9913 14.4021 36.6913C14.4021 35.9715 14.4021 35.2516 14.4021 34.4717C14.4021 34.3518 14.4021 34.1718 14.4621 34.0518C15.062 34.0518 15.6618 34.0518 16.2617 34.0518C16.3817 34.1718 16.3217 34.3518 16.3217 34.4717C16.3217 35.1916 16.3217 35.9115 16.3217 36.6313C16.3217 36.9313 16.3817 37.1712 16.6817 37.3512C16.9216 37.5312 17.2216 37.5312 17.5215 37.4112C17.8214 37.2312 17.9414 36.9913 17.9414 36.6913C17.9414 35.9715 17.9414 35.2516 17.9414 34.4717C17.9414 34.3518 17.9414 34.1718 18.0014 34.0518C18.6013 34.0518 19.2012 34.0518 19.8011 34.0518C19.9211 34.1718 19.8611 34.3518 19.8611 34.4717C19.8611 35.1916 19.8611 35.9115 19.8611 36.6313C19.8611 36.9313 19.9211 37.1712 20.221 37.3512C20.461 37.5312 20.7609 37.5312 21.0608 37.4112C21.3608 37.2312 21.4808 36.9913 21.4808 36.6913C21.4808 35.9715 21.4808 35.2516 21.4808 34.4717C21.4808 34.3518 21.4808 34.1718 21.5408 34.0518C22.1406 34.0518 22.7405 34.0518 23.3404 34.0518C23.4604 34.1718 23.4004 34.2918 23.4004 34.4717C23.4004 35.0716 23.4004 35.7315 23.4004 36.3314C23.4604 36.9313 23.6404 37.4112 24.3003 37.6512C24.3003 37.5912 24.3003 37.5912 24.3003 37.6512Z" fill="#FEBA33"/>
<path d="M35.1583 10.8361C35.3983 10.9561 35.6382 11.076 35.8182 11.316C36.3581 11.8559 36.838 12.3358 37.3779 12.8757C37.8578 13.4156 37.6779 14.1955 37.018 14.3754C36.718 14.4354 36.4781 14.3754 36.2381 14.1955C36.1182 14.1355 36.0582 14.0155 35.9382 13.9555C35.9382 19.0546 35.9382 24.0936 35.9382 29.1927C36.0582 29.1927 36.1182 29.0727 36.1781 29.0127C36.5381 28.7128 37.078 28.7128 37.4379 29.0127C37.7979 29.3727 37.7979 29.9126 37.4379 30.2725C36.838 30.8724 36.2381 31.4723 35.6382 32.0722C35.2783 32.4321 34.7384 32.4321 34.3785 32.0122C33.7786 31.4723 33.2387 30.8724 32.6388 30.2725C32.2789 29.9126 32.2789 29.3727 32.5788 29.0127C32.9387 28.6528 33.4786 28.6528 33.8986 29.0127C33.9586 29.0727 34.0185 29.1327 34.1385 29.1927C34.1385 24.0936 34.1385 18.9946 34.1385 13.8955C34.0185 14.0155 33.9586 14.0755 33.8986 14.1355C33.5386 14.4354 32.9987 14.4354 32.6388 14.1355C32.2789 13.7755 32.2789 13.2356 32.6388 12.8757C33.2387 12.2758 33.8386 11.6759 34.4385 11.076C34.5584 10.9561 34.7384 10.8961 34.8584 10.8361C34.9184 10.8361 35.0384 10.8361 35.1583 10.8361Z" fill="#384949"/>
<path d="M21.0009 10.8361C21.6608 11.196 22.1407 11.7359 22.7406 12.2158C25.8 14.7354 28.8595 17.3149 31.9189 19.8944C32.2189 20.1344 32.3988 20.4343 32.3388 20.8542C32.2788 21.2142 32.0989 21.3941 31.7389 21.5141C31.439 21.6341 31.1391 21.5741 30.8991 21.3342C30.7791 21.2742 30.7191 21.1542 30.5992 21.0942C30.2992 20.9742 30.1192 20.7343 29.8793 20.5543C28.8595 19.7145 27.8397 18.8746 26.8199 17.9748C24.8402 16.3551 22.9206 14.7354 20.9409 13.1157C20.821 13.0557 20.761 12.9357 20.701 12.8157C20.641 12.2758 20.701 11.6759 20.701 11.136C20.701 11.0161 20.701 10.9561 20.761 10.8361C20.821 10.8361 20.9409 10.8361 21.0009 10.8361Z" fill="#E56B2E"/>
<path d="M20.7609 10.8361C20.7609 11.496 20.7609 12.2159 20.7609 12.8757C20.7609 12.8757 20.7609 12.8757 20.7609 12.9357C20.461 13.2957 20.041 13.5956 19.6811 13.8956C18.0614 15.2153 16.5017 16.5351 14.882 17.8548C14.822 17.9148 14.762 17.9148 14.702 17.9748C13.5022 18.9346 12.3625 19.9544 11.1627 20.9143C11.1027 20.9743 10.9827 21.0342 10.8627 21.0942C10.8027 21.1542 10.6828 21.2142 10.6228 21.2742C10.1429 21.6341 9.48298 21.5142 9.24302 20.9743C9.18304 20.9743 9.12305 20.9143 9.12305 20.9143C9.12305 20.7343 9.12305 20.6143 9.12305 20.4344C9.24302 20.1944 9.42299 19.9544 9.66295 19.7745C13.1423 16.895 16.6217 14.0155 20.101 11.1361C20.221 11.0161 20.401 10.9561 20.5809 10.8961C20.6409 10.8361 20.7009 10.8361 20.7609 10.8361Z" fill="#FE9833"/>
<path d="M26.8196 17.9748C28.0793 18.9946 29.3391 20.0144 30.5389 21.0942C30.5389 21.2142 30.5389 21.3942 30.5389 21.5141C30.4189 21.6341 30.2389 21.5741 30.059 21.5741C28.2593 21.5741 26.4596 21.5741 24.7199 21.5741C24.6 21.5741 24.48 21.5741 24.36 21.5741C23.8801 21.6341 23.6401 21.9341 23.5802 22.354C23.5802 22.474 23.5802 22.5339 23.5802 22.6539C23.5802 24.2736 23.5802 25.8333 23.5802 27.453C23.5802 28.2929 23.8801 28.5328 24.66 28.5328C26.4596 28.5328 28.2593 28.5328 30.059 28.5328C30.2389 28.5328 30.4189 28.4728 30.5389 28.5928C30.5389 29.4927 30.5389 30.3925 30.5389 31.2923C30.5389 31.7722 30.1789 32.1322 29.699 32.1322C26.9995 32.1322 24.36 32.1322 21.6605 32.1322C21.5405 31.9522 21.6005 31.7722 21.6005 31.5923C21.6005 28.7128 21.6005 25.7733 21.6005 22.8939C21.6005 22.7739 21.6005 22.7139 21.6005 22.5939C21.6005 21.8741 21.5405 21.6941 20.8207 21.4541C20.7607 21.4541 20.7607 21.3941 20.7607 21.3941C20.7007 21.2742 20.7007 21.1542 20.7007 21.0942C20.7007 20.1344 20.7007 19.2345 20.7007 18.2747C20.7007 18.1547 20.7007 17.9748 20.7607 17.8548C20.8807 17.7348 21.0006 17.7948 21.1806 17.7948C22.9203 17.7948 24.66 17.7948 26.3996 17.7948C26.5196 17.8548 26.6396 17.9148 26.8196 17.9748Z" fill="#D2D2D7"/>
<path d="M20.761 17.9748C20.761 19.1746 20.761 20.3144 20.761 21.5141C20.641 21.6341 20.461 21.6341 20.2811 21.6341C18.7813 21.6341 17.2816 21.6341 15.7819 21.6341C15.6619 21.6341 15.5419 21.6341 15.422 21.6341C14.942 21.6941 14.6421 21.994 14.5821 22.474C14.5821 22.5939 14.5821 22.7139 14.5821 22.8339C14.5821 25.8333 14.5821 28.7728 14.5821 31.7722C14.5821 31.9522 14.6421 32.1322 14.5221 32.3121C13.6223 32.3121 12.7225 32.3121 11.8826 32.3121C11.2827 32.3121 10.9228 31.9522 10.9228 31.3523C10.9228 28.0529 10.9228 24.8135 10.9228 21.5141C10.9228 21.3942 10.9828 21.2742 10.8628 21.1542C12.1226 20.1344 13.3823 19.0546 14.6421 18.0348C14.8221 17.9748 15.002 17.9148 15.182 17.9148C16.9217 17.9148 18.6014 17.9148 20.341 17.9148C20.461 17.8548 20.581 17.8548 20.761 17.9748Z" fill="#EBEBF0"/>
<path d="M14.522 32.2522C14.522 29.1927 14.522 26.1333 14.522 23.0738C14.522 22.8939 14.522 22.6539 14.522 22.474C14.522 21.8741 14.8819 21.5141 15.4818 21.5141C17.1615 21.5141 18.7812 21.5141 20.4609 21.5141C20.5809 21.5141 20.6408 21.5141 20.7608 21.5141C20.8808 21.6341 20.8808 21.7541 20.8808 21.9341C20.8808 25.2334 20.8808 28.5328 20.8808 31.8922C20.8808 32.0122 20.8808 32.1922 20.7608 32.3121C18.6612 32.2522 16.6216 32.2522 14.522 32.2522Z" fill="#4A696F"/>
<path d="M30.5391 28.7128C28.4395 28.7128 26.3998 28.7128 24.3002 28.7128C23.8203 28.7128 23.4004 28.2929 23.4004 27.813C23.4004 26.0133 23.4004 24.2136 23.4004 22.414C23.4004 21.9341 23.8203 21.5141 24.3002 21.5141C26.3998 21.5141 28.4395 21.5141 30.5391 21.5141C30.5391 23.9137 30.5391 26.3132 30.5391 28.7128Z" fill="#6AA8FE"/>
<path d="M20.7607 32.2522C20.7607 28.6528 20.7607 25.1135 20.7607 21.5141C21.3006 21.5141 21.6606 21.8741 21.6606 22.414C21.6606 24.3936 21.6606 26.3732 21.6606 28.3529C21.6606 29.6126 21.6606 30.9324 21.6606 32.1922C21.3606 32.2522 21.0607 32.2522 20.7607 32.2522Z" fill="#384949"/>
<path d="M14.5218 34.0518C14.5218 34.8917 14.5218 35.7915 14.5218 36.6313C14.5218 37.2312 14.1619 37.5912 13.622 37.5912C13.0821 37.5912 12.7222 37.1712 12.7222 36.6313C12.7222 35.7915 12.7222 34.8917 12.7222 34.0518C13.3221 34.0518 13.9219 34.0518 14.5218 34.0518Z" fill="#4A696F"/>
<path d="M18.0614 34.0518C18.0614 34.8917 18.0614 35.7915 18.0614 36.6313C18.0614 37.2312 17.7015 37.5912 17.1616 37.5912C16.6217 37.5912 16.2617 37.1712 16.2617 36.6313C16.2617 35.7915 16.2617 34.8917 16.2617 34.0518C16.9216 34.0518 17.4615 34.0518 18.0614 34.0518Z" fill="#4A696F"/>
<path d="M21.6605 34.0518C21.6605 34.8917 21.6605 35.7915 21.6605 36.6313C21.6605 37.2312 21.3006 37.5912 20.7607 37.5912C20.2208 37.5912 19.8608 37.1712 19.8608 36.6313C19.8608 35.7915 19.8608 34.8917 19.8608 34.0518C20.4607 34.0518 21.0606 34.0518 21.6605 34.0518Z" fill="#4A696F"/>
<path d="M28.7391 34.0518C28.7391 34.8917 28.7391 35.7915 28.7391 36.6313C28.7391 37.2312 28.3792 37.5912 27.8393 37.5912C27.2994 37.5912 26.9395 37.1712 26.9395 36.6313C26.9395 35.7915 26.9395 34.8917 26.9395 34.0518C27.5993 34.0518 28.1992 34.0518 28.7391 34.0518Z" fill="#384949"/>
<path d="M32.3387 34.0518C32.3387 34.8917 32.3387 35.7915 32.3387 36.6313C32.3387 37.2312 31.9788 37.5912 31.4389 37.5912C30.899 37.5912 30.5391 37.1712 30.5391 36.6313C30.5391 35.7915 30.5391 34.8917 30.5391 34.0518C31.139 34.0518 31.7388 34.0518 32.3387 34.0518Z" fill="#384949"/>
<path d="M35.8778 34.0518C35.8778 34.8917 35.8778 35.7915 35.8778 36.6313C35.8778 37.2312 35.5179 37.5912 34.978 37.5912C34.4381 37.5912 34.0781 37.1712 34.0781 36.6313C34.0781 35.7915 34.0781 34.8917 34.0781 34.0518C34.678 34.0518 35.2779 34.0518 35.8778 34.0518Z" fill="#384949"/>
<path d="M25.2 34.0518C25.2 34.8917 25.2 35.7915 25.2 36.6313C25.2 37.2312 24.9 37.5312 24.3002 37.5912C24.1802 37.4712 24.1802 37.3512 24.1802 37.1712C24.1802 36.2714 24.1802 35.3116 24.1802 34.4117C24.1802 34.2918 24.1802 34.1118 24.3002 33.9918C24.6001 34.0518 24.9 34.0518 25.2 34.0518Z" fill="#384949"/>
<path d="M24.3002 34.0518C24.3002 35.2516 24.3002 36.3914 24.3002 37.5912C23.7603 37.5912 23.4004 37.2312 23.4004 36.6913C23.4004 35.7915 23.4004 34.9517 23.4004 34.0518C23.7003 34.0518 24.0003 34.0518 24.3002 34.0518Z" fill="#4A696F"/>
<path d="M26.8195 17.9748C24.7799 17.9748 22.8002 17.9748 20.7606 17.9748C20.6406 17.8548 20.6406 17.7348 20.6406 17.5549C20.6406 16.1151 20.6406 14.7354 20.6406 13.2957C20.6406 13.1757 20.6406 12.9957 20.7606 12.8757C22.7402 14.6154 24.7799 16.2351 26.8195 17.9748Z" fill="#B9B9BF"/>
<path d="M20.761 12.9357C20.761 14.6154 20.761 16.2951 20.761 17.9748C18.7213 17.9748 16.6817 17.9748 14.6421 17.9748C15.9019 16.895 17.2216 15.8152 18.4814 14.7954C19.1413 14.2555 19.7411 13.7156 20.401 13.2356C20.521 13.1157 20.581 12.9957 20.761 12.9357Z" fill="#D2D2D7"/>
</g>
<defs>
<clipPath id="clip0_806_8028">
<rect width="30.9543" height="30.5344" fill="white" transform="translate(8.52295 10.7161)"/>
</clipPath>
</defs>
</svg>
