<svg width="49" height="49" viewBox="0 0 49 49" fill="none" xmlns="http://www.w3.org/2000/svg">
<rect x="0.540039" y="0.420227" width="48" height="48" rx="24" fill="#E5E5E5"/>
<path d="M21.9604 40.3897C21.1205 40.2097 20.2206 39.9697 19.3807 39.6698C18.7807 39.4298 18.1208 39.1898 17.5809 38.8299C17.5209 37.93 18.3008 36.8501 19.5006 36.9101C22.8602 36.9101 26.2199 36.9101 29.5795 36.9101C30.4794 36.8501 31.3193 37.51 31.4992 38.4699C31.4992 38.5899 31.4992 38.7099 31.4992 38.8299C30.1794 39.5498 28.7995 40.0297 27.2997 40.2697C27.2397 40.2697 27.1797 40.3297 27.1197 40.3297C26.9998 40.2697 26.9398 40.2697 26.8198 40.3297L26.7598 40.3897C26.6398 40.3297 26.5798 40.3297 26.4598 40.3897C26.3998 40.3897 26.2798 40.4497 26.2199 40.4497C26.0999 40.3897 25.9799 40.3897 25.8599 40.4497C25.7999 40.4497 25.7399 40.4497 25.7399 40.5097C25.6799 40.5097 25.6799 40.5097 25.6199 40.5097C25.32 40.4497 25.02 40.4497 24.66 40.5097C24.5401 40.5097 24.4201 40.5097 24.3001 40.5097C24.0001 40.4497 23.7001 40.4497 23.3402 40.5097C23.2802 40.5097 23.2802 40.5097 23.2202 40.5097C23.2202 40.4497 23.1602 40.4497 23.1002 40.4497C22.9802 40.3897 22.8602 40.3897 22.7403 40.4497C22.6803 40.4497 22.5603 40.3897 22.5003 40.3897C22.3803 40.3297 22.3203 40.3297 22.2003 40.3897L22.1403 40.3297C22.1403 40.3297 22.0803 40.3297 21.9604 40.3897Z" fill="#D3E3FE"/>
<path d="M15.6611 13.2729C16.741 12.493 17.8809 11.8931 19.0807 11.4131C20.4606 10.8732 21.7804 10.5132 23.2202 10.3932C23.2802 10.3932 23.3402 10.3932 23.3402 10.3333C23.4602 10.3333 23.5202 10.3333 23.6402 10.3333C23.7002 10.3932 23.7602 10.3333 23.7602 10.3932C23.8202 10.3932 23.8802 10.3932 24.0002 10.3333C24.3601 10.3333 24.7201 10.3333 25.08 10.3333C25.14 10.3932 25.2 10.3333 25.32 10.3932C25.38 10.3932 25.44 10.3932 25.44 10.3333C25.56 10.3333 25.62 10.3333 25.7399 10.3333C26.0399 10.4532 26.3399 10.4532 26.6398 10.4532C29.0996 10.8132 31.3193 11.7131 33.3591 13.1529C33.419 13.1529 33.419 13.2129 33.479 13.2129C33.479 13.3329 33.359 13.3329 33.2391 13.3329C33.1191 13.3329 32.9991 13.3329 32.9391 13.3329C27.3598 13.3329 21.7804 13.3329 16.2011 13.3329C16.0811 13.3329 15.9611 13.3329 15.9011 13.3329C15.7811 13.3929 15.6611 13.3929 15.6611 13.2729Z" fill="#0069A2"/>
<path d="M9.48187 24.1916C9.60185 23.9516 9.60185 23.6517 9.60185 23.3517C9.84183 21.8519 10.2618 20.4121 10.8617 19.0322C10.8617 18.9722 10.9217 18.9122 10.9217 18.9122C11.0417 18.9122 11.0417 19.0322 11.0417 19.1522C11.0417 19.2722 11.0417 19.3322 11.0417 19.4522C11.0417 23.4717 11.0417 27.4912 11.0417 31.5108C11.0417 31.6907 11.1617 31.9307 10.9217 32.0507C10.4418 30.9708 10.0218 29.8309 9.78183 28.6911C9.66185 28.0912 9.60185 27.5512 9.48187 26.9513C9.48187 26.8913 9.48187 26.8313 9.42188 26.7713C9.42188 26.6513 9.42188 26.5313 9.42188 26.4113C9.48187 26.3514 9.42188 26.2914 9.48187 26.2914C9.48187 26.2314 9.48187 26.1714 9.42188 26.0514C9.42188 25.6914 9.42188 25.3315 9.42188 24.9715C9.48187 24.9115 9.42188 24.8515 9.48187 24.7315C9.48187 24.6716 9.48187 24.6116 9.42188 24.6116C9.48187 24.4316 9.48187 24.3116 9.48187 24.1916Z" fill="#0069A2"/>
<path d="M38.1582 18.9122C38.6382 19.9921 39.0581 21.132 39.2981 22.2718C39.4181 22.8718 39.538 23.4717 39.598 24.0716C39.598 24.1316 39.538 24.1916 39.658 24.2516C39.658 24.3716 39.658 24.4316 39.658 24.5516C39.598 24.6116 39.658 24.6716 39.598 24.6716C39.598 24.7315 39.598 24.7915 39.658 24.9115C39.658 25.2715 39.658 25.6314 39.658 25.9914C39.598 26.0514 39.658 26.1114 39.598 26.2314C39.598 26.2914 39.598 26.3514 39.658 26.3514C39.658 26.4713 39.658 26.5913 39.658 26.7113C39.538 26.9513 39.538 27.2512 39.538 27.5512C39.2981 29.051 38.8781 30.4909 38.2782 31.8707C38.2782 31.9307 38.2182 31.9907 38.2182 31.9907C38.0982 31.9907 38.0982 31.8707 38.0982 31.7507C38.0982 31.6307 38.0982 31.5707 38.0982 31.4508C38.0982 27.4312 38.0982 23.4117 38.0982 19.3922C38.0382 19.2722 37.9182 19.0322 38.1582 18.9122Z" fill="#0069A2"/>
<path d="M9.48193 25.9914C9.54193 26.0514 9.54193 26.1714 9.54193 26.2314H9.48193C9.48193 26.1714 9.48193 26.0514 9.48193 25.9914Z" fill="#4591BB"/>
<path d="M39.598 26.2314C39.598 26.1714 39.538 26.0514 39.658 25.9914C39.658 26.0514 39.658 26.1714 39.598 26.2314Z" fill="#4591BB"/>
<path d="M39.6581 24.9116C39.5981 24.8516 39.5981 24.7316 39.5981 24.6716H39.6581C39.6581 24.7916 39.6581 24.8516 39.6581 24.9116Z" fill="#4591BB"/>
<path d="M9.54193 24.6716C9.54193 24.7316 9.60193 24.8516 9.48193 24.9116C9.48193 24.8516 9.48193 24.7916 9.54193 24.6716C9.48193 24.6716 9.48193 24.6716 9.54193 24.6716Z" fill="#4591BB"/>
<path d="M9.48193 26.2314C9.54193 26.2914 9.54193 26.3514 9.48193 26.3514C9.48193 26.2914 9.48193 26.2314 9.48193 26.2314Z" fill="#60A1C5"/>
<path d="M39.5981 26.2314C39.6581 26.2914 39.6581 26.2914 39.6581 26.3514C39.5981 26.2914 39.5981 26.2914 39.5981 26.2314Z" fill="#60A1C5"/>
<path d="M39.6583 24.6716C39.5983 24.6116 39.5983 24.5516 39.6583 24.5516C39.6583 24.6116 39.6583 24.6716 39.6583 24.6716Z" fill="#60A1C5"/>
<path d="M9.54193 24.6716C9.48193 24.6716 9.48193 24.6716 9.54193 24.6716C9.48193 24.6116 9.48193 24.6116 9.48193 24.5516C9.54193 24.6116 9.54193 24.6116 9.54193 24.6716Z" fill="#60A1C5"/>
<path d="M38.1582 18.9122C38.0382 18.9722 38.0982 19.0922 38.0982 19.1522C38.0982 23.3517 38.0982 27.5512 38.0982 31.7507C38.0982 31.8107 38.0382 31.9307 38.1582 31.9907C37.5583 33.1905 36.8383 34.2704 35.9984 35.2903L35.9384 35.3503C35.8785 35.3503 35.8185 35.3503 35.6985 35.3503C28.2593 35.3503 20.8202 35.3503 13.3811 35.3503C13.3211 35.3503 13.2611 35.3503 13.1411 35.3503C12.6012 34.7504 12.1212 34.0904 11.7013 33.4305C11.4613 32.9506 11.2214 32.4706 10.9214 31.9907C11.0414 31.9307 10.9814 31.8107 10.9814 31.7507C10.9814 27.5512 10.9814 23.3517 10.9814 19.1522C10.9814 19.0922 11.0414 18.9722 10.9214 18.9122C10.9814 18.7922 10.9814 18.6722 10.9814 18.4923C10.9814 17.6524 10.9814 16.8125 10.9814 15.9726C10.9814 15.3126 11.1014 14.6527 11.5813 14.1728C12.0013 13.6928 12.4812 13.4529 13.0811 13.3329C13.801 13.2129 14.581 13.2729 15.3009 13.2729C15.4209 13.2729 15.5408 13.2729 15.6608 13.2129C15.7208 13.3329 15.8408 13.2729 15.9008 13.2729C21.6601 13.2729 27.4194 13.2729 33.1788 13.2729C33.2388 13.2729 33.3587 13.3329 33.4187 13.2129C33.5387 13.2729 33.6587 13.2729 33.7787 13.2729C34.4986 13.2729 35.2185 13.2729 35.9984 13.3329C37.0183 13.4529 37.9782 14.4127 38.0382 15.4326C38.0982 16.4525 38.0382 17.4724 38.0982 18.4923C38.0982 18.6722 38.0982 18.7922 38.1582 18.9122Z" fill="#D3E3FE"/>
<path d="M35.8188 35.2903C35.8788 35.2903 35.9388 35.2903 35.9388 35.3503C34.6789 36.7901 33.1791 37.93 31.4993 38.8299C31.3793 38.7699 31.4393 38.7099 31.4393 38.6499C31.3193 37.69 30.6594 37.0301 29.6995 37.0301C29.4595 36.9701 29.2196 37.0301 28.9196 37.0301C28.7396 37.0301 28.6796 36.9701 28.6196 36.7901C28.6196 36.4301 28.6196 36.0702 28.6196 35.6502C28.6196 35.4703 28.7396 35.3503 28.9196 35.3503C29.8795 35.3503 30.8994 35.3503 31.8592 35.3503C33.0591 35.3503 34.259 35.3503 35.4588 35.3503C35.6388 35.3503 35.6988 35.3503 35.8188 35.2903Z" fill="#0069A2"/>
<path d="M13.1411 35.3503C13.1411 35.2903 13.2011 35.2903 13.2611 35.2903C13.3811 35.3503 13.5011 35.2903 13.5611 35.2903C15.7208 35.2903 17.8806 35.2903 20.0403 35.2903C20.4003 35.2903 20.4003 35.2903 20.4003 35.6502C20.4003 36.0102 20.4003 36.3102 20.4003 36.6701C20.4003 36.8501 20.3403 36.9701 20.1003 36.9701C19.8603 36.9701 19.6204 36.9101 19.3804 36.9701C18.4205 37.0301 17.7606 37.63 17.6406 38.5899C17.6406 38.6499 17.6406 38.7699 17.5806 38.7699C15.9008 37.99 14.401 36.7901 13.1411 35.3503Z" fill="#0069A2"/>
<path d="M19.4406 37.0301C19.6805 36.9701 19.9205 37.0301 20.2205 36.9701C20.4005 36.9701 20.4005 36.9101 20.4005 36.7901C20.4005 36.4301 20.4005 36.0702 20.4005 35.6502C20.4005 35.4103 20.3405 35.3503 20.1005 35.3503C18.3607 35.3503 16.6209 35.3503 14.9411 35.3503C14.5211 35.3503 14.1012 35.3503 13.6213 35.3503C13.5013 35.3503 13.3813 35.3503 13.3213 35.2903C13.4413 35.2903 13.5613 35.2903 13.6213 35.2903C16.4409 35.2903 19.2006 35.2903 22.0203 35.2903C26.5197 35.2903 31.0192 35.2903 35.4587 35.2903C35.5787 35.2903 35.6987 35.2903 35.8186 35.2903C35.6987 35.3503 35.5787 35.3503 35.4587 35.3503C33.2989 35.3503 31.1992 35.3503 29.0394 35.3503C28.7995 35.3503 28.6795 35.4103 28.6795 35.6502C28.6795 36.0102 28.6795 36.3702 28.6795 36.7301C28.6795 36.9101 28.7395 36.9101 28.8595 36.9101C29.0994 36.9101 29.3394 36.8501 29.6394 36.9701C29.2194 36.9701 28.7995 36.9701 28.3195 36.9701C25.4399 36.9701 22.5602 36.9701 19.6805 36.9701C19.6805 37.0301 19.5606 37.0301 19.4406 37.0301Z" fill="#87A7E5"/>
<path d="M24.5398 31.9307C20.8802 31.9307 17.2806 31.9307 13.621 31.9307C12.6612 31.9307 12.2412 31.5107 12.2412 30.5508C12.2412 25.6914 12.2412 20.832 12.2412 15.9126C12.2412 15.0127 12.7212 14.5327 13.621 14.5327C20.9402 14.5327 28.1993 14.5327 35.5185 14.5327C36.4184 14.5327 36.8983 15.0127 36.8983 15.9126C36.8983 20.772 36.8983 25.6314 36.8983 30.5508C36.8983 31.5107 36.4184 31.9307 35.5185 31.9307C31.8589 31.9307 28.1993 31.9307 24.5398 31.9307Z" fill="#244477"/>
<path d="M28.7395 25.4514C26.8797 25.4514 24.9599 25.4514 23.1002 25.4514C22.5602 25.4514 22.2603 25.2115 22.2603 24.7915C22.2603 24.3716 22.5602 24.1316 23.1002 24.1316C26.8797 24.1316 30.5993 24.1316 34.3788 24.1316C34.9788 24.1316 35.3387 24.4915 35.1587 24.9715C35.0987 25.2715 34.8588 25.4514 34.4388 25.4514C33.4189 25.4514 32.3991 25.4514 31.3792 25.4514C30.4793 25.4514 29.6394 25.4514 28.7395 25.4514Z" fill="#FE4079"/>
<path d="M28.7395 29.171C30.5993 29.171 32.519 29.171 34.3788 29.171C34.5588 29.171 34.7388 29.171 34.9188 29.291C35.1587 29.411 35.2187 29.651 35.2187 29.8909C35.1587 30.1909 35.0387 30.3709 34.7388 30.4309C34.6188 30.4309 34.4388 30.4909 34.3188 30.4909C30.5993 30.4909 26.8797 30.4909 23.1601 30.4909C23.0402 30.4909 22.9202 30.4909 22.8002 30.4909C22.5002 30.4309 22.2603 30.1909 22.2603 29.8909C22.2603 29.591 22.4402 29.351 22.7402 29.291C22.8602 29.291 22.9802 29.291 23.1002 29.291C24.9599 29.171 26.8797 29.171 28.7395 29.171Z" fill="#FBD871"/>
<path d="M28.7395 21.6719C30.5993 21.6719 32.5191 21.6719 34.3789 21.6719C34.6788 21.6719 34.9188 21.7319 35.0988 21.9718C35.2788 22.3318 35.0988 22.7517 34.7388 22.8717C34.6188 22.9317 34.4989 22.9317 34.3189 22.9317C30.5993 22.9317 26.8798 22.9317 23.1002 22.9317C22.9802 22.9317 22.8002 22.9317 22.6803 22.8717C22.4403 22.8117 22.2003 22.5118 22.2603 22.2718C22.2603 22.0318 22.3803 21.7919 22.6803 21.6719C22.8002 21.6119 22.9802 21.6119 23.1602 21.6119C25.02 21.6719 26.8798 21.6719 28.7395 21.6719Z" fill="#228AD0"/>
<path d="M28.7396 27.9712C26.8798 27.9712 25.02 27.9712 23.1602 27.9712C22.6203 27.9712 22.3203 27.7312 22.3203 27.3712C22.3203 26.9513 22.6203 26.7113 23.1602 26.7113C26.9398 26.7113 30.6593 26.7113 34.4389 26.7113C34.5589 26.7113 34.6189 26.7113 34.7389 26.7113C35.0388 26.7713 35.2788 27.0113 35.2788 27.3112C35.2788 27.6112 35.0388 27.8512 34.7389 27.9112C34.6189 27.9112 34.4989 27.9112 34.3789 27.9112C32.4591 27.9712 30.5993 27.9712 28.7396 27.9712Z" fill="#FEFEFE"/>
<path d="M16.8007 30.4909C16.1408 30.4909 15.4809 30.4909 14.8809 30.4909C14.7009 30.4909 14.581 30.4909 14.401 30.4309C14.041 30.3109 13.861 30.0709 13.921 29.711C13.921 29.471 14.221 29.231 14.521 29.231C14.8809 29.231 15.3009 29.231 15.6608 29.231C16.7407 29.231 17.8806 29.231 18.9604 29.231C19.4404 29.231 19.7404 29.531 19.6804 30.0109C19.6204 30.3109 19.3204 30.5509 18.9005 30.5509C18.2405 30.4909 17.5206 30.4909 16.8007 30.4909Z" fill="#0069A2"/>
<path d="M16.8008 25.4514C16.0809 25.4514 15.361 25.4514 14.6411 25.4514C14.1612 25.4514 13.8612 25.0915 13.9212 24.6715C13.9812 24.3716 14.2811 24.1916 14.7611 24.1916C16.0209 24.1916 17.2208 24.1916 18.4806 24.1916C18.7206 24.1916 18.9606 24.1916 19.2006 24.2516C19.6205 24.3716 19.7405 24.5515 19.7405 24.9115C19.7405 25.2115 19.4405 25.4514 19.0806 25.4514C18.3007 25.4514 17.5807 25.4514 16.8008 25.4514Z" fill="#0069A2"/>
<path d="M16.801 21.6719C17.5209 21.6719 18.2408 21.6719 18.9607 21.6719C19.2607 21.6719 19.5007 21.7919 19.6207 22.0318C19.8006 22.3918 19.6207 22.8117 19.2007 22.9317C19.0807 22.9917 18.9007 22.9917 18.7807 22.9917C17.4009 22.9917 16.0811 22.9917 14.7012 22.9917C14.1613 22.9917 13.8613 22.7517 13.8613 22.3318C13.8613 21.9118 14.1613 21.6719 14.7012 21.6719C15.4811 21.6719 16.1411 21.6719 16.801 21.6719Z" fill="#FEFEFE"/>
<path d="M16.801 26.7113C17.5809 26.7113 18.3008 26.7113 19.0807 26.7113C19.3807 26.7113 19.5607 26.8313 19.6806 27.0712C19.8006 27.3112 19.7406 27.5512 19.5607 27.7312C19.4407 27.9111 19.2607 27.9711 19.0807 27.9711C17.5809 27.9711 16.0811 27.9711 14.5213 27.9711C14.1613 27.9711 13.8613 27.6712 13.8613 27.3712C13.8613 27.0113 14.1013 26.7713 14.5213 26.7713C15.3012 26.6513 16.0811 26.7113 16.801 26.7113Z" fill="#FBD871"/>
<path d="M23.3403 21.072C23.1004 21.072 22.9204 20.832 22.9804 20.5921C22.9804 20.5321 23.0404 20.4721 23.0404 20.4121C23.8203 18.7923 24.6002 17.2324 25.3801 15.6126C25.4401 15.4327 25.5601 15.2527 25.8 15.3127C26.1 15.3127 26.22 15.6126 26.1 15.9126C25.5601 17.1125 24.9601 18.2523 24.3602 19.4522C24.1202 19.9321 23.8803 20.3521 23.7003 20.832C23.5803 21.012 23.4603 21.072 23.3403 21.072Z" fill="#FEFEFE"/>
<path d="M27.8998 18.7924C27.5398 18.5524 27.1798 18.3124 26.8198 18.0724C26.5198 17.8924 26.4598 17.6524 26.6398 17.4124C26.8198 17.1724 26.9998 17.1124 27.2998 17.2924C27.8398 17.5924 28.3198 17.9524 28.7998 18.3124C29.2198 18.6124 29.2198 18.9724 28.7998 19.2124C28.2598 19.5724 27.7798 19.8724 27.2398 20.2324C26.9998 20.4124 26.7598 20.3524 26.5798 20.1124C26.3998 19.8724 26.4598 19.6924 26.7598 19.5124C27.1198 19.2724 27.4798 19.0324 27.8998 18.7924Z" fill="#FEFEFE"/>
<path d="M21.1808 18.7924C21.6008 19.0324 21.9008 19.2724 22.2608 19.5124C22.5608 19.6924 22.6208 19.9324 22.4408 20.1724C22.2608 20.4124 22.0808 20.4724 21.7808 20.2924C21.2408 19.9324 20.7608 19.6324 20.2208 19.2724C19.8008 18.9724 19.8008 18.6124 20.2208 18.3724C20.7608 18.0124 21.2408 17.7124 21.7808 17.3524C22.0208 17.1724 22.2608 17.2324 22.4408 17.4724C22.6208 17.7124 22.5608 17.8924 22.2608 18.0724C21.9608 18.3124 21.6008 18.5524 21.1808 18.7924Z" fill="#FEFEFE"/>
</svg>
