<svg width="49" height="49" viewBox="0 0 49 49" fill="none" xmlns="http://www.w3.org/2000/svg">
<rect x="0.0800781" y="0.420227" width="48" height="48" rx="24" fill="#E5E5E5"/>
<g clip-path="url(#clip0_741_26573)">
<path d="M37.0668 27.0112C37.2467 27.1912 37.3067 27.4311 37.3067 27.731C37.3067 29.0507 37.3067 30.3704 37.3067 31.6901C37.3067 32.35 36.8868 32.7699 36.227 32.7699C35.8671 32.7699 35.5071 32.7699 35.0872 32.7699C34.9073 32.7699 34.8473 32.8299 34.7873 33.0098C34.6073 33.7296 34.3074 34.3895 33.9475 34.9893C33.8875 35.1093 33.8875 35.2293 34.0075 35.3493C34.3074 35.5892 34.5474 35.8891 34.8473 36.1891C35.2672 36.669 35.3272 37.2088 34.8473 37.6287C33.8875 38.5885 32.9877 39.5483 32.0279 40.4481C31.5481 40.868 31.0082 40.868 30.5883 40.4481C30.2884 40.1481 30.0484 39.9082 29.7485 39.6083C29.6285 39.4883 29.5685 39.4883 29.3886 39.5483C28.7287 39.9082 28.0689 40.1481 27.409 40.3881C27.2291 40.4481 27.1691 40.5081 27.1691 40.688C27.1691 40.988 27.1691 41.3479 27.1691 41.6478C27.2291 42.2477 26.9891 42.6676 26.4492 42.9075C25.6694 42.9075 24.8896 42.9075 24.1698 42.9075C24.0498 42.7875 24.0498 42.6676 24.0498 42.5476C24.0498 40.748 24.0498 38.9484 24.0498 37.1488C24.0498 37.0889 24.0498 36.9689 24.1098 36.9089C24.1698 36.7289 24.3497 36.7289 24.5297 36.7289C26.3293 36.609 27.9489 35.8891 29.2086 34.5694C30.2884 33.4297 30.9482 32.11 31.1282 30.5504C31.1881 29.8305 31.1881 29.1107 31.0682 28.3909C31.0682 28.3309 31.0082 28.2109 31.0682 28.1509C31.1282 28.031 31.2481 28.031 31.3081 28.031C33.1077 27.731 34.8473 27.4311 36.6469 27.0112C36.7069 27.0112 36.8868 26.8912 37.0668 27.0112Z" fill="#7FA9FE"/>
<path d="M24.11 36.7889C24.11 38.8284 24.11 40.8679 24.11 42.9075C23.3302 42.9075 22.5504 42.9075 21.8305 42.9075C21.2307 42.6075 21.0507 42.1277 21.1107 41.4678C21.1107 41.1079 21.2307 40.748 21.0507 40.448C20.9308 40.1481 20.4509 40.2081 20.1509 40.0881C19.731 39.9082 19.3111 39.7882 18.9512 39.5483C18.7713 39.4283 18.6513 39.4883 18.4713 39.6082C18.2314 39.8482 17.9914 40.1481 17.6915 40.3881C17.2116 40.8679 16.6118 40.8679 16.1919 40.3881C15.2321 39.4883 14.3323 38.5285 13.3725 37.5687C12.9526 37.0888 12.9526 36.549 13.3725 36.0691C13.6724 35.7691 13.9124 35.5292 14.2123 35.2293C14.3323 35.1093 14.3323 35.0493 14.2723 34.9293C13.9124 34.3295 13.6724 33.6696 13.4325 33.0098C13.3725 32.7698 13.2525 32.7098 13.0726 32.7698C12.7127 32.7698 12.3528 32.7698 11.9328 32.7698C11.333 32.7698 10.9131 32.3499 10.9131 31.7501C10.9131 30.4304 10.9131 29.1107 10.9131 27.791C10.9131 27.551 11.0331 27.3111 11.153 27.0712C11.273 26.9512 11.393 27.0112 11.5129 27.0712C13.3725 27.4911 15.2321 27.851 17.0916 28.1509C17.2116 28.1509 17.2716 28.1509 17.3316 28.2709C16.9717 28.9307 17.0317 29.6506 17.0916 30.3704C17.2116 32.11 17.9315 33.6096 19.1312 34.8094C20.2109 35.8891 21.5906 36.549 23.0903 36.7889C23.4502 36.6689 23.7501 36.6689 24.11 36.7889C24.05 36.7889 24.05 36.7289 24.11 36.7889Z" fill="#98CBFE"/>
<path d="M25.3697 8.35553C25.7296 8.4755 26.1495 8.4755 26.5694 8.53549C27.7692 8.71545 28.9089 9.07536 29.9886 9.49526C30.6485 9.79519 30.8884 10.3351 30.5885 10.9949C30.4685 11.2948 30.3486 11.5348 30.2286 11.8347C30.2286 12.0147 30.1686 12.1346 30.1086 12.2546C29.2088 14.2941 28.249 16.3337 27.3493 18.3732C27.2293 18.5532 27.1693 18.7931 27.0493 18.9731C26.7494 19.5129 26.1495 19.6929 25.6696 19.5129C25.0698 19.213 24.8298 18.6131 25.0698 18.0733C25.3697 17.3534 25.6696 16.6936 26.0296 15.9738C26.6894 14.4741 27.4092 12.9145 28.0691 11.4148C28.1891 11.2349 28.1291 11.1149 27.8891 11.0549C27.0493 10.815 26.2095 10.635 25.3697 10.515C24.9498 10.455 24.4699 10.515 24.05 10.3951C24.05 10.3351 23.99 10.3351 23.99 10.2751C23.9301 9.73521 23.99 9.13535 23.99 8.59547C23.99 8.4755 24.05 8.41552 24.11 8.35553C24.23 8.35553 24.29 8.35553 24.4099 8.35553C24.5899 8.41552 24.8298 8.41552 25.0098 8.35553C25.1298 8.35553 25.2497 8.35553 25.3697 8.35553Z" fill="#FE9833"/>
<path d="M24.1101 8.35553C24.1101 9.01538 24.1101 9.73521 24.1101 10.3951C23.9901 10.515 23.8101 10.455 23.6902 10.455C22.5504 10.515 21.4107 10.695 20.3309 10.9949C19.971 11.1149 19.971 11.1149 20.091 11.4148C21.0508 13.5743 22.0105 15.7938 23.0303 17.9533C23.1503 18.2532 23.2103 18.5532 23.0903 18.9131C22.9103 19.333 22.6104 19.5729 22.1305 19.6329C21.6506 19.6329 21.3507 19.4529 21.1108 19.033C20.6309 18.1932 20.3309 17.2934 19.911 16.4536C19.3112 15.074 18.6513 13.6943 18.0515 12.3146C17.9915 12.1946 17.9315 12.0147 17.9315 11.8947C17.8115 11.5948 17.6916 11.2948 17.5716 11.0549C17.3316 10.3951 17.5116 9.91517 18.1115 9.61524C19.5511 9.01538 21.0508 8.65546 22.5504 8.4755C22.6104 8.4755 22.7304 8.4755 22.7304 8.41552C22.9103 8.41552 23.1503 8.41552 23.3302 8.41552C23.4502 8.4755 23.6302 8.4755 23.7501 8.41552C23.9301 8.35553 23.9901 8.35553 24.1101 8.35553Z" fill="#FEC24D"/>
<path d="M24.9501 8.35553C24.7701 8.47553 24.5301 8.47553 24.3501 8.35553C24.5301 8.35553 24.7701 8.35553 24.9501 8.35553Z" fill="#FEA440"/>
<path d="M23.8101 8.35553C23.6901 8.47553 23.5101 8.47553 23.3901 8.35553C23.5701 8.35553 23.6901 8.35553 23.8101 8.35553Z" fill="#FECC6A"/>
<path d="M17.3316 28.2109C16.3718 28.031 15.412 27.911 14.4522 27.731C13.3725 27.4911 12.2328 27.2512 11.153 27.0112C10.6731 26.8912 10.1932 26.7713 9.77333 26.6513C9.17347 26.4713 8.87354 26.1714 8.87354 25.5116C8.87354 24.5518 8.87354 23.652 8.87354 22.6922C8.87354 21.9724 9.29344 21.6125 10.0133 21.6125C10.3732 21.6125 10.7331 21.6125 11.033 21.6125C11.153 21.4925 11.333 21.4925 11.5129 21.4925C15.532 21.4925 19.611 21.4925 23.6301 21.4925C23.8101 21.4925 23.93 21.4925 24.11 21.6125C24.23 21.7324 24.23 21.9124 24.23 22.0924C24.23 24.1319 24.23 26.2314 24.23 28.2709C24.23 28.3909 24.23 28.5708 24.17 28.6908C23.99 28.8708 23.8101 28.8108 23.6301 28.8108C22.1304 28.8108 20.6908 28.6908 19.2511 28.5109C18.7712 28.4509 18.2314 28.3909 17.7515 28.3309C17.5715 28.2709 17.4515 28.2709 17.3316 28.2109Z" fill="#FEC24D"/>
<path d="M24.1102 21.5525C19.7912 21.5525 15.4123 21.5525 11.0933 21.5525C11.2732 20.5927 11.5132 19.6329 11.8731 18.6731C13.0728 15.7338 15.0523 13.5143 17.7517 11.9547C17.8117 11.8947 17.8717 11.8947 17.9317 11.8347C19.0114 14.1742 20.0312 16.5136 21.0509 18.8531C21.1709 19.153 21.4109 19.393 21.7108 19.5129C22.0707 19.6329 22.4306 19.5729 22.7306 19.273C23.0305 19.0331 23.1505 18.6731 23.0305 18.2532C22.7905 17.7134 22.5506 17.1735 22.3106 16.6336C21.5308 14.894 20.751 13.0944 19.9112 11.3548C19.7912 11.1149 19.8512 11.0549 20.0912 10.9949C21.0509 10.695 21.9507 10.4551 22.9705 10.3951C23.3304 10.3951 23.7503 10.3351 24.1102 10.3351C24.2302 10.515 24.1702 10.635 24.1702 10.815C24.1702 14.2342 24.1702 17.7134 24.1702 21.1326C24.1702 21.2525 24.1702 21.3725 24.1102 21.5525Z" fill="#FEE566"/>
<path d="M24.1099 28.6308C24.1099 26.2914 24.1099 23.8919 24.1099 21.5525C24.2298 21.4325 24.4098 21.4325 24.5298 21.4325C28.6088 21.4325 32.6279 21.4325 36.7069 21.4325C36.8869 21.4325 37.0069 21.4325 37.1868 21.5525C37.5467 21.5525 37.9067 21.5525 38.3266 21.5525C38.9264 21.5525 39.3463 21.9724 39.3463 22.5722C39.3463 23.592 39.3463 24.5518 39.3463 25.5715C39.3463 26.1114 39.1064 26.4713 38.5665 26.5913C38.0866 26.7113 37.6067 26.8312 37.1268 26.9512C35.2673 27.3711 33.3477 27.731 31.4881 28.031C31.3682 28.031 31.1882 28.031 31.0682 28.0909C31.0083 28.2109 30.8283 28.2109 30.7083 28.2109C30.1685 28.2709 29.6286 28.3909 29.0887 28.3909C27.649 28.5708 26.1494 28.6908 24.7097 28.6908C24.4098 28.7508 24.2298 28.8108 24.1099 28.6308Z" fill="#FE9833"/>
<path d="M37.1268 21.5525C32.7478 21.5525 28.4288 21.5525 24.0498 21.5525C24.0498 17.8333 24.0498 14.0542 24.0498 10.3351C25.3695 10.3351 26.6892 10.575 27.9489 10.9349C28.3088 11.0549 28.2488 11.1749 28.1289 11.4148C27.1091 13.6343 26.1493 15.8538 25.1296 18.0733C24.9496 18.4932 25.0696 19.0331 25.3695 19.273C25.7294 19.5729 26.1493 19.6329 26.6292 19.333C26.9891 19.093 27.0491 18.7331 27.2291 18.3732C28.0089 16.6936 28.7287 15.014 29.4485 13.3344C29.6885 12.7945 29.9284 12.3146 30.1684 11.7747C31.4881 12.4946 32.6878 13.3944 33.7076 14.5341C35.4472 16.4537 36.5269 18.6731 37.0068 21.1926C37.0668 21.3725 37.1268 21.4925 37.1268 21.5525Z" fill="#FEC24D"/>
<path d="M28.9688 28.3909C29.6287 28.3309 30.2885 28.2109 30.9483 28.1509C31.1283 28.4509 31.1283 28.8108 31.1283 29.1107C31.1883 30.3704 31.0083 31.5701 30.4685 32.7099C29.6287 34.3895 28.3689 35.5892 26.6294 36.2491C25.7895 36.549 24.9497 36.7289 24.05 36.7289C23.99 36.669 23.93 36.549 23.93 36.489C23.93 35.9491 23.87 35.3493 23.93 34.8094C23.99 34.6294 24.1699 34.6294 24.2899 34.6294C25.3097 34.5095 26.2094 34.2095 27.0493 33.6097C28.309 32.5899 28.9688 31.2102 28.9688 29.5906C28.9688 29.2907 28.9088 29.0507 28.8488 28.7508C28.9688 28.6308 28.9088 28.5109 28.9688 28.3909Z" fill="#6680FE"/>
<path d="M24.1102 34.7494C24.1102 35.4093 24.1102 36.0691 24.1102 36.7889C22.0107 36.7889 20.2111 35.9491 18.8315 34.4495C17.8717 33.3697 17.2718 32.05 17.0919 30.6104C17.0319 29.9505 17.0319 29.2907 17.0919 28.6308C17.0919 28.4509 17.0919 28.2109 17.3918 28.2109C17.9917 28.2709 18.5915 28.3309 19.1914 28.4509C19.3113 28.5709 19.2514 28.7508 19.1914 28.9308C19.0114 30.2505 19.2514 31.4502 19.9712 32.4699C20.871 33.7896 22.1307 34.5695 23.7503 34.6894C23.8703 34.6894 23.9903 34.6294 24.1102 34.7494Z" fill="#80A9FE"/>
</g>
<defs>
<clipPath id="clip0_741_26573">
<rect width="32.2125" height="34.6119" fill="white" transform="translate(7.97363 8.29553)"/>
</clipPath>
</defs>
</svg>
