<svg width="49" height="48" viewBox="0 0 49 48" fill="none" xmlns="http://www.w3.org/2000/svg">
<rect x="0.540039" width="48" height="48" rx="24" fill="#FEF6D0"/>
<g clip-path="url(#clip0_806_8126)">
<path d="M15.2411 10.3584C21.0004 10.3584 26.7597 10.3584 32.459 10.3584C33.0589 10.4784 33.2989 10.8383 33.3589 11.4983C33.3589 12.2782 33.3589 13.1181 33.3589 13.898C33.3589 17.5575 33.3589 21.2771 33.3589 24.9366C33.3589 25.1166 33.4189 25.3565 33.2389 25.5365C33.1189 25.6565 32.9389 25.6565 32.819 25.6565C29.5194 25.6565 26.2198 25.6565 22.9202 25.6565C22.8002 25.6565 22.6202 25.6565 22.5002 25.5965C22.4402 25.5365 22.3802 25.4765 22.3802 25.4165C22.3802 24.7566 22.3203 24.0967 22.3802 23.4968C22.5002 23.2568 22.6202 23.4368 22.8002 23.4968C23.4001 23.8567 23.8201 23.8567 24.18 23.4368C24.3 23.3168 24.36 23.1968 24.42 23.0168C24.72 22.2369 25.0199 21.517 25.2599 20.7371C25.3799 20.4372 25.4999 20.1372 25.6199 19.8972C25.6798 19.7772 25.7398 19.5973 25.8598 19.5373C25.9798 19.4773 26.1598 19.5373 26.2798 19.5373C28.0795 19.5373 29.8793 19.5373 31.6791 19.5373C31.7991 19.5373 31.8591 19.5373 31.9791 19.5373C32.279 19.4773 32.459 19.3573 32.459 19.0573C32.459 18.9373 32.459 18.8174 32.459 18.7574C32.459 17.0176 32.459 15.2778 32.459 13.538C32.459 13.418 32.459 13.298 32.459 13.238C32.399 12.8781 32.279 12.7581 31.9191 12.7581C31.4991 12.7581 31.1392 12.7581 30.7192 12.7581C28.5595 12.7581 26.3998 12.7581 24.3 12.7581C24.18 12.7581 24 12.7581 23.8801 12.8181C23.6401 12.9381 23.5801 13.1181 23.5801 13.358C23.5801 13.958 23.5801 14.6179 23.5801 15.2178C23.5801 16.4177 23.5801 17.6775 23.5801 18.8773C23.5801 19.0573 23.5801 19.2973 23.7001 19.4773C23.8201 19.7772 23.5801 20.0172 23.5201 20.3172C23.4601 20.4971 23.4001 20.6171 23.3401 20.7971C23.1602 21.2771 22.8002 21.397 22.3802 21.1571C21.9603 20.9171 21.6003 20.6771 21.2404 20.3772C20.8804 20.1372 20.5205 19.9572 20.1005 19.8372C19.9805 19.8372 19.8606 19.8372 19.7406 19.7172C19.7406 19.5373 19.9206 19.5373 20.0405 19.5373C21.3004 19.1173 21.8403 17.7375 21.1204 16.5976C20.7604 15.9977 19.8006 15.4578 18.9007 15.8177C17.6408 16.2977 17.2809 17.6175 17.8208 18.6374C18.0608 19.0573 18.4207 19.3573 18.9007 19.5373C19.0207 19.5973 19.1406 19.5973 19.2006 19.6573C19.1406 19.8372 19.0207 19.7772 18.9007 19.8372C18.4807 19.9572 18.0608 20.0772 17.7008 20.3772C16.8009 21.0371 16.501 21.937 16.501 23.0168C16.501 23.7967 16.501 24.5766 16.501 25.3565C16.501 25.5365 16.501 25.6565 16.381 25.7765C15.901 25.8965 15.3611 25.8365 14.8812 25.8365C14.7012 25.8365 14.5212 25.8365 14.3412 25.7765C14.2813 25.6565 14.2812 25.5365 14.2812 25.3565C14.2812 21.817 14.2812 18.3374 14.2812 14.7979C14.2812 14.7379 14.2812 14.6779 14.2812 14.6179C14.2812 13.958 14.2812 13.298 14.2812 12.6381C14.2812 12.3382 14.2812 12.0382 14.2812 11.7382C14.2812 11.4383 14.3412 11.1983 14.5212 10.9583C14.7012 10.4784 14.9412 10.4184 15.2411 10.3584Z" fill="#4FAAF6"/>
<path d="M9.36182 32.9756C9.36182 32.4957 9.36182 32.0757 9.36182 31.5958C9.42181 31.5358 9.54179 31.4758 9.66178 31.4758C10.2617 31.4758 10.8016 31.4758 11.4016 31.4758C12.4214 31.4758 13.4413 31.4758 14.4012 31.4758C15.661 31.4158 16.9809 31.4758 18.2407 31.4758C18.6607 31.4758 19.0806 31.4758 19.5006 31.4758C19.6205 31.4758 19.7405 31.4758 19.8605 31.4758C24.12 31.4758 28.3795 31.4758 32.6389 31.4758C32.8189 31.4758 33.0589 31.4758 33.2389 31.4758C33.4188 31.5358 33.5388 31.5358 33.7188 31.5358C35.0986 31.5358 36.5385 31.5358 37.9183 31.5358C38.3982 31.5358 38.3982 31.5958 38.4582 32.0157C38.4582 32.1957 38.4582 32.4357 38.4582 32.6156C38.4582 33.5155 37.9183 34.2354 37.0184 34.5354C37.3784 34.4754 37.7383 34.3554 38.0983 34.5954C38.0383 34.7754 37.8583 34.7154 37.7383 34.7154C37.4383 34.7154 37.1384 34.7154 36.8384 34.7154C34.1987 34.7154 31.5591 34.7154 28.9194 34.7154C28.8594 34.7154 28.7394 34.7154 28.6794 34.7154C28.3795 34.7154 28.3195 34.7754 28.3195 35.0753C28.3195 36.0952 28.3195 37.1151 28.3195 38.135C28.3195 38.3149 28.3195 38.4949 28.2595 38.6149C28.2595 38.6749 28.1995 38.6749 28.1395 38.6149C28.0195 38.4949 28.0795 38.3149 28.0795 38.135C28.0795 37.1151 28.0795 36.0952 28.0795 35.1353C28.0795 34.7154 28.0795 34.7154 27.6596 34.7154C25.6798 34.7154 23.7 34.7154 21.7203 34.7154C21.3003 34.7154 21.3003 34.7154 21.3003 35.1353C21.3003 36.1552 21.3003 37.1751 21.3003 38.135C21.3003 38.3149 21.3003 38.4349 21.2403 38.6149C21.2403 38.6749 21.1804 38.6749 21.1204 38.6749C21.0004 38.5549 21.0004 38.3749 21.0004 38.195C21.0004 37.2351 21.0004 36.2152 21.0004 35.2553C21.0004 34.7154 21.0004 34.7154 20.4604 34.7154C17.6408 34.7154 14.8211 34.7154 12.0615 34.7154C11.8215 34.7154 11.5815 34.7154 11.4016 34.6554C10.1417 34.5954 9.60179 34.0555 9.36182 32.9756Z" fill="#E8EEFE"/>
<path d="M11.4016 31.5958C10.7416 31.5958 10.0817 31.5958 9.36182 31.5958C9.36182 25.7765 9.36182 19.8972 9.36182 14.0779C9.54179 12.9981 10.3217 12.3382 11.5215 12.3382C12.3614 12.3382 13.2013 12.3382 13.9812 12.3382C14.1012 12.3382 14.2812 12.3381 14.4012 12.4581C14.4012 13.1181 14.4012 13.778 14.4012 14.4979C14.2812 14.4979 14.1612 14.4979 13.9812 14.4979C13.5013 14.4979 13.0814 14.4979 12.6014 14.4979C11.8215 14.4979 11.4616 14.8578 11.4616 15.6377C11.4616 19.1173 11.4616 22.5969 11.4616 26.0765C11.4616 27.7562 11.4616 29.376 11.4616 31.0558C11.4616 31.2358 11.5215 31.4158 11.4016 31.5958Z" fill="#3C589F"/>
<path d="M39.7178 14.0779C39.7178 19.8972 39.7178 25.7765 39.7178 31.5958C39.6578 31.6558 39.5378 31.7158 39.4179 31.7158C39.0579 31.7158 38.638 31.7758 38.278 31.6558C38.158 31.4758 38.158 31.2958 38.158 31.1158C38.158 29.376 38.158 27.6363 38.158 25.8965C38.158 22.1169 38.158 18.3974 38.158 14.6179C38.158 13.658 37.7381 12.9981 36.8982 12.5781C36.8382 12.5181 36.7182 12.5181 36.6582 12.4581C36.6582 12.3381 36.7782 12.3381 36.8382 12.3381C37.2581 12.3381 37.6781 12.2782 38.158 12.3981C38.9979 12.5781 39.5978 13.1181 39.7178 14.0779Z" fill="#2A428B"/>
<path d="M28.0797 38.6749C28.6796 38.6749 29.2795 38.6749 29.9395 38.6749C30.2394 38.7949 30.2994 38.9749 30.2994 39.2748C30.2994 39.5748 30.2994 39.8148 30.2994 40.1147C30.2994 40.4147 30.1794 40.6547 29.8795 40.7147C25.86 40.7147 21.8405 40.7147 17.821 40.7147C17.581 40.5947 17.521 40.3547 17.521 40.0547C17.521 39.7548 17.521 39.4548 17.521 39.2148C17.521 38.8549 17.701 38.7349 18.0609 38.7349C19.0208 38.7349 20.0407 38.7349 21.0006 38.7349H21.0606C21.1206 38.6749 21.2405 38.6149 21.3605 38.6149C21.9005 38.6149 22.5004 38.6149 23.0403 38.6149C23.3403 38.6149 23.6402 38.6149 23.9402 38.6149C24.3602 38.6149 24.7201 38.6149 25.1401 38.6149C25.44 38.6149 25.74 38.6149 26.0399 38.6149C26.5799 38.6149 27.1798 38.6149 27.7197 38.6149C27.8397 38.6149 27.9597 38.6149 28.0197 38.7349C28.0197 38.6749 28.0797 38.6749 28.0797 38.6749Z" fill="#E8EEFE"/>
<path d="M33.2389 25.5365C33.2389 20.9171 33.2389 16.2977 33.2389 11.6782C33.2389 11.0783 32.9989 10.6584 32.459 10.4184C32.9389 10.4184 33.4189 10.4184 33.8988 10.4184C34.4387 10.5384 34.7387 10.8383 34.7387 11.4383C34.7387 11.7982 34.7387 12.0982 34.7387 12.4581C34.7387 13.1181 34.7387 13.778 34.7387 14.4379C34.7387 14.4979 34.7387 14.4979 34.7387 14.5579C34.7387 14.6779 34.7387 14.7379 34.7387 14.8578C34.7387 18.2774 34.7387 21.637 34.7387 25.0566C34.7387 25.2366 34.7387 25.4165 34.6787 25.5965C34.6187 25.6565 34.5587 25.7165 34.4387 25.7165C34.0788 25.6565 33.6588 25.7165 33.2389 25.5365Z" fill="#1885E9"/>
<path d="M38.2781 31.5958C38.7581 31.5958 39.238 31.5958 39.718 31.5958C39.718 32.0757 39.718 32.5557 39.718 33.0356C39.538 33.6955 39.118 34.2355 38.4581 34.5354C38.2781 34.5954 38.1582 34.6554 37.9782 34.6554C37.6182 34.6554 37.2583 34.6554 36.8383 34.6554C37.0783 34.4754 37.3783 34.4154 37.5582 34.2355C38.0982 33.7555 38.3381 33.1556 38.2781 32.4357C38.2182 31.7158 38.2781 31.7158 37.5582 31.7158C36.2384 31.7158 34.9186 31.7158 33.5987 31.7158C33.4787 31.7158 33.3588 31.7758 33.2388 31.6558C33.2388 31.6558 33.2388 31.6558 33.2988 31.5958C33.7787 31.4758 34.1987 31.5358 34.6786 31.5358C35.2185 31.5358 35.7585 31.5358 36.2384 31.5358C36.6583 31.5358 37.1383 31.5358 37.5582 31.5358C37.6182 31.5358 37.6182 31.5358 37.6782 31.5358C37.8582 31.4758 38.0982 31.4758 38.2781 31.5958Z" fill="#D2DBFA"/>
<path d="M29.8794 40.7149C30.1194 40.5349 30.2994 40.2949 30.2394 39.9949C30.2394 39.8149 30.2394 39.6349 30.2394 39.5149C30.2394 39.2149 30.1794 38.9149 29.9394 38.7349C30.2994 38.7349 30.7194 38.7349 31.0794 38.7349C31.4394 38.7349 31.6794 38.9749 31.6794 39.2749C31.6794 39.5749 31.6794 39.8749 31.6794 40.1749C31.6794 40.4149 31.4994 40.5949 31.3194 40.7149C30.7794 40.7149 30.3594 40.7149 29.8794 40.7149Z" fill="#D2DBFA"/>
<path d="M33.2387 31.5958C28.7992 31.5958 24.3598 31.5958 19.9203 31.5958C19.8003 31.5958 19.6203 31.5958 19.5004 31.5958C19.3804 31.4758 19.3804 31.3558 19.3804 31.1758C19.3804 29.436 19.3804 27.6963 19.3804 25.8965C19.3804 25.7765 19.3804 25.5965 19.4404 25.4765C19.5004 25.4165 19.6203 25.3565 19.7403 25.3565C20.3403 25.3565 20.9402 25.3565 21.5401 25.3565C21.8401 25.3565 22.2 25.2366 22.5 25.4165C23.3399 25.4165 24.2398 25.4165 25.0797 25.4165C27.7793 25.4165 30.479 25.4165 33.1787 25.4165C33.3586 25.6565 33.3586 25.8365 33.3586 25.9565C33.3586 27.6963 33.3586 29.436 33.3586 31.1758C33.3586 31.2958 33.3586 31.4758 33.2387 31.5958Z" fill="#D2DBFA"/>
<path d="M11.4014 31.5958C11.4014 26.2564 11.4014 20.9171 11.4014 15.5778C11.4014 14.8578 11.8213 14.4379 12.4812 14.4379C13.1412 14.4379 13.7411 14.4379 14.401 14.4379C14.401 18.0375 14.401 21.577 14.401 25.1766C14.401 25.2966 14.401 25.4765 14.401 25.5965C14.521 25.7165 14.461 25.8365 14.461 26.0165C14.461 27.7563 14.461 29.496 14.461 31.2358C14.461 31.3558 14.461 31.5358 14.341 31.6558C13.3811 31.5958 12.3612 31.5958 11.4014 31.5958Z" fill="#9AD7F8"/>
<path d="M23.7 19.3573C23.58 19.2373 23.52 19.1173 23.52 18.9373C23.52 16.9576 23.52 14.9778 23.52 12.9981C23.52 12.7581 23.58 12.5781 23.88 12.4581C24 12.3981 24.06 12.4581 24.1799 12.4581C26.3397 12.4581 28.4994 12.4581 30.6591 12.4581C31.1391 12.4581 31.3191 12.5781 31.3191 13.1181C31.3191 14.3779 31.3191 15.5778 31.3191 16.8376C31.3191 17.4375 31.3191 18.0974 31.3191 18.6974C31.3191 18.8174 31.3191 18.9973 31.2591 19.1173C31.1991 19.4173 31.0791 19.5373 30.7191 19.5373C30.3592 19.5373 29.9992 19.5373 29.5793 19.5373C28.3194 19.5373 27.1196 19.5373 25.8597 19.5373C25.6798 19.4773 25.7397 19.3573 25.7997 19.2373C25.8597 19.0573 25.9797 18.8773 25.8597 18.6374C25.8597 18.4574 25.8597 18.3374 25.9197 18.1574C26.2197 17.0776 26.4597 15.9377 26.7596 14.8578C26.7596 14.7379 26.8196 14.6779 26.8196 14.5579C26.8196 14.3779 26.7596 14.2579 26.5196 14.1979C26.3397 14.1379 26.2197 14.1979 26.0997 14.3779C26.1597 14.4379 26.1597 14.5579 26.0997 14.6779C25.8597 15.5778 25.6198 16.4776 25.4398 17.3775C25.3798 17.4975 25.3798 17.6775 25.2598 17.7975C25.1398 17.8575 24.9598 17.8575 24.8399 17.8575C24.6599 17.9175 24.5399 17.9775 24.4199 18.0974C24.1199 18.3374 24.1199 18.7574 23.94 19.0573C23.88 19.1773 23.88 19.2973 23.7 19.3573Z" fill="#E8EEFE"/>
<path d="M14.4014 31.5958C14.4014 29.556 14.4014 27.5763 14.4014 25.5365C15.0613 25.5365 15.7212 25.5365 16.4411 25.5365C16.5611 25.4165 16.6811 25.4165 16.8011 25.4165C17.581 25.4165 18.3009 25.4165 19.0808 25.4165C19.2008 25.4165 19.3808 25.4165 19.5007 25.5365C19.5007 27.5163 19.5007 29.556 19.5007 31.5358C19.0808 31.5358 18.7208 31.5358 18.3009 31.5358C16.981 31.5958 15.7212 31.5958 14.4014 31.5958Z" fill="#F4EA37"/>
<path d="M19.5004 25.5365C18.6005 25.5365 17.7006 25.5365 16.7407 25.5365C16.6208 25.5365 16.5008 25.5365 16.4408 25.5365C16.4408 24.3967 16.3808 23.3168 16.5008 22.1769C16.5608 21.277 16.9807 20.6171 17.7606 20.0772C17.8806 20.0172 17.9406 20.1372 18.0606 20.1972C18.3605 20.4372 18.6005 20.6171 18.9005 20.8571C19.3204 21.2171 19.7404 21.2171 20.1603 20.8571C20.4603 20.6171 20.7602 20.3772 21.0002 20.1972C21.1202 20.1372 21.1802 20.0172 21.3002 20.0772C21.6601 20.3172 22.0201 20.5571 22.44 20.7971C22.86 21.0971 23.1599 20.9771 23.3999 20.4971C23.4599 20.3772 23.5199 20.1972 23.5799 20.0772C23.8799 20.0172 24.0598 20.0772 24.2398 20.3172C24.2398 20.4372 24.2398 20.5571 24.1798 20.6771C23.8799 21.517 23.5799 22.3569 23.2199 23.1368C23.1599 23.3168 23.1 23.4968 22.92 23.4968C22.8 23.4368 22.74 23.3768 22.62 23.3168C22.5 23.1968 22.5 23.0168 22.5 22.8968C22.5 22.7169 22.5 22.5969 22.44 22.4169C22.38 22.2969 22.3201 22.1769 22.2001 22.1769C22.0201 22.1769 21.9601 22.2369 21.8401 22.3569C21.7201 22.5369 21.7201 22.7169 21.7201 22.8968C21.7201 23.6168 21.7201 24.3967 21.7201 25.1166C21.7201 25.2366 21.7201 25.4165 21.6001 25.5365C20.8802 25.5365 20.1603 25.5365 19.5004 25.5365Z" fill="#4ED3DD"/>
<path d="M25.8596 19.4173C27.4194 19.4173 29.0392 19.4173 30.5991 19.4173C31.019 19.4173 31.199 19.2973 31.199 18.8174C31.199 17.6175 31.199 16.4177 31.199 15.2178C31.199 14.4979 31.199 13.718 31.199 12.9981C31.199 12.5781 31.019 12.4581 30.659 12.4581C28.3793 12.4581 26.0996 12.4581 23.8799 12.4581C23.9999 12.3981 24.0599 12.3981 24.1798 12.3981C26.7595 12.3981 29.3992 12.3981 31.9789 12.3981C32.3988 12.3981 32.6388 12.5781 32.6388 12.9981C32.6388 14.9178 32.6388 16.8976 32.6388 18.8174C32.6388 19.2973 32.3988 19.4773 31.9189 19.4773C29.9391 19.4773 27.8994 19.4773 25.8596 19.4173Z" fill="#D2DBFA"/>
<path d="M18.8409 19.3578C17.9409 18.9978 17.4609 18.3378 17.4609 17.4378C17.4609 16.5378 18.0009 15.8778 18.8409 15.5778C19.6209 15.8178 19.9809 16.3578 20.1609 17.1378C20.3409 17.9778 19.9209 18.8778 19.1409 19.2978C19.0209 19.2978 18.9609 19.3578 18.8409 19.3578Z" fill="#FBAC6D"/>
<path d="M18.8408 19.3578C19.2008 19.1178 19.5608 18.8778 19.8008 18.5178C20.4008 17.5578 20.1008 16.1778 19.0808 15.6978C18.9608 15.6378 18.9008 15.6378 18.8408 15.5178C19.8608 15.1578 21.0008 15.6978 21.3608 16.7778C21.7208 17.8578 21.1808 18.9978 20.1008 19.3578C19.9808 19.4178 19.8608 19.4178 19.6808 19.4778C19.5008 19.6578 19.3208 19.5978 19.1408 19.4778C19.0808 19.4178 18.9608 19.4178 18.8408 19.3578Z" fill="#FC985B"/>
<path d="M22.8003 23.4972C22.9803 23.2572 23.0403 22.8972 23.1603 22.5372C23.4003 21.7572 23.5803 21.0372 23.8203 20.2572C23.8203 20.2572 23.8803 20.2572 23.8803 20.1972C24.1803 20.3172 24.5403 20.3772 24.7803 20.6172C24.5403 21.4572 24.3003 22.2972 24.0603 23.1372C23.8803 23.7372 23.2803 24.0972 22.8003 23.4972Z" fill="#4ED3DD"/>
<path d="M19.2007 19.4773C19.3807 19.4773 19.5607 19.4773 19.7407 19.4773C20.2807 19.5373 20.8207 19.7173 21.2407 20.0773C20.8807 20.3773 20.5207 20.6773 20.1607 20.9173C19.6807 21.2773 19.2007 21.2773 18.7807 20.9173C18.4207 20.6173 18.0607 20.3773 17.7007 20.0773C18.1207 19.7173 18.6607 19.5973 19.2007 19.4773Z" fill="#E8EEFE"/>
<path d="M22.02 25.5369C22.02 24.7569 22.02 24.0369 22.02 23.2569C22.02 23.1969 22.02 23.0769 22.02 23.0169C22.08 22.8369 22.2 22.7169 22.38 22.7169C22.56 22.7169 22.68 22.8969 22.68 23.0769C22.68 23.3169 22.68 23.4969 22.68 23.7369C22.68 24.3369 22.68 24.9369 22.68 25.4769C22.5 25.5369 22.26 25.5369 22.02 25.5369Z" fill="#4ED3DD"/>
<path d="M25.3801 20.7375C24.9601 20.6175 24.6001 20.4975 24.1801 20.3175C24.0601 20.1975 24.1201 20.0775 24.1801 19.9575C24.3001 19.7175 24.3601 19.4775 24.4801 19.2375C24.6001 18.9375 24.6601 18.5775 24.4201 18.2775C24.3601 18.2175 24.3001 18.0975 24.3601 18.0375C24.6001 17.7375 24.9001 17.7375 25.2601 17.7375C25.3801 17.9175 25.2601 18.0375 25.2601 18.2175C25.2601 18.3375 25.2001 18.5175 25.2601 18.6375C25.3801 18.8175 25.6201 18.8775 25.8001 18.6975C25.8601 18.6375 25.9201 18.5175 26.0401 18.5175C26.1601 18.6975 26.0401 18.9375 25.9801 19.1175C25.9801 19.2375 25.9201 19.2975 25.8601 19.4175C25.8601 19.4175 25.8601 19.4775 25.8001 19.4775C25.6801 19.8975 25.5001 20.3175 25.3801 20.7375Z" fill="#FC985B"/>
<path d="M24.36 18.0374C24.66 18.4574 24.72 18.8774 24.48 19.3574C24.36 19.6574 24.18 19.9574 24.18 20.3174C24 20.1974 23.76 20.1374 23.52 20.0774C23.58 19.8374 23.7 19.5974 23.76 19.3574C23.88 19.0574 24 18.7574 24.12 18.5174C24.12 18.2774 24.18 18.1574 24.36 18.0374Z" fill="#FBAC6D"/>
<path d="M23.0402 38.6749C22.3803 38.6749 21.7204 38.6749 21.0005 38.6749C21.0005 37.4151 21.0005 36.2152 21.0005 34.9554C21.0005 34.7154 21.0605 34.5954 21.3005 34.5954C23.4002 34.5954 25.5599 34.5954 27.6597 34.5954C27.9596 34.5954 27.9596 34.7154 27.9596 34.9554C27.9596 36.2152 27.9596 37.4151 27.9596 38.6749C27.2997 38.6749 26.6398 38.6749 25.9199 38.6749C25.7999 38.5549 25.8599 38.4349 25.7999 38.315C25.7999 37.955 25.7999 37.595 25.7999 37.2351C25.7999 36.6352 25.4399 36.2752 24.84 36.2752C24.5401 36.2752 24.2401 36.2752 24.0001 36.2752C23.4002 36.2752 23.1002 36.6352 23.0402 37.2351C23.0402 37.595 23.0402 37.955 23.0402 38.315C23.1602 38.4349 23.1602 38.5549 23.0402 38.6749Z" fill="#D2DBFA"/>
<path d="M38.2783 31.5958C38.0983 31.5958 37.8583 31.5958 37.6783 31.5958C37.5584 31.4158 37.6183 31.2358 37.6183 31.0558C37.6183 25.9565 37.6183 20.8571 37.6183 15.8177C37.6183 15.6977 37.6183 15.5178 37.6183 15.3978C37.4984 14.7979 37.1384 14.5579 36.5385 14.5579C36.0585 14.5579 35.5786 14.5579 35.0387 14.5579C34.9187 14.5579 34.7987 14.5579 34.6787 14.4979C34.6787 13.838 34.6787 13.1781 34.6787 12.4581C35.3386 12.4581 35.9985 12.4581 36.7185 12.4581C37.1984 12.6381 37.6183 12.8181 37.9183 13.238C38.1583 13.598 38.3383 13.958 38.3383 14.4379C38.2783 20.1372 38.2783 25.8365 38.2783 31.5958Z" fill="#3C589F"/>
<path d="M23.04 38.6752C23.04 38.1952 23.04 37.7152 23.04 37.2352C23.04 36.5752 23.46 36.1552 24.12 36.1552C24.42 36.1552 24.72 36.1552 25.02 36.1552C25.62 36.1552 26.04 36.5752 26.04 37.1752C26.04 37.6552 26.04 38.1352 26.04 38.6752C25.74 38.6752 25.44 38.6752 25.14 38.6752C24.96 38.6152 24.96 38.4952 24.96 38.3152C24.96 38.0152 24.96 37.7752 24.96 37.4752C24.96 37.2952 24.9 37.1752 24.66 37.1752C24.06 37.1152 24.06 37.1752 24.06 37.7152C24.06 37.8952 24.06 38.1352 24.06 38.3152C24.06 38.4352 24.06 38.5552 23.88 38.6152C23.64 38.6752 23.34 38.6752 23.04 38.6752Z" fill="#BDC7F6"/>
<path d="M23.9399 38.6751C24.0599 38.2551 23.9999 37.8951 23.9999 37.4751C23.9999 37.0551 23.9999 37.0551 24.4199 37.0551C25.0799 37.0551 25.0799 37.0551 25.0799 37.7151C25.0799 38.0151 25.0199 38.3151 25.1399 38.6751C24.7199 38.6751 24.2999 38.6751 23.9399 38.6751Z" fill="#D2DBFA"/>
<path d="M36.2384 31.5958C35.6985 31.5958 35.1585 31.5958 34.6186 31.5958C34.5586 31.4758 34.5586 31.2958 34.5586 31.1758C34.5586 29.436 34.5586 27.6963 34.5586 25.9565C34.5586 25.8365 34.5586 25.6565 34.6786 25.5365C34.6786 21.937 34.6786 18.3374 34.6786 14.6779C34.6786 14.6179 34.6786 14.4979 34.6786 14.4379C34.9785 14.3779 35.2785 14.3779 35.6385 14.4379C36.0584 14.4979 36.2384 14.7978 36.3584 15.1578C36.3584 15.3378 36.3584 15.5178 36.3584 15.6977C36.3584 20.7971 36.3584 25.8965 36.3584 31.0558C36.3584 31.2358 36.4184 31.4158 36.2384 31.5958Z" fill="#9AD7F8"/>
<path d="M36.2385 31.5958C36.2385 26.2564 36.2385 20.9171 36.2385 15.5778C36.2385 15.2778 36.1785 15.0378 35.9985 14.7979C35.8186 14.5579 35.5786 14.4379 35.2786 14.4979C35.0987 14.4979 34.8587 14.4979 34.6787 14.4979V14.4379C35.3386 14.4379 35.9985 14.4379 36.5985 14.4379C37.1984 14.4379 37.5584 14.7379 37.6783 15.3378C37.6183 15.4578 37.6783 15.5778 37.6783 15.6977C37.6783 20.9171 37.6783 26.0765 37.6783 31.2958C37.6783 31.4158 37.6783 31.5358 37.6783 31.6558C37.1384 31.5958 36.7185 31.5958 36.2385 31.5958Z" fill="#73C2F8"/>
<path d="M34.6786 25.5365C34.6786 27.5763 34.6786 29.556 34.6786 31.5958C34.1987 31.5958 33.7187 31.5958 33.2388 31.5958C33.2388 29.556 33.2388 27.5763 33.2388 25.5365C33.7187 25.5365 34.1987 25.5365 34.6786 25.5365Z" fill="#BDC7F6"/>
<path d="M37.6185 31.5958C37.6185 26.3164 37.6185 20.9771 37.6185 15.6977C37.6185 15.5778 37.5585 15.4578 37.6785 15.3378C37.6785 15.4578 37.6785 15.6377 37.6785 15.7577C37.6785 21.0371 37.6785 26.3164 37.6785 31.6558C37.6785 31.5958 37.6185 31.5958 37.6185 31.5958Z" fill="#76C3F7"/>
<path d="M24.4799 28.2362C24.5399 28.1162 24.6599 28.1162 24.7199 28.1162C27.2996 28.1162 29.8792 28.1162 32.4589 28.1162C32.6989 28.1162 32.8789 28.1162 32.9989 28.3562C33.1788 28.5962 32.9989 28.9561 32.7589 29.0161C32.6989 29.0161 32.5789 29.0161 32.5189 29.0161C29.8792 29.0161 27.2396 29.0161 24.5999 29.0161C24.5399 29.0161 24.4799 29.0161 24.4199 29.0161C24.4199 28.7761 24.4199 28.4762 24.4799 28.2362Z" fill="#3434F4"/>
<path d="M24.4804 28.2363C24.6004 28.5363 24.6004 28.7763 24.4204 29.0763C24.0004 29.7963 23.1004 29.7963 22.6204 29.0763C22.3804 28.8363 22.3804 28.5363 22.5604 28.2363C22.7404 27.8163 23.0404 27.5763 23.4604 27.5763C23.9404 27.5763 24.3004 27.7563 24.4804 28.2363Z" fill="#E8EEFE"/>
<path d="M22.5605 28.2362C22.4405 28.5362 22.4405 28.7762 22.6205 29.0762C22.2605 29.0762 21.9005 29.0762 21.4805 29.0762C21.2405 29.0762 21.0605 28.8962 21.0005 28.6562C21.0005 28.4162 21.1205 28.2362 21.3605 28.1762C21.7205 28.1162 22.0805 28.1762 22.4405 28.1762C22.5605 28.1162 22.5605 28.1762 22.5605 28.2362Z" fill="#3434F4"/>
<path d="M25.9796 18.5174C25.7997 18.8774 25.6197 18.9973 25.3197 18.8774C25.0797 18.7574 25.0198 18.5774 25.0797 18.2774C25.1397 18.1574 25.1397 17.9775 25.1997 17.8575C25.1997 17.7975 25.1997 17.7375 25.1997 17.7375C25.4997 16.6576 25.7397 15.5178 26.0396 14.4379C26.0996 14.2579 26.1596 14.0779 26.3396 14.018C26.5196 13.958 26.6995 13.958 26.8195 14.0779C26.9995 14.1979 26.9995 14.3779 26.9395 14.6179C26.6995 15.6378 26.3996 16.6576 26.1596 17.6775C26.1596 17.9775 26.0996 18.2774 25.9796 18.5174Z" fill="#3C589F"/>
<path d="M16.9807 29.0162C16.9207 29.0162 16.8607 29.0162 16.8007 29.0162C16.5007 29.0162 16.3207 28.8362 16.2607 28.5962C16.2607 28.3562 16.3807 28.1762 16.6807 28.1162C16.8607 28.0562 17.1007 28.0562 17.2807 28.1162C17.5207 28.1762 17.7007 28.4162 17.7007 28.6562C17.6407 28.8962 17.4607 29.0162 17.2207 29.0762C17.1007 29.0162 17.0407 29.0162 16.9807 29.0162Z" fill="#BABA04"/>
</g>
<defs>
<clipPath id="clip0_806_8126">
<rect width="30.3563" height="31.0762" fill="white" transform="translate(9.36182 9.63849)"/>
</clipPath>
</defs>
</svg>
