<svg width="49" height="49" viewBox="0 0 49 49" fill="none" xmlns="http://www.w3.org/2000/svg">
<rect x="0.540039" y="0.806763" width="48" height="48" rx="24" fill="#E9F6FD"/>
<g clip-path="url(#clip0_806_9834)">
<path d="M10.7119 24.5182C11.1319 23.9183 11.6118 23.3783 12.0317 22.7784C13.2916 21.2186 14.5514 19.6588 15.8112 18.0391C16.1112 17.6791 16.3511 17.6191 16.7111 17.9191C17.371 18.339 18.0309 18.759 18.6908 19.1789C19.2908 19.5988 19.9507 19.8988 20.6706 20.0788C21.3305 20.1988 21.9304 20.4387 22.5903 20.6187C22.7103 20.6787 22.8303 20.6787 22.9503 20.6187C23.7901 20.3787 24.69 20.1388 25.5299 19.8988C25.7699 19.8388 25.9498 19.7788 26.1898 19.7788C27.2697 19.7788 28.4095 19.7788 29.4894 19.7788C29.7293 19.7788 29.9093 19.7188 30.0893 19.5988C30.9292 19.0589 31.8291 18.519 32.6689 17.9791C33.0889 17.7391 33.3288 17.7391 33.6288 18.159C35.1286 20.0788 36.5684 21.9985 38.0682 23.9183C38.3682 24.3382 38.3682 24.5782 37.9482 24.8781C37.1683 25.538 36.3884 26.198 35.6085 26.9179C35.4886 27.0378 35.4286 27.0978 35.3686 27.2778C34.8286 28.3577 34.3487 29.4975 33.8088 30.5774C33.7488 30.6973 33.7488 30.8173 33.8088 30.9373C34.4087 32.1371 33.6288 33.577 32.249 33.6969C32.129 33.6969 32.069 33.6969 32.069 33.8769C31.889 34.9568 31.3491 35.4967 30.2693 35.6767C30.0893 35.6767 30.1493 35.7967 30.1493 35.9166C30.0293 36.8165 29.4894 37.4764 28.5895 37.5964C28.2895 37.6564 28.2295 37.7764 28.1695 38.0763C27.9296 39.4562 26.1898 40.1161 25.11 39.1562C24.93 38.9762 24.81 39.0362 24.69 39.1562C24.1501 39.7561 23.4902 39.9361 22.7103 39.6961C21.9904 39.4562 21.5104 38.9762 21.3905 38.1963C21.3905 38.0763 21.3305 38.0763 21.2105 38.0763C20.0706 38.1363 19.2908 37.4764 19.1708 36.3366C19.1708 36.1566 19.1108 36.1566 18.9308 36.1566C17.9109 36.0366 17.191 35.2567 17.191 34.1769C17.191 33.9969 17.191 33.9369 17.0111 33.8769C15.6912 33.577 15.0913 32.0172 15.8712 30.8773C15.9912 30.6973 15.9912 30.6374 15.8712 30.5174C15.1513 29.5575 14.4314 28.5976 13.7115 27.6378C13.3516 27.1578 12.8116 26.7979 12.3317 26.3779C11.9118 26.018 11.4918 25.658 11.0719 25.2981C10.9519 25.1781 10.8919 25.0581 10.7719 24.9981C10.7119 24.6982 10.7119 24.5782 10.7119 24.5182Z" fill="black"/>
<path d="M27.4497 18.759C27.0898 18.759 26.7898 18.339 26.9698 17.9791C26.9698 17.9191 27.0298 17.8591 27.0298 17.8591C28.2896 16.5993 29.5495 15.3395 30.8093 14.1396C31.1093 13.8397 31.5892 14.0196 31.7092 14.4396C31.7692 14.6195 31.6492 14.7995 31.5292 14.9195C30.3294 16.1193 29.0695 17.3792 27.8697 18.579C27.6897 18.699 27.5697 18.759 27.4497 18.759Z" fill="black"/>
<path d="M17.911 13.9596C18.091 13.9596 18.211 14.0196 18.331 14.1396C19.5308 15.3394 20.7306 16.5393 21.9905 17.7991C22.2304 18.0391 22.2304 18.339 21.9905 18.579C21.7505 18.819 21.4505 18.819 21.2106 18.579C20.0107 17.3792 18.8109 16.1793 17.5511 14.9195C17.3711 14.7395 17.3111 14.4996 17.4311 14.2596C17.4911 14.0796 17.671 13.9596 17.911 13.9596Z" fill="black"/>
<path d="M23.9702 16.6595C23.9702 16.1795 23.9702 15.6995 23.9702 15.2195C23.9702 14.8595 24.2102 14.6195 24.5102 14.6195C24.8102 14.6195 25.0502 14.8595 25.0502 15.2195C25.0502 16.1795 25.0502 17.1995 25.0502 18.1595C25.0502 18.5195 24.8102 18.7595 24.5102 18.7595C24.2102 18.7595 23.9702 18.5195 23.9702 18.1595C23.9702 17.6795 23.9702 17.1395 23.9702 16.6595Z" fill="black"/>
<path d="M24.5102 13.5398C24.2102 13.5398 23.9702 13.2998 23.9702 12.9998C23.9702 12.6998 24.2102 12.4598 24.5102 12.4598C24.8102 12.4598 25.0502 12.6998 25.0502 12.9998C25.0502 13.2998 24.8102 13.5398 24.5102 13.5398Z" fill="#010101"/>
<path d="M21.2703 21.3386C21.2104 21.4586 21.1504 21.5786 21.0904 21.6386C20.4305 22.7784 19.8305 23.8583 19.1706 24.9981C18.5107 26.138 19.1106 27.5178 20.3705 27.8177C21.2104 28.0577 22.0502 27.6978 22.5302 26.9179C22.9501 26.198 23.3701 25.4781 23.79 24.7582C23.85 24.5782 23.97 24.5782 24.15 24.5782C24.8099 24.6382 25.4698 24.6982 26.1297 24.6982C26.2497 24.6982 26.3697 24.7582 26.4896 24.8781C28.5894 26.9779 30.6291 29.0176 32.7288 31.1173C33.0887 31.4773 33.0887 32.0172 32.7888 32.3171C32.4288 32.6771 31.9489 32.6171 31.5889 32.2571C30.4491 31.1173 29.3693 30.0374 28.2294 28.8976C28.1694 28.8376 28.1094 28.7776 27.9894 28.7176C27.8095 28.5976 27.5095 28.5976 27.3295 28.7776C27.1496 28.9576 27.0896 29.2576 27.2695 29.4375C27.3295 29.4975 27.3895 29.5575 27.4495 29.6175C28.5894 30.7573 29.6692 31.8972 30.8091 32.977C31.289 33.457 31.109 34.2369 30.4491 34.4169C30.0892 34.5368 29.8492 34.3569 29.5492 34.1169C28.8293 33.397 28.1094 32.6771 27.3895 31.9572C27.3295 31.8972 27.2695 31.8372 27.2095 31.7772C26.9696 31.5972 26.6696 31.6572 26.4896 31.8372C26.3097 32.0172 26.3097 32.3171 26.4296 32.4971C26.5496 32.6771 26.7296 32.7971 26.8496 32.9171C27.5095 33.577 28.1694 34.2369 28.7693 34.8968C29.2493 35.3767 29.0693 36.1566 28.4094 36.2766C28.1094 36.3366 27.8095 36.2766 27.5695 36.0366C27.1496 35.6167 26.7896 35.1967 26.3697 34.8368C26.0697 34.5368 25.5898 34.5968 25.4698 34.9568C25.3498 35.1967 25.4698 35.4367 25.6498 35.6167C26.0697 36.0366 26.4896 36.4566 26.8496 36.8765C27.3295 37.3565 27.0896 38.0764 26.4896 38.2563C26.1297 38.3763 25.8897 38.1963 25.5898 37.9564C25.5298 37.8964 25.5298 37.8364 25.5898 37.7164C26.0097 36.5166 25.4698 35.4367 24.2699 35.1368C24.15 35.0768 24.15 35.0768 24.15 34.9568C24.2699 33.8169 23.55 32.9171 22.4102 32.7971C22.2902 32.7971 22.2302 32.7971 22.2302 32.6171C22.1102 31.4173 21.2703 30.7573 20.1305 30.8173C19.9505 30.8173 19.9505 30.8173 19.8905 30.6374C19.5306 29.3775 18.0308 28.8376 16.9509 29.5575C16.8309 29.6775 16.711 29.6775 16.651 29.4975C16.0511 28.6576 15.4511 27.8777 14.8512 27.0379C14.7312 26.9179 14.7312 26.8579 14.8512 26.6779C16.411 24.7582 18.0308 22.8384 19.5906 20.9187C19.6506 20.8587 19.7106 20.7387 19.8305 20.7987C20.2505 21.0987 20.7304 21.2186 21.2703 21.3386Z" fill="#FBC79C"/>
<path d="M32.909 29.8575C32.789 29.7375 32.789 29.6175 32.729 29.5575C30.8693 27.6378 28.9495 25.778 27.0898 23.8583C26.9098 23.6783 26.7298 23.5583 26.4299 23.5583C25.53 23.4983 24.6301 23.4383 23.7302 23.3784C23.4303 23.3784 23.2503 23.4983 23.0703 23.7383C22.5904 24.5782 22.1104 25.4181 21.6305 26.258C21.4505 26.5579 21.1506 26.7379 20.7906 26.6779C20.4307 26.6179 20.2507 26.4379 20.1307 26.138C20.0707 25.898 20.0707 25.658 20.1907 25.4181C20.8506 24.2782 21.5105 23.1384 22.1104 21.9985C22.1704 21.8786 22.2304 21.8786 22.3504 21.8186C23.5503 21.4586 24.7501 21.0987 26.0099 20.7987C26.1299 20.7387 26.2499 20.7387 26.3099 20.7387C27.3897 20.7387 28.4696 20.7387 29.6094 20.7387C29.7894 20.7387 29.9094 20.7987 29.9694 20.9187C31.4092 22.7784 32.849 24.5782 34.2888 26.4379C34.4088 26.6179 34.4088 26.7379 34.3488 26.8579C33.8089 27.8777 33.3889 28.8376 32.909 29.8575Z" fill="#FBC79C"/>
<path d="M18.6311 20.4388C18.6311 20.4987 18.5711 20.4987 18.5111 20.5587C17.0113 22.3585 15.5115 24.2182 14.0117 26.018C13.8917 26.138 13.8317 26.198 13.7117 26.078C13.1718 25.5981 12.6319 25.1181 12.0919 24.6982C11.972 24.5782 11.972 24.5182 12.0919 24.3982C13.2318 23.0184 14.3716 21.5786 15.5115 20.1988C15.7514 19.8988 16.0514 19.5389 16.2914 19.2389C16.4114 19.1189 16.4713 19.0589 16.5913 19.1789C17.1913 19.5989 17.8512 19.9588 18.4511 20.3788C18.5711 20.3188 18.6311 20.3788 18.6311 20.4388Z" fill="#6288F9"/>
<path d="M36.9883 24.2182C36.9883 24.2782 36.9283 24.3382 36.8683 24.3382C36.3284 24.8182 35.7884 25.2981 35.1885 25.778C35.0685 25.898 35.0086 25.838 34.9486 25.778C33.6287 24.0383 32.2489 22.3585 30.8691 20.6187C30.7491 20.4988 30.8091 20.4388 30.9291 20.3788C31.589 19.9588 32.1889 19.5989 32.7889 19.1789C32.9088 19.1189 32.9688 19.1189 33.0288 19.2389C34.2886 20.8587 35.5485 22.5385 36.8083 24.1583C36.9283 24.1583 36.9883 24.1583 36.9883 24.2182Z" fill="#6288F9"/>
<path d="M19.1108 34.8972C18.7508 34.8972 18.5108 34.7172 18.3308 34.4172C18.2108 34.1172 18.2108 33.7572 18.4508 33.5172C18.8708 33.0372 19.3508 32.6172 19.7708 32.1972C20.0708 31.8972 20.5508 31.8972 20.8508 32.1972C21.1508 32.4972 21.2108 32.9772 20.9708 33.3372C20.4908 33.8172 20.0108 34.2972 19.5308 34.7772C19.4108 34.8372 19.2308 34.8972 19.1108 34.8972Z" fill="#FBC79C"/>
<path d="M20.1904 36.0369C20.1904 35.7969 20.2504 35.6169 20.4304 35.4369C20.8504 35.0169 21.2704 34.5969 21.6904 34.1769C22.0504 33.8169 22.5304 33.8169 22.8904 34.1769C23.1904 34.4769 23.2504 35.0169 22.8904 35.3769C22.4704 35.7969 22.0504 36.2169 21.5704 36.6969C21.3304 36.9369 21.0304 36.9969 20.6704 36.8769C20.3704 36.6369 20.1904 36.3969 20.1904 36.0369Z" fill="#FBC79C"/>
<path d="M24.6904 36.9366C24.6904 37.5366 23.7904 38.5566 23.2504 38.5566C22.8904 38.5566 22.6504 38.4366 22.4704 38.1366C22.2904 37.8366 22.3504 37.4766 22.5904 37.2366C22.8304 36.9366 23.0704 36.6966 23.3704 36.4566C23.6104 36.2166 23.9104 36.2166 24.2704 36.3366C24.5104 36.4566 24.6904 36.6966 24.6904 36.9366Z" fill="#FBC79C"/>
<path d="M18.0309 30.3974C18.3909 30.3974 18.6309 30.5774 18.7509 30.8774C18.8709 31.1774 18.8709 31.5374 18.6309 31.7774C18.3909 32.0174 18.1509 32.3174 17.8509 32.5574C17.5509 32.8574 17.0709 32.7974 16.7709 32.4974C16.4709 32.1974 16.4109 31.7174 16.7109 31.4174C16.9509 31.1174 17.2509 30.8774 17.5509 30.5774C17.6709 30.4574 17.8509 30.3974 18.0309 30.3974Z" fill="#FBC79C"/>
</g>
<defs>
<clipPath id="clip0_806_9834">
<rect width="27.6562" height="27.6562" fill="white" transform="translate(10.7119 12.1599)"/>
</clipPath>
</defs>
</svg>
