<svg width="49" height="49" viewBox="0 0 49 49" fill="none" xmlns="http://www.w3.org/2000/svg">
<rect x="0.620605" y="0.613525" width="48" height="48" rx="24" fill="#FEF6D0"/>
<g clip-path="url(#clip0_806_1664)">
<path d="M25.55 8.84198C25.9699 9.02196 26.4499 9.02196 26.8698 9.14195C28.5496 9.68188 29.9295 10.7018 31.0693 11.9616C31.4293 12.3216 31.7293 12.7415 32.0292 13.1015C32.4492 13.4015 32.6292 13.8814 32.8691 14.2414C33.1091 14.6013 33.2891 15.0213 33.4691 15.3812C34.249 16.8811 34.7289 18.4409 35.1489 20.0607C35.3889 21.2006 35.5688 22.4004 35.6888 23.6003C35.7488 24.3202 35.7488 25.0401 35.7488 25.7601C35.7488 26.48 35.6888 27.1999 35.6888 27.8598C35.5688 29.1197 35.3889 30.3195 35.0889 31.5194C34.7289 33.1392 34.189 34.6391 33.4091 36.1389C33.1091 36.8588 32.6292 37.5187 32.2092 38.1787C32.1492 38.2386 32.0892 38.2986 31.9692 38.3586C31.1293 39.4385 30.2294 40.4584 29.0296 41.2383C28.0097 41.9582 26.8698 42.4382 25.61 42.6181C25.55 42.6181 25.55 42.6781 25.49 42.6781C25.19 42.6781 24.89 42.6781 24.6501 42.6781C24.5901 42.6181 24.5301 42.5582 24.5301 42.4382C24.5301 41.8982 24.4701 41.2983 24.5301 40.7584C24.5901 40.5784 24.7701 40.5784 24.89 40.5784C26.2099 40.4584 27.4098 39.9185 28.4296 39.0785C28.7296 38.8386 28.9696 38.5386 29.2695 38.2986C29.8695 37.6987 30.3494 37.0388 30.7694 36.3789C31.3093 35.5989 31.6693 34.759 32.0292 33.8591C32.4492 32.7793 32.8091 31.6394 32.9891 30.4395C33.2291 29.2397 33.3491 28.0398 33.4091 26.8399C33.5291 24.8002 33.3491 22.8204 32.9891 20.8406C32.8091 19.6408 32.4492 18.5609 32.0292 17.421C31.7293 16.5211 31.2493 15.6812 30.7694 14.9013C30.3494 14.1814 29.8695 13.5214 29.2695 12.9815C28.3097 11.9616 27.1698 11.1817 25.7299 10.8817C25.49 11.0017 25.19 11.0017 24.89 10.9417C24.7701 10.9417 24.6501 10.9417 24.5901 10.7618C24.5301 10.2218 24.5901 9.62189 24.5901 9.08195C24.5901 9.02196 24.6501 8.90197 24.7101 8.84198C24.95 8.84198 25.25 8.84198 25.55 8.84198Z" fill="#66CBFE"/>
<path d="M24.7104 40.8184C24.7104 41.4783 24.7104 42.1382 24.7104 42.7981C24.4104 42.7981 24.1105 42.7981 23.8705 42.7981C23.5705 42.6781 23.2106 42.6181 22.8506 42.5582C21.5908 42.1982 20.4509 41.5383 19.431 40.6984C18.6511 40.0384 18.0512 39.2585 17.3912 38.4786C16.9713 38.1187 16.7913 37.6387 16.4913 37.2188C16.3113 36.8588 16.1314 36.5588 15.9514 36.1989C15.2315 34.759 14.7515 33.1992 14.3316 31.6394C14.0916 30.4395 13.9116 29.2397 13.7916 28.0398C13.7916 27.2599 13.6716 26.48 13.7316 25.7001C13.7316 25.0401 13.7916 24.3802 13.8516 23.7803C13.9716 22.8804 14.0316 21.9805 14.2116 21.0806C14.2716 20.7806 14.3316 20.4207 14.4516 20.1207C14.8115 18.6209 15.2915 17.181 15.9514 15.8012C16.0114 15.6812 16.0714 15.5612 16.0714 15.4412C16.4313 14.8413 16.7313 14.1814 17.1513 13.5814C17.2112 13.4615 17.2712 13.3415 17.1513 13.2215C17.4512 13.2215 17.6312 12.9815 17.8112 12.7415C18.9511 11.1217 20.5109 9.86186 22.4906 9.20194C22.9106 9.08195 23.3905 8.96197 23.8105 8.90197C23.9305 8.84198 24.1105 8.90197 24.2305 8.84198C24.4104 8.84198 24.5304 8.84198 24.7104 8.84198C24.7104 9.50191 24.7104 10.1618 24.7104 10.8218C24.5304 11.0017 24.2305 10.9417 23.9905 10.9417C22.6106 11.1817 21.4708 11.7816 20.5109 12.6815C20.3309 12.8015 20.1509 12.9215 20.0309 13.1015C19.431 13.7014 18.951 14.3614 18.5311 15.0813C18.0512 15.8612 17.6912 16.7011 17.3312 17.541C16.9113 18.6809 16.5513 19.8807 16.3113 21.0806C15.9514 22.9404 15.7714 24.8002 15.8914 26.66C15.9514 27.7998 16.0714 28.9397 16.2514 30.0796C16.3113 30.2596 16.3713 30.4395 16.4313 30.6195C16.4313 30.8595 16.4913 31.0995 16.5513 31.2794C16.7913 32.1793 17.0313 33.1392 17.3912 33.9791C17.6912 34.819 18.1111 35.6589 18.5911 36.4389C19.011 37.1588 19.551 37.8187 20.1509 38.4786C20.6309 38.8386 20.9908 39.3185 21.5308 39.6185C22.4307 40.2184 23.4505 40.5784 24.5304 40.6984C24.5304 40.7584 24.5904 40.7584 24.7104 40.8184Z" fill="#98EDFE"/>
<path d="M24.2305 8.84198C24.1105 8.96198 23.9905 8.90198 23.8105 8.90198V8.84198C23.9305 8.84198 24.1105 8.84198 24.2305 8.84198Z" fill="#CEF6FE"/>
<path d="M14.3915 20.0008C14.2115 20.7807 14.0916 21.5606 13.9716 22.4005C13.9116 22.8204 13.8516 23.2404 13.7916 23.6603C13.4916 24.2603 13.0717 24.6802 12.7117 25.2202C12.5917 25.4601 12.4117 25.7001 12.3517 25.9401C11.9318 26.6 11.6318 27.3799 11.3919 28.0998C11.2119 28.7598 11.0319 29.4197 11.0319 30.1396C10.9719 31.6994 11.5118 33.1393 12.5917 34.2791C13.4916 35.299 14.6915 35.839 16.0113 36.1989C16.4313 36.9788 16.9112 37.7587 17.3912 38.5387C15.7114 38.3587 14.0916 37.9987 12.6517 37.0988C11.5118 36.3789 10.6119 35.419 9.95202 34.2791C9.41208 33.3192 9.11212 32.2394 8.99213 31.0995C8.81215 29.5397 9.17211 28.0398 9.71205 26.6C9.83204 26.36 10.012 26.1201 10.012 25.8201C10.252 25.2202 10.552 24.6802 10.9119 24.1403C11.0319 23.9603 11.1519 23.7203 11.2719 23.5404C11.6918 23.0604 12.0518 22.4605 12.4717 21.9805C13.0117 21.3806 13.4916 20.7807 14.0916 20.1807C14.1515 20.0608 14.2115 19.9408 14.3915 20.0008Z" fill="#E0E5EF"/>
<path d="M11.2717 23.4803C11.1517 23.9603 10.7918 24.3802 10.5518 24.8002C10.3718 25.1001 10.3118 25.5201 10.0119 25.7601C9.65191 24.8602 9.29195 23.9603 9.11197 22.9404C8.63202 20.3607 9.23195 18.021 10.9718 16.0412C12.2916 14.5413 14.0314 13.7014 16.0112 13.3415C16.3711 13.2815 16.7311 13.2215 17.0311 13.2215C17.1511 13.2815 17.391 13.1615 17.211 13.4015C16.7911 14.0014 16.4311 14.6013 16.1312 15.2013C16.0712 15.2613 16.0112 15.3213 15.9512 15.3813C15.8912 15.5012 15.7112 15.5012 15.5912 15.5612C13.9114 16.0412 12.5916 16.9411 11.7517 18.5009C11.2117 19.5208 10.9118 20.6607 11.0917 21.8605C11.1517 22.2805 11.2117 22.7604 11.3317 23.1804C11.3317 23.3004 11.3317 23.4203 11.2717 23.4803Z" fill="#80A9FE"/>
<path d="M33.3491 15.5012C32.9291 14.7213 32.4492 13.9414 31.9692 13.1615C34.069 13.3415 35.9888 13.9414 37.6686 15.3213C39.1684 16.6411 40.0683 18.2609 40.3683 20.2407C40.6083 21.8605 40.3083 23.4203 39.7084 24.9802C39.5884 25.2801 39.4084 25.5801 39.3484 25.8801C39.1084 26.48 38.8085 27.0199 38.5085 27.4999C38.3885 27.7398 38.2685 27.9198 38.1485 28.1598C38.0286 28.2198 37.9686 28.3398 37.8486 28.4598C37.0687 29.5396 36.2288 30.4995 35.3289 31.4594C35.2089 31.5794 35.1489 31.6994 34.9689 31.6994C35.2089 30.5595 35.4488 29.4797 35.5088 28.3398C35.5088 28.2198 35.5688 28.1598 35.5688 28.0398C35.6888 27.7398 35.8688 27.4999 36.0488 27.2599C36.3487 26.78 36.7087 26.3 36.9487 25.8201C37.3086 25.1001 37.7286 24.3202 37.9086 23.5403C38.5685 21.3806 38.3285 19.4008 36.8887 17.601C36.1088 16.6411 35.0289 16.0412 33.889 15.6812C33.709 15.5612 33.5291 15.5612 33.3491 15.5012Z" fill="#CED6E5"/>
<path d="M38.0886 28.2198C38.0886 28.1598 38.0886 28.0398 38.1486 27.9798C38.5686 27.3199 38.9285 26.66 39.2885 25.9401L39.3485 25.8801C39.9484 27.1999 40.3684 28.6398 40.4283 30.1396C40.4883 33.7392 38.3286 36.7388 34.909 37.8787C33.9491 38.1787 32.9892 38.4186 32.0293 38.4786C32.5092 37.7587 32.9892 37.0388 33.3491 36.1989C33.4691 36.0789 33.6491 36.0789 33.7691 36.0189C35.5689 35.479 36.9487 34.5191 37.7886 32.7793C38.4486 31.3994 38.4486 30.0196 38.1486 28.5198C38.0286 28.4598 37.9686 28.3398 38.0886 28.2198Z" fill="#6680FE"/>
<path d="M24.5903 35.539C25.4302 35.359 26.1502 34.999 26.9301 34.6991C28.0099 34.2191 29.0298 33.7392 29.9897 33.0792C30.8296 32.5393 31.6695 31.9394 32.4494 31.2794C32.6894 31.0995 32.8694 30.9195 33.1094 30.7395C32.9894 31.5794 32.7494 32.3593 32.5094 33.1392C32.3894 33.4392 32.3295 33.7992 32.1495 34.0991C32.0295 34.3391 31.7895 34.4591 31.6095 34.5791C30.7096 35.179 29.8097 35.7189 28.8498 36.1389C28.6699 36.2589 28.4299 36.3189 28.2499 36.4389C27.53 36.6788 26.8701 36.9788 26.2101 37.2788C25.7302 37.4587 25.2503 37.5787 24.8303 37.7587C24.7703 37.7587 24.7103 37.6987 24.6503 37.6387C24.5903 36.9788 24.6503 36.3189 24.5903 35.6589C24.5903 35.5989 24.5903 35.599 24.5903 35.539Z" fill="#CED6E5"/>
<path d="M33.1091 20.9606C32.0892 20.0607 31.0093 19.2208 29.8694 18.5009C28.3096 17.541 26.6898 16.7611 24.95 16.2212C24.89 16.2212 24.83 16.1612 24.77 16.1612C24.77 16.0412 24.83 15.9812 24.95 15.9812C26.0299 15.6812 27.0498 15.3813 28.1896 15.2613C28.6696 15.3813 29.1495 15.6812 29.5695 15.9212C30.2894 16.2812 31.0093 16.7611 31.6692 17.1811C31.8492 17.3011 32.0292 17.421 32.1492 17.601C32.5691 18.6809 32.9291 19.8208 33.1091 20.9606Z" fill="#6680FE"/>
<path d="M28.1897 15.3213C26.9899 15.4412 25.85 15.7412 24.7101 16.1012H24.6501C24.5301 15.9812 24.5301 15.8012 24.5301 15.6212C24.5301 15.1413 24.5901 14.6613 24.4701 14.1814C24.4102 14.1214 24.4102 14.0614 24.4102 13.9414C24.8301 14.0014 25.1301 13.8214 25.55 13.7614C26.8099 13.4615 28.0697 13.2215 29.3896 13.1615C29.9895 13.7014 30.4695 14.3614 30.8294 15.0813C30.5895 15.2613 30.2895 15.2013 30.0495 15.2013C29.4496 15.2613 28.7897 15.3812 28.1897 15.3213Z" fill="#CED6E5"/>
<path d="M29.3896 38.5386C27.8897 38.4786 26.4499 38.1787 25.0701 37.7587C25.0101 37.7587 24.9501 37.6987 24.8301 37.6987C24.8301 37.5188 25.0101 37.5788 25.0701 37.5188C26.0299 37.2188 26.9898 36.8588 27.9497 36.4389C28.0697 36.3789 28.1897 36.3789 28.3097 36.3789C28.4897 36.2589 28.6696 36.3189 28.8496 36.3189C29.3296 36.3789 29.7495 36.3789 30.2295 36.3789C30.4694 36.3789 30.7094 36.3789 30.9494 36.5589C30.7094 37.0388 30.3495 37.4588 30.0495 37.8787C29.7495 38.1187 29.6295 38.3587 29.3896 38.5386Z" fill="#6680FE"/>
<path d="M35.0293 20.1207C35.4492 20.3607 35.6892 20.7207 35.9892 21.0206C36.7091 21.8005 37.369 22.6404 37.969 23.4803C37.909 24.0203 37.669 24.4402 37.429 24.9202C37.309 25.2201 37.1891 25.5201 37.0091 25.7601C36.8891 25.7001 36.8291 25.6401 36.8291 25.5801C36.5291 24.9802 36.1092 24.4402 35.6892 23.9003C35.6292 23.7803 35.6292 23.7203 35.5692 23.6003C35.4492 22.5205 35.3293 21.4406 35.0893 20.3607C35.0293 20.3007 35.0293 20.1807 35.0293 20.1207Z" fill="#6680FE"/>
<path d="M24.5305 14.0614C24.7104 14.0614 24.6504 14.2414 24.6504 14.3614C24.6504 14.9613 24.6504 15.5612 24.6504 16.1612C23.9305 16.2811 23.2706 16.5811 22.6107 16.8811C21.2308 17.481 19.851 18.2009 18.6511 19.0408C17.7512 19.6408 16.9713 20.3007 16.1914 21.0206C16.4314 19.8207 16.7313 18.6209 17.2713 17.481C18.0512 16.9411 18.8311 16.4011 19.671 15.9812C20.2109 15.6812 20.6909 15.4412 21.2308 15.2013C22.1907 14.7813 23.1506 14.4214 24.1705 14.0614C24.2305 14.0614 24.4105 14.0014 24.5305 14.0614Z" fill="#E0E5EF"/>
<path d="M24.5904 35.539C24.4705 35.7189 24.3505 35.7189 24.2305 35.7789C23.3906 36.0189 22.4907 36.2589 21.6508 36.3789C21.5308 36.3789 21.3508 36.3789 21.2308 36.3789C20.2109 36.0189 19.311 35.479 18.4111 34.879C17.9912 34.6391 17.6312 34.3991 17.2713 34.0991C16.7913 33.0792 16.5514 31.9994 16.3114 30.9795C16.3114 30.9195 16.2514 30.7995 16.3714 30.7395C18.1112 32.2993 20.031 33.6192 22.1307 34.5791C22.9106 34.939 23.7505 35.239 24.5904 35.539Z" fill="#80A9FE"/>
<path d="M21.1709 36.3189C22.1908 36.2589 23.2107 35.959 24.1705 35.719C24.2905 35.659 24.4705 35.659 24.5905 35.599C24.7105 35.719 24.6505 35.839 24.6505 35.959C24.6505 36.5589 24.6505 37.0988 24.6505 37.6988C23.3906 38.0587 22.1308 38.2987 20.8709 38.4787C20.571 38.5387 20.271 38.5387 19.971 38.5987C19.3711 37.9987 18.8911 37.3388 18.4712 36.6189C18.7112 36.4389 19.0711 36.4989 19.3111 36.4989C19.911 36.4389 20.511 36.3189 21.1709 36.3189Z" fill="#E0E5EF"/>
<path d="M24.5304 14.0614C23.4506 14.3614 22.4907 14.7213 21.4708 15.2013C21.3508 15.2613 21.2908 15.3213 21.1708 15.2613C21.1108 15.3213 20.9908 15.3212 20.8709 15.3212C20.1509 15.2613 19.431 15.2013 18.6511 15.1413C18.5911 15.1413 18.4711 15.1413 18.4111 15.0213C18.8911 14.3614 19.311 13.6414 19.911 13.1015C21.4708 13.2215 22.9706 13.5215 24.4105 13.8814C24.4704 14.0014 24.5304 14.0614 24.5304 14.0614Z" fill="#80A9FE"/>
<path d="M14.3312 31.6394C13.1913 30.5595 12.2314 29.3597 11.3315 28.0998C11.5115 27.3199 11.8715 26.66 12.2314 26.0001C12.2314 25.9401 12.2914 25.9401 12.3514 25.9401C12.4714 26.0001 12.5314 26.12 12.5914 26.18C12.8914 26.66 13.2513 27.1399 13.6113 27.6199C13.7313 27.7399 13.7913 27.9198 13.8513 28.0398C13.9113 28.6398 14.0312 29.2397 14.0912 29.8396C14.1512 30.3796 14.2712 30.8595 14.3912 31.3994C14.3312 31.4594 14.3912 31.5794 14.3312 31.6394Z" fill="#80A9FE"/>
<path d="M29.6297 26.0601C29.6297 27.6799 29.6297 29.2397 29.6297 30.8595C29.6297 31.3395 29.2697 31.5794 28.9698 31.8194C28.2499 32.3594 27.4099 32.5393 26.51 32.6593C25.9101 32.7793 25.2502 32.8393 24.6503 32.7793C24.5303 32.6593 24.5303 32.5393 24.5303 32.4193C24.5303 30.9795 24.5303 29.4797 24.5303 28.0398C24.5303 27.9799 24.5303 27.9798 24.5303 27.9199C24.5303 27.8599 24.5303 27.8599 24.5903 27.7999C24.9502 27.6199 25.3702 27.6799 25.7901 27.6799C26.69 27.5599 27.5299 27.3799 28.3698 27.02C28.7898 26.84 29.2097 26.54 29.4497 26.1201C29.5097 26.0601 29.5697 26.0001 29.6297 26.0601Z" fill="#CED6E5"/>
<path d="M24.6502 27.8599C24.6502 29.5397 24.6502 31.1595 24.6502 32.8393C23.2703 32.8393 21.9505 32.6593 20.6906 32.0594C20.0307 31.7594 19.6107 31.2195 19.6707 30.4396C19.7307 28.9997 19.6707 27.5599 19.6707 26.1201C19.7907 26.1201 19.7907 26.18 19.8507 26.24C20.0907 26.66 20.5106 26.96 20.9306 27.1399C21.9505 27.6199 23.0903 27.7399 24.2302 27.7999C24.4102 27.7399 24.5302 27.6799 24.6502 27.8599Z" fill="#E0E5EF"/>
<path d="M24.6503 27.8599C23.3905 27.8599 22.1306 27.6799 20.9308 27.1999C20.3908 26.96 19.9109 26.66 19.6709 26.0601C19.6709 24.3803 19.6709 22.7604 19.6709 21.0806C19.7309 21.0806 19.7309 21.0806 19.7909 21.1406C20.2108 21.9205 20.9907 22.1605 21.7107 22.4005C22.5506 22.6405 23.3905 22.7604 24.2904 22.7604C24.4104 22.7604 24.5303 22.7604 24.6503 22.8204C24.6503 22.8804 24.7103 22.8804 24.7103 22.9404C24.7703 23.1204 24.7703 23.3004 24.7703 23.4204C24.7703 24.7402 24.7703 26.0001 24.7703 27.3199C24.7703 27.4999 24.8303 27.6799 24.6503 27.8599Z" fill="#CED6E5"/>
<path d="M24.7104 27.7999C24.7104 26.1201 24.7104 24.5003 24.7104 22.8204C24.8304 22.7005 25.0104 22.7005 25.1304 22.7005C26.0303 22.7005 26.9302 22.5205 27.8301 22.2805C28.49 22.1005 29.09 21.8006 29.5099 21.2006C29.5699 21.1406 29.5699 21.0806 29.6899 21.1406C29.6899 22.7605 29.6899 24.3803 29.6899 26.0601C29.4499 26.72 28.85 27.02 28.25 27.2599C27.1102 27.6799 25.9103 27.8599 24.7104 27.7999Z" fill="#A2B0CB"/>
<path d="M29.6303 21.1408C29.1503 21.9808 28.3103 22.2808 27.4703 22.5208C26.5703 22.7608 25.6103 22.8808 24.6503 22.8808C24.5303 22.7608 24.5303 22.5808 24.5303 22.4608C24.5303 21.4408 24.5303 20.4208 24.5303 19.3408C24.5303 19.1608 24.5303 19.0408 24.6503 18.9208C26.0303 18.9208 27.3503 19.1008 28.6103 19.7008C28.9103 19.8208 29.1503 20.0608 29.3903 20.3008C29.6903 20.5408 29.6903 20.8408 29.6303 21.1408Z" fill="#E0E5EF"/>
<path d="M24.6508 18.8609C24.6508 20.1809 24.6508 21.5009 24.6508 22.8209C23.2708 22.8209 21.9508 22.6409 20.6908 22.0409C20.2108 21.8009 19.8508 21.5009 19.6708 21.0209C19.6108 20.3609 20.0308 20.0009 20.5108 19.7009C21.4108 19.2209 22.3708 18.9809 23.3908 18.8609C23.8708 18.8609 24.2908 18.8609 24.6508 18.8609Z" fill="#F2F4F8"/>
</g>
<defs>
<clipPath id="clip0_806_1664">
<rect width="33.0563" height="35.576" fill="white" transform="translate(8.09229 8.00208)"/>
</clipPath>
</defs>
</svg>
